<svg width="13" height="16" viewBox="0 0 13 16" fill="none" xmlns="http://www.w3.org/2000/svg">
<path d="M6.48986 7.91728e-05C6.31793 0.00276662 6.1541 0.0735548 6.03431 0.196908C5.91452 0.320261 5.84857 0.4861 5.85092 0.658029V0.982567H2.28101C2.19503 0.9814 2.10968 0.997327 2.0299 1.02942C1.95013 1.06152 1.87753 1.10914 1.81632 1.16953C1.7551 1.22992 1.7065 1.30187 1.67332 1.3812C1.64014 1.46052 1.62306 1.54566 1.62306 1.63164H0.65832C0.57231 1.63043 0.486916 1.64632 0.4071 1.67839C0.327284 1.71046 0.254639 1.75808 0.193386 1.81847C0.132133 1.87887 0.0834936 1.95083 0.0502949 2.03018C0.0170962 2.10954 0 2.1947 0 2.28072C0 2.36674 0.0170962 2.4519 0.0502949 2.53125C0.0834936 2.61061 0.132133 2.68257 0.193386 2.74296C0.254639 2.80336 0.327284 2.85097 0.4071 2.88305C0.486916 2.91512 0.57231 2.93101 0.65832 2.92979H12.3417C12.4277 2.93101 12.5131 2.91512 12.5929 2.88305C12.6727 2.85097 12.7454 2.80336 12.8066 2.74296C12.8679 2.68257 12.9165 2.61061 12.9497 2.53125C12.9829 2.4519 13 2.36674 13 2.28072C13 2.1947 12.9829 2.10954 12.9497 2.03018C12.9165 1.95083 12.8679 1.87887 12.8066 1.81847C12.7454 1.75808 12.6727 1.71046 12.5929 1.67839C12.5131 1.64632 12.4277 1.63043 12.3417 1.63164H11.3769C11.3769 1.54566 11.3599 1.46052 11.3267 1.3812C11.2935 1.30187 11.2449 1.22992 11.1837 1.16953C11.1225 1.10914 11.0499 1.06152 10.9701 1.02942C10.8903 0.997327 10.805 0.9814 10.719 0.982567H7.14908V0.658029C7.15026 0.571189 7.13402 0.484994 7.10129 0.404548C7.06857 0.324101 7.02004 0.251039 6.95857 0.189687C6.8971 0.128336 6.82394 0.0799429 6.74343 0.0473741C6.66292 0.0148053 6.5767 -0.00127714 6.48986 7.91728e-05ZM0.65832 4.22794L1.82209 14.1162C1.89868 14.7698 2.45194 15.2622 3.1101 15.2622H9.8899C10.5481 15.2622 11.1007 14.7698 11.1779 14.1162L12.3417 4.22794H0.65832Z" fill="#808080" fill-opacity="0.5"/>
</svg>
