<svg width="288" height="181" viewBox="0 0 288 181" fill="none" xmlns="http://www.w3.org/2000/svg">
<g filter="url(#filter0_d_169_280)">
<rect x="5" y="4" width="278" height="171" rx="4" fill="white"/>
</g>
<path d="M67.625 40C71.6136 40 73.8636 37.5199 73.8636 33.429C73.8636 29.3636 71.6136 26.9091 67.804 26.9091H63.5852V40H67.625ZM65.1705 38.5938V28.3153H67.7017C70.7699 28.3153 72.3295 30.2585 72.3295 33.429C72.3295 36.625 70.7699 38.5938 67.5227 38.5938H65.1705ZM76.3182 40H77.8267V30.1818H76.3182V40ZM77.0852 28.5455C77.6733 28.5455 78.1591 28.0852 78.1591 27.5227C78.1591 26.9602 77.6733 26.5 77.0852 26.5C76.4972 26.5 76.0114 26.9602 76.0114 27.5227C76.0114 28.0852 76.4972 28.5455 77.0852 28.5455ZM83.4789 40.2301C85.1919 40.2301 86.0868 39.3097 86.3936 38.6705H86.4703V40H87.9789V33.5312C87.9789 30.4119 85.601 30.054 84.3482 30.054C82.8652 30.054 81.1777 30.5653 80.4107 32.3551L81.8425 32.8665C82.1749 32.1506 82.9611 31.3835 84.3993 31.3835C85.7864 31.3835 86.4703 32.1186 86.4703 33.3778V33.429C86.4703 34.1577 85.7289 34.0938 83.9391 34.3239C82.1174 34.5604 80.1294 34.9631 80.1294 37.2131C80.1294 39.1307 81.6124 40.2301 83.4789 40.2301ZM83.709 38.875C82.5073 38.875 81.638 38.3381 81.638 37.2898C81.638 36.1392 82.6863 35.7812 83.8624 35.6278C84.5016 35.5511 86.2147 35.3722 86.4703 35.0653V36.446C86.4703 37.6733 85.4988 38.875 83.709 38.875ZM94.6953 43.8864C97.0476 43.8864 98.9396 42.8125 98.9396 40.2812V30.1818H97.4822V31.7415H97.3288C96.9964 31.2301 96.3828 30.054 94.4652 30.054C91.9851 30.054 90.272 32.0227 90.272 35.0398C90.272 38.108 92.0618 39.8466 94.4396 39.8466C96.3572 39.8466 96.9709 38.7216 97.3033 38.1847H97.4311V40.179C97.4311 41.8153 96.2805 42.5568 94.6953 42.5568C92.9119 42.5568 92.2855 41.6172 91.8828 41.0739L90.6811 41.9176C91.2947 42.9467 92.5028 43.8864 94.6953 43.8864ZM94.6442 38.4915C92.7521 38.4915 91.7805 37.0597 91.7805 35.0142C91.7805 33.0199 92.7266 31.4091 94.6442 31.4091C96.4851 31.4091 97.4567 32.892 97.4567 35.0142C97.4567 37.1875 96.4595 38.4915 94.6442 38.4915ZM103.21 34.0938C103.21 32.3807 104.271 31.4091 105.715 31.4091C107.115 31.4091 107.965 32.3232 107.965 33.8636V40H109.474V33.7614C109.474 31.2557 108.138 30.054 106.15 30.054C104.667 30.054 103.746 30.7188 103.286 31.7159H103.158V30.1818H101.701V40H103.21V34.0938ZM116.219 40.2045C118.878 40.2045 120.668 38.1847 120.668 35.142C120.668 32.0739 118.878 30.054 116.219 30.054C113.56 30.054 111.77 32.0739 111.77 35.142C111.77 38.1847 113.56 40.2045 116.219 40.2045ZM116.219 38.8494C114.199 38.8494 113.279 37.1108 113.279 35.142C113.279 33.1733 114.199 31.4091 116.219 31.4091C118.239 31.4091 119.159 33.1733 119.159 35.142C119.159 37.1108 118.239 38.8494 116.219 38.8494ZM129.925 32.3807C129.452 30.9872 128.391 30.054 126.448 30.054C124.377 30.054 122.843 31.2301 122.843 32.892C122.843 34.2472 123.648 35.1548 125.451 35.5767L127.087 35.9602C128.078 36.1903 128.544 36.6634 128.544 37.3409C128.544 38.1847 127.65 38.875 126.243 38.875C125.01 38.875 124.236 38.3445 123.968 37.2898L122.536 37.6477C122.887 39.3161 124.262 40.2045 126.269 40.2045C128.551 40.2045 130.104 38.9581 130.104 37.2642C130.104 35.8963 129.248 35.0334 127.496 34.6051L126.039 34.2472C124.875 33.9595 124.351 33.5696 124.351 32.8153C124.351 31.9716 125.246 31.358 126.448 31.358C127.765 31.358 128.308 32.0866 128.57 32.7642L129.925 32.3807ZM136.491 40.2045C138.486 40.2045 139.943 39.2074 140.403 37.7244L138.946 37.3153C138.562 38.3381 137.674 38.8494 136.491 38.8494C134.721 38.8494 133.5 37.7053 133.43 35.6023H140.557V34.9631C140.557 31.3068 138.383 30.054 136.338 30.054C133.679 30.054 131.915 32.1506 131.915 35.1676C131.915 38.1847 133.653 40.2045 136.491 40.2045ZM133.43 34.2983C133.532 32.7706 134.612 31.4091 136.338 31.4091C137.974 31.4091 139.023 32.6364 139.023 34.2983H133.43ZM146.559 40.2045C148.451 40.2045 149.09 39.0284 149.422 38.4915H149.601V40H151.059V26.9091H149.55V31.7415H149.422C149.09 31.2301 148.502 30.054 146.584 30.054C144.104 30.054 142.391 32.0227 142.391 35.1165C142.391 38.2358 144.104 40.2045 146.559 40.2045ZM146.763 38.8494C144.871 38.8494 143.9 37.1875 143.9 35.0909C143.9 33.0199 144.846 31.4091 146.763 31.4091C148.604 31.4091 149.576 32.892 149.576 35.0909C149.576 37.3153 148.579 38.8494 146.763 38.8494ZM159.298 40H160.883V35.2188H163.747C166.796 35.2188 168.17 33.3651 168.17 31.0511C168.17 28.7372 166.796 26.9091 163.721 26.9091H159.298V40ZM160.883 33.8125V28.3153H163.67C165.799 28.3153 166.611 29.4787 166.611 31.0511C166.611 32.6236 165.799 33.8125 163.696 33.8125H160.883ZM173.409 40.2301C175.122 40.2301 176.017 39.3097 176.323 38.6705H176.4V40H177.909V33.5312C177.909 30.4119 175.531 30.054 174.278 30.054C172.795 30.054 171.107 30.5653 170.34 32.3551L171.772 32.8665C172.105 32.1506 172.891 31.3835 174.329 31.3835C175.716 31.3835 176.4 32.1186 176.4 33.3778V33.429C176.4 34.1577 175.659 34.0938 173.869 34.3239C172.047 34.5604 170.059 34.9631 170.059 37.2131C170.059 39.1307 171.542 40.2301 173.409 40.2301ZM173.639 38.875C172.437 38.875 171.568 38.3381 171.568 37.2898C171.568 36.1392 172.616 35.7812 173.792 35.6278C174.431 35.5511 176.144 35.3722 176.4 35.0653V36.446C176.4 37.6733 175.428 38.875 173.639 38.875ZM184.932 30.1818H182.835V27.8295H181.327V30.1818H179.844V31.4602H181.327V37.5966C181.327 39.3097 182.707 40.1278 183.986 40.1278C184.548 40.1278 184.906 40.0256 185.111 39.9489L184.804 38.5938C184.676 38.6193 184.472 38.6705 184.139 38.6705C183.474 38.6705 182.835 38.4659 182.835 37.1875V31.4602H184.932V30.1818ZM187.201 40H188.71V30.1818H187.201V40ZM187.968 28.5455C188.556 28.5455 189.042 28.0852 189.042 27.5227C189.042 26.9602 188.556 26.5 187.968 26.5C187.38 26.5 186.894 26.9602 186.894 27.5227C186.894 28.0852 187.38 28.5455 187.968 28.5455ZM195.589 40.2045C197.583 40.2045 199.041 39.2074 199.501 37.7244L198.044 37.3153C197.66 38.3381 196.771 38.8494 195.589 38.8494C193.818 38.8494 192.597 37.7053 192.527 35.6023H199.654V34.9631C199.654 31.3068 197.481 30.054 195.436 30.054C192.776 30.054 191.012 32.1506 191.012 35.1676C191.012 38.1847 192.751 40.2045 195.589 40.2045ZM192.527 34.2983C192.629 32.7706 193.71 31.4091 195.436 31.4091C197.072 31.4091 198.12 32.6364 198.12 34.2983H192.527ZM203.458 34.0938C203.458 32.3807 204.519 31.4091 205.963 31.4091C207.363 31.4091 208.213 32.3232 208.213 33.8636V40H209.722V33.7614C209.722 31.2557 208.386 30.054 206.398 30.054C204.915 30.054 203.994 30.7188 203.534 31.7159H203.406V30.1818H201.949V40H203.458V34.0938ZM216.748 30.1818H214.652V27.8295H213.143V30.1818H211.66V31.4602H213.143V37.5966C213.143 39.3097 214.524 40.1278 215.802 40.1278C216.365 40.1278 216.723 40.0256 216.927 39.9489L216.62 38.5938C216.493 38.6193 216.288 38.6705 215.956 38.6705C215.291 38.6705 214.652 38.4659 214.652 37.1875V31.4602H216.748V30.1818ZM225.796 32.3807C225.323 30.9872 224.262 30.054 222.319 30.054C220.248 30.054 218.714 31.2301 218.714 32.892C218.714 34.2472 219.519 35.1548 221.322 35.5767L222.958 35.9602C223.949 36.1903 224.415 36.6634 224.415 37.3409C224.415 38.1847 223.521 38.875 222.114 38.875C220.881 38.875 220.107 38.3445 219.839 37.2898L218.407 37.6477C218.759 39.3161 220.133 40.2045 222.14 40.2045C224.422 40.2045 225.975 38.9581 225.975 37.2642C225.975 35.8963 225.119 35.0334 223.367 34.6051L221.91 34.2472C220.746 33.9595 220.222 33.5696 220.222 32.8153C220.222 31.9716 221.117 31.358 222.319 31.358C223.636 31.358 224.179 32.0866 224.441 32.7642L225.796 32.3807Z" fill="#404040"/>
<path d="M167.943 94.5455H165.83L161.466 97.4432V99.5909L165.727 96.7614H165.83V112H167.943V94.5455ZM178.418 112.239C181.741 112.239 184.179 109.784 184.179 106.443C184.179 103.06 181.827 100.58 178.622 100.58C177.446 100.58 176.304 100.997 175.588 101.568H175.486L176.099 96.4205H183.395V94.5455H174.327L173.27 103.136L175.247 103.375C175.972 102.855 177.207 102.48 178.281 102.489C180.506 102.506 182.134 104.193 182.134 106.477C182.134 108.719 180.565 110.364 178.418 110.364C176.628 110.364 175.205 109.213 175.043 107.636H172.997C173.125 110.295 175.418 112.239 178.418 112.239ZM189.942 109.614H187.761L187.658 110.568C187.411 112.878 186.925 115.179 186.704 116.261H188.238C188.647 115.102 189.516 112.477 189.806 110.534L189.942 109.614ZM193.226 108.42H201.442V112H203.453V108.42H205.839V106.545H203.453V94.5455H200.896L193.226 106.682V108.42ZM201.442 106.545H195.51V106.409L201.305 97.2386H201.442V106.545ZM209.033 112H220.045V110.125H211.931V109.989L215.852 105.795C218.852 102.582 219.738 101.082 219.738 99.1477C219.738 96.4545 217.556 94.3068 214.488 94.3068C211.428 94.3068 209.102 96.3864 209.102 99.4545H211.113C211.113 97.4688 212.4 96.1477 214.42 96.1477C216.312 96.1477 217.761 97.3068 217.761 99.1477C217.761 100.759 216.815 101.952 214.795 104.159L209.033 110.466V112ZM229.156 112.239C232.641 112.239 235.07 110.202 235.087 107.364C235.07 105.156 233.596 103.281 231.712 102.932V102.83C233.349 102.403 234.423 100.801 234.44 98.9432C234.423 96.2841 232.19 94.3068 229.156 94.3068C226.087 94.3068 223.854 96.2841 223.871 98.9432C223.854 100.801 224.928 102.403 226.599 102.83V102.932C224.681 103.281 223.207 105.156 223.224 107.364C223.207 110.202 225.636 112.239 229.156 112.239ZM229.156 110.364C226.761 110.364 225.286 109.136 225.303 107.261C225.286 105.293 226.914 103.886 229.156 103.886C231.363 103.886 232.991 105.293 233.008 107.261C232.991 109.136 231.516 110.364 229.156 110.364ZM229.156 102.08C227.246 102.08 225.9 100.886 225.917 99.0795C225.9 97.3068 227.195 96.1477 229.156 96.1477C231.082 96.1477 232.377 97.3068 232.394 99.0795C232.377 100.886 231.031 102.08 229.156 102.08ZM250.251 108.932H252.161V104.261H256.831V102.352H252.161V97.6818H250.251V102.352H245.581V104.261H250.251V108.932Z" fill="#151E28"/>
<path d="M161.605 145.727H160.767V153H161.605V145.727ZM164.745 153.128C165.697 153.128 166.194 152.616 166.365 152.261H166.407V153H167.245V149.406C167.245 147.673 165.924 147.474 165.228 147.474C164.404 147.474 163.467 147.759 163.041 148.753L163.836 149.037C164.021 148.639 164.458 148.213 165.257 148.213C166.027 148.213 166.407 148.621 166.407 149.321V149.349C166.407 149.754 165.995 149.719 165.001 149.847C163.989 149.978 162.884 150.202 162.884 151.452C162.884 152.517 163.708 153.128 164.745 153.128ZM164.873 152.375C164.205 152.375 163.722 152.077 163.722 151.494C163.722 150.855 164.305 150.656 164.958 150.571C165.313 150.528 166.265 150.429 166.407 150.259V151.026C166.407 151.707 165.867 152.375 164.873 152.375ZM172.638 148.767C172.376 147.993 171.786 147.474 170.707 147.474C169.556 147.474 168.704 148.128 168.704 149.051C168.704 149.804 169.151 150.308 170.153 150.543L171.062 150.756C171.612 150.884 171.871 151.146 171.871 151.523C171.871 151.991 171.374 152.375 170.593 152.375C169.908 152.375 169.478 152.08 169.329 151.494L168.533 151.693C168.729 152.62 169.492 153.114 170.607 153.114C171.875 153.114 172.738 152.421 172.738 151.48C172.738 150.72 172.262 150.241 171.289 150.003L170.479 149.804C169.833 149.644 169.542 149.428 169.542 149.009C169.542 148.54 170.039 148.199 170.707 148.199C171.438 148.199 171.74 148.604 171.886 148.98L172.638 148.767ZM176.372 147.545H175.207V146.239H174.369V147.545H173.545V148.256H174.369V151.665C174.369 152.616 175.136 153.071 175.846 153.071C176.159 153.071 176.357 153.014 176.471 152.972L176.301 152.219C176.23 152.233 176.116 152.261 175.931 152.261C175.562 152.261 175.207 152.148 175.207 151.438V148.256H176.372V147.545ZM183.882 150.77C183.882 151.793 183.101 152.261 182.476 152.261C181.78 152.261 181.283 151.75 181.283 150.955V147.545H180.445V151.011C180.445 152.403 181.183 153.071 182.206 153.071C183.03 153.071 183.57 152.631 183.825 152.077H183.882V153H184.72V147.545H183.882V150.77ZM186.255 155.045H187.093V152.162H187.164C187.349 152.46 187.704 153.114 188.755 153.114C190.119 153.114 191.071 152.02 191.071 150.287C191.071 148.568 190.119 147.474 188.741 147.474C187.676 147.474 187.349 148.128 187.164 148.412H187.065V147.545H186.255V155.045ZM187.079 150.273C187.079 149.051 187.619 148.227 188.642 148.227C189.707 148.227 190.233 149.122 190.233 150.273C190.233 151.438 189.693 152.361 188.642 152.361C187.633 152.361 187.079 151.509 187.079 150.273ZM194.409 153.114C195.46 153.114 195.815 152.46 196 152.162H196.099V153H196.909V145.727H196.071V148.412H196C195.815 148.128 195.488 147.474 194.423 147.474C193.045 147.474 192.093 148.568 192.093 150.287C192.093 152.02 193.045 153.114 194.409 153.114ZM194.522 152.361C193.471 152.361 192.931 151.438 192.931 150.273C192.931 149.122 193.457 148.227 194.522 148.227C195.545 148.227 196.085 149.051 196.085 150.273C196.085 151.509 195.531 152.361 194.522 152.361ZM200.165 153.128C201.117 153.128 201.614 152.616 201.784 152.261H201.827V153H202.665V149.406C202.665 147.673 201.344 147.474 200.648 147.474C199.824 147.474 198.887 147.759 198.461 148.753L199.256 149.037C199.441 148.639 199.877 148.213 200.676 148.213C201.447 148.213 201.827 148.621 201.827 149.321V149.349C201.827 149.754 201.415 149.719 200.421 149.847C199.409 149.978 198.304 150.202 198.304 151.452C198.304 152.517 199.128 153.128 200.165 153.128ZM200.293 152.375C199.625 152.375 199.142 152.077 199.142 151.494C199.142 150.855 199.725 150.656 200.378 150.571C200.733 150.528 201.685 150.429 201.827 150.259V151.026C201.827 151.707 201.287 152.375 200.293 152.375ZM206.567 147.545H205.402V146.239H204.564V147.545H203.74V148.256H204.564V151.665C204.564 152.616 205.331 153.071 206.041 153.071C206.354 153.071 206.553 153.014 206.666 152.972L206.496 152.219C206.425 152.233 206.311 152.261 206.127 152.261C205.757 152.261 205.402 152.148 205.402 151.438V148.256H206.567V147.545ZM210.056 153.114C211.164 153.114 211.974 152.56 212.229 151.736L211.42 151.509C211.206 152.077 210.713 152.361 210.056 152.361C209.072 152.361 208.394 151.725 208.355 150.557H212.314V150.202C212.314 148.17 211.107 147.474 209.971 147.474C208.493 147.474 207.513 148.639 207.513 150.315C207.513 151.991 208.479 153.114 210.056 153.114ZM208.355 149.832C208.412 148.984 209.012 148.227 209.971 148.227C210.88 148.227 211.462 148.909 211.462 149.832H208.355ZM215.649 153.114C216.7 153.114 217.055 152.46 217.24 152.162H217.339V153H218.149V145.727H217.311V148.412H217.24C217.055 148.128 216.729 147.474 215.663 147.474C214.285 147.474 213.334 148.568 213.334 150.287C213.334 152.02 214.285 153.114 215.649 153.114ZM215.763 152.361C214.711 152.361 214.172 151.438 214.172 150.273C214.172 149.122 214.697 148.227 215.763 148.227C216.785 148.227 217.325 149.051 217.325 150.273C217.325 151.509 216.771 152.361 215.763 152.361ZM224.871 153.099C226.256 153.099 227.272 152.077 227.272 150.685C227.272 149.275 226.292 148.241 224.956 148.241C224.466 148.241 223.991 148.415 223.692 148.653H223.65L223.905 146.509H226.945V145.727H223.167L222.726 149.307L223.55 149.406C223.852 149.19 224.367 149.033 224.814 149.037C225.741 149.044 226.42 149.747 226.42 150.699C226.42 151.633 225.766 152.318 224.871 152.318C224.126 152.318 223.532 151.839 223.465 151.182H222.613C222.666 152.29 223.621 153.099 224.871 153.099ZM231.509 153H232.347V149.591C232.347 148.792 232.93 148.227 233.583 148.227C234.219 148.227 234.663 148.643 234.663 149.264V153H235.515V149.449C235.515 148.746 235.955 148.227 236.722 148.227C237.319 148.227 237.83 148.543 237.83 149.349V153H238.668V149.349C238.668 148.067 237.979 147.474 237.006 147.474C236.225 147.474 235.653 147.833 235.373 148.398H235.316C235.046 147.815 234.57 147.474 233.853 147.474C233.143 147.474 232.617 147.815 232.39 148.398H232.319V147.545H231.509V153ZM240.201 153H241.039V147.545H240.201V153ZM240.627 146.636C240.953 146.636 241.223 146.381 241.223 146.068C241.223 145.756 240.953 145.5 240.627 145.5C240.3 145.5 240.03 145.756 240.03 146.068C240.03 146.381 240.3 146.636 240.627 146.636ZM243.412 149.719C243.412 148.767 244.001 148.227 244.804 148.227C245.581 148.227 246.054 148.735 246.054 149.591V153H246.892V149.534C246.892 148.142 246.15 147.474 245.045 147.474C244.221 147.474 243.71 147.844 243.454 148.398H243.383V147.545H242.574V153H243.412V149.719ZM252.287 148.767C252.024 147.993 251.435 147.474 250.355 147.474C249.205 147.474 248.352 148.128 248.352 149.051C248.352 149.804 248.8 150.308 249.801 150.543L250.71 150.756C251.261 150.884 251.52 151.146 251.52 151.523C251.52 151.991 251.023 152.375 250.241 152.375C249.556 152.375 249.126 152.08 248.977 151.494L248.182 151.693C248.377 152.62 249.141 153.114 250.256 153.114C251.523 153.114 252.386 152.421 252.386 151.48C252.386 150.72 251.911 150.241 250.938 150.003L250.128 149.804C249.482 149.644 249.19 149.428 249.19 149.009C249.19 148.54 249.688 148.199 250.355 148.199C251.087 148.199 251.388 148.604 251.534 148.98L252.287 148.767ZM258.066 153.128C259.017 153.128 259.514 152.616 259.685 152.261H259.727V153H260.566V149.406C260.566 147.673 259.244 147.474 258.548 147.474C257.725 147.474 256.787 147.759 256.361 148.753L257.156 149.037C257.341 148.639 257.778 148.213 258.577 148.213C259.347 148.213 259.727 148.621 259.727 149.321V149.349C259.727 149.754 259.316 149.719 258.321 149.847C257.309 149.978 256.205 150.202 256.205 151.452C256.205 152.517 257.029 153.128 258.066 153.128ZM258.193 152.375C257.526 152.375 257.043 152.077 257.043 151.494C257.043 150.855 257.625 150.656 258.279 150.571C258.634 150.528 259.585 150.429 259.727 150.259V151.026C259.727 151.707 259.188 152.375 258.193 152.375ZM264.297 155.159C265.604 155.159 266.655 154.562 266.655 153.156V147.545H265.845V148.412H265.76C265.575 148.128 265.234 147.474 264.169 147.474C262.791 147.474 261.839 148.568 261.839 150.244C261.839 151.949 262.834 152.915 264.155 152.915C265.22 152.915 265.561 152.29 265.746 151.991H265.817V153.099C265.817 154.009 265.178 154.42 264.297 154.42C263.306 154.42 262.958 153.898 262.734 153.597L262.067 154.065C262.408 154.637 263.079 155.159 264.297 155.159ZM264.268 152.162C263.217 152.162 262.678 151.366 262.678 150.23C262.678 149.122 263.203 148.227 264.268 148.227C265.291 148.227 265.831 149.051 265.831 150.23C265.831 151.438 265.277 152.162 264.268 152.162ZM270.405 153.114C271.882 153.114 272.876 151.991 272.876 150.301C272.876 148.597 271.882 147.474 270.405 147.474C268.928 147.474 267.933 148.597 267.933 150.301C267.933 151.991 268.928 153.114 270.405 153.114ZM270.405 152.361C269.283 152.361 268.771 151.395 268.771 150.301C268.771 149.207 269.283 148.227 270.405 148.227C271.527 148.227 272.038 149.207 272.038 150.301C272.038 151.395 271.527 152.361 270.405 152.361Z" fill="#808080" fill-opacity="0.9"/>
<g clip-path="url(#clip0_169_280)">
<path d="M124.315 115.918L122.677 122.417L121.347 127.689L120.287 131.894L118.958 137.166L114.614 154.391L60.7944 132.458L56.8383 130.846L51.8307 128.805L47.8731 127.192L43.1133 125.252L45.8117 121.79L48.0557 118.91L50.8944 115.268L53.1378 112.391L78.3818 80L105.124 100.911L109.886 104.635L113.683 107.604L118.446 111.328L124.315 115.918Z" fill="#F2F2F2"/>
<path d="M46.0853 135.038C42.4864 133.269 40.246 130.853 39.4262 127.858C38.8175 125.635 38.9924 123.132 39.946 120.421C40.6529 118.422 41.7129 116.534 43.0867 114.826C50.3751 105.728 51.0329 99.7992 50.3013 96.4278C49.4992 92.7313 46.8932 91.196 46.8669 91.181L46.9794 91.0284C47.0063 91.0438 49.681 92.6147 50.5025 96.3863C50.976 98.5606 50.7532 101.04 49.8403 103.755C48.7041 107.135 46.4886 110.895 43.2553 114.931C41.8939 116.623 40.8437 118.494 40.1431 120.475C38.5791 124.922 38.3578 131.03 46.1857 134.879L46.0853 135.038Z" fill="#2F2E41"/>
<path d="M47.8162 135.038C51.415 133.269 53.6555 130.853 54.4752 127.858C55.0839 125.635 54.909 123.132 53.9554 120.421C53.2485 118.422 52.1886 116.534 50.8147 114.826C43.5264 105.728 42.8685 99.7992 43.6001 96.4278C44.4022 92.7313 47.0082 91.196 47.0345 91.181L46.922 91.0284C46.8951 91.0438 44.2204 92.6147 43.399 96.3863C42.9255 98.5606 43.1482 101.04 44.0611 103.755C45.1973 107.135 47.4129 110.895 50.6462 114.931C52.0075 116.623 53.0578 118.494 53.7583 120.475C55.3223 124.922 55.5436 131.03 47.7157 134.879L47.8162 135.038Z" fill="#2F2E41"/>
<path d="M126.255 127.394C122.656 125.625 120.416 123.209 119.596 120.214C118.987 117.991 119.162 115.489 120.116 112.777C120.823 110.778 121.883 108.89 123.257 107.182C130.545 98.0839 131.203 92.1553 130.471 88.784C129.669 85.0874 127.063 83.5522 127.037 83.5371L127.149 83.3845C127.176 83.3999 129.851 84.9708 130.672 88.7424C131.146 90.9168 130.923 93.3961 130.01 96.1115C128.874 99.4909 126.658 103.251 123.425 107.287C122.064 108.98 121.014 110.851 120.313 112.831C118.749 117.278 118.528 123.387 126.356 127.235L126.255 127.394Z" fill="#2F2E41"/>
<path d="M127.986 127.394C131.585 125.625 133.825 123.209 134.645 120.214C135.254 117.991 135.079 115.489 134.125 112.777C133.418 110.778 132.359 108.89 130.985 107.182C123.696 98.0839 123.038 92.1553 123.77 88.784C124.572 85.0874 127.178 83.5522 127.204 83.5371L127.092 83.3845C127.065 83.3999 124.39 84.9708 123.569 88.7424C123.095 90.9168 123.318 93.3961 124.231 96.1115C125.367 99.4909 127.583 103.251 130.816 107.287C132.177 108.98 133.228 110.851 133.928 112.831C135.492 117.278 135.714 123.387 127.886 127.235L127.986 127.394Z" fill="#2F2E41"/>
<path d="M73.2686 107.294C70.5646 103.265 65.2149 103.077 65.2149 103.077C65.2149 103.077 60.002 102.489 56.6579 108.626C53.541 114.346 49.2392 119.869 55.9654 121.208L57.1803 117.873L57.9327 121.456C58.8904 121.517 59.8511 121.532 60.8106 121.5C68.0138 121.295 74.8737 121.56 74.6528 119.28C74.3592 116.25 75.8704 111.171 73.2686 107.294Z" fill="#2F2E41"/>
<path d="M62.1699 115.728C63.1017 117.545 63.6892 119.712 64.04 122.119L71.5204 121.706C69.8006 119.557 69.2296 117.09 69.8841 114.285L62.1699 115.728Z" fill="#FFB8B8"/>
<path opacity="0.2" d="M62.1699 115.728C63.1017 117.545 63.6892 119.712 64.04 122.119L71.5204 121.706C69.8006 119.557 69.2296 117.09 69.8841 114.285L62.1699 115.728Z" fill="black"/>
<path d="M27.4631 150.336C27.4631 150.336 23.5915 152.165 25.5562 153.726C27.5208 155.288 30.1159 151.659 30.1159 151.659L27.4631 150.336Z" fill="#FFB8B8"/>
<path d="M74.7938 145.003L74.7333 147.501L74.6042 152.9V152.901L74.5667 154.464H49.8086L50.8148 149.537L50.8158 149.533L51.7168 145.123L52.1189 143.148V143.147L72.4563 140.673L74.7938 145.003Z" fill="#2F2E41"/>
<path d="M74.7929 145.003L74.7321 147.502C67.5369 147.339 56.3841 145.807 51.7158 145.122L52.1179 143.147L72.4552 140.673L74.7929 145.003Z" fill="#3F3D56"/>
<path d="M65.7933 117.48C69.0209 117.48 71.6373 115.172 71.6373 112.326C71.6373 109.479 69.0209 107.172 65.7933 107.172C62.5657 107.172 59.9492 109.479 59.9492 112.326C59.9492 115.172 62.5657 117.48 65.7933 117.48Z" fill="#FFB8B8"/>
<path d="M77.0136 147.786C77.0136 147.786 77.7149 153.352 73.5071 152.94L72.8058 147.374L69.0656 144.075L58.5463 143.869L50.8321 150.26C50.8321 150.26 50.5984 143.663 51.5334 143.044C52.4685 142.426 54.5723 140.983 54.5723 140.983V139.952L48.2607 128.613C48.2607 128.613 52.0009 121.809 55.0399 121.603L59.0138 121.397C59.0138 121.397 60.4164 120.779 60.4164 120.572C60.4164 120.366 60.1826 118.717 61.3515 119.129C61.3515 119.129 61.4566 117.014 62.6886 117.659C62.6886 117.659 66.5667 120.339 70.5033 117.777C70.5033 117.777 72.3383 117.48 72.1045 118.305C71.8708 119.129 72.1045 119.748 72.5721 119.748C73.0396 119.748 75.1435 120.366 75.1435 120.779C75.1435 120.867 75.2954 121.721 75.5338 123.005V123.007C76.4011 127.689 78.4161 138.096 78.4161 138.096C78.4161 138.096 80.52 140.776 77.0136 147.786Z" fill="#DA70D6"/>
<path d="M49.8976 127.582L48.2613 128.613L33.3005 145.518L25.3525 151.085C25.3525 151.085 29.794 150.466 28.859 153.765L56.2092 139.952L49.8976 127.582Z" fill="#DA70D6"/>
<path d="M75.5342 123.005V123.007C75.2233 124.619 65.092 124.283 63.6894 124.283C62.2869 124.283 61.1181 124.077 59.7155 123.253C58.3129 122.428 59.0142 121.397 59.0142 121.397C59.0142 121.397 60.2084 120.595 60.2084 120.389C60.2084 120.183 59.9747 118.533 61.1435 118.946C61.1435 118.946 61.2487 116.83 62.4806 117.476C62.4806 117.476 66.5671 120.34 70.5036 117.777C70.5036 117.777 72.3386 117.48 72.1049 118.305C71.8711 119.129 72.1049 119.748 72.5724 119.748C73.0399 119.748 75.1438 120.366 75.1438 120.779C75.1438 120.867 75.2958 121.721 75.5342 123.005Z" fill="#3F3D56"/>
<path d="M74.3256 115.315C74.3256 115.315 72.4555 111.81 70.5854 113.46C68.7152 115.109 72.6892 117.583 72.6892 117.583L74.3256 115.315Z" fill="#FFB8B8"/>
<path d="M74.3254 114.491C74.3254 114.491 71.4377 117.709 70.5439 117.955C70.5439 117.955 73.1566 127.067 76.4293 129.541L78.2994 137.993C78.2994 137.993 86.2474 135.107 84.3772 130.365C84.3585 130.318 84.3399 130.271 84.3214 130.224C82.7599 126.275 80.605 122.529 77.9142 119.085L74.3254 114.491Z" fill="#DA70D6"/>
<path opacity="0.2" d="M72.7822 124.037L78.5331 137.993L76.4293 129.54L72.7822 124.037Z" fill="black"/>
<path d="M72.0735 106.906L66.7882 104.464L59.4896 105.463L57.9795 111.345L61.7385 111.217L62.7887 109.056V111.182L64.5231 111.123L65.5298 107.683L66.159 111.345L72.3251 111.234L72.0735 106.906Z" fill="#2F2E41"/>
<path d="M122.002 138.633L125.001 148.067C125.001 148.067 124.383 156.423 127.266 154.788C130.217 153.115 129.12 146.069 129.12 146.069L127.392 137.605L122.002 138.633Z" fill="#FFB8B8"/>
<path d="M123.604 112.169L126.08 114.353V124.759C126.08 124.759 127.537 126.686 127.245 127.2C126.954 127.713 126.663 127.713 126.954 128.099C127.245 128.484 127.537 128.741 127.245 128.998C126.954 129.255 126.954 129.897 127.245 130.154C127.537 130.411 128.119 130.797 127.682 131.182C127.245 131.567 126.663 131.31 127.245 132.724C127.828 134.137 128.848 134.522 128.556 135.036C128.265 135.55 128.265 136.835 128.265 136.835L122.001 137.605L120.69 123.089L123.604 112.169Z" fill="#A9BEF3"/>
<path d="M128.557 136.706L121.273 136.963L121.565 139.661L127.974 138.633L128.557 136.706Z" fill="#3F3D56"/>
<path d="M108.527 98.7441L107.653 106.452L116.539 107.608L117.194 103.176L117.85 98.7441H108.527Z" fill="#A0616A"/>
<path opacity="0.1" d="M108.527 98.7025L107.653 106.41L116.539 107.567L117.194 103.135L117.85 98.7025H108.527Z" fill="#FFB8B8"/>
<path d="M89.2275 135.421L94.1801 144.799C94.1801 144.799 95.0541 149.167 96.3651 149.296C97.6761 149.424 98.9871 144.799 98.9871 144.799L97.2391 142.359L95.1998 135.421H89.2275Z" fill="#FFB8B8"/>
<path d="M123.129 154.555H95.1299C95.3517 151.461 95.4913 149.553 95.4913 149.553L95.8632 149.036L97.6662 146.538L98.9536 144.754L99.4026 144.131L99.5692 143.9L101.333 143.616L119.526 140.689C119.826 141.877 120.252 143.038 120.797 144.156C120.921 144.405 121.055 144.654 121.197 144.901C121.655 145.688 122.213 146.434 122.876 146.983C123.027 147.108 123.137 147.441 123.208 147.954C123.383 149.21 123.333 151.545 123.129 154.555Z" fill="#2F2E41"/>
<path d="M113.408 101.249C117.269 101.249 120.4 98.4884 120.4 95.0828C120.4 91.6772 117.269 88.9164 113.408 88.9164C109.546 88.9164 106.416 91.6772 106.416 95.0828C106.416 98.4884 109.546 101.249 113.408 101.249Z" fill="#FFB8B8"/>
<path d="M97.8215 107.673L96.8018 107.159C96.8018 107.159 92.2862 109.857 90.8296 115.894C89.3729 121.932 88.3533 123.474 88.3533 123.474C88.3533 123.474 86.8966 123.731 87.9163 124.63C88.9359 125.529 88.9359 125.401 88.062 125.915C87.188 126.429 86.6053 125.401 87.188 126.429C87.7706 127.456 88.4989 127.199 87.9163 127.842C87.3336 128.484 86.314 128.484 86.8966 128.998C87.4793 129.512 86.314 130.668 87.0423 131.182C87.7706 131.696 88.062 131.824 88.062 132.724C88.0575 133.248 88.1561 133.77 88.3533 134.265H95.9278C95.9278 134.265 94.4712 131.824 94.9082 131.31C95.3452 130.797 95.4908 130.283 95.1995 130.026C94.9082 129.769 94.0342 130.283 94.9082 129.64C95.7822 128.998 96.0735 129.383 95.7822 128.613C95.4908 127.842 94.9082 128.227 95.4908 127.842C96.0735 127.456 96.5105 127.585 96.2192 127.199C95.9278 126.814 95.3452 126.814 95.9278 126.557C96.5105 126.3 96.9475 126.557 96.8018 125.915C96.6562 125.272 96.5105 125.529 96.8018 125.272C97.0931 125.016 100.152 116.28 100.152 116.023C100.152 115.766 97.8215 107.673 97.8215 107.673Z" fill="#A9BEF3"/>
<path d="M96.3653 133.751L87.1885 134.265L89.5191 136.192L95.9284 136.321L96.3653 133.751Z" fill="#3F3D56"/>
<path d="M98.9864 143.386L97.0928 146.469C97.0928 146.469 102.774 147.112 104.813 147.754C106.852 148.396 112.096 149.296 112.096 149.296L113.407 144.799L98.9864 143.386Z" fill="#3F3D56"/>
<path d="M115.593 144.799L117.195 149.039L123.604 147.883L122.876 143.9L115.593 144.799Z" fill="#3F3D56"/>
<path d="M118.214 103.305C118.214 103.305 117.777 103.048 116.758 103.562C115.738 104.075 112.388 104.332 110.786 102.791C109.183 101.249 108.018 99.9645 107.581 100.221C107.144 100.478 106.853 103.433 106.853 103.433L105.396 104.461L96.8018 107.159L97.5301 124.502L98.8411 128.484C98.8411 128.484 97.8214 131.567 99.1324 133.366C100.443 135.164 98.4041 135.807 98.4041 135.807C98.4041 135.807 97.9671 136.321 98.2584 137.605C98.5497 138.89 97.9671 143.643 97.9671 143.643C97.9671 143.643 110.349 148.525 123.313 144.285L121.856 139.404L121.128 128.484C121.128 128.484 121.856 126.686 121.71 125.915C121.565 125.144 126.08 114.353 126.08 114.353C126.08 114.353 125.352 108.957 121.565 107.801C117.777 106.645 117.195 105.489 117.195 105.489C117.195 105.489 118.943 103.819 118.214 103.305Z" fill="#A9BEF3"/>
<path d="M106.367 95.8728C106.367 95.8728 105.641 94.9123 105.92 93.8779C106.087 93.2906 106.153 92.6846 106.116 92.08C106.116 92.08 106.702 90.4053 107.289 89.4694C107.875 88.5335 107.596 88.1394 109.439 87.8439C111.282 87.5483 110.528 85.4303 115.387 87.7207C115.551 87.9226 115.779 88.0771 116.043 88.1648C116.306 88.2524 116.593 88.2693 116.867 88.2133C117.873 88.0409 118.236 89.2723 118.236 89.2723C118.236 89.2723 118.906 88.9275 119.157 89.4201C119.409 89.9127 121.201 89.1245 121.201 92.4494C121.201 95.7742 119.161 98.7442 119.161 98.7442C119.161 98.7442 119.311 93.1514 115.988 92.5849C112.664 92.0184 109.09 90.3683 108.224 92.4864C107.359 94.6045 106.367 95.8728 106.367 95.8728Z" fill="#2F2E41"/>
<path d="M119.235 97.2026C119.597 97.2026 119.89 96.8575 119.89 96.4318C119.89 96.0061 119.597 95.661 119.235 95.661C118.873 95.661 118.579 96.0061 118.579 96.4318C118.579 96.8575 118.873 97.2026 119.235 97.2026Z" fill="#FFB8B8"/>
</g>
<defs>
<filter id="filter0_d_169_280" x="0" y="0" width="288" height="181" filterUnits="userSpaceOnUse" color-interpolation-filters="sRGB">
<feFlood flood-opacity="0" result="BackgroundImageFix"/>
<feColorMatrix in="SourceAlpha" type="matrix" values="0 0 0 0 0 0 0 0 0 0 0 0 0 0 0 0 0 0 127 0" result="hardAlpha"/>
<feOffset dy="1"/>
<feGaussianBlur stdDeviation="2.5"/>
<feComposite in2="hardAlpha" operator="out"/>
<feColorMatrix type="matrix" values="0 0 0 0 0 0 0 0 0 0 0 0 0 0 0 0 0 0 0.25 0"/>
<feBlend mode="normal" in2="BackgroundImageFix" result="effect1_dropShadow_169_280"/>
<feBlend mode="normal" in="SourceGraphic" in2="effect1_dropShadow_169_280" result="shape"/>
</filter>
<clipPath id="clip0_169_280">
<rect width="110" height="75" fill="white" transform="translate(25 80)"/>
</clipPath>
</defs>
</svg>
