<svg width="405" height="257" viewBox="0 0 405 257" fill="none" xmlns="http://www.w3.org/2000/svg">
<rect x="73" y="69.9999" width="18" height="120" fill="#DA70D6"/>
<rect x="143" y="105" width="17.5" height="85" fill="#DA70D6"/>
<rect x="212" y="88.9999" width="18" height="100" fill="#DA70D6"/>
<rect x="283" y="50.9999" width="14" height="139" fill="#DA70D6"/>
<rect x="353" y="152" width="15.5" height="38" fill="#DA70D6"/>
<line x1="27" y1="189.501" x2="405" y2="189.501" stroke="#C4C4C4"/>
<line x1="51" y1="215.002" x2="51" stroke="#C4C4C4"/>
<path d="M352.885 201.396H350.143V209.001H349.023V201.396H346.287V200.47H352.885V201.396ZM353.107 205.773C353.107 205.152 353.229 204.593 353.471 204.097C353.717 203.601 354.057 203.218 354.49 202.949C354.928 202.679 355.426 202.544 355.984 202.544C356.848 202.544 357.545 202.843 358.076 203.441C358.611 204.038 358.879 204.833 358.879 205.826V205.902C358.879 206.519 358.76 207.074 358.521 207.566C358.287 208.054 357.949 208.435 357.508 208.708C357.07 208.982 356.566 209.119 355.996 209.119C355.137 209.119 354.439 208.82 353.904 208.222C353.373 207.624 353.107 206.833 353.107 205.849V205.773ZM354.197 205.902C354.197 206.605 354.359 207.169 354.684 207.595C355.012 208.021 355.449 208.234 355.996 208.234C356.547 208.234 356.984 208.019 357.309 207.589C357.633 207.156 357.795 206.55 357.795 205.773C357.795 205.078 357.629 204.515 357.297 204.085C356.969 203.652 356.531 203.435 355.984 203.435C355.449 203.435 355.018 203.648 354.689 204.074C354.361 204.499 354.197 205.109 354.197 205.902ZM359.975 205.779C359.975 204.806 360.205 204.025 360.666 203.435C361.127 202.841 361.73 202.544 362.477 202.544C363.219 202.544 363.807 202.798 364.24 203.306V200.001H365.324V209.001H364.328L364.275 208.322C363.842 208.853 363.238 209.119 362.465 209.119C361.73 209.119 361.131 208.818 360.666 208.216C360.205 207.615 359.975 206.829 359.975 205.861V205.779ZM361.059 205.902C361.059 206.62 361.207 207.183 361.504 207.589C361.801 207.995 362.211 208.199 362.734 208.199C363.422 208.199 363.924 207.89 364.24 207.273V204.361C363.916 203.763 363.418 203.464 362.746 203.464C362.215 203.464 361.801 203.669 361.504 204.079C361.207 204.49 361.059 205.097 361.059 205.902ZM370.926 209.001C370.863 208.876 370.812 208.654 370.773 208.333C370.27 208.857 369.668 209.119 368.969 209.119C368.344 209.119 367.83 208.943 367.428 208.591C367.029 208.236 366.83 207.786 366.83 207.244C366.83 206.583 367.08 206.072 367.58 205.708C368.084 205.341 368.791 205.158 369.701 205.158H370.756V204.66C370.756 204.281 370.643 203.98 370.416 203.757C370.189 203.531 369.855 203.417 369.414 203.417C369.027 203.417 368.703 203.515 368.441 203.71C368.18 203.906 368.049 204.142 368.049 204.419H366.959C366.959 204.103 367.07 203.798 367.293 203.505C367.52 203.208 367.824 202.974 368.207 202.802C368.594 202.63 369.018 202.544 369.479 202.544C370.209 202.544 370.781 202.728 371.195 203.095C371.609 203.458 371.824 203.96 371.84 204.601V207.519C371.84 208.101 371.914 208.564 372.062 208.908V209.001H370.926ZM369.127 208.175C369.467 208.175 369.789 208.087 370.094 207.911C370.398 207.736 370.619 207.507 370.756 207.226V205.925H369.906C368.578 205.925 367.914 206.314 367.914 207.091C367.914 207.431 368.027 207.697 368.254 207.888C368.48 208.079 368.771 208.175 369.127 208.175ZM375.52 207.413L376.996 202.661H378.156L375.607 209.98C375.213 211.035 374.586 211.562 373.727 211.562L373.521 211.544L373.117 211.468V210.589L373.41 210.613C373.777 210.613 374.062 210.538 374.266 210.39C374.473 210.242 374.643 209.97 374.775 209.576L375.016 208.931L372.754 202.661H373.938L375.52 207.413Z" fill="#202020"/>
<path d="M269.592 204.753L271.818 200.47H273.096L270.154 205.82V209.001H269.029V205.82L266.088 200.47H267.377L269.592 204.753ZM276.271 209.119C275.412 209.119 274.713 208.837 274.174 208.275C273.635 207.708 273.365 206.953 273.365 206.007V205.808C273.365 205.179 273.484 204.619 273.723 204.126C273.965 203.63 274.301 203.244 274.73 202.966C275.164 202.685 275.633 202.544 276.137 202.544C276.961 202.544 277.602 202.816 278.059 203.359C278.516 203.902 278.744 204.679 278.744 205.691V206.142H274.449C274.465 206.767 274.646 207.273 274.994 207.66C275.346 208.042 275.791 208.234 276.33 208.234C276.713 208.234 277.037 208.156 277.303 207.999C277.568 207.843 277.801 207.636 278 207.378L278.662 207.894C278.131 208.71 277.334 209.119 276.271 209.119ZM276.137 203.435C275.699 203.435 275.332 203.595 275.035 203.915C274.738 204.232 274.555 204.677 274.484 205.251H277.66V205.169C277.629 204.619 277.48 204.193 277.215 203.892C276.949 203.587 276.59 203.435 276.137 203.435ZM283.695 207.32C283.695 207.027 283.584 206.8 283.361 206.64C283.143 206.476 282.758 206.335 282.207 206.218C281.66 206.101 281.225 205.96 280.9 205.796C280.58 205.632 280.342 205.437 280.186 205.21C280.033 204.984 279.957 204.714 279.957 204.402C279.957 203.882 280.176 203.443 280.613 203.083C281.055 202.724 281.617 202.544 282.301 202.544C283.02 202.544 283.602 202.73 284.047 203.101C284.496 203.472 284.721 203.947 284.721 204.525H283.631C283.631 204.228 283.504 203.972 283.25 203.757C283 203.542 282.684 203.435 282.301 203.435C281.906 203.435 281.598 203.521 281.375 203.693C281.152 203.865 281.041 204.089 281.041 204.367C281.041 204.628 281.145 204.826 281.352 204.958C281.559 205.091 281.932 205.218 282.471 205.339C283.014 205.46 283.453 205.605 283.789 205.773C284.125 205.941 284.373 206.144 284.533 206.382C284.697 206.617 284.779 206.904 284.779 207.244C284.779 207.81 284.553 208.265 284.1 208.609C283.646 208.949 283.059 209.119 282.336 209.119C281.828 209.119 281.379 209.029 280.988 208.849C280.598 208.669 280.291 208.419 280.068 208.099C279.85 207.775 279.74 207.425 279.74 207.05H280.824C280.844 207.413 280.988 207.703 281.258 207.917C281.531 208.128 281.891 208.234 282.336 208.234C282.746 208.234 283.074 208.152 283.32 207.988C283.57 207.82 283.695 207.597 283.695 207.32ZM287.662 201.126V202.661H288.846V203.499H287.662V207.431C287.662 207.685 287.715 207.876 287.82 208.005C287.926 208.13 288.105 208.193 288.359 208.193C288.484 208.193 288.656 208.169 288.875 208.122V209.001C288.59 209.079 288.312 209.119 288.043 209.119C287.559 209.119 287.193 208.972 286.947 208.679C286.701 208.386 286.578 207.97 286.578 207.431V203.499H285.424V202.661H286.578V201.126H287.662ZM292.748 209.119C291.889 209.119 291.189 208.837 290.65 208.275C290.111 207.708 289.842 206.953 289.842 206.007V205.808C289.842 205.179 289.961 204.619 290.199 204.126C290.441 203.63 290.777 203.244 291.207 202.966C291.641 202.685 292.109 202.544 292.613 202.544C293.438 202.544 294.078 202.816 294.535 203.359C294.992 203.902 295.221 204.679 295.221 205.691V206.142H290.926C290.941 206.767 291.123 207.273 291.471 207.66C291.822 208.042 292.268 208.234 292.807 208.234C293.189 208.234 293.514 208.156 293.779 207.999C294.045 207.843 294.277 207.636 294.477 207.378L295.139 207.894C294.607 208.71 293.811 209.119 292.748 209.119ZM292.613 203.435C292.176 203.435 291.809 203.595 291.512 203.915C291.215 204.232 291.031 204.677 290.961 205.251H294.137V205.169C294.105 204.619 293.957 204.193 293.691 203.892C293.426 203.587 293.066 203.435 292.613 203.435ZM299.545 203.634C299.381 203.607 299.203 203.593 299.012 203.593C298.301 203.593 297.818 203.896 297.564 204.501V209.001H296.48V202.661H297.535L297.553 203.394C297.908 202.828 298.412 202.544 299.064 202.544C299.275 202.544 299.436 202.572 299.545 202.626V203.634ZM300.166 205.779C300.166 204.806 300.396 204.025 300.857 203.435C301.318 202.841 301.922 202.544 302.668 202.544C303.41 202.544 303.998 202.798 304.432 203.306V200.001H305.516V209.001H304.52L304.467 208.322C304.033 208.853 303.43 209.119 302.656 209.119C301.922 209.119 301.322 208.818 300.857 208.216C300.396 207.615 300.166 206.829 300.166 205.861V205.779ZM301.25 205.902C301.25 206.62 301.398 207.183 301.695 207.589C301.992 207.995 302.402 208.199 302.926 208.199C303.613 208.199 304.115 207.89 304.432 207.273V204.361C304.107 203.763 303.609 203.464 302.938 203.464C302.406 203.464 301.992 203.669 301.695 204.079C301.398 204.49 301.25 205.097 301.25 205.902ZM311.117 209.001C311.055 208.876 311.004 208.654 310.965 208.333C310.461 208.857 309.859 209.119 309.16 209.119C308.535 209.119 308.021 208.943 307.619 208.591C307.221 208.236 307.021 207.786 307.021 207.244C307.021 206.583 307.271 206.072 307.771 205.708C308.275 205.341 308.982 205.158 309.893 205.158H310.947V204.66C310.947 204.281 310.834 203.98 310.607 203.757C310.381 203.531 310.047 203.417 309.605 203.417C309.219 203.417 308.895 203.515 308.633 203.71C308.371 203.906 308.24 204.142 308.24 204.419H307.15C307.15 204.103 307.262 203.798 307.484 203.505C307.711 203.208 308.016 202.974 308.398 202.802C308.785 202.63 309.209 202.544 309.67 202.544C310.4 202.544 310.973 202.728 311.387 203.095C311.801 203.458 312.016 203.96 312.031 204.601V207.519C312.031 208.101 312.105 208.564 312.254 208.908V209.001H311.117ZM309.318 208.175C309.658 208.175 309.98 208.087 310.285 207.911C310.59 207.736 310.811 207.507 310.947 207.226V205.925H310.098C308.77 205.925 308.105 206.314 308.105 207.091C308.105 207.431 308.219 207.697 308.445 207.888C308.672 208.079 308.963 208.175 309.318 208.175ZM315.711 207.413L317.188 202.661H318.348L315.799 209.98C315.404 211.035 314.777 211.562 313.918 211.562L313.713 211.544L313.309 211.468V210.589L313.602 210.613C313.969 210.613 314.254 210.538 314.457 210.39C314.664 210.242 314.834 209.97 314.967 209.576L315.207 208.931L312.945 202.661H314.129L315.711 207.413Z" fill="#202020"/>
<path d="M211.271 209.001H210.182V201.777L207.996 202.579V201.595L211.102 200.429H211.271V209.001ZM214.945 204.724L215.379 200.47H219.75V201.472H216.299L216.041 203.798C216.459 203.552 216.934 203.429 217.465 203.429C218.242 203.429 218.859 203.687 219.316 204.203C219.773 204.714 220.002 205.408 220.002 206.283C220.002 207.161 219.764 207.855 219.287 208.363C218.814 208.867 218.152 209.119 217.301 209.119C216.547 209.119 215.932 208.91 215.455 208.492C214.979 208.074 214.707 207.495 214.641 206.757H215.666C215.732 207.245 215.906 207.615 216.188 207.865C216.469 208.111 216.84 208.234 217.301 208.234C217.805 208.234 218.199 208.062 218.484 207.718C218.773 207.374 218.918 206.9 218.918 206.294C218.918 205.724 218.762 205.267 218.449 204.923C218.141 204.576 217.729 204.402 217.213 204.402C216.74 204.402 216.369 204.505 216.1 204.712L215.812 204.947L214.945 204.724ZM221.514 209.734H220.582L224.145 200.47H225.07L221.514 209.734ZM229.693 209.001H228.604V201.777L226.418 202.579V201.595L229.523 200.429H229.693V209.001ZM236.432 209.001H235.342V201.777L233.156 202.579V201.595L236.262 200.429H236.432V209.001Z" fill="#202020"/>
<path d="M141.271 209.001H140.182V201.777L137.996 202.579V201.595L141.102 200.429H141.271V209.001ZM149.023 206.136H150.207V207.021H149.023V209.001H147.934V207.021H144.049V206.382L147.869 200.47H149.023V206.136ZM145.279 206.136H147.934V201.953L147.805 202.187L145.279 206.136ZM151.514 209.734H150.582L154.145 200.47H155.07L151.514 209.734ZM159.693 209.001H158.604V201.777L156.418 202.579V201.595L159.523 200.429H159.693V209.001ZM166.432 209.001H165.342V201.777L163.156 202.579V201.595L166.262 200.429H166.432V209.001Z" fill="#202020"/>
<path d="M71.2715 209.001H70.1816V201.777L67.9961 202.579V201.595L71.1016 200.429H71.2715V209.001ZM76.0234 204.208H76.8379C77.3496 204.201 77.752 204.066 78.0449 203.804C78.3379 203.542 78.4844 203.189 78.4844 202.744C78.4844 201.744 77.9863 201.244 76.9902 201.244C76.5215 201.244 76.1465 201.378 75.8652 201.648C75.5879 201.913 75.4492 202.267 75.4492 202.708H74.3652C74.3652 202.033 74.6113 201.472 75.1035 201.027C75.5996 200.578 76.2285 200.353 76.9902 200.353C77.7949 200.353 78.4258 200.566 78.8828 200.992C79.3398 201.417 79.5684 202.009 79.5684 202.767C79.5684 203.138 79.4473 203.497 79.2051 203.845C78.9668 204.193 78.6406 204.453 78.2266 204.624C78.6953 204.773 79.0566 205.019 79.3105 205.363C79.5684 205.706 79.6973 206.126 79.6973 206.622C79.6973 207.388 79.4473 207.995 78.9473 208.445C78.4473 208.894 77.7969 209.119 76.9961 209.119C76.1953 209.119 75.543 208.902 75.0391 208.468C74.5391 208.035 74.2891 207.462 74.2891 206.751H75.3789C75.3789 207.201 75.5254 207.56 75.8184 207.829C76.1113 208.099 76.5039 208.234 76.9961 208.234C77.5195 208.234 77.9199 208.097 78.1973 207.824C78.4746 207.55 78.6133 207.158 78.6133 206.646C78.6133 206.15 78.4609 205.769 78.1562 205.503C77.8516 205.238 77.4121 205.101 76.8379 205.093H76.0234V204.208ZM81.5137 209.734H80.582L84.1445 200.47H85.0703L81.5137 209.734ZM89.6934 209.001H88.6035V201.777L86.418 202.579V201.595L89.5234 200.429H89.6934V209.001ZM96.4316 209.001H95.3418V201.777L93.1562 202.579V201.595L96.2617 200.429H96.4316V209.001Z" fill="#202020"/>
<line x1="41" y1="167.501" x2="51" y2="167.501" stroke="#C4C4C4"/>
<line x1="41" y1="101.501" x2="51" y2="101.501" stroke="#C4C4C4"/>
<line x1="41" y1="145.501" x2="51" y2="145.501" stroke="#C4C4C4"/>
<line x1="41" y1="79.5013" x2="51" y2="79.5013" stroke="#C4C4C4"/>
<line x1="41" y1="35.5013" x2="51" y2="35.5013" stroke="#C4C4C4"/>
<line x1="41" y1="123.501" x2="51" y2="123.501" stroke="#C4C4C4"/>
<line x1="41" y1="57.5013" x2="51" y2="57.5013" stroke="#C4C4C4"/>
<line x1="41" y1="13.5013" x2="51" y2="13.5013" stroke="#C4C4C4"/>
<path d="M9.90527 195.793L10.2305 192.603H13.5088V193.354H10.9204L10.7271 195.099C11.0405 194.914 11.3965 194.822 11.7949 194.822C12.3779 194.822 12.8408 195.016 13.1836 195.402C13.5264 195.786 13.6978 196.306 13.6978 196.962C13.6978 197.621 13.519 198.141 13.1616 198.522C12.8071 198.9 12.3105 199.089 11.6719 199.089C11.1064 199.089 10.645 198.932 10.2876 198.619C9.93018 198.306 9.72656 197.872 9.67676 197.318H10.4458C10.4956 197.684 10.626 197.961 10.8369 198.149C11.0479 198.333 11.3262 198.426 11.6719 198.426C12.0498 198.426 12.3457 198.297 12.5596 198.039C12.7764 197.781 12.8848 197.425 12.8848 196.971C12.8848 196.543 12.7676 196.201 12.5332 195.943C12.3018 195.682 11.9927 195.552 11.606 195.552C11.2515 195.552 10.9731 195.629 10.771 195.785L10.5557 195.96L9.90527 195.793ZM18.5977 196.272C18.5977 197.224 18.4351 197.932 18.1099 198.395C17.7847 198.858 17.2764 199.089 16.585 199.089C15.9023 199.089 15.397 198.864 15.0688 198.412C14.7407 197.958 14.5708 197.282 14.5591 196.382V195.297C14.5591 194.356 14.7217 193.658 15.0469 193.201C15.3721 192.744 15.8818 192.515 16.5762 192.515C17.2646 192.515 17.7715 192.736 18.0967 193.179C18.4219 193.618 18.5889 194.298 18.5977 195.218V196.272ZM17.7847 195.161C17.7847 194.472 17.688 193.971 17.4946 193.658C17.3013 193.341 16.9951 193.183 16.5762 193.183C16.1602 193.183 15.8569 193.34 15.6665 193.653C15.4761 193.967 15.3779 194.449 15.3721 195.099V196.4C15.3721 197.091 15.4717 197.602 15.6709 197.933C15.873 198.262 16.1777 198.426 16.585 198.426C16.9863 198.426 17.2837 198.27 17.4771 197.96C17.6733 197.649 17.7759 197.16 17.7847 196.492V195.161Z" fill="#505050"/>
<path d="M3.20361 67.0013H2.38623V61.5829L0.74707 62.1849V61.4467L3.07617 60.5721H3.20361V67.0013ZM9.59766 64.2723C9.59766 65.2245 9.43506 65.932 9.10986 66.3949C8.78467 66.8578 8.27637 67.0892 7.58496 67.0892C6.90234 67.0892 6.39697 66.8636 6.06885 66.4125C5.74072 65.9584 5.5708 65.2816 5.55908 64.3822V63.2968C5.55908 62.3563 5.72168 61.6576 6.04688 61.2006C6.37207 60.7435 6.88184 60.515 7.57617 60.515C8.26465 60.515 8.77148 60.7362 9.09668 61.1786C9.42188 61.618 9.58887 62.2977 9.59766 63.2177V64.2723ZM8.78467 63.1605C8.78467 62.472 8.68799 61.9711 8.49463 61.6576C8.30127 61.3412 7.99512 61.183 7.57617 61.183C7.16016 61.183 6.85693 61.3397 6.6665 61.6532C6.47607 61.9667 6.37793 62.4486 6.37207 63.099V64.3998C6.37207 65.0912 6.47168 65.6024 6.6709 65.9335C6.87305 66.2616 7.17773 66.4257 7.58496 66.4257C7.98633 66.4257 8.28369 66.2704 8.47705 65.9598C8.67334 65.6493 8.77588 65.16 8.78467 64.4921V63.1605ZM14.6514 64.2723C14.6514 65.2245 14.4888 65.932 14.1636 66.3949C13.8384 66.8578 13.3301 67.0892 12.6387 67.0892C11.9561 67.0892 11.4507 66.8636 11.1226 66.4125C10.7944 65.9584 10.6245 65.2816 10.6128 64.3822V63.2968C10.6128 62.3563 10.7754 61.6576 11.1006 61.2006C11.4258 60.7435 11.9355 60.515 12.6299 60.515C13.3184 60.515 13.8252 60.7362 14.1504 61.1786C14.4756 61.618 14.6426 62.2977 14.6514 63.2177V64.2723ZM13.8384 63.1605C13.8384 62.472 13.7417 61.9711 13.5483 61.6576C13.355 61.3412 13.0488 61.183 12.6299 61.183C12.2139 61.183 11.9106 61.3397 11.7202 61.6532C11.5298 61.9667 11.4316 62.4486 11.4258 63.099V64.3998C11.4258 65.0912 11.5254 65.6024 11.7246 65.9335C11.9268 66.2616 12.2314 66.4257 12.6387 66.4257C13.04 66.4257 13.3374 66.2704 13.5308 65.9598C13.7271 65.6493 13.8296 65.16 13.8384 64.4921V63.1605ZM19.7051 64.2723C19.7051 65.2245 19.5425 65.932 19.2173 66.3949C18.8921 66.8578 18.3838 67.0892 17.6924 67.0892C17.0098 67.0892 16.5044 66.8636 16.1763 66.4125C15.8481 65.9584 15.6782 65.2816 15.6665 64.3822V63.2968C15.6665 62.3563 15.8291 61.6576 16.1543 61.2006C16.4795 60.7435 16.9893 60.515 17.6836 60.515C18.3721 60.515 18.8789 60.7362 19.2041 61.1786C19.5293 61.618 19.6963 62.2977 19.7051 63.2177V64.2723ZM18.8921 63.1605C18.8921 62.472 18.7954 61.9711 18.6021 61.6576C18.4087 61.3412 18.1025 61.183 17.6836 61.183C17.2676 61.183 16.9644 61.3397 16.7739 61.6532C16.5835 61.9667 16.4854 62.4486 16.4795 63.099V64.3998C16.4795 65.0912 16.5791 65.6024 16.7783 65.9335C16.9805 66.2616 17.2852 66.4257 17.6924 66.4257C18.0938 66.4257 18.3911 66.2704 18.5845 65.9598C18.7808 65.6493 18.8833 65.16 18.8921 64.4921V63.1605Z" fill="#505050"/>
<path d="M103.938 252H105.875V246.156H109.375C113.102 246.156 114.781 243.891 114.781 241.062C114.781 238.234 113.102 236 109.344 236H103.938V252ZM105.875 244.437V237.719H109.281C111.883 237.719 112.875 239.141 112.875 241.062C112.875 242.984 111.883 244.437 109.313 244.437H105.875ZM121.184 252.281C123.277 252.281 124.371 251.156 124.746 250.375H124.84V252H126.684V244.094C126.684 240.281 123.777 239.844 122.246 239.844C120.434 239.844 118.371 240.469 117.434 242.656L119.184 243.281C119.59 242.406 120.551 241.469 122.309 241.469C124.004 241.469 124.84 242.367 124.84 243.906V243.969C124.84 244.859 123.934 244.781 121.746 245.062C119.52 245.351 117.09 245.844 117.09 248.594C117.09 250.937 118.902 252.281 121.184 252.281ZM121.465 250.625C119.996 250.625 118.934 249.969 118.934 248.687C118.934 247.281 120.215 246.844 121.652 246.656C122.434 246.562 124.527 246.344 124.84 245.969V247.656C124.84 249.156 123.652 250.625 121.465 250.625ZM135.268 240H132.705V237.125H130.861V240H129.049V241.562H130.861V249.062C130.861 251.156 132.549 252.156 134.111 252.156C134.799 252.156 135.236 252.031 135.486 251.937L135.111 250.281C134.955 250.312 134.705 250.375 134.299 250.375C133.486 250.375 132.705 250.125 132.705 248.562V241.562H135.268V240ZM138.041 252H139.885V240H138.041V252ZM138.979 238C139.697 238 140.291 237.437 140.291 236.75C140.291 236.062 139.697 235.5 138.979 235.5C138.26 235.5 137.666 236.062 137.666 236.75C137.666 237.437 138.26 238 138.979 238ZM148.293 252.25C150.73 252.25 152.512 251.031 153.074 249.219L151.293 248.719C150.824 249.969 149.738 250.594 148.293 250.594C146.129 250.594 144.637 249.195 144.551 246.625H153.262V245.844C153.262 241.375 150.605 239.844 148.105 239.844C144.855 239.844 142.699 242.406 142.699 246.094C142.699 249.781 144.824 252.25 148.293 252.25ZM144.551 245.031C144.676 243.164 145.996 241.5 148.105 241.5C150.105 241.5 151.387 243 151.387 245.031H144.551ZM157.91 244.781C157.91 242.687 159.207 241.5 160.973 241.5C162.684 241.5 163.723 242.617 163.723 244.5V252H165.566V244.375C165.566 241.312 163.934 239.844 161.504 239.844C159.691 239.844 158.566 240.656 158.004 241.875H157.848V240H156.066V252H157.91V244.781ZM174.154 240H171.592V237.125H169.748V240H167.936V241.562H169.748V249.062C169.748 251.156 171.436 252.156 172.998 252.156C173.686 252.156 174.123 252.031 174.373 251.937L173.998 250.281C173.842 250.312 173.592 250.375 173.186 250.375C172.373 250.375 171.592 250.125 171.592 248.562V241.562H174.154V240ZM185.213 242.687C184.635 240.984 183.338 239.844 180.963 239.844C178.432 239.844 176.557 241.281 176.557 243.312C176.557 244.969 177.541 246.078 179.744 246.594L181.744 247.062C182.955 247.344 183.525 247.922 183.525 248.75C183.525 249.781 182.432 250.625 180.713 250.625C179.205 250.625 178.26 249.976 177.932 248.687L176.182 249.125C176.611 251.164 178.291 252.25 180.744 252.25C183.533 252.25 185.432 250.726 185.432 248.656C185.432 246.984 184.385 245.93 182.244 245.406L180.463 244.969C179.041 244.617 178.4 244.141 178.4 243.219C178.4 242.187 179.494 241.437 180.963 241.437C182.572 241.437 183.236 242.328 183.557 243.156L185.213 242.687ZM205.77 252C210.645 252 213.395 248.969 213.395 243.969C213.395 239 210.645 236 205.988 236H200.832V252H205.77ZM202.77 250.281V237.719H205.863C209.613 237.719 211.52 240.094 211.52 243.969C211.52 247.875 209.613 250.281 205.645 250.281H202.77ZM219.926 252.281C222.02 252.281 223.113 251.156 223.488 250.375H223.582V252H225.426V244.094C225.426 240.281 222.52 239.844 220.988 239.844C219.176 239.844 217.113 240.469 216.176 242.656L217.926 243.281C218.332 242.406 219.293 241.469 221.051 241.469C222.746 241.469 223.582 242.367 223.582 243.906V243.969C223.582 244.859 222.676 244.781 220.488 245.062C218.262 245.351 215.832 245.844 215.832 248.594C215.832 250.937 217.645 252.281 219.926 252.281ZM220.207 250.625C218.738 250.625 217.676 249.969 217.676 248.687C217.676 247.281 218.957 246.844 220.395 246.656C221.176 246.562 223.27 246.344 223.582 245.969V247.656C223.582 249.156 222.395 250.625 220.207 250.625ZM228.791 252H230.635V240H228.791V252ZM229.729 238C230.447 238 231.041 237.437 231.041 236.75C231.041 236.062 230.447 235.5 229.729 235.5C229.01 235.5 228.416 236.062 228.416 236.75C228.416 237.437 229.01 238 229.729 238ZM238.855 256.75C241.73 256.75 244.043 255.437 244.043 252.344V240H242.262V241.906H242.074C241.668 241.281 240.918 239.844 238.574 239.844C235.543 239.844 233.449 242.25 233.449 245.937C233.449 249.687 235.637 251.812 238.543 251.812C240.887 251.812 241.637 250.437 242.043 249.781H242.199V252.219C242.199 254.219 240.793 255.125 238.855 255.125C236.676 255.125 235.91 253.976 235.418 253.312L233.949 254.344C234.699 255.601 236.176 256.75 238.855 256.75ZM238.793 250.156C236.48 250.156 235.293 248.406 235.293 245.906C235.293 243.469 236.449 241.5 238.793 241.5C241.043 241.5 242.23 243.312 242.23 245.906C242.23 248.562 241.012 250.156 238.793 250.156ZM249.262 244.781C249.262 242.687 250.559 241.5 252.324 241.5C254.035 241.5 255.074 242.617 255.074 244.5V252H256.918V244.375C256.918 241.312 255.285 239.844 252.855 239.844C251.043 239.844 249.918 240.656 249.355 241.875H249.199V240H247.418V252H249.262V244.781ZM265.162 252.25C268.412 252.25 270.6 249.781 270.6 246.062C270.6 242.312 268.412 239.844 265.162 239.844C261.912 239.844 259.725 242.312 259.725 246.062C259.725 249.781 261.912 252.25 265.162 252.25ZM265.162 250.594C262.693 250.594 261.568 248.469 261.568 246.062C261.568 243.656 262.693 241.5 265.162 241.5C267.631 241.5 268.756 243.656 268.756 246.062C268.756 248.469 267.631 250.594 265.162 250.594ZM281.914 242.687C281.336 240.984 280.039 239.844 277.664 239.844C275.133 239.844 273.258 241.281 273.258 243.312C273.258 244.969 274.242 246.078 276.445 246.594L278.445 247.062C279.656 247.344 280.227 247.922 280.227 248.75C280.227 249.781 279.133 250.625 277.414 250.625C275.906 250.625 274.961 249.976 274.633 248.687L272.883 249.125C273.313 251.164 274.992 252.25 277.445 252.25C280.234 252.25 282.133 250.726 282.133 248.656C282.133 246.984 281.086 245.93 278.945 245.406L277.164 244.969C275.742 244.617 275.102 244.141 275.102 243.219C275.102 242.187 276.195 241.437 277.664 241.437C279.273 241.437 279.938 242.328 280.258 243.156L281.914 242.687ZM289.939 252.25C292.377 252.25 294.158 251.031 294.721 249.219L292.939 248.719C292.471 249.969 291.385 250.594 289.939 250.594C287.775 250.594 286.283 249.195 286.197 246.625H294.908V245.844C294.908 241.375 292.252 239.844 289.752 239.844C286.502 239.844 284.346 242.406 284.346 246.094C284.346 249.781 286.471 252.25 289.939 252.25ZM286.197 245.031C286.322 243.164 287.643 241.5 289.752 241.5C291.752 241.5 293.033 243 293.033 245.031H286.197ZM302.244 252.25C304.557 252.25 305.338 250.812 305.744 250.156H305.963V252H307.744V236H305.9V241.906H305.744C305.338 241.281 304.619 239.844 302.275 239.844C299.244 239.844 297.15 242.25 297.15 246.031C297.15 249.844 299.244 252.25 302.244 252.25ZM302.494 250.594C300.182 250.594 298.994 248.562 298.994 246C298.994 243.469 300.15 241.5 302.494 241.5C304.744 241.5 305.932 243.312 305.932 246C305.932 248.719 304.713 250.594 302.494 250.594Z" fill="#505050"/>
</svg>
