<svg width="20" height="20" viewBox="0 0 20 20" fill="none" xmlns="http://www.w3.org/2000/svg">
<path d="M10.492 10.8333L8.57533 12.7416C8.49722 12.8191 8.43522 12.9113 8.39292 13.0128C8.35061 13.1144 8.32883 13.2233 8.32883 13.3333C8.32883 13.4433 8.35061 13.5522 8.39292 13.6538C8.43522 13.7553 8.49722 13.8475 8.57533 13.925C8.65279 14.0031 8.74496 14.0651 8.84651 14.1074C8.94806 14.1497 9.05698 14.1715 9.16699 14.1715C9.277 14.1715 9.38592 14.1497 9.48747 14.1074C9.58902 14.0651 9.68119 14.0031 9.75866 13.925L13.092 10.5916C13.1679 10.5124 13.2273 10.4189 13.267 10.3166C13.3503 10.1138 13.3503 9.8862 13.267 9.68332C13.2273 9.58102 13.1679 9.48757 13.092 9.40832L9.75866 6.07498C9.68096 5.99728 9.58872 5.93565 9.4872 5.8936C9.38568 5.85155 9.27688 5.82991 9.16699 5.82991C9.05711 5.82991 8.9483 5.85155 8.84678 5.8936C8.74527 5.93565 8.65302 5.99728 8.57533 6.07498C8.49763 6.15268 8.43599 6.24492 8.39394 6.34644C8.35189 6.44796 8.33025 6.55677 8.33025 6.66665C8.33025 6.77653 8.35189 6.88534 8.39394 6.98686C8.43599 7.08837 8.49763 7.18062 8.57533 7.25831L10.492 9.16665H2.50033C2.27931 9.16665 2.06735 9.25445 1.91107 9.41073C1.75479 9.56701 1.66699 9.77897 1.66699 9.99998C1.66699 10.221 1.75479 10.433 1.91107 10.5892C2.06735 10.7455 2.27931 10.8333 2.50033 10.8333H10.492ZM10.0003 1.66665C8.4429 1.65969 6.9147 2.08933 5.58905 2.90681C4.2634 3.72429 3.19337 4.89691 2.50033 6.29165C2.40087 6.49056 2.3845 6.72083 2.45483 6.93181C2.52516 7.14279 2.67641 7.31719 2.87533 7.41665C3.07424 7.5161 3.30451 7.53247 3.51549 7.46214C3.72647 7.39182 3.90087 7.24056 4.00033 7.04165C4.52715 5.97775 5.32852 5.07383 6.32162 4.4233C7.31471 3.77278 8.46351 3.39925 9.64929 3.34131C10.8351 3.28337 12.0148 3.54313 13.0666 4.09374C14.1184 4.64435 15.0041 5.46584 15.6321 6.47331C16.2601 7.48078 16.6077 8.63769 16.639 9.82447C16.6703 11.0112 16.384 12.1849 15.8099 13.224C15.2358 14.2631 14.3946 15.1301 13.3733 15.7353C12.3519 16.3406 11.1875 16.6621 10.0003 16.6666C8.75773 16.672 7.53879 16.327 6.4834 15.671C5.42802 15.0151 4.57895 14.0749 4.03366 12.9583C3.9342 12.7594 3.7598 12.6081 3.54882 12.5378C3.33785 12.4675 3.10757 12.4839 2.90866 12.5833C2.70975 12.6828 2.55849 12.8572 2.48816 13.0682C2.41784 13.2791 2.4342 13.5094 2.53366 13.7083C3.19435 15.0379 4.19826 16.1668 5.44155 16.9784C6.68484 17.7899 8.12237 18.2545 9.60543 18.3241C11.0885 18.3938 12.5632 18.066 13.8771 17.3746C15.191 16.6832 16.2963 15.6533 17.0787 14.3915C17.8611 13.1297 18.2922 11.6818 18.3274 10.1975C18.3626 8.7132 18.0006 7.24647 17.2789 5.94901C16.5571 4.65154 15.5019 3.57045 14.2222 2.81757C12.9426 2.06469 11.485 1.66735 10.0003 1.66665V1.66665Z" fill="#404040"/>
</svg>
