<svg width="288" height="181" viewBox="0 0 288 181" fill="none" xmlns="http://www.w3.org/2000/svg">
<g filter="url(#filter0_d_165_240)">
<rect x="5" y="4" width="278" height="171" rx="4" fill="white"/>
</g>
<g clip-path="url(#clip0_165_240)">
<path opacity="0.1" d="M60.5707 157.956C65.9276 157.956 70.2702 157.258 70.2702 156.397C70.2702 155.535 65.9276 154.837 60.5707 154.837C55.2137 154.837 50.8711 155.535 50.8711 156.397C50.8711 157.258 55.2137 157.956 60.5707 157.956Z" fill="#6C63FF"/>
<path opacity="0.1" d="M113.296 158C119.981 158 125.399 157.302 125.399 156.44C125.399 155.579 119.981 154.881 113.296 154.881C106.611 154.881 101.192 155.579 101.192 156.44C101.192 157.302 106.611 158 113.296 158Z" fill="#6C63FF"/>
<path opacity="0.1" d="M25.3779 113.702H35.4807V127.486H26.1176C26.0927 127.628 26.0688 127.77 26.0429 127.913H35.4807V139.03C35.4637 139.025 35.4488 139.019 35.4329 139.013C35.1661 138.907 34.9013 138.795 34.6365 138.676L34.4673 138.599C34.2019 138.474 33.9364 138.341 33.671 138.201C33.5784 138.152 33.4858 138.101 33.3942 138.049C31.9206 137.223 30.5818 136.176 29.4244 134.944C29.3906 134.911 29.3587 134.876 29.3249 134.844C29.1636 134.669 29.0053 134.492 28.852 134.31L28.6828 134.111C28.5016 133.889 28.3264 133.66 28.1562 133.429C28.1313 133.395 28.1074 133.362 28.0816 133.33C27.3893 132.369 26.8145 131.328 26.3694 130.231C26.3555 130.198 26.3435 130.162 26.3306 130.131C26.1939 129.779 26.0728 129.423 25.9672 129.065C25.9215 128.914 25.8777 128.766 25.8398 128.609C25.8259 128.563 25.814 128.519 25.803 128.474C25.2376 126.264 25.1709 123.97 25.1709 121.691C25.1709 121.424 25.1709 121.157 25.1709 120.893C25.1709 119.972 25.1818 119.044 25.1978 118.117C25.1978 117.877 25.2077 117.638 25.2127 117.397C25.2266 116.785 25.2466 116.173 25.2724 115.561C25.2784 115.391 25.2864 115.221 25.2953 115.052C25.2953 114.954 25.3003 114.857 25.3103 114.759C25.3342 114.404 25.3541 114.052 25.3779 113.702Z" fill="#6C63FF"/>
<path opacity="0.1" d="M35.4801 98.3536H29.9385C30.8393 96.9421 31.8235 95.5858 32.886 94.2919C33.7092 93.2794 34.5782 92.2929 35.4801 91.3422V98.3536Z" fill="#6C63FF"/>
<path opacity="0.1" d="M35.48 98.78V113.275H25.4092C25.4092 113.233 25.4161 113.19 25.4191 113.149C25.4281 113.034 25.4371 112.919 25.447 112.806C25.458 112.672 25.4699 112.538 25.4828 112.407C25.4958 112.277 25.5097 112.117 25.5247 111.973C25.5396 111.828 25.5535 111.682 25.5704 111.537C25.5874 111.393 25.6023 111.248 25.6202 111.105C25.6381 110.961 25.6541 110.816 25.673 110.672C25.6879 110.553 25.7038 110.434 25.7198 110.315C25.7427 110.146 25.7665 109.977 25.7924 109.809C25.7924 109.784 25.7994 109.758 25.8034 109.735C25.9851 108.509 26.2326 107.294 26.545 106.095C26.8719 104.838 27.2895 103.605 27.7943 102.408C28.3308 101.156 28.9589 99.9448 29.6736 98.785L35.48 98.78Z" fill="#6C63FF"/>
<path opacity="0.1" d="M37.8926 113.701V127.486H59.4707V113.701H37.8926ZM37.8926 127.912V139.75C38.016 139.776 38.1385 139.801 38.2599 139.822C38.4251 139.854 38.5894 139.883 38.7576 139.908C38.7895 139.913 38.8223 139.918 38.8572 139.921C38.9229 139.932 38.9905 139.94 39.0562 139.949C39.2225 139.972 39.3877 139.991 39.554 140.006C39.6326 140.014 39.7122 140.021 39.7919 140.027L39.984 140.042C40.0885 140.05 40.192 140.056 40.2946 140.059C40.3583 140.059 40.422 140.065 40.4877 140.067C40.5375 140.067 40.5872 140.067 40.639 140.067C40.6908 140.067 40.7644 140.067 40.8271 140.067C40.9127 140.067 40.9983 140.067 41.083 140.067H41.1974C41.283 140.067 41.3687 140.067 41.4533 140.059H41.4592C41.518 140.059 41.5777 140.059 41.6374 140.051C41.654 140.052 41.6706 140.052 41.6872 140.051C41.737 140.051 41.7867 140.051 41.8345 140.044H41.8694L42.2028 140.018C42.3123 140.008 42.4228 139.995 42.5343 139.983L42.7613 139.956C43.6846 139.827 44.5977 139.632 45.4938 139.374C47.5065 138.812 49.4755 138.026 51.4873 137.45C54.0884 136.708 56.9622 136.343 59.4757 137.251V127.912H37.8926ZM59.4707 98.3536V80.001C57.1083 79.9754 54.7522 80.252 52.4598 80.8241C46.9959 82.1983 42.0933 85.1788 37.8926 88.9855V98.3526H38.9756V98.7781H37.8926V113.275H59.4707V98.7791H43.4222V98.3536H59.4707ZM87.1867 92.1543C85.8349 92.1065 84.4911 91.678 83.2756 91.0163C80.9513 89.7508 79.0948 87.7966 77.0203 86.1474C72.7101 82.7125 67.3645 80.6398 61.8807 80.1256V98.3536H92.6845L92.7612 98.2728L87.1867 92.1543ZM89.9929 91.6561L92.9682 94.9246V90.7991C91.9718 90.9227 91.0988 91.2166 89.9968 91.6521L89.9929 91.6561ZM92.9682 142.69V127.912H86.6283C86.6114 127.849 86.5944 127.785 86.5745 127.721C86.5934 127.785 86.6094 127.849 86.6273 127.912H61.8847V138.599C62.1196 138.774 62.3515 138.957 62.5815 139.143C62.8293 139.343 63.0742 139.553 63.3201 139.759L63.5679 139.964C63.6864 140.064 63.8058 140.164 63.9263 140.257C64.1652 140.451 64.4064 140.643 64.65 140.831C64.7704 140.931 64.8939 141.021 65.0163 141.114C66.9601 142.602 69.0106 143.945 71.1512 145.131C71.631 145.397 72.1151 145.656 72.6035 145.91C72.9291 146.076 73.2565 146.241 73.585 146.402C74.0788 146.643 74.5765 146.875 75.0782 147.099C79.7036 149.178 84.5947 150.604 89.6116 151.337C90.7258 151.502 91.8444 151.632 92.9672 151.726V142.689H93.0668L92.9682 142.69ZM61.8847 98.7791V113.275H92.9722V98.7791H61.8847ZM61.8847 113.701V127.486H92.9722V113.701H61.8847ZM95.3852 90.7812V95.383L99.1828 91.2116C97.9245 91.0084 96.6587 90.8632 95.3852 90.7762V90.7812ZM95.3852 113.706V127.486H125.622V113.701L95.3852 113.706ZM125.511 143.784L125.618 127.912H95.3852V151.885C97.3327 151.966 99.2833 151.943 101.228 151.815V151.815H101.262C102.191 151.756 103.116 151.671 104.037 151.56H104.057C108.968 150.988 113.77 149.705 118.312 147.752L125.511 143.784ZM131.452 115.971C131.338 115.703 131.22 115.437 131.1 115.173C130.875 114.675 130.637 114.191 130.392 113.707H128.033V127.486H133.997C133.994 123.584 133.008 119.598 131.455 115.966L131.452 115.971ZM128.033 127.917V141.569C129.713 139.956 131.132 138.112 132.155 136.003C133.384 133.464 133.946 130.715 133.992 127.915L128.033 127.917ZM128.033 109.689V113.276H130.171C129.524 112.041 128.811 110.842 128.036 109.684L128.033 109.689ZM107.527 93.4857C107.369 93.4259 107.212 93.3651 107.054 93.3063C105.384 92.6892 103.679 92.176 101.946 91.7697L96.1347 98.1543L96.0232 98.2728L96.0979 98.3546H116.781C113.901 96.3696 110.795 94.7335 107.53 93.4807L107.527 93.4857ZM117.387 98.784H95.8092L95.3852 99.1727V113.275H99.1021H99.1081H125.626V106.444C123.227 103.54 120.458 100.963 117.39 98.7791L117.387 98.784Z" fill="#F47C09"/>
<path opacity="0.1" d="M35.48 106.091V113.275H25.4092C25.4092 113.233 25.4161 113.19 25.4191 113.149C25.4281 113.034 25.4371 112.919 25.447 112.806C25.458 112.672 25.4699 112.538 25.4828 112.407C25.4958 112.277 25.5097 112.117 25.5247 111.973C25.5396 111.828 25.5535 111.682 25.5704 111.537C25.5874 111.393 25.6023 111.248 25.6202 111.105C25.6381 110.961 25.6541 110.816 25.673 110.672C25.6879 110.553 25.7038 110.434 25.7198 110.315C25.7427 110.146 25.7665 109.977 25.7924 109.809C25.7924 109.784 25.7994 109.758 25.8034 109.735C25.9851 108.509 26.2326 107.294 26.545 106.095L35.48 106.091Z" fill="#6C63FF"/>
<path opacity="0.1" d="M25.3779 113.702H35.4807V127.486H26.1176C26.0927 127.628 26.0688 127.77 26.0429 127.913H35.4807V139.03C35.4637 139.025 35.4488 139.019 35.4329 139.013C35.1661 138.907 34.9013 138.795 34.6365 138.676L34.4673 138.599C34.2019 138.474 33.9364 138.341 33.671 138.201C33.5784 138.152 33.4858 138.101 33.3942 138.049C31.9206 137.223 30.5818 136.176 29.4244 134.944C29.3906 134.911 29.3587 134.876 29.3249 134.844C29.1636 134.669 29.0053 134.492 28.852 134.31L28.6828 134.111C28.5016 133.889 28.3264 133.66 28.1562 133.429C28.1313 133.395 28.1074 133.362 28.0816 133.33C27.3893 132.369 26.8145 131.328 26.3694 130.231C26.3555 130.198 26.3435 130.162 26.3306 130.131C26.1939 129.779 26.0728 129.423 25.9672 129.065C25.9215 128.914 25.8777 128.766 25.8398 128.609C25.8259 128.563 25.814 128.519 25.803 128.474C25.2376 126.264 25.1709 123.97 25.1709 121.691C25.1709 121.424 25.1709 121.157 25.1709 120.893C25.1709 119.972 25.1818 119.044 25.1978 118.117C25.1978 117.877 25.2077 117.638 25.2127 117.397C25.2266 116.785 25.2466 116.173 25.2724 115.561C25.2784 115.391 25.2864 115.221 25.2953 115.052C25.2953 114.954 25.3003 114.857 25.3103 114.759C25.3342 114.404 25.3541 114.052 25.3779 113.702Z" fill="#6C63FF"/>
<path opacity="0.1" d="M45.4888 100.855V113.275H37.8926V100.855H38.9756V96.6495H43.4212V100.855H45.4888Z" fill="#6C63FF"/>
<path opacity="0.1" d="M45.4888 113.701H37.8936V127.485H45.4888V113.701Z" fill="#6C63FF"/>
<path opacity="0.1" d="M37.8926 127.913H45.4888V139.372C44.5927 139.63 43.6796 139.824 42.7563 139.953L42.5293 139.981C42.4178 139.994 42.3073 140.005 42.1978 140.016C42.0884 140.027 41.9749 140.035 41.8644 140.042H41.8295C41.7818 140.042 41.73 140.048 41.6832 140.049H41.6324C41.5727 140.049 41.513 140.055 41.4533 140.057C41.3686 140.062 41.284 140.063 41.1974 140.064C41.1606 140.064 41.1258 140.064 41.0889 140.064C41.0033 140.064 40.9187 140.064 40.8331 140.064H40.645C40.5942 140.064 40.5454 140.064 40.4927 140.064L40.3005 140.057C40.201 140.057 40.0935 140.046 39.99 140.039L39.7988 140.025L39.5609 140.003C39.3937 139.988 39.2275 139.969 39.0632 139.946L38.8641 139.919L38.7646 139.905C38.5983 139.879 38.4341 139.851 38.2669 139.819C38.1444 139.798 38.023 139.772 37.8995 139.747L37.8926 127.913Z" fill="#6C63FF"/>
<path opacity="0.1" d="M92.9723 99.3879H86.709V113.274H92.9723V99.3879Z" fill="#6C63FF"/>
<path opacity="0.1" d="M92.9733 113.701V127.486H61.8848V121.54H78.4439V125.048H86.709V113.701H92.9733Z" fill="#6C63FF"/>
<path opacity="0.1" d="M93.0719 142.693H92.9723V151.736C91.8508 151.641 90.7326 151.512 89.6177 151.348C84.5983 150.613 79.7052 149.183 75.0783 147.101C73.7424 146.499 72.4338 145.842 71.1523 145.13C69.0117 143.943 66.961 142.601 65.0164 141.113C64.528 140.739 64.0459 140.355 63.57 139.963C63.2406 139.691 62.9131 139.412 62.5816 139.141C62.3516 138.955 62.1197 138.772 61.8848 138.596V127.913H86.6264C86.6095 127.849 86.5926 127.785 86.5746 127.722C86.5936 127.785 86.6115 127.849 86.6284 127.913H92.9723V142.687C93.0062 142.688 93.039 142.691 93.0719 142.693Z" fill="#6C63FF"/>
<path opacity="0.1" d="M109.307 98.3536H105.226V97.084H107.055V93.3023C107.214 93.3601 107.372 93.4196 107.529 93.4807V97.084H109.307V98.3536Z" fill="#6C63FF"/>
<path opacity="0.1" d="M119.14 113.275H99.1037C99.1037 113.275 99.1037 113.275 99.1107 113.28L99.1017 113.275H95.3848V99.3889H96.4379V109.653H101.251V103.574H105.227V98.78H109.308V103.578H113.284V109.657H119.14V113.275Z" fill="#6C63FF"/>
<path opacity="0.1" d="M95.3848 113.701V127.486H119.14V113.701H95.3848ZM125.588 143.713L125.621 132.802H119.14V127.919H95.3848V151.884C97.3323 151.966 99.2829 151.943 101.228 151.815V151.815H101.262C102.191 151.756 103.116 151.671 104.036 151.56H104.057C108.968 150.988 113.769 149.705 118.312 147.752" fill="#6C63FF"/>
<path opacity="0.1" d="M128.454 127.913H133.996C133.947 130.712 133.386 133.461 132.157 136C131.135 138.11 129.714 139.954 128.036 141.566V132.797H128.454V127.913Z" fill="#6C63FF"/>
<path opacity="0.1" d="M133.999 127.486H128.454V115.966H131.454C133.007 119.598 133.994 123.584 133.999 127.486Z" fill="#6C63FF"/>
<path opacity="0.1" d="M92.9728 103.248H89.6172V107.602H92.9728V103.248Z" fill="#6C63FF"/>
<path opacity="0.1" d="M92.9728 112.273H89.6172V113.275H92.9728V112.273Z" fill="#6C63FF"/>
<path opacity="0.1" d="M92.9728 113.701H89.6172V116.625H92.9728V113.701Z" fill="#6C63FF"/>
<path opacity="0.1" d="M92.9728 121.297H89.6172V125.651H92.9728V121.297Z" fill="#6C63FF"/>
<path opacity="0.1" d="M92.9728 130.321H89.6172V134.675H92.9728V130.321Z" fill="#6C63FF"/>
<path opacity="0.1" d="M92.9718 142.687C93.0057 142.687 93.0385 142.687 93.0714 142.693H92.9718V143.704H89.6172V139.345H92.9718V142.687Z" fill="#6C63FF"/>
<path opacity="0.1" d="M92.9718 148.368V151.731C91.8503 151.636 90.7321 151.507 89.6172 151.343V148.368H92.9718Z" fill="#6C63FF"/>
<path opacity="0.1" d="M76.2659 127.166H61.8848V127.486H76.2659V127.166Z" fill="#6C63FF"/>
<path opacity="0.1" d="M76.2659 127.912H61.8848V129.137H76.2659V127.912Z" fill="#6C63FF"/>
<path opacity="0.1" d="M76.2659 133.155H61.8848V135.126H76.2659V133.155Z" fill="#6C63FF"/>
<path opacity="0.1" d="M76.2644 139.144V141.115H65.0159C64.5275 140.742 64.045 140.359 63.5685 139.965C63.2391 139.693 62.9126 139.414 62.5801 139.144H76.2644Z" fill="#6C63FF"/>
<path opacity="0.1" d="M76.2649 145.132V147.101H75.0774C73.7428 146.499 72.4345 145.841 71.1523 145.129L76.2649 145.132Z" fill="#6C63FF"/>
<path opacity="0.1" d="M104.061 115.037H101.229V117.871H104.061V115.037Z" fill="#6C63FF"/>
<path opacity="0.1" d="M42.7627 101.832H39.9316V104.666H42.7627V101.832Z" fill="#6C63FF"/>
<path opacity="0.1" d="M42.7627 108.415H39.9316V111.249H42.7627V108.415Z" fill="#6C63FF"/>
<path opacity="0.1" d="M42.7627 114.998H39.9316V117.832H42.7627V114.998Z" fill="#6C63FF"/>
<path opacity="0.1" d="M42.7627 121.58H39.9316V124.414H42.7627V121.58Z" fill="#6C63FF"/>
<path opacity="0.1" d="M42.7627 128.163H39.9316V130.997H42.7627V128.163Z" fill="#6C63FF"/>
<path opacity="0.1" d="M42.7627 134.746H39.9316V137.58H42.7627V134.746Z" fill="#6C63FF"/>
<path opacity="0.1" d="M114.868 115.037H112.037V117.871H114.868V115.037Z" fill="#6C63FF"/>
<path opacity="0.1" d="M104.061 122.027H101.229V124.861H104.061V122.027Z" fill="#6C63FF"/>
<path opacity="0.1" d="M114.868 122.027H112.037V124.861H114.868V122.027Z" fill="#6C63FF"/>
<path opacity="0.1" d="M104.061 129.017H101.229V131.851H104.061V129.017Z" fill="#6C63FF"/>
<path opacity="0.1" d="M114.868 129.017H112.037V131.851H114.868V129.017Z" fill="#6C63FF"/>
<path opacity="0.1" d="M104.061 136.007H101.229V138.841H104.061V136.007Z" fill="#6C63FF"/>
<path opacity="0.1" d="M114.868 136.007H112.037V138.841H114.868V136.007Z" fill="#6C63FF"/>
<path opacity="0.1" d="M104.061 142.998H101.229V145.832H104.061V142.998Z" fill="#6C63FF"/>
<path opacity="0.1" d="M114.868 142.998H112.037V145.832H114.868V142.998Z" fill="#6C63FF"/>
<path opacity="0.1" d="M101.229 151.815V149.987H104.06V151.555L101.229 151.815Z" fill="#6C63FF"/>
<path opacity="0.1" d="M25.792 109.733V111.354H35.4806V109.733H25.792ZM26.7576 111.252H25.9672V109.832H26.7635L26.7576 111.252ZM27.7221 111.252H26.9258V109.832H27.7221V111.252ZM28.6847 111.252H27.8884V109.832H28.6847V111.252ZM29.6493 111.252H28.854V109.832H29.6503L29.6493 111.252ZM30.6129 111.252H29.8166V109.832H30.6129V111.252ZM31.5775 111.252H30.7811V109.832H31.5775V111.252ZM32.5421 111.252H31.7457V109.832H32.5421V111.252ZM33.5056 111.252H32.7093V109.832H33.5056V111.252ZM34.4692 111.252H33.6729V109.832H34.4692V111.252ZM35.4328 111.252H34.6365V109.832H35.4328V111.252Z" fill="#6C63FF"/>
<path opacity="0.1" d="M25.792 114.45V116.071H35.4806V114.45H25.792ZM26.7576 115.969H25.9672V114.553H26.7635L26.7576 115.969ZM27.7221 115.969H26.9258V114.553H27.7221V115.969ZM28.6847 115.969H27.8884V114.553H28.6847V115.969ZM29.6493 115.969H28.854V114.553H29.6503L29.6493 115.969ZM30.6129 115.969H29.8166V114.553H30.6129V115.969ZM31.5775 115.969H30.7811V114.553H31.5775V115.969ZM32.5421 115.969H31.7457V114.553H32.5421V115.969ZM33.5056 115.969H32.7093V114.553H33.5056V115.969ZM34.4692 115.969H33.6729V114.553H34.4692V115.969ZM35.4328 115.969H34.6365V114.553H35.4328V115.969Z" fill="#6C63FF"/>
<path opacity="0.1" d="M25.792 119.169V120.794H35.4806V119.169H25.792ZM26.7576 120.688H25.9672V119.271H26.7635L26.7576 120.688ZM27.7221 120.688H26.9258V119.271H27.7221V120.688ZM28.6847 120.688H27.8884V119.271H28.6847V120.688ZM29.6493 120.688H28.854V119.271H29.6503L29.6493 120.688ZM30.6129 120.688H29.8166V119.271H30.6129V120.688ZM31.5775 120.688H30.7811V119.271H31.5775V120.688ZM32.5421 120.688H31.7457V119.271H32.5421V120.688ZM33.5056 120.688H32.7093V119.271H33.5056V120.688ZM34.4692 120.688H33.6729V119.271H34.4692V120.688ZM35.4328 120.688H34.6365V119.271H35.4328V120.688Z" fill="#6C63FF"/>
<path opacity="0.1" d="M25.792 123.889V125.508H35.4806V123.889H25.792ZM26.7576 125.408H25.9672V123.99H26.7635L26.7576 125.408ZM27.7221 125.408H26.9258V123.99H27.7221V125.408ZM28.6847 125.408H27.8884V123.99H28.6847V125.408ZM29.6493 125.408H28.854V123.99H29.6503L29.6493 125.408ZM30.6129 125.408H29.8166V123.99H30.6129V125.408ZM31.5775 125.408H30.7811V123.99H31.5775V125.408ZM32.5421 125.408H31.7457V123.99H32.5421V125.408ZM33.5056 125.408H32.7093V123.99H33.5056V125.408ZM34.4692 125.408H33.6729V123.99H34.4692V125.408ZM35.4328 125.408H34.6365V123.99H35.4328V125.408Z" fill="#6C63FF"/>
<path opacity="0.1" d="M25.834 128.607C25.8728 128.76 25.9166 128.912 25.9624 129.063V128.709H26.7587V130.126H26.3327C26.3456 130.159 26.3586 130.195 26.3715 130.226H35.4808V128.607H25.834ZM27.7253 130.126H26.929V128.709H27.7253V130.126ZM28.6879 130.126H27.8916V128.709H28.6879V130.126ZM29.6525 130.126H28.8541V128.709H29.6505L29.6525 130.126ZM30.6161 130.126H29.8197V128.709H30.6161V130.126ZM31.5807 130.126H30.7843V128.709H31.5807V130.126ZM32.5452 130.126H31.7489V128.709H32.5452V130.126ZM33.5088 130.126H32.7125V128.709H33.5088V130.126ZM34.4724 130.126H33.6761V128.709H34.4724V130.126ZM35.436 130.126H34.6396V128.709H35.436V130.126Z" fill="#6C63FF"/>
<path opacity="0.1" d="M28.083 133.327C28.1079 133.359 28.1318 133.394 28.1577 133.426H28.6843V134.107C28.741 134.175 28.7967 134.242 28.8545 134.306V133.422H29.6508V134.844H29.3283C29.3602 134.877 29.391 134.912 29.4278 134.944H35.4831V133.327H28.083ZM30.6124 134.844H29.8161V133.428H30.6124V134.844ZM31.577 134.844H30.7806V133.428H31.577V134.844ZM32.5416 134.844H31.7452V133.428H32.5416V134.844ZM33.5052 134.844H32.7088V133.428H33.5052V134.844ZM34.4687 134.844H33.6724V133.428H34.4687V134.844ZM35.4323 134.844H34.636V133.428H35.4323V134.844Z" fill="#6C63FF"/>
<path opacity="0.1" d="M33.3984 138.045C33.489 138.097 33.5816 138.145 33.6752 138.197V138.147H34.4715V138.595L34.6407 138.674V138.147H35.4371V139.009C35.4524 139.016 35.4684 139.022 35.4849 139.027V138.045H33.3984Z" fill="#6C63FF"/>
<path opacity="0.1" d="M99.104 113.275H99.11H99.104ZM92.9721 142.686H93.0716H92.9721ZM86.5744 127.721C86.5933 127.785 86.6093 127.849 86.6272 127.912C86.6112 127.849 86.5943 127.785 86.5744 127.721ZM99.104 113.272H99.11H99.104ZM38.9795 98.3505V98.776H43.4261V98.3505H38.9795ZM92.9721 142.686H93.0716H92.9721ZM86.5744 127.721C86.5933 127.785 86.6093 127.849 86.6272 127.912C86.6112 127.849 86.5943 127.785 86.5744 127.721ZM99.104 113.272H99.11H99.104ZM92.9721 142.683H93.0716H92.9721ZM86.5744 127.721C86.5933 127.785 86.6093 127.849 86.6272 127.912C86.6112 127.849 86.5943 127.785 86.5744 127.721Z" fill="#6C63FF"/>
<path d="M69.9494 117.834C69.9494 117.834 69.5572 117.779 69.5572 117.207C69.5572 116.635 69.2764 115.567 69.2764 115.567C69.2764 115.562 69.0336 113.707 68.6981 113.412C68.3626 113.117 67.9316 111.385 67.9316 111.385C67.9316 111.385 67.8579 110.445 67.7076 110.243C67.5573 110.04 67.3543 109.545 67.0546 108.839C66.755 108.132 65.5057 107.643 65.5057 107.643C65.5057 107.643 63.2471 106.331 62.607 105.904C62.5488 105.869 62.4945 105.828 62.4447 105.781C62.3333 105.635 61.8475 105.632 61.8475 105.632C61.7967 105.311 61.7479 104.942 61.732 104.609C61.732 104.573 61.732 104.537 61.727 104.501C62.4408 104.079 62.9783 103.413 63.2411 102.626C63.253 102.588 63.263 102.548 63.2739 102.51C63.3167 102.496 63.3561 102.473 63.3895 102.443C63.4229 102.413 63.4497 102.376 63.4681 102.335C63.5258 102.206 63.5268 102.056 63.5985 101.936C63.6821 101.794 63.8413 101.719 63.9668 101.612C64.2833 101.343 64.3649 100.89 64.35 100.477C64.3401 100.143 64.2863 99.8064 64.3072 99.4746L64.3132 99.3909C64.3192 99.341 64.3261 99.2912 64.3351 99.2434C64.3839 98.9963 64.4904 98.7631 64.5501 98.5179C64.6098 98.2728 64.6158 97.9968 64.4764 97.7855C64.2724 97.4756 63.8473 97.4138 63.474 97.3819C63.051 97.3461 62.6727 97.3929 62.4019 97.0411C62.2752 96.8573 62.1327 96.6849 61.9759 96.5259C61.9202 96.4741 61.3786 96.1433 61.3786 96.1214C60.8501 95.8763 60.251 95.8303 59.6914 95.9918C59.4106 96.0735 59.1459 96.2071 58.8612 96.2738C58.247 96.4193 57.5402 96.2619 57.0186 96.6136C56.7279 96.8129 56.5537 97.1298 56.3905 97.4387C56.2578 97.6932 56.123 97.9473 55.9863 98.2011C55.7663 98.6186 55.5424 99.0431 55.4498 99.5055C55.4303 99.6061 55.4184 99.708 55.414 99.8104V99.8154C55.414 99.8523 55.414 99.8891 55.414 99.926V99.9728C55.414 100.008 55.414 100.042 55.4199 100.072C55.4259 100.103 55.4249 100.113 55.4279 100.134C55.4309 100.155 55.4359 100.202 55.4418 100.234C55.4478 100.266 55.4598 100.322 55.4717 100.365C55.4767 100.384 55.4836 100.402 55.4896 100.42C55.4996 100.454 55.5115 100.487 55.5245 100.52C55.5314 100.537 55.5384 100.555 55.5464 100.572C55.5613 100.607 55.5792 100.64 55.5971 100.671C55.6051 100.685 55.6111 100.698 55.619 100.711C55.6468 100.758 55.6774 100.802 55.7106 100.845C55.9236 101.111 56.2372 101.28 56.4691 101.529C56.4691 101.539 56.4691 101.549 56.4691 101.558C56.4691 101.586 56.4691 101.613 56.4691 101.641C56.4814 102.197 56.6292 102.741 56.8994 103.226C57.1697 103.712 57.5544 104.124 58.02 104.426C58.02 104.464 58.025 104.503 58.027 104.541C58.0464 104.837 58.0427 105.133 58.016 105.429C57.9755 105.381 57.9248 105.343 57.8676 105.317C57.8104 105.292 57.7482 105.279 57.6856 105.281C57.6428 105.279 57.5999 105.283 57.5581 105.292L57.5492 105.285V105.294C57.3302 105.348 57.0604 105.576 56.8026 106.225C56.8026 106.225 56.0182 107.11 55.4209 107.073C54.8237 107.036 53.3116 107.994 53.3116 107.994C53.3116 107.994 51.8364 108.952 51.5198 109.929C51.3429 110.483 51.1307 111.024 50.8847 111.551L49.0611 115.313L48.7246 118.297C48.7246 118.297 48.9108 119.625 48.8739 119.827C48.8371 120.029 49.6394 121.854 49.6394 121.854C49.6394 121.854 52.2903 126.517 53.3733 126.756L53.451 126.701C53.4973 126.725 53.5464 126.744 53.5973 126.756L53.8203 126.598C53.8337 126.774 53.828 126.95 53.8033 127.124C53.654 127.585 53.8591 130.589 54.1199 131.178C54.3807 131.767 54.2881 139.489 54.2881 139.489L54.2513 140.171C54.2513 140.171 54.2513 140.193 54.2602 140.23L54.2513 140.392L54.2782 140.406C54.3061 140.622 54.297 140.841 54.2513 141.055C54.1577 141.353 54.1199 142.199 54.1199 142.199C54.1199 142.199 53.3743 146.97 53.7277 147.928C54.0811 148.887 54.3817 149.937 54.3817 149.937C54.3817 149.937 54.755 151.133 54.3996 151.337C54.0442 151.542 53.0339 151.884 53.2419 152.383C53.431 152.843 54.1488 154.077 54.2553 154.257L54.2463 154.352L54.1 155.939C54.1237 156.149 54.1805 156.353 54.2682 156.545C54.4285 156.891 54.74 157.25 55.3323 157.211C55.4319 157.204 55.5473 157.192 55.6588 157.177C56.7429 157.031 58.0778 156.547 58.0778 156.547C58.0085 156.503 57.9449 156.45 57.8886 156.391V156.391C57.8353 156.339 57.7931 156.277 57.7645 156.208C57.736 156.14 57.7216 156.066 57.7224 155.992C57.7383 155.703 57.1978 154.326 57.0634 153.987C57.0425 153.938 57.0316 153.91 57.0316 153.91C57.0316 153.91 58.2639 152.621 58.0588 151.478C58.0588 151.478 56.6951 150.681 57.144 150.243C57.593 149.806 58.3953 148.549 58.3953 148.549C58.3953 148.549 58.4321 143.851 58.3953 143.149C58.3569 142.662 58.38 142.172 58.464 141.691C58.4789 141.619 58.4968 141.548 58.5158 141.478C59.1366 141.571 59.7634 141.618 60.3912 141.621C60.6201 141.621 60.853 141.621 61.088 141.607C61.088 141.673 61.091 141.745 61.0969 141.822C61.1487 142.986 61.2452 145.027 61.3239 145.785C61.4354 146.872 62.0515 149.802 62.0515 149.802C62.0515 149.802 60.8759 150.557 62.2566 152.419C62.2566 152.419 62.2566 153.093 62.165 153.191C62.0673 153.51 61.9885 153.835 61.9291 154.163C61.8714 154.514 61.8475 154.869 61.9411 155.053C62.165 155.494 63.5089 155.458 63.5089 155.458L63.5417 155.452C63.7954 155.426 64.0518 155.45 64.296 155.524C64.5402 155.598 64.7673 155.719 64.9642 155.881C65.4749 156.292 67.413 156.112 68.4622 155.981C68.8733 155.929 69.148 155.881 69.148 155.881C69.1614 155.835 69.1661 155.786 69.162 155.738C69.151 155.48 68.9489 154.914 67.5792 154.409C67.5792 154.409 66.2911 153.542 66.309 152.786H66.2822H66.1328C66.2414 152.78 66.311 152.786 66.311 152.786C66.311 152.786 65.8063 150.943 66.0124 150.793C66.2185 150.644 65.6013 148.601 65.6013 148.601C65.6013 148.601 65.2479 145.173 65.229 144.933C65.2298 144.727 65.261 144.522 65.3216 144.325L65.229 142.446C65.229 142.446 65.2111 141.821 65.229 141.618C65.226 141.441 65.2117 141.265 65.1862 141.09C65.1772 141.021 65.1683 140.948 65.1583 140.876C65.6411 140.754 65.9547 140.64 65.9547 140.64L65.8989 134.098C66.309 133.301 66.3847 131.552 66.3827 130.311C66.3827 129.514 66.3469 128.924 66.3469 128.924L66.9073 128.008C66.9073 128.008 67.0367 126.912 66.8316 126.672C66.7411 126.563 66.7819 126.451 66.8565 126.358C66.8953 126.327 66.9362 126.299 66.979 126.274C66.979 126.274 66.973 126.265 66.966 126.253C67.0052 126.22 67.0468 126.19 67.0905 126.164C67.0905 126.164 66.8914 125.855 67.0696 125.724C67.2368 125.838 67.3861 125.924 67.4996 125.993C67.4916 126.066 67.4837 126.108 67.4837 126.108L67.5314 126.008C67.6409 126.07 67.7076 126.108 67.7076 126.108C67.7076 126.108 68.5856 124.357 68.5667 124.099C68.5478 123.841 69.164 122.754 69.164 122.754C69.164 122.754 69.2386 122.183 69.5751 121.944C69.9115 121.704 69.8359 119.972 69.8359 119.972C69.8359 119.972 69.9295 119.069 70.1534 118.7C70.3774 118.331 69.9494 117.834 69.9494 117.834ZM53.1503 117.066L53.1673 117.483C53.0677 117.323 52.996 117.207 52.996 117.207L53.1503 117.066Z" fill="url(#paint0_linear_165_240)"/>
<path d="M67.7557 125.352L67.5407 126.268C67.5407 126.268 65.8186 125.389 65.508 124.27C65.1975 123.152 66.0276 122.728 66.0276 122.728L67.6323 123.409L67.7557 125.352Z" fill="white"/>
<path opacity="0.1" d="M67.7557 125.352L67.5407 126.268C67.5407 126.268 65.8186 125.389 65.508 124.27C65.1975 123.152 66.0276 122.728 66.0276 122.728L67.6323 123.409L67.7557 125.352Z" fill="black"/>
<path d="M58.0905 156.553C58.0905 156.553 56.4978 157.139 55.4028 157.213C54.8215 157.252 54.5159 156.895 54.3586 156.551C54.2727 156.36 54.2172 156.157 54.1943 155.948L54.3367 154.369L54.4123 153.528L56.7387 152.923L57.0682 153.931L57.099 154.008C57.2314 154.345 57.762 155.715 57.7461 156.001C57.7454 156.074 57.7595 156.147 57.7876 156.215C57.8156 156.282 57.857 156.343 57.9093 156.395C57.9627 156.455 58.0236 156.508 58.0905 156.553V156.553Z" fill="white"/>
<path d="M68.97 155.75C68.974 155.798 68.9693 155.846 68.9561 155.892C68.9561 155.892 65.5497 156.461 64.8529 155.892C64.6564 155.726 64.4274 155.603 64.1806 155.531C63.9337 155.458 63.6745 155.438 63.4195 155.472C63.4195 155.472 62.1015 155.508 61.8815 155.073C61.7899 154.891 61.8138 154.537 61.8706 154.188C61.9284 153.862 62.0056 153.539 62.1015 153.221L62.1543 153.179L62.4678 152.927L66.139 152.818H66.1669C66.149 153.57 67.4132 154.432 67.4132 154.432C68.756 154.93 68.9541 155.493 68.97 155.75Z" fill="white"/>
<path opacity="0.1" d="M68.9695 155.75C68.973 155.798 68.9679 155.846 68.9546 155.892C68.9546 155.892 65.5492 156.461 64.8524 155.892C64.656 155.726 64.4272 155.603 64.1805 155.531C63.9339 155.458 63.6748 155.438 63.4199 155.472C63.4199 155.472 62.101 155.508 61.882 155.073C61.7904 154.89 61.8133 154.537 61.87 154.188C62.3777 154.239 63.179 154.366 63.4936 154.668C63.9694 155.127 64.7757 155.585 65.2705 155.621C65.6577 155.646 67.9741 155.72 68.9695 155.75Z" fill="black"/>
<path opacity="0.1" d="M58.0913 156.553C58.0913 156.553 56.4986 157.139 55.4036 157.213C54.8222 157.252 54.5166 156.895 54.3604 156.55C54.7655 156.687 55.3279 156.83 55.6236 156.699C55.974 156.543 57.2163 156.443 57.9131 156.4C57.9661 156.458 58.0259 156.509 58.0913 156.553V156.553Z" fill="black"/>
<path d="M60.4538 109.334C59.1398 108.823 57.4496 107.134 57.8716 106.344C57.9654 106.145 58.0211 105.93 58.0359 105.711C58.063 105.413 58.067 105.113 58.0478 104.814C58.0182 104.324 57.9594 103.837 57.8716 103.355C57.8716 103.355 61.9739 103.448 61.7349 104.053C61.6653 104.23 61.6543 104.538 61.6732 104.883C61.6921 105.227 61.7419 105.617 61.7937 105.947C61.8654 106.399 61.937 106.744 61.937 106.744C61.937 106.744 61.6862 107.096 61.5388 107.115C61.3915 107.134 62.3392 110.062 60.4538 109.334Z" fill="#CF6F80"/>
<path opacity="0.1" d="M57.0963 154.008L57.0655 154.042C55.8391 152.557 54.3559 154.408 54.3559 154.408L54.334 154.369L54.4096 153.528L56.736 152.923L57.0655 153.931L57.0963 154.008Z" fill="black"/>
<path opacity="0.1" d="M66.168 152.923C66.168 152.923 65.2721 152.904 64.7943 153.326C64.3165 153.749 62.0071 153.418 62.1066 153.326C62.1361 153.281 62.1539 153.229 62.1584 153.175L62.472 152.923L66.1432 152.814C66.1571 152.881 66.168 152.923 66.168 152.923Z" fill="black"/>
<path d="M58.6228 141.263C58.5561 141.428 58.5054 141.599 58.4715 141.774C58.3885 142.253 58.3655 142.74 58.4029 143.225C58.4397 143.922 58.4029 148.597 58.4029 148.597C58.4029 148.597 57.6155 149.844 57.1765 150.283C56.7375 150.723 58.0724 151.512 58.0724 151.512C58.2715 152.648 57.065 153.931 57.065 153.931C55.8386 152.446 54.3554 154.298 54.3554 154.298C54.3554 154.298 53.5491 152.903 53.348 152.405C53.1469 151.906 54.1354 151.562 54.4828 151.359C54.8302 151.157 54.4659 149.964 54.4659 149.964C54.4659 149.964 54.1722 148.919 53.8238 147.965C53.4754 147.012 54.2081 142.264 54.2081 142.264C54.2081 142.264 54.2459 141.421 54.3365 141.127C54.3822 140.915 54.3913 140.697 54.3634 140.482C54.3574 140.409 54.3504 140.348 54.3454 140.307C54.3405 140.266 54.3365 140.247 54.3365 140.247L54.3504 140.223L54.8481 139.295C54.8481 139.295 58.8617 140.678 58.6228 141.263Z" fill="#6C63FF"/>
<path d="M66.1678 152.813C66.1678 152.813 65.2719 152.794 64.7941 153.212C64.3163 153.629 62.0069 153.303 62.1064 153.212C62.2059 153.12 62.198 152.441 62.198 152.441C60.8432 150.59 61.9989 149.839 61.9989 149.839C61.9989 149.839 61.3937 146.924 61.2842 145.843C61.2075 145.087 61.113 143.057 61.0622 141.899C61.0403 141.4 61.0273 141.057 61.0273 141.057L62.1343 140.834L62.2766 140.805L64.9464 140.269C64.9464 140.269 65.02 140.767 65.0698 141.175C65.0946 141.349 65.1086 141.524 65.1116 141.7C65.0937 141.899 65.1116 142.523 65.1116 142.523L65.2022 144.394C65.143 144.59 65.1125 144.794 65.1116 144.999C65.1295 145.237 65.477 148.647 65.477 148.647C65.477 148.647 66.0812 150.682 65.8751 150.828C65.6691 150.975 66.1678 152.813 66.1678 152.813Z" fill="#6C63FF"/>
<path opacity="0.1" d="M61.7354 104.053C61.6657 104.23 61.6547 104.538 61.6737 104.883C61.1242 105.214 60.4925 105.383 59.8512 105.371C59.2099 105.359 58.585 105.166 58.0483 104.815C58.0187 104.325 57.9599 103.838 57.8721 103.355C57.8721 103.355 61.9743 103.446 61.7354 104.053Z" fill="black"/>
<path d="M63.3211 101.85C63.3219 102.209 63.2654 102.566 63.1538 102.908C62.9044 103.672 62.393 104.324 61.71 104.748C61.027 105.171 60.2163 105.34 59.4213 105.223C58.6262 105.106 57.898 104.712 57.3653 104.11C56.8326 103.508 56.5298 102.736 56.5103 101.932C56.5103 101.904 56.5103 101.878 56.5103 101.85C56.5025 101.398 56.5849 100.948 56.7526 100.528C56.9203 100.107 57.1699 99.7243 57.487 99.4014C57.804 99.0786 58.1821 98.8222 58.5992 98.6471C59.0162 98.4721 59.4639 98.382 59.9162 98.382C60.3684 98.382 60.8161 98.4721 61.2332 98.6471C61.6502 98.8222 62.0283 99.0786 62.3453 99.4014C62.6624 99.7243 62.912 100.107 63.0797 100.528C63.2474 100.948 63.3298 101.398 63.3221 101.85H63.3211Z" fill="#CF6F80"/>
<path opacity="0.1" d="M60.4538 109.334C59.1398 108.823 57.4496 107.134 57.8716 106.344C57.9654 106.145 58.0211 105.93 58.0359 105.711L59.8347 107.19L60.9476 108.104L61.7937 105.948C61.8654 106.4 61.937 106.745 61.937 106.745C61.937 106.745 61.6862 107.097 61.5388 107.116C61.3915 107.135 62.3392 110.062 60.4538 109.334Z" fill="black"/>
<path d="M65.1052 115.874L63.6031 141.135L61.6441 141.264L56.5713 126.616L57.4035 109.226L57.5787 105.552L59.8343 107.407L60.9482 108.321L61.8192 106.101L63.4388 107.514L65.1052 115.874Z" fill="#6C63FF"/>
<path opacity="0.1" d="M58.6223 141.263C58.5555 141.428 58.5049 141.599 58.471 141.774C57.0455 141.554 55.661 141.121 54.3638 140.49L54.3369 140.476L54.3459 140.315L54.3509 140.231L54.8486 139.303C54.8486 139.303 58.8612 140.678 58.6223 141.263Z" fill="black"/>
<path opacity="0.1" d="M62.1573 141.778C61.7929 141.84 61.4253 141.882 61.0563 141.904C61.0344 141.405 61.0215 141.063 61.0215 141.063L62.1284 140.839L62.1573 141.778Z" fill="black"/>
<path opacity="0.1" d="M65.0637 141.18C64.356 141.364 63.263 141.572 62.2844 141.442L62.2705 140.81L64.9403 140.274C64.9403 140.274 65.0139 140.768 65.0637 141.18Z" fill="black"/>
<path opacity="0.1" d="M62.2662 141.558C58.1849 142.255 54.4471 140.255 54.4471 140.255L54.4829 139.578C54.4829 139.578 54.5755 131.896 54.3187 131.307C54.0618 130.718 53.8617 127.731 54.0071 127.273C54.1524 126.815 53.4765 119.941 53.4765 119.941L53.367 117.15L49.3594 115.525L51.1512 111.786C51.3932 111.262 51.6013 110.723 51.7743 110.172C52.0859 109.201 53.5323 108.248 53.5323 108.248C53.5323 108.248 55.0155 107.295 55.6018 107.331C56.1881 107.367 56.9566 106.488 56.9566 106.488C57.524 105.04 58.0376 105.696 58.0376 105.696C58.0376 105.764 58.0376 105.696 58.0097 105.91C57.8107 107.499 61.229 112.522 61.2778 112.61L61.6033 120.549L61.9328 130.594L62.2662 141.558Z" fill="black"/>
<path d="M62.1569 141.558C58.0756 142.255 54.3368 140.255 54.3368 140.255L54.3736 139.578C54.3736 139.578 54.4662 131.896 54.2083 131.307C53.9505 130.718 53.7514 127.731 53.8978 127.273C54.0441 126.815 53.3672 119.941 53.3672 119.941L53.2567 117.15L49.2471 115.519L51.0389 111.78C51.2803 111.256 51.4885 110.717 51.662 110.166C51.9726 109.195 53.42 108.242 53.42 108.242C53.42 108.242 54.9032 107.289 55.4885 107.325C56.0738 107.361 56.8433 106.482 56.8433 106.482C57.4117 105.034 58.0378 105.69 58.0378 105.69C58.0378 105.758 57.9781 105.789 58.0099 105.904C58.4479 107.446 61.1197 112.516 61.1685 112.604L61.4979 120.543L61.8274 130.588L62.1569 141.558Z" fill="white"/>
<path opacity="0.1" d="M61.0576 112.831C60.6186 112.647 58.2933 109.99 58.2933 109.99V109.385C58.2087 109.185 57.706 109.307 57.2979 109.447L57.4731 105.772L57.6721 105.938C58.1081 107.478 61.0069 112.742 61.0576 112.831Z" fill="black"/>
<path d="M61.168 112.61C60.728 112.427 58.4027 109.769 58.4027 109.769V109.165C58.3181 108.965 57.8154 109.087 57.4072 109.226L57.5834 105.552L57.7825 105.718C58.2195 107.258 61.1192 112.523 61.168 112.61Z" fill="white"/>
<path opacity="0.1" d="M54.4476 125.865C54.5024 125.865 57.2856 125.572 57.2856 125.572C57.2856 125.572 58.9709 128.889 58.8604 129.696C58.7499 130.504 58.5498 131.218 57.8719 131.092C57.194 130.965 54.2236 131.191 54.2236 131.191L54.4476 125.865Z" fill="black"/>
<path d="M54.3373 125.645C54.392 125.645 57.1753 125.352 57.1753 125.352C57.1753 125.352 58.8595 128.67 58.75 129.476C58.6405 130.282 58.4385 130.998 57.7616 130.871C57.0847 130.745 54.1133 130.971 54.1133 130.971L54.3373 125.645Z" fill="white"/>
<path d="M56.4341 124.087C56.4341 124.087 58.9884 125.461 59.0432 125.881C59.0979 126.3 57.7431 125.698 57.4505 125.625C57.2579 125.578 57.0618 125.548 56.8642 125.533L54.9121 125.586L56.4341 124.087Z" fill="#CF6F80"/>
<path opacity="0.1" d="M60.3449 113.002C60.4934 113.002 60.6137 112.882 60.6137 112.733C60.6137 112.584 60.4934 112.464 60.3449 112.464C60.1965 112.464 60.0762 112.584 60.0762 112.733C60.0762 112.882 60.1965 113.002 60.3449 113.002Z" fill="black"/>
<path d="M60.3449 112.892C60.4934 112.892 60.6137 112.772 60.6137 112.623C60.6137 112.475 60.4934 112.354 60.3449 112.354C60.1965 112.354 60.0762 112.475 60.0762 112.623C60.0762 112.772 60.1965 112.892 60.3449 112.892Z" fill="#3F3D56"/>
<path opacity="0.1" d="M60.8391 124.649C60.9875 124.649 61.1078 124.529 61.1078 124.38C61.1078 124.232 60.9875 124.111 60.8391 124.111C60.6906 124.111 60.5703 124.232 60.5703 124.38C60.5703 124.529 60.6906 124.649 60.8391 124.649Z" fill="black"/>
<path d="M60.8391 124.539C60.9875 124.539 61.1078 124.418 61.1078 124.269C61.1078 124.121 60.9875 124 60.8391 124C60.6906 124 60.5703 124.121 60.5703 124.269C60.5703 124.418 60.6906 124.539 60.8391 124.539Z" fill="#3F3D56"/>
<path opacity="0.1" d="M60.6125 118.826C60.761 118.826 60.8813 118.705 60.8813 118.557C60.8813 118.408 60.761 118.287 60.6125 118.287C60.4641 118.287 60.3438 118.408 60.3438 118.557C60.3438 118.705 60.4641 118.826 60.6125 118.826Z" fill="black"/>
<path d="M60.6125 118.716C60.761 118.716 60.8813 118.596 60.8813 118.447C60.8813 118.298 60.761 118.178 60.6125 118.178C60.4641 118.178 60.3438 118.298 60.3438 118.447C60.3438 118.596 60.4641 118.716 60.6125 118.716Z" fill="#3F3D56"/>
<path d="M66.808 125.477C66.808 125.477 66.9911 125.752 66.808 125.881C66.6248 126.009 66.8259 126.32 66.8259 126.32C66.8259 126.32 66.369 126.588 66.5701 126.83C66.7712 127.071 66.6437 128.16 66.6437 128.16L66.0943 129.071C66.0943 129.071 66.1271 129.658 66.1291 130.451C66.1291 131.688 66.0564 133.428 65.6543 134.222L65.71 140.73C65.71 140.73 63.7858 141.433 62.1752 141.219L61.9363 130.776C61.9363 130.776 62.2847 124.853 62.4131 123.717C62.4883 123.128 62.5189 122.533 62.5047 121.939C62.5047 121.939 62.45 120.161 62.2658 119.336C62.2658 119.336 62.0667 115.761 62.0468 114.772C62.0378 114.299 62.0627 112.917 62.0906 111.604C62.1215 110.168 62.1563 108.814 62.1563 108.814L61.793 105.936C61.793 105.936 62.1563 105.899 62.2658 106.046C62.3148 106.091 62.3682 106.132 62.4251 106.168V106.168C63.0522 106.593 65.268 107.898 65.268 107.898C65.268 107.898 66.4944 108.386 66.7881 109.086C67.0817 109.785 67.2858 110.282 67.4281 110.481C67.5705 110.68 67.6481 111.617 67.6481 111.617C67.6481 111.617 68.0702 113.341 68.3997 113.633C68.7292 113.925 68.9701 115.782 68.9701 115.782L66.0584 118.074C66.0584 118.074 65.8026 121.887 65.7478 122.034C65.6931 122.182 66.808 125.477 66.808 125.477Z" fill="white"/>
<path d="M66.9186 125.477C66.9186 125.477 67.1008 125.752 66.9186 125.881C66.7365 126.009 66.9355 126.32 66.9355 126.32C66.9355 126.32 66.4816 126.591 66.6807 126.833C66.8798 127.074 66.7544 128.163 66.7544 128.163L66.2049 129.074C66.2049 129.074 66.2377 129.661 66.2407 130.454C66.2407 131.691 66.1681 133.431 65.7659 134.225L65.8206 140.733C65.8206 140.733 63.8935 141.436 62.2848 141.222L62.0469 130.779C62.0469 130.779 62.3953 124.856 62.5238 123.72C62.599 123.131 62.6293 122.536 62.6143 121.942C62.6143 121.942 62.5596 120.164 62.3764 119.339C62.3764 119.339 62.1773 115.764 62.1564 114.775C62.1475 114.302 62.1734 112.92 62.2002 111.607C62.2311 110.171 62.2659 108.817 62.2659 108.817L61.7861 105.9C61.7861 105.9 62.2659 105.9 62.3764 106.049C62.425 106.095 62.4784 106.136 62.5357 106.171C63.1628 106.596 65.3797 107.901 65.3797 107.901C65.3797 107.901 66.6051 108.389 66.8987 109.089C67.1924 109.788 67.3964 110.285 67.5398 110.484C67.6831 110.683 67.7588 111.62 67.7588 111.62C67.7588 111.62 68.1808 113.344 68.5103 113.636C68.8398 113.928 69.0777 115.781 69.0777 115.781L66.1661 118.073C66.1661 118.073 65.9102 121.886 65.8545 122.033C65.7987 122.181 66.9186 125.477 66.9186 125.477Z" fill="white"/>
<path opacity="0.1" d="M63.4315 109.663L63.6942 110.43L62.3106 111.825C62.3414 110.39 62.3763 109.035 62.3763 109.035L61.8965 106.118C61.8965 106.118 62.3763 106.118 62.4868 106.267C62.5352 106.313 62.5886 106.354 62.6461 106.388L63.8227 109.786L63.4315 109.663Z" fill="black"/>
<path d="M63.3211 109.443L63.5849 110.21L62.2012 111.605C62.2321 110.169 62.2669 108.815 62.2669 108.815L61.7861 105.898C61.7861 105.898 62.2669 105.898 62.3764 106.046C62.4253 106.093 62.4786 106.134 62.5357 106.169L63.7133 109.566L63.3211 109.443Z" fill="white"/>
<path opacity="0.1" d="M63.3211 101.85C63.3219 102.209 63.2654 102.566 63.1538 102.908C63.135 102.91 63.1158 102.91 63.0973 102.905C63.0789 102.9 63.0615 102.892 63.0463 102.881C63.0204 101.984 62.5795 101.142 62.0369 100.425C61.8846 100.209 61.7 100.017 61.4895 99.8573C61.2766 99.6972 61.0119 99.6223 60.7469 99.647C60.4482 99.6879 60.1844 99.8912 59.8828 99.9171C59.4846 99.9499 59.1283 99.6739 58.7331 99.66C58.5724 99.6615 58.4139 99.6973 58.2682 99.765C58.1225 99.8327 57.9928 99.9307 57.888 100.053C57.6803 100.298 57.5261 100.585 57.435 100.894C57.2785 101.362 57.1933 101.851 57.1822 102.345C57.1772 102.624 57.1503 102.973 56.8915 103.075C56.911 102.87 56.8877 102.663 56.8231 102.467C56.7585 102.271 56.654 102.091 56.5162 101.938L56.5103 101.932C56.5103 101.904 56.5103 101.878 56.5103 101.85C56.5025 101.398 56.5849 100.948 56.7526 100.528C56.9203 100.107 57.1699 99.7243 57.487 99.4014C57.804 99.0786 58.1821 98.8222 58.5992 98.6471C59.0162 98.4721 59.4639 98.382 59.9162 98.382C60.3684 98.382 60.8161 98.4721 61.2332 98.6471C61.6502 98.8222 62.0283 99.0786 62.3453 99.4014C62.6624 99.7243 62.912 100.107 63.0797 100.528C63.2474 100.948 63.3298 101.398 63.3221 101.85H63.3211Z" fill="black"/>
<path d="M61.326 96.4363C60.8088 96.1927 60.2204 96.1466 59.6716 96.3067C59.3959 96.3884 59.1361 96.521 58.8564 96.5877C58.2591 96.7322 57.5623 96.5758 57.0496 96.9255C56.7649 97.1248 56.5937 97.4397 56.4345 97.7457L56.0363 98.505C55.8193 98.9205 55.6003 99.343 55.5097 99.8004C55.4191 100.258 55.4739 100.77 55.7635 101.138C55.9746 101.406 56.2861 101.574 56.5151 101.826C56.6522 101.98 56.7563 102.16 56.8207 102.355C56.8851 102.551 56.9085 102.757 56.8894 102.962C57.1492 102.863 57.1741 102.512 57.18 102.233C57.1911 101.739 57.2764 101.25 57.4329 100.782C57.5237 100.473 57.678 100.187 57.8858 99.9409C57.9908 99.8192 58.1204 99.7212 58.2661 99.6535C58.4119 99.5859 58.5703 99.55 58.7309 99.5483C59.1291 99.5623 59.4865 99.8373 59.8807 99.8044C60.1793 99.7795 60.4441 99.5752 60.7447 99.5354C61.0098 99.5103 61.2746 99.5853 61.4873 99.7456C61.6978 99.9055 61.8821 100.097 62.0338 100.314C62.5773 101.03 63.0183 101.87 63.0442 102.769C63.1567 102.852 63.3189 102.744 63.3747 102.617C63.4304 102.489 63.4324 102.34 63.5031 102.218C63.5847 102.077 63.741 102.003 63.8634 101.897C64.174 101.629 64.2516 101.178 64.2397 100.768C64.2277 100.358 64.1481 99.9429 64.2258 99.5404C64.2725 99.2932 64.3781 99.062 64.4358 98.8179C64.4935 98.5738 64.5005 98.2997 64.3641 98.0895C64.165 97.7805 63.746 97.7197 63.3806 97.6909C62.9655 97.655 62.5942 97.7008 62.3294 97.351C62.2052 97.1685 62.0653 96.9971 61.9114 96.8388C61.8586 96.787 61.326 96.4582 61.326 96.4363Z" fill="#512E4E"/>
<path opacity="0.1" d="M50.5064 117.45L49.4662 115.525L49.1367 118.496C49.1367 118.496 49.3199 119.815 49.283 120.017C49.2462 120.22 50.0336 122.033 50.0336 122.033C50.0336 122.033 52.6347 126.671 53.6968 126.91L57.2854 124.343L56.3337 123.133C56.3337 123.133 56.0043 123.005 55.9216 123.133C55.9216 123.133 54.1547 120.09 53.9716 119.87C53.7884 119.65 53.8242 119.21 53.8242 119.21C53.8242 119.21 53.5495 118.917 53.6411 118.642C53.7327 118.367 53.1105 117.414 53.1105 117.414L53.6779 116.882L50.5064 117.45Z" fill="black"/>
<path d="M49.5212 115.306L49.2465 115.525L48.917 118.496C48.917 118.496 49.1002 119.815 49.0633 120.017C49.0265 120.22 49.8149 122.033 49.8149 122.033C49.8149 122.033 52.415 126.671 53.4771 126.91L57.0667 124.343L56.114 123.133C56.114 123.133 55.7845 123.005 55.7019 123.133C55.7019 123.133 53.935 120.09 53.7518 119.87C53.5687 119.65 53.6055 119.21 53.6055 119.21C53.6055 119.21 53.3308 118.917 53.4224 118.642C53.5139 118.367 52.8908 117.414 52.8908 117.414L53.4582 116.882L49.5212 115.306Z" fill="white"/>
<path opacity="0.1" d="M66.5699 126.943C66.769 127.185 66.6436 128.272 66.6436 128.272L66.0941 129.183C66.0941 129.183 66.1269 129.771 66.1289 130.563L65.2052 130.852C65.1217 130.878 65.0332 130.884 64.947 130.869C64.8609 130.854 64.7796 130.818 64.7099 130.765C64.6403 130.713 64.5843 130.644 64.5466 130.565C64.509 130.486 64.4907 130.399 64.4934 130.311L64.6527 125.168L66.8078 125.993C66.6247 126.121 66.8257 126.434 66.8257 126.434C66.8257 126.434 66.3688 126.701 66.5699 126.943Z" fill="black"/>
<path d="M66.6803 126.832C66.8794 127.075 66.7539 128.163 66.7539 128.163L66.2044 129.074C66.2044 129.074 66.2373 129.661 66.2403 130.454L65.2996 130.748C65.2178 130.773 65.1312 130.779 65.0469 130.764C64.9625 130.749 64.883 130.714 64.8148 130.662C64.7467 130.61 64.6919 130.543 64.655 130.466C64.6181 130.388 64.6002 130.303 64.6028 130.218L64.763 125.059L66.9192 125.884C66.735 126.011 66.9361 126.323 66.9361 126.323C66.9361 126.323 66.4812 126.591 66.6803 126.832Z" fill="white"/>
<path d="M67.394 124.381C67.394 124.381 67.2477 125.317 66.8814 125.372C66.515 125.426 66.3508 126.885 65.9855 126.833C65.6201 126.782 65.862 125.477 65.875 125.224C65.8879 124.971 65.4768 123.923 65.7844 123.684C66.092 123.446 67.0655 123.684 67.0655 123.684L67.394 124.381Z" fill="#CF6F80"/>
<path opacity="0.1" d="M68.1733 117.175L68.8641 115.78C68.8641 115.78 69.1389 116.844 69.1389 117.412C69.1389 117.98 69.5231 118.035 69.5231 118.035C69.5231 118.035 69.9442 118.534 69.7222 118.896C69.5002 119.259 69.4106 120.162 69.4106 120.162C69.4106 120.162 69.4833 121.885 69.1538 122.123C68.8243 122.361 68.7556 122.93 68.7556 122.93C68.7556 122.93 68.1504 124.011 68.1693 124.268C68.1882 124.526 67.3272 126.266 67.3272 126.266C67.3272 126.266 67.7483 124.103 65.2945 123.168C65.2945 123.168 65.2756 122.434 65.4587 122.233C65.6419 122.031 65.9276 121.94 65.7484 120.922C65.5692 119.905 65.6967 118.689 65.6967 118.445C65.6967 118.201 66.2461 116.678 66.2461 116.678L68.1733 117.175Z" fill="black"/>
<path d="M68.4718 115.581L69.0751 115.78C69.0751 115.78 69.3508 116.844 69.3508 117.412C69.3508 117.98 69.735 118.035 69.735 118.035C69.735 118.035 70.1561 118.534 69.9341 118.896C69.7121 119.259 69.6235 120.162 69.6235 120.162C69.6235 120.162 69.6962 121.885 69.3667 122.123C69.0372 122.361 68.9636 122.93 68.9636 122.93C68.9636 122.93 68.3593 124.011 68.3782 124.268C68.3972 124.526 67.5351 126.266 67.5351 126.266C67.5351 126.266 67.9572 124.103 65.5024 123.168C65.5024 123.168 65.4845 122.434 65.6677 122.233C65.8508 122.031 66.1365 121.94 65.9573 120.922C65.7782 119.905 65.9056 118.689 65.9056 118.445C65.9056 118.201 66.4551 116.678 66.4551 116.678L68.4718 115.581Z" fill="white"/>
<path opacity="0.1" d="M55.1484 151.741C55.1484 151.741 56.11 151.136 56.7411 151.576C57.3722 152.015 55.1484 151.741 55.1484 151.741Z" fill="black"/>
<path opacity="0.1" d="M62.6201 149.871C62.6201 149.871 63.4712 149.761 64.1859 150.531C64.9007 151.302 62.6201 149.871 62.6201 149.871Z" fill="black"/>
<g opacity="0.1">
<path opacity="0.1" d="M63.8656 101.679C63.7432 101.785 63.5859 101.86 63.5043 102.001C63.4346 102.121 63.4326 102.27 63.3769 102.399C63.3211 102.529 63.1588 102.635 63.0464 102.553C63.0205 101.656 62.5785 100.814 62.036 100.096C61.8843 99.88 61.7 99.6883 61.4895 99.5285C61.2764 99.3681 61.0113 99.2931 60.7459 99.3182C60.4473 99.3591 60.1845 99.5624 59.8829 99.5873C59.4847 99.6212 59.1273 99.3451 58.7321 99.3312C58.5715 99.3328 58.4131 99.3687 58.2675 99.4366C58.122 99.5045 57.9926 99.6027 57.888 99.7248C57.6802 99.9701 57.5259 100.256 57.4351 100.565C57.2786 101.033 57.1934 101.522 57.1822 102.016C57.1763 102.294 57.1504 102.641 56.8936 102.744C56.8995 102.818 56.8995 102.892 56.8936 102.965C57.1524 102.866 57.1783 102.515 57.1842 102.236C57.1953 101.742 57.2806 101.253 57.4371 100.785C57.5279 100.476 57.6822 100.19 57.89 99.944C57.9948 99.8223 58.1242 99.7243 58.2698 99.6566C58.4153 99.5889 58.5736 99.5531 58.7341 99.5514C59.1323 99.5653 59.4907 99.8404 59.8849 99.8075C60.1835 99.7826 60.4483 99.5783 60.7479 99.5384C61.0133 99.5134 61.2784 99.5884 61.4915 99.7487C61.7019 99.9086 61.8863 100.1 62.038 100.317C62.5805 101.033 63.0225 101.873 63.0484 102.772C63.1608 102.855 63.3231 102.747 63.3788 102.62C63.4346 102.492 63.4366 102.343 63.5063 102.221C63.5879 102.081 63.7452 102.006 63.8676 101.9C64.1782 101.632 64.2558 101.181 64.2439 100.771C64.2439 100.758 64.2439 100.745 64.2439 100.733C64.225 101.088 64.1304 101.45 63.8656 101.679Z" fill="black"/>
<path opacity="0.1" d="M56.5174 101.608C56.2885 101.356 55.9759 101.188 55.7659 100.921C55.589 100.684 55.488 100.4 55.4762 100.104C55.4449 100.473 55.5478 100.841 55.7659 101.14C55.9759 101.408 56.2885 101.576 56.5174 101.828C56.7373 102.075 56.8692 102.388 56.8927 102.717C56.908 102.517 56.8826 102.315 56.8181 102.124C56.7536 101.934 56.6513 101.758 56.5174 101.608V101.608Z" fill="black"/>
<path opacity="0.1" d="M64.4378 98.5997C64.379 98.8439 64.2745 99.076 64.2267 99.3222C64.1984 99.4866 64.1881 99.6537 64.1959 99.8204C64.1992 99.7255 64.2095 99.6309 64.2267 99.5374C64.2745 99.2903 64.379 99.0591 64.4378 98.815C64.472 98.6803 64.4831 98.5408 64.4706 98.4024C64.4644 98.4689 64.4534 98.5348 64.4378 98.5997V98.5997Z" fill="black"/>
</g>
<path opacity="0.1" d="M37.2123 155.793C42.5692 155.793 46.9118 155.094 46.9118 154.233C46.9118 153.372 42.5692 152.674 37.2123 152.674C31.8553 152.674 27.5127 153.372 27.5127 154.233C27.5127 155.094 31.8553 155.793 37.2123 155.793Z" fill="#6C63FF"/>
<path d="M37.5255 124.358H36.9014V138.426H37.5255V124.358Z" fill="#535461"/>
<path d="M41.4471 138.383L41.4083 139.017L41.3526 139.913L41.3297 140.286L41.2749 141.183L41.251 141.556L41.1953 142.453L40.5662 152.624C40.5388 153.061 40.3459 153.472 40.0267 153.773C39.7076 154.073 39.2861 154.24 38.848 154.24H35.577C35.1391 154.24 34.7177 154.073 34.3987 153.772C34.0797 153.472 33.887 153.061 33.8599 152.624L33.2338 142.446L33.178 141.549L33.1551 141.176L33.0994 140.279L33.0765 139.907L33.0207 139.01L32.9809 138.376C32.974 138.254 32.9921 138.132 33.034 138.017C33.0759 137.902 33.1408 137.797 33.2247 137.709C33.3086 137.62 33.4097 137.549 33.5218 137.501C33.634 137.453 33.7548 137.428 33.8768 137.428H40.5672C40.6888 137.429 40.8088 137.455 40.92 137.505C41.0312 137.554 41.1311 137.625 41.2135 137.715C41.296 137.804 41.3593 137.91 41.3994 138.025C41.4396 138.14 41.4558 138.261 41.4471 138.383V138.383Z" fill="#6E260E"/>
<path d="M41.4082 139.017L41.3524 139.911H33.0723L33.0166 139.017H41.4082Z" fill="#DB8A5D"/>
<path d="M41.33 140.283L41.2752 141.178H33.1514L33.0957 140.283H41.33Z" fill="#DB8A5D"/>
<path d="M41.2508 141.552L41.1961 142.446H33.2296L33.1738 141.552H41.2508Z" fill="#DB8A5D"/>
<path d="M32.0641 129.631C35.6984 132.263 37.2155 136.381 37.2155 136.381C37.2155 136.381 32.8355 136.231 29.2002 133.598C25.5648 130.965 24.0508 126.849 24.0508 126.849C24.0508 126.849 28.4287 126.998 32.0641 129.631Z" fill="#73E63D"/>
<path d="M24.0479 126.849C24.0479 126.849 28.595 129.375 30.0533 131.466C31.5117 133.558 37.2155 136.381 37.2155 136.381" stroke="#3DD63A" stroke-width="2" stroke-miterlimit="10"/>
<path d="M34.4099 124.327C36.3878 125.759 37.215 128 37.215 128C37.215 128 34.8309 127.919 32.852 126.487C30.8731 125.055 30.0479 122.813 30.0479 122.813C30.0479 122.813 32.4309 122.894 34.4099 124.327Z" fill="#73E53D"/>
<path d="M30.0479 122.813C30.0479 122.813 32.5225 124.188 33.3159 125.326C34.1092 126.464 37.215 128 37.215 128" stroke="#3DD63A" stroke-width="2" stroke-miterlimit="10"/>
<path d="M40.0874 127.887C37.8148 130.387 37.334 133.655 37.334 133.655C37.334 133.655 40.5383 132.867 42.8089 130.366C45.0795 127.865 45.5623 124.598 45.5623 124.598C45.5623 124.598 42.36 125.387 40.0874 127.887Z" fill="#73E53D"/>
<path d="M45.5643 124.599C45.5643 124.599 42.6038 127.162 41.8513 128.928C41.0987 130.694 37.334 133.655 37.334 133.655" stroke="#3DD63A" stroke-width="2" stroke-miterlimit="10"/>
<path d="M123.512 127.007C123.512 127.007 121.868 118.822 122.497 117.803C122.497 117.803 122.52 116.857 122.482 115.65C122.482 115.604 122.482 115.558 122.482 115.511C122.593 115.585 122.708 115.652 122.828 115.711C123.407 116.009 124.073 116.095 124.709 115.954L124.211 115.399C124.092 115.266 123.967 115.123 123.942 114.947C123.916 114.772 123.987 114.615 124.049 114.459C124.522 113.263 124.547 111.759 123.636 110.847C122.867 110.079 122.679 109.089 121.844 108.388C121.234 107.875 120.899 107.123 120.582 106.395C120.314 105.78 120.044 105.161 119.891 104.509C119.772 104 119.724 103.473 119.56 102.975C119.395 102.478 119.088 101.995 118.607 101.773C118.436 101.694 118.246 101.649 118.089 101.544C117.884 101.406 117.761 101.181 117.613 100.983C116.859 99.9868 114.336 100.574 113.141 100.978C112.816 101.08 112.516 101.247 112.257 101.469L112.268 101.451C112.277 101.436 112.288 101.421 112.298 101.406C112.167 101.512 112.054 101.638 111.963 101.779C111.789 102.056 111.717 102.377 111.571 102.676C111.396 103.03 110.422 104.018 110.841 104.415C110.87 104.442 110.904 104.463 110.94 104.479C111.097 104.545 111.271 104.562 111.438 104.529L111.42 104.572C111.277 104.922 111.203 105.298 111.204 105.677C111.204 107.314 112.553 108.641 114.218 108.641C114.531 108.642 114.842 108.594 115.141 108.499C115.148 108.537 115.154 108.575 115.161 108.612C115.161 108.627 115.166 108.642 115.168 108.657L115.115 108.731C115.112 108.727 115.109 108.722 115.106 108.718L113.543 110.904C113.304 111.073 111.929 112.069 111.851 112.817C111.769 113.635 111.688 114.592 111.688 114.592L111.677 114.798C111.608 114.855 111.529 114.896 111.443 114.92C111.357 114.943 111.267 114.947 111.179 114.932C110.691 114.853 110.691 116.726 110.691 116.726C110.691 116.726 110.367 117.025 110.144 116.766C109.921 116.507 109.332 117.385 109.332 117.385L105.638 117.544L105.554 117.549L105.355 116.932C105.333 116.867 105.287 116.813 105.226 116.782C105.165 116.751 105.094 116.745 105.029 116.766C105.014 116.771 104.999 116.777 104.984 116.785L104.971 116.793L104.945 116.811L104.932 116.823C104.925 116.829 104.918 116.836 104.912 116.844L104.9 116.858L104.894 116.863C104.871 116.895 104.856 116.932 104.849 116.971C104.843 117.01 104.846 117.049 104.858 117.087L105.029 117.616C104.317 117.759 103.588 118.164 104.182 119.278L101.17 118.721L102.144 119.54L107.175 120.579C107.109 120.699 107.153 120.872 107.361 121.117C108.256 122.17 109.889 122.456 110.546 122.53C110.719 122.918 110.936 123.286 111.192 123.626L111.135 124.675C111.135 124.675 109.472 132.673 109.167 133.079C109.321 132.904 109.462 132.719 109.588 132.523C109.106 134.167 108.431 136.416 108.253 136.753C107.969 137.291 107.705 139.468 108.029 139.608C108.129 139.65 108.414 139.63 108.82 139.599V139.779L108.802 146.614C108.802 146.614 108.884 150.806 108.66 151.206C108.436 151.605 108.376 152.444 108.376 152.444C108.376 152.444 107.48 154.097 106.77 154.761C106.765 154.767 106.76 154.771 106.754 154.775L106.732 154.62C106.732 154.62 105.879 155.698 103.992 155.637C103.992 155.637 102.856 156.377 104.54 156.417C106.225 156.456 108.376 156.357 108.376 156.357C108.376 156.357 109.878 154.065 111.136 154.364V156.101H111.521V154.336C111.7 154.218 111.853 154.065 111.971 153.887C112.089 153.708 112.169 153.507 112.207 153.297C112.24 153.079 112.216 152.857 112.137 152.652C112.058 152.447 111.927 152.266 111.757 152.128C111.681 152.058 111.62 151.974 111.577 151.88C111.535 151.786 111.513 151.685 111.512 151.582L111.498 151.593C111.498 151.559 111.489 151.523 111.485 151.486C111.374 150.589 111.236 148.739 111.725 147.369C112.394 145.492 112.598 142.877 112.11 141.321C111.952 140.823 111.823 140.317 111.723 139.805C111.711 139.74 111.7 139.678 111.69 139.621C112.023 139.666 112.353 139.732 112.678 139.82C113.808 140.132 116.28 140.19 118.39 140.173C118.395 140.23 118.401 140.291 118.408 140.352C118.446 140.775 118.524 141.192 118.643 141.6C118.908 142.397 119.029 145.911 119.029 145.911C119.029 145.911 119.371 148.801 119.184 149.977C119.085 150.631 118.985 151.288 118.929 151.947V151.96C118.929 151.96 118.369 153.555 117.96 154.421C117.95 154.442 117.939 154.464 117.929 154.485C117.82 154.495 117.713 154.519 117.61 154.556C117.61 154.556 117.061 155.652 116.515 155.834C115.968 156.015 116.149 156.612 117.387 156.393C118.624 156.173 120.492 155.994 120.492 155.994L120.573 154.876L120.953 154.4L120.854 155.515L121.259 155.435L121.205 154.079L121.827 153.3C121.827 153.3 122.579 152.63 121.462 151.312V151.341C121.45 151.322 121.439 151.303 121.426 151.284V151.278C121.241 150.991 121.094 150.455 121.363 149.506C121.851 147.79 122.135 146.232 122.135 146.232C122.135 146.232 123.224 142.06 121.915 140.086H121.973C121.838 139.808 121.744 139.513 121.691 139.209C121.684 139.173 121.678 139.136 121.673 139.098C122.642 139.043 123.592 138.867 124.368 138.489C124.365 138.485 123.898 128.583 123.512 127.007ZM111.215 120.101V120.121L111.016 120.131L111.215 120.101ZM110.532 120.196C110.499 120.203 110.469 120.218 110.442 120.239C110.357 120.36 110.303 120.501 110.286 120.648L109.976 120.578C109.976 120.578 109.758 120.532 109.444 120.479L109.296 120.329C109.704 120.295 110.128 120.246 110.532 120.196V120.196Z" fill="url(#paint1_linear_165_240)"/>
<path d="M120.808 154.093L120.689 155.505L121.087 155.425L121.027 153.893L120.808 154.093Z" fill="#1D2366"/>
<path d="M111.746 147.388C111.267 148.754 111.403 150.596 111.51 151.491C111.55 151.822 111.587 152.023 111.587 152.023C111.587 152.023 110.871 153.655 110.811 153.717C110.751 153.779 108.705 155.029 108.705 155.029L107.274 155.866C107.274 155.866 105.823 155.229 106.519 155.01C106.661 154.952 106.789 154.865 106.894 154.753C107.591 154.091 108.466 152.444 108.466 152.444C108.466 152.444 108.526 151.607 108.745 151.21C108.964 150.812 108.884 146.634 108.884 146.634L108.901 139.823V138.935L111.623 138.955C111.641 139.256 111.68 139.556 111.741 139.852C111.839 140.362 111.965 140.867 112.12 141.362C112.6 142.916 112.401 145.518 111.746 147.388Z" fill="#FFB0B1"/>
<path opacity="0.1" d="M111.587 152.023C111.587 152.023 110.871 153.655 110.811 153.717C110.751 153.779 108.705 155.029 108.705 155.029L107.274 155.865C107.274 155.865 105.823 155.229 106.519 155.009C106.661 154.952 106.789 154.865 106.894 154.753L106.956 155.189L107.433 155.169L111.514 151.493C111.55 151.822 111.587 152.023 111.587 152.023Z" fill="black"/>
<path d="M111.537 151.585L107.433 155.286L106.956 155.306L106.857 154.609C106.857 154.609 106.022 155.683 104.169 155.623C104.169 155.623 103.056 156.36 104.705 156.4C106.355 156.439 108.461 156.34 108.461 156.34C108.461 156.34 109.932 154.048 111.164 154.347V156.078H111.542V154.331C111.718 154.212 111.868 154.059 111.983 153.881C112.099 153.703 112.177 153.504 112.213 153.294C112.246 153.079 112.223 152.859 112.146 152.655C112.069 152.451 111.941 152.271 111.774 152.131C111.7 152.061 111.64 151.976 111.599 151.882C111.559 151.789 111.537 151.688 111.537 151.585V151.585Z" fill="#1D2366"/>
<path d="M121.186 149.517C120.921 150.463 121.065 150.997 121.247 151.283V151.289C121.479 151.642 121.64 152.037 121.722 152.451L121.738 152.541L119.871 155.267L118.857 155.665C118.857 155.665 117.228 155.108 117.526 154.949C117.6 154.91 117.717 154.703 117.85 154.417C118.248 153.555 118.798 151.964 118.798 151.964V151.951C118.855 151.295 118.947 150.64 119.049 149.988C119.231 148.815 118.896 145.936 118.896 145.936C118.896 145.936 118.777 142.436 118.518 141.639C118.401 141.235 118.324 140.819 118.286 140.4C118.232 139.902 118.22 139.491 118.22 139.491C118.22 139.491 119.293 137.996 121.26 139.611C121.418 139.739 121.556 139.89 121.672 140.057C123.03 141.992 121.936 146.255 121.936 146.255C121.936 146.255 121.663 147.806 121.186 149.517Z" fill="#FFB0B1"/>
<path opacity="0.1" d="M121.741 152.541L119.874 155.267L118.86 155.665C118.86 155.665 117.231 155.108 117.529 154.949C117.603 154.91 117.72 154.703 117.853 154.417C118.543 154.411 118.9 155.068 118.9 155.068L119.774 154.929C119.774 154.929 120.927 152.661 121.186 152.522C121.445 152.384 121.226 151.487 121.226 151.487V151.259C121.233 151.267 121.239 151.276 121.246 151.284V151.29C121.479 151.643 121.64 152.038 121.722 152.452L121.741 152.541Z" fill="black"/>
<path d="M118.96 155.127C118.96 155.127 118.462 154.212 117.508 154.55C117.508 154.55 116.972 155.646 116.435 155.824C115.899 156.001 116.078 156.599 117.29 156.381C118.503 156.162 120.33 155.982 120.33 155.982L120.41 154.867L121.642 153.296C121.642 153.296 122.377 152.629 121.284 151.317V151.545C121.284 151.545 121.503 152.442 121.244 152.58C120.985 152.719 119.837 154.988 119.837 154.988L118.96 155.127Z" fill="#1D2366"/>
<path opacity="0.1" d="M111.627 138.953C111.644 139.254 111.683 139.554 111.744 139.85C110.623 139.685 109.583 139.767 108.901 139.821V138.933L111.627 138.953Z" fill="black"/>
<path opacity="0.1" d="M121.782 140.305C121.782 140.305 120.19 140.383 118.29 140.399C118.237 139.901 118.225 139.49 118.225 139.49C118.225 139.49 119.298 137.995 121.265 139.61C121.422 139.738 121.56 139.889 121.676 140.056C121.707 140.141 121.742 140.224 121.782 140.305V140.305Z" fill="black"/>
<path d="M121.782 140.126C121.782 140.126 114.806 140.464 112.68 139.867C110.554 139.27 108.446 139.787 108.129 139.648C107.811 139.51 108.069 137.341 108.348 136.803C108.626 136.266 110.155 130.834 110.155 130.834L111.627 123.155L113.177 122.728L113.286 122.697L115.987 121.952L117.966 121.405C117.966 121.405 121.901 136.784 121.563 137.918C121.441 138.352 121.421 138.809 121.505 139.252C121.557 139.555 121.65 139.849 121.782 140.126V140.126Z" fill="#1D2366"/>
<path d="M106.498 117.904C106.498 117.904 105.104 119.399 106.16 120.232C107.215 121.065 107.909 120.311 107.909 120.311L106.498 117.904Z" fill="#C7DAF5"/>
<path opacity="0.1" d="M106.498 117.904C106.498 117.904 105.104 119.399 106.16 120.232C107.215 121.065 107.909 120.311 107.909 120.311L106.498 117.904Z" fill="black"/>
<path d="M117.758 108.076C117.758 108.076 117.594 108.232 117.349 108.461C116.998 108.789 116.48 109.268 116.02 109.67C115.383 110.225 114.857 110.632 115.045 110.285C115.233 109.937 115.197 109.331 115.104 108.764C115.097 108.726 115.091 108.688 115.084 108.651C115.006 108.235 114.904 107.824 114.776 107.42C114.776 107.42 115.806 106.088 116.375 105.563C116.587 105.364 116.735 105.282 116.744 105.421C116.754 105.607 116.894 106.019 117.067 106.455C117.072 106.469 117.077 106.482 117.083 106.496C117.198 106.795 117.329 107.102 117.443 107.367C117.618 107.773 117.758 108.076 117.758 108.076Z" fill="#FFB0B1"/>
<path opacity="0.1" d="M117.083 106.496C116.986 107.017 116.751 107.502 116.403 107.901C116.055 108.3 115.606 108.598 115.104 108.764C115.025 108.309 114.915 107.86 114.776 107.42C114.776 107.42 116.715 104.913 116.744 105.421C116.751 105.613 116.903 106.04 117.083 106.496Z" fill="black"/>
<path opacity="0.1" d="M114.911 109.434L115.161 109.08C115.161 109.08 115.328 110.094 115.939 109.647C116.55 109.199 116.58 113.014 116.58 113.014L115.924 122.833L111.184 122.549L111.318 117.804L111.855 115.413L113.181 111.936L113.971 110.787L114.911 109.434Z" fill="black"/>
<path d="M116.58 113.075L115.983 121.953L115.92 122.893L113.277 122.735L113.177 122.729L111.187 122.609L111.321 117.864L111.857 115.472L113.184 111.996L113.974 110.847L114.913 109.488L115.164 109.136C115.164 109.136 115.331 110.15 115.942 109.703L115.955 109.694C116.552 109.315 116.58 113.075 116.58 113.075Z" fill="#1D2366"/>
<path d="M111.924 114.641C111.924 114.641 111.686 115.14 111.208 115.059C110.731 114.978 110.732 116.853 110.732 116.853C110.732 116.853 110.414 117.151 110.195 116.892C109.976 116.633 109.399 117.509 109.399 117.509L105.781 117.669C105.781 117.669 107.391 118.405 107.075 120.633C107.075 120.633 112.54 120.294 112.719 119.777C112.899 119.26 111.924 114.641 111.924 114.641Z" fill="white"/>
<path opacity="0.03" d="M111.924 114.641C111.924 114.641 111.686 115.14 111.208 115.059C110.731 114.978 110.732 116.853 110.732 116.853C110.732 116.853 110.414 117.151 110.195 116.892C109.976 116.633 109.399 117.509 109.399 117.509L105.781 117.669C105.781 117.669 107.391 118.405 107.075 120.633C107.075 120.633 112.54 120.294 112.719 119.777C112.899 119.26 111.924 114.641 111.924 114.641Z" fill="black"/>
<path d="M101.411 118.84L102.365 119.655L110.215 121.306L109.241 120.311L101.411 118.84Z" fill="white"/>
<path d="M114.925 109.747C114.795 109.947 114.421 110.967 114.11 111.858C113.85 112.6 113.633 113.253 113.633 113.253C113.633 113.253 113.126 116.556 112.868 117.152C112.609 117.749 112.749 120.077 112.749 120.077L111.785 125.826C111.785 125.826 111.348 128.791 110.673 130.561C110.007 132.304 109.265 133.121 109.242 133.147C109.541 132.743 111.168 124.777 111.168 124.777L111.706 114.73C111.706 114.73 111.785 113.775 111.864 112.959C111.944 112.143 113.556 111.029 113.556 111.029L115.111 108.816C115.268 109.025 115.163 109.39 114.925 109.747Z" fill="white"/>
<path d="M110.871 122.659C110.871 122.659 108.581 122.559 107.472 121.226C106.363 119.893 110.036 120.694 110.036 120.694L110.99 120.913L110.871 122.659Z" fill="#FFB0B1"/>
<path opacity="0.1" d="M121.563 137.919C121.441 138.353 121.421 138.81 121.506 139.253C119.008 139.43 116.336 138.755 116.336 138.755C115.839 139.213 114.528 139.889 114.528 139.889L113.813 131.02C113.356 129.824 113.177 123.559 113.177 123.559C113.177 123.559 113.218 123.231 113.276 122.74C113.276 122.728 113.276 122.715 113.281 122.703C113.459 121.331 113.813 118.755 113.986 118.407C114.225 117.929 113.251 116.656 113.251 116.656L113.694 112.875L113.748 112.418C114.682 112.001 115.398 110.667 115.398 110.667L115.947 109.704C116.544 109.32 116.575 113.08 116.575 113.08L115.978 121.958L117.957 121.411C117.957 121.411 121.901 136.785 121.563 137.919Z" fill="black"/>
<path d="M124.126 138.531C121.404 139.885 116.455 138.631 116.455 138.631C115.958 139.089 114.647 139.765 114.647 139.765L113.931 130.896C113.475 129.7 113.296 123.435 113.296 123.435C113.296 123.435 113.871 118.761 114.11 118.284C114.18 118.144 114.146 117.937 114.063 117.714C113.657 116.651 113.508 115.508 113.627 114.376L113.819 112.751L113.871 112.296C114.806 111.877 115.522 110.544 115.522 110.544L116.019 109.671L116.935 108.062L117.369 107.301L117.443 107.368L118.005 107.878C118.005 107.878 118.244 108.077 118.603 108.376C119.382 109.034 120.729 110.192 121.424 110.9C122.035 111.524 122.228 113.951 122.284 115.777C122.321 116.98 122.299 117.923 122.299 117.923C121.682 118.938 123.294 127.091 123.294 127.091C123.669 128.666 124.126 138.531 124.126 138.531Z" fill="white"/>
<path opacity="0.03" d="M118.9 110.524C118.9 110.524 117.031 114.084 117.248 115.438C117.465 116.791 118.083 118.322 117.785 118.68C117.683 118.816 117.55 118.926 117.399 119.002C117.247 119.077 117.08 119.117 116.91 119.118C116.611 119.138 115.815 119.695 115.815 119.754C115.815 119.814 115.079 119.814 114.421 120.093C113.763 120.372 112.792 120.531 112.792 120.531C112.792 120.531 110.9 120.471 110.724 120.65C110.548 120.83 110.367 121.903 110.744 122.759C111.121 123.615 111.541 124.254 111.857 124.37C112.174 124.487 114.182 123.813 115.812 123.654C117.441 123.494 119.21 122.202 119.21 122.202C119.21 122.202 121.158 121.504 121.5 120.331C121.841 119.158 121.083 112.712 121.083 112.712C121.083 112.712 120.509 109.708 118.9 110.524Z" fill="black"/>
<path opacity="0.03" d="M118.662 110.225C118.662 110.225 116.793 113.786 117.012 115.139C117.231 116.491 117.846 118.023 117.548 118.382C117.446 118.518 117.314 118.628 117.162 118.704C117.01 118.78 116.843 118.819 116.674 118.82C116.375 118.84 115.579 119.397 115.579 119.456C115.579 119.516 114.843 119.516 114.185 119.794C113.527 120.072 112.556 120.232 112.556 120.232C112.556 120.232 110.664 120.172 110.489 120.351C110.314 120.531 110.131 121.605 110.509 122.46C110.887 123.315 111.305 123.955 111.622 124.071C111.938 124.188 113.947 123.514 115.577 123.356C117.206 123.197 118.975 121.903 118.975 121.903C118.975 121.903 120.922 121.205 121.26 120.033C121.597 118.861 120.843 112.413 120.843 112.413C120.843 112.413 120.271 109.41 118.662 110.225Z" fill="black"/>
<path d="M118.841 110.344C118.841 110.344 116.973 113.906 117.192 115.258C117.411 116.61 118.026 118.143 117.728 118.501C117.626 118.637 117.494 118.747 117.342 118.823C117.191 118.899 117.023 118.939 116.853 118.939C116.555 118.959 115.758 119.516 115.758 119.575C115.758 119.634 115.024 119.635 114.365 119.914C113.706 120.193 112.735 120.351 112.735 120.351C112.735 120.351 110.844 120.291 110.668 120.471C110.491 120.65 110.31 121.724 110.688 122.579C111.065 123.434 111.484 124.074 111.8 124.191C112.117 124.307 114.126 123.634 115.755 123.474C117.385 123.315 119.154 122.022 119.154 122.022C119.154 122.022 121.102 121.325 121.443 120.152C121.785 118.979 121.031 112.533 121.031 112.533C121.031 112.533 120.45 109.533 118.841 110.344Z" fill="white"/>
<path opacity="0.1" d="M118.801 119.897C118.801 119.897 117.308 119.598 117.828 120.096C118.347 120.594 118.344 121.031 118.98 121.011C119.616 120.991 118.801 119.897 118.801 119.897Z" fill="black"/>
<path opacity="0.1" d="M121.324 130.617C121.324 130.617 120.649 131.075 121.94 132.129C123.231 133.183 121.324 130.617 121.324 130.617Z" fill="black"/>
<path opacity="0.1" d="M120.036 134.377C120.036 134.437 119.797 136.569 120.691 137.102C121.585 137.636 120.036 134.377 120.036 134.377Z" fill="black"/>
<path d="M105.843 117.664C105.122 117.689 103.566 117.909 104.373 119.416C105.087 120.751 106.286 119.859 106.961 119.182C106.796 118.551 106.396 118.008 105.843 117.664V117.664Z" fill="#FFB0B1"/>
<path d="M106.97 119.171L107 119.139L106.97 119.171Z" fill="#FFB0B1"/>
<path opacity="0.1" d="M118.602 108.437C117.838 108.96 117.197 109.402 117.071 109.493C116.729 109.748 116.076 111.239 115.655 112.001C115.319 112.613 114.229 112.771 113.818 112.81L113.871 112.354C114.806 111.936 115.522 110.603 115.522 110.603L117.369 107.36L118.005 107.939C118.005 107.939 118.244 108.138 118.602 108.437Z" fill="black"/>
<path d="M118.602 108.377C117.838 108.901 117.197 109.342 117.071 109.435C116.729 109.688 116.076 111.18 115.655 111.941C115.319 112.554 114.229 112.711 113.818 112.75L113.871 112.295C114.806 111.876 115.522 110.543 115.522 110.543L117.369 107.3L118.005 107.877C118.005 107.877 118.244 108.074 118.602 108.377Z" fill="#DCE7FF"/>
<path d="M117.132 105.838C117.132 106.436 116.951 107.021 116.612 107.513C116.212 108.096 115.616 108.516 114.933 108.696C114.251 108.877 113.526 108.807 112.89 108.498C112.255 108.189 111.751 107.663 111.47 107.014C111.189 106.366 111.15 105.637 111.359 104.962C111.569 104.287 112.013 103.709 112.612 103.334C113.21 102.959 113.923 102.811 114.622 102.917C115.32 103.023 115.957 103.376 116.418 103.912C116.878 104.448 117.131 105.131 117.132 105.838V105.838Z" fill="#FFB0B1"/>
<path opacity="0.1" d="M122.284 115.778C121.879 115.529 121.55 115.175 121.331 114.754C121.165 114.425 121.054 114.045 120.771 113.812C120.515 113.603 120.173 113.552 119.855 113.458C118.808 113.149 117.93 112.192 117.897 111.1C117.881 110.586 118.041 110.072 117.969 109.563C117.927 109.275 117.813 109.002 117.636 108.771C117.548 108.66 117.452 108.557 117.348 108.461C117.209 108.329 117.063 108.202 116.935 108.062C116.855 107.976 116.785 107.881 116.726 107.778C116.679 107.695 116.64 107.606 116.612 107.514C116.413 106.904 116.594 106.181 116.375 105.564L116.363 105.53C116.28 105.311 116.112 105.092 115.878 105.075C115.644 105.058 115.444 105.252 115.221 105.339C114.754 105.52 114.251 105.211 113.861 104.897C113.472 104.582 113.033 104.222 112.538 104.292C112.211 104.339 111.952 104.562 111.65 104.677C111.582 104.704 111.512 104.724 111.44 104.738C111.696 104.101 112.165 103.572 112.767 103.244C113.369 102.915 114.067 102.807 114.74 102.937C115.413 103.067 116.02 103.428 116.457 103.958C116.893 104.487 117.132 105.153 117.131 105.839C117.132 106.047 117.11 106.253 117.067 106.456C117.072 106.47 117.077 106.483 117.083 106.497C117.198 106.796 117.328 107.103 117.443 107.368L118.005 107.878C118.005 107.878 118.244 108.077 118.603 108.376C119.382 109.034 120.729 110.192 121.424 110.9C122.035 111.526 122.226 113.952 122.284 115.778Z" fill="black"/>
<path d="M111.616 102.857C111.758 102.567 111.829 102.242 111.999 101.967C112.249 101.568 112.685 101.313 113.133 101.159C114.303 100.755 116.774 100.169 117.513 101.159C117.658 101.358 117.779 101.579 117.98 101.717C118.133 101.821 118.318 101.866 118.486 101.945C118.957 102.166 119.258 102.648 119.418 103.141C119.578 103.633 119.626 104.161 119.744 104.668C119.894 105.319 120.158 105.936 120.421 106.549C120.73 107.272 121.059 108.023 121.656 108.534C122.471 109.231 122.651 110.219 123.408 110.984C124.304 111.893 124.275 113.393 123.813 114.584C123.752 114.74 123.684 114.903 123.707 115.07C123.731 115.236 123.855 115.388 123.971 115.52L124.461 116.073C123.302 116.353 121.991 115.747 121.452 114.684C121.286 114.355 121.175 113.977 120.89 113.743C120.636 113.533 120.293 113.483 119.976 113.39C118.928 113.079 118.05 112.121 118.018 111.029C118.002 110.516 118.162 110.003 118.089 109.494C118.049 109.204 117.934 108.93 117.756 108.697C117.482 108.34 117.069 108.099 116.846 107.701C116.469 107.034 116.755 106.168 116.484 105.453C116.4 105.233 116.233 105.014 115.999 104.997C115.765 104.98 115.565 105.175 115.341 105.261C114.875 105.443 114.371 105.135 113.982 104.819C113.593 104.503 113.154 104.144 112.658 104.215C112.331 104.261 112.073 104.484 111.771 104.601C111.548 104.686 111.096 104.763 110.901 104.575C110.489 104.195 111.444 103.212 111.616 102.857Z" fill="#591D4B"/>
<path opacity="0.1" d="M121.729 114.355C121.561 114.026 121.452 113.648 121.167 113.415C120.912 113.205 120.57 113.155 120.251 113.061C119.205 112.751 118.327 111.793 118.293 110.701C118.277 110.188 118.438 109.674 118.366 109.166C118.324 108.877 118.209 108.605 118.032 108.373C117.758 108.016 117.345 107.775 117.123 107.377C116.745 106.711 117.032 105.845 116.759 105.129C116.677 104.91 116.508 104.691 116.275 104.673C116.043 104.655 115.84 104.852 115.618 104.938C115.152 105.12 114.647 104.811 114.259 104.496C113.871 104.181 113.43 103.821 112.935 103.891C112.607 103.938 112.348 104.161 112.048 104.277C111.825 104.362 111.372 104.44 111.177 104.252C110.767 103.853 111.721 102.872 111.893 102.519C112.035 102.228 112.106 101.904 112.277 101.629C112.286 101.614 112.296 101.599 112.306 101.584C112.178 101.69 112.067 101.816 111.978 101.957C111.808 102.232 111.737 102.555 111.595 102.847C111.423 103.199 110.468 104.184 110.879 104.58C111.078 104.769 111.526 104.691 111.749 104.606C112.048 104.489 112.309 104.266 112.636 104.22C113.134 104.149 113.572 104.509 113.96 104.824C114.348 105.139 114.856 105.448 115.32 105.266C115.543 105.18 115.738 104.984 115.977 105.002C116.216 105.02 116.375 105.238 116.462 105.458C116.733 106.173 116.447 107.039 116.824 107.706C117.047 108.097 117.46 108.342 117.734 108.702C117.912 108.935 118.027 109.209 118.067 109.499C118.14 110.008 117.98 110.521 117.996 111.034C118.028 112.13 118.906 113.084 119.954 113.395C120.269 113.488 120.614 113.538 120.868 113.747C121.154 113.982 121.267 114.36 121.43 114.689C121.969 115.752 123.28 116.358 124.439 116.078L124.208 115.817C123.204 115.832 122.187 115.26 121.729 114.355Z" fill="black"/>
<path opacity="0.1" d="M114.866 109.807C114.735 110.007 114.362 111.027 114.051 111.918C113.759 111.804 113.494 111.08 113.494 111.08L115.049 108.866C115.208 109.085 115.104 109.449 114.866 109.807Z" fill="black"/>
<path d="M114.925 109.748C114.795 109.947 114.422 110.967 114.11 111.858C113.818 111.746 113.554 111.02 113.554 111.02L115.109 108.807C115.268 109.025 115.163 109.39 114.925 109.748Z" fill="#DCE7FF"/>
<path d="M105.885 119.928L105.023 117.206C105.013 117.174 105.009 117.141 105.012 117.108C105.014 117.074 105.024 117.042 105.039 117.012C105.054 116.982 105.076 116.956 105.101 116.934C105.127 116.913 105.156 116.896 105.188 116.886V116.886C105.252 116.866 105.322 116.872 105.381 116.903C105.441 116.934 105.486 116.988 105.507 117.052L106.369 119.77L106.283 120.339L105.885 119.928Z" fill="#BE8B87"/>
<path opacity="0.1" d="M105.105 116.967C105.169 116.947 105.239 116.953 105.298 116.984C105.358 117.015 105.403 117.068 105.424 117.133L106.286 119.851L106.221 120.278L106.284 120.343L106.37 119.774L105.503 117.056C105.482 116.992 105.437 116.938 105.377 116.908C105.318 116.877 105.248 116.87 105.184 116.89V116.89C105.13 116.908 105.084 116.943 105.052 116.99C105.069 116.981 105.086 116.973 105.105 116.967V116.967Z" fill="white"/>
<path d="M105.885 119.928L106.369 119.774L106.298 120.241L106.283 120.343L106.142 120.196L105.885 119.928Z" fill="#EFC8C4"/>
<path d="M106.142 120.196C106.15 120.185 106.161 120.176 106.172 120.17C106.179 120.165 106.188 120.163 106.196 120.163C106.204 120.163 106.212 120.165 106.219 120.17C106.226 120.178 106.232 120.187 106.236 120.197C106.243 120.208 106.252 120.217 106.262 120.224C106.273 120.231 106.285 120.236 106.298 120.238L106.283 120.337L106.142 120.196Z" fill="#727A9C"/>
<path d="M105.018 118.173C105.018 118.173 106.747 118.163 106.34 118.899C105.932 119.636 105.296 119.724 105.296 119.724L105.018 118.173Z" fill="#FFB0B1"/>
<path d="M94.2644 85.124H94.1897C91.2193 85.124 88.5923 86.6975 87.0813 89.0193C85.5702 86.6975 82.9432 85.124 79.9728 85.124H79.8982C77.669 85.1453 75.5382 86.0464 73.969 87.6315C72.3997 89.2166 71.5188 91.3576 71.5176 93.5893C71.5176 96.3606 72.73 100.293 75.0942 103.528C79.5986 109.694 87.0813 115.088 87.0813 115.088C87.0813 115.088 94.564 109.695 99.0673 103.528C101.433 100.293 102.644 96.3606 102.644 93.5893C102.643 91.3578 101.762 89.2169 100.193 87.6318C98.6239 86.0468 96.4934 85.1456 94.2644 85.124V85.124ZM93.1962 104.003C92.858 104.001 92.528 103.898 92.2496 103.705C91.9712 103.513 91.7575 103.241 91.6364 102.924H89.8605C89.7436 102.924 89.6298 102.886 89.535 102.818C89.4403 102.749 89.3693 102.653 89.332 102.542L88.7865 100.897L87.0604 106.934C87.0267 107.051 86.9564 107.153 86.8598 107.226C86.7632 107.298 86.6457 107.338 86.5248 107.338H86.49C86.3639 107.332 86.2436 107.283 86.1494 107.198C86.0552 107.114 85.9927 107 85.9723 106.876L84.1935 96.1652L82.8935 102.503C82.8636 102.623 82.7944 102.73 82.6968 102.807C82.5992 102.883 82.4788 102.925 82.3549 102.924H79.8534C79.7784 102.928 79.7035 102.916 79.6333 102.889C79.5631 102.863 79.499 102.822 79.4448 102.77C79.3906 102.718 79.3475 102.656 79.318 102.587C79.2886 102.517 79.2734 102.443 79.2734 102.368C79.2734 102.293 79.2886 102.218 79.318 102.149C79.3475 102.08 79.3906 102.018 79.4448 101.966C79.499 101.914 79.5631 101.873 79.6333 101.847C79.7035 101.82 79.7784 101.808 79.8534 101.811H81.9169L83.7585 93.2903C83.7887 93.1644 83.8617 93.0528 83.965 92.9747C84.0683 92.8967 84.1955 92.857 84.3248 92.8624C84.4541 92.8678 84.5776 92.918 84.674 93.0044C84.7704 93.0908 84.8339 93.2081 84.8535 93.3362L86.6701 104.262L88.2171 98.8598C88.2493 98.746 88.3174 98.6457 88.4112 98.5739C88.505 98.502 88.6196 98.4625 88.7377 98.4612H88.7486C88.8656 98.4612 88.9796 98.4982 89.0743 98.5669C89.1691 98.6356 89.2397 98.7326 89.2762 98.8438L90.2627 101.814H91.6145C91.7106 101.522 91.8855 101.262 92.1199 101.063C92.3544 100.864 92.6392 100.734 92.9429 100.686C93.2467 100.639 93.5576 100.677 93.8413 100.795C94.1251 100.914 94.3706 101.108 94.5508 101.357C94.731 101.607 94.8389 101.901 94.8626 102.208C94.8863 102.515 94.8248 102.822 94.685 103.096C94.5452 103.37 94.3324 103.6 94.0703 103.761C93.8081 103.922 93.5066 104.007 93.1992 104.007L93.1962 104.003Z" fill="#F52D2D"/>
</g>
<path d="M76.5852 26.9091V40H78.0682V30.054H78.196L82.2869 40H83.7188L87.8097 30.054H87.9375V40H89.4205V26.9091H87.5284L83.0795 37.7756H82.9261L78.4773 26.9091H76.5852ZM96.5108 40.2045C98.5051 40.2045 99.9625 39.2074 100.423 37.7244L98.9654 37.3153C98.5819 38.3381 97.6934 38.8494 96.5108 38.8494C94.7402 38.8494 93.5194 37.7053 93.449 35.6023H100.576V34.9631C100.576 31.3068 98.4029 30.054 96.3574 30.054C93.6983 30.054 91.9341 32.1506 91.9341 35.1676C91.9341 38.1847 93.6728 40.2045 96.5108 40.2045ZM93.449 34.2983C93.5513 32.7706 94.6316 31.4091 96.3574 31.4091C97.9938 31.4091 99.0421 32.6364 99.0421 34.2983H93.449ZM106.578 40.2045C108.47 40.2045 109.11 39.0284 109.442 38.4915H109.621V40H111.078V26.9091H109.57V31.7415H109.442C109.11 31.2301 108.521 30.054 106.604 30.054C104.124 30.054 102.411 32.0227 102.411 35.1165C102.411 38.2358 104.124 40.2045 106.578 40.2045ZM106.783 38.8494C104.891 38.8494 103.919 37.1875 103.919 35.0909C103.919 33.0199 104.865 31.4091 106.783 31.4091C108.624 31.4091 109.595 32.892 109.595 35.0909C109.595 37.3153 108.598 38.8494 106.783 38.8494ZM114.051 40H115.559V30.1818H114.051V40ZM114.818 28.5455C115.406 28.5455 115.892 28.0852 115.892 27.5227C115.892 26.9602 115.406 26.5 114.818 26.5C114.23 26.5 113.744 26.9602 113.744 27.5227C113.744 28.0852 114.23 28.5455 114.818 28.5455ZM122.311 40.2045C124.484 40.2045 125.916 38.875 126.172 37.1364H124.663C124.382 38.2102 123.487 38.8494 122.311 38.8494C120.521 38.8494 119.37 37.3665 119.37 35.0909C119.37 32.8665 120.547 31.4091 122.311 31.4091C123.64 31.4091 124.433 32.2273 124.663 33.1222H126.172C125.916 31.2812 124.356 30.054 122.285 30.054C119.626 30.054 117.862 32.1506 117.862 35.142C117.862 38.0824 119.549 40.2045 122.311 40.2045ZM131.266 40.2301C132.979 40.2301 133.874 39.3097 134.181 38.6705H134.257V40H135.766V33.5312C135.766 30.4119 133.388 30.054 132.135 30.054C130.652 30.054 128.965 30.5653 128.198 32.3551L129.63 32.8665C129.962 32.1506 130.748 31.3835 132.186 31.3835C133.574 31.3835 134.257 32.1186 134.257 33.3778V33.429C134.257 34.1577 133.516 34.0938 131.726 34.3239C129.904 34.5604 127.917 34.9631 127.917 37.2131C127.917 39.1307 129.4 40.2301 131.266 40.2301ZM131.496 38.875C130.294 38.875 129.425 38.3381 129.425 37.2898C129.425 36.1392 130.473 35.7812 131.65 35.6278C132.289 35.5511 134.002 35.3722 134.257 35.0653V36.446C134.257 37.6733 133.286 38.875 131.496 38.875ZM140.028 26.9091H138.519V40H140.028V26.9091ZM155.217 30.1818H156.751C156.681 28.2067 154.859 26.7301 152.328 26.7301C149.822 26.7301 147.853 28.1875 147.853 30.3864C147.853 32.1506 149.132 33.1989 151.177 33.7869L152.788 34.2472C154.169 34.6307 155.396 35.1165 155.396 36.4205C155.396 37.8523 154.015 38.7983 152.2 38.7983C150.64 38.7983 149.26 38.108 149.132 36.625H147.495C147.649 38.7727 149.387 40.2301 152.2 40.2301C155.217 40.2301 156.93 38.5682 156.93 36.446C156.93 33.9915 154.603 33.1989 153.248 32.8409L151.919 32.483C150.947 32.2273 149.387 31.7159 149.387 30.3097C149.387 29.0568 150.538 28.1364 152.277 28.1364C153.862 28.1364 155.064 28.8906 155.217 30.1818ZM163.602 30.1818H161.505V27.8295H159.997V30.1818H158.514V31.4602H159.997V37.5966C159.997 39.3097 161.377 40.1278 162.656 40.1278C163.218 40.1278 163.576 40.0256 163.781 39.9489L163.474 38.5938C163.346 38.6193 163.142 38.6705 162.809 38.6705C162.144 38.6705 161.505 38.4659 161.505 37.1875V31.4602H163.602V30.1818ZM168.76 40.2301C170.473 40.2301 171.368 39.3097 171.675 38.6705H171.752V40H173.26V33.5312C173.26 30.4119 170.882 30.054 169.629 30.054C168.146 30.054 166.459 30.5653 165.692 32.3551L167.124 32.8665C167.456 32.1506 168.242 31.3835 169.681 31.3835C171.068 31.3835 171.752 32.1186 171.752 33.3778V33.429C171.752 34.1577 171.01 34.0938 169.22 34.3239C167.399 34.5604 165.411 34.9631 165.411 37.2131C165.411 39.1307 166.894 40.2301 168.76 40.2301ZM168.99 38.875C167.789 38.875 166.919 38.3381 166.919 37.2898C166.919 36.1392 167.968 35.7812 169.144 35.6278C169.783 35.5511 171.496 35.3722 171.752 35.0653V36.446C171.752 37.6733 170.78 38.875 168.99 38.875ZM180.386 30.1818H178.187V29.1847C178.187 28.2131 178.596 27.7017 179.593 27.7017C180.028 27.7017 180.283 27.804 180.437 27.8551L180.871 26.5511C180.641 26.4489 180.181 26.2955 179.44 26.2955C178.033 26.2955 176.678 27.1392 176.678 28.8267V30.1818H175.093V31.4602H176.678V40H178.187V31.4602H180.386V30.1818ZM186.872 30.1818H184.673V29.1847C184.673 28.2131 185.082 27.7017 186.079 27.7017C186.514 27.7017 186.77 27.804 186.923 27.8551L187.358 26.5511C187.128 26.4489 186.667 26.2955 185.926 26.2955C184.52 26.2955 183.165 27.1392 183.165 28.8267V30.1818H181.579V31.4602H183.165V40H184.673V31.4602H186.872V30.1818Z" fill="#404040"/>
<path d="M162.943 90.5455H160.83L156.466 93.4432V95.5909L160.727 92.7614H160.83V108H162.943V90.5455ZM168.509 108H170.724L178.497 92.5227V90.5455H167.315V92.4205H176.315V92.5568L168.509 108ZM186.894 108.239C190.218 108.239 192.656 105.784 192.656 102.443C192.656 99.0597 190.303 96.5795 187.099 96.5795C185.923 96.5795 184.781 96.9972 184.065 97.5682H183.962L184.576 92.4205H191.871V90.5455H182.803L181.746 99.1364L183.724 99.375C184.448 98.8551 185.684 98.4801 186.758 98.4886C188.982 98.5057 190.61 100.193 190.61 102.477C190.61 104.719 189.042 106.364 186.894 106.364C185.104 106.364 183.681 105.213 183.519 103.636H181.474C181.602 106.295 183.894 108.239 186.894 108.239ZM201.189 104.932H203.098V100.261H207.768V98.3523H203.098V93.6818H201.189V98.3523H196.518V100.261H201.189V104.932Z" fill="#151E28"/>
<path d="M156.605 146.727H155.767V154H156.605V146.727ZM159.745 154.128C160.697 154.128 161.194 153.616 161.365 153.261H161.407V154H162.245V150.406C162.245 148.673 160.924 148.474 160.228 148.474C159.404 148.474 158.467 148.759 158.041 149.753L158.836 150.037C159.021 149.639 159.458 149.213 160.257 149.213C161.027 149.213 161.407 149.621 161.407 150.321V150.349C161.407 150.754 160.995 150.719 160.001 150.847C158.989 150.978 157.884 151.202 157.884 152.452C157.884 153.517 158.708 154.128 159.745 154.128ZM159.873 153.375C159.205 153.375 158.722 153.077 158.722 152.494C158.722 151.855 159.305 151.656 159.958 151.571C160.313 151.528 161.265 151.429 161.407 151.259V152.026C161.407 152.707 160.867 153.375 159.873 153.375ZM167.638 149.767C167.376 148.993 166.786 148.474 165.707 148.474C164.556 148.474 163.704 149.128 163.704 150.051C163.704 150.804 164.151 151.308 165.153 151.543L166.062 151.756C166.612 151.884 166.871 152.146 166.871 152.523C166.871 152.991 166.374 153.375 165.593 153.375C164.908 153.375 164.478 153.08 164.329 152.494L163.533 152.693C163.729 153.62 164.492 154.114 165.607 154.114C166.875 154.114 167.738 153.421 167.738 152.48C167.738 151.72 167.262 151.241 166.289 151.003L165.479 150.804C164.833 150.644 164.542 150.428 164.542 150.009C164.542 149.54 165.039 149.199 165.707 149.199C166.438 149.199 166.74 149.604 166.886 149.98L167.638 149.767ZM171.372 148.545H170.207V147.239H169.369V148.545H168.545V149.256H169.369V152.665C169.369 153.616 170.136 154.071 170.846 154.071C171.159 154.071 171.357 154.014 171.471 153.972L171.301 153.219C171.23 153.233 171.116 153.261 170.931 153.261C170.562 153.261 170.207 153.148 170.207 152.438V149.256H171.372V148.545ZM178.882 151.77C178.882 152.793 178.101 153.261 177.476 153.261C176.78 153.261 176.283 152.75 176.283 151.955V148.545H175.445V152.011C175.445 153.403 176.183 154.071 177.206 154.071C178.03 154.071 178.57 153.631 178.825 153.077H178.882V154H179.72V148.545H178.882V151.77ZM181.255 156.045H182.093V153.162H182.164C182.349 153.46 182.704 154.114 183.755 154.114C185.119 154.114 186.071 153.02 186.071 151.287C186.071 149.568 185.119 148.474 183.741 148.474C182.676 148.474 182.349 149.128 182.164 149.412H182.065V148.545H181.255V156.045ZM182.079 151.273C182.079 150.051 182.619 149.227 183.642 149.227C184.707 149.227 185.233 150.122 185.233 151.273C185.233 152.438 184.693 153.361 183.642 153.361C182.633 153.361 182.079 152.509 182.079 151.273ZM189.409 154.114C190.46 154.114 190.815 153.46 191 153.162H191.099V154H191.909V146.727H191.071V149.412H191C190.815 149.128 190.488 148.474 189.423 148.474C188.045 148.474 187.093 149.568 187.093 151.287C187.093 153.02 188.045 154.114 189.409 154.114ZM189.522 153.361C188.471 153.361 187.931 152.438 187.931 151.273C187.931 150.122 188.457 149.227 189.522 149.227C190.545 149.227 191.085 150.051 191.085 151.273C191.085 152.509 190.531 153.361 189.522 153.361ZM195.165 154.128C196.117 154.128 196.614 153.616 196.784 153.261H196.827V154H197.665V150.406C197.665 148.673 196.344 148.474 195.648 148.474C194.824 148.474 193.887 148.759 193.461 149.753L194.256 150.037C194.441 149.639 194.877 149.213 195.676 149.213C196.447 149.213 196.827 149.621 196.827 150.321V150.349C196.827 150.754 196.415 150.719 195.421 150.847C194.409 150.978 193.304 151.202 193.304 152.452C193.304 153.517 194.128 154.128 195.165 154.128ZM195.293 153.375C194.625 153.375 194.142 153.077 194.142 152.494C194.142 151.855 194.725 151.656 195.378 151.571C195.733 151.528 196.685 151.429 196.827 151.259V152.026C196.827 152.707 196.287 153.375 195.293 153.375ZM201.567 148.545H200.402V147.239H199.564V148.545H198.74V149.256H199.564V152.665C199.564 153.616 200.331 154.071 201.041 154.071C201.354 154.071 201.553 154.014 201.666 153.972L201.496 153.219C201.425 153.233 201.311 153.261 201.127 153.261C200.757 153.261 200.402 153.148 200.402 152.438V149.256H201.567V148.545ZM205.056 154.114C206.164 154.114 206.974 153.56 207.229 152.736L206.42 152.509C206.206 153.077 205.713 153.361 205.056 153.361C204.072 153.361 203.394 152.725 203.355 151.557H207.314V151.202C207.314 149.17 206.107 148.474 204.971 148.474C203.493 148.474 202.513 149.639 202.513 151.315C202.513 152.991 203.479 154.114 205.056 154.114ZM203.355 150.832C203.412 149.984 204.012 149.227 204.971 149.227C205.88 149.227 206.462 149.909 206.462 150.832H203.355ZM210.649 154.114C211.7 154.114 212.055 153.46 212.24 153.162H212.339V154H213.149V146.727H212.311V149.412H212.24C212.055 149.128 211.729 148.474 210.663 148.474C209.285 148.474 208.334 149.568 208.334 151.287C208.334 153.02 209.285 154.114 210.649 154.114ZM210.763 153.361C209.711 153.361 209.172 152.438 209.172 151.273C209.172 150.122 209.697 149.227 210.763 149.227C211.785 149.227 212.325 150.051 212.325 151.273C212.325 152.509 211.771 153.361 210.763 153.361ZM219.871 154.099C221.256 154.099 222.272 153.077 222.272 151.685C222.272 150.275 221.292 149.241 219.956 149.241C219.466 149.241 218.991 149.415 218.692 149.653H218.65L218.905 147.509H221.945V146.727H218.167L217.726 150.307L218.55 150.406C218.852 150.19 219.367 150.033 219.814 150.037C220.741 150.044 221.42 150.747 221.42 151.699C221.42 152.633 220.766 153.318 219.871 153.318C219.126 153.318 218.532 152.839 218.465 152.182H217.613C217.666 153.29 218.621 154.099 219.871 154.099ZM226.509 154H227.347V150.591C227.347 149.792 227.93 149.227 228.583 149.227C229.219 149.227 229.663 149.643 229.663 150.264V154H230.515V150.449C230.515 149.746 230.955 149.227 231.722 149.227C232.319 149.227 232.83 149.543 232.83 150.349V154H233.668V150.349C233.668 149.067 232.979 148.474 232.006 148.474C231.225 148.474 230.653 148.833 230.373 149.398H230.316C230.046 148.815 229.57 148.474 228.853 148.474C228.143 148.474 227.617 148.815 227.39 149.398H227.319V148.545H226.509V154ZM235.201 154H236.039V148.545H235.201V154ZM235.627 147.636C235.953 147.636 236.223 147.381 236.223 147.068C236.223 146.756 235.953 146.5 235.627 146.5C235.3 146.5 235.03 146.756 235.03 147.068C235.03 147.381 235.3 147.636 235.627 147.636ZM238.412 150.719C238.412 149.767 239.001 149.227 239.804 149.227C240.581 149.227 241.054 149.735 241.054 150.591V154H241.892V150.534C241.892 149.142 241.15 148.474 240.045 148.474C239.221 148.474 238.71 148.844 238.454 149.398H238.383V148.545H237.574V154H238.412V150.719ZM247.287 149.767C247.024 148.993 246.435 148.474 245.355 148.474C244.205 148.474 243.352 149.128 243.352 150.051C243.352 150.804 243.8 151.308 244.801 151.543L245.71 151.756C246.261 151.884 246.52 152.146 246.52 152.523C246.52 152.991 246.023 153.375 245.241 153.375C244.556 153.375 244.126 153.08 243.977 152.494L243.182 152.693C243.377 153.62 244.141 154.114 245.256 154.114C246.523 154.114 247.386 153.421 247.386 152.48C247.386 151.72 246.911 151.241 245.938 151.003L245.128 150.804C244.482 150.644 244.19 150.428 244.19 150.009C244.19 149.54 244.688 149.199 245.355 149.199C246.087 149.199 246.388 149.604 246.534 149.98L247.287 149.767ZM253.066 154.128C254.017 154.128 254.514 153.616 254.685 153.261H254.727V154H255.566V150.406C255.566 148.673 254.244 148.474 253.548 148.474C252.725 148.474 251.787 148.759 251.361 149.753L252.156 150.037C252.341 149.639 252.778 149.213 253.577 149.213C254.347 149.213 254.727 149.621 254.727 150.321V150.349C254.727 150.754 254.316 150.719 253.321 150.847C252.309 150.978 251.205 151.202 251.205 152.452C251.205 153.517 252.029 154.128 253.066 154.128ZM253.193 153.375C252.526 153.375 252.043 153.077 252.043 152.494C252.043 151.855 252.625 151.656 253.279 151.571C253.634 151.528 254.585 151.429 254.727 151.259V152.026C254.727 152.707 254.188 153.375 253.193 153.375ZM259.297 156.159C260.604 156.159 261.655 155.562 261.655 154.156V148.545H260.845V149.412H260.76C260.575 149.128 260.234 148.474 259.169 148.474C257.791 148.474 256.839 149.568 256.839 151.244C256.839 152.949 257.834 153.915 259.155 153.915C260.22 153.915 260.561 153.29 260.746 152.991H260.817V154.099C260.817 155.009 260.178 155.42 259.297 155.42C258.306 155.42 257.958 154.898 257.734 154.597L257.067 155.065C257.408 155.637 258.079 156.159 259.297 156.159ZM259.268 153.162C258.217 153.162 257.678 152.366 257.678 151.23C257.678 150.122 258.203 149.227 259.268 149.227C260.291 149.227 260.831 150.051 260.831 151.23C260.831 152.438 260.277 153.162 259.268 153.162ZM265.405 154.114C266.882 154.114 267.876 152.991 267.876 151.301C267.876 149.597 266.882 148.474 265.405 148.474C263.928 148.474 262.933 149.597 262.933 151.301C262.933 152.991 263.928 154.114 265.405 154.114ZM265.405 153.361C264.283 153.361 263.771 152.395 263.771 151.301C263.771 150.207 264.283 149.227 265.405 149.227C266.527 149.227 267.038 150.207 267.038 151.301C267.038 152.395 266.527 153.361 265.405 153.361Z" fill="#808080" fill-opacity="0.9"/>
<defs>
<filter id="filter0_d_165_240" x="0" y="0" width="288" height="181" filterUnits="userSpaceOnUse" color-interpolation-filters="sRGB">
<feFlood flood-opacity="0" result="BackgroundImageFix"/>
<feColorMatrix in="SourceAlpha" type="matrix" values="0 0 0 0 0 0 0 0 0 0 0 0 0 0 0 0 0 0 127 0" result="hardAlpha"/>
<feOffset dy="1"/>
<feGaussianBlur stdDeviation="2.5"/>
<feComposite in2="hardAlpha" operator="out"/>
<feColorMatrix type="matrix" values="0 0 0 0 0 0 0 0 0 0 0 0 0 0 0 0 0 0 0.25 0"/>
<feBlend mode="normal" in2="BackgroundImageFix" result="effect1_dropShadow_165_240"/>
<feBlend mode="normal" in="SourceGraphic" in2="effect1_dropShadow_165_240" result="shape"/>
</filter>
<linearGradient id="paint0_linear_165_240" x1="59.4704" y1="157.216" x2="59.4704" y2="95.8971" gradientUnits="userSpaceOnUse">
<stop stop-color="#808080" stop-opacity="0.25"/>
<stop offset="0.54" stop-color="#808080" stop-opacity="0.12"/>
<stop offset="1" stop-color="#808080" stop-opacity="0.1"/>
</linearGradient>
<linearGradient id="paint1_linear_165_240" x1="22243.7" y1="46345.7" x2="22243.7" y2="14870.3" gradientUnits="userSpaceOnUse">
<stop stop-color="#808080" stop-opacity="0.25"/>
<stop offset="0.54" stop-color="#808080" stop-opacity="0.12"/>
<stop offset="1" stop-color="#808080" stop-opacity="0.1"/>
</linearGradient>
<clipPath id="clip0_165_240">
<rect width="110" height="78" fill="white" transform="translate(24 80)"/>
</clipPath>
</defs>
</svg>
