<svg width="22" height="22" viewBox="0 0 22 22" fill="none" xmlns="http://www.w3.org/2000/svg">
<path d="M4.58301 4.75C4.58301 3.64543 5.47844 2.75 6.58301 2.75H10.7497C10.8877 2.75 10.9997 2.86193 10.9997 3V7.16667C10.9997 8.27124 11.8951 9.16667 12.9997 9.16667H17.1663C17.3044 9.16667 17.4163 9.2786 17.4163 9.41667V17.25C17.4163 18.3546 16.5209 19.25 15.4163 19.25H6.58301C5.47844 19.25 4.58301 18.3546 4.58301 17.25V4.75Z" fill="#7E869E" fill-opacity="0.25"/>
<path d="M11.917 7.25V3.35355C11.917 3.13083 12.1863 3.01929 12.3438 3.17678L16.9902 7.82322C17.1477 7.98071 17.0362 8.25 16.8134 8.25H12.917C12.3647 8.25 11.917 7.80228 11.917 7.25Z" fill="#7E869E" fill-opacity="0.75"/>
<path d="M7.79199 12.375L13.292 12.375" stroke="white" stroke-linecap="round"/>
<path d="M7.79199 15.125L12.3753 15.125" stroke="white" stroke-linecap="round"/>
</svg>
