<svg width="158" height="125" viewBox="0 0 158 125" fill="none" xmlns="http://www.w3.org/2000/svg">
<path d="M158 51.3389H157.733V42.1378C157.733 41.4385 157.624 40.746 157.411 40.0999C157.199 39.4538 156.887 38.8668 156.494 38.3722C156.101 37.8777 155.635 37.4855 155.122 37.2179C154.608 36.9502 154.058 36.8125 153.502 36.8125H138.015C137.46 36.8125 136.91 36.9502 136.396 37.2179C135.883 37.4855 135.416 37.8777 135.024 38.3722C134.631 38.8668 134.319 39.4538 134.106 40.0999C133.894 40.746 133.784 41.4385 133.784 42.1378V92.6155C133.784 93.3149 133.894 94.0074 134.106 94.6535C134.319 95.2996 134.631 95.8866 135.024 96.3811C135.416 96.8756 135.883 97.2679 136.396 97.5355C136.91 97.8031 137.46 97.9409 138.015 97.9409H153.502C154.058 97.9409 154.608 97.8031 155.122 97.5355C155.635 97.2679 156.101 96.8756 156.494 96.3811C156.887 95.8866 157.199 95.2996 157.411 94.6535C157.624 94.0074 157.733 93.3149 157.733 92.6155V57.8884H158V51.3389Z" fill="#3F3D56"/>
<path d="M156.833 42.4503V92.8546C156.833 93.9095 156.5 94.9211 155.907 95.667C155.315 96.4129 154.511 96.832 153.673 96.8321H138.111C137.696 96.832 137.285 96.7291 136.902 96.5291C136.519 96.3292 136.171 96.0362 135.877 95.6669C135.584 95.2975 135.351 94.859 135.193 94.3765C135.034 93.894 134.952 93.3768 134.953 92.8546V42.4503C134.953 41.3959 135.285 40.3847 135.878 39.6391C136.47 38.8935 137.273 38.4746 138.111 38.4746H139.999C139.907 38.7615 139.871 39.0726 139.897 39.3806C139.922 39.6886 140.007 39.9841 140.144 40.2411C140.281 40.4981 140.467 40.7087 140.684 40.8544C140.901 41.0002 141.143 41.0766 141.389 41.0769H150.262C150.508 41.0775 150.75 41.0017 150.968 40.8562C151.185 40.7107 151.371 40.5 151.508 40.2427C151.646 39.9855 151.731 39.6896 151.756 39.3812C151.781 39.0728 151.745 38.7614 151.651 38.4746H153.673C154.511 38.4746 155.314 38.8934 155.907 39.6389C156.499 40.3844 156.832 41.3957 156.833 42.4503Z" fill="#D0CDE1"/>
<path d="M153.887 64.2812H135.797V70.4255H153.887V64.2812Z" fill="#276090"/>
<path d="M154.605 69.3406H137.089C136.975 69.3404 136.865 69.2833 136.784 69.1816C136.704 69.08 136.658 68.9422 136.658 68.7985V63.3771C136.658 63.2334 136.704 63.0956 136.784 62.9939C136.865 62.8923 136.975 62.8351 137.089 62.835H154.605C154.719 62.8351 154.828 62.8923 154.909 62.9939C154.99 63.0956 155.035 63.2334 155.035 63.3771V68.7985C155.035 68.9422 154.99 69.08 154.909 69.1816C154.828 69.2833 154.719 69.3404 154.605 69.3406ZM137.089 63.1964C137.051 63.1964 137.014 63.2155 136.987 63.2494C136.961 63.2832 136.945 63.3292 136.945 63.3771V68.7985C136.945 68.8464 136.961 68.8923 136.987 68.9262C137.014 68.9601 137.051 68.9791 137.089 68.9792H154.605C154.643 68.9791 154.679 68.9601 154.706 68.9262C154.733 68.8923 154.748 68.8464 154.748 68.7985V63.3771C154.748 63.3292 154.733 63.2832 154.706 63.2494C154.679 63.2155 154.643 63.1964 154.605 63.1964H137.089Z" fill="#3F3D56"/>
<path d="M140.104 67.7139H137.807V68.0753H140.104V67.7139Z" fill="#3F3D56"/>
<path d="M143.262 67.7139H140.965V68.0753H143.262V67.7139Z" fill="#3F3D56"/>
<path d="M146.421 67.7139H144.124V68.0753H146.421V67.7139Z" fill="#3F3D56"/>
<path d="M149.58 67.7139H147.282V68.0753H149.58V67.7139Z" fill="#3F3D56"/>
<path d="M152.738 67.7139H150.441V68.0753H152.738V67.7139Z" fill="#3F3D56"/>
<path opacity="0.1" d="M156.833 87.73V92.855C156.833 93.9099 156.5 94.9216 155.907 95.6675C155.315 96.4134 154.511 96.8325 153.673 96.8325H138.111C137.696 96.8325 137.285 96.7295 136.902 96.5296C136.519 96.3297 136.171 96.0367 135.877 95.6673C135.584 95.298 135.351 94.8595 135.193 94.377C135.034 93.8944 134.952 93.3773 134.953 92.855V69.2793L156.833 87.73Z" fill="black"/>
<path d="M82.2448 83.0742H14.3357V124.999H82.2448V83.0742Z" fill="#D0CDE1"/>
<path opacity="0.1" d="M64.9804 124.999H14.6228C14.5467 124.999 14.4738 124.961 14.42 124.893C14.3662 124.826 14.3359 124.734 14.3357 124.638V83.4356C14.3359 83.3399 14.3662 83.2481 14.42 83.1804C14.4738 83.1127 14.5467 83.0745 14.6228 83.0742H15.2603L64.9804 124.999Z" fill="black"/>
<path d="M151.015 88.6768H45.7778V89.0382H151.015V88.6768Z" fill="#3F3D56"/>
<path d="M79.0493 0.780272H48.9726V0H35.3347V0.780272H5.13407C4.8669 0.780272 4.60235 0.846509 4.35551 0.975199C4.10868 1.10389 3.88441 1.29251 3.69549 1.5303C3.50657 1.76809 3.35671 2.05039 3.25447 2.36108C3.15223 2.67176 3.09961 3.00475 3.09961 3.34104V55.1794C3.09961 55.8586 3.31395 56.5099 3.69549 56.9902C4.07702 57.4704 4.5945 57.7402 5.13407 57.7402H79.0493C79.5889 57.7402 80.1063 57.4704 80.4879 56.9902C80.8694 56.5099 81.0837 55.8586 81.0837 55.1794V3.34104C81.0837 3.00475 81.0311 2.67176 80.9289 2.36108C80.8267 2.05039 80.6768 1.76809 80.4879 1.5303C80.299 1.29251 80.0747 1.10389 79.8278 0.975199C79.581 0.846509 79.3165 0.780272 79.0493 0.780272Z" fill="#3F3D56"/>
<path d="M78.3554 5.30469H5.82764V56.8041H78.3554V5.30469Z" fill="#D0CDE1"/>
<path d="M42.0295 3.90195C42.4404 3.90195 42.7734 3.48275 42.7734 2.96563C42.7734 2.44851 42.4404 2.0293 42.0295 2.0293C41.6187 2.0293 41.2856 2.44851 41.2856 2.96563C41.2856 3.48275 41.6187 3.90195 42.0295 3.90195Z" fill="#276090"/>
<path d="M27.4006 24.5243H25.6778C25.5636 24.5242 25.4541 24.467 25.3734 24.3653C25.2926 24.2637 25.2472 24.1259 25.2471 23.9822V21.8136C25.2472 21.6699 25.2926 21.5321 25.3734 21.4304C25.4541 21.3288 25.5636 21.2716 25.6778 21.2715H27.4006C27.5148 21.2716 27.6243 21.3288 27.7051 21.4304C27.7858 21.5321 27.8312 21.6699 27.8314 21.8136V23.9822C27.8312 24.1259 27.7858 24.2637 27.7051 24.3653C27.6243 24.467 27.5148 24.5242 27.4006 24.5243ZM25.6778 21.6329C25.6397 21.633 25.6032 21.652 25.5763 21.6859C25.5494 21.7198 25.5343 21.7657 25.5342 21.8136V23.9822C25.5343 24.0301 25.5494 24.076 25.5763 24.1099C25.6032 24.1438 25.6397 24.1628 25.6778 24.1629H27.4006C27.4387 24.1628 27.4752 24.1438 27.5021 24.1099C27.529 24.076 27.5442 24.0301 27.5442 23.9822V21.8136C27.5442 21.7657 27.529 21.7198 27.5021 21.6859C27.4752 21.652 27.4387 21.633 27.4006 21.6329H25.6778Z" fill="#3F3D56"/>
<path d="M58.1248 24.1621H25.3906V24.5235H58.1248V24.1621Z" fill="#3F3D56"/>
<path d="M57.2636 34.1016H49.6543V36.993H57.2636V34.1016Z" fill="#276090"/>
<path d="M57.8378 36.2704H50.8028C50.6886 36.2702 50.5791 36.2131 50.4984 36.1114C50.4176 36.0098 50.3722 35.872 50.3721 35.7283V33.5597C50.3722 33.416 50.4176 33.2782 50.4984 33.1765C50.5791 33.0749 50.6886 33.0177 50.8028 33.0176H57.8378C57.952 33.0177 58.0614 33.0749 58.1422 33.1765C58.2229 33.2782 58.2684 33.416 58.2685 33.5597V35.7283C58.2684 35.872 58.2229 36.0098 58.1422 36.1114C58.0614 36.2131 57.952 36.2702 57.8378 36.2704ZM50.8028 33.379C50.7647 33.3791 50.7282 33.3981 50.7013 33.432C50.6744 33.4659 50.6593 33.5118 50.6592 33.5597V35.7283C50.6593 35.7762 50.6744 35.8221 50.7013 35.856C50.7282 35.8899 50.7647 35.9089 50.8028 35.909H57.8378C57.8758 35.9089 57.9123 35.8899 57.9392 35.856C57.9661 35.8221 57.9813 35.7762 57.9813 35.7283V33.5597C57.9813 33.5118 57.9661 33.4659 57.9392 33.432C57.9123 33.3981 57.8758 33.3791 57.8378 33.379H50.8028Z" fill="#3F3D56"/>
<path d="M115.41 37.3545H101.053V50.0044H115.41V37.3545Z" fill="#276090"/>
<path d="M116.845 49.0104H103.063C102.91 49.0102 102.764 48.934 102.657 48.7985C102.549 48.663 102.488 48.4792 102.488 48.2876V36.3605C102.488 36.1689 102.549 35.9852 102.657 35.8496C102.764 35.7141 102.91 35.6379 103.063 35.6377H116.845C116.998 35.6379 117.144 35.7141 117.251 35.8496C117.359 35.9851 117.42 36.1689 117.42 36.3605V48.2876C117.42 48.4792 117.359 48.663 117.251 48.7985C117.144 48.934 116.998 49.0102 116.845 49.0104ZM103.063 36.3605V48.2876H116.846L116.845 36.3605H103.063Z" fill="#3F3D56"/>
<path d="M115.266 35.909H114.692C114.692 34.3274 114.193 32.8105 113.304 31.6922C112.416 30.5738 111.211 29.9455 109.954 29.9455C108.697 29.9455 107.492 30.5738 106.604 31.6922C105.715 32.8105 105.216 34.3274 105.216 35.909H104.642C104.642 34.1357 105.202 32.435 106.198 31.181C107.194 29.9271 108.545 29.2227 109.954 29.2227C111.363 29.2227 112.714 29.9271 113.71 31.181C114.706 32.435 115.266 34.1357 115.266 35.909Z" fill="#3F3D56"/>
<path d="M111.39 40.8776C111.39 40.5629 111.325 40.2536 111.201 39.9802C111.077 39.7069 110.899 39.479 110.684 39.3191C110.468 39.1592 110.224 39.0728 109.974 39.0685C109.724 39.0643 109.477 39.1422 109.258 39.2947C109.04 39.4472 108.856 39.6689 108.727 39.938C108.597 40.207 108.525 40.514 108.519 40.8286C108.512 41.1431 108.571 41.4544 108.69 41.7315C108.808 42.0087 108.982 42.2421 109.194 42.4087V44.3483C109.194 44.474 109.214 44.5984 109.252 44.7145C109.29 44.8305 109.346 44.936 109.417 45.0248C109.487 45.1137 109.571 45.1841 109.663 45.2322C109.755 45.2803 109.854 45.3051 109.954 45.305C110.156 45.305 110.349 45.2043 110.492 45.0248C110.634 44.8454 110.714 44.6021 110.714 44.3483V42.4087C110.921 42.2467 111.091 42.0211 111.209 41.7533C111.328 41.4854 111.39 41.184 111.39 40.8776Z" fill="#3F3D56"/>
<path d="M43.1218 101.688H40.8247V102.049H43.1218V101.688Z" fill="#3F3D56"/>
<path d="M46.2803 101.688H43.9832V102.049H46.2803V101.688Z" fill="#3F3D56"/>
<path d="M49.439 101.688H47.1418V102.049H49.439V101.688Z" fill="#3F3D56"/>
<path d="M52.5974 101.688H50.3003V102.049H52.5974V101.688Z" fill="#3F3D56"/>
<path d="M55.7559 101.688H53.4587V102.049H55.7559V101.688Z" fill="#3F3D56"/>
<path d="M85.2598 121.927H17.9251C17.7729 121.927 17.6269 121.851 17.5192 121.715C17.4115 121.58 17.351 121.396 17.3508 121.205V80.0021C17.351 79.8105 17.4115 79.6268 17.5192 79.4912C17.6269 79.3557 17.7729 79.2795 17.9251 79.2793H85.2598C85.4121 79.2795 85.5581 79.3557 85.6658 79.4912C85.7734 79.6267 85.834 79.8105 85.8341 80.0021V121.205C85.834 121.396 85.7734 121.58 85.6658 121.715C85.5581 121.851 85.4121 121.927 85.2598 121.927ZM17.9251 80.0021V121.205H85.2603L85.2598 80.0021H17.9251Z" fill="#3F3D56"/>
<path d="M20.94 86.1471C21.4158 86.1471 21.8015 85.6616 21.8015 85.0628C21.8015 84.464 21.4158 83.9785 20.94 83.9785C20.4643 83.9785 20.0786 84.464 20.0786 85.0628C20.0786 85.6616 20.4643 86.1471 20.94 86.1471Z" fill="#3F3D56"/>
<path d="M23.9549 86.1471C24.4307 86.1471 24.8164 85.6616 24.8164 85.0628C24.8164 84.464 24.4307 83.9785 23.9549 83.9785C23.4792 83.9785 23.0935 84.464 23.0935 85.0628C23.0935 85.6616 23.4792 86.1471 23.9549 86.1471Z" fill="#3F3D56"/>
<path d="M26.9701 86.1471C27.4458 86.1471 27.8315 85.6616 27.8315 85.0628C27.8315 84.464 27.4458 83.9785 26.9701 83.9785C26.4943 83.9785 26.1086 84.464 26.1086 85.0628C26.1086 85.6616 26.4943 86.1471 26.9701 86.1471Z" fill="#3F3D56"/>
<path d="M57.9813 104.219H38.5992C38.485 104.219 38.3755 104.161 38.2947 104.06C38.214 103.958 38.1686 103.82 38.1685 103.677V97.5324C38.1686 97.3886 38.214 97.2508 38.2947 97.1492C38.3755 97.0476 38.485 96.9904 38.5992 96.9902H57.9813C58.0955 96.9904 58.2049 97.0476 58.2857 97.1492C58.3664 97.2508 58.4118 97.3886 58.412 97.5324V103.677C58.4118 103.82 58.3664 103.958 58.2857 104.06C58.2049 104.161 58.0955 104.219 57.9813 104.219ZM38.5992 97.3517C38.5611 97.3517 38.5246 97.3708 38.4977 97.4046C38.4708 97.4385 38.4556 97.4845 38.4556 97.5324V103.677C38.4556 103.725 38.4708 103.77 38.4977 103.804C38.5246 103.838 38.5611 103.857 38.5992 103.857H57.9813C58.0193 103.857 58.0558 103.838 58.0827 103.804C58.1096 103.77 58.1248 103.725 58.1248 103.677V97.5324C58.1248 97.4845 58.1096 97.4385 58.0827 97.4046C58.0558 97.3708 58.0193 97.3517 57.9813 97.3517H38.5992Z" fill="#3F3D56"/>
<path d="M62.8628 104.398C64.2901 104.398 65.4471 102.942 65.4471 101.145C65.4471 99.3489 64.2901 97.8926 62.8628 97.8926C61.4356 97.8926 60.2786 99.3489 60.2786 101.145C60.2786 102.942 61.4356 104.398 62.8628 104.398Z" fill="#276090"/>
<path d="M63.7242 104.037C63.1847 104.037 62.6573 103.836 62.2087 103.458C61.7601 103.081 61.4105 102.545 61.204 101.917C60.9975 101.29 60.9435 100.6 61.0488 99.9336C61.154 99.2676 61.4138 98.6558 61.7953 98.1756C62.1768 97.6954 62.6629 97.3684 63.192 97.2359C63.7212 97.1034 64.2696 97.1714 64.7681 97.4313C65.2665 97.6912 65.6926 98.1312 65.9923 98.6959C66.2921 99.2605 66.452 99.9244 66.452 100.603C66.4512 101.514 66.1636 102.387 65.6522 103.03C65.1408 103.674 64.4474 104.036 63.7242 104.037ZM63.7242 97.5313C63.2415 97.5313 62.7696 97.7115 62.3682 98.0491C61.9668 98.3867 61.654 98.8665 61.4693 99.4278C61.2845 99.9892 61.2362 100.607 61.3304 101.203C61.4246 101.799 61.657 102.346 61.9983 102.776C62.3397 103.205 62.7746 103.498 63.248 103.617C63.7215 103.735 64.2122 103.674 64.6582 103.442C65.1042 103.209 65.4854 102.815 65.7536 102.31C66.0218 101.805 66.1649 101.211 66.1649 100.603C66.1642 99.789 65.9068 99.0081 65.4492 98.4321C64.9917 97.8562 64.3713 97.5323 63.7242 97.5313Z" fill="#3F3D56"/>
<path d="M63.7625 101.886L62.3726 100.136L62.7786 99.6255L63.6858 100.767L66.2173 96.2393L66.6869 96.6554L63.7625 101.886Z" fill="#3F3D56"/>
<path opacity="0.1" d="M62.2755 56.8049H5.82764V9.20703L62.2755 56.8049Z" fill="black"/>
<path d="M83.1201 55.8669H76.0418V55.2249C76.0418 55.2082 76.0391 55.1917 76.0341 55.1762C76.029 55.1608 76.0215 55.1468 76.0121 55.1349C76.0027 55.1231 75.9916 55.1137 75.9793 55.1073C75.9671 55.1009 75.9539 55.0977 75.9406 55.0977H73.5138C73.5005 55.0977 73.4873 55.1009 73.4751 55.1073C73.4628 55.1137 73.4517 55.1231 73.4423 55.1349C73.4329 55.1468 73.4254 55.1608 73.4203 55.1762C73.4153 55.1917 73.4127 55.2082 73.4127 55.2249V55.8669H71.8959V55.2249C71.8959 55.2082 71.8932 55.1917 71.8882 55.1762C71.8831 55.1608 71.8756 55.1468 71.8662 55.1349C71.8569 55.1231 71.8457 55.1137 71.8335 55.1073C71.8212 55.1009 71.808 55.0977 71.7947 55.0977H69.3679C69.3546 55.0977 69.3415 55.1009 69.3292 55.1073C69.3169 55.1137 69.3058 55.1231 69.2964 55.1349C69.287 55.1468 69.2795 55.1608 69.2745 55.1762C69.2694 55.1917 69.2668 55.2082 69.2668 55.2249V55.8669H67.75V55.2249C67.75 55.2082 67.7474 55.1917 67.7423 55.1762C67.7372 55.1608 67.7297 55.1468 67.7204 55.1349C67.711 55.1231 67.6998 55.1137 67.6876 55.1073C67.6753 55.1009 67.6621 55.0977 67.6489 55.0977H65.222C65.2087 55.0977 65.1956 55.1009 65.1833 55.1073C65.171 55.1137 65.1599 55.1231 65.1505 55.1349C65.1411 55.1468 65.1336 55.1608 65.1286 55.1762C65.1235 55.1917 65.1209 55.2082 65.1209 55.2249V55.8669H63.6041V55.2249C63.6041 55.2082 63.6015 55.1917 63.5964 55.1762C63.5913 55.1608 63.5839 55.1468 63.5745 55.1349C63.5651 55.1231 63.5539 55.1137 63.5417 55.1073C63.5294 55.1009 63.5162 55.0977 63.503 55.0977H61.0761C61.0628 55.0977 61.0497 55.1009 61.0374 55.1073C61.0251 55.1137 61.014 55.1231 61.0046 55.1349C60.9952 55.1468 60.9878 55.1608 60.9827 55.1762C60.9776 55.1917 60.975 55.2082 60.975 55.2249V55.8669H59.4582V55.2249C59.4582 55.2082 59.4556 55.1917 59.4505 55.1762C59.4454 55.1608 59.438 55.1468 59.4286 55.1349C59.4192 55.1231 59.408 55.1137 59.3958 55.1073C59.3835 55.1009 59.3703 55.0977 59.3571 55.0977H56.9302C56.9169 55.0977 56.9038 55.1009 56.8915 55.1073C56.8792 55.1137 56.8681 55.1231 56.8587 55.1349C56.8493 55.1468 56.8419 55.1608 56.8368 55.1762C56.8317 55.1917 56.8291 55.2082 56.8291 55.2249V55.8669H55.3123V55.2249C55.3123 55.2082 55.3097 55.1917 55.3046 55.1762C55.2995 55.1608 55.2921 55.1468 55.2827 55.1349C55.2733 55.1231 55.2621 55.1137 55.2499 55.1073C55.2376 55.1009 55.2244 55.0977 55.2112 55.0977H52.7843C52.771 55.0977 52.7579 55.1009 52.7456 55.1073C52.7333 55.1137 52.7222 55.1231 52.7128 55.1349C52.7034 55.1468 52.696 55.1608 52.6909 55.1762C52.6858 55.1917 52.6832 55.2082 52.6832 55.2249V55.8669H51.1664V55.2249C51.1664 55.2082 51.1638 55.1917 51.1587 55.1762C51.1536 55.1608 51.1462 55.1468 51.1368 55.1349C51.1274 55.1231 51.1162 55.1137 51.104 55.1073C51.0917 55.1009 51.0786 55.0977 51.0653 55.0977H32.0548C32.0416 55.0977 32.0284 55.1009 32.0161 55.1073C32.0039 55.1137 31.9927 55.1231 31.9833 55.1349C31.9739 55.1468 31.9665 55.1608 31.9614 55.1762C31.9563 55.1917 31.9537 55.2082 31.9537 55.2249V55.8669H30.4369V55.2249C30.4369 55.2082 30.4343 55.1917 30.4292 55.1762C30.4241 55.1608 30.4167 55.1468 30.4073 55.1349C30.3979 55.1231 30.3868 55.1137 30.3745 55.1073C30.3622 55.1009 30.3491 55.0977 30.3358 55.0977H27.9089C27.8957 55.0977 27.8825 55.1009 27.8702 55.1073C27.858 55.1137 27.8468 55.1231 27.8374 55.1349C27.8281 55.1468 27.8206 55.1608 27.8155 55.1762C27.8104 55.1917 27.8078 55.2082 27.8078 55.2249V55.8669H26.291V55.2249C26.291 55.2082 26.2884 55.1917 26.2833 55.1762C26.2783 55.1608 26.2708 55.1468 26.2614 55.1349C26.252 55.1231 26.2409 55.1137 26.2286 55.1073C26.2163 55.1009 26.2032 55.0977 26.1899 55.0977H23.7631C23.7498 55.0977 23.7366 55.1009 23.7244 55.1073C23.7121 55.1137 23.7009 55.1231 23.6915 55.1349C23.6822 55.1468 23.6747 55.1608 23.6696 55.1762C23.6645 55.1917 23.6619 55.2082 23.6619 55.2249V55.8669H22.1451V55.2249C22.1451 55.2082 22.1425 55.1917 22.1374 55.1762C22.1324 55.1608 22.1249 55.1468 22.1155 55.1349C22.1061 55.1231 22.095 55.1137 22.0827 55.1073C22.0704 55.1009 22.0573 55.0977 22.044 55.0977H19.6172C19.6039 55.0977 19.5907 55.1009 19.5785 55.1073C19.5662 55.1137 19.555 55.1231 19.5457 55.1349C19.5363 55.1468 19.5288 55.1608 19.5237 55.1762C19.5187 55.1917 19.516 55.2082 19.516 55.2249V55.8669H17.9992V55.2249C17.9992 55.2082 17.9966 55.1917 17.9916 55.1762C17.9865 55.1608 17.979 55.1468 17.9696 55.1349C17.9602 55.1231 17.9491 55.1137 17.9368 55.1073C17.9246 55.1009 17.9114 55.0977 17.8981 55.0977H15.4713C15.458 55.0977 15.4448 55.1009 15.4326 55.1073C15.4203 55.1137 15.4091 55.1231 15.3998 55.1349C15.3904 55.1468 15.3829 55.1608 15.3778 55.1762C15.3728 55.1917 15.3701 55.2082 15.3701 55.2249V55.8669H13.8534V55.2249C13.8534 55.2082 13.8507 55.1917 13.8457 55.1762C13.8406 55.1608 13.8331 55.1468 13.8237 55.1349C13.8144 55.1231 13.8032 55.1137 13.7909 55.1073C13.7787 55.1009 13.7655 55.0977 13.7522 55.0977H11.3254C11.3121 55.0977 11.2989 55.1009 11.2867 55.1073C11.2744 55.1137 11.2633 55.1231 11.2539 55.1349C11.2445 55.1468 11.237 55.1608 11.2319 55.1762C11.2269 55.1917 11.2242 55.2082 11.2242 55.2249V55.8669H9.70746V55.2249C9.70746 55.2082 9.70484 55.1917 9.69976 55.1762C9.69468 55.1608 9.68723 55.1468 9.67784 55.1349C9.66845 55.1231 9.6573 55.1137 9.64504 55.1073C9.63277 55.1009 9.61962 55.0977 9.60634 55.0977H7.17947C7.16619 55.0977 7.15305 55.1009 7.14078 55.1073C7.12851 55.1137 7.11736 55.1231 7.10797 55.1349C7.09858 55.1468 7.09113 55.1608 7.08605 55.1762C7.08097 55.1917 7.07836 55.2082 7.07836 55.2249V55.8669H2.42686C2.10816 55.8669 1.79258 55.9459 1.49814 56.0994C1.2037 56.2529 0.936167 56.4779 0.710811 56.7616C0.485456 57.0452 0.306695 57.382 0.184734 57.7526C0.0627723 58.1232 -1.8854e-07 58.5204 0 58.9215V60.3028C1.52309e-06 61.113 0.255689 61.8899 0.710814 62.4628C1.16594 63.0357 1.78322 63.3575 2.42686 63.3575H83.1201C83.4388 63.3575 83.7544 63.2785 84.0488 63.125C84.3433 62.9715 84.6108 62.7464 84.8362 62.4628C85.0615 62.1791 85.2403 61.8424 85.3622 61.4718C85.4842 61.1012 85.547 60.704 85.547 60.3028V58.9215C85.547 58.5204 85.4842 58.1232 85.3622 57.7526C85.2403 57.382 85.0615 57.0452 84.8362 56.7616C84.6108 56.4779 84.3433 56.2529 84.0488 56.0994C83.7544 55.9459 83.4388 55.8669 83.1201 55.8669Z" fill="#3F3D56"/>
<path d="M60.9963 39.3416H23.0936C22.9794 39.3414 22.8699 39.2842 22.7891 39.1826C22.7084 39.081 22.663 38.9432 22.6628 38.7994V18.921C22.663 18.7773 22.7084 18.6395 22.7891 18.5379C22.8699 18.4362 22.9794 18.3791 23.0936 18.3789H60.9963C61.1105 18.3791 61.22 18.4362 61.3007 18.5379C61.3815 18.6395 61.4269 18.7773 61.427 18.921V38.7994C61.4269 38.9432 61.3815 39.081 61.3007 39.1826C61.22 39.2842 61.1105 39.3414 60.9963 39.3416ZM23.0936 18.7403C23.0555 18.7404 23.019 18.7595 22.9921 18.7933C22.9652 18.8272 22.95 18.8731 22.95 18.921V38.7994C22.95 38.8473 22.9652 38.8933 22.9921 38.9271C23.019 38.961 23.0555 38.9801 23.0936 38.9801H60.9963C61.0344 38.9801 61.0709 38.961 61.0978 38.9271C61.1247 38.8933 61.1398 38.8473 61.1399 38.7994V18.921C61.1398 18.8731 61.1247 18.8272 61.0978 18.7933C61.0709 18.7595 61.0344 18.7404 60.9963 18.7403H23.0936Z" fill="#3F3D56"/>
<path d="M27.4006 29.9452H25.6778C25.5636 29.9451 25.4541 29.8879 25.3734 29.7862C25.2926 29.6846 25.2472 29.5468 25.2471 29.4031V27.2345C25.2472 27.0908 25.2926 26.953 25.3734 26.8513C25.4541 26.7497 25.5636 26.6925 25.6778 26.6924H27.4006C27.5148 26.6925 27.6243 26.7497 27.7051 26.8513C27.7858 26.953 27.8312 27.0908 27.8314 27.2345V29.4031C27.8312 29.5468 27.7858 29.6846 27.7051 29.7862C27.6243 29.8879 27.5148 29.9451 27.4006 29.9452ZM25.6778 27.0538C25.6397 27.0539 25.6032 27.0729 25.5763 27.1068C25.5494 27.1407 25.5343 27.1866 25.5342 27.2345V29.4031C25.5343 29.451 25.5494 29.4969 25.5763 29.5308C25.6032 29.5647 25.6397 29.5837 25.6778 29.5838H27.4006C27.4387 29.5837 27.4752 29.5647 27.5021 29.5308C27.529 29.4969 27.5442 29.451 27.5442 29.4031V27.2345C27.5442 27.1866 27.529 27.1407 27.5021 27.1068C27.4752 27.0729 27.4387 27.0539 27.4006 27.0538H25.6778Z" fill="#3F3D56"/>
<path d="M58.1248 29.584H25.3906V29.9454H58.1248V29.584Z" fill="#3F3D56"/>
<path d="M143.262 48.7393H38.0249V49.1007H143.262V48.7393Z" fill="#3F3D56"/>
<path d="M38.0249 51.2689C39.135 51.2689 40.0349 50.1362 40.0349 48.739C40.0349 47.3417 39.135 46.209 38.0249 46.209C36.9148 46.209 36.0149 47.3417 36.0149 48.739C36.0149 50.1362 36.9148 51.2689 38.0249 51.2689Z" fill="#3F3D56"/>
<path d="M143.263 51.089C144.135 51.089 144.842 50.199 144.842 49.1011C144.842 48.0033 144.135 47.1133 143.263 47.1133C142.39 47.1133 141.683 48.0033 141.683 49.1011C141.683 50.199 142.39 51.089 143.263 51.089Z" fill="#3F3D56"/>
<path d="M151.015 91.0265C151.888 91.0265 152.595 90.1365 152.595 89.0386C152.595 87.9408 151.888 87.0508 151.015 87.0508C150.143 87.0508 149.436 87.9408 149.436 89.0386C149.436 90.1365 150.143 91.0265 151.015 91.0265Z" fill="#3F3D56"/>
<path d="M46.2084 91.0265C47.0807 91.0265 47.7877 90.1365 47.7877 89.0386C47.7877 87.9408 47.0807 87.0508 46.2084 87.0508C45.3362 87.0508 44.6292 87.9408 44.6292 89.0386C44.6292 90.1365 45.3362 91.0265 46.2084 91.0265Z" fill="#3F3D56"/>
</svg>
