<svg width="128" height="127" viewBox="0 0 128 127" fill="none" xmlns="http://www.w3.org/2000/svg">
<g clip-path="url(#clip0_385_2900)">
<path d="M108.638 125.938C109.988 121.693 110.94 117.074 110.489 112.502C110.335 110.952 109.999 109.444 109.493 108.035C109.086 106.886 108.56 105.82 107.931 104.868C107.714 104.532 107.415 104.31 107.088 104.239C106.761 104.168 106.425 104.254 106.14 104.481C106.096 104.516 106.052 104.552 106.012 104.591C105.791 104.799 105.617 105.084 105.508 105.416C105.487 105.479 105.47 105.545 105.456 105.611C105.394 105.891 105.377 106.184 105.407 106.473C105.644 108.826 105.593 111.215 105.254 113.546C105.168 114.139 105.062 114.727 104.937 115.31C104.657 114.84 104.359 114.39 104.045 113.962C103.229 112.853 102.289 111.923 101.258 111.206H101.256C101.251 111.202 101.247 111.199 101.242 111.195C99.9921 110.34 98.325 110.695 97.3508 111.277C97.2865 111.313 97.2255 111.354 97.1662 111.393C96.6579 111.743 96.4055 112.145 96.6223 112.409C96.6715 112.466 96.7206 112.525 96.7663 112.584C98.2432 114.416 99.4531 116.601 100.334 119.027V119.029C100.685 119.995 100.98 120.995 101.217 122.021C101.544 123.437 101.815 125.008 102.454 126.163C102.519 126.285 102.59 126.401 102.666 126.511L108.372 126.449C108.385 126.44 108.397 126.434 108.411 126.424L108.638 126.436C108.629 126.381 108.619 126.327 108.609 126.272V126.268C108.604 126.238 108.597 126.206 108.592 126.179C108.587 126.156 108.583 126.136 108.58 126.118C108.59 126.083 108.6 126.052 108.612 126.018C108.621 125.99 108.629 125.965 108.638 125.938Z" fill="#F0F0F0"/>
<path d="M108.609 126.267C108.607 126.284 108.602 126.3 108.594 126.314C108.586 126.328 108.576 126.339 108.564 126.345C108.553 126.352 108.54 126.355 108.527 126.353C108.514 126.351 108.502 126.345 108.492 126.335C108.257 126.107 108 125.924 107.728 125.792C107.726 125.79 107.726 125.792 107.726 125.792C107.382 125.626 107.028 125.5 106.669 125.415C106.665 125.415 106.664 125.412 106.66 125.412C106.515 125.374 106.369 125.34 106.223 125.303C105.515 125.128 104.795 124.917 104.182 124.376C103.932 124.168 103.718 123.892 103.554 123.566C103.389 123.24 103.278 122.87 103.228 122.482C103.138 121.72 103.252 120.954 103.299 120.195C103.302 120.14 103.306 120.084 103.307 120.029C103.311 119.959 103.313 119.89 103.313 119.822C103.33 119.133 103.227 118.448 103.011 117.822C102.734 117.072 102.37 116.386 101.933 115.789C101.708 115.464 101.473 115.151 101.229 114.85H101.227C101.217 114.837 101.208 114.825 101.198 114.814C101.198 114.812 101.196 114.809 101.195 114.807C100.149 113.532 98.9635 112.482 97.6794 111.692C97.6336 111.665 97.5862 111.636 97.5387 111.608C97.4151 111.533 97.2914 111.463 97.166 111.392C97.2253 111.354 97.2863 111.313 97.3507 111.276C98.783 112.089 100.105 113.216 101.263 114.609C101.302 114.655 101.341 114.702 101.378 114.75C101.671 115.114 101.95 115.495 102.215 115.894C102.638 116.506 102.981 117.21 103.23 117.976C103.411 118.596 103.492 119.261 103.465 119.927C103.462 120.054 103.455 120.181 103.446 120.311C103.394 121.077 103.277 121.868 103.407 122.634C103.557 123.507 104.061 124.117 104.648 124.489C105.036 124.722 105.443 124.891 105.861 124.994C106.725 125.237 107.617 125.356 108.373 125.979H108.375C108.387 125.99 108.399 125.999 108.409 126.008C108.41 126.008 108.41 126.008 108.41 126.01C108.465 126.054 108.518 126.102 108.568 126.154C108.571 126.156 108.575 126.16 108.578 126.163C108.583 126.167 108.588 126.173 108.592 126.179C108.599 126.191 108.605 126.205 108.608 126.22C108.611 126.236 108.611 126.252 108.609 126.267Z" fill="white"/>
<path d="M101.333 114.828C101.641 114.315 101.803 113.673 101.791 113.015C101.778 112.357 101.592 111.726 101.265 111.236C101.198 111.137 101.081 111.271 101.147 111.37C101.452 111.826 101.626 112.413 101.637 113.026C101.647 113.639 101.495 114.236 101.206 114.711C101.143 114.814 101.271 114.93 101.333 114.828Z" fill="white"/>
<path d="M103.362 119.815C102.366 119.97 101.363 119.616 100.553 118.823C100.472 118.744 100.386 118.915 100.466 118.994C101.31 119.817 102.354 120.183 103.39 120.018C103.489 120.002 103.46 119.799 103.362 119.815Z" fill="white"/>
<path d="M97.6895 111.667C97.6861 111.676 97.6828 111.683 97.6794 111.692C97.586 111.922 97.4556 112.122 97.2977 112.276C97.1397 112.43 96.9582 112.535 96.7662 112.583C96.7205 112.524 96.6713 112.465 96.6222 112.408C96.6299 112.402 96.6386 112.398 96.6476 112.397C96.8321 112.37 97.0092 112.284 97.1641 112.147C97.3191 112.01 97.4475 111.825 97.5387 111.608C97.5472 111.59 97.5557 111.569 97.5625 111.551C97.5681 111.54 97.5753 111.53 97.5838 111.523C97.5922 111.515 97.6017 111.51 97.6116 111.508C97.6215 111.505 97.6317 111.505 97.6416 111.508C97.6515 111.511 97.6609 111.516 97.6692 111.524C97.6855 111.54 97.6966 111.564 97.7004 111.59C97.7042 111.617 97.7003 111.644 97.6895 111.667Z" fill="white"/>
<path d="M12.4119 1.2373C9.3657 1.24191 6.44526 2.86777 4.29128 5.75817C2.13729 8.64858 0.925676 12.5675 0.922241 16.6551V75.7412C0.925676 79.8288 2.13729 83.7477 4.29128 86.6381C6.44526 89.5285 9.3657 91.1544 12.4119 91.159H114.848C117.894 91.1544 120.815 89.5285 122.969 86.6381C125.123 83.7477 126.334 79.8288 126.338 75.7412V16.6551C126.334 12.5675 125.123 8.64858 122.969 5.75817C120.815 2.86777 117.894 1.24191 114.848 1.2373H12.4119Z" fill="white"/>
<path d="M114.848 92.3966H12.4118C9.12114 92.3916 5.96629 90.6353 3.63943 87.5129C1.31256 84.3905 0.0037039 80.157 0 75.7413V16.6553C0.0037039 12.2395 1.31256 8.0061 3.63943 4.88371C5.96629 1.76131 9.12114 0.00497022 12.4118 0H114.848C118.139 0.00496722 121.294 1.76131 123.621 4.8837C125.947 8.00609 127.256 12.2395 127.26 16.6553V75.7413C127.256 80.157 125.947 84.3905 123.621 87.5129C121.294 90.6353 118.139 92.3916 114.848 92.3966ZM12.4118 2.4749C9.61012 2.47915 6.92408 3.97451 4.94298 6.63293C2.96188 9.29134 1.84751 12.8957 1.84434 16.6553V75.7413C1.84751 79.5009 2.96188 83.1052 4.94298 85.7636C6.92408 88.4221 9.61012 89.9174 12.4118 89.9217H114.848C117.65 89.9174 120.336 88.4221 122.317 85.7636C124.298 83.1052 125.412 79.5009 125.416 75.7413V16.6553C125.412 12.8957 124.298 9.29134 122.317 6.63293C120.336 3.97451 117.65 2.47915 114.848 2.4749H12.4118Z" fill="#E6E6E6"/>
<path d="M63.905 13.4707H15.1897C14.1499 13.4731 13.1533 14.0284 12.4181 15.0149C11.6829 16.0015 11.2691 17.3388 11.2673 18.734V48.2184C11.2669 48.5312 11.2885 48.8433 11.3319 49.1506C11.3473 49.2909 11.3719 49.427 11.3964 49.5631C11.6196 50.6851 12.1122 51.6771 12.7979 52.3855C13.4836 53.0939 14.3243 53.4792 15.1897 53.4817H63.905C63.9849 53.4817 64.0649 53.4776 64.1417 53.4693H64.1971V53.4652C64.2125 53.4659 64.2279 53.4645 64.2432 53.4611C64.2585 53.4611 64.277 53.457 64.2923 53.457C64.2976 53.4576 64.303 53.4562 64.3077 53.4529C64.3415 53.4487 64.3753 53.4446 64.4061 53.4405C64.4614 53.4281 64.5167 53.4199 64.569 53.4075C64.5759 53.4041 64.5832 53.4027 64.5905 53.4034C64.6 53.397 64.6106 53.3942 64.6213 53.3951C64.6225 53.3935 64.6239 53.3924 64.6255 53.3916C64.6271 53.3909 64.6288 53.3907 64.6305 53.391C64.6643 53.3827 64.6981 53.3745 64.7319 53.3621C64.7506 53.3586 64.7691 53.3531 64.7872 53.3456C64.8549 53.325 64.9225 53.3044 64.987 53.2755C65.0178 53.2631 65.0455 53.2549 65.0762 53.2425C65.1161 53.226 65.1592 53.2054 65.1992 53.1847C65.2201 53.177 65.2406 53.1673 65.2606 53.1559C65.263 53.1558 65.2653 53.1551 65.2675 53.1536C65.2696 53.1522 65.2715 53.1502 65.2729 53.1476C65.3618 53.1056 65.449 53.0574 65.5342 53.0033C65.608 52.9579 65.6787 52.9084 65.7494 52.8589C65.777 52.8424 65.8016 52.8218 65.8293 52.8012C65.8361 52.7971 65.8423 52.7915 65.8477 52.7847C65.9184 52.7269 65.9891 52.6692 66.0568 52.6155C66.0598 52.6114 66.0598 52.6073 66.0629 52.6073C66.0633 52.6073 66.0637 52.6072 66.0641 52.607C66.0645 52.6068 66.0648 52.6065 66.0651 52.6061C66.0654 52.6057 66.0656 52.6053 66.0658 52.6048C66.0659 52.6042 66.066 52.6037 66.066 52.6032C66.1383 52.5423 66.2081 52.4762 66.275 52.4052H66.2781C66.2965 52.3845 66.3119 52.368 66.3273 52.3516C66.3488 52.3309 66.3703 52.3062 66.3887 52.2855C66.4256 52.2443 66.4625 52.203 66.4963 52.1618C66.5172 52.1406 66.5367 52.1172 66.5547 52.0917C66.607 52.0298 66.6562 51.9638 66.7054 51.8978C66.7316 51.8642 66.7562 51.8283 66.7791 51.7906C66.8174 51.7414 66.8533 51.689 66.8867 51.6338C66.9175 51.5802 66.9513 51.5266 66.982 51.473C67.0185 51.4166 67.0523 51.3574 67.0835 51.2956C67.1388 51.1966 67.188 51.0976 67.2372 50.9903C67.2771 50.9037 67.3171 50.813 67.354 50.7222C67.3724 50.6769 67.3909 50.6273 67.4093 50.5778C67.4124 50.5778 67.4124 50.5737 67.4124 50.5696C67.4462 50.483 67.4769 50.3963 67.5046 50.3056C67.5169 50.2685 67.5292 50.2355 67.5384 50.1984C67.563 50.1283 67.5814 50.054 67.603 49.9798C67.6368 49.8436 67.6706 49.7034 67.6982 49.5631C67.7228 49.427 67.7474 49.2909 67.7628 49.1507C67.8061 48.8434 67.8278 48.5312 67.8273 48.2184V18.734C67.8256 17.3388 67.4117 16.0015 66.6765 15.0149C65.9414 14.0284 64.9447 13.4731 63.905 13.4707Z" fill="#78B9EB"/>
<path opacity="0.3" d="M67.8273 21.9268H11.2673V22.3392H67.8273V21.9268Z" fill="white"/>
<path opacity="0.3" d="M67.8273 26.4639H11.2673V26.8764H67.8273V26.4639Z" fill="white"/>
<path opacity="0.3" d="M67.8273 31.001H11.2673V31.4135H67.8273V31.001Z" fill="white"/>
<path opacity="0.3" d="M67.8273 35.5381H11.2673V35.9506H67.8273V35.5381Z" fill="white"/>
<path opacity="0.3" d="M67.8273 40.0762H11.2673V40.4887H67.8273V40.0762Z" fill="white"/>
<path opacity="0.3" d="M67.8273 44.6133H11.2673V45.0258H67.8273V44.6133Z" fill="white"/>
<path opacity="0.3" d="M67.7627 49.1504C67.7473 49.2906 67.7227 49.4267 67.6982 49.5629H11.3103C11.2918 49.4265 11.2795 49.2888 11.2734 49.1504H67.7627Z" fill="white"/>
<g opacity="0.1">
<path opacity="0.1" d="M67.8273 41.8334V48.2187C67.8278 48.5315 67.8061 48.8436 67.7628 49.1509C67.7474 49.2911 67.7228 49.4273 67.6982 49.5634C67.6706 49.7036 67.6367 49.8439 67.6029 49.98C67.5814 50.0542 67.563 50.1285 67.5384 50.1986C67.5292 50.2357 67.5169 50.2687 67.5046 50.3059C67.4769 50.3966 67.4462 50.4832 67.4124 50.5699C67.4124 50.574 67.4124 50.5781 67.4093 50.5781C67.3908 50.6276 67.3724 50.6771 67.354 50.7225C67.3171 50.8132 67.2771 50.904 67.2371 50.9906C67.188 51.0978 67.1388 51.1968 67.0835 51.2958C67.0523 51.3577 67.0185 51.4169 66.982 51.4732C66.9513 51.5268 66.9174 51.5805 66.8867 51.6341C66.8533 51.6892 66.8174 51.7416 66.7791 51.7908C66.7562 51.8286 66.7316 51.8644 66.7054 51.898C66.6562 51.9641 66.607 52.03 66.5547 52.0919C66.5367 52.1174 66.5172 52.1409 66.4963 52.162C66.4625 52.2033 66.4256 52.2445 66.3887 52.2858C66.3703 52.3064 66.3488 52.3311 66.3273 52.3518C66.3119 52.3683 66.2965 52.3848 66.2781 52.4054H66.275C66.2081 52.4765 66.1383 52.5425 66.066 52.6034C66.066 52.6039 66.0659 52.6045 66.0658 52.605C66.0656 52.6055 66.0654 52.606 66.0651 52.6064C66.0648 52.6067 66.0645 52.607 66.0641 52.6072C66.0637 52.6074 66.0633 52.6075 66.0629 52.6075C66.0598 52.6075 66.0598 52.6117 66.0568 52.6158C66.0137 52.657 65.9676 52.6941 65.9215 52.7313C65.8969 52.7519 65.8723 52.7684 65.8477 52.7849C65.8423 52.7918 65.8361 52.7974 65.8293 52.8014C65.8016 52.822 65.777 52.8427 65.7494 52.8591C65.6787 52.9086 65.608 52.9581 65.5342 53.0035C65.449 53.0576 65.3618 53.1058 65.2729 53.1479C65.2715 53.1504 65.2696 53.1524 65.2675 53.1539C65.2653 53.1553 65.263 53.1561 65.2606 53.1561C65.2406 53.1676 65.2201 53.1772 65.1991 53.185C65.1592 53.2056 65.1161 53.2262 65.0762 53.2427C65.0455 53.2551 65.0178 53.2633 64.987 53.2757C64.9225 53.3046 64.8549 53.3252 64.7872 53.3458C64.7691 53.3533 64.7506 53.3588 64.7319 53.3623C64.6981 53.3747 64.6643 53.383 64.6305 53.3912C64.6288 53.3909 64.6271 53.3912 64.6255 53.3919C64.6239 53.3926 64.6225 53.3938 64.6213 53.3953C64.6106 53.3944 64.6 53.3973 64.5905 53.4036C64.5832 53.4029 64.5759 53.4043 64.569 53.4077C64.5167 53.4201 64.4614 53.4284 64.4061 53.4407C64.3753 53.4448 64.3415 53.449 64.3077 53.4531C64.303 53.4564 64.2976 53.4579 64.2923 53.4572C64.2585 53.4614 64.2278 53.4655 64.1971 53.4696H64.1909C64.1571 53.4737 64.1233 53.4737 64.0895 53.4778C64.028 53.482 63.9665 53.482 63.905 53.482H15.1897C14.3243 53.4794 13.4836 53.0941 12.7979 52.3857C12.1122 51.6773 11.6196 50.6854 11.3964 49.5634H11.3104C11.2918 49.427 11.2795 49.2893 11.2735 49.1509C11.2704 49.0725 11.2673 48.99 11.2673 48.9116V41.7179C11.9125 41.7435 12.5523 41.8835 13.1701 42.1345C14.8423 42.8192 16.4684 43.9783 18.2144 43.9783C18.3527 43.9783 18.4972 43.9701 18.6386 43.9536C20.4768 43.7473 21.9061 42.217 23.0957 40.4887C23.191 40.3526 23.2863 40.2165 23.3755 40.0762C23.5999 39.7421 23.815 39.3998 24.0241 39.0615C24.6919 37.9298 25.4403 36.8882 26.2588 35.9514C26.391 35.807 26.5232 35.6709 26.6584 35.5389C27.4521 34.7446 28.3867 34.2427 29.3696 34.0828C29.4956 34.0663 29.6217 34.054 29.7477 34.0498C31.0634 33.9962 32.2991 34.6314 33.4241 35.5389C33.587 35.6709 33.7499 35.807 33.9067 35.9514C34.4446 36.4408 34.9628 36.9681 35.459 37.5312C36.2251 38.4343 37.0254 39.2837 37.8567 40.0762C37.9182 40.134 37.9797 40.1917 38.0411 40.2412C38.1364 40.3279 38.2348 40.4104 38.3331 40.4887C39.1752 41.2151 40.1222 41.6944 41.112 41.8953C41.1458 41.9035 41.1827 41.9118 41.2195 41.9159C42.8211 42.1675 44.3119 41.5323 45.6736 40.4887C45.8427 40.3567 46.0148 40.2206 46.1809 40.0762C47.2446 39.1275 48.2416 38.0506 49.1595 36.8589C49.3992 36.5577 49.6421 36.2525 49.8941 35.9514C50.0079 35.8153 50.1216 35.675 50.2384 35.5389C52.0643 33.3857 54.1699 31.4141 56.6567 31.4141C56.7613 31.4141 56.8688 31.4182 56.9764 31.4264C58.7654 31.5419 60.3362 32.7051 61.6549 34.1818C62.038 34.6083 62.4043 35.0613 62.7523 35.5389C62.7677 35.5595 62.78 35.576 62.7953 35.5967C62.8814 35.7121 62.9675 35.8317 63.0474 35.9514C64.0311 37.3332 64.9378 38.8099 66.0076 40.0762C66.1244 40.2206 66.2443 40.3567 66.3672 40.4887C66.7361 40.8997 67.1265 41.2746 67.5353 41.6107C67.6306 41.689 67.729 41.7633 67.8273 41.8334Z" fill="black"/>
</g>
<g opacity="0.1">
<path opacity="0.1" d="M67.8273 35.6002V48.2181C67.8278 48.5309 67.8061 48.843 67.7628 49.1503C67.7474 49.2905 67.7228 49.4267 67.6982 49.5628C67.6706 49.703 67.6367 49.8433 67.6029 49.9794C67.5814 50.0536 67.563 50.1279 67.5384 50.198C67.5292 50.2351 67.5169 50.2681 67.5046 50.3053C67.4769 50.396 67.4462 50.4826 67.4124 50.5693C67.4124 50.5734 67.4124 50.5775 67.4093 50.5775C67.3908 50.627 67.3724 50.6765 67.354 50.7219C67.3171 50.8126 67.2771 50.9034 67.2371 50.99C67.188 51.0972 67.1388 51.1962 67.0835 51.2952C67.0523 51.357 67.0185 51.4163 66.982 51.4726C66.9513 51.5262 66.9174 51.5798 66.8867 51.6334C66.8533 51.6886 66.8174 51.741 66.7791 51.7902C66.7562 51.828 66.7316 51.8638 66.7054 51.8974C66.6562 51.9635 66.607 52.0294 66.5547 52.0913C66.5367 52.1168 66.5172 52.1403 66.4963 52.1614C66.4625 52.2027 66.4256 52.2439 66.3887 52.2852C66.3703 52.3058 66.3488 52.3305 66.3273 52.3512C66.3119 52.3677 66.2965 52.3842 66.2781 52.4048H66.275C66.2081 52.4759 66.1383 52.5419 66.066 52.6028C66.066 52.6033 66.0659 52.6039 66.0658 52.6044C66.0656 52.6049 66.0654 52.6054 66.0651 52.6057C66.0648 52.6061 66.0645 52.6064 66.0641 52.6066C66.0637 52.6068 66.0633 52.6069 66.0629 52.6069C66.0598 52.6069 66.0598 52.6111 66.0568 52.6152C66.0137 52.6564 65.9676 52.6935 65.9215 52.7307C65.8969 52.7513 65.8723 52.7678 65.8477 52.7843C65.8423 52.7912 65.8361 52.7968 65.8293 52.8008C65.8016 52.8214 65.777 52.8421 65.7494 52.8585C65.6787 52.908 65.608 52.9575 65.5342 53.0029C65.449 53.057 65.3618 53.1052 65.2729 53.1473C65.2715 53.1498 65.2696 53.1518 65.2675 53.1533C65.2653 53.1547 65.263 53.1555 65.2606 53.1555C65.2406 53.167 65.2201 53.1766 65.1991 53.1844C65.1592 53.205 65.1161 53.2256 65.0762 53.2421C65.0455 53.2545 65.0178 53.2628 64.987 53.2751C64.9225 53.304 64.8549 53.3246 64.7872 53.3453C64.7691 53.3527 64.7506 53.3582 64.7319 53.3617C64.6981 53.3741 64.6643 53.3824 64.6305 53.3906C64.6288 53.3903 64.6271 53.3906 64.6255 53.3913C64.6239 53.392 64.6225 53.3932 64.6213 53.3947C64.6106 53.3938 64.6 53.3967 64.5905 53.403C64.5832 53.4023 64.5759 53.4037 64.569 53.4071C64.5167 53.4195 64.4614 53.4277 64.4061 53.4401C64.3753 53.4442 64.3415 53.4484 64.3077 53.4525C64.303 53.4558 64.2976 53.4573 64.2923 53.4566C64.277 53.4566 64.2585 53.4608 64.2432 53.4608C64.2279 53.4642 64.2125 53.4655 64.1971 53.4648C64.1839 53.4684 64.1705 53.4698 64.1571 53.469H64.1417C64.1264 53.4731 64.1079 53.4731 64.0895 53.4772C64.028 53.4814 63.9665 53.4814 63.905 53.4814H15.1897C14.3243 53.4788 13.4836 53.0935 12.7979 52.3851C12.1122 51.6767 11.6196 50.6847 11.3964 49.5628C11.3719 49.4266 11.3473 49.2905 11.3319 49.1503C11.2885 48.843 11.2669 48.5308 11.2673 48.218V40.8717C11.3749 40.748 11.4794 40.6201 11.584 40.4881C11.6915 40.352 11.796 40.2159 11.9006 40.0756C12.8162 38.7968 13.6501 37.417 14.3935 35.9508C14.4181 35.9054 14.4427 35.8642 14.4642 35.8188C14.5134 35.7239 14.5626 35.6332 14.6148 35.5383C15.3603 34.0742 16.1941 32.6946 17.1078 31.4135C17.2123 31.2732 17.3168 31.1371 17.4244 31.001C18.5679 29.5573 19.8712 28.4807 21.4082 28.2249C23.5261 27.8702 25.4965 29.186 27.2394 31.001C27.3685 31.1371 27.4945 31.2732 27.6206 31.4135C28.2169 32.0652 28.7825 32.7747 29.3173 33.48C29.4588 33.6697 29.6032 33.8595 29.7477 34.0493C30.1197 34.5483 30.5008 35.0475 30.8851 35.5383C30.9957 35.6785 31.1033 35.8147 31.214 35.9508C32.7509 37.8606 34.4139 39.5394 36.3904 40.0756C36.5257 40.1128 36.664 40.1458 36.8023 40.1705C37.5491 40.3039 38.3072 40.2719 39.0463 40.0756C39.1693 40.0468 39.2891 40.0096 39.4121 39.9684C41.2626 39.3538 42.9778 37.807 44.5302 35.9508C44.6408 35.8147 44.7545 35.6785 44.8652 35.5383C45.6583 34.5525 46.4114 33.4965 47.1153 32.457C47.3489 32.1106 47.5887 31.7599 47.8285 31.4135C47.9268 31.2773 48.0221 31.1412 48.1174 31.001C49.1462 29.4965 50.2714 28.1163 51.4803 26.8761C51.6247 26.7317 51.7692 26.5956 51.9137 26.4636C53.5398 24.9746 55.3165 24.0176 57.2685 24.1702C58.8792 24.294 60.3516 25.1849 61.6764 26.4636C61.8117 26.5956 61.9469 26.7317 62.0822 26.8761C63.0904 27.963 64.0105 29.1893 64.8272 30.5349C64.9225 30.6875 65.0178 30.8442 65.1131 31.001C65.1623 31.0794 65.2084 31.1619 65.2576 31.2402L65.359 31.4135C66.1736 32.7788 66.9574 34.1977 67.7905 35.5383L67.8273 35.6002Z" fill="black"/>
</g>
<g opacity="0.1">
<path opacity="0.1" d="M67.8273 30.3903V48.2179C67.8278 48.5306 67.8061 48.8428 67.7628 49.1501C67.7474 49.2903 67.7228 49.4264 67.6982 49.5626C67.6706 49.7028 67.6367 49.8431 67.6029 49.9792C67.5814 50.0534 67.563 50.1277 67.5384 50.1978C67.5292 50.2349 67.5169 50.2679 67.5046 50.305C67.4769 50.3958 67.4462 50.4824 67.4124 50.569C67.4124 50.5732 67.4124 50.5773 67.4093 50.5773C67.3908 50.6268 67.3724 50.6763 67.354 50.7217C67.3171 50.8124 67.2771 50.9031 67.2371 50.9898C67.188 51.097 67.1388 51.196 67.0835 51.295C67.0523 51.3568 67.0185 51.4161 66.982 51.4724C66.9513 51.526 66.9174 51.5796 66.8867 51.6332C66.8533 51.6884 66.8174 51.7408 66.7791 51.79C66.7562 51.8278 66.7316 51.8636 66.7054 51.8972C66.6562 51.9632 66.607 52.0292 66.5547 52.0911C66.5367 52.1166 66.5172 52.1401 66.4963 52.1612C66.4625 52.2025 66.4256 52.2437 66.3887 52.285C66.3703 52.3056 66.3488 52.3303 66.3273 52.351C66.3119 52.3675 66.2965 52.384 66.2781 52.4046H66.275C66.2081 52.4756 66.1383 52.5417 66.066 52.6026C66.066 52.6031 66.0659 52.6037 66.0658 52.6042C66.0656 52.6047 66.0654 52.6051 66.0651 52.6055C66.0648 52.6059 66.0645 52.6062 66.0641 52.6064C66.0637 52.6066 66.0633 52.6067 66.0629 52.6067C66.0598 52.6067 66.0598 52.6108 66.0568 52.6149C66.0137 52.6562 65.9676 52.6933 65.9215 52.7305C65.8969 52.7511 65.8723 52.7676 65.8477 52.7841C65.8423 52.791 65.8361 52.7965 65.8293 52.8006C65.8016 52.8212 65.777 52.8418 65.7494 52.8583C65.6787 52.9078 65.608 52.9573 65.5342 53.0027C65.449 53.0568 65.3618 53.105 65.2729 53.1471C65.2715 53.1496 65.2696 53.1516 65.2675 53.153C65.2653 53.1545 65.263 53.1552 65.2606 53.1553C65.2406 53.1668 65.2201 53.1764 65.1991 53.1842C65.1592 53.2048 65.1161 53.2254 65.0762 53.2419C65.0455 53.2543 65.0178 53.2625 64.987 53.2749C64.9225 53.3038 64.8549 53.3244 64.7872 53.345C64.7691 53.3525 64.7506 53.358 64.7319 53.3615C64.6981 53.3739 64.6643 53.3822 64.6305 53.3904C64.6288 53.3901 64.6271 53.3904 64.6255 53.3911C64.6239 53.3918 64.6225 53.393 64.6213 53.3945C64.6106 53.3936 64.6 53.3965 64.5905 53.4028C64.5832 53.4021 64.5759 53.4035 64.569 53.4069C64.5167 53.4193 64.4614 53.4275 64.4061 53.4399C64.3753 53.444 64.3415 53.4481 64.3077 53.4523C64.303 53.4556 64.2976 53.457 64.2923 53.4564C64.277 53.4564 64.2585 53.4605 64.2432 53.4605C64.2279 53.4639 64.2125 53.4653 64.1971 53.4646C64.1954 53.4669 64.1932 53.4683 64.1909 53.4688H64.1417C64.0649 53.477 63.9849 53.4811 63.905 53.4811H15.1897C14.3243 53.4786 13.4836 53.0933 12.7979 52.3849C12.1122 51.6765 11.6196 50.6845 11.3964 49.5625C11.3719 49.4264 11.3473 49.2903 11.3319 49.1501C11.2885 48.8427 11.2669 48.5306 11.2673 48.2178V37.5675C11.5778 37.0272 11.8893 36.4882 12.2018 35.9506C12.2817 35.8103 12.3617 35.6742 12.4416 35.5381C12.8627 34.8121 13.2869 34.0944 13.7234 33.3932C14.1414 32.7208 14.581 32.0567 15.039 31.4132C15.1374 31.2771 15.2358 31.1369 15.3372 31.0008C16.5033 29.3705 17.8427 27.9805 19.3118 26.8759C19.5116 26.7274 19.7145 26.5913 19.9204 26.4634C21.011 25.7647 22.191 25.3517 23.397 25.2466C24.979 25.1406 26.5562 25.5585 27.9894 26.4634C28.2046 26.5872 28.4167 26.7274 28.6257 26.8759C30.1289 27.9154 31.5398 29.3714 32.8616 31.0008C32.9753 31.1328 33.0829 31.273 33.1936 31.4132C34.2418 32.7332 35.2346 34.148 36.1814 35.5381C36.2521 35.6412 36.3228 35.7485 36.3935 35.8516C36.415 35.8846 36.4396 35.9176 36.4611 35.9506C37.3833 37.3118 38.367 38.6895 39.4121 39.9682C39.4398 40.0053 39.4705 40.0383 39.5012 40.0754C39.615 40.2157 39.7287 40.3518 39.8455 40.4879C40.2574 40.9788 40.6816 41.449 41.112 41.8945C42.1319 42.9724 43.2431 43.8848 44.4226 44.6128C44.6715 44.7654 44.9236 44.9015 45.1787 45.0252C46.5842 45.7455 48.1009 45.9865 49.5929 45.7265C50.2782 45.5992 50.9498 45.3638 51.594 45.0252C51.8399 44.9015 52.0797 44.7613 52.3164 44.6128C53.8748 43.6228 55.2827 42.1255 56.6168 40.4879C56.7274 40.3518 56.8381 40.2157 56.9488 40.0754C57.708 39.1185 58.4457 38.1244 59.1743 37.1633C59.4817 36.759 59.7952 36.3507 60.118 35.9506C60.2286 35.8145 60.3424 35.6783 60.4561 35.5381C60.8434 35.072 61.243 34.6141 61.6549 34.181C62.6618 33.0753 63.769 32.1453 64.9502 31.4132C65.0516 31.3514 65.1561 31.2936 65.2575 31.24C65.4143 31.1534 65.5711 31.075 65.7279 31.0008C66.4048 30.6753 67.1107 30.47 67.8273 30.3903Z" fill="black"/>
</g>
<path d="M23.4094 27.7015C23.9187 27.7015 24.3315 27.1474 24.3315 26.464C24.3315 25.7806 23.9187 25.2266 23.4094 25.2266C22.9001 25.2266 22.4872 25.7806 22.4872 26.464C22.4872 27.1474 22.9001 27.7015 23.4094 27.7015Z" fill="white"/>
<path d="M37.5492 41.3128C38.0585 41.3128 38.4714 40.7588 38.4714 40.0753C38.4714 39.3919 38.0585 38.8379 37.5492 38.8379C37.0399 38.8379 36.6271 39.3919 36.6271 40.0753C36.6271 40.7588 37.0399 41.3128 37.5492 41.3128Z" fill="white"/>
<path d="M56.6075 32.2386C57.1168 32.2386 57.5297 31.6846 57.5297 31.0011C57.5297 30.3177 57.1168 29.7637 56.6075 29.7637C56.0982 29.7637 55.6853 30.3177 55.6853 31.0011C55.6853 31.6846 56.0982 32.2386 56.6075 32.2386Z" fill="white"/>
<path d="M98.5543 41.5596H76.8097C76.7066 41.5594 76.6044 41.5864 76.5091 41.6393C76.4137 41.6921 76.3271 41.7696 76.2541 41.8674C76.1812 41.9652 76.1233 42.0813 76.0838 42.2091C76.0443 42.337 76.0239 42.474 76.0239 42.6124C76.0239 42.7508 76.0443 42.8878 76.0838 43.0157C76.1233 43.1435 76.1812 43.2596 76.2541 43.3574C76.3271 43.4552 76.4137 43.5327 76.5091 43.5856C76.6044 43.6384 76.7066 43.6655 76.8097 43.6653H98.5543C98.7624 43.6653 98.9619 43.5543 99.1091 43.3569C99.2562 43.1594 99.3389 42.8916 99.3389 42.6124C99.3389 42.3332 99.2562 42.0654 99.1091 41.8679C98.9619 41.6705 98.7624 41.5596 98.5543 41.5596Z" fill="#E6E6E6"/>
<path d="M98.5543 57.502H76.8097C76.6017 57.502 76.4021 57.6129 76.2549 57.8103C76.1078 58.0078 76.0251 58.2756 76.0251 58.5548C76.0251 58.834 76.1078 59.1018 76.2549 59.2993C76.4021 59.4967 76.6017 59.6077 76.8097 59.6077H98.5543C98.7624 59.6077 98.962 59.4967 99.1091 59.2993C99.2562 59.1018 99.3389 58.834 99.3389 58.5548C99.3389 58.2756 99.2562 58.0078 99.1091 57.8103C98.962 57.6129 98.7624 57.502 98.5543 57.502Z" fill="#E6E6E6"/>
<path d="M98.5543 73.4453H76.8097C76.6017 73.4453 76.4021 73.5562 76.2549 73.7537C76.1078 73.9511 76.0251 74.2189 76.0251 74.4982C76.0251 74.7774 76.1078 75.0452 76.2549 75.2426C76.4021 75.4401 76.6017 75.551 76.8097 75.551H98.5543C98.7624 75.551 98.962 75.4401 99.1091 75.2426C99.2562 75.0452 99.3389 74.7774 99.3389 74.4982C99.3389 74.2189 99.2562 73.9511 99.1091 73.7537C98.962 73.5562 98.7624 73.4453 98.5543 73.4453Z" fill="#E6E6E6"/>
<path d="M111.73 45.3201C112.812 45.3201 113.689 44.1429 113.689 42.6908C113.689 41.2387 112.812 40.0615 111.73 40.0615C110.648 40.0615 109.77 41.2387 109.77 42.6908C109.77 44.1429 110.648 45.3201 111.73 45.3201Z" fill="#F2F2F2"/>
<path d="M111.463 44.0591C111.429 44.0591 111.395 44.0486 111.365 44.0283C111.335 44.0079 111.309 43.9785 111.288 43.9421L110.754 42.9857C110.736 42.955 110.724 42.92 110.717 42.8828C110.71 42.8456 110.708 42.8068 110.712 42.7688C110.716 42.7307 110.726 42.6941 110.74 42.661C110.755 42.6279 110.774 42.599 110.797 42.576C110.82 42.5529 110.846 42.5361 110.874 42.5266C110.902 42.5171 110.931 42.515 110.959 42.5204C110.987 42.5259 111.015 42.5388 111.039 42.5584C111.064 42.578 111.085 42.604 111.102 42.6348L111.452 43.2604L112.35 41.4525C112.382 41.388 112.432 41.3432 112.489 41.3279C112.546 41.3127 112.605 41.3284 112.653 41.3714C112.701 41.4144 112.734 41.4813 112.745 41.5574C112.757 41.6334 112.745 41.7124 112.713 41.777L111.644 43.9289C111.625 43.9678 111.599 43.9999 111.568 44.0226C111.538 44.0452 111.504 44.0577 111.469 44.059L111.463 44.0591Z" fill="white"/>
<path d="M111.73 61.2634C112.812 61.2634 113.689 60.0863 113.689 58.6342C113.689 57.182 112.812 56.0049 111.73 56.0049C110.648 56.0049 109.77 57.182 109.77 58.6342C109.77 60.0863 110.648 61.2634 111.73 61.2634Z" fill="#F2F2F2"/>
<path d="M111.463 60.0025C111.429 60.0025 111.395 59.9919 111.365 59.9716C111.335 59.9513 111.309 59.9218 111.288 59.8855L110.754 58.9291C110.736 58.8984 110.724 58.8634 110.717 58.8262C110.71 58.7889 110.708 58.7502 110.712 58.7121C110.716 58.6741 110.726 58.6375 110.74 58.6044C110.755 58.5713 110.774 58.5424 110.797 58.5193C110.82 58.4963 110.846 58.4795 110.874 58.47C110.902 58.4604 110.931 58.4583 110.959 58.4638C110.987 58.4693 111.014 58.4822 111.039 58.5018C111.064 58.5214 111.085 58.5474 111.102 58.5781L111.452 59.2038L112.35 57.3959C112.366 57.3639 112.387 57.3365 112.41 57.3151C112.434 57.2937 112.461 57.2788 112.489 57.2713C112.517 57.2638 112.546 57.2637 112.574 57.2712C112.602 57.2786 112.629 57.2934 112.653 57.3147C112.676 57.3361 112.697 57.3634 112.713 57.3954C112.729 57.4273 112.74 57.4631 112.745 57.5007C112.751 57.5384 112.751 57.5772 112.746 57.6149C112.74 57.6525 112.729 57.6884 112.713 57.7203L111.644 59.8723C111.625 59.9112 111.599 59.9433 111.568 59.966C111.538 59.9886 111.504 60.0011 111.469 60.0024L111.463 60.0025Z" fill="white"/>
<path d="M111.73 77.2068C112.812 77.2068 113.689 76.0296 113.689 74.5775C113.689 73.1254 112.812 71.9482 111.73 71.9482C110.648 71.9482 109.77 73.1254 109.77 74.5775C109.77 76.0296 110.648 77.2068 111.73 77.2068Z" fill="#F2F2F2"/>
<path d="M98.5543 25.6162H76.8097C76.6017 25.6162 76.4021 25.7271 76.2549 25.9246C76.1078 26.122 76.0251 26.3898 76.0251 26.6691C76.0251 26.9483 76.1078 27.2161 76.2549 27.4135C76.4021 27.611 76.6017 27.7219 76.8097 27.7219H98.5543C98.7624 27.7219 98.962 27.611 99.1091 27.4135C99.2562 27.2161 99.3389 26.9483 99.3389 26.6691C99.3389 26.3898 99.2562 26.122 99.1091 25.9246C98.962 25.7271 98.7624 25.6162 98.5543 25.6162Z" fill="#E6E6E6"/>
<path d="M111.73 29.3777C112.812 29.3777 113.689 28.2005 113.689 26.7484C113.689 25.2963 112.812 24.1191 111.73 24.1191C110.648 24.1191 109.77 25.2963 109.77 26.7484C109.77 28.2005 110.648 29.3777 111.73 29.3777Z" fill="#6FD141"/>
<path d="M111.463 28.1168C111.429 28.1168 111.395 28.1062 111.365 28.0859C111.335 28.0656 111.309 28.0361 111.288 27.9997L110.754 27.0433C110.736 27.0126 110.724 26.9776 110.717 26.9404C110.71 26.9032 110.708 26.8644 110.712 26.8264C110.716 26.7883 110.726 26.7517 110.74 26.7186C110.755 26.6855 110.774 26.6566 110.797 26.6336C110.82 26.6105 110.846 26.5937 110.874 26.5842C110.902 26.5747 110.931 26.5726 110.959 26.5781C110.987 26.5835 111.014 26.5964 111.039 26.616C111.064 26.6357 111.085 26.6616 111.102 26.6924L111.452 27.318L112.35 25.5101C112.366 25.4782 112.387 25.4507 112.41 25.4293C112.434 25.408 112.461 25.3931 112.489 25.3856C112.517 25.378 112.546 25.378 112.574 25.3854C112.602 25.3929 112.629 25.4077 112.653 25.429C112.676 25.4503 112.697 25.4777 112.713 25.5096C112.729 25.5415 112.74 25.5773 112.745 25.615C112.751 25.6527 112.751 25.6914 112.746 25.7291C112.74 25.7668 112.729 25.8026 112.713 25.8346L111.644 27.9865C111.625 28.0254 111.599 28.0576 111.568 28.0802C111.538 28.1029 111.504 28.1154 111.469 28.1167L111.463 28.1168Z" fill="white"/>
<path d="M105.229 29.3777C106.311 29.3777 107.188 28.2005 107.188 26.7484C107.188 25.2963 106.311 24.1191 105.229 24.1191C104.147 24.1191 103.27 25.2963 103.27 26.7484C103.27 28.2005 104.147 29.3777 105.229 29.3777Z" fill="#F2F2F2"/>
<path d="M105.229 45.3201C106.311 45.3201 107.188 44.1429 107.188 42.6908C107.188 41.2387 106.311 40.0615 105.229 40.0615C104.147 40.0615 103.27 41.2387 103.27 42.6908C103.27 44.1429 104.147 45.3201 105.229 45.3201Z" fill="#F2F2F2"/>
<path d="M105.229 61.2634C106.311 61.2634 107.188 60.0863 107.188 58.6342C107.188 57.182 106.311 56.0049 105.229 56.0049C104.147 56.0049 103.27 57.182 103.27 58.6342C103.27 60.0863 104.147 61.2634 105.229 61.2634Z" fill="#F2F2F2"/>
<path d="M105.229 77.2068C106.311 77.2068 107.188 76.0296 107.188 74.5775C107.188 73.1254 106.311 71.9482 105.229 71.9482C104.147 71.9482 103.27 73.1254 103.27 74.5775C103.27 76.0296 104.147 77.2068 105.229 77.2068Z" fill="#F2F2F2"/>
<path d="M111.463 75.9459C111.429 75.9459 111.395 75.9353 111.365 75.915C111.335 75.8947 111.309 75.8652 111.288 75.8289L110.754 74.8724C110.737 74.8417 110.724 74.8067 110.717 74.7695C110.71 74.7323 110.708 74.6936 110.712 74.6556C110.716 74.6176 110.726 74.581 110.741 74.5479C110.755 74.5149 110.774 74.486 110.797 74.463C110.82 74.4399 110.846 74.4232 110.874 74.4136C110.902 74.4041 110.931 74.402 110.959 74.4074C110.987 74.4129 111.014 74.4257 111.039 74.4453C111.064 74.4649 111.085 74.4908 111.102 74.5215L111.452 75.1472L112.35 73.3392C112.382 73.2747 112.432 73.2299 112.489 73.2147C112.546 73.1995 112.604 73.2151 112.653 73.2581C112.701 73.3011 112.734 73.368 112.745 73.4441C112.757 73.5202 112.745 73.5992 112.713 73.6637L111.644 75.8156C111.625 75.8545 111.599 75.8867 111.568 75.9093C111.538 75.932 111.503 75.9445 111.469 75.9458L111.463 75.9459Z" fill="white"/>
<path d="M108.637 125.938C108.638 125.953 108.636 125.968 108.632 125.982C108.627 125.996 108.621 126.008 108.612 126.018C108.599 126.031 108.583 126.04 108.566 126.043C108.549 126.047 108.532 126.043 108.517 126.031C108.503 126.018 108.492 125.999 108.488 125.977C108.254 124.922 107.682 124.112 107.14 123.319C106.652 122.607 106.172 121.857 105.927 120.932C105.82 120.564 105.773 120.171 105.788 119.777C105.803 119.383 105.881 118.998 106.015 118.647C106.099 118.437 106.197 118.238 106.308 118.051C106.55 117.638 106.838 117.269 107.097 116.878C107.124 116.837 107.152 116.794 107.177 116.753C107.213 116.701 107.245 116.647 107.275 116.592C107.598 116.056 107.823 115.425 107.931 114.75C108.047 113.928 108.064 113.086 107.983 112.257C107.95 111.816 107.903 111.377 107.843 110.943C107.839 110.922 107.838 110.904 107.834 110.886C107.573 109.02 107.097 107.22 106.425 105.55C106.399 105.489 106.376 105.427 106.35 105.368C106.242 105.104 106.13 104.845 106.011 104.591C106.052 104.552 106.096 104.516 106.14 104.481C106.529 105.326 106.867 106.21 107.152 107.125C107.52 108.3 107.796 109.523 107.977 110.774C107.988 110.842 107.997 110.913 108.005 110.981C108.077 111.506 108.129 112.038 108.161 112.568C108.225 113.399 108.183 114.239 108.036 115.051C107.903 115.695 107.668 116.293 107.346 116.803C107.289 116.901 107.228 116.997 107.163 117.09C106.906 117.467 106.621 117.833 106.389 118.245C106.271 118.452 106.17 118.676 106.089 118.913C105.817 119.732 105.945 120.627 106.247 121.396C106.792 122.794 107.833 123.746 108.387 125.117C108.489 125.37 108.572 125.636 108.634 125.911C108.636 125.92 108.637 125.929 108.637 125.938Z" fill="white"/>
<path d="M107.935 111.004C108.411 110.844 108.829 110.462 109.114 109.927C109.399 109.391 109.533 108.737 109.492 108.081C109.483 107.948 109.329 107.96 109.338 108.093C109.377 108.704 109.252 109.313 108.986 109.811C108.72 110.309 108.329 110.663 107.886 110.808C107.789 110.84 107.84 111.036 107.935 111.004Z" fill="white"/>
<path d="M107.317 116.625C106.452 115.944 105.81 114.851 105.519 113.564C105.491 113.436 105.345 113.503 105.373 113.63C105.678 114.969 106.348 116.105 107.249 116.81C107.335 116.878 107.403 116.692 107.317 116.625Z" fill="white"/>
<path d="M106.443 105.538C106.437 105.543 106.432 105.545 106.425 105.549C106.12 105.736 105.773 105.758 105.456 105.611C105.47 105.544 105.487 105.479 105.508 105.415C105.783 105.542 106.084 105.525 106.35 105.368C106.365 105.361 106.379 105.352 106.394 105.343C106.414 105.334 106.435 105.335 106.453 105.347C106.472 105.359 106.486 105.38 106.493 105.406C106.498 105.432 106.496 105.461 106.487 105.485C106.478 105.509 106.462 105.528 106.443 105.538Z" fill="white"/>
<path d="M97.9986 70.7015C98.1467 70.4621 98.254 70.182 98.3127 69.881C98.3715 69.58 98.3804 69.2654 98.3387 68.9593C98.2971 68.6532 98.2059 68.3631 98.0716 68.1093C97.9374 67.8556 97.7633 67.6445 97.5617 67.4908L98.5847 60.0527L95.8874 61.5851L95.3294 68.4135C95.1595 68.8852 95.1244 69.4241 95.2308 69.9281C95.3372 70.4322 95.5777 70.8664 95.9067 71.1484C96.2357 71.4304 96.6304 71.5407 97.0159 71.4583C97.4015 71.3759 97.7511 71.1066 97.9986 70.7015Z" fill="#FFB6B6"/>
<path d="M99.6448 48.6869L98.7875 44.8198L92.7426 32.1637C92.4065 31.6368 92.0046 31.1921 91.555 30.8497C90.6616 30.1644 89.6201 29.9108 88.6042 30.131C87.5882 30.3513 86.6593 31.0321 85.9721 32.0601C85.2849 33.088 84.881 34.4009 84.8278 35.78C84.7746 37.1591 85.0752 38.521 85.6796 39.6387C85.804 39.8723 85.9417 40.0927 86.0913 40.298L93.9201 51.1331L94.3657 51.7515L95.0705 54.1431L95.3483 65.0487L95.5974 65.1283L97.7913 65.8217L98.098 65.9194L98.6113 62.357L98.9332 60.6542C99.207 59.202 99.3453 57.7098 99.3449 56.2119C99.3449 55.7504 99.333 55.2866 99.3059 54.8251L99.6448 48.6869Z" fill="#3F3D56"/>
<path d="M91.3347 123.889H89.2356L88.2371 113.024L91.3351 113.025L91.3347 123.889Z" fill="#FFB6B6"/>
<path d="M91.2788 122.968L89.0391 121.747L88.973 121.711L87.7363 122.968C87.0576 122.968 86.405 123.32 85.9148 123.949C85.4246 124.579 85.1346 125.439 85.1052 126.349C85.1018 126.399 85.1018 126.451 85.1018 126.503V126.619H91.8701V122.968H91.2788Z" fill="#2F2E41"/>
<path d="M87.3374 118.27L85.5281 119.698L80.5613 111.014L83.2313 108.906L87.3374 118.27Z" fill="#FFB6B6"/>
<path d="M88.5866 119.702L88.341 119.14L87.4515 117.112L86.989 117.478L86.9416 117.515L84.5493 117.988L84.4782 118.001L83.8886 119.927C83.5903 120.162 83.3295 120.474 83.1211 120.845C82.9126 121.215 82.7606 121.637 82.6738 122.087C82.5869 122.536 82.5669 123.004 82.6149 123.464C82.6629 123.924 82.7779 124.367 82.9534 124.767L82.9975 124.865L88.8306 120.259L88.5866 119.702Z" fill="#2F2E41"/>
<path d="M93.9934 57.4688C94.9775 61.4517 94.8735 65.7751 93.7568 70.4153L93.4654 86.3667L92.5292 96.4286C93.0938 98.4001 93.3834 100.494 93.3835 102.606C93.3796 108.142 93.1022 116.008 91.6957 119.702H88.3674L87.6161 103.249L86.7195 94.9763L86.6089 86.1115L86.5125 78.38L82.8936 85.4812L79.3769 92.3816L82.8723 100.293L85.9219 113.024L82.7029 116.662L79.0512 107.372L77.2815 104.613L72.4503 90.5789L72.8845 88.6249C73.7786 84.6009 75.0772 80.7591 76.7443 77.2056L81.5497 62.2396L93.9934 57.4688Z" fill="#2F2E41"/>
<path d="M94.4199 56.1394L93.8709 54.6662L93.9201 51.1333L94.0844 39.1888C94.1042 37.6417 93.8903 36.1052 93.4556 34.6721C93.0208 33.2389 92.3743 31.9387 91.555 30.8499C91.0688 30.1998 90.5248 29.6325 89.9353 29.1608L88.7562 28.2151L88.1598 26.1826L82.6605 26.3622L82.6486 28.3333L82.6436 29.0267L80.6732 33.2416L80.6749 33.2598L80.7156 40.9303L80.7969 56.1985L81.3407 58.5651L80.519 61.3205L80.9561 63.0756L81.3051 63.0006L93.0594 60.4793C93.5937 60.2493 94.0472 59.766 94.3351 59.1199C94.3931 58.9935 94.4435 58.8613 94.4859 58.7243C94.6141 58.3124 94.6746 57.8683 94.6632 57.4222C94.6518 56.9761 94.5688 56.5385 94.4199 56.1394Z" fill="#3F3D56"/>
<path d="M84.906 23.6544C87.6658 23.6544 89.9031 20.6522 89.9031 16.9488C89.9031 13.2454 87.6658 10.2432 84.906 10.2432C82.1461 10.2432 79.9088 13.2454 79.9088 16.9488C79.9088 20.6522 82.1461 23.6544 84.906 23.6544Z" fill="#FFB6B6"/>
<path d="M88.0143 22.505C88.5421 22.0067 89.0766 21.0581 89.4326 20.3479C89.9044 19.4143 90.2248 18.3582 90.373 17.2478C90.5211 16.1375 90.4938 14.9977 90.2927 13.9025C90.2277 13.4643 90.0748 13.0582 89.8504 12.728C89.7358 12.5668 89.5861 12.4584 89.4227 12.4184C89.2593 12.3784 89.0907 12.4087 88.941 12.5051C89.0165 12.222 89.0479 11.9211 89.0334 11.6211C89.0188 11.321 88.9586 11.0281 88.8564 10.7605C88.649 10.2262 88.3516 9.76412 87.988 9.41087C87.2922 8.71228 86.4685 8.2795 85.6042 8.15843C84.7399 8.03737 83.8674 8.23254 83.0791 8.72325C82.769 8.92311 83.2662 7.41474 82.941 7.56534C82.6182 7.74 82.2573 7.73819 81.9355 7.56029C81.6261 7.35845 80.6203 8.61048 80.7337 8.17462C80.502 8.32101 80.3017 8.54371 80.1514 8.82197C80.0011 9.10023 79.9057 9.42501 79.8741 9.76605C79.8426 10.1071 79.8758 10.4533 79.9708 10.7725C80.0658 11.0916 80.2194 11.3733 80.4174 11.5913C80.6783 11.8786 81.002 12.0409 81.2869 12.2836C81.7865 12.7415 82.1438 13.4289 82.2914 14.2161C82.4391 15.0033 82.3668 15.8358 82.0883 16.5564C82.3828 16.2948 82.7068 16.0987 83.0478 15.9756C83.2189 15.9162 83.3981 15.9125 83.5705 15.9648C83.743 16.017 83.9036 16.1238 84.039 16.2761C84.1527 16.4458 84.2392 16.6449 84.2934 16.8611C84.3476 17.0774 84.3683 17.3062 84.3542 17.5335C84.3477 17.9887 84.2717 18.4385 84.2673 18.8938C84.2545 20.2296 83.7477 22.7783 84.5266 23.4738C85.1413 24.0226 87.2937 23.1854 88.0143 22.505Z" fill="#2F2E41"/>
<path d="M57.1449 33.2586C57.2632 33.5263 57.4237 33.756 57.6152 33.9314C57.8067 34.1068 58.0246 34.2237 58.2534 34.274C58.4823 34.3242 58.7166 34.3064 58.9397 34.222C59.1629 34.1376 59.3696 33.9885 59.5452 33.7853L64.4221 37.5778L64.253 33.6539L59.6478 30.654C59.3738 30.2808 59.0074 30.0553 58.6178 30.0204C58.2283 29.9855 57.8427 30.1435 57.5342 30.4646C57.2257 30.7856 57.0157 31.2474 56.9439 31.7624C56.8722 32.2773 56.9437 32.8097 57.1449 33.2586Z" fill="#FFB6B6"/>
<path d="M88.6392 32.0839C88.45 31.2904 88.1405 30.558 87.7303 29.9327C87.32 29.3074 86.8178 28.8027 86.2551 28.4504C85.6925 28.0981 85.0817 27.9058 84.461 27.8856C83.8403 27.8653 83.2232 28.0176 82.6485 28.3328C82.5943 28.3623 82.5401 28.3942 82.4859 28.426L71.6668 35.0348L67.455 34.3642L62.0031 31.8088L61.8642 32.0976L60.6393 34.637L60.4681 34.9916L66.3165 39.6317L66.9366 39.8045C67.4765 39.9544 67.9891 40.2458 68.445 40.662C68.9008 41.0783 69.291 41.6112 69.5931 42.2302L71.8599 43.2305L80.7154 40.9298L85.6794 39.6385L85.9606 39.5657C86.8113 39.1264 87.5428 38.3518 88.0591 37.3438C88.5753 36.3358 88.8519 35.1416 88.8526 33.9186C88.8529 33.2959 88.7809 32.6769 88.6392 32.0839Z" fill="#3F3D56"/>
<path d="M113.814 126.89H54.8586C54.8051 126.89 54.7538 126.861 54.7159 126.811C54.6781 126.76 54.6569 126.691 54.6569 126.619C54.6569 126.548 54.6781 126.479 54.7159 126.428C54.7538 126.377 54.8051 126.349 54.8586 126.349H113.814C113.868 126.349 113.919 126.377 113.957 126.428C113.995 126.479 114.016 126.548 114.016 126.619C114.016 126.691 113.995 126.76 113.957 126.811C113.919 126.861 113.868 126.89 113.814 126.89Z" fill="#CCCCCC"/>
<path d="M50.36 63.6406H14.5537C14.3458 63.641 14.1466 63.7521 13.9997 63.9495C13.8528 64.1469 13.7703 64.4145 13.7703 64.6935C13.7703 64.9724 13.8528 65.24 13.9997 65.4374C14.1466 65.6348 14.3458 65.7459 14.5537 65.7463H50.3601C50.4632 65.7465 50.5653 65.7194 50.6607 65.6666C50.756 65.6138 50.8426 65.5362 50.9156 65.4385C50.9886 65.3407 51.0465 65.2245 51.086 65.0967C51.1255 64.9689 51.1458 64.8318 51.1458 64.6935C51.1458 64.5551 51.1255 64.418 51.086 64.2902C51.0465 64.1624 50.9886 64.0462 50.9156 63.9484C50.8426 63.8507 50.756 63.7731 50.6607 63.7203C50.5653 63.6675 50.4632 63.6404 50.3601 63.6406H50.36Z" fill="#E6E6E6"/>
<path d="M63.5357 67.4021C64.6178 67.4021 65.4951 66.2249 65.4951 64.7728C65.4951 63.3207 64.6178 62.1436 63.5357 62.1436C62.4535 62.1436 61.5763 63.3207 61.5763 64.7728C61.5763 66.2249 62.4535 67.4021 63.5357 67.4021Z" fill="#6FD141"/>
<path d="M63.2684 66.1412C63.2345 66.1412 63.2012 66.1306 63.1709 66.1103C63.1406 66.09 63.1143 66.0605 63.094 66.0242L62.5595 65.0677C62.5423 65.037 62.5298 65.002 62.5227 64.9648C62.5156 64.9276 62.514 64.8889 62.5181 64.8509C62.5221 64.8129 62.5317 64.7763 62.5463 64.7432C62.5609 64.7102 62.5802 64.6813 62.6031 64.6583C62.626 64.6352 62.652 64.6185 62.6797 64.609C62.7075 64.5994 62.7363 64.5973 62.7647 64.6027C62.793 64.6082 62.8202 64.621 62.8449 64.6406C62.8695 64.6602 62.891 64.6861 62.9082 64.7168L63.2579 65.3425L64.1561 63.5345C64.172 63.5026 64.1924 63.4751 64.2162 63.4538C64.24 63.4324 64.2667 63.4175 64.2947 63.41C64.3228 63.4024 64.3517 63.4024 64.3798 63.4099C64.4079 63.4173 64.4346 63.4321 64.4584 63.4534C64.4822 63.4747 64.5027 63.5021 64.5186 63.534C64.5345 63.5659 64.5456 63.6018 64.5512 63.6394C64.5568 63.6771 64.5569 63.7159 64.5513 63.7535C64.5457 63.7912 64.5347 63.8271 64.5188 63.859L63.4497 66.0109C63.4304 66.0499 63.4044 66.082 63.3739 66.1046C63.3434 66.1273 63.3093 66.1398 63.2744 66.1411L63.2684 66.1412Z" fill="white"/>
<path d="M57.0348 67.4021C58.117 67.4021 58.9942 66.2249 58.9942 64.7728C58.9942 63.3207 58.117 62.1436 57.0348 62.1436C55.9527 62.1436 55.0754 63.3207 55.0754 64.7728C55.0754 66.2249 55.9527 67.4021 57.0348 67.4021Z" fill="#F2F2F2"/>
<path d="M50.1906 76.3721H14.3843C14.1764 76.3725 13.9771 76.4836 13.8302 76.681C13.6833 76.8784 13.6008 77.146 13.6008 77.4249C13.6008 77.7039 13.6833 77.9714 13.8302 78.1688C13.9771 78.3662 14.1764 78.4774 14.3843 78.4778H50.1906C50.3987 78.4778 50.5983 78.3668 50.7454 78.1694C50.8926 77.972 50.9752 77.7041 50.9752 77.4249C50.9752 77.1457 50.8926 76.8779 50.7454 76.6804C50.5983 76.483 50.3987 76.3721 50.1906 76.3721H50.1906Z" fill="#E6E6E6"/>
<path d="M63.3662 80.1335C64.4484 80.1335 65.3256 78.9564 65.3256 77.5043C65.3256 76.0522 64.4484 74.875 63.3662 74.875C62.2841 74.875 61.4069 76.0522 61.4069 77.5043C61.4069 78.9564 62.2841 80.1335 63.3662 80.1335Z" fill="#F2F2F2"/>
<path d="M63.0989 78.8726C63.0651 78.8726 63.0317 78.8621 63.0014 78.8417C62.9712 78.8214 62.9449 78.7919 62.9246 78.7556L62.39 77.7992C62.3553 77.7371 62.3405 77.6591 62.3486 77.5823C62.3568 77.5056 62.3874 77.4363 62.4336 77.3897C62.4799 77.3432 62.538 77.3232 62.5952 77.3342C62.6524 77.3452 62.7041 77.3862 62.7388 77.4482L63.0885 78.0739L63.9867 76.266C64.0025 76.234 64.023 76.2066 64.0467 76.1852C64.0705 76.1638 64.0972 76.149 64.1253 76.1414C64.1533 76.1339 64.1822 76.1338 64.2103 76.1413C64.2384 76.1488 64.2651 76.1636 64.2889 76.1849C64.3127 76.2062 64.3332 76.2336 64.3491 76.2655C64.365 76.2974 64.3761 76.3332 64.3817 76.3709C64.3874 76.4085 64.3874 76.4473 64.3818 76.485C64.3763 76.5227 64.3652 76.5585 64.3494 76.5905L63.2803 78.7424C63.2609 78.7813 63.2349 78.8134 63.2044 78.8361C63.1739 78.8587 63.1398 78.8712 63.105 78.8725L63.0989 78.8726Z" fill="white"/>
<path d="M56.8654 80.1335C57.9475 80.1335 58.8248 78.9564 58.8248 77.5043C58.8248 76.0522 57.9475 74.875 56.8654 74.875C55.7833 74.875 54.906 76.0522 54.906 77.5043C54.906 78.9564 55.7833 80.1335 56.8654 80.1335Z" fill="#F2F2F2"/>
</g>
<defs>
<clipPath id="clip0_385_2900">
<rect width="127.26" height="126.89" fill="white"/>
</clipPath>
</defs>
</svg>
