<svg width="184" height="126" viewBox="0 0 184 126" fill="none" xmlns="http://www.w3.org/2000/svg">
<path d="M118.974 28.1111C122.458 28.1111 125.282 25.288 125.282 21.8056C125.282 18.3231 122.458 15.5 118.974 15.5C115.49 15.5 112.665 18.3231 112.665 21.8056C112.665 25.288 115.49 28.1111 118.974 28.1111Z" fill="#F2F2F2"/>
<path d="M143.254 66.0217L35.2906 0L4.8667e-05 57.6532L107.964 123.675L143.254 66.0217Z" fill="#F2F2F2"/>
<path d="M133.661 84.309C132.676 82.043 131.158 80.0528 128.121 78.3779C126.552 77.4911 124.867 76.8279 123.114 76.4074C124.293 75.8597 125.378 75.128 126.327 74.2398C127.723 72.9928 128.781 71.4135 129.403 69.6486C129.975 67.8551 130.209 65.9708 130.093 64.0918C129.876 60.7814 129.226 57.5695 127.491 55.2641C125.756 52.9586 123.311 51.1852 120.078 49.9438C117.594 48.9979 115.051 48.4068 111.108 48.19V35.5986L103.222 40.5248V48.2097H96.9134V40.1307L88.8304 35.5986V48.2097H71.6591L77.1791 57.6681C78.8844 57.67 80.0397 57.8277 80.6292 58.1213C81.1794 58.3567 81.6319 58.7741 81.9106 59.3036C82.1669 59.7962 82.2852 60.9588 82.2852 62.7519V96.8807C82.2852 98.6542 82.1669 99.797 81.9106 100.309C81.6543 100.822 81.5163 101.275 80.9052 101.551C80.294 101.827 80.2743 101.807 78.5789 101.807H78.5592L71.6591 111.265H88.8107V123.876H96.8937V111.265H103.202V123.876H111.088V111.186C116.214 110.93 119.861 110.26 122.799 109.157C126.603 107.738 129.521 105.669 131.611 102.95C133.701 100.231 134.548 96.0728 134.726 92.8609C134.864 90.0037 134.548 86.3189 133.661 84.309ZM96.8937 58.8504H96.8956V58.5883H102.408C105.509 58.5883 115.843 57.5557 116.015 65.9914C116.188 74.427 102.408 74.0822 102.408 74.0822H96.8956V73.4319H96.8937V58.8504ZM96.8937 82.8903H103.202C104.484 82.8903 108.892 83.0854 110.497 83.1583C111.151 83.182 111.799 83.2974 112.421 83.5011C112.648 83.578 112.862 83.6647 113.095 83.7612C114.067 84.0753 114.985 84.5394 115.814 85.1366C116.354 85.4934 116.83 85.9399 117.219 86.4569C117.388 86.6901 117.544 86.9329 117.685 87.184C118.058 87.8153 118.335 88.4987 118.507 89.2116C118.695 89.9002 118.792 90.6103 118.797 91.324C118.797 92.859 118.513 94.1299 117.813 95.2058C116.865 96.794 115.309 97.9192 113.558 98.7133C109.032 100.77 103.202 100.625 103.202 100.625H96.8937V82.8903Z" fill="#E9BB1A"/>
<path opacity="0.3" d="M120.681 22.0711C120.621 21.9234 120.511 21.8015 120.37 21.7269C120.283 21.6755 120.188 21.637 120.09 21.6125C120.156 21.5805 120.217 21.538 120.27 21.4867C120.349 21.4136 120.408 21.322 120.442 21.2203C120.474 21.116 120.488 21.0067 120.481 20.8978C120.48 20.7168 120.43 20.5396 120.335 20.3854C120.229 20.2446 120.085 20.1374 119.92 20.0767C119.759 20.0144 119.589 19.98 119.417 19.9749V19.2441L118.975 19.53V19.976H118.621V19.5072L118.168 19.2441V19.976H117.205L117.515 20.525C117.58 20.5205 117.646 20.5294 117.708 20.5513C117.739 20.5652 117.765 20.5894 117.78 20.6199C117.799 20.6848 117.806 20.7526 117.801 20.82V22.8007C117.806 22.8677 117.799 22.9351 117.78 22.9997C117.766 23.0294 117.758 23.0557 117.724 23.0717C117.689 23.0877 117.688 23.0866 117.593 23.0866H117.592L117.205 23.6355H118.167V24.3674H118.62V23.6355H118.973V24.3674H119.416V23.6309C119.639 23.627 119.861 23.5872 120.072 23.5131C120.268 23.4432 120.44 23.3181 120.566 23.1529C120.676 22.9772 120.737 22.7748 120.741 22.5674C120.752 22.3997 120.732 22.2313 120.681 22.0711ZM118.62 20.5936H118.62V20.5784H118.929C119.103 20.5784 119.682 20.5185 119.692 21.008C119.701 21.4976 118.929 21.4776 118.929 21.4776H118.62V21.4398H118.62V20.5936ZM118.62 21.9888H118.973C119.045 21.9888 119.292 22.0001 119.382 22.0043C119.419 22.0057 119.455 22.0124 119.49 22.0242C119.503 22.0287 119.515 22.0337 119.528 22.0393C119.583 22.0576 119.634 22.0846 119.68 22.1191C119.711 22.14 119.738 22.1659 119.759 22.1958C119.793 22.2443 119.817 22.2984 119.831 22.3556C119.842 22.3956 119.847 22.4368 119.848 22.4782C119.851 22.5571 119.832 22.6353 119.793 22.7035C119.736 22.7942 119.653 22.8652 119.554 22.9071C119.37 22.9824 119.172 23.0202 118.973 23.018H118.62V21.9888Z" fill="#276090"/>
<path d="M157.348 93.7543C158.625 93.7543 159.66 92.7195 159.66 91.4431C159.66 90.1666 158.625 89.1318 157.348 89.1318C156.071 89.1318 155.036 90.1666 155.036 91.4431C155.036 92.7195 156.071 93.7543 157.348 93.7543Z" fill="#FF6584"/>
<path d="M175.577 116.603V90.2871" stroke="#3F3D56" stroke-width="2" stroke-miterlimit="10"/>
<path d="M175.577 94.0073C177.633 94.0073 179.3 92.3412 179.3 90.2859C179.3 88.2306 177.633 86.5645 175.577 86.5645C173.521 86.5645 171.854 88.2306 171.854 90.2859C171.854 92.3412 173.521 94.0073 175.577 94.0073Z" fill="#3F3D56"/>
<path d="M168.244 105.021C162.866 113.264 164.34 123.749 164.34 123.749C164.34 123.749 174.533 120.868 179.911 112.625C185.289 104.381 183.815 93.8965 183.815 93.8965C183.815 93.8965 173.622 96.7771 168.244 105.021Z" fill="#3F3D56"/>
<path d="M164.311 123.654C164.311 123.654 164.18 123.633 163.939 123.584C163.747 123.545 163.482 123.49 163.159 123.413C160.271 122.732 152.591 120.431 147.57 114.381C141.285 106.805 141.55 96.2207 141.55 96.2207C141.55 96.2207 151.159 97.7813 157.491 104.585C157.765 104.877 158.032 105.18 158.292 105.494C163.76 112.085 164.269 120.954 164.31 123.147C164.315 123.476 164.311 123.654 164.311 123.654Z" fill="#57B894"/>
<path d="M160.435 105.021C165.814 113.264 164.34 123.749 164.34 123.749C164.34 123.749 154.147 120.868 148.769 112.625C143.391 104.381 144.864 93.8965 144.864 93.8965C144.864 93.8965 155.057 96.7771 160.435 105.021Z" stroke="#3F3D56" stroke-width="2" stroke-miterlimit="10"/>
<path opacity="0.1" d="M164.31 123.146C164.168 123.318 164.042 123.464 163.939 123.584C163.711 123.844 163.581 123.98 163.581 123.98C163.581 123.98 163.424 123.783 163.159 123.412C161.707 121.388 157.034 114.191 157.394 105.877C157.414 105.442 157.446 105.01 157.491 104.584C157.765 104.876 158.032 105.179 158.291 105.493C163.76 112.085 164.269 120.954 164.31 123.146Z" fill="black"/>
<path d="M172.284 106.478C171.859 116.31 164.557 123.98 164.557 123.98C164.557 123.98 157.944 115.709 158.369 105.877C158.794 96.0449 166.096 88.375 166.096 88.375C166.096 88.375 172.709 96.6459 172.284 106.478Z" fill="#57B894"/>
<path d="M164.557 123.702L166.162 88.7764" stroke="#3F3D56" stroke-width="2" stroke-miterlimit="10"/>
<path d="M11.3304 123.74H178.119" stroke="#3F3D56" stroke-width="2" stroke-miterlimit="10"/>
<path d="M46.7542 81.1473C51.4066 81.1473 55.1782 77.3776 55.1782 72.7275C55.1782 68.0773 51.4066 64.3076 46.7542 64.3076C42.1017 64.3076 38.3302 68.0773 38.3302 72.7275C38.3302 77.3776 42.1017 81.1473 46.7542 81.1473Z" fill="#93B857"/>
<path d="M32.4356 100.963C37.088 100.963 40.8596 97.1931 40.8596 92.5429C40.8596 87.8927 37.088 84.123 32.4356 84.123C27.7831 84.123 24.0116 87.8927 24.0116 92.5429C24.0116 97.1931 27.7831 100.963 32.4356 100.963Z" fill="#93B857"/>
<path d="M14.8128 116.789C19.4652 116.789 23.2368 113.019 23.2368 108.369C23.2368 103.719 19.4652 99.9492 14.8128 99.9492C10.1603 99.9492 6.38879 103.719 6.38879 108.369C6.38879 113.019 10.1603 116.789 14.8128 116.789Z" fill="#93B857"/>
<path d="M14.8053 123.596V108.322" stroke="#3F3D56" stroke-width="2" stroke-miterlimit="10"/>
<path d="M14.8053 110.482C15.9988 110.482 16.9662 109.515 16.9662 108.322C16.9662 107.129 15.9988 106.162 14.8053 106.162C13.6119 106.162 12.6444 107.129 12.6444 108.322C12.6444 109.515 13.6119 110.482 14.8053 110.482Z" fill="#3F3D56"/>
<path d="M14.8052 117.736C14.8052 117.736 14.4965 111.1 8.16809 111.871L14.8052 117.736Z" fill="#3F3D56"/>
<path d="M46.7594 123.703V72.7588" stroke="#3F3D56" stroke-width="2" stroke-miterlimit="10"/>
<path d="M46.7594 74.8939C47.9529 74.8939 48.9203 73.9269 48.9203 72.7341C48.9203 71.5412 47.9529 70.5742 46.7594 70.5742C45.566 70.5742 44.5985 71.5412 44.5985 72.7341C44.5985 73.9269 45.566 74.8939 46.7594 74.8939Z" fill="#3F3D56"/>
<path d="M40.1225 111.753C41.3159 111.753 42.2834 110.786 42.2834 109.593C42.2834 108.401 41.3159 107.434 40.1225 107.434C38.929 107.434 37.9615 108.401 37.9615 109.593C37.9615 110.786 38.929 111.753 40.1225 111.753Z" fill="#3F3D56"/>
<path d="M46.7595 83.7671C46.7595 83.7671 46.4508 77.1309 40.1224 77.9022L46.7595 83.7671Z" fill="#3F3D56"/>
<path d="M46.7595 102.58C46.7595 102.58 46.4508 95.9434 40.1224 96.7147L46.7595 102.58Z" fill="#3F3D56"/>
<path d="M46.7595 123.109C46.7595 123.109 48.1487 110.21 40.1224 109.593" stroke="#3F3D56" stroke-width="2" stroke-miterlimit="10"/>
<path d="M53.3976 111.753C54.5911 111.753 55.5585 110.786 55.5585 109.593C55.5585 108.401 54.5911 107.434 53.3976 107.434C52.2042 107.434 51.2367 108.401 51.2367 109.593C51.2367 110.786 52.2042 111.753 53.3976 111.753Z" fill="#3F3D56"/>
<path d="M46.7604 123.109C46.7604 123.109 45.3713 110.21 53.3975 109.593" stroke="#3F3D56" stroke-width="2" stroke-miterlimit="10"/>
<path d="M53.5292 91.4925C54.7226 91.4925 55.6901 90.5255 55.6901 89.3327C55.6901 88.1398 54.7226 87.1729 53.5292 87.1729C52.3358 87.1729 51.3683 88.1398 51.3683 89.3327C51.3683 90.5255 52.3358 91.4925 53.5292 91.4925Z" fill="#3F3D56"/>
<path d="M46.892 102.16C46.892 102.16 45.5029 89.9491 53.5291 89.332" stroke="#3F3D56" stroke-width="2" stroke-miterlimit="10"/>
<path d="M32.4435 123.631V92.5342" stroke="#3F3D56" stroke-width="2" stroke-miterlimit="10"/>
<path d="M32.4433 94.6947C33.6367 94.6947 34.6042 93.7277 34.6042 92.5349C34.6042 91.342 33.6367 90.375 32.4433 90.375C31.2498 90.375 30.2823 91.342 30.2823 92.5349C30.2823 93.7277 31.2498 94.6947 32.4433 94.6947Z" fill="#3F3D56"/>
<path d="M32.4434 101.33C32.4434 101.33 32.1347 94.6934 25.8063 95.4647L32.4434 101.33Z" fill="#3F3D56"/>
<path d="M32.4434 123.037C32.4434 123.037 33.8325 110.275 25.8063 109.658" stroke="#3F3D56" stroke-width="2" stroke-miterlimit="10"/>
<path d="M25.8063 111.819C26.9997 111.819 27.9672 110.852 27.9672 109.659C27.9672 108.466 26.9997 107.499 25.8063 107.499C24.6129 107.499 23.6454 108.466 23.6454 109.659C23.6454 110.852 24.6129 111.819 25.8063 111.819Z" fill="#3F3D56"/>
<path d="M151.108 76.3877C153.068 76.3877 154.657 74.7997 154.657 72.8408C154.657 70.8819 153.068 69.2939 151.108 69.2939C149.148 69.2939 147.56 70.8819 147.56 72.8408C147.56 74.7997 149.148 76.3877 151.108 76.3877Z" fill="#F2F2F2"/>
<path opacity="0.1" d="M113.558 98.7133C109.032 100.77 103.202 100.625 103.202 100.625H96.8937V99.4207C99.4645 98.7034 103.019 98.26 106.948 98.26C109.16 98.2523 111.369 98.4038 113.558 98.7133Z" fill="black"/>
<path opacity="0.1" d="M121.142 102.201C121.142 104.378 114.787 106.142 106.948 106.142C99.1095 106.142 92.7535 104.378 92.7535 102.201C92.7535 101.115 94.3346 100.132 96.8936 99.4203V100.624H103.202C103.202 100.624 109.032 100.77 113.558 98.7129C118.067 99.371 121.142 100.685 121.142 102.201Z" fill="black"/>
<path d="M108.761 77.6621H102.721V83.7094H108.761V77.6621Z" fill="#2F2E41"/>
<path d="M104.967 81.9391C104.967 81.9391 105.467 83.6879 104.592 83.8128C104.049 83.8974 103.535 84.1117 103.093 84.4374L104.717 86.561H107.717L109.591 84.6872C109.591 84.6872 107.092 82.8135 107.592 81.6893C108.092 80.565 104.967 81.9391 104.967 81.9391Z" fill="#FFB9B9"/>
<path opacity="0.1" d="M104.967 81.9391C104.967 81.9391 105.467 83.6879 104.592 83.8128C104.049 83.8974 103.535 84.1117 103.093 84.4374L104.717 86.561H107.717L109.591 84.6872C109.591 84.6872 107.092 82.8135 107.592 81.6893C108.092 80.565 104.967 81.9391 104.967 81.9391Z" fill="black"/>
<path d="M105.717 103.674L108.592 104.673L110.591 104.798L110.466 103.049L106.342 101.83L105.717 103.674Z" fill="#FFB9B9"/>
<path d="M109.404 103.3C109.404 103.3 109.404 105.049 109.654 105.049C109.904 105.049 113.278 104.674 114.278 105.049C115.278 105.424 116.778 104.05 116.028 103.3C115.278 102.551 114.055 101.426 113.292 101.676C112.528 101.926 109.404 102.551 109.404 102.551L109.404 103.3Z" fill="#2F2E41"/>
<path d="M100.218 101.676C100.218 101.676 98.7185 104.674 99.7183 104.924C100.718 105.173 101.843 104.799 101.968 104.674C102.093 104.549 103.843 104.049 104.093 104.299C104.342 104.549 104.342 103.3 104.342 103.3L100.218 101.676Z" fill="#2F2E41"/>
<path d="M101.468 97.5527C101.468 97.5527 99.0933 100.801 100.843 101.675C102.593 102.549 110.966 102.549 111.591 101.675C112.216 100.801 112.466 98.0524 111.591 97.8026C110.716 97.5527 101.468 97.5527 101.468 97.5527Z" fill="#2F2E41"/>
<path opacity="0.2" d="M101.468 97.5527C101.468 97.5527 99.0933 100.801 100.843 101.675C102.593 102.549 110.966 102.549 111.591 101.675C112.216 100.801 112.466 98.0524 111.591 97.8026C110.716 97.5527 101.468 97.5527 101.468 97.5527Z" fill="black"/>
<path d="M105.967 82.8135C107.555 82.8135 108.842 81.5272 108.842 79.9405C108.842 78.3537 107.555 77.0674 105.967 77.0674C104.38 77.0674 103.093 78.3537 103.093 79.9405C103.093 81.5272 104.38 82.8135 105.967 82.8135Z" fill="#FFB9B9"/>
<path d="M101.468 84.4372L103.967 83.9375C103.967 83.9375 104.592 85.9361 106.592 85.5614C108.592 85.1866 109.091 83.9375 109.091 83.9375C109.091 83.9375 110.591 84.5621 110.716 84.5621C110.841 84.5621 112.466 85.1866 112.466 85.5614C112.466 85.9361 110.591 89.6836 110.591 89.6836L110.841 96.429L101.593 96.1792L102.218 89.5587L101.468 84.4372Z" fill="#276090"/>
<path d="M100.093 87.6855C100.093 87.6855 99.3434 94.3061 99.8434 94.8057C100.343 95.3054 102.343 96.6795 102.343 96.6795V95.1805L101.343 93.3067L102.343 88.9347L100.093 87.6855Z" fill="#FFB9B9"/>
<path d="M113.028 87.498C113.028 87.498 112.591 94.3059 112.591 94.5558C112.591 94.8056 111.466 95.68 111.091 95.68C110.716 95.68 110.466 95.0554 110.466 95.0554L111.341 94.0561L110.716 88.9346L113.028 87.498Z" fill="#FFB9B9"/>
<path d="M111.841 97.054C111.841 97.054 117.465 93.9311 117.59 97.054C117.715 100.177 114.716 101.426 114.716 101.426C114.716 101.426 106.967 103.748 106.655 102.899C106.342 102.051 105.717 100.677 106.217 100.552C106.717 100.427 107.342 100.177 107.592 100.427C107.842 100.676 110.966 98.5529 110.966 98.5529L111.841 97.054Z" fill="#2F2E41"/>
<path opacity="0.2" d="M114.466 96.6787C114.466 96.6787 113.341 97.1784 112.966 97.5531C112.591 97.9278 110.966 98.5524 110.966 98.5524" stroke="black" stroke-width="2" stroke-miterlimit="10"/>
<path d="M102.218 84.6873L101.468 84.4375C101.468 84.4375 98.7185 87.3106 99.5934 88.06C100.468 88.8095 100.968 89.0594 101.218 89.3092C101.468 89.559 102.718 89.6839 102.718 89.6839L102.218 84.6873Z" fill="#276090"/>
<path d="M111.341 85.3115L112.466 85.5614C112.466 85.5614 113.341 87.4351 113.591 87.6849C113.841 87.9347 113.216 87.8098 112.841 88.3095C112.466 88.8092 112.091 89.6836 111.341 89.6836C110.591 89.6836 109.591 88.4344 109.591 88.4344L111.341 85.3115Z" fill="#276090"/>
<path d="M101.718 98.1788C101.718 98.1788 96.9689 94.8061 95.3442 97.3044C93.7195 99.8027 102.343 103.175 103.593 103.675C104.842 104.175 105.967 104.674 105.967 104.674C105.967 104.674 107.092 101.926 107.092 101.427C107.092 100.927 106.217 100.927 105.967 100.927C105.717 100.927 104.593 100.677 104.343 100.302C104.093 99.9276 101.718 98.1788 101.718 98.1788Z" fill="#2F2E41"/>
<path opacity="0.2" d="M99.0934 97.3037C99.0934 97.3037 100.343 98.303 101.468 98.5529C102.593 98.8027 102.968 99.4273 102.968 99.4273" stroke="black" stroke-width="2" stroke-miterlimit="10"/>
<path d="M100.856 92.6062L100.956 97.8952C100.959 98.0699 101.031 98.2362 101.157 98.3579C101.282 98.4796 101.451 98.5467 101.626 98.5448L111.473 98.4342C111.641 98.4323 111.801 98.3668 111.923 98.251C112.044 98.1352 112.117 97.9777 112.127 97.8103L112.426 92.6319C112.431 92.5419 112.418 92.4517 112.387 92.367C112.356 92.2823 112.308 92.2048 112.246 92.1392C112.184 92.0737 112.109 92.0215 112.027 91.9858C111.944 91.9501 111.855 91.9316 111.764 91.9316H101.518C101.43 91.9316 101.343 91.9492 101.262 91.9832C101.181 92.0173 101.107 92.0672 101.045 92.13C100.984 92.1928 100.935 92.2673 100.903 92.349C100.87 92.4308 100.854 92.5182 100.856 92.6062Z" fill="#575A89"/>
<path d="M99.7168 84.4685C99.985 83.877 100.345 83.3218 100.517 82.6955C100.723 81.9448 100.643 81.1505 100.618 80.3724C100.579 79.6843 100.638 78.9942 100.793 78.3225C100.95 77.6477 101.302 77.0341 101.806 76.5585C103.116 75.3898 105.513 75.3059 107.112 75.7924C107.743 75.9842 108.414 76.3494 108.571 76.9893C108.594 77.0859 108.605 77.1855 108.631 77.2814C108.762 77.7578 109.25 78.0593 109.426 78.521C109.653 79.1182 109.302 79.7677 109.257 80.4051C109.203 81.1492 109.569 81.8523 109.93 82.5054C110.144 82.8937 110.367 83.3074 110.346 83.7504C110.328 83.9927 110.254 84.2276 110.131 84.4366C109.901 84.8156 109.578 85.1301 109.194 85.3505C108.809 85.5709 108.375 85.69 107.931 85.6967C107.643 85.7198 107.355 85.6518 107.107 85.5024C106.717 85.2337 106.603 84.6928 106.684 84.2262C106.765 83.7596 107.002 83.3376 107.188 82.9018C107.245 82.7681 107.296 82.6321 107.344 82.4948C107.92 82.1735 108.363 81.6592 108.596 81.0428C108.83 80.4263 108.838 79.7473 108.619 79.1256C108.399 78.504 107.968 77.9796 107.4 77.6453C106.831 77.3109 106.163 77.188 105.513 77.2982C104.863 77.4084 104.273 77.7447 103.846 78.2476C103.42 78.7506 103.186 79.3879 103.184 80.047C103.182 80.7061 103.414 81.3445 103.837 81.8496C104.261 82.3547 104.849 82.694 105.499 82.8075C105.639 83.5125 105.575 84.2428 105.316 84.9129C105.079 85.4582 104.783 85.9753 104.431 86.4545C104.287 86.7001 104.096 86.9144 103.868 87.0848C103.717 87.1738 103.556 87.2426 103.388 87.2897C102.682 87.5166 101.938 87.6992 101.204 87.5971C100.469 87.495 99.742 87.0523 99.4917 86.3546C99.2724 85.7433 99.4486 85.0601 99.7168 84.4685Z" fill="#2F2E41"/>
<path d="M105.828 80.0552C107.513 80.0552 108.879 79.2816 108.879 78.3274C108.879 77.3732 107.513 76.5996 105.828 76.5996C104.143 76.5996 102.777 77.3732 102.777 78.3274C102.777 79.2816 104.143 80.0552 105.828 80.0552Z" fill="#2F2E41"/>
<path opacity="0.3" d="M152.435 73.0463C152.389 72.9316 152.303 72.8369 152.194 72.7788C152.126 72.739 152.052 72.709 151.976 72.69C152.027 72.6651 152.075 72.6321 152.116 72.5922C152.177 72.5354 152.223 72.4642 152.25 72.3852C152.275 72.3041 152.285 72.2192 152.28 72.1346C152.279 71.994 152.24 71.8562 152.166 71.7365C152.084 71.627 151.972 71.5437 151.843 71.4965C151.719 71.4482 151.587 71.4214 151.453 71.4175V70.8496L151.109 71.0718V71.4183H150.834V71.054L150.482 70.8496V71.4183H149.734L149.975 71.8449C150.026 71.8414 150.077 71.8483 150.125 71.8653C150.149 71.8762 150.169 71.895 150.181 71.9186C150.195 71.9691 150.201 72.0218 150.197 72.0741V73.6133C150.201 73.6654 150.195 73.7177 150.181 73.7679C150.17 73.791 150.164 73.8114 150.137 73.8239C150.11 73.8363 150.11 73.8354 150.036 73.8354H150.035L149.734 74.262H150.481V74.8307H150.834V74.262H151.108V74.8307H151.452V74.2584C151.626 74.2553 151.798 74.2244 151.962 74.1669C152.114 74.1125 152.248 74.0153 152.346 73.887C152.432 73.7504 152.478 73.5931 152.482 73.432C152.491 73.3017 152.475 73.1708 152.435 73.0463ZM150.834 71.8982H150.834V71.8864H151.074C151.209 71.8864 151.659 71.8398 151.666 72.2202C151.674 72.6007 151.074 72.5851 151.074 72.5851H150.834V72.5558H150.834V71.8982ZM150.834 72.9823H151.108C151.164 72.9823 151.356 72.9911 151.426 72.9944C151.455 72.9955 151.483 73.0007 151.51 73.0099C151.52 73.0134 151.529 73.0173 151.539 73.0216C151.582 73.0359 151.622 73.0568 151.658 73.0836C151.681 73.0999 151.702 73.12 151.719 73.1432C151.745 73.1809 151.764 73.223 151.775 73.2674C151.783 73.2985 151.787 73.3305 151.788 73.3627C151.79 73.4239 151.776 73.4847 151.745 73.5377C151.701 73.6082 151.636 73.6634 151.559 73.6959C151.416 73.7545 151.263 73.7838 151.108 73.7821H150.834V72.9823Z" fill="#276090"/>
<path d="M12.7123 88.8018C14.6722 88.8018 16.2609 87.2138 16.2609 85.2549C16.2609 83.296 14.6722 81.708 12.7123 81.708C10.7525 81.708 9.1637 83.296 9.1637 85.2549C9.1637 87.2138 10.7525 88.8018 12.7123 88.8018Z" fill="#F2F2F2"/>
<path opacity="0.3" d="M14.0389 85.4604C13.9925 85.3456 13.907 85.2509 13.7976 85.1929C13.7295 85.153 13.6561 85.1231 13.5795 85.104C13.6311 85.0792 13.6784 85.0462 13.7195 85.0063C13.7806 84.9495 13.8267 84.8783 13.8534 84.7992C13.8784 84.7182 13.8886 84.6333 13.8835 84.5486C13.8831 84.408 13.8438 84.2703 13.7701 84.1505C13.6879 84.0411 13.5758 83.9578 13.4472 83.9106C13.3224 83.8622 13.1903 83.8355 13.0565 83.8315V83.2637L12.713 83.4858V83.8324H12.4381V83.4681L12.086 83.2637V83.8324H11.338L11.5785 84.2589C11.6294 84.2554 11.6806 84.2624 11.7288 84.2794C11.753 84.2902 11.7727 84.309 11.7846 84.3327C11.7992 84.3831 11.8048 84.4358 11.8009 84.4882V86.0273C11.8046 86.0794 11.7991 86.1318 11.7846 86.1819C11.7734 86.205 11.7674 86.2255 11.7408 86.2379C11.7142 86.2504 11.7133 86.2495 11.6395 86.2495H11.6386L11.338 86.676H12.0852V87.2448H12.4373V86.676H12.7121V87.2448H13.0556V86.6725C13.2295 86.6694 13.4017 86.6385 13.5657 86.5809C13.718 86.5266 13.8513 86.4294 13.9496 86.301C14.0353 86.1645 14.0822 86.0072 14.0853 85.846C14.0944 85.7157 14.0786 85.5849 14.0389 85.4604ZM12.4373 84.3123H12.4374V84.3004H12.6775C12.8126 84.3004 13.2628 84.2539 13.2702 84.6343C13.2778 85.0147 12.6775 84.9992 12.6775 84.9992H12.4374V84.9699H12.4373L12.4373 84.3123ZM12.4373 85.3964H12.7121C12.7679 85.3964 12.96 85.4052 13.0299 85.4085C13.0584 85.4096 13.0866 85.4148 13.1137 85.424C13.1236 85.4274 13.1329 85.4313 13.1431 85.4357C13.1856 85.4499 13.2256 85.4709 13.2615 85.4977C13.2851 85.5139 13.3059 85.534 13.3227 85.5572C13.3487 85.5949 13.3677 85.637 13.3788 85.6815C13.387 85.7126 13.3912 85.7446 13.3914 85.7767C13.3942 85.838 13.3794 85.8988 13.3486 85.9518C13.3045 86.0223 13.2398 86.0775 13.1632 86.11C13.0201 86.1685 12.8667 86.1979 12.7121 86.1962H12.4373L12.4373 85.3964Z" fill="#276090"/>
</svg>
