<svg width="291" height="185" viewBox="0 0 291 185" fill="none" xmlns="http://www.w3.org/2000/svg">
<g clip-path="url(#clip0_385_3772)">
<path opacity="0.1" d="M96.7454 184.896C110.917 184.896 122.405 183.24 122.405 181.197C122.405 179.154 110.917 177.498 96.7454 177.498C82.574 177.498 71.0857 179.154 71.0857 181.197C71.0857 183.24 82.574 184.896 96.7454 184.896Z" fill="#C3DFE8"/>
<path opacity="0.1" d="M236.228 185C253.912 185 268.247 183.344 268.247 181.301C268.247 179.259 253.912 177.603 236.228 177.603C218.544 177.603 204.209 179.259 204.209 181.301C204.209 183.344 218.544 185 236.228 185Z" fill="#C3DFE8"/>
<path opacity="0.1" d="M3.64467 79.9336H30.3709V112.628H5.60128C5.53544 112.963 5.47224 113.301 5.40377 113.639H30.3709V140.007C30.3262 139.995 30.2867 139.981 30.2445 139.966C29.5388 139.716 28.8383 139.451 28.1378 139.167L27.6901 138.985C26.9879 138.688 26.2857 138.373 25.5834 138.04C25.3385 137.924 25.0936 137.804 24.8514 137.681C20.9528 135.721 17.4112 133.237 14.3494 130.316C14.2599 130.238 14.1756 130.155 14.0861 130.08C13.6594 129.664 13.2407 129.243 12.8352 128.813L12.3875 128.34C11.9082 127.813 11.4448 127.272 10.9945 126.724C10.9286 126.643 10.8654 126.563 10.797 126.487C8.96555 124.208 7.44491 121.741 6.26752 119.137C6.23066 119.059 6.19906 118.974 6.16482 118.901C5.80317 118.065 5.48277 117.222 5.20363 116.372C5.0825 116.015 4.96663 115.663 4.86656 115.291C4.82969 115.183 4.79809 115.076 4.76913 114.97C3.27336 109.73 3.09692 104.287 3.09692 98.8817C3.09692 98.2507 3.09692 97.6173 3.09692 96.9909C3.09692 94.8047 3.12589 92.6043 3.16803 90.4062C3.16803 89.8366 3.19436 89.2694 3.20753 88.6974C3.24439 87.2462 3.29706 85.7951 3.36553 84.3439C3.38133 83.9397 3.4024 83.5379 3.4261 83.1361C3.4261 82.9045 3.43926 82.6729 3.4656 82.4413C3.5288 81.5999 3.58147 80.7655 3.64467 79.9336Z" fill="#C3DFE8"/>
<path opacity="0.1" d="M30.371 43.5309H15.7109C18.094 40.1832 20.6978 36.9663 23.5084 33.8973C25.6862 31.496 27.9852 29.1561 30.371 26.9014V43.5309Z" fill="#C3DFE8"/>
<path opacity="0.1" d="M30.3708 44.542V78.9214H3.72876C3.72876 78.8221 3.74719 78.7205 3.75509 78.6212C3.77879 78.3494 3.80249 78.0776 3.82883 77.8082C3.8578 77.4914 3.8894 77.1724 3.92363 76.8628C3.95786 76.5531 3.99473 76.175 4.03423 75.8323C4.07373 75.4896 4.1106 75.1421 4.15537 74.7994C4.20014 74.4567 4.23964 74.114 4.28704 73.7737C4.33444 73.4333 4.37657 73.0883 4.42661 72.7479C4.46611 72.4643 4.50824 72.183 4.55038 71.8994C4.61094 71.5 4.67415 71.0982 4.74261 70.7011C4.74261 70.642 4.76105 70.5806 4.77158 70.5239C5.25222 67.6172 5.90713 64.7358 6.73346 61.8924C7.59842 58.9096 8.70294 55.987 10.0384 53.1475C11.4577 50.177 13.1195 47.3046 15.0102 44.5538L30.3708 44.542Z" fill="#C3DFE8"/>
<path opacity="0.1" d="M36.7515 79.9315V112.628H93.8354V79.9315H36.7515ZM36.7515 113.637V141.716C37.078 141.777 37.4019 141.836 37.7232 141.886C38.1603 141.961 38.5948 142.03 39.0399 142.089C39.1241 142.101 39.2111 142.113 39.3032 142.12C39.477 142.146 39.6561 142.167 39.8299 142.188C40.2697 142.243 40.7068 142.287 41.1466 142.323C41.3546 142.342 41.5653 142.358 41.776 142.373L42.2842 142.408C42.5607 142.427 42.8346 142.441 43.1058 142.448C43.2744 142.448 43.4429 142.462 43.6167 142.467C43.7484 142.467 43.88 142.467 44.017 142.467C44.1539 142.467 44.3488 142.467 44.5147 142.467C44.7412 142.467 44.9676 142.467 45.1915 142.467H45.4943C45.7208 142.467 45.9473 142.467 46.1711 142.448H46.1869C46.3423 142.448 46.5003 142.448 46.6583 142.429C46.7021 142.432 46.7461 142.432 46.7899 142.429C46.9216 142.429 47.0533 142.429 47.1797 142.413H47.2719L48.154 142.351C48.4437 142.328 48.736 142.297 49.031 142.269L49.6314 142.205C52.074 141.898 54.4896 141.436 56.86 140.824C62.1847 139.491 67.3936 137.627 72.7157 136.261C79.5967 134.5 87.1993 133.635 93.8486 135.788V113.637H36.7515ZM93.8354 43.5313V0.00288865C87.5857 -0.0578823 81.3529 0.598177 75.2885 1.95513C60.8338 5.21439 47.8644 12.2836 36.7515 21.3121V43.529H39.6166V44.5382H36.7515V78.9223H93.8354V44.5405H51.3799V43.5313H93.8354ZM167.157 28.828C163.581 28.7146 160.026 27.6983 156.81 26.1289C150.661 23.1273 145.75 18.4925 140.262 14.5809C128.86 6.43395 114.718 1.51789 100.211 0.298325V43.5313H181.701L181.904 43.3399L167.157 28.828ZM174.58 27.6463L182.452 35.3985V25.6137C179.816 25.9068 177.506 26.604 174.591 27.6368L174.58 27.6463ZM182.452 148.688V113.637H165.68C165.635 113.488 165.59 113.337 165.537 113.186C165.587 113.337 165.63 113.488 165.677 113.637H100.221V138.986C100.843 139.399 101.456 139.834 102.065 140.276C102.72 140.749 103.368 141.248 104.019 141.737L104.674 142.224C104.988 142.46 105.304 142.696 105.622 142.919C106.254 143.379 106.893 143.832 107.537 144.28C107.856 144.516 108.182 144.729 108.506 144.951C113.648 148.48 119.073 151.664 124.736 154.478C126.005 155.109 127.286 155.724 128.578 156.324C129.439 156.719 130.305 157.111 131.174 157.492C132.48 158.064 133.797 158.615 135.124 159.146C147.361 164.076 160.3 167.459 173.572 169.198C176.519 169.589 179.479 169.896 182.449 170.12V148.685H182.712L182.452 148.688ZM100.221 44.5405V78.9223H182.462V44.5405H100.221ZM100.221 79.9315V112.628H182.462V79.9315H100.221ZM188.845 25.5711V36.4858L198.892 26.5922C195.563 26.11 192.214 25.7657 188.845 25.5593V25.5711ZM188.845 79.9433V112.628H268.835V79.9315L188.845 79.9433ZM268.542 151.283L268.824 113.637H188.845V170.496C193.998 170.69 199.158 170.635 204.303 170.33H204.393C206.851 170.192 209.297 169.99 211.732 169.725H211.788C224.778 168.368 237.481 165.326 249.498 160.694L268.542 151.283ZM284.258 85.3155C283.958 84.6797 283.645 84.0487 283.326 83.4247C282.731 82.243 282.102 81.0943 281.454 79.9456H275.213V112.628H290.992C290.984 103.373 288.374 93.9186 284.266 85.3037L284.258 85.3155ZM275.213 113.649V146.029C279.658 142.205 283.413 137.83 286.118 132.829C289.37 126.807 290.858 120.286 290.979 113.644L275.213 113.649ZM275.213 70.416V78.9246H280.869C279.158 75.9956 277.272 73.1514 275.221 70.4042L275.213 70.416ZM220.965 31.9857C220.549 31.8439 220.133 31.6997 219.714 31.5602C215.298 30.0966 210.786 28.8794 206.202 27.9157L190.828 43.0586L190.533 43.3399L190.731 43.5337H245.448C237.827 38.8257 229.611 34.9454 220.973 31.9739L220.965 31.9857ZM247.051 44.5524H189.967L188.845 45.4741V78.9223H198.679H198.694H268.845V62.7205C262.499 55.8323 255.175 49.7203 247.059 44.5405L247.051 44.5524Z" fill="#E8DBC3"/>
<path opacity="0.1" d="M30.3708 61.8838V78.9222H3.72876C3.72876 78.8229 3.74719 78.7213 3.75509 78.622C3.77879 78.3502 3.80249 78.0784 3.82883 77.809C3.8578 77.4923 3.8894 77.1732 3.92363 76.8636C3.95786 76.554 3.99473 76.1758 4.03423 75.8331C4.07373 75.4904 4.1106 75.143 4.15537 74.8003C4.20014 74.4576 4.23964 74.1149 4.28704 73.7745C4.33444 73.4342 4.37657 73.0891 4.42661 72.7488C4.46611 72.4651 4.50824 72.1839 4.55038 71.9003C4.61094 71.5008 4.67415 71.099 4.74261 70.702C4.74261 70.6429 4.76105 70.5814 4.77158 70.5247C5.25222 67.618 5.90713 64.7367 6.73346 61.8932L30.3708 61.8838Z" fill="#C3DFE8"/>
<path opacity="0.1" d="M3.64467 79.9336H30.3709V112.628H5.60128C5.53544 112.963 5.47224 113.301 5.40377 113.639H30.3709V140.007C30.3262 139.995 30.2867 139.981 30.2445 139.966C29.5388 139.716 28.8383 139.451 28.1378 139.167L27.6901 138.985C26.9879 138.688 26.2857 138.373 25.5834 138.04C25.3385 137.924 25.0936 137.804 24.8514 137.681C20.9528 135.721 17.4112 133.237 14.3494 130.316C14.2599 130.238 14.1756 130.155 14.0861 130.08C13.6594 129.664 13.2407 129.243 12.8352 128.813L12.3875 128.34C11.9082 127.813 11.4448 127.272 10.9945 126.724C10.9286 126.643 10.8654 126.563 10.797 126.487C8.96555 124.208 7.44491 121.741 6.26752 119.137C6.23066 119.059 6.19906 118.974 6.16482 118.901C5.80317 118.065 5.48277 117.222 5.20363 116.372C5.0825 116.015 4.96663 115.663 4.86656 115.291C4.82969 115.183 4.79809 115.076 4.76913 114.97C3.27336 109.73 3.09692 104.287 3.09692 98.8817C3.09692 98.2507 3.09692 97.6173 3.09692 96.9909C3.09692 94.8047 3.12589 92.6043 3.16803 90.4062C3.16803 89.8366 3.19436 89.2694 3.20753 88.6974C3.24439 87.2462 3.29706 85.7951 3.36553 84.3439C3.38133 83.9397 3.4024 83.5379 3.4261 83.1361C3.4261 82.9045 3.43926 82.6729 3.4656 82.4413C3.5288 81.5999 3.58147 80.7655 3.64467 79.9336Z" fill="#C3DFE8"/>
<path opacity="0.1" d="M56.8469 49.4632V78.9218H36.7515V49.4632H39.6166V39.4893H51.3773V49.4632H56.8469Z" fill="#C3DFE8"/>
<path opacity="0.1" d="M56.8469 79.9307H36.7542V112.625H56.8469V79.9307Z" fill="#C3DFE8"/>
<path opacity="0.1" d="M36.7515 113.64H56.8469V140.82C54.4764 141.431 52.0609 141.892 49.6182 142.198L49.0178 142.264C48.7229 142.295 48.4305 142.321 48.1409 142.347C47.8512 142.373 47.551 142.392 47.2587 142.408H47.1665C47.0401 142.408 46.9032 142.422 46.7794 142.425H46.6451C46.4871 142.425 46.3291 142.439 46.1711 142.444C45.9473 142.455 45.7234 142.458 45.4943 142.46C45.3969 142.46 45.3047 142.46 45.2073 142.46C44.9808 142.46 44.757 142.46 44.5305 142.46H44.0328C43.8985 142.46 43.7694 142.46 43.6299 142.46L43.1216 142.444C42.8583 142.444 42.5739 142.418 42.3 142.401L41.7944 142.368L41.165 142.316C40.7226 142.28 40.2828 142.236 39.8483 142.181L39.3217 142.115L39.0583 142.082C38.6185 142.02 38.184 141.954 37.7416 141.879C37.4177 141.829 37.0964 141.768 36.7699 141.708L36.7515 113.64Z" fill="#C3DFE8"/>
<path opacity="0.1" d="M182.462 45.9844H165.893V78.9196H182.462V45.9844Z" fill="#C3DFE8"/>
<path opacity="0.1" d="M182.465 79.9307V112.627H100.221V98.5243H144.028V106.844H165.893V79.9307H182.465Z" fill="#C3DFE8"/>
<path opacity="0.1" d="M182.725 148.694H182.462V170.143C179.495 169.918 176.537 169.611 173.588 169.224C160.309 167.479 147.365 164.089 135.124 159.15C131.59 157.723 128.128 156.164 124.738 154.475C119.076 151.66 113.65 148.475 108.506 144.948C107.214 144.059 105.939 143.15 104.68 142.221C103.808 141.575 102.942 140.914 102.065 140.271C101.456 139.829 100.843 139.394 100.221 138.978V113.639H165.674C165.63 113.488 165.585 113.336 165.537 113.188C165.587 113.336 165.635 113.488 165.68 113.639H182.462V148.68C182.552 148.682 182.639 148.69 182.725 148.694Z" fill="#C3DFE8"/>
<path opacity="0.1" d="M225.676 43.5304H214.879V40.5193H219.719V31.5498C220.139 31.6869 220.557 31.8279 220.973 31.9729V40.5193H225.676V43.5304Z" fill="#C3DFE8"/>
<path opacity="0.1" d="M251.689 78.9214H198.684C198.684 78.9214 198.684 78.9214 198.702 78.9332L198.679 78.9214H188.845V45.9861H191.632V70.3301H204.364V55.9128H214.882V44.542H225.679V55.9222H236.196V70.3395H251.689V78.9214Z" fill="#C3DFE8"/>
<path opacity="0.1" d="M188.845 79.9307V112.627H251.689V79.9307H188.845ZM268.748 151.114L268.835 125.234H251.689V113.653H188.845V170.495C193.998 170.689 199.158 170.634 204.303 170.329H204.393C206.851 170.191 209.297 169.989 211.732 169.724H211.788C224.778 168.368 237.481 165.326 249.498 160.694" fill="#C3DFE8"/>
<path opacity="0.1" d="M276.329 113.64H290.989C290.86 120.279 289.375 126.8 286.126 132.822C283.421 137.825 279.663 142.2 275.223 146.022V125.223H276.329V113.64Z" fill="#C3DFE8"/>
<path opacity="0.1" d="M290.997 112.627H276.329V85.3027H284.266C288.374 93.9177 290.984 103.372 290.997 112.627Z" fill="#C3DFE8"/>
<path opacity="0.1" d="M182.465 55.1406H173.588V65.4667H182.465V55.1406Z" fill="#C3DFE8"/>
<path opacity="0.1" d="M182.465 76.5439H173.588V78.9216H182.465V76.5439Z" fill="#C3DFE8"/>
<path opacity="0.1" d="M182.465 79.9307H173.588V86.8675H182.465V79.9307Z" fill="#C3DFE8"/>
<path opacity="0.1" d="M182.465 97.9482H173.588V108.274H182.465V97.9482Z" fill="#C3DFE8"/>
<path opacity="0.1" d="M182.465 119.352H173.588V129.678H182.465V119.352Z" fill="#C3DFE8"/>
<path opacity="0.1" d="M182.462 148.68C182.552 148.68 182.639 148.68 182.726 148.694H182.462V151.093H173.588V140.755H182.462V148.68Z" fill="#C3DFE8"/>
<path opacity="0.1" d="M182.462 162.154V170.131C179.495 169.906 176.537 169.599 173.588 169.212V162.154H182.462Z" fill="#C3DFE8"/>
<path opacity="0.1" d="M138.266 111.868H100.221V112.627H138.266V111.868Z" fill="#C3DFE8"/>
<path opacity="0.1" d="M138.266 113.637H100.221V116.544H138.266V113.637Z" fill="#C3DFE8"/>
<path opacity="0.1" d="M138.266 126.073H100.221V130.748H138.266V126.073Z" fill="#C3DFE8"/>
<path opacity="0.1" d="M138.263 140.278V144.953H108.506C107.214 144.068 105.938 143.159 104.677 142.226C103.806 141.581 102.942 140.919 102.062 140.278H138.263Z" fill="#C3DFE8"/>
<path opacity="0.1" d="M138.263 154.48V159.15H135.122C131.591 157.721 128.13 156.162 124.738 154.473L138.263 154.48Z" fill="#C3DFE8"/>
<path opacity="0.1" d="M211.795 83.1006H204.306V89.8223H211.795V83.1006Z" fill="#C3DFE8"/>
<path opacity="0.1" d="M49.6368 51.7822H42.1475V58.504H49.6368V51.7822Z" fill="#C3DFE8"/>
<path opacity="0.1" d="M49.6368 67.3945H42.1475V74.1163H49.6368V67.3945Z" fill="#C3DFE8"/>
<path opacity="0.1" d="M49.6368 83.0078H42.1475V89.7296H49.6368V83.0078Z" fill="#C3DFE8"/>
<path opacity="0.1" d="M49.6368 98.6191H42.1475V105.341H49.6368V98.6191Z" fill="#C3DFE8"/>
<path opacity="0.1" d="M49.6368 114.232H42.1475V120.954H49.6368V114.232Z" fill="#C3DFE8"/>
<path opacity="0.1" d="M49.6368 129.846H42.1475V136.567H49.6368V129.846Z" fill="#C3DFE8"/>
<path opacity="0.1" d="M240.386 83.1006H232.897V89.8223H240.386V83.1006Z" fill="#C3DFE8"/>
<path opacity="0.1" d="M211.795 99.6807H204.306V106.402H211.795V99.6807Z" fill="#C3DFE8"/>
<path opacity="0.1" d="M240.386 99.6807H232.897V106.402H240.386V99.6807Z" fill="#C3DFE8"/>
<path opacity="0.1" d="M211.795 116.258H204.306V122.98H211.795V116.258Z" fill="#C3DFE8"/>
<path opacity="0.1" d="M240.386 116.258H232.897V122.98H240.386V116.258Z" fill="#C3DFE8"/>
<path opacity="0.1" d="M211.795 132.838H204.306V139.56H211.795V132.838Z" fill="#C3DFE8"/>
<path opacity="0.1" d="M240.386 132.838H232.897V139.56H240.386V132.838Z" fill="#C3DFE8"/>
<path opacity="0.1" d="M211.795 149.418H204.306V156.14H211.795V149.418Z" fill="#C3DFE8"/>
<path opacity="0.1" d="M240.386 149.418H232.897V156.14H240.386V149.418Z" fill="#C3DFE8"/>
<path opacity="0.1" d="M204.306 170.33V165.995H211.793V169.713L204.306 170.33Z" fill="#C3DFE8"/>
<path opacity="0.1" d="M4.74023 70.5195V74.3649H30.371V70.5195H4.74023ZM7.29462 74.1239H5.20371V70.7559H7.31042L7.29462 74.1239ZM9.84637 74.1239H7.73966V70.7559H9.84637V74.1239ZM12.3929 74.1239H10.2862V70.7559H12.3929V74.1239ZM14.9446 74.1239H12.8405V70.7559H14.9472L14.9446 74.1239ZM17.4937 74.1239H15.387V70.7559H17.4937V74.1239ZM20.0455 74.1239H17.9388V70.7559H20.0455V74.1239ZM22.5972 74.1239H20.4905V70.7559H22.5972V74.1239ZM25.1464 74.1239H23.0397V70.7559H25.1464V74.1239ZM27.6955 74.1239H25.5888V70.7559H27.6955V74.1239ZM30.2446 74.1239H28.1379V70.7559H30.2446V74.1239Z" fill="#C3DFE8"/>
<path opacity="0.1" d="M4.74023 81.708V85.5534H30.371V81.708H4.74023ZM7.29462 85.31H5.20371V81.9514H7.31042L7.29462 85.31ZM9.84637 85.31H7.73966V81.9514H9.84637V85.31ZM12.3929 85.31H10.2862V81.9514H12.3929V85.31ZM14.9446 85.31H12.8405V81.9514H14.9472L14.9446 85.31ZM17.4937 85.31H15.387V81.9514H17.4937V85.31ZM20.0455 85.31H17.9388V81.9514H20.0455V85.31ZM22.5972 85.31H20.4905V81.9514H22.5972V85.31ZM25.1464 85.31H23.0397V81.9514H25.1464V85.31ZM27.6955 85.31H25.5888V81.9514H27.6955V85.31ZM30.2446 85.31H28.1379V81.9514H30.2446V85.31Z" fill="#C3DFE8"/>
<path opacity="0.1" d="M4.74023 92.9014V96.7539H30.371V92.9014H4.74023ZM7.29462 96.5033H5.20371V93.1424H7.31042L7.29462 96.5033ZM9.84637 96.5033H7.73966V93.1424H9.84637V96.5033ZM12.3929 96.5033H10.2862V93.1424H12.3929V96.5033ZM14.9446 96.5033H12.8405V93.1424H14.9472L14.9446 96.5033ZM17.4937 96.5033H15.387V93.1424H17.4937V96.5033ZM20.0455 96.5033H17.9388V93.1424H20.0455V96.5033ZM22.5972 96.5033H20.4905V93.1424H22.5972V96.5033ZM25.1464 96.5033H23.0397V93.1424H25.1464V96.5033ZM27.6955 96.5033H25.5888V93.1424H27.6955V96.5033ZM30.2446 96.5033H28.1379V93.1424H30.2446V96.5033Z" fill="#C3DFE8"/>
<path opacity="0.1" d="M4.74023 104.096V107.936H30.371V104.096H4.74023ZM7.29462 107.698H5.20371V104.334H7.31042L7.29462 107.698ZM9.84637 107.698H7.73966V104.334H9.84637V107.698ZM12.3929 107.698H10.2862V104.334H12.3929V107.698ZM14.9446 107.698H12.8405V104.334H14.9472L14.9446 107.698ZM17.4937 107.698H15.387V104.334H17.4937V107.698ZM20.0455 107.698H17.9388V104.334H20.0455V107.698ZM22.5972 107.698H20.4905V104.334H22.5972V107.698ZM25.1464 107.698H23.0397V104.334H25.1464V107.698ZM27.6955 107.698H25.5888V104.334H27.6955V107.698ZM30.2446 107.698H28.1379V104.334H30.2446V107.698Z" fill="#C3DFE8"/>
<path opacity="0.1" d="M4.85059 115.286C4.95329 115.648 5.06916 116.009 5.19029 116.366V115.527H7.297V118.888H6.16991C6.20415 118.966 6.23838 119.051 6.27261 119.124H30.3708V115.286H4.85059ZM9.85403 118.888H7.74731V115.527H9.85403V118.888ZM12.4005 118.888H10.2938V115.527H12.4005V118.888ZM14.9523 118.888H12.8403V115.527H14.947L14.9523 118.888ZM17.5014 118.888H15.3947V115.527H17.5014V118.888ZM20.0531 118.888H17.9464V115.527H20.0531V118.888ZM22.6049 118.888H20.4982V115.527H22.6049V118.888ZM25.154 118.888H23.0473V115.527H25.154V118.888ZM27.7031 118.888H25.5964V115.527H27.7031V118.888ZM30.2523 118.888H28.1455V115.527H30.2523V118.888Z" fill="#C3DFE8"/>
<path opacity="0.1" d="M10.8022 126.48C10.8681 126.556 10.9313 126.641 10.9998 126.717H12.3928V128.331C12.5429 128.492 12.6904 128.653 12.8431 128.804V126.707H14.9498V130.08H14.0966C14.1809 130.158 14.2625 130.241 14.36 130.316H30.3789V126.48H10.8022ZM17.4937 130.08H15.387V126.722H17.4937V130.08ZM20.0454 130.08H17.9387V126.722H20.0454V130.08ZM22.5972 130.08H20.4905V126.722H22.5972V130.08ZM25.1463 130.08H23.0396V126.722H25.1463V130.08ZM27.6954 130.08H25.5887V126.722H27.6954V130.08ZM30.2446 130.08H28.1378V126.722H30.2446V130.08Z" fill="#C3DFE8"/>
<path opacity="0.1" d="M24.8618 137.671C25.1015 137.794 25.3464 137.907 25.5939 138.03V137.912H27.7006V138.976L28.1483 139.162V137.912H30.255V139.956C30.2954 139.974 30.3378 139.989 30.3814 139.999V137.671H24.8618Z" fill="#C3DFE8"/>
<path opacity="0.1" d="M198.684 78.9215H198.7H198.684ZM182.462 148.678H182.726H182.462ZM165.537 113.185C165.587 113.336 165.63 113.488 165.677 113.636C165.635 113.488 165.59 113.336 165.537 113.185ZM198.684 78.9144H198.7H198.684ZM39.6272 43.5234V44.5326H51.3905V43.5234H39.6272ZM182.462 148.678H182.726H182.462ZM165.537 113.185C165.587 113.336 165.63 113.488 165.677 113.636C165.635 113.488 165.59 113.336 165.537 113.185ZM198.684 78.9144H198.7H198.684ZM182.462 148.67H182.726H182.462ZM165.537 113.185C165.587 113.336 165.63 113.488 165.677 113.636C165.635 113.488 165.59 113.336 165.537 113.185Z" fill="#C3DFE8"/>
<path d="M121.557 89.7343C121.557 89.7343 120.52 89.6043 120.52 88.2477C120.52 86.891 119.777 84.3573 119.777 84.3573C119.777 84.3455 119.135 79.9447 118.247 79.2451C117.36 78.5455 116.219 74.4378 116.219 74.4378C116.219 74.4378 116.025 72.209 115.627 71.7292C115.229 71.2494 114.692 70.0748 113.899 68.399C113.107 66.7233 109.802 65.5629 109.802 65.5629C109.802 65.5629 103.827 62.4525 102.133 61.4386C101.98 61.3552 101.836 61.2578 101.704 61.1478C101.409 60.8004 100.124 60.7933 100.124 60.7933C99.9899 60.0323 99.8608 59.1578 99.8187 58.366C99.8187 58.2809 99.8187 58.1958 99.8055 58.1108C101.694 57.1091 103.116 55.5297 103.811 53.6627C103.843 53.5729 103.869 53.4783 103.898 53.3885C104.011 53.3551 104.115 53.3008 104.203 53.2292C104.292 53.1575 104.363 53.0701 104.411 52.9725C104.564 52.6676 104.567 52.3107 104.756 52.0271C104.978 51.6915 105.399 51.5119 105.731 51.259C106.568 50.6209 106.784 49.5455 106.744 48.567C106.718 47.7752 106.576 46.9763 106.631 46.1893L106.647 45.9908C106.663 45.8726 106.681 45.7544 106.705 45.641C106.834 45.0548 107.116 44.5018 107.274 43.9204C107.432 43.3389 107.448 42.6842 107.079 42.1832C106.539 41.4481 105.415 41.3016 104.427 41.226C103.308 41.1409 102.307 41.252 101.591 40.4177C101.256 39.9816 100.879 39.5727 100.464 39.1957C100.316 39.0728 98.8838 38.2881 98.8838 38.2361C97.4857 37.6549 95.9008 37.5459 94.4202 37.9289C93.6776 38.1227 92.9771 38.4394 92.224 38.5978C90.5992 38.9428 88.7295 38.5694 87.3496 39.4037C86.5806 39.8764 86.1198 40.628 85.6879 41.3607C85.3368 41.9642 84.9804 42.5669 84.6188 43.1688C84.0368 44.1591 83.4443 45.1659 83.1994 46.2626C83.1479 46.5012 83.1162 46.7429 83.1046 46.9858V46.9976C83.1046 47.0851 83.1046 47.1725 83.1046 47.26V47.371C83.1046 47.4538 83.1046 47.5341 83.1204 47.6074C83.1362 47.6807 83.1335 47.7043 83.1414 47.7539C83.1493 47.8036 83.1625 47.9146 83.1783 47.9903C83.1941 48.0659 83.2257 48.1983 83.2573 48.3023C83.2705 48.3472 83.2889 48.3897 83.3047 48.4323C83.331 48.5126 83.3626 48.5906 83.3969 48.6686C83.4153 48.7088 83.4337 48.7513 83.4548 48.7915C83.4943 48.8742 83.5417 48.9546 83.5891 49.0279C83.6102 49.0609 83.626 49.0917 83.6471 49.1224C83.7205 49.2323 83.8014 49.3381 83.8893 49.4391C84.4529 50.0702 85.2824 50.4719 85.896 51.0628C85.896 51.0865 85.896 51.1101 85.896 51.1314C85.896 51.1975 85.896 51.2614 85.896 51.3275C85.9285 52.6453 86.3193 53.936 87.0344 55.0873C87.7494 56.2386 88.7671 57.2157 89.9988 57.9335C89.9988 58.0233 90.012 58.1155 90.0172 58.2053C90.0686 58.9069 90.0589 59.611 89.9882 60.3112C89.881 60.1978 89.7468 60.1075 89.5955 60.047C89.4441 59.9864 89.2796 59.9572 89.114 59.9614C89.0008 59.9564 88.8874 59.9652 88.7769 59.9874L88.7532 59.9708V59.9921C88.1738 60.1197 87.4602 60.661 86.7781 62.1996C86.7781 62.1996 84.703 64.2984 83.123 64.2109C81.543 64.1235 77.5429 66.3948 77.5429 66.3948C77.5429 66.3948 73.6402 68.6685 72.8028 70.9847C72.3347 72.2981 71.7735 73.5833 71.1227 74.8325L66.2983 83.7547L65.4082 90.8333C65.4082 90.8333 65.9006 93.9815 65.8032 94.4613C65.7058 94.9411 67.8283 99.2686 67.8283 99.2686C67.8283 99.2686 74.841 110.327 77.7061 110.895L77.9115 110.765C78.0341 110.822 78.1641 110.866 78.2986 110.895L78.8885 110.521C78.9239 110.937 78.9089 111.356 78.8438 111.769C78.4487 112.861 78.9912 119.987 79.6812 121.384C80.3711 122.781 80.1262 141.095 80.1262 141.095L80.0288 142.712C80.0288 142.712 80.0288 142.764 80.0525 142.854L80.0288 143.237L80.0999 143.27C80.1737 143.783 80.1497 144.303 80.0288 144.808C79.7812 145.517 79.6812 147.522 79.6812 147.522C79.6812 147.522 77.7088 158.838 78.6436 161.112C79.5785 163.385 80.3738 165.877 80.3738 165.877C80.3738 165.877 81.3613 168.713 80.4212 169.197C79.481 169.682 76.8081 170.495 77.3585 171.677C77.8589 172.769 79.7575 175.695 80.0393 176.122L80.0156 176.347L79.6285 180.112C79.6912 180.609 79.8414 181.094 80.0735 181.549C80.4975 182.369 81.3218 183.22 82.8886 183.128C83.152 183.111 83.4574 183.083 83.7524 183.047C86.6201 182.702 90.1515 181.554 90.1515 181.554C89.9682 181.449 89.8001 181.324 89.6512 181.183C89.5102 181.06 89.3985 180.913 89.3229 180.75C89.2473 180.588 89.2094 180.413 89.2114 180.237C89.2535 179.552 87.8236 176.285 87.4681 175.482C87.4128 175.366 87.3838 175.3 87.3838 175.3C87.3838 175.3 90.644 172.241 90.1015 169.531C90.1015 169.531 86.4937 167.64 87.6814 166.602C88.8691 165.565 90.9916 162.584 90.9916 162.584C90.9916 162.584 91.089 151.44 90.9916 149.776C90.8899 148.622 90.951 147.46 91.1733 146.319C91.2128 146.146 91.2602 145.978 91.3102 145.813C92.9527 146.033 94.6108 146.146 96.2715 146.151C96.8772 146.151 97.4934 146.151 98.1149 146.118C98.1149 146.275 98.1228 146.446 98.1386 146.628C98.2755 149.389 98.531 154.229 98.739 156.028C99.0339 158.606 100.664 165.555 100.664 165.555C100.664 165.555 97.554 167.347 101.206 171.762C101.206 171.762 101.206 173.362 100.964 173.593C100.706 174.351 100.497 175.121 100.34 175.9C100.187 176.732 100.124 177.573 100.372 178.011C100.964 179.055 104.519 178.97 104.519 178.97L104.606 178.956C105.277 178.894 105.956 178.952 106.602 179.127C107.248 179.302 107.848 179.59 108.369 179.975C109.72 180.949 114.847 180.521 117.623 180.211C118.711 180.088 119.437 179.975 119.437 179.975C119.473 179.864 119.485 179.749 119.474 179.634C119.445 179.022 118.911 177.68 115.287 176.482C115.287 176.482 111.88 174.425 111.927 172.634H111.856H111.461C111.748 172.62 111.932 172.634 111.932 172.634C111.932 172.634 110.597 168.261 111.142 167.907C111.687 167.552 110.055 162.707 110.055 162.707C110.055 162.707 109.12 154.577 109.07 154.007C109.072 153.518 109.154 153.033 109.315 152.565L109.07 148.108C109.07 148.108 109.022 146.626 109.07 146.144C109.062 145.725 109.024 145.308 108.957 144.893C108.933 144.728 108.909 144.556 108.883 144.385C110.16 144.095 110.99 143.825 110.99 143.825L110.842 128.309C111.927 126.418 112.127 122.27 112.122 119.328C112.122 117.437 112.027 116.038 112.027 116.038L113.51 113.866C113.51 113.866 113.852 111.266 113.31 110.696C113.07 110.438 113.178 110.171 113.375 109.952C113.478 109.879 113.586 109.812 113.699 109.753C113.699 109.753 113.683 109.732 113.665 109.701C113.769 109.623 113.879 109.553 113.994 109.491C113.994 109.491 113.468 108.758 113.939 108.448C114.381 108.718 114.776 108.921 115.077 109.087C115.055 109.259 115.034 109.358 115.034 109.358L115.161 109.122C115.45 109.269 115.627 109.358 115.627 109.358C115.627 109.358 117.95 105.206 117.9 104.594C117.85 103.981 119.48 101.403 119.48 101.403C119.48 101.403 119.677 100.049 120.567 99.4813C121.457 98.9141 121.257 94.804 121.257 94.804C121.257 94.804 121.505 92.6627 122.097 91.7882C122.69 90.9137 121.557 89.7343 121.557 89.7343ZM77.1162 87.912L77.161 88.9023C76.8977 88.5218 76.7081 88.2477 76.7081 88.2477L77.1162 87.912Z" fill="url(#paint0_linear_385_3772)"/>
<path d="M115.753 107.565L115.184 109.739C115.184 109.739 110.629 107.652 109.807 105C108.985 102.349 111.182 101.342 111.182 101.342L115.427 102.956L115.753 107.565Z" fill="white"/>
<path opacity="0.1" d="M115.753 107.565L115.184 109.739C115.184 109.739 110.629 107.652 109.807 105C108.985 102.349 111.182 101.342 111.182 101.342L115.427 102.956L115.753 107.565Z" fill="black"/>
<path d="M90.1858 181.568C90.1858 181.568 85.9723 182.958 83.0756 183.133C81.5377 183.225 80.7292 182.379 80.3132 181.563C80.0859 181.11 79.9393 180.628 79.8787 180.134L80.2552 176.387L80.4554 174.393L86.6096 172.958L87.4813 175.35L87.5629 175.532C87.9131 176.331 89.3167 179.58 89.2746 180.259C89.2729 180.432 89.3102 180.605 89.3845 180.765C89.4587 180.926 89.5682 181.071 89.7065 181.192C89.8478 181.335 90.0088 181.462 90.1858 181.568Z" fill="white"/>
<path d="M118.966 179.663C118.977 179.777 118.964 179.892 118.929 180.001C118.929 180.001 109.918 181.351 108.074 180.001C107.555 179.607 106.949 179.315 106.296 179.143C105.643 178.971 104.957 178.924 104.282 179.004C104.282 179.004 100.796 179.089 100.214 178.059C99.9714 177.626 100.035 176.787 100.185 175.96C100.338 175.185 100.542 174.418 100.796 173.665L100.935 173.566L101.765 172.968L111.477 172.71H111.55C111.503 174.492 114.847 176.536 114.847 176.536C118.4 177.718 118.924 179.054 118.966 179.663Z" fill="white"/>
<path opacity="0.1" d="M118.966 179.664C118.975 179.777 118.962 179.892 118.927 180.002C118.927 180.002 109.918 181.351 108.074 180.002C107.555 179.608 106.95 179.315 106.297 179.144C105.644 178.972 104.959 178.924 104.285 179.004C104.285 179.004 100.796 179.089 100.216 178.059C99.9741 177.624 100.035 176.787 100.185 175.96C101.528 176.08 103.648 176.381 104.48 177.097C105.739 178.186 107.872 179.274 109.18 179.359C110.205 179.418 116.333 179.593 118.966 179.664Z" fill="black"/>
<path opacity="0.1" d="M90.1856 181.568C90.1856 181.568 85.9722 182.958 83.0755 183.133C81.5376 183.225 80.7291 182.379 80.3157 181.561C81.3875 181.885 82.8753 182.225 83.6574 181.913C84.5844 181.544 87.8709 181.306 89.7142 181.204C89.8545 181.342 90.0128 181.464 90.1856 181.568Z" fill="black"/>
<path d="M96.4372 69.5745C92.9611 68.362 88.4896 64.3559 89.6062 62.484C89.8542 62.0117 90.0015 61.5018 90.0407 60.9808C90.1125 60.2736 90.1231 59.5624 90.0723 58.8537C89.994 57.693 89.8384 56.5376 89.6062 55.3936C89.6062 55.3936 100.458 55.6134 99.8264 57.048C99.642 57.4687 99.6131 58.199 99.6631 59.0168C99.7131 59.8345 99.8448 60.7587 99.9818 61.541C100.171 62.614 100.361 63.4318 100.361 63.4318C100.361 63.4318 99.6973 64.2661 99.3076 64.311C98.9179 64.3559 101.425 71.3022 96.4372 69.5745Z" fill="#CF6F80"/>
<path opacity="0.1" d="M87.555 175.532L87.4733 175.612C84.229 172.091 80.3052 176.48 80.3052 176.48L80.2473 176.387L80.4475 174.393L86.6017 172.958L87.4733 175.35L87.555 175.532Z" fill="black"/>
<path opacity="0.1" d="M111.553 172.958C111.553 172.958 109.183 172.913 107.919 173.915C106.655 174.917 100.545 174.132 100.809 173.915C100.887 173.807 100.934 173.684 100.946 173.556L101.775 172.958L111.487 172.7C111.524 172.859 111.553 172.958 111.553 172.958Z" fill="black"/>
<path d="M91.5919 145.303C91.4154 145.694 91.2813 146.1 91.1916 146.515C90.972 147.651 90.911 148.807 91.0099 149.956C91.1074 151.611 91.0099 162.698 91.0099 162.698C91.0099 162.698 88.9269 165.655 87.7656 166.697C86.6043 167.739 90.1356 169.611 90.1356 169.611C90.6623 172.306 87.4707 175.35 87.4707 175.35C84.2263 171.828 80.3026 176.219 80.3026 176.219C80.3026 176.219 78.1695 172.911 77.6376 171.729C77.1056 170.547 79.7206 169.729 80.6396 169.25C81.5587 168.77 80.5949 165.941 80.5949 165.941C80.5949 165.941 79.818 163.461 78.8963 161.2C77.9747 158.938 79.9128 147.678 79.9128 147.678C79.9128 147.678 80.0129 145.678 80.2525 144.981C80.3734 144.478 80.3975 143.96 80.3236 143.45C80.3078 143.277 80.2894 143.133 80.2762 143.036C80.2631 142.939 80.2525 142.894 80.2525 142.894L80.2894 142.838L81.6061 140.635C81.6061 140.635 92.2239 143.915 91.5919 145.303Z" fill="#C3DFE8"/>
<path d="M111.553 172.698C111.553 172.698 109.183 172.653 107.919 173.643C106.655 174.634 100.545 173.861 100.809 173.643C101.072 173.426 101.051 171.816 101.051 171.816C97.4669 167.425 100.524 165.643 100.524 165.643C100.524 165.643 98.9232 158.73 98.6335 156.165C98.4307 154.374 98.1806 149.559 98.0463 146.811C97.9883 145.629 97.9541 144.816 97.9541 144.816L100.882 144.286L101.259 144.218L108.322 142.946C108.322 142.946 108.517 144.128 108.648 145.095C108.714 145.507 108.751 145.923 108.759 146.34C108.711 146.813 108.759 148.293 108.759 148.293L108.999 152.729C108.842 153.194 108.761 153.677 108.759 154.163C108.806 154.728 109.725 162.816 109.725 162.816C109.725 162.816 111.324 167.642 110.779 167.99C110.234 168.337 111.553 172.698 111.553 172.698Z" fill="#C3DFE8"/>
<path opacity="0.1" d="M99.8264 57.048C99.642 57.4687 99.6131 58.199 99.6631 59.0168C98.2095 59.8024 96.5384 60.2041 94.8419 60.1756C93.1454 60.1472 91.4922 59.6898 90.0723 58.8561C89.9941 57.6946 89.8385 56.5383 89.6062 55.3936C89.6062 55.3936 100.458 55.6086 99.8264 57.048Z" fill="black"/>
<path d="M104.021 51.8248C104.024 52.6764 103.874 53.523 103.579 54.3324C102.919 56.1461 101.566 57.692 99.7594 58.697C97.9525 59.702 95.8079 60.1013 93.7047 59.8244C91.6014 59.5475 89.675 58.6122 88.2658 57.1838C86.8566 55.7554 86.0554 53.9259 86.0038 52.0186C86.0038 51.9524 86.0038 51.8909 86.0038 51.8248C85.9833 50.7512 86.2013 49.6847 86.6449 48.6875C87.0885 47.6903 87.7489 46.7823 88.5876 46.0166C89.4263 45.2509 90.4265 44.6427 91.5298 44.2276C92.6331 43.8124 93.8175 43.5986 95.0139 43.5986C96.2103 43.5986 97.3947 43.8124 98.498 44.2276C99.6013 44.6427 100.601 45.2509 101.44 46.0166C102.279 46.7823 102.939 47.6903 103.383 48.6875C103.827 49.6847 104.044 50.7512 104.024 51.8248H104.021Z" fill="#CF6F80"/>
<path opacity="0.1" d="M96.4372 69.5741C92.9611 68.3616 88.4896 64.3555 89.6062 62.4836C89.8542 62.0113 90.0015 61.5015 90.0407 60.9805L94.7992 64.4902L97.7434 66.6576L99.9818 61.543C100.171 62.616 100.361 63.4338 100.361 63.4338C100.361 63.4338 99.6973 64.2681 99.3076 64.313C98.9179 64.3579 101.425 71.3018 96.4372 69.5741Z" fill="black"/>
<path d="M108.743 85.0855L104.769 145L99.5867 145.305L86.167 110.564L88.3685 69.3187L88.832 60.6045L94.7992 65.0029L97.746 67.1703L100.05 61.9068L104.335 65.2582L108.743 85.0855Z" fill="#C3DFE8"/>
<path opacity="0.1" d="M91.5919 145.302C91.4154 145.694 91.2813 146.1 91.1916 146.515C87.4206 145.992 83.7581 144.965 80.3262 143.468L80.2551 143.435L80.2788 143.055L80.292 142.856L81.6087 140.653C81.6087 140.653 92.2239 143.915 91.5919 145.302Z" fill="black"/>
<path opacity="0.1" d="M100.943 146.524C99.9791 146.671 99.0068 146.771 98.0306 146.822C97.9727 145.64 97.9385 144.827 97.9385 144.827L100.867 144.298L100.943 146.524Z" fill="black"/>
<path opacity="0.1" d="M108.633 145.106C106.76 145.544 103.869 146.035 101.28 145.728L101.243 144.23L108.306 142.958C108.306 142.958 108.501 144.128 108.633 145.106Z" fill="black"/>
<path opacity="0.1" d="M101.233 146.002C90.4358 147.657 80.5474 142.913 80.5474 142.913L80.6422 141.306C80.6422 141.306 80.8871 123.086 80.2077 121.689C79.5283 120.292 78.999 113.209 79.3834 112.122C79.7679 111.035 77.9798 94.7311 77.9798 94.7311L77.6902 88.1134L67.0881 84.2585L71.8282 75.3907C72.4685 74.1474 73.0191 72.8685 73.4767 71.5618C74.301 69.2598 78.1273 66.9979 78.1273 66.9979C78.1273 66.9979 82.051 64.7384 83.6021 64.8235C85.1532 64.9086 87.1862 62.824 87.1862 62.824C88.6872 59.3898 90.046 60.945 90.046 60.945C90.046 61.1081 90.046 60.945 89.9723 61.4532C89.4456 65.2229 98.4887 77.1349 98.6177 77.3453L99.4788 96.1729L100.35 119.999L101.233 146.002Z" fill="black"/>
<path d="M100.943 146.003C90.1463 147.657 80.2553 142.914 80.2553 142.914L80.3527 141.307C80.3527 141.307 80.5976 123.086 79.9156 121.69C79.2335 120.293 78.7069 113.209 79.094 112.122C79.4811 111.035 77.6904 94.7317 77.6904 94.7317L77.3981 88.1139L66.7908 84.2448L71.5309 75.377C72.1697 74.1332 72.7203 72.8543 73.1794 71.5482C74.001 69.2461 77.8299 66.9843 77.8299 66.9843C77.8299 66.9843 81.7537 64.7248 83.3021 64.8098C84.8506 64.8949 86.8862 62.8103 86.8862 62.8103C88.3898 59.3762 90.0462 60.9314 90.0462 60.9314C90.0462 61.0944 89.8882 61.1677 89.9725 61.4395C91.1312 65.0958 98.1992 77.1213 98.3282 77.3316L99.1999 96.1592L100.072 119.986L100.943 146.003Z" fill="white"/>
<path opacity="0.1" d="M98.0332 77.8676C96.8719 77.4327 90.7203 71.1292 90.7203 71.1292V69.6946C90.4965 69.2219 89.1666 69.5103 88.0869 69.8411L88.5504 61.127L89.0771 61.5193C90.2305 65.1733 97.8989 77.6572 98.0332 77.8676Z" fill="black"/>
<path d="M98.3254 77.3451C97.1615 76.9102 91.0099 70.6068 91.0099 70.6068V69.1722C90.786 68.6995 89.4562 68.9878 88.3765 69.3187L88.8426 60.6045L89.3693 60.9968C90.5253 64.6508 98.1964 77.1371 98.3254 77.3451Z" fill="white"/>
<path opacity="0.1" d="M80.5473 108.782C80.6922 108.782 88.0551 108.087 88.0551 108.087C88.0551 108.087 92.5135 115.955 92.2212 117.869C91.9289 119.784 91.3996 121.478 89.6062 121.178C87.8129 120.878 79.9548 121.415 79.9548 121.415L80.5473 108.782Z" fill="black"/>
<path d="M80.2551 108.259C80.3999 108.259 87.7629 107.564 87.7629 107.564C87.7629 107.564 92.2186 115.435 91.9289 117.347C91.6393 119.259 91.1047 120.956 89.314 120.656C87.5233 120.356 79.6626 120.892 79.6626 120.892L80.2551 108.259Z" fill="white"/>
<path d="M85.8038 104.565C85.8038 104.565 92.5611 107.825 92.7059 108.82C92.8507 109.815 89.2667 108.385 88.4925 108.212C87.9829 108.102 87.4642 108.029 86.9414 107.995L81.7773 108.12L85.8038 104.565Z" fill="#CF6F80"/>
<path opacity="0.1" d="M96.1475 78.2743C96.5402 78.2743 96.8586 77.9886 96.8586 77.6362C96.8586 77.2838 96.5402 76.998 96.1475 76.998C95.7549 76.998 95.4365 77.2838 95.4365 77.6362C95.4365 77.9886 95.7549 78.2743 96.1475 78.2743Z" fill="black"/>
<path d="M96.1475 78.0146C96.5402 78.0146 96.8586 77.7289 96.8586 77.3764C96.8586 77.024 96.5402 76.7383 96.1475 76.7383C95.7549 76.7383 95.4365 77.024 95.4365 77.3764C95.4365 77.7289 95.7549 78.0146 96.1475 78.0146Z" fill="#3F3D56"/>
<path opacity="0.1" d="M97.4566 105.898C97.8493 105.898 98.1676 105.613 98.1676 105.26C98.1676 104.908 97.8493 104.622 97.4566 104.622C97.0639 104.622 96.7456 104.908 96.7456 105.26C96.7456 105.613 97.0639 105.898 97.4566 105.898Z" fill="black"/>
<path d="M97.4566 105.637C97.8493 105.637 98.1676 105.351 98.1676 104.999C98.1676 104.646 97.8493 104.36 97.4566 104.36C97.0639 104.36 96.7456 104.646 96.7456 104.999C96.7456 105.351 97.0639 105.637 97.4566 105.637Z" fill="#3F3D56"/>
<path opacity="0.1" d="M96.856 92.0868C97.2487 92.0868 97.5671 91.8011 97.5671 91.4487C97.5671 91.0963 97.2487 90.8105 96.856 90.8105C96.4634 90.8105 96.145 91.0963 96.145 91.4487C96.145 91.8011 96.4634 92.0868 96.856 92.0868Z" fill="black"/>
<path d="M96.856 91.8261C97.2487 91.8261 97.5671 91.5404 97.5671 91.1879C97.5671 90.8355 97.2487 90.5498 96.856 90.5498C96.4634 90.5498 96.145 90.8355 96.145 91.1879C96.145 91.5404 96.4634 91.8261 96.856 91.8261Z" fill="#3F3D56"/>
<path d="M113.246 107.863C113.246 107.863 113.731 108.515 113.246 108.82C112.762 109.125 113.294 109.862 113.294 109.862C113.294 109.862 112.085 110.498 112.617 111.07C113.149 111.642 112.812 114.225 112.812 114.225L111.358 116.386C111.358 116.386 111.445 117.778 111.45 119.659C111.45 122.594 111.258 126.721 110.194 128.602L110.342 144.038C110.342 144.038 105.251 145.707 100.99 145.199L100.358 120.429C100.358 120.429 101.28 106.383 101.62 103.689C101.819 102.29 101.9 100.88 101.862 99.47C101.862 99.47 101.717 95.2536 101.23 93.2966C101.23 93.2966 100.703 84.8187 100.651 82.4718C100.627 81.3491 100.693 78.0733 100.767 74.9582C100.848 71.5524 100.94 68.3405 100.94 68.3405L99.9792 61.5147C99.9792 61.5147 100.94 61.4272 101.23 61.7747C101.36 61.8835 101.501 61.9808 101.651 62.0654C103.31 63.0722 109.172 66.1684 109.172 66.1684C109.172 66.1684 112.417 67.3265 113.194 68.9857C113.97 70.6449 114.51 71.8219 114.887 72.2946C115.263 72.7673 115.469 74.989 115.469 74.989C115.469 74.989 116.585 79.0778 117.457 79.7703C118.329 80.4628 118.966 84.8684 118.966 84.8684L111.263 90.3044C111.263 90.3044 110.587 99.3471 110.442 99.6969C110.297 100.047 113.246 107.863 113.246 107.863Z" fill="white"/>
<path d="M113.538 107.863C113.538 107.863 114.02 108.515 113.538 108.82C113.057 109.125 113.583 109.862 113.583 109.862C113.583 109.862 112.382 110.505 112.909 111.077C113.436 111.649 113.104 114.232 113.104 114.232L111.65 116.393C111.65 116.393 111.737 117.785 111.745 119.666C111.745 122.602 111.553 126.728 110.489 128.61L110.634 144.046C110.634 144.046 105.536 145.714 101.28 145.206L100.651 120.437C100.651 120.437 101.572 106.39 101.912 103.696C102.111 102.297 102.191 100.887 102.152 99.4772C102.152 99.4772 102.007 95.2607 101.522 93.3037C101.522 93.3037 100.996 84.8259 100.94 82.479C100.917 81.3563 100.985 78.0805 101.056 74.9654C101.138 71.5596 101.23 68.3476 101.23 68.3476L99.9607 61.4297C99.9607 61.4297 101.23 61.4297 101.522 61.7818C101.651 61.8919 101.792 61.9894 101.944 62.0726C103.603 63.0794 109.467 66.1756 109.467 66.1756C109.467 66.1756 112.709 67.3337 113.486 68.9929C114.263 70.652 114.802 71.8291 115.182 72.3018C115.561 72.7745 115.761 74.9961 115.761 74.9961C115.761 74.9961 116.878 79.085 117.749 79.7775C118.621 80.47 119.25 84.8661 119.25 84.8661L111.548 90.3021C111.548 90.3021 110.871 99.3448 110.723 99.6946C110.576 100.044 113.538 107.863 113.538 107.863Z" fill="white"/>
<path opacity="0.1" d="M104.314 70.3542L105.009 72.1741L101.349 75.483C101.43 72.0796 101.522 68.8652 101.522 68.8652L100.253 61.9473C100.253 61.9473 101.522 61.9473 101.815 62.2994C101.943 62.4092 102.084 62.5059 102.236 62.5878L105.349 70.6473L104.314 70.3542Z" fill="black"/>
<path d="M104.021 69.8317L104.719 71.6516L101.059 74.9605C101.14 71.5547 101.233 68.3428 101.233 68.3428L99.9607 61.4248C99.9607 61.4248 101.233 61.4248 101.522 61.777C101.651 61.8864 101.793 61.9838 101.944 62.0677L105.059 70.1248L104.021 69.8317Z" fill="white"/>
<path opacity="0.1" d="M104.021 51.8248C104.024 52.6764 103.874 53.523 103.579 54.3324C103.529 54.3394 103.478 54.3373 103.43 54.3264C103.381 54.3154 103.335 54.2958 103.295 54.2686C103.226 52.1415 102.06 50.1443 100.624 48.445C100.221 47.9319 99.7329 47.4775 99.176 47.0978C98.6129 46.7182 97.9126 46.5404 97.2115 46.5991C96.4215 46.696 95.7236 47.1781 94.9257 47.2396C93.8723 47.3176 92.9296 46.6629 91.8841 46.6298C91.4591 46.6334 91.0399 46.7184 90.6543 46.8789C90.2688 47.0395 89.9258 47.272 89.6484 47.561C89.0991 48.1442 88.6911 48.8235 88.4502 49.5558C88.0361 50.6663 87.8106 51.8263 87.7813 52.997C87.7681 53.6588 87.697 54.4884 87.0124 54.7295C87.0639 54.2428 87.0023 53.7518 86.8314 53.2876C86.6605 52.8234 86.384 52.3961 86.0196 52.0327L86.0038 52.0186C86.0038 51.9524 86.0038 51.8909 86.0038 51.8248C85.9833 50.7512 86.2013 49.6847 86.6449 48.6875C87.0885 47.6903 87.7489 46.7823 88.5876 46.0166C89.4263 45.2509 90.4265 44.6427 91.5298 44.2276C92.6331 43.8124 93.8175 43.5986 95.0139 43.5986C96.2103 43.5986 97.3947 43.8124 98.498 44.2276C99.6013 44.6427 100.601 45.2509 101.44 46.0166C102.279 46.7823 102.939 47.6903 103.383 48.6875C103.827 49.6847 104.044 50.7512 104.024 51.8248H104.021Z" fill="black"/>
<path d="M98.7441 38.9837C97.3756 38.406 95.8192 38.2967 94.3674 38.6765C93.6379 38.8703 92.9506 39.1846 92.2106 39.343C90.6306 39.6857 88.7872 39.3146 87.431 40.1442C86.6779 40.6169 86.2249 41.3638 85.8036 42.0894L84.7502 43.8903C84.1762 44.8759 83.5968 45.878 83.3572 46.9629C83.1175 48.0477 83.2624 49.2626 84.0287 50.1347C84.587 50.7705 85.4112 51.1699 86.0169 51.7679C86.3798 52.1316 86.655 52.5586 86.8254 53.0223C86.9958 53.4859 87.0576 53.9762 87.0071 54.4622C87.6944 54.2259 87.7602 53.3939 87.776 52.7322C87.8054 51.5615 88.0308 50.4014 88.4449 49.2909C88.6852 48.5584 89.0933 47.879 89.6431 47.2961C89.9208 47.0074 90.2638 46.775 90.6492 46.6145C91.0347 46.4539 91.4539 46.3688 91.8788 46.3649C92.9322 46.398 93.8776 47.0503 94.9204 46.9723C95.7104 46.9133 96.4109 46.4287 97.2062 46.3342C97.9074 46.2746 98.6081 46.4525 99.1707 46.8329C99.7274 47.212 100.215 47.6665 100.616 48.1801C102.054 49.8794 103.221 51.8719 103.289 54.0037C103.587 54.1999 104.016 53.9446 104.164 53.6421C104.311 53.3396 104.316 52.9851 104.503 52.6967C104.719 52.3635 105.133 52.1862 105.457 51.9357C106.278 51.2999 106.484 50.2292 106.452 49.2578C106.42 48.2864 106.21 47.3009 106.415 46.346C106.539 45.7599 106.818 45.2115 106.971 44.6325C107.124 44.0534 107.142 43.4035 106.781 42.9048C106.254 42.1721 105.146 42.0279 104.179 41.9594C103.081 41.8743 102.099 41.983 101.399 41.1534C101.07 40.7205 100.7 40.314 100.293 39.9386C100.153 39.8157 98.7441 39.0357 98.7441 38.9837Z" fill="#512E4E"/>
<path opacity="0.1" d="M70.1218 88.8251L67.3699 84.2588L66.4983 91.3044C66.4983 91.3044 66.9828 94.4336 66.8854 94.9134C66.788 95.3932 68.871 99.6948 68.871 99.6948C68.871 99.6948 75.752 110.694 78.5619 111.262L88.0552 105.173L85.5377 102.304C85.5377 102.304 84.6661 101.999 84.4475 102.304C84.4475 102.304 79.7732 95.086 79.2887 94.5636C78.8041 94.0413 78.8989 92.999 78.8989 92.999C78.8989 92.999 78.1721 92.3041 78.4144 91.6518C78.6567 90.9995 77.0108 88.7376 77.0108 88.7376L78.5118 87.4779L70.1218 88.8251Z" fill="black"/>
<path d="M67.5147 83.7383L66.7879 84.2583L65.9163 91.3038C65.9163 91.3038 66.4008 94.4331 66.3034 94.9129C66.2059 95.3927 68.2916 99.6942 68.2916 99.6942C68.2916 99.6942 75.17 110.694 77.9798 111.261L87.4758 105.173L84.9557 102.304C84.9557 102.304 84.084 101.999 83.8654 102.304C83.8654 102.304 79.1912 95.0854 78.7066 94.5631C78.2221 94.0407 78.3195 92.9984 78.3195 92.9984C78.3195 92.9984 77.5927 92.3036 77.835 91.6513C78.0773 90.9989 76.4288 88.7371 76.4288 88.7371L77.9298 87.4773L67.5147 83.7383Z" fill="white"/>
<path opacity="0.1" d="M112.617 111.339C113.143 111.914 112.812 114.492 112.812 114.492L111.358 116.652C111.358 116.652 111.445 118.047 111.45 119.926L109.006 120.611C108.786 120.673 108.551 120.687 108.323 120.651C108.096 120.615 107.88 120.531 107.696 120.405C107.512 120.28 107.364 120.116 107.264 119.929C107.165 119.742 107.116 119.535 107.123 119.328L107.545 107.13L113.246 109.087C112.762 109.389 113.294 110.132 113.294 110.132C113.294 110.132 112.085 110.765 112.617 111.339Z" fill="black"/>
<path d="M112.909 111.077C113.436 111.651 113.104 114.232 113.104 114.232L111.65 116.393C111.65 116.393 111.737 117.785 111.745 119.666L109.257 120.363C109.04 120.424 108.811 120.437 108.588 120.401C108.365 120.366 108.155 120.284 107.974 120.161C107.794 120.038 107.649 119.878 107.551 119.694C107.454 119.511 107.406 119.309 107.413 119.106L107.837 106.87L113.541 108.827C113.054 109.13 113.586 109.869 113.586 109.869C113.586 109.869 112.382 110.505 112.909 111.077Z" fill="white"/>
<path d="M114.797 105.263C114.797 105.263 114.41 107.483 113.441 107.613C112.472 107.743 112.038 111.203 111.071 111.08C110.105 110.957 110.745 107.863 110.779 107.263C110.813 106.663 109.725 104.176 110.539 103.611C111.353 103.047 113.928 103.611 113.928 103.611L114.797 105.263Z" fill="#CF6F80"/>
<path opacity="0.1" d="M116.859 88.1722L118.687 84.8633C118.687 84.8633 119.414 87.3851 119.414 88.7323C119.414 90.0795 120.43 90.2119 120.43 90.2119C120.43 90.2119 121.544 91.3936 120.957 92.2539C120.369 93.1142 120.132 95.2556 120.132 95.2556C120.132 95.2556 120.325 99.342 119.453 99.9069C118.581 100.472 118.4 101.821 118.4 101.821C118.4 101.821 116.799 104.386 116.849 104.996C116.899 105.605 114.621 109.734 114.621 109.734C114.621 109.734 115.735 104.603 109.243 102.386C109.243 102.386 109.193 100.644 109.678 100.167C110.162 99.6895 110.918 99.472 110.444 97.0589C109.97 94.6458 110.307 91.7623 110.307 91.1833C110.307 90.6042 111.761 86.9928 111.761 86.9928L116.859 88.1722Z" fill="black"/>
<path d="M117.649 84.3906L119.245 84.8633C119.245 84.8633 119.974 87.3852 119.974 88.7324C119.974 90.0796 120.991 90.2119 120.991 90.2119C120.991 90.2119 122.105 91.3937 121.518 92.254C120.93 93.1143 120.696 95.2556 120.696 95.2556C120.696 95.2556 120.888 99.3421 120.017 99.907C119.145 100.472 118.95 101.821 118.95 101.821C118.95 101.821 117.352 104.386 117.402 104.996C117.452 105.605 115.171 109.734 115.171 109.734C115.171 109.734 116.288 104.603 109.794 102.386C109.794 102.386 109.746 100.644 110.231 100.167C110.715 99.6895 111.471 99.4721 110.997 97.059C110.523 94.6458 110.86 91.7624 110.86 91.1833C110.86 90.6042 112.314 86.9928 112.314 86.9928L117.649 84.3906Z" fill="white"/>
<path opacity="0.1" d="M82.4014 170.155C82.4014 170.155 84.9452 168.72 86.6148 169.762C88.2843 170.805 82.4014 170.155 82.4014 170.155Z" fill="black"/>
<path opacity="0.1" d="M102.167 165.719C102.167 165.719 104.419 165.459 106.31 167.286C108.201 169.113 102.167 165.719 102.167 165.719Z" fill="black"/>
<g opacity="0.1">
<path opacity="0.1" d="M105.462 51.418C105.138 51.6685 104.722 51.8481 104.506 52.1814C104.322 52.4674 104.316 52.8195 104.169 53.1268C104.021 53.434 103.592 53.6846 103.295 53.4908C103.226 51.3636 102.057 49.3665 100.622 47.6647C100.22 47.1512 99.7327 46.6967 99.176 46.3176C98.6123 45.9372 97.9108 45.7594 97.2088 45.8189C96.4188 45.9158 95.7236 46.3979 94.9257 46.457C93.8723 46.5374 92.9269 45.8827 91.8815 45.8496C91.4566 45.8534 91.0376 45.9386 90.6524 46.0997C90.2673 46.2607 89.9249 46.4937 89.6483 46.7832C89.0986 47.3651 88.6905 48.0438 88.4501 48.7756C88.0363 49.8861 87.8108 51.0462 87.7813 52.2168C87.7655 52.8763 87.697 53.6988 87.0176 53.9446C87.0334 54.1192 87.0334 54.2946 87.0176 54.4693C87.7023 54.2329 87.7707 53.401 87.7865 52.7392C87.8159 51.5685 88.0414 50.4084 88.4554 49.2979C88.6958 48.5654 89.1039 47.886 89.6536 47.3031C89.9308 47.0145 90.2733 46.7821 90.6584 46.6215C91.0434 46.461 91.4622 46.3759 91.8867 46.3719C92.9401 46.405 93.8881 47.0573 94.9309 46.9793C95.7209 46.9202 96.4214 46.4357 97.2141 46.3412C97.9161 46.2817 98.6176 46.4596 99.1812 46.8399C99.738 47.219 100.226 47.6735 100.627 48.1871C102.062 49.8864 103.231 51.8789 103.3 54.0107C103.597 54.2069 104.027 53.9516 104.174 53.6491C104.322 53.3466 104.327 52.9921 104.511 52.7037C104.727 52.3705 105.143 52.1932 105.467 51.9427C106.289 51.3069 106.494 50.2362 106.463 49.2648C106.463 49.2341 106.463 49.2034 106.463 49.175C106.413 50.0164 106.162 50.8744 105.462 51.418Z" fill="black"/>
<path opacity="0.1" d="M86.0223 51.2501C85.4166 50.6521 84.5897 50.2527 84.0341 49.6193C83.5662 49.0586 83.299 48.3836 83.2678 47.6836C83.1849 48.5583 83.457 49.4304 84.0341 50.1393C84.5897 50.775 85.4166 51.1745 86.0223 51.7724C86.6038 52.3573 86.953 53.0987 87.0151 53.8807C87.0554 53.4048 86.9883 52.9265 86.8177 52.4745C86.6471 52.0225 86.3765 51.606 86.0223 51.2501Z" fill="black"/>
<path opacity="0.1" d="M106.976 44.1145C106.821 44.6935 106.544 45.2442 106.418 45.828C106.343 46.2181 106.316 46.6143 106.336 47.0097C106.345 46.7845 106.372 46.5601 106.418 46.3385C106.544 45.7524 106.821 45.204 106.976 44.625C107.067 44.3056 107.096 43.9747 107.063 43.6465C107.047 43.8042 107.018 43.9605 106.976 44.1145Z" fill="black"/>
</g>
<path opacity="0.1" d="M34.9529 179.765C49.1244 179.765 60.6127 178.109 60.6127 176.066C60.6127 174.023 49.1244 172.367 34.9529 172.367C20.7815 172.367 9.29321 174.023 9.29321 176.066C9.29321 178.109 20.7815 179.765 34.9529 179.765Z" fill="#2E1F14"/>
<path d="M35.7798 105.209H34.1287V138.574H35.7798V105.209Z" fill="#535461"/>
<path d="M46.1554 138.472L46.0527 139.975L45.9052 142.103L45.8447 142.987L45.6998 145.114L45.6366 145.998L45.4892 148.125L43.8249 172.249C43.7525 173.287 43.2422 174.261 42.3978 174.973C41.5534 175.685 40.4384 176.082 39.2796 176.082H30.6263C29.4678 176.082 28.3531 175.685 27.5091 174.973C26.6652 174.261 26.1554 173.287 26.0837 172.249L24.4273 148.108L24.2799 145.981L24.2193 145.097L24.0718 142.97L24.0113 142.086L23.8638 139.959L23.7584 138.456C23.7402 138.166 23.7879 137.877 23.8988 137.605C24.0097 137.332 24.1814 137.084 24.4033 136.873C24.6252 136.663 24.8927 136.495 25.1894 136.381C25.4861 136.266 25.8056 136.208 26.1285 136.208H43.8275C44.1491 136.21 44.4668 136.272 44.7609 136.389C45.055 136.506 45.3193 136.676 45.5374 136.888C45.7555 137.1 45.9229 137.35 46.0292 137.623C46.1355 137.895 46.1785 138.184 46.1554 138.472Z" fill="#735139"/>
<path d="M46.0527 139.976L45.9053 142.096H24.0007L23.8533 139.976H46.0527Z" fill="#F2AC44"/>
<path d="M45.8447 142.979L45.6998 145.102H24.2087L24.0613 142.979H45.8447Z" fill="#F2AC44"/>
<path d="M45.6366 145.988L45.4918 148.108H24.4168L24.2693 145.988H45.6366Z" fill="#F2AC44"/>
<path d="M21.3333 117.714C30.9478 123.958 34.9611 133.724 34.9611 133.724C34.9611 133.724 23.3742 133.367 13.757 127.123C4.13991 120.879 0.134521 111.115 0.134521 111.115C0.134521 111.115 11.7162 111.47 21.3333 117.714Z" fill="#81E253"/>
<path d="M0.126709 111.115C0.126709 111.115 12.156 117.107 16.0139 122.068C19.8719 127.029 34.9612 133.724 34.9612 133.724" stroke="#535461" stroke-width="2" stroke-miterlimit="10"/>
<path d="M27.54 105.135C32.7725 108.532 34.9609 113.847 34.9609 113.847C34.9609 113.847 28.6539 113.653 23.4187 110.257C18.1836 106.861 16.0005 101.543 16.0005 101.543C16.0005 101.543 22.3048 101.737 27.54 105.135Z" fill="#81E253"/>
<path d="M16.0005 101.543C16.0005 101.543 22.5471 104.805 24.6459 107.504C26.7447 110.203 34.9609 113.847 34.9609 113.847" stroke="#535461" stroke-width="2" stroke-miterlimit="10"/>
<path d="M42.5581 113.578C36.5461 119.508 35.2742 127.258 35.2742 127.258C35.2742 127.258 43.751 125.391 49.7578 119.458C55.7646 113.526 57.0418 105.778 57.0418 105.778C57.0418 105.778 48.5702 107.648 42.5581 113.578Z" fill="#81E253"/>
<path d="M57.047 105.78C57.047 105.78 49.2153 111.859 47.2245 116.047C45.2336 120.235 35.2742 127.257 35.2742 127.257" stroke="#535461" stroke-width="2" stroke-miterlimit="10"/>
<path d="M263.252 111.49C263.252 111.49 258.904 92.0765 260.569 89.6611C260.569 89.6611 260.629 87.4157 260.529 84.5536C260.529 84.4448 260.529 84.3361 260.529 84.225C260.822 84.4002 261.127 84.5581 261.443 84.6977C262.976 85.4048 264.737 85.6088 266.42 85.2744L265.103 83.958C264.787 83.6436 264.458 83.3033 264.39 82.8873C264.321 82.4713 264.511 82.1002 264.674 81.7292C265.925 78.893 265.991 75.3265 263.581 73.1615C261.546 71.3416 261.05 68.9923 258.841 67.3308C257.227 66.1136 256.339 64.3292 255.502 62.6038C254.794 61.1455 254.08 59.6754 253.674 58.1297C253.358 56.922 253.232 55.6717 252.797 54.4923C252.363 53.3129 251.549 52.1666 250.277 51.6396C249.824 51.4528 249.321 51.3465 248.908 51.0983C248.365 50.7698 248.039 50.2356 247.647 49.7677C245.653 47.4042 238.977 48.7963 235.817 49.7559C234.958 49.9975 234.163 50.3931 233.479 50.9187L233.508 50.8762C233.532 50.8407 233.561 50.8052 233.587 50.7698C233.241 51.0208 232.942 51.3201 232.702 51.6561C232.241 52.3108 232.049 53.0742 231.664 53.7832C231.201 54.6223 228.623 56.9645 229.732 57.9075C229.809 57.9709 229.898 58.022 229.995 58.0588C230.411 58.2143 230.869 58.2554 231.312 58.177L231.264 58.2786C230.886 59.1106 230.691 60.001 230.693 60.8997C230.693 64.7829 234.261 67.9311 238.667 67.9311C239.495 67.9318 240.318 67.8178 241.108 67.5931C241.126 67.6829 241.142 67.7728 241.16 67.8626C241.16 67.898 241.174 67.9335 241.179 67.9689L241.039 68.1438C241.032 68.133 241.024 68.1228 241.016 68.1131L236.881 73.2986C236.249 73.698 232.61 76.0615 232.404 77.8342C232.189 79.7746 231.973 82.0459 231.973 82.0459L231.944 82.5328C231.763 82.6683 231.552 82.767 231.324 82.8221C231.097 82.8772 230.859 82.8873 230.627 82.8518C229.337 82.6628 229.337 87.1061 229.337 87.1061C229.337 87.1061 228.478 87.8152 227.888 87.2007C227.298 86.5862 225.739 88.6684 225.739 88.6684L215.969 89.0466L215.746 89.0584L215.219 87.5954C215.162 87.4411 215.04 87.313 214.879 87.2391C214.718 87.1652 214.53 87.1514 214.358 87.2007C214.317 87.2127 214.277 87.2277 214.239 87.2456L214.202 87.2645L214.134 87.307L214.1 87.3354C214.081 87.3508 214.063 87.3673 214.047 87.385L214.016 87.4181L214 87.4323C213.939 87.5077 213.899 87.5949 213.882 87.6869C213.866 87.7788 213.873 87.873 213.905 87.9617L214.358 89.2167C212.472 89.5571 210.545 90.5166 212.117 93.159L204.148 91.8378L206.726 93.7806L220.035 96.2458C219.859 96.5294 219.975 96.9406 220.525 97.5197C222.895 100.018 227.214 100.696 228.952 100.871C229.411 101.793 229.984 102.665 230.661 103.471L230.511 105.96C230.511 105.96 226.111 124.929 225.305 125.891C225.712 125.477 226.084 125.037 226.419 124.575C225.142 128.472 223.356 133.806 222.887 134.605C222.134 135.882 221.436 141.046 222.295 141.377C222.558 141.478 223.311 141.429 224.386 141.355V141.783L224.338 157.994C224.338 157.994 224.554 167.938 223.962 168.885C223.369 169.833 223.211 171.821 223.211 171.821C223.211 171.821 220.841 175.742 218.964 177.318C218.951 177.331 218.937 177.342 218.922 177.351L218.864 176.983C218.864 176.983 216.607 179.54 211.614 179.396C211.614 179.396 208.609 181.149 213.065 181.244C217.521 181.339 223.211 181.102 223.211 181.102C223.211 181.102 227.185 175.666 230.514 176.375V180.495H231.533V176.309C232.005 176.03 232.41 175.667 232.722 175.244C233.034 174.82 233.246 174.344 233.347 173.844C233.434 173.329 233.371 172.802 233.162 172.316C232.953 171.83 232.607 171.401 232.157 171.072C231.955 170.908 231.793 170.708 231.681 170.485C231.569 170.262 231.51 170.021 231.506 169.776L231.47 169.805C231.47 169.722 231.446 169.637 231.435 169.549C231.143 167.422 230.777 163.033 232.07 159.786C233.842 155.333 234.379 149.131 233.089 145.439C232.673 144.259 232.331 143.059 232.065 141.845C232.033 141.691 232.004 141.544 231.978 141.407C232.86 141.514 233.733 141.672 234.593 141.88C237.582 142.62 244.12 142.757 249.703 142.717C249.716 142.854 249.732 142.998 249.751 143.142C249.85 144.144 250.058 145.135 250.372 146.101C251.073 147.992 251.394 156.328 251.394 156.328C251.394 156.328 252.297 163.182 251.805 165.971C251.541 167.522 251.278 169.079 251.128 170.644V170.674C251.128 170.674 249.648 174.456 248.566 176.51C248.539 176.562 248.51 176.614 248.484 176.664C248.195 176.687 247.911 176.744 247.639 176.831C247.639 176.831 246.188 179.431 244.742 179.861C243.296 180.292 243.775 181.707 247.049 181.187C250.322 180.667 255.265 180.242 255.265 180.242L255.478 177.59L256.484 176.46L256.221 179.105L257.293 178.916L257.15 175.699L258.796 173.851C258.796 173.851 260.784 172.263 257.83 169.138V169.207C257.798 169.162 257.769 169.115 257.735 169.07V169.055C257.245 168.375 256.855 167.106 257.569 164.853C258.859 160.783 259.61 157.089 259.61 157.089C259.61 157.089 262.491 147.193 259.028 142.511H259.181C258.826 141.852 258.575 141.152 258.436 140.431C258.418 140.346 258.402 140.259 258.388 140.169C260.95 140.037 263.465 139.621 265.517 138.722C265.509 138.713 264.274 115.229 263.252 111.49ZM230.722 95.1113V95.1585L230.195 95.1822L230.722 95.1113ZM228.915 95.3358C228.829 95.353 228.748 95.3878 228.678 95.4374C228.452 95.725 228.31 96.059 228.265 96.4088L227.443 96.2434C227.443 96.2434 226.866 96.1323 226.037 96.007L225.645 95.6525C226.724 95.5722 227.846 95.454 228.915 95.3358Z" fill="url(#paint1_linear_385_3772)"/>
<path d="M256.1 175.732L255.786 179.082L256.837 178.892L256.679 175.26L256.1 175.732Z" fill="#1D2366"/>
<path d="M232.128 159.831C230.861 163.069 231.219 167.439 231.504 169.561C231.609 170.346 231.707 170.823 231.707 170.823C231.707 170.823 229.813 174.695 229.655 174.841C229.497 174.988 224.083 177.954 224.083 177.954L220.299 179.937C220.299 179.937 216.459 178.427 218.3 177.907C218.676 177.771 219.015 177.564 219.293 177.299C221.136 175.728 223.451 171.821 223.451 171.821C223.451 171.821 223.609 169.838 224.188 168.895C224.768 167.952 224.557 158.042 224.557 158.042L224.602 141.887V139.781L231.804 139.829C231.849 140.543 231.953 141.254 232.115 141.956C232.373 143.166 232.708 144.362 233.118 145.539C234.387 149.223 233.861 155.394 232.128 159.831Z" fill="#FFB0B1"/>
<path opacity="0.1" d="M231.707 170.824C231.707 170.824 229.813 174.695 229.655 174.842C229.497 174.988 224.083 177.954 224.083 177.954L220.299 179.937C220.299 179.937 216.459 178.427 218.3 177.907C218.676 177.772 219.015 177.564 219.293 177.3L219.456 178.333L220.717 178.285L231.514 169.566C231.609 170.346 231.707 170.824 231.707 170.824Z" fill="black"/>
<path d="M231.575 169.786L220.717 178.564L219.456 178.611L219.193 176.957C219.193 176.957 216.986 179.505 212.083 179.363C212.083 179.363 209.138 181.11 213.502 181.204C217.866 181.299 223.438 181.062 223.438 181.062C223.438 181.062 227.33 175.626 230.587 176.335V180.441H231.588V176.298C232.053 176.016 232.45 175.654 232.755 175.231C233.06 174.809 233.267 174.335 233.363 173.84C233.45 173.329 233.388 172.806 233.185 172.323C232.982 171.839 232.643 171.411 232.202 171.079C232.005 170.913 231.847 170.713 231.74 170.491C231.632 170.268 231.576 170.029 231.575 169.786Z" fill="#1D2366"/>
<path d="M257.1 164.879C256.4 167.125 256.782 168.389 257.261 169.068V169.082C257.876 169.919 258.303 170.856 258.52 171.84L258.562 172.053L253.622 178.517L250.941 179.462C250.941 179.462 246.63 178.141 247.417 177.763C247.615 177.671 247.923 177.179 248.276 176.501C249.329 174.456 250.783 170.684 250.783 170.684V170.653C250.936 169.096 251.178 167.543 251.446 165.997C251.928 163.216 251.044 156.387 251.044 156.387C251.044 156.387 250.728 148.084 250.043 146.196C249.734 145.236 249.528 144.251 249.429 143.256C249.287 142.074 249.255 141.1 249.255 141.1C249.255 141.1 252.094 137.555 257.298 141.384C257.714 141.689 258.08 142.046 258.385 142.443C261.98 147.033 259.086 157.144 259.086 157.144C259.086 157.144 258.362 160.821 257.1 164.879Z" fill="#FFB0B1"/>
<path opacity="0.1" d="M258.57 172.053L253.63 178.517L250.949 179.462C250.949 179.462 246.638 178.141 247.425 177.763C247.623 177.671 247.931 177.179 248.284 176.501C250.109 176.486 251.054 178.046 251.054 178.046L253.366 177.716C253.366 177.716 256.416 172.336 257.1 172.008C257.785 171.679 257.206 169.552 257.206 169.552V169.011C257.224 169.03 257.24 169.051 257.261 169.07V169.084C257.876 169.922 258.303 170.858 258.52 171.842L258.57 172.053Z" fill="black"/>
<path d="M251.212 178.186C251.212 178.186 249.896 176.017 247.373 176.818C247.373 176.818 245.953 179.418 244.534 179.839C243.115 180.259 243.589 181.677 246.796 181.16C250.004 180.642 254.838 180.214 254.838 180.214L255.049 177.57L258.309 173.842C258.309 173.842 260.253 172.261 257.361 169.148V169.69C257.361 169.69 257.941 171.817 257.256 172.145C256.571 172.474 253.532 177.856 253.532 177.856L251.212 178.186Z" fill="#1D2366"/>
<path opacity="0.1" d="M231.812 139.824C231.857 140.539 231.961 141.249 232.123 141.951C229.158 141.561 226.406 141.755 224.602 141.882V139.776L231.812 139.824Z" fill="black"/>
<path opacity="0.1" d="M258.678 143.032C258.678 143.032 254.464 143.216 249.44 143.254C249.298 142.072 249.266 141.098 249.266 141.098C249.266 141.098 252.105 137.553 257.308 141.382C257.725 141.687 258.091 142.044 258.396 142.441C258.478 142.642 258.572 142.84 258.678 143.032Z" fill="black"/>
<path d="M258.678 142.606C258.678 142.606 240.223 143.407 234.598 141.992C228.973 140.576 223.398 141.802 222.558 141.474C221.718 141.145 222.4 136 223.138 134.726C223.875 133.452 227.92 120.569 227.92 120.569L231.812 102.356L235.912 101.342L236.202 101.269L243.346 99.5007L248.581 98.2031C248.581 98.2031 258.991 134.679 258.098 137.369C257.774 138.398 257.722 139.482 257.946 140.533C258.082 141.251 258.328 141.949 258.678 142.606Z" fill="#1D2366"/>
<path d="M218.245 89.9004C218.245 89.9004 214.558 93.4456 217.349 95.4215C220.141 97.3974 221.976 95.6106 221.976 95.6106L218.245 89.9004Z" fill="#C7DAF5"/>
<path opacity="0.1" d="M218.245 89.9004C218.245 89.9004 214.558 93.4456 217.349 95.4215C220.141 97.3974 221.976 95.6106 221.976 95.6106L218.245 89.9004Z" fill="black"/>
<path d="M248.031 66.5911C248.031 66.5911 247.599 66.9598 246.949 67.5034C246.022 68.281 244.65 69.4179 243.433 70.3704C241.748 71.6868 240.357 72.6535 240.855 71.8286C241.353 71.0038 241.258 69.5668 241.01 68.2219C240.992 68.1321 240.976 68.0423 240.958 67.9549C240.753 66.9672 240.481 65.9916 240.144 65.0336C240.144 65.0336 242.867 61.876 244.373 60.6304C244.934 60.1577 245.327 59.9639 245.35 60.2924C245.377 60.7344 245.745 61.7105 246.203 62.7457C246.217 62.7788 246.23 62.8095 246.246 62.8426C246.551 63.5517 246.896 64.2796 247.199 64.9083C247.662 65.8726 248.031 66.5911 248.031 66.5911Z" fill="#FFB0B1"/>
<path opacity="0.1" d="M246.246 62.8428C245.99 64.078 245.369 65.2289 244.448 66.1752C243.527 67.1215 242.34 67.8284 241.01 68.2221C240.801 67.1432 240.512 66.078 240.144 65.0337C240.144 65.0337 245.271 59.0896 245.35 60.2926C245.369 60.7487 245.769 61.7603 246.246 62.8428Z" fill="black"/>
<path opacity="0.1" d="M240.5 69.8107L241.163 68.9717C241.163 68.9717 241.603 71.3777 243.22 70.3165C244.837 69.2553 244.916 78.3027 244.916 78.3027L243.18 101.59L230.64 100.917L230.996 89.6641L232.415 83.9917L235.925 75.7454L238.014 73.0203L240.5 69.8107Z" fill="black"/>
<path d="M244.916 78.4464L243.336 99.5028L243.17 101.734L236.178 101.358L235.915 101.344L230.648 101.06L231.003 89.8053L232.423 84.133L235.933 75.8867L238.021 73.1616L240.507 69.9402L241.171 69.1035C241.171 69.1035 241.611 71.5096 243.228 70.4483L243.262 70.4271C244.842 69.5289 244.916 78.4464 244.916 78.4464Z" fill="#1D2366"/>
<path d="M232.599 82.1621C232.599 82.1621 231.97 83.3439 230.706 83.1524C229.442 82.961 229.444 87.4067 229.444 87.4067C229.444 87.4067 228.604 88.1157 228.025 87.5012C227.446 86.8867 225.918 88.9642 225.918 88.9642L216.349 89.3424C216.349 89.3424 220.607 91.089 219.772 96.3738C219.772 96.3738 234.229 95.5702 234.703 94.3435C235.177 93.1169 232.599 82.1621 232.599 82.1621Z" fill="white"/>
<path opacity="0.03" d="M232.599 82.1621C232.599 82.1621 231.97 83.3439 230.706 83.1524C229.442 82.961 229.444 87.4067 229.444 87.4067C229.444 87.4067 228.604 88.1157 228.025 87.5012C227.446 86.8867 225.918 88.9642 225.918 88.9642L216.349 89.3424C216.349 89.3424 220.607 91.089 219.772 96.3738C219.772 96.3738 234.229 95.5702 234.703 94.3435C235.177 93.1169 232.599 82.1621 232.599 82.1621Z" fill="black"/>
<path d="M204.788 92.1191L207.311 94.0525L228.078 97.9688L225.502 95.61L204.788 92.1191Z" fill="white"/>
<path d="M240.539 70.5546C240.194 71.0273 239.206 73.4475 238.382 75.5605C237.695 77.3213 237.121 78.8694 237.121 78.8694C237.121 78.8694 235.78 86.702 235.096 88.1177C234.411 89.5334 234.782 95.0546 234.782 95.0546L232.231 108.69C232.231 108.69 231.075 115.721 229.289 119.921C227.527 124.055 225.565 125.993 225.505 126.054C226.295 125.095 230.6 106.201 230.6 106.201L232.023 82.3721C232.023 82.3721 232.231 80.1078 232.441 78.1721C232.652 76.2364 236.918 73.594 236.918 73.594L241.031 68.3447C241.445 68.8411 241.168 69.7061 240.539 70.5546Z" fill="white"/>
<path d="M229.813 101.179C229.813 101.179 223.756 100.943 220.823 97.7804C217.889 94.618 227.604 96.5183 227.604 96.5183L230.129 97.0383L229.813 101.179Z" fill="#FFB0B1"/>
<path opacity="0.1" d="M258.098 137.371C257.774 138.401 257.722 139.484 257.946 140.536C251.338 140.956 244.27 139.354 244.27 139.354C242.954 140.441 239.486 142.043 239.486 142.043L237.595 121.008C236.386 118.172 235.912 103.313 235.912 103.313C235.912 103.313 236.02 102.535 236.175 101.37C236.175 101.342 236.175 101.311 236.189 101.283C236.66 98.0282 237.595 91.9185 238.053 91.0937C238.685 89.9592 236.11 86.941 236.11 86.941L237.281 77.9716L237.424 76.8891C239.894 75.8988 241.787 72.7364 241.787 72.7364L243.241 70.4509C244.821 69.541 244.902 78.4584 244.902 78.4584L243.322 99.5148L248.558 98.2172C248.558 98.2172 258.991 134.681 258.098 137.371Z" fill="black"/>
<path d="M264.879 138.825C257.677 142.034 244.586 139.061 244.586 139.061C243.27 140.148 239.802 141.751 239.802 141.751L237.908 120.716C236.702 117.88 236.228 103.02 236.228 103.02C236.228 103.02 237.75 91.9331 238.382 90.801C238.566 90.4701 238.477 89.9785 238.258 89.4491C237.184 86.9292 236.789 84.2169 237.105 81.5337L237.611 77.6789L237.75 76.5988C240.223 75.6061 242.116 72.4437 242.116 72.4437L243.433 70.3733L245.856 66.5586L247.004 64.7529L247.199 64.9113L248.687 66.1214C248.687 66.1214 249.319 66.5941 250.267 67.3031C252.329 68.863 255.892 71.6094 257.73 73.2899C259.347 74.7694 259.857 80.5245 260.005 84.8568C260.102 87.7095 260.044 89.9454 260.044 89.9454C258.414 92.3538 262.678 111.69 262.678 111.69C263.671 115.426 264.879 138.825 264.879 138.825Z" fill="white"/>
<path opacity="0.03" d="M251.054 72.3959C251.054 72.3959 246.111 80.8406 246.685 84.0502C247.259 87.2599 248.892 90.8926 248.105 91.7411C247.834 92.0625 247.484 92.3235 247.083 92.5034C246.681 92.6834 246.239 92.7776 245.79 92.7786C245 92.8259 242.893 94.1471 242.893 94.2889C242.893 94.4307 240.947 94.4307 239.206 95.0925C237.466 95.7543 234.895 96.1301 234.895 96.1301C234.895 96.1301 229.892 95.9882 229.426 96.4137C228.96 96.8391 228.481 99.3846 229.479 101.415C230.477 103.445 231.585 104.96 232.423 105.237C233.26 105.513 238.574 103.915 242.885 103.537C247.196 103.159 251.876 100.094 251.876 100.094C251.876 100.094 257.029 98.4392 257.932 95.6574C258.836 92.8755 256.829 77.5861 256.829 77.5861C256.829 77.5861 255.312 70.4602 251.054 72.3959Z" fill="black"/>
<path opacity="0.03" d="M250.422 71.6872C250.422 71.6872 245.479 80.1343 246.059 83.3416C246.638 86.5488 248.265 90.1839 247.475 91.0347C247.206 91.3566 246.857 91.6178 246.455 91.7979C246.054 91.9779 245.612 92.0719 245.163 92.0723C244.373 92.1196 242.266 93.4408 242.266 93.5826C242.266 93.7244 240.32 93.7244 238.58 94.3838C236.839 95.0432 234.269 95.4214 234.269 95.4214C234.269 95.4214 229.265 95.2796 228.802 95.705C228.338 96.1304 227.854 98.6783 228.855 100.706C229.855 102.734 230.961 104.251 231.799 104.528C232.636 104.804 237.95 103.207 242.261 102.831C246.572 102.455 251.252 99.385 251.252 99.385C251.252 99.385 256.402 97.7305 257.295 94.9511C258.188 92.1716 256.192 76.8774 256.192 76.8774C256.192 76.8774 254.68 69.7539 250.422 71.6872Z" fill="black"/>
<path d="M250.899 71.9707C250.899 71.9707 245.956 80.4178 246.535 83.6251C247.115 86.8323 248.742 90.4674 247.955 91.3159C247.685 91.6385 247.336 91.9003 246.934 92.0808C246.532 92.2613 246.089 92.3555 245.64 92.3558C244.85 92.4031 242.743 93.7243 242.743 93.8637C242.743 94.0032 240.8 94.0055 239.056 94.6673C237.313 95.3291 234.746 95.7049 234.746 95.7049C234.746 95.7049 229.742 95.5631 229.276 95.9885C228.81 96.4139 228.331 98.9618 229.329 100.99C230.327 103.018 231.435 104.535 232.273 104.811C233.11 105.088 238.424 103.49 242.735 103.112C247.046 102.734 251.726 99.6685 251.726 99.6685C251.726 99.6685 256.879 98.014 257.782 95.2322C258.686 92.4504 256.692 77.1609 256.692 77.1609C256.692 77.1609 255.154 70.0468 250.899 71.9707Z" fill="white"/>
<path opacity="0.1" d="M250.791 94.627C250.791 94.627 246.841 93.9179 248.215 95.0997C249.59 96.2814 249.582 97.3166 251.265 97.2693C252.948 97.2221 250.791 94.627 250.791 94.627Z" fill="black"/>
<path opacity="0.1" d="M257.466 120.054C257.466 120.054 255.681 121.139 259.097 123.639C262.512 126.14 257.466 120.054 257.466 120.054Z" fill="black"/>
<path opacity="0.1" d="M254.059 128.971C254.059 129.113 253.427 134.17 255.792 135.435C258.156 136.699 254.059 128.971 254.059 128.971Z" fill="black"/>
<path d="M216.512 89.3311C214.605 89.3901 210.487 89.9125 212.622 93.4884C214.511 96.6532 217.684 94.5378 219.469 92.933C219.034 91.4368 217.975 90.1476 216.512 89.3311Z" fill="#FFB0B1"/>
<path d="M219.493 92.9047L219.573 92.8311L219.493 92.9047Z" fill="#FFB0B1"/>
<path opacity="0.1" d="M250.267 67.4475C248.244 68.6883 246.548 69.7354 246.216 69.9528C245.311 70.5555 243.583 74.0937 242.469 75.8994C241.582 77.3529 238.698 77.7263 237.611 77.8185L237.75 76.7384C240.223 75.7457 242.116 72.5834 242.116 72.5834L247.004 64.8926L248.687 66.2658C248.687 66.2658 249.319 66.7385 250.267 67.4475Z" fill="black"/>
<path d="M250.267 67.3049C248.244 68.5458 246.548 69.5928 246.216 69.8126C245.311 70.4129 243.583 73.9511 242.469 75.7568C241.582 77.2103 238.698 77.5838 237.611 77.6759L237.75 76.5958C240.223 75.6032 242.116 72.4408 242.116 72.4408L247.004 64.75L248.687 66.1185C248.687 66.1185 249.319 66.5864 250.267 67.3049Z" fill="#DCE7FF"/>
<path d="M246.375 61.2833C246.376 62.7021 245.896 64.0877 245 65.2564C243.941 66.6381 242.366 67.6336 240.56 68.062C238.753 68.4904 236.836 68.3235 235.155 67.5915C233.474 66.8595 232.141 65.611 231.398 64.0724C230.655 62.5338 230.551 60.8071 231.105 59.2056C231.659 57.6042 232.834 56.234 234.418 55.3438C236.001 54.4536 237.887 54.1023 239.735 54.3536C241.582 54.605 243.268 55.4423 244.486 56.7137C245.704 57.9852 246.374 59.6064 246.375 61.2833Z" fill="#FFB0B1"/>
<path opacity="0.1" d="M260.005 84.8592C258.936 84.2688 258.065 83.4291 257.485 82.4295C257.045 81.6496 256.753 80.7491 256.002 80.196C255.326 79.6997 254.422 79.5792 253.58 79.357C250.809 78.6219 248.487 76.353 248.4 73.7626C248.358 72.543 248.782 71.3258 248.589 70.1181C248.48 69.4346 248.177 68.7876 247.71 68.2391C247.478 67.9768 247.223 67.731 246.949 67.5041C246.58 67.1921 246.193 66.8896 245.856 66.5587C245.644 66.3538 245.458 66.1278 245.303 65.8851C245.178 65.6865 245.076 65.4765 245 65.2587C244.473 63.8123 244.953 62.0964 244.373 60.6334L244.342 60.553C244.123 60.0331 243.678 59.5131 243.059 59.4729C242.44 59.4327 241.911 59.8936 241.321 60.0992C240.086 60.5294 238.754 59.7967 237.724 59.0499C236.694 58.303 235.533 57.4498 234.224 57.6152C233.358 57.7263 232.673 58.2557 231.875 58.5299C231.695 58.5925 231.509 58.6407 231.32 58.6741C231.995 57.1626 233.235 55.9094 234.828 55.1298C236.421 54.3502 238.267 54.0927 240.048 54.4018C241.83 54.7108 243.436 55.567 244.59 56.8232C245.745 58.0794 246.376 59.6573 246.375 61.2857C246.376 61.7774 246.318 62.2679 246.203 62.7487C246.217 62.7818 246.23 62.8125 246.246 62.8456C246.551 63.5547 246.896 64.2826 247.199 64.9113L248.687 66.1214C248.687 66.1214 249.319 66.5941 250.267 67.3032C252.329 68.8631 255.892 71.6095 257.73 73.2899C259.347 74.7742 259.852 80.5269 260.005 84.8592Z" fill="black"/>
<path d="M231.783 54.2117C232.16 53.5239 232.347 52.7534 232.797 52.1011C233.458 51.1557 234.611 50.5507 235.796 50.1843C238.891 49.2271 245.429 47.8374 247.383 50.1843C247.768 50.657 248.086 51.1817 248.618 51.5079C249.024 51.756 249.514 51.8624 249.959 52.0491C251.204 52.5738 252 53.7177 252.424 54.8853C252.847 56.0529 252.974 57.3055 253.285 58.5085C253.682 60.0519 254.38 61.5149 255.075 62.9684C255.894 64.6843 256.763 66.4641 258.343 67.6765C260.5 69.331 260.977 71.6732 262.978 73.4883C265.348 75.6439 265.272 79.2009 264.05 82.0253C263.889 82.3963 263.708 82.784 263.771 83.1787C263.834 83.5734 264.161 83.9326 264.469 84.247L265.764 85.5587C262.699 86.2228 259.231 84.7858 257.804 82.264C257.364 81.484 257.071 80.5859 256.318 80.0305C255.644 79.5342 254.738 79.416 253.898 79.1938C251.128 78.4564 248.805 76.1851 248.718 73.5947C248.676 72.3775 249.1 71.1603 248.908 69.9549C248.801 69.2668 248.497 68.6153 248.026 68.0641C247.302 67.2156 246.209 66.646 245.619 65.7006C244.621 64.1195 245.379 62.0656 244.66 60.3686C244.439 59.8486 243.997 59.3287 243.378 59.2885C242.759 59.2483 242.23 59.7092 241.637 59.9148C240.405 60.345 239.072 59.6146 238.043 58.8654C237.013 58.1162 235.852 57.2653 234.54 57.4331C233.674 57.5419 232.992 58.0713 232.194 58.3478C231.604 58.5511 230.408 58.7331 229.892 58.2864C228.802 57.3859 231.327 55.0531 231.783 54.2117Z" fill="#591D4B"/>
<path opacity="0.1" d="M258.536 81.4839C258.093 80.7039 257.803 79.8058 257.05 79.2527C256.376 78.7564 255.47 78.6359 254.628 78.4137C251.86 77.6786 249.537 75.4073 249.448 72.8169C249.406 71.5997 249.83 70.3802 249.64 69.1748C249.53 68.4911 249.226 67.8442 248.758 67.2958C248.031 66.4473 246.938 65.8777 246.351 64.9323C245.353 63.3535 246.111 61.2996 245.39 59.6003C245.171 59.0827 244.726 58.5627 244.11 58.5202C243.494 58.4776 242.959 58.9432 242.369 59.1489C241.137 59.579 239.802 58.8463 238.775 58.0995C237.748 57.3526 236.581 56.4994 235.272 56.6648C234.406 56.7759 233.721 57.3053 232.926 57.5795C232.336 57.7828 231.138 57.9671 230.622 57.5204C229.537 56.575 232.062 54.247 232.515 53.4103C232.892 52.7202 233.079 51.952 233.531 51.2997C233.555 51.2643 233.582 51.2288 233.608 51.1934C233.269 51.4453 232.977 51.7436 232.741 52.0773C232.291 52.7296 232.104 53.4954 231.728 54.1879C231.272 55.0246 228.747 57.3597 229.834 58.298C230.361 58.7471 231.546 58.5627 232.136 58.3595C232.926 58.0829 233.616 57.5535 234.482 57.4448C235.799 57.277 236.958 58.1302 237.985 58.8771C239.012 59.6239 240.355 60.3566 241.582 59.9265C242.172 59.7208 242.688 59.2576 243.32 59.3001C243.952 59.3427 244.373 59.8603 244.602 60.3803C245.321 62.0772 244.563 64.1311 245.561 65.7123C246.151 66.6411 247.244 67.2226 247.968 68.0758C248.439 68.627 248.743 69.2785 248.85 69.9666C249.042 71.172 248.618 72.3892 248.66 73.6063C248.747 76.2062 251.07 78.4681 253.84 79.2055C254.675 79.4276 255.586 79.5458 256.26 80.0421C257.016 80.5976 257.314 81.4957 257.746 82.2756C259.173 84.7975 262.641 86.2345 265.706 85.5703L265.095 84.9511C262.438 84.9866 259.75 83.6299 258.536 81.4839Z" fill="black"/>
<path opacity="0.1" d="M240.381 70.6964C240.036 71.1691 239.049 73.5893 238.224 75.7023C237.453 75.4328 236.752 73.7146 236.752 73.7146L240.866 68.4629C241.287 68.9829 241.01 69.8455 240.381 70.6964Z" fill="black"/>
<path d="M240.539 70.5554C240.194 71.0281 239.206 73.4483 238.382 75.5612C237.611 75.2942 236.91 73.5735 236.91 73.5735L241.023 68.3242C241.445 68.8418 241.168 69.7069 240.539 70.5554Z" fill="#DCE7FF"/>
<path d="M216.623 94.6999L214.342 88.2452C214.315 88.1696 214.305 88.09 214.312 88.0109C214.32 87.9318 214.344 87.8548 214.385 87.7843C214.426 87.7138 214.481 87.6512 214.549 87.6001C214.617 87.549 214.695 87.5104 214.779 87.4865C214.949 87.4389 215.133 87.4535 215.291 87.5269C215.448 87.6004 215.568 87.7269 215.622 87.8788L217.902 94.3264L217.676 95.676L216.623 94.6999Z" fill="#BE8B87"/>
<path opacity="0.1" d="M214.558 87.6782C214.728 87.63 214.913 87.6441 215.071 87.7177C215.229 87.7912 215.349 87.9181 215.403 88.0706L217.684 94.5182L217.513 95.5298L217.679 95.6857L217.905 94.3362L215.611 87.8886C215.557 87.7367 215.438 87.6102 215.28 87.5367C215.122 87.4632 214.938 87.4487 214.769 87.4962C214.626 87.5378 214.503 87.621 214.418 87.7326C214.463 87.711 214.51 87.6929 214.558 87.6782Z" fill="white"/>
<path d="M216.623 94.7009L217.902 94.3369L217.715 95.443L217.676 95.6865L217.302 95.3367L216.623 94.7009Z" fill="#EFC8C4"/>
<path d="M217.302 95.3363C217.324 95.3111 217.352 95.2901 217.384 95.2749C217.402 95.2644 217.424 95.2588 217.446 95.2588C217.467 95.2588 217.489 95.2644 217.507 95.2749C217.525 95.2943 217.54 95.3158 217.552 95.3387C217.57 95.3648 217.593 95.387 217.622 95.4038C217.65 95.4205 217.682 95.4314 217.715 95.4356L217.676 95.6719L217.302 95.3363Z" fill="#727A9C"/>
<path d="M214.329 90.5381C214.329 90.5381 218.903 90.5145 217.826 92.2611C216.749 94.0077 215.066 94.218 215.066 94.218L214.329 90.5381Z" fill="#FFB0B1"/>
<path d="M185.88 12.1533H185.683C177.825 12.1533 170.875 15.8853 166.878 21.3922C162.88 15.8853 155.931 12.1533 148.073 12.1533H147.875C141.978 12.2038 136.341 14.341 132.19 18.1005C128.039 21.8601 125.708 26.9381 125.705 32.2312C125.705 38.8041 128.912 48.1304 135.167 55.8047C147.083 70.4276 166.878 83.2212 166.878 83.2212C166.878 83.2212 186.673 70.43 198.586 55.8047C204.843 48.1304 208.048 38.8041 208.048 32.2312C208.045 26.9385 205.715 21.8608 201.564 18.1013C197.413 14.3419 191.777 12.2044 185.88 12.1533ZM183.055 56.9297C182.16 56.9266 181.287 56.6808 180.55 56.2244C179.814 55.768 179.249 55.1224 178.928 54.3724H174.23C173.921 54.3707 173.62 54.2823 173.369 54.1196C173.119 53.9569 172.931 53.7279 172.832 53.4648L171.389 49.5627L166.823 63.8831C166.734 64.1588 166.547 64.4011 166.292 64.5737C166.037 64.7463 165.726 64.8398 165.406 64.8403H165.314C164.98 64.8258 164.662 64.709 164.413 64.5094C164.164 64.3098 163.998 64.0395 163.944 63.7436L159.238 38.3408L155.799 53.3726C155.72 53.6582 155.537 53.9118 155.279 54.093C155.021 54.2742 154.702 54.3726 154.375 54.3724H147.757C147.558 54.3799 147.36 54.3514 147.175 54.2884C146.989 54.2255 146.819 54.1295 146.676 54.0061C146.533 53.8828 146.419 53.7348 146.341 53.5709C146.263 53.4069 146.223 53.2306 146.223 53.0524C146.223 52.8742 146.263 52.6978 146.341 52.5339C146.419 52.37 146.533 52.2219 146.676 52.0986C146.819 51.9753 146.989 51.8793 147.175 51.8163C147.36 51.7534 147.558 51.7248 147.757 51.7324H153.216L158.088 31.5221C158.168 31.2233 158.361 30.9587 158.634 30.7736C158.907 30.5884 159.244 30.4942 159.586 30.5071C159.928 30.5199 160.254 30.639 160.509 30.844C160.765 31.049 160.932 31.3271 160.984 31.6309L165.79 57.5442L169.883 44.7317C169.968 44.4619 170.148 44.224 170.396 44.0536C170.644 43.8832 170.947 43.7894 171.26 43.7863H171.289C171.598 43.7864 171.9 43.8742 172.15 44.0372C172.401 44.2001 172.588 44.43 172.684 44.6939L175.294 51.7395H178.87C179.125 51.0462 179.587 50.4294 180.207 49.9572C180.828 49.485 181.581 49.1758 182.385 49.0637C183.188 48.9516 184.011 49.0409 184.761 49.3219C185.512 49.6028 186.161 50.0644 186.638 50.6557C187.115 51.247 187.4 51.945 187.463 52.6728C187.526 53.4005 187.363 54.1296 186.993 54.7796C186.623 55.4296 186.061 55.9753 185.367 56.3564C184.673 56.7375 183.876 56.9391 183.063 56.9391L183.055 56.9297Z" fill="#F45B5B"/>
</g>
<defs>
<linearGradient id="paint0_linear_385_3772" x1="93.8356" y1="183.14" x2="93.8356" y2="37.7044" gradientUnits="userSpaceOnUse">
<stop stop-color="#808080" stop-opacity="0.25"/>
<stop offset="0.54" stop-color="#808080" stop-opacity="0.12"/>
<stop offset="1" stop-color="#808080" stop-opacity="0.1"/>
</linearGradient>
<linearGradient id="paint1_linear_385_3772" x1="58781.3" y1="109733" x2="58781.3" y2="35079.6" gradientUnits="userSpaceOnUse">
<stop stop-color="#808080" stop-opacity="0.25"/>
<stop offset="0.54" stop-color="#808080" stop-opacity="0.12"/>
<stop offset="1" stop-color="#808080" stop-opacity="0.1"/>
</linearGradient>
<clipPath id="clip0_385_3772">
<rect width="291" height="185" fill="white"/>
</clipPath>
</defs>
</svg>
