<svg width="128" height="127" viewBox="0 0 128 127" fill="none" xmlns="http://www.w3.org/2000/svg">
<g clip-path="url(#clip0_385_2966)">
<path d="M63.6307 15.8613H9.94189V23.792H63.6307V15.8613Z" fill="#CBBBA0"/>
<path d="M111.351 19.8262H69.594V41.6361H111.351V19.8262Z" fill="#CBBBA0"/>
<path d="M115.33 47.584H61.6416V111.03H115.33V47.584Z" fill="#FFDE00" fill-opacity="0.46"/>
<path d="M103.399 99.1338H73.573V111.03H103.399V99.1338Z" fill="#CBBBA0"/>
<path d="M61.6406 21.8096H11.9307V111.03H61.6406V21.8096Z" fill="#FFDE00"/>
<path d="M97.4335 28.7888H92.4216V23.792H88.526V28.7888H83.5144V32.6733H88.526V37.6706H92.4216V32.6733H97.4335V28.7888Z" fill="#BE1622"/>
<path d="M117.278 109.086V45.641H105.347V43.5773H113.301V17.8838H67.6474V43.5773H75.6009V45.641H63.5892V19.8664H9.9827V109.086H0V112.971H127.26V109.086H117.278V109.086ZM71.5432 21.7683H109.405V39.693H71.5432V21.7683ZM79.4967 43.5773H101.451V45.641H79.4967V43.5773ZM113.382 49.5255V109.086H105.347V97.1903H71.6243V109.086H63.5895V49.5255H113.382ZM101.451 109.086H75.5204V101.075H101.451V109.086ZM13.8785 23.7507H59.6936V109.086H13.8785V23.7507Z" fill="#1D1D1B"/>
<path d="M75.5209 55.5137H71.625V63.444H75.5209V55.5137Z" fill="white"/>
<path d="M85.4627 55.5137H81.5669V63.444H85.4627V55.5137Z" fill="#1D1D1B"/>
<path d="M95.4049 55.5137H91.509V63.444H95.4049V55.5137Z" fill="#1D1D1B"/>
<path d="M105.347 55.5137H101.451V63.444H105.347V55.5137Z" fill="white"/>
<path d="M75.5209 69.3916H71.625V77.322H75.5209V69.3916Z" fill="#1D1D1B"/>
<path d="M85.4627 69.3916H81.5669V77.322H85.4627V69.3916Z" fill="white"/>
<path d="M95.405 69.3916H91.5092V77.322H95.405V69.3916Z" fill="#1D1D1B"/>
<path d="M105.347 69.3916H101.451V77.322H105.347V69.3916Z" fill="#1D1D1B"/>
<path d="M75.5209 83.2725H71.625V91.2028H75.5209V83.2725Z" fill="#1D1D1B"/>
<path d="M85.4627 83.2725H81.5669V91.2028H85.4627V83.2725Z" fill="#1D1D1B"/>
<path d="M95.405 83.2725H91.5092V91.2028H95.405V83.2725Z" fill="white"/>
<path d="M105.347 83.2715H101.451V91.2019H105.347V83.2715Z" fill="#1D1D1B"/>
<path d="M23.8215 27.7578H19.9257V35.6882H23.8215V27.7578Z" fill="#1D1D1B"/>
<path d="M33.7634 27.7578H29.8676V35.6882H33.7634V27.7578Z" fill="white"/>
<path d="M43.7053 27.7578H39.8094V35.6882H43.7053V27.7578Z" fill="#1D1D1B"/>
<path d="M53.6472 27.7578H49.7513V35.6882H53.6472V27.7578Z" fill="#1D1D1B"/>
<path d="M23.8215 41.6357H19.9257V49.5664H23.8215V41.6357Z" fill="white"/>
<path d="M33.7634 41.6357H29.8676V49.5664H33.7634V41.6357Z" fill="#1D1D1B"/>
<path d="M43.7053 41.6357H39.8094V49.5664H43.7053V41.6357Z" fill="white"/>
<path d="M53.6473 41.6357H49.7515V49.5664H53.6473V41.6357Z" fill="#1D1D1B"/>
<path d="M23.8215 55.5137H19.9257V63.444H23.8215V55.5137Z" fill="#1D1D1B"/>
<path d="M33.7634 55.5137H29.8676V63.444H33.7634V55.5137Z" fill="#1D1D1B"/>
<path d="M43.7053 55.5137H39.8094V63.444H43.7053V55.5137Z" fill="#1D1D1B"/>
<path d="M53.6473 55.5137H49.7515V63.444H53.6473V55.5137Z" fill="white"/>
<path d="M23.8215 69.3916H19.9257V77.322H23.8215V69.3916Z" fill="#1D1D1B"/>
<path d="M33.7634 69.3916H29.8676V77.322H33.7634V69.3916Z" fill="white"/>
<path d="M43.7053 69.3916H39.8094V77.322H43.7053V69.3916Z" fill="white"/>
<path d="M53.6473 69.3916H49.7515V77.322H53.6473V69.3916Z" fill="#1D1D1B"/>
<path d="M23.8215 83.2725H19.9257V91.2028H23.8215V83.2725Z" fill="#1D1D1B"/>
<path d="M33.7634 83.2725H29.8676V91.2028H33.7634V83.2725Z" fill="white"/>
<path d="M43.7053 83.2725H39.8094V91.2028H43.7053V83.2725Z" fill="#1D1D1B"/>
<path d="M53.6472 83.2725H49.7513V91.2028H53.6472V83.2725Z" fill="#1D1D1B"/>
<path d="M23.8215 97.1494H19.9257V105.08H23.8215V97.1494Z" fill="white"/>
<path d="M33.7634 97.1494H29.8676V105.08H33.7634V97.1494Z" fill="#1D1D1B"/>
<path d="M43.7053 97.1494H39.8094V105.08H43.7053V97.1494Z" fill="white"/>
<path d="M53.6472 97.1504H49.7513V105.081H53.6472V97.1504Z" fill="#1D1D1B"/>
<path d="M63.6307 13.9189H9.94189V17.8035H63.6307V13.9189Z" fill="#1D1D1B"/>
</g>
<defs>
<clipPath id="clip0_385_2966">
<rect width="127.26" height="126.89" fill="white"/>
</clipPath>
</defs>
</svg>
