<svg width="35" height="38" viewBox="0 0 35 38" fill="none" xmlns="http://www.w3.org/2000/svg">
<path d="M0.381836 14.4513C0.381836 14.2369 0.600239 14.0917 0.797938 14.1746L17.1979 21.058C17.3094 21.1047 17.3818 21.2137 17.3818 21.3346V37.5487C17.3818 37.7631 17.1634 37.9083 16.9657 37.8254L0.565735 30.9421C0.454323 30.8953 0.381836 30.7863 0.381836 30.6655V14.4513Z" fill="#146CAB"/>
<path d="M34.3818 14.4513C34.3818 14.2369 34.1634 14.0917 33.9657 14.1746L17.5657 21.058C17.4543 21.1047 17.3818 21.2137 17.3818 21.3346V37.5491C17.3818 37.7634 17.6001 37.9086 17.7977 37.8258L34.1977 30.9557C34.3093 30.909 34.3818 30.7999 34.3818 30.679V14.4513Z" fill="#2E8ACC"/>
<path d="M16.9724 6.55481C16.9012 6.52707 16.822 6.52759 16.7511 6.55628L0.672982 13.0612C0.425125 13.1615 0.422362 13.5114 0.668605 13.6156L17.0753 20.5569C17.15 20.5885 17.2344 20.5885 17.3091 20.5569L33.7039 13.621C33.9519 13.516 33.9468 13.1628 33.6959 13.0651L16.9724 6.55481Z" fill="#5AA2D6"/>
<path d="M9 15.4111L12.3921 17.1357L26.1085 11.2363L22.715 10.0103L9 15.4111Z" fill="#6FD141"/>
<path d="M9 11.2363L12.3921 9.51171L26.1085 15.4111L22.715 16.6372L9 11.2363Z" fill="#6FD141"/>
</svg>
