<svg width="184" height="124" viewBox="0 0 184 124" fill="none" xmlns="http://www.w3.org/2000/svg">
<path d="M165.73 68.965C165.7 70.8153 165.593 72.8883 165.353 75.0724L172.1 68.4267L172.147 68.5307C171.595 67.0308 170.778 65.6 169.72 64.2803L169.774 64.3781L165.73 68.965Z" fill="#57B894"/>
<path d="M165.735 68.6403L169.651 64.1971C168.525 62.8572 167.177 61.8197 165.637 61.1868C165.557 61.1539 165.476 61.1232 165.396 61.0928C165.456 61.5937 165.782 64.5353 165.735 68.6403Z" fill="#57B894"/>
<path d="M172.944 81.539C173.109 80.7642 173.238 79.9911 173.33 79.2197L163.154 85.5324L163.141 85.4766C162.988 85.932 162.828 86.3795 162.662 86.8193L172.92 81.4163L172.944 81.539Z" fill="#57B894"/>
<path d="M164.315 81.2809L173.422 74.6141L173.458 74.7295C173.341 72.6681 172.915 70.6249 172.189 68.6426L165.313 75.4148C165.076 77.4611 164.743 79.4164 164.315 81.2809Z" fill="#57B894"/>
<path d="M165.14 75.2999L152.959 65.7379L153.011 65.6211C152.023 66.8665 151.197 68.1876 150.545 69.5643L164.408 79.949C164.738 78.3259 164.974 76.7581 165.14 75.2999Z" fill="#57B894"/>
<path d="M164.09 81.4022C164.183 81.0058 164.271 80.6119 164.352 80.2205L150.439 69.7973L150.49 69.6797C150.26 70.1647 150.044 70.6653 149.842 71.1815L149.892 71.0635L164.09 81.4022Z" fill="#57B894"/>
<path d="M163.227 85.2115L173.318 78.9515L173.347 79.071C173.507 77.6728 173.546 76.2677 173.466 74.8652L164.236 81.6222C163.942 82.8642 163.606 84.0606 163.227 85.2115Z" fill="#57B894"/>
<path d="M148.875 80.9778L160.285 91.4255C161.059 90.055 161.728 88.649 162.289 87.2151L148.558 77.0674C148.528 78.4158 148.612 79.7644 148.811 81.1039L148.875 80.9778Z" fill="#57B894"/>
<path d="M165.201 61.0925L165.294 61.0546C162.899 60.1803 160.391 60.4006 158.053 61.5048L165.547 68.6416C165.597 64.2002 165.207 61.1365 165.201 61.0925Z" fill="#57B894"/>
<path d="M162.371 87.5661C161.855 88.8568 161.25 90.1243 160.559 91.363L170.91 86.5142L170.93 86.635C171.655 85.5255 172.2 84.3478 172.55 83.1301C172.685 82.6511 172.806 82.1716 172.911 81.6914L162.53 87.1587C162.477 87.2948 162.425 87.4316 162.371 87.5661Z" fill="#57B894"/>
<path d="M165.543 68.9718L157.877 61.6712L157.936 61.5596C156.181 62.4124 154.526 63.7641 153.09 65.5244L165.173 75.0085C165.408 72.8491 165.514 70.8005 165.543 68.9718Z" fill="#57B894"/>
<path d="M162.387 86.9635C163.054 85.2225 163.601 83.4544 164.027 81.6669L149.794 71.3027C149.525 72.003 149.283 72.7297 149.07 73.4827C148.777 74.5618 148.609 75.6598 148.568 76.763L162.378 86.9687L162.387 86.9635Z" fill="#57B894"/>
<path d="M177.048 98.1762C175.531 99.5862 173.774 101.129 171.825 102.69L182.388 100.971L182.341 101.075C183.127 99.6413 183.653 98.1275 183.903 96.5781L183.866 96.6804L177.048 98.1762Z" fill="#57B894"/>
<path d="M183.256 92.1382C183.221 92.0724 183.184 92.0083 183.147 91.9443C182.789 92.3603 180.665 94.7904 177.313 97.9282L183.918 96.4793C184.133 94.88 183.932 93.4015 183.256 92.1382Z" fill="#57B894"/>
<path d="M161.721 109.589C161.235 109.862 160.751 110.127 160.268 110.382L172.531 111.388L172.451 111.495C173.204 110.982 173.927 110.451 174.621 109.903L161.687 109.639L161.721 109.589Z" fill="#57B894"/>
<path d="M166.013 106.95L178.41 106.403L178.344 106.51C179.919 104.863 181.241 103.075 182.282 101.183L171.518 102.934C169.683 104.391 167.848 105.729 166.013 106.95Z" fill="#57B894"/>
<path d="M162.001 109.428L174.828 109.691L174.754 109.797C176.006 108.801 177.171 107.739 178.242 106.618L165.677 107.172C164.447 107.98 163.222 108.733 162.001 109.428Z" fill="#57B894"/>
<path d="M146.734 115.133C146.819 115.056 146.905 114.978 146.994 114.897C149.574 114.449 152.076 113.757 154.446 112.836L154.261 105.57C154.351 105.38 154.437 105.189 154.52 104.996L154.717 112.732C156.42 112.066 158.071 111.321 159.661 110.499L157.486 97.0452C157.574 97.0036 157.664 96.9609 157.756 96.9171L159.928 110.354L159.94 110.355C161.859 109.349 163.708 108.263 165.479 107.101L163.215 93.8683C163.302 93.8114 163.39 93.7539 163.477 93.6959L165.742 106.929C166.134 106.671 166.519 106.411 166.898 106.151L164.848 92.7444C164.934 92.6812 165.021 92.6174 165.108 92.5532L167.16 105.97C168.724 104.886 170.172 103.798 171.478 102.758L169.817 89.2568L169.952 89.1935C169.484 89.313 169.01 89.4488 168.533 89.5974C169.388 88.7293 170.147 87.8045 170.801 86.8334L160.35 91.7285C159.689 92.8777 158.932 93.9911 158.085 95.0615C157.899 95.2168 157.715 95.3743 157.533 95.5359L157.559 95.7001C157.478 95.7954 157.397 95.89 157.315 95.9838L157.279 95.7654C157.175 95.86 157.073 95.9565 156.97 96.053C158.206 94.6652 159.275 93.1885 160.16 91.6424L148.834 81.2711C148.977 82.2346 149.167 83.2024 149.391 84.1606C148.322 82.953 147.052 81.8646 145.614 80.9248L145.703 81.0048L143.653 86.3542C144.349 88.1212 145.058 90.1189 145.684 92.2548L149.448 84.3974C149.476 84.5162 149.505 84.6348 149.535 84.7532L145.781 92.5905C146.356 94.5944 146.804 96.5353 147.127 98.4129L151.835 91.7515C151.871 91.8426 151.908 91.9331 151.944 92.0229L147.185 98.7563C147.391 100.009 147.54 101.229 147.63 102.416L153.477 95.53C153.517 95.615 153.557 95.6983 153.595 95.7799L147.687 102.739L147.652 102.689C147.684 103.16 147.708 103.624 147.722 104.083L154.397 97.4064C154.441 97.4931 154.482 97.5729 154.521 97.6461L147.73 104.438C147.733 104.581 147.736 104.723 147.737 104.865C147.751 106.218 147.672 107.571 147.5 108.918L148.148 108.336C148.033 108.555 147.921 108.772 147.813 108.986L147.444 109.317C147.415 109.518 147.383 109.716 147.349 109.914C147.223 110.17 147.102 110.42 146.986 110.664C147.081 110.206 147.162 109.745 147.23 109.281L132.4 102.183C136.672 109.532 144.203 116.365 144.685 116.798C145.009 116.246 145.301 115.681 145.561 115.103C145.65 115.093 145.738 115.081 145.827 115.07C145.796 115.139 145.766 115.209 145.735 115.277C145.689 115.283 145.642 115.29 145.596 115.296C145.634 115.303 145.675 115.31 145.717 115.317C145.531 115.721 145.333 116.116 145.123 116.502C145.419 116.266 145.864 115.9 146.402 115.427C149.809 115.95 158.948 116.982 166.524 114.493L154.522 112.998C152.048 113.963 149.432 114.68 146.734 115.133ZM154.193 102.905L154.461 102.665L154.47 103.006L154.202 103.247L154.193 102.905Z" fill="#57B894"/>
<path d="M182.997 91.8462L183.099 91.8636C181.96 89.9835 179.851 88.8899 177.159 88.5625L177.168 97.8347C180.793 94.4391 182.966 91.8829 182.997 91.8462Z" fill="#57B894"/>
<path d="M159.441 110.811C158.001 111.545 156.511 112.216 154.979 112.822L166.867 114.303L166.784 114.405C168.239 113.916 169.609 113.284 170.863 112.522C171.353 112.222 171.833 111.913 172.302 111.596L159.892 110.577C159.742 110.655 159.591 110.734 159.441 110.811Z" fill="#57B894"/>
<path d="M171.738 102.55C173.663 101.006 175.398 99.4812 176.898 98.0875L176.888 88.6025L177.024 88.5461C174.984 88.3192 172.618 88.5265 170.09 89.1587L171.738 102.55Z" fill="#57B894"/>
<path d="M145.516 80.8625C143.921 79.8631 142.233 79.2056 140.52 78.9799C140.431 78.9681 140.343 78.9585 140.254 78.9492C140.507 79.4109 141.969 82.1288 143.53 86.0444L145.516 80.8625Z" fill="#57B894"/>
<path d="M145.571 92.5239L130.244 86.4043L130.249 86.2803C129.796 87.7059 129.528 89.1641 129.447 90.6324L146.694 97.1241C146.373 95.4999 145.983 93.9513 145.571 92.5239Z" fill="#57B894"/>
<path d="M146.747 97.395L129.436 90.8793L129.439 90.7549C129.41 91.2723 129.4 91.8011 129.41 92.3413L129.412 92.2168L146.96 98.5829C146.893 98.1831 146.822 97.7872 146.747 97.395Z" fill="#57B894"/>
<path d="M147.522 104.551L130.492 98.2529C130.992 99.5427 131.6 100.805 132.313 102.03L132.324 101.894L147.264 109.045C147.464 107.552 147.55 106.052 147.522 104.551Z" fill="#57B894"/>
<path d="M140.069 78.9963L140.143 78.9377C137.523 78.691 135.224 79.5126 133.433 81.1336L143.353 86.0912C141.662 81.8551 140.092 79.0367 140.069 78.9963Z" fill="#57B894"/>
<path d="M143.478 86.4068L133.33 81.3354L133.343 81.2148C132.008 82.4542 130.963 84.1437 130.286 86.1685L145.488 92.2383C144.867 90.127 144.166 88.1531 143.478 86.4068Z" fill="#57B894"/>
<path d="M147.517 104.287C147.47 102.469 147.298 100.653 147.004 98.8496L129.412 92.4678C129.43 93.1996 129.485 93.9496 129.577 94.7178C129.72 95.8156 129.99 96.9009 130.383 97.9601L147.51 104.294L147.517 104.287Z" fill="#57B894"/>
<path d="M133.183 72.0728L82.0913 66.9858C79.7756 51.7709 83.2741 36.9171 89.2471 22.1455L140.339 27.2325C132.629 41.7242 130.366 56.6814 133.183 72.0728Z" fill="#F2F2F2"/>
<path d="M127.608 30.6244L96.3853 27.5156L95.9624 30.1653L127.185 33.274L127.608 30.6244Z" fill="#276090"/>
<path opacity="0.3" d="M131.486 37.5328L89.1678 33.3193L88.9564 34.6442L131.275 38.8577L131.486 37.5328Z" fill="#276090"/>
<path opacity="0.3" d="M130.803 41.8131L88.4847 37.5996L88.2733 38.9244L130.591 43.1379L130.803 41.8131Z" fill="#276090"/>
<path opacity="0.3" d="M130.12 46.0934L87.8018 41.8799L87.5903 43.2047L129.909 47.4182L130.12 46.0934Z" fill="#276090"/>
<path opacity="0.3" d="M129.437 50.3737L87.1187 46.1602L86.9072 47.485L129.225 51.6985L129.437 50.3737Z" fill="#276090"/>
<path opacity="0.3" d="M128.754 54.6539L86.4355 50.4404L86.2241 51.7653L128.542 55.9788L128.754 54.6539Z" fill="#276090"/>
<path opacity="0.3" d="M128.071 58.9332L85.7526 54.7197L85.5411 56.0446L127.859 60.258L128.071 58.9332Z" fill="#276090"/>
<path opacity="0.3" d="M127.388 63.2135L85.0695 59L84.858 60.3248L127.176 64.5383L127.388 63.2135Z" fill="#276090"/>
<path d="M108.988 57.0839L61.189 41.9508C63.8227 26.7683 71.9657 13.0971 82.4764 0L130.276 15.1331C118.175 27.6122 111.194 41.6304 108.988 57.0839Z" fill="#E6E6E6"/>
<path d="M116.873 15.8691L87.6624 6.62109L86.4045 9.1L115.615 18.348L116.873 15.8691Z" fill="#276090"/>
<path opacity="0.3" d="M118.412 23.3284L78.8206 10.7939L78.1916 12.0334L117.783 24.5679L118.412 23.3284Z" fill="#276090"/>
<path opacity="0.3" d="M116.38 27.3323L76.7885 14.7979L76.1595 16.0373L115.751 28.5718L116.38 27.3323Z" fill="#276090"/>
<path opacity="0.3" d="M114.348 31.3372L74.7565 18.8027L74.1275 20.0422L113.719 32.5767L114.348 31.3372Z" fill="#276090"/>
<path opacity="0.3" d="M112.316 35.3411L72.7246 22.8066L72.0957 24.0461L111.687 36.5806L112.316 35.3411Z" fill="#276090"/>
<path opacity="0.3" d="M110.284 39.346L70.6925 26.8115L70.0636 28.051L109.655 40.5855L110.284 39.346Z" fill="#276090"/>
<path opacity="0.3" d="M108.252 43.3499L68.6605 30.8154L68.0316 32.0549L107.623 44.5894L108.252 43.3499Z" fill="#276090"/>
<path opacity="0.3" d="M106.22 47.3548L66.6285 34.8203L65.9996 36.0598L105.591 48.5943L106.22 47.3548Z" fill="#276090"/>
<path d="M97.1672 60.7283H45.6714C40.965 45.8617 42.0842 30.7789 45.6714 15.5332H97.1672C91.8126 30.6727 91.9356 45.736 97.1672 60.7283Z" fill="#F2F2F2"/>
<path d="M85.0736 20.1553H53.604V22.8259H85.0736V20.1553Z" fill="#276090"/>
<path opacity="0.3" d="M90.0151 26.627H47.3621V27.9623H90.0151V26.627Z" fill="#276090"/>
<path opacity="0.3" d="M90.0151 30.9414H47.3621V32.2767H90.0151V30.9414Z" fill="#276090"/>
<path opacity="0.3" d="M90.0151 35.2549H47.3621V36.5902H90.0151V35.2549Z" fill="#276090"/>
<path opacity="0.3" d="M90.0151 39.5693H47.3621V40.9046H90.0151V39.5693Z" fill="#276090"/>
<path opacity="0.3" d="M90.0151 43.8828H47.3621V45.2181H90.0151V43.8828Z" fill="#276090"/>
<path opacity="0.3" d="M90.0151 48.1973H47.3621V49.5326H90.0151V48.1973Z" fill="#276090"/>
<path opacity="0.3" d="M90.0151 52.5117H47.3621V53.847H90.0151V52.5117Z" fill="#276090"/>
<path d="M62.4565 51.7064L44.7156 40.812C44.5381 40.5682 44.2823 40.3656 43.9741 40.2248C43.6658 40.0839 43.316 40.0098 42.9599 40.0098H33.3848C32.8477 40.0098 32.3326 40.1783 31.9528 40.4783C31.573 40.7783 31.3596 41.1852 31.3596 41.6094V108.364C31.3596 109.74 32.0517 111.059 33.2836 112.032C34.5155 113.006 36.1863 113.552 37.9285 113.552H136.221C137.084 113.552 137.938 113.418 138.735 113.157C139.532 112.896 140.256 112.514 140.866 112.032C141.476 111.551 141.96 110.979 142.29 110.349C142.62 109.72 142.79 109.045 142.79 108.364V56.4224C142.79 55.1717 142.161 53.9721 141.041 53.0877C139.922 52.2032 138.403 51.7064 136.819 51.7064H62.4565Z" fill="#E7C27B"/>
<path d="M139.447 67.1865H121.618V72.1155H139.447V67.1865Z" fill="#276090"/>
<path d="M0 123.693C0 123.693 81.5419 86.8583 180.008 123.693H0Z" fill="#F2F2F2"/>
<path d="M17.4641 39.1641C17.4641 39.1641 18.3393 42.8279 17.7267 43.1044C17.2319 43.35 16.7635 43.6275 16.3264 43.9339L17.9017 45.6621L21.6649 46.2842L25.253 43.6574V41.0306C25.253 41.0306 24.2028 39.7171 24.3779 38.8876C24.5529 38.0581 17.4641 39.1641 17.4641 39.1641Z" fill="#FBBEBE"/>
<path opacity="0.1" d="M17.4641 39.1641C17.4641 39.1641 18.3393 42.8279 17.7267 43.1044C17.2319 43.35 16.7635 43.6275 16.3264 43.9339L17.9017 45.6621L21.6649 46.2842L25.253 43.6574V41.0306C25.253 41.0306 24.2028 39.7171 24.3779 38.8876C24.5529 38.0581 17.4641 39.1641 17.4641 39.1641Z" fill="black"/>
<path d="M11.4254 45.4551L10.9004 45.6625C10.9004 45.6625 9.76265 46.0081 9.23756 48.9806C8.71246 51.953 7.48724 59.0731 7.83731 59.2805C8.18737 59.4879 8.01234 60.8704 8.01234 60.8704L10.6378 50.0175L11.4254 45.4551Z" fill="#2F2E41"/>
<path d="M17.6487 28.584C17.5687 28.716 17.5406 28.8701 17.4655 29.0045C17.1244 29.615 16.1534 29.4784 15.4531 29.7093C14.8599 29.9048 14.4173 30.4418 14.3708 31.0221C14.3511 31.2684 14.3969 31.5169 14.3688 31.7625C14.3171 32.2163 14.0208 32.6159 13.9154 33.0617C13.6593 34.1446 14.2569 35.8547 14.9316 35.2703C15.1444 35.0861 15.4108 34.9639 15.6406 34.798C16.2375 34.3672 16.5415 33.6821 17.0263 33.1444C17.0877 33.0656 17.1721 32.9995 17.2725 32.9517C17.6268 32.8127 17.9422 33.1849 18.2222 33.4288C18.3648 33.5518 18.5388 33.6494 18.7328 33.7151C18.9268 33.7808 19.1363 33.8131 19.3473 33.8099C19.5583 33.8067 19.7661 33.7681 19.9567 33.6966C20.1474 33.6251 20.3166 33.5223 20.4531 33.3952C20.5386 33.297 20.6449 33.2112 20.7674 33.1415C20.904 33.0919 21.0579 33.0799 21.2042 33.1077C21.8948 33.2037 22.5169 33.4963 22.9529 33.9301C23.1867 34.1562 23.3823 34.4222 23.6626 34.5975C23.9429 34.7727 24.3519 34.8305 24.6043 34.6222C25.1124 34.9059 25.3019 35.5082 25.3033 36.0567C25.3046 36.6052 25.1624 37.1501 25.1971 37.6977C25.2318 38.2453 25.5039 38.8362 26.0563 39.0371C26.1433 38.5385 26.4709 38.0858 26.9707 37.7735C27.347 37.5523 27.8043 37.4427 28.1224 37.154C28.7595 36.576 28.5576 35.6146 28.5821 34.79C28.6123 33.773 29.0585 32.8007 29.1373 31.7859C29.1767 31.2787 29.1104 30.735 28.7725 30.3337C28.5167 30.0663 28.1925 29.8444 27.8209 29.6825L24.817 28.1603C24.6837 28.0825 24.5324 28.0258 24.3717 27.9935C23.9295 27.9308 23.5473 28.2584 23.1281 28.4027C22.7784 28.5007 22.4057 28.5364 22.0366 28.5073C20.8705 28.4823 20.5422 28.6612 19.7584 28.0611C19.6974 28.0124 19.6228 27.9757 19.5405 27.9541C19.4583 27.9324 19.3707 27.9263 19.2849 27.9363C18.8161 27.995 17.9052 28.1613 17.6487 28.584Z" fill="#2F2E41"/>
<path d="M19.3019 112.094L21.1397 115.274L17.5515 116.241L15.7137 115.481L16.1514 112.094H19.3019Z" fill="#FBBEBE"/>
<path d="M17.6392 114.789C17.6392 114.789 14.7512 113.407 14.2261 113.891C13.701 114.375 9.50022 117.9 9.50022 117.9C9.50022 117.9 3.02406 120.665 8.01245 121.08C13.0008 121.495 21.1398 118.661 21.1398 118.661C21.1398 118.661 21.5774 114.928 21.2273 114.859C20.8773 114.789 19.3895 115.481 18.6894 115.273C18.3027 115.168 17.946 115.003 17.6392 114.789Z" fill="#2F2E41"/>
<path d="M24.0278 115.481V118.315L19.302 117.485L20.3521 114.582L24.0278 115.481Z" fill="#FBBEBE"/>
<path d="M19.2143 116.448C19.2143 116.448 24.0277 115.826 24.4653 117.692C24.9029 119.559 26.0406 122.324 24.9029 123.015C23.7652 123.707 17.9016 124.605 17.8141 123.43C17.7266 122.255 18.4267 119.974 18.4267 119.974C18.4267 119.974 18.8643 118.176 18.6017 117.692C18.3392 117.209 19.2143 116.448 19.2143 116.448Z" fill="#2F2E41"/>
<path d="M9.6005 69.7695C9.6005 69.7695 5.64949 89.5576 8.88757 99.2354C12.1257 108.913 14.4011 114.651 14.4011 114.651C14.4011 114.651 20.0021 113.406 20.0021 112.577C20.0021 111.747 17.8142 99.4427 17.2891 98.2676C16.764 97.0924 15.8888 96.6777 16.6765 95.7099C17.4641 94.7421 18.7768 88.5207 18.7768 88.5207C18.7768 88.5207 21.6649 98.8206 21.8399 99.0971C22.0149 99.3736 20.0021 115.204 20.0021 115.204C20.0021 115.204 25.779 118.515 26.1282 116.033C26.2157 115.411 30.0664 93.3596 30.0664 93.0831C30.0664 92.8065 31.6416 71.6536 29.1037 70.6167C26.5657 69.5798 9.6005 69.7695 9.6005 69.7695Z" fill="#2F2E41"/>
<path d="M20.8772 40.5468C24.1639 40.5468 26.8283 38.4423 26.8283 35.8462C26.8283 33.2501 24.1639 31.1455 20.8772 31.1455C17.5905 31.1455 14.9261 33.2501 14.9261 35.8462C14.9261 38.4423 17.5905 40.5468 20.8772 40.5468Z" fill="#FBBEBE"/>
<path d="M19.5644 45.1781V44.6942L17.8141 42.413C17.8141 42.413 16.0638 42.5513 15.8012 43.1734C15.5387 43.7956 12.5632 48.7727 12.5632 48.7727L9.4126 71.1008C9.4126 71.1008 18.0767 72.7598 19.3894 71.5847C20.7021 70.4095 25.6905 44.8325 25.6905 44.8325L26.3906 41.7217C26.3906 41.7217 25.1885 40.3392 24.9144 40.5466C24.6403 40.754 20.0895 44.7633 20.0895 44.7633L20.002 45.3855L19.5644 45.1781Z" fill="#276090"/>
<path d="M17.7704 41.9644C17.7704 41.9644 16.1514 41.6533 15.6263 42.4137C15.1012 43.1741 15.1012 43.4506 14.5761 43.7271C14.051 44.0036 10.988 45.2479 10.8129 45.7318C10.6379 46.2157 6.87472 61.4928 6.87472 61.4928C6.87472 61.4928 5.03689 66.0552 5.91205 69.1659C6.7872 72.2766 6.1746 72.8988 8.01242 73.1753C9.85025 73.4518 10.1128 73.4518 10.1128 73.037C10.1128 72.6222 12.4757 58.5894 14.1385 57.6217C15.8013 56.6539 15.3637 46.0774 15.3637 46.0774C15.3637 46.0774 17.7267 43.7962 17.7267 43.4506C17.7267 43.105 18.1205 41.9384 17.7704 41.9644Z" fill="#2F2E41"/>
<path d="M22.715 44.4874C22.9591 44.5196 26.3031 41.1002 26.5657 41.2385C26.8282 41.3767 28.1409 43.174 28.316 43.174C28.491 43.174 35.9298 44.6257 36.5425 47.3216C37.1551 50.0176 32.2542 58.5894 32.2542 58.5894C32.2542 58.5894 30.1538 63.4974 30.5914 65.6403C30.8883 67.2722 30.8291 68.9322 30.4164 70.5484C30.2413 71.1014 29.6287 71.7235 29.8037 72C29.9788 72.2765 25.9531 71.6544 24.2903 72.4148C22.6275 73.1752 15.1886 73.7282 15.6262 72.8987C16.0638 72.0692 16.3263 68.8202 17.5515 65.3638C18.7768 61.9075 21.9273 53.7505 21.4022 53.1974C20.8771 52.6444 22.1899 44.4183 22.715 44.4874Z" fill="#2F2E41"/>
<path d="M35.4923 46.4922L36.63 47.3217C36.63 47.3217 37.9427 49.119 37.7677 49.9485C37.5927 50.7781 41.4433 63.2901 39.8681 63.7048C38.2928 64.1196 34.5296 66.1934 34.092 66.7464C33.6544 67.2995 32.6043 68.2672 31.9041 68.5437C31.204 68.8202 30.5039 69.3041 30.0663 69.0276C29.6287 68.7511 28.6661 63.0827 29.3662 62.8753C30.0663 62.6679 30.7664 62.0458 31.4666 62.0458C32.1667 62.0458 32.6043 61.4928 32.6043 61.0089C32.6043 60.525 32.0792 57.6217 32.0792 57.6217L30.9415 50.7781L35.4923 46.4922Z" fill="#2F2E41"/>
<path d="M18.6987 29.2719C18.6279 29.3716 18.6031 29.4881 18.5366 29.5897C18.2351 30.0512 17.3765 29.9479 16.7573 30.1225C16.4955 30.1998 16.2668 30.3341 16.0975 30.5096C15.9282 30.6852 15.8252 30.8951 15.8004 31.1149C15.7829 31.3011 15.8234 31.489 15.7986 31.6747C15.7528 32.0177 15.4909 32.3198 15.3977 32.6568C15.1712 33.4754 15.6996 34.7682 16.2962 34.3264C16.4843 34.1871 16.7198 34.0948 16.9231 33.9694C17.4508 33.6437 17.7196 33.1258 18.1484 32.7193C18.2053 32.6579 18.2799 32.608 18.366 32.5736C18.6793 32.4685 18.9581 32.7499 19.2058 32.9343C19.4798 33.1244 19.8336 33.2271 20.1983 33.2224C20.5629 33.2177 20.9123 33.106 21.1783 32.9089C21.2564 32.8329 21.3504 32.7681 21.4562 32.7171C21.5791 32.6794 21.7132 32.6706 21.8424 32.6916C22.4316 32.7556 22.9763 32.9747 23.3886 33.3133C23.5746 33.4985 23.785 33.6676 24.0162 33.8177C24.264 33.9503 24.6256 33.9939 24.8488 33.8364C25.2981 34.0509 25.4657 34.5062 25.4669 34.9209C25.4681 35.3355 25.3423 35.7475 25.3729 36.1614C25.4036 36.5753 25.6443 37.0221 26.1327 37.174C26.1776 36.9795 26.2725 36.7944 26.4116 36.6301C26.5506 36.4658 26.7309 36.3258 26.9412 36.2187C27.2739 36.0515 27.6782 35.9687 27.9596 35.7504C28.5228 35.3135 28.3444 34.5867 28.366 33.9633C28.3927 33.1945 28.7872 32.4595 28.8569 31.6923C28.8918 31.3089 28.8331 30.8979 28.5343 30.5945C28.2991 30.3871 28.0128 30.2196 27.693 30.1023L25.0369 28.9516C24.916 28.8918 24.7827 28.8491 24.6432 28.8254C24.2522 28.7781 23.9142 29.0257 23.5435 29.1348C23.2311 29.2091 22.9036 29.2359 22.5784 29.2139C21.5473 29.195 21.2571 29.3302 20.5641 28.8766C20.5063 28.8388 20.4393 28.811 20.3673 28.7947C20.2952 28.7785 20.2197 28.7742 20.1454 28.7822C19.7309 28.8266 18.9254 28.9523 18.6987 29.2719Z" fill="#2F2E41"/>
</svg>
