<svg width="128" height="127" viewBox="0 0 128 127" fill="none" xmlns="http://www.w3.org/2000/svg">
<g clip-path="url(#clip0_385_2863)">
<path d="M126.043 113.553C124.468 116.822 121.566 119.255 118.523 121.232C115.198 123.392 111.615 125.126 107.858 126.395C107.343 126.572 106.823 126.737 106.301 126.895H85.1731C85.0256 126.735 84.8856 126.567 84.7531 126.395C83.3381 124.582 82.5731 122.26 82.8505 119.985C83.2081 117.062 85.4281 114.378 88.3031 113.758C91.1807 113.135 94.4606 114.852 95.3356 117.665C95.8157 112.245 96.3707 106.6 99.2507 101.985C101.861 97.8076 106.378 94.8176 111.273 94.2826C114.152 93.9828 117.057 94.5146 119.643 95.8151C119.881 95.9351 120.116 96.0601 120.346 96.1901C121.898 97.0701 123.267 98.2385 124.381 99.6326C127.433 103.498 128.181 109.115 126.043 113.553Z" fill="#6FD141"/>
<path d="M120.191 96.5331C110.366 104.535 102.602 114.775 97.5508 126.395C97.4783 126.56 97.4058 126.728 97.3357 126.895H96.3407C96.4108 126.728 96.4807 126.56 96.5532 126.395C97.5158 124.145 98.5783 121.935 99.7458 119.783C102.23 115.206 105.153 110.88 108.473 106.868C111.791 102.851 115.498 99.1704 119.538 95.8806C119.57 95.8545 119.606 95.8327 119.643 95.8156C119.714 95.7851 119.79 95.7708 119.866 95.7738C119.943 95.7769 120.018 95.7972 120.085 95.8333C120.153 95.8694 120.211 95.9202 120.256 95.9821C120.302 96.044 120.332 96.1152 120.346 96.1906C120.353 96.2563 120.342 96.3228 120.315 96.383C120.288 96.4432 120.245 96.4951 120.191 96.5331Z" fill="#93B857"/>
<path d="M41.8039 73.3963C42.0507 73.1523 42.241 72.857 42.3614 72.5315C42.4817 72.2059 42.5292 71.8579 42.5006 71.512C42.4719 71.166 42.3677 70.8306 42.1954 70.5293C42.023 70.228 41.7867 69.9682 41.5031 69.7681L40.304 61.8633L35.3787 63.4134L38.0769 70.4658C37.7724 70.9645 37.6613 71.5577 37.7649 72.1329C37.8684 72.708 38.1793 73.2252 38.6387 73.5864C39.0981 73.9477 39.6741 74.1278 40.2574 74.0928C40.8408 74.0578 41.391 73.81 41.8039 73.3963H41.8039Z" fill="#FFB8B8"/>
<path d="M36.7298 69.6772L33.6916 55.4881C33.3956 54.1289 33.4535 52.7165 33.8598 51.3861C34.2661 50.0557 35.0071 48.8519 36.0119 47.89C39.901 44.1424 44.8993 39.4187 46.6258 38.1969C48.2462 37.0419 50.207 36.4631 52.1949 36.553L52.2366 36.5576L54.8501 39.0275L49.1568 48.3996L40.5139 53.8149L41.4757 67.722L36.7298 69.6772Z" fill="#6C63FF"/>
<path d="M47.3703 50.3955H34.6202C34.068 50.3955 33.6202 50.8432 33.6202 51.3955C33.6202 51.9478 34.068 52.3955 34.6202 52.3955H47.3703C47.9226 52.3955 48.3703 51.9478 48.3703 51.3955C48.3703 50.8432 47.9226 50.3955 47.3703 50.3955Z" fill="#CCCCCC"/>
<path d="M47.3703 72.1455H34.6202C34.068 72.1455 33.6202 72.5932 33.6202 73.1455C33.6202 73.6978 34.068 74.1455 34.6202 74.1455H47.3703C47.9226 74.1455 48.3703 73.6978 48.3703 73.1455C48.3703 72.5932 47.9226 72.1455 47.3703 72.1455Z" fill="#CCCCCC"/>
<path d="M41.1203 126.645C40.9953 126.645 40.8749 126.598 40.7827 126.514C40.6905 126.43 40.6333 126.314 40.6223 126.189L34.2482 51.4397C34.2365 51.3076 34.2777 51.1763 34.3628 51.0746C34.4479 50.9729 34.57 50.9092 34.702 50.8975C34.8341 50.8858 34.9655 50.927 35.0672 51.0121C35.1688 51.0972 35.2326 51.2192 35.2443 51.3513L41.1131 120.414L46.8151 51.3526C46.8208 51.2871 46.8392 51.2235 46.8695 51.1652C46.8997 51.1069 46.9412 51.0552 46.9914 51.0129C47.0417 50.9706 47.0997 50.9387 47.1623 50.9188C47.2249 50.899 47.2908 50.8917 47.3563 50.8974C47.4217 50.903 47.4853 50.9215 47.5436 50.9517C47.6019 50.982 47.6537 51.0234 47.6959 51.0737C47.7382 51.1239 47.7702 51.182 47.79 51.2446C47.8098 51.3072 47.8171 51.3731 47.8115 51.4385L41.6185 126.188C41.6077 126.313 41.5507 126.429 41.4586 126.513C41.3664 126.598 41.246 126.645 41.1209 126.645H41.1203Z" fill="#CCCCCC"/>
<path d="M55.4291 33.5607C59.052 33.5607 61.9889 30.6239 61.9889 27.0011C61.9889 23.3783 59.052 20.4414 55.4291 20.4414C51.8063 20.4414 48.8694 23.3783 48.8694 27.0011C48.8694 30.6239 51.8063 33.5607 55.4291 33.5607Z" fill="#FFB8B8"/>
<path d="M35.8793 123.647L32.7598 122.653L35.1103 110.146L39.7148 111.614L35.8793 123.647Z" fill="#FFB8B8"/>
<path d="M35.7057 126.414L25.6628 123.213L25.7458 122.952C26.0652 121.954 26.7674 121.124 27.6984 120.643C28.6293 120.162 29.713 120.07 30.7118 120.387L36.989 122.387L35.7057 126.414Z" fill="#2F2E41"/>
<path d="M58.5767 123.583H55.3024L53.7441 110.953H58.5767V123.583Z" fill="#FFB8B8"/>
<path d="M49.1127 126.497H59.1535V122.771H52.815C51.8334 122.773 50.8924 123.163 50.1983 123.857C49.5042 124.551 49.1138 125.492 49.1127 126.474V126.497Z" fill="#2F2E41"/>
<path d="M58.4809 119.483L57.3758 119.318C54.024 118.819 53.8233 118.789 53.2912 118.555C53.0195 118.436 53.0004 116.632 53.1635 106.492C53.2832 99.048 53.4323 89.7843 53.1429 84.811C53.131 84.6148 53.0533 84.4283 52.9224 84.2816C52.7915 84.135 52.615 84.0366 52.4214 84.0025C52.2278 83.9684 52.0284 84.0005 51.8552 84.0937C51.6821 84.1868 51.5454 84.3355 51.4671 84.5159C48.9732 90.2751 44.789 103.163 42.0203 111.692C41.0572 114.658 40.2965 117.002 39.8152 118.406C39.7223 118.672 39.5336 118.893 39.2861 119.027C39.0386 119.161 38.7501 119.198 38.4768 119.131C36.1983 118.561 36.3507 118.319 33.1054 117.479C32.8246 117.408 32.5824 117.23 32.4295 116.984C32.2766 116.738 32.2248 116.442 32.285 116.159C32.8719 113.391 43.6137 68.5094 44.4359 64.2429C44.4637 64.0969 44.5202 63.9578 44.602 63.8337C44.6839 63.7096 44.7896 63.603 44.9129 63.52C45.0362 63.437 45.1748 63.3792 45.3205 63.35C45.4663 63.3208 45.6164 63.3208 45.7622 63.35C48.1807 63.8373 49.652 64.3543 52.042 64.8541C54.6208 65.3936 57.2875 65.9514 59.8886 66.472C60.1475 66.5241 60.3795 66.6663 60.5434 66.8734C61.187 67.6863 62.1414 68.1426 63.1518 68.6256C63.8331 68.9513 62.2894 68.9219 62.8827 69.3916C65.2852 71.2934 61.8303 109.913 59.7428 118.636C59.6758 118.909 59.5093 119.147 59.2759 119.304C59.0425 119.461 58.759 119.525 58.4809 119.483V119.483Z" fill="#2F2E41"/>
<path d="M58.225 32.7416C57.842 31.1166 59.7781 27.62 59.3951 25.995C59.1357 24.8945 56.5479 25.6426 55.944 24.6867C55.3401 23.7309 54.3286 22.9565 53.198 22.9438C51.8985 22.9292 50.6198 23.8932 49.3887 23.4766C48.1441 23.0553 47.7462 21.3509 48.2965 20.1576C48.8468 18.9644 50.0322 18.204 51.2034 17.6082C53.1978 16.5936 55.52 15.8527 57.6546 16.5239C58.945 16.9297 60.0239 17.809 61.0679 18.669C62.0197 19.4529 62.9874 20.2546 63.6527 21.2927C64.9561 23.3264 64.8775 26.0666 63.7636 28.21C62.6498 30.3533 60.6203 31.9262 58.3839 32.8393" fill="#2F2E41"/>
<path d="M42.1178 70.5576C42.8258 69.3748 43.9007 63.8333 45.2263 54.5318C46.1288 48.1821 46.9151 41.7304 47.3052 38.4347C47.3355 38.168 47.4331 37.9134 47.5887 37.6947C47.7444 37.4759 47.953 37.3004 48.1951 37.1844C48.4483 37.0622 48.7 36.9466 48.9501 36.8375C52.1809 35.4322 55.4551 34.9666 58.6812 35.4534C61.9025 35.9482 64.924 37.3249 67.411 39.4312L67.4404 39.4589L67.4479 39.4985C67.462 39.5717 68.8169 46.8729 66.0417 51.8058C63.3046 56.6729 63.2727 69.5622 63.2727 69.6919V69.8575L63.1133 69.8121C58.8553 68.5954 42.4069 70.724 42.2412 70.7457L41.9851 70.7791L42.1178 70.5576Z" fill="#6C63FF"/>
<path d="M66.8705 53.6455H54.1204C53.5681 53.6455 53.1204 54.0932 53.1204 54.6455C53.1204 55.1978 53.5681 55.6455 54.1204 55.6455H66.8705C67.4228 55.6455 67.8705 55.1978 67.8705 54.6455C67.8705 54.0932 67.4228 53.6455 66.8705 53.6455Z" fill="#CCCCCC"/>
<path d="M66.8705 75.3955H54.1204C53.5681 75.3955 53.1204 75.8432 53.1204 76.3955C53.1204 76.9478 53.5681 77.3955 54.1204 77.3955H66.8705C67.4228 77.3955 67.8705 76.9478 67.8705 76.3955C67.8705 75.8432 67.4228 75.3955 66.8705 75.3955Z" fill="#CCCCCC"/>
<path d="M60.6204 126.895C60.4955 126.895 60.375 126.848 60.2828 126.764C60.1907 126.68 60.1334 126.564 60.1224 126.439L53.7483 54.6897C53.7425 54.6243 53.7496 54.5584 53.7693 54.4958C53.789 54.4331 53.8208 54.375 53.8629 54.3246C53.9051 54.2743 53.9567 54.2327 54.0149 54.2023C54.0731 54.1719 54.1368 54.1533 54.2022 54.1475C54.2676 54.1417 54.3335 54.1488 54.3961 54.1685C54.4588 54.1882 54.5169 54.22 54.5673 54.2621C54.6176 54.3043 54.6592 54.3559 54.6896 54.4141C54.72 54.4723 54.7386 54.5359 54.7444 54.6013L60.6132 120.664L66.3152 54.6026C66.3266 54.4704 66.39 54.3483 66.4915 54.2629C66.593 54.1775 66.7242 54.136 66.8564 54.1474C66.9885 54.1588 67.1107 54.2222 67.196 54.3237C67.2814 54.4251 67.323 54.5564 67.3116 54.6885L61.1186 126.438C61.1078 126.563 61.0508 126.679 60.9587 126.763C60.8666 126.848 60.7461 126.895 60.621 126.895H60.6204Z" fill="#CCCCCC"/>
<path d="M56.5037 75.7126C56.4291 75.3736 56.4298 75.0224 56.5056 74.6837C56.5815 74.345 56.7307 74.027 56.9428 73.7522C57.1548 73.4774 57.4245 73.2524 57.7329 73.0931C58.0414 72.9338 58.3809 72.844 58.7278 72.8302L64.0297 66.8457L67.3222 70.8233L61.2248 75.2776C61.2095 75.8618 60.9804 76.4201 60.581 76.8466C60.1815 77.2732 59.6395 77.5384 59.0575 77.5921C58.4756 77.6457 57.8942 77.484 57.4235 77.1376C56.9528 76.7912 56.6255 76.2842 56.5037 75.7126V75.7126Z" fill="#FFB8B8"/>
<path d="M59.5906 71.5464L67.9549 60.3942L63.6417 51.1518L63.9549 40.1904L67.491 39.5371L67.5285 39.5559C69.2462 40.5606 70.5778 42.1119 71.3105 43.962C72.096 45.9259 73.7253 52.6072 74.9537 57.8665C75.2745 59.22 75.2425 60.6332 74.8607 61.9708C74.4788 63.3085 73.76 64.5256 72.7729 65.5058L62.5122 75.7665L59.5906 71.5464Z" fill="#6C63FF"/>
<path d="M24.5278 123.794L35.9711 126.549C36.1931 126.608 36.4287 126.587 36.6367 126.489C36.8448 126.392 37.0122 126.225 37.1098 126.017L46.9398 99.882C46.9832 99.7815 47.0056 99.6733 47.0058 99.5638C47.0059 99.4544 46.9838 99.3461 46.9406 99.2455C46.8911 99.1326 46.8191 99.031 46.7291 98.9467C46.6391 98.8624 46.5329 98.7973 46.417 98.7553L37.8133 95.4697C37.6773 95.4176 37.5318 95.3949 37.3865 95.4029C37.2411 95.411 37.099 95.4496 36.9696 95.5163C36.8572 95.5718 36.7579 95.6508 36.6785 95.7479C36.5992 95.845 36.5416 95.958 36.5095 96.0793L36.5093 96.0805L30.4367 119.115L30.3465 119.121C30.3116 119.123 26.8304 119.36 25.265 121.239C24.9728 121.591 24.7565 122 24.6296 122.439C24.5028 122.879 24.4681 123.34 24.5278 123.794Z" fill="#CCCCCC"/>
<path d="M124.001 126.645C124.001 126.677 123.995 126.71 123.982 126.74C123.97 126.771 123.951 126.798 123.928 126.822C123.905 126.845 123.877 126.863 123.847 126.876C123.816 126.888 123.784 126.895 123.751 126.895H0.250002C0.183697 126.895 0.120112 126.868 0.0732275 126.821C0.026343 126.774 0 126.711 0 126.645C0 126.578 0.026343 126.515 0.0732275 126.468C0.120112 126.421 0.183697 126.395 0.250002 126.395H123.751C123.784 126.394 123.816 126.401 123.847 126.413C123.877 126.426 123.905 126.444 123.928 126.467C123.951 126.491 123.97 126.518 123.982 126.549C123.995 126.579 124.001 126.612 124.001 126.645Z" fill="#3F3D56"/>
<path d="M32.8154 109.143L32.7627 109.641L43.1957 110.745L43.2484 110.248L32.8154 109.143Z" fill="#B3B3B3"/>
<path d="M31.9058 113.262L31.7006 113.718L40.0963 117.495L40.3015 117.039L31.9058 113.262Z" fill="#B3B3B3"/>
<path d="M44.3463 106.746L34.4504 103.469L34.6557 103.013L44.5515 106.29L44.3463 106.746Z" fill="#B3B3B3"/>
<path d="M45.3463 104.496L35.4504 99.7187L35.6557 99.2627L45.5515 104.04L45.3463 104.496Z" fill="#B3B3B3"/>
<path d="M31.033 117.177L30.7083 117.557L37.8431 123.651L38.1678 123.271L31.033 117.177Z" fill="#B3B3B3"/>
<path d="M29.0074 119.198L28.552 119.404L31.4168 125.722L31.8722 125.515L29.0074 119.198Z" fill="#B3B3B3"/>
<path d="M96.0857 119.496V5.54576C96.0857 4.00701 96.1149 2.46499 96.0857 0.926436C96.0844 0.859169 96.0857 0.791765 96.0857 0.72448C96.0857 -0.240694 94.5856 -0.242292 94.5856 0.72448V114.675C94.5856 116.214 94.5564 117.756 94.5856 119.294C94.5869 119.361 94.5856 119.429 94.5856 119.496C94.5856 120.461 96.0857 120.463 96.0857 119.496V119.496Z" fill="#F2F2F2"/>
<path d="M104.382 32.5731H86.3815C85.9507 32.5726 85.5376 32.4012 85.233 32.0966C84.9283 31.792 84.757 31.3789 84.7565 30.9481V9.07323C84.757 8.64241 84.9283 8.22938 85.233 7.92474C85.5376 7.6201 85.9507 7.44874 86.3815 7.44824H104.382C104.812 7.44874 105.225 7.6201 105.53 7.92474C105.835 8.22938 106.006 8.64241 106.007 9.07323V30.9481C106.006 31.3789 105.835 31.792 105.53 32.0966C105.225 32.4012 104.812 32.5726 104.382 32.5731Z" fill="#F2F2F2"/>
</g>
<defs>
<clipPath id="clip0_385_2863">
<rect width="127.262" height="126.895" fill="white"/>
</clipPath>
</defs>
</svg>
