<svg xmlns="http://www.w3.org/2000/svg" xmlns:xlink="http://www.w3.org/1999/xlink" version="1.1" width="256" height="256" viewBox="0 0 256 256" xml:space="preserve">
<desc>Created with Fabric.js 1.7.22</desc>
<defs>
</defs>
<g transform="translate(128 128) scale(0.72 0.72)" style="">
	<g style="stroke: none; stroke-width: 0; stroke-dasharray: none; stroke-linecap: butt; stroke-linejoin: miter; stroke-miterlimit: 10; fill: none; fill-rule: nonzero; opacity: 1;" transform="translate(-175.05 -175.05000000000004) scale(3.89 3.89)" >
	<path d="M 36.137 34.78 c -9.589 0 -17.39 -7.801 -17.39 -17.39 C 18.747 7.801 26.548 0 36.137 0 s 17.39 7.801 17.39 17.39 C 53.527 26.979 45.726 34.78 36.137 34.78 z M 36.137 7 c -5.729 0 -10.39 4.661 -10.39 10.39 s 4.661 10.39 10.39 10.39 s 10.39 -4.661 10.39 -10.39 S 41.866 7 36.137 7 z" style="stroke: none; stroke-width: 1; stroke-dasharray: none; stroke-linecap: butt; stroke-linejoin: miter; stroke-miterlimit: 10; fill: rgb(0,0,0); fill-rule: nonzero; opacity: 1;" transform=" matrix(1 0 0 1 0 0) " stroke-linecap="round" />
	<path d="M 11.721 90 c -1.933 0 -3.5 -1.567 -3.5 -3.5 V 61.756 c 0 -11.14 9.063 -20.203 20.203 -20.203 h 15.427 c 6.92 0 13.29 3.505 17.039 9.375 c 1.084 1.698 1.904 3.539 2.438 5.471 c 0.516 1.862 -0.577 3.791 -2.44 4.306 c -1.86 0.519 -3.791 -0.576 -4.306 -2.44 c -0.349 -1.258 -0.884 -2.459 -1.593 -3.568 c -2.456 -3.847 -6.62 -6.143 -11.138 -6.143 H 28.424 c -7.28 0 -13.203 5.923 -13.203 13.203 V 86.5 C 15.221 88.433 13.654 90 11.721 90 z" style="stroke: none; stroke-width: 1; stroke-dasharray: none; stroke-linecap: butt; stroke-linejoin: miter; stroke-miterlimit: 10; fill: rgb(0,0,0); fill-rule: nonzero; opacity: 1;" transform=" matrix(1 0 0 1 0 0) " stroke-linecap="round" />
	<path d="M 60.554 90 c -1.933 0 -3.5 -1.567 -3.5 -3.5 v -2.236 c 0 -1.933 1.567 -3.5 3.5 -3.5 s 3.5 1.567 3.5 3.5 V 86.5 C 64.054 88.433 62.486 90 60.554 90 z" style="stroke: none; stroke-width: 1; stroke-dasharray: none; stroke-linecap: butt; stroke-linejoin: miter; stroke-miterlimit: 10; fill: rgb(0,0,0); fill-rule: nonzero; opacity: 1;" transform=" matrix(1 0 0 1 0 0) " stroke-linecap="round" />
	<path d="M 33.663 68.741 l 8.515 -8.515 c 1.367 -1.367 3.582 -1.367 4.949 0 c 1.367 1.366 1.367 3.583 0 4.949 l -2.54 2.54 h 33.693 c 1.933 0 3.5 1.567 3.5 3.5 s -1.567 3.5 -3.5 3.5 H 44.586 l 2.541 2.541 c 1.367 1.367 1.367 3.583 0 4.949 c -0.684 0.684 -1.579 1.025 -2.475 1.025 s -1.792 -0.342 -2.475 -1.025 l -8.515 -8.516 C 32.295 72.323 32.295 70.107 33.663 68.741 z" style="stroke: none; stroke-width: 1; stroke-dasharray: none; stroke-linecap: butt; stroke-linejoin: miter; stroke-miterlimit: 10; fill: rgb(0,0,0); fill-rule: nonzero; opacity: 1;" transform=" matrix(1 0 0 1 0 0) " stroke-linecap="round" />
</g>
</g>
</svg>