<svg width="140" height="127" viewBox="0 0 140 127" fill="none" xmlns="http://www.w3.org/2000/svg">
<g clip-path="url(#clip0_385_3053)">
<path d="M61.1888 105.035H2.77389C2.03846 105.035 1.33339 104.741 0.813369 104.22C0.293343 103.698 0.000827672 102.991 0 102.254V22.7413C0.000827673 22.0039 0.293343 21.2969 0.813369 20.7755C1.33339 20.2541 2.03846 19.9608 2.77389 19.96H61.1888C61.9242 19.9608 62.6293 20.2541 63.1493 20.7755C63.6693 21.2969 63.9619 22.0039 63.9627 22.7413V102.254C63.9619 102.991 63.6693 103.698 63.1493 104.22C62.6293 104.741 61.9242 105.035 61.1888 105.035Z" fill="white"/>
<path d="M29.348 40.6539C29.348 42.9503 28.6234 45.1879 27.2781 47.0463C25.9327 48.9048 24.0354 50.2888 21.8579 51.0004C21.7928 51.0211 21.7277 51.0419 21.6616 51.0617C21.3795 51.1487 21.0935 51.2229 20.8025 51.2862C20.2759 51.4007 19.7415 51.4751 19.2037 51.5087C18.9699 51.5245 18.7349 51.5324 18.4985 51.5324C17.277 51.5336 16.0641 51.3277 14.9112 50.9232C14.8777 50.9114 14.8442 50.8995 14.8116 50.8876C12.9436 50.2112 11.2966 49.0336 10.0501 47.4833C8.80355 45.9329 8.00532 44.0693 7.74237 42.0954C7.47942 40.1215 7.76184 38.1131 8.55885 36.2891C9.35586 34.465 10.6369 32.8953 12.2623 31.751C13.8878 30.6067 15.7953 29.9316 17.777 29.7994C19.7587 29.6672 21.7386 30.0829 23.501 31.0012C25.2633 31.9195 26.7404 33.3052 27.7715 35.0073C28.8025 36.7093 29.3478 38.6625 29.348 40.6539V40.6539Z" fill="white"/>
<path d="M18.2385 47.861C21.1539 47.861 23.5172 45.4913 23.5172 42.5682C23.5172 39.6451 21.1539 37.2754 18.2385 37.2754C15.3232 37.2754 12.9598 39.6451 12.9598 42.5682C12.9598 45.4913 15.3232 47.861 18.2385 47.861Z" fill="#F9C7C8"/>
<path d="M18.5468 45.4198L18.5523 45.222C18.1853 45.2118 17.8618 45.1887 17.6187 45.0106C17.5497 44.9573 17.4931 44.8897 17.4526 44.8124C17.412 44.7351 17.3886 44.65 17.3838 44.5628C17.3795 44.5095 17.3875 44.456 17.4073 44.4063C17.427 44.3567 17.4579 44.3123 17.4975 44.2765C17.5893 44.2207 17.6945 44.1907 17.8019 44.1898C17.9093 44.1888 18.015 44.2169 18.1078 44.2711L18.271 44.3462L17.958 42.0527L17.7626 42.0796L18.0288 44.0305C17.9199 43.9899 17.8025 43.9774 17.6874 43.994C17.5724 44.0106 17.4633 44.0558 17.3702 44.1255C17.3075 44.1803 17.2583 44.249 17.2265 44.3261C17.1947 44.4031 17.181 44.4865 17.1867 44.5697C17.1924 44.6869 17.2237 44.8013 17.2782 44.9051C17.3327 45.0088 17.4092 45.0994 17.5023 45.1704C17.8147 45.3993 18.2206 45.4106 18.5468 45.4198Z" fill="#2F2E41"/>
<path d="M16.7961 42.248H15.7336V42.4458H16.7961V42.248Z" fill="#2F2E41"/>
<path d="M20.1496 42.248H19.0872V42.4458H20.1496V42.248Z" fill="#2F2E41"/>
<path d="M19.7383 49.9674C19.7523 49.9024 19.7596 49.8361 19.76 49.7696C19.7596 49.5205 19.6608 49.2818 19.4851 49.1057C19.3095 48.9296 19.0714 48.8305 18.823 48.8301H17.4422C17.1937 48.8303 16.9555 48.9294 16.7798 49.1055C16.6042 49.2816 16.5054 49.5205 16.5052 49.7696C16.5051 49.8364 16.5124 49.9031 16.5268 49.9684C16.0056 50.1331 15.5128 50.3776 15.0661 50.6933C14.9793 50.7536 14.8935 50.8189 14.8116 50.8871C14.8442 50.899 14.8777 50.9108 14.9112 50.9227C16.0642 51.3271 17.277 51.5331 18.4985 51.5319C18.7352 51.5319 18.9703 51.524 19.2037 51.5082C19.7415 51.4746 20.2759 51.4002 20.8025 51.2857C21.0935 51.2224 21.3795 51.1482 21.6616 51.0612C21.1035 50.5662 20.4484 50.1936 19.7383 49.9674Z" fill="#2F2E41"/>
<path d="M19.5607 51.3831C19.4327 51.3925 19.3095 51.4359 19.2036 51.5087C19.7414 51.4751 20.2759 51.4007 20.8024 51.2861L19.5607 51.3831Z" fill="#2F2E41"/>
<path d="M23.026 41.3111L13.8558 37.9474C13.7575 37.9114 13.6776 37.8377 13.6335 37.7425C13.5894 37.6474 13.5849 37.5385 13.6208 37.44L13.6518 37.2929C14.368 35.33 16.7418 34.0947 18.6994 34.8128L21.5213 35.8479C23.479 36.566 24.3298 38.8903 23.6137 40.8532L23.532 41.0755C23.4961 41.1741 23.4226 41.2542 23.3277 41.2984C23.2328 41.3426 23.1242 41.3472 23.026 41.3111Z" fill="#2F2E41"/>
<path d="M23.5199 41.4975C10.7385 41.9704 9.62167 40.3601 13.5161 37.828L14.3423 36.3037L23.8109 39.7651L23.5199 41.4975Z" fill="#2F2E41"/>
<path d="M21.0137 35.6056C21.0842 35.3703 20.782 35.0711 20.3386 34.9374C19.8952 34.8038 19.4785 34.8863 19.4079 35.1217C19.3374 35.357 19.6396 35.6562 20.083 35.7898C20.5264 35.9235 20.9431 35.841 21.0137 35.6056Z" fill="#2F2E41"/>
<path d="M18.4984 51.8283C17.2437 51.8297 15.9977 51.6181 14.8134 51.2024L14.7104 51.1656C12.2296 50.2667 10.1472 48.5147 8.83353 46.2211C7.51985 43.9276 7.06005 41.2412 7.5359 38.6397C8.01175 36.0382 9.3924 33.6903 11.4323 32.0135C13.4722 30.3366 16.0392 29.4396 18.6767 29.4819C21.3142 29.5242 23.8512 30.5031 25.8366 32.2445C27.822 33.9859 29.127 36.3769 29.5197 38.9923C29.9123 41.6077 29.3671 44.2779 27.9809 46.5282C26.5947 48.7784 24.4575 50.4628 21.9493 51.2817C21.8792 51.3041 21.8133 51.3251 21.7462 51.3452C21.4661 51.4316 21.1688 51.5093 20.8652 51.5753C20.3239 51.6929 19.7746 51.7694 19.2218 51.804C18.9844 51.8201 18.7404 51.8283 18.4984 51.8283ZM18.4984 30.0713C16.015 30.0716 13.6112 30.95 11.7099 32.5518C9.80852 34.1537 8.53136 36.3765 8.10303 38.8292C7.67469 41.282 8.12262 43.8076 9.36802 45.962C10.6134 48.1163 12.5765 49.7613 14.9121 50.6078L15.0098 50.6427C16.131 51.0361 17.3106 51.2363 18.4984 51.2349C18.7271 51.2349 18.9577 51.2272 19.1837 51.2119C19.7071 51.1791 20.2274 51.1068 20.7399 50.9954C21.0271 50.9329 21.308 50.8595 21.5745 50.7774C21.6405 50.7576 21.7032 50.7376 21.7659 50.7176C24.1548 49.9374 26.1878 48.3284 27.4994 46.1798C28.8111 44.0312 29.3154 41.484 28.9216 38.996C28.5279 36.508 27.2619 34.2424 25.3514 32.6065C23.4408 30.9706 21.0109 30.0716 18.4984 30.0713Z" fill="#CCCCCC"/>
<path d="M61.1888 105.035H2.77389C2.03846 105.035 1.33339 104.741 0.813369 104.22C0.293343 103.698 0.000827672 102.991 0 102.254V22.7413C0.000827673 22.0039 0.293343 21.2969 0.813369 20.7755C1.33339 20.2541 2.03846 19.9608 2.77389 19.96H61.1888C61.9242 19.9608 62.6293 20.2541 63.1493 20.7755C63.6693 21.2969 63.9619 22.0039 63.9627 22.7413V102.254C63.9619 102.991 63.6693 103.698 63.1493 104.22C62.6293 104.741 61.9242 105.035 61.1888 105.035ZM2.77389 20.2872C2.12498 20.2879 1.50287 20.5467 1.04403 21.0068C0.585181 21.4668 0.327076 22.0906 0.32634 22.7413V102.254C0.327076 102.905 0.585175 103.528 1.04402 103.989C1.50287 104.449 2.12498 104.707 2.77389 104.708H61.1888C61.8377 104.707 62.4598 104.449 62.9187 103.989C63.3775 103.528 63.6356 102.905 63.6363 102.254V22.7413C63.6356 22.0906 63.3775 21.4668 62.9187 21.0068C62.4598 20.5467 61.8377 20.2879 61.1888 20.2872H2.77389Z" fill="#CCCCCC"/>
<path d="M49.8804 40.6106H33.351C33.0044 40.6102 32.6722 40.4718 32.4274 40.226C32.1825 39.9802 32.0449 39.6469 32.0449 39.2994C32.0449 38.952 32.1825 38.6187 32.4274 38.3729C32.6722 38.127 33.0044 37.9887 33.351 37.9883H49.8804C50.0522 37.9881 50.2225 38.0218 50.3813 38.0876C50.5401 38.1534 50.6845 38.25 50.8061 38.3717C50.9277 38.4935 51.0242 38.6381 51.09 38.7973C51.1558 38.9565 51.1897 39.1271 51.1897 39.2994C51.1897 39.4718 51.1558 39.6424 51.09 39.8016C51.0242 39.9608 50.9277 40.1054 50.8061 40.2271C50.6845 40.3489 50.5401 40.4455 50.3813 40.5113C50.2225 40.5771 50.0522 40.6108 49.8804 40.6106Z" fill="#E6E6E6"/>
<path d="M55.2745 45.0364H33.351C33.0044 45.036 32.6722 44.8976 32.4274 44.6518C32.1825 44.4059 32.0449 44.0727 32.0449 43.7252C32.0449 43.3778 32.1825 43.0445 32.4274 42.7987C32.6722 42.5528 33.0044 42.4145 33.351 42.4141H55.2745C55.621 42.4145 55.9532 42.5528 56.1981 42.7987C56.443 43.0445 56.5805 43.3778 56.5805 43.7252C56.5805 44.0727 56.443 44.4059 56.1981 44.6518C55.9532 44.8976 55.621 45.036 55.2745 45.0364Z" fill="#E6E6E6"/>
<path d="M49.8563 62.0081H8.68819C8.51633 62.0083 8.34611 61.9745 8.18727 61.9087C8.02843 61.8429 7.88408 61.7464 7.76248 61.6246C7.64088 61.5028 7.54442 61.3582 7.4786 61.199C7.41278 61.0399 7.37891 60.8692 7.37891 60.6969C7.37891 60.5246 7.41278 60.3539 7.4786 60.1948C7.54442 60.0356 7.64088 59.891 7.76248 59.7692C7.88408 59.6474 8.02843 59.5509 8.18727 59.4851C8.34611 59.4193 8.51633 59.3855 8.68819 59.3857H49.8563C50.2028 59.3862 50.535 59.5245 50.7799 59.7703C51.0248 60.0162 51.1623 60.3494 51.1623 60.6969C51.1623 61.0444 51.0248 61.3776 50.7799 61.6235C50.535 61.8693 50.2028 62.0076 49.8563 62.0081Z" fill="#E6E6E6"/>
<path d="M55.2504 66.4338H8.68819C8.51633 66.4341 8.34611 66.4003 8.18727 66.3345C8.02843 66.2687 7.88408 66.1722 7.76248 66.0504C7.64088 65.9286 7.54442 65.784 7.4786 65.6248C7.41278 65.4656 7.37891 65.295 7.37891 65.1227C7.37891 64.9504 7.41278 64.7797 7.4786 64.6205C7.54442 64.4614 7.64088 64.3168 7.76248 64.195C7.88408 64.0732 8.02843 63.9767 8.18727 63.9109C8.34611 63.8451 8.51633 63.8113 8.68819 63.8115H55.2504C55.4222 63.8113 55.5925 63.8451 55.7513 63.9109C55.9101 63.9767 56.0545 64.0732 56.1761 64.195C56.2977 64.3168 56.3942 64.4614 56.46 64.6205C56.5258 64.7797 56.5597 64.9504 56.5597 65.1227C56.5597 65.295 56.5258 65.4656 56.46 65.6248C56.3942 65.784 56.2977 65.9286 56.1761 66.0504C56.0545 66.1722 55.9101 66.2687 55.7513 66.3345C55.5925 66.4003 55.4222 66.4341 55.2504 66.4338Z" fill="#E6E6E6"/>
<path d="M49.8561 76.6048H8.68803C8.34122 76.6048 8.00861 76.4666 7.76338 76.2207C7.51814 75.9748 7.38037 75.6413 7.38037 75.2936C7.38037 74.9458 7.51814 74.6123 7.76338 74.3665C8.00861 74.1206 8.34122 73.9824 8.68803 73.9824H49.8561C50.2029 73.9824 50.5356 74.1206 50.7808 74.3665C51.026 74.6123 51.1638 74.9458 51.1638 75.2936C51.1638 75.6413 51.026 75.9748 50.7808 76.2207C50.5356 76.4666 50.2029 76.6048 49.8561 76.6048Z" fill="#E6E6E6"/>
<path d="M55.2502 81.0296H8.68803C8.34122 81.0296 8.00861 80.8914 7.76338 80.6455C7.51814 80.3996 7.38037 80.0661 7.38037 79.7184C7.38037 79.3706 7.51814 79.0372 7.76338 78.7913C8.00861 78.5454 8.34122 78.4072 8.68803 78.4072H55.2502C55.597 78.4072 55.9297 78.5454 56.1749 78.7913C56.4201 79.0372 56.5579 79.3706 56.5579 79.7184C56.5579 80.0661 56.4201 80.3996 56.1749 80.6455C55.9297 80.8914 55.597 81.0296 55.2502 81.0296Z" fill="#E6E6E6"/>
<path d="M49.8561 91.2004H8.68803C8.34122 91.2004 8.00861 91.0623 7.76338 90.8164C7.51814 90.5705 7.38037 90.237 7.38037 89.8893C7.38037 89.5415 7.51814 89.208 7.76338 88.9621C8.00861 88.7163 8.34122 88.5781 8.68803 88.5781H49.8561C50.2029 88.5781 50.5356 88.7163 50.7808 88.9621C51.026 89.208 51.1638 89.5415 51.1638 89.8893C51.1638 90.237 51.026 90.5705 50.7808 90.8164C50.5356 91.0623 50.2029 91.2004 49.8561 91.2004Z" fill="#E6E6E6"/>
<path d="M55.2502 95.6252H8.68803C8.34122 95.6252 8.00861 95.4871 7.76338 95.2412C7.51814 94.9953 7.38037 94.6618 7.38037 94.3141C7.38037 93.9663 7.51814 93.6328 7.76338 93.387C8.00861 93.1411 8.34122 93.0029 8.68803 93.0029H55.2502C55.597 93.0029 55.9297 93.1411 56.1749 93.387C56.4201 93.6328 56.5579 93.9663 56.5579 94.3141C56.5579 94.6618 56.4201 94.9953 56.1749 95.2412C55.9297 95.4871 55.597 95.6252 55.2502 95.6252Z" fill="#E6E6E6"/>
<path d="M137.226 85.0754L78.8112 85.0754C78.0758 85.0746 77.3707 84.7813 76.8507 84.2599C76.3306 83.7385 76.0381 83.0315 76.0373 82.2941L76.0372 2.78136C76.0381 2.04397 76.3306 1.33701 76.8506 0.815593C77.3706 0.294175 78.0757 0.000876453 78.8111 4.60328e-05L137.226 0C137.961 0.000829354 138.667 0.294124 139.187 0.815541C139.707 1.33696 139.999 2.04391 140 2.78131L140 82.2941C139.999 83.0315 139.707 83.7384 139.187 84.2598C138.667 84.7813 137.962 85.0746 137.226 85.0754Z" fill="white"/>
<path d="M137.226 85.0754L78.8112 85.0754C78.0758 85.0746 77.3707 84.7813 76.8507 84.2599C76.3306 83.7385 76.0381 83.0315 76.0373 82.2941L76.0372 2.78136C76.0381 2.04397 76.3306 1.33701 76.8506 0.815593C77.3706 0.294175 78.0757 0.000876453 78.8111 4.60328e-05L137.226 0C137.961 0.000829354 138.667 0.294124 139.187 0.815541C139.707 1.33696 139.999 2.04391 140 2.78131L140 82.2941C139.999 83.0315 139.707 83.7384 139.187 84.2598C138.667 84.7813 137.962 85.0746 137.226 85.0754ZM78.8111 0.327259C78.1622 0.327997 77.5401 0.586791 77.0812 1.04686C76.6224 1.50694 76.3643 2.13072 76.3636 2.78136L76.3636 82.2941C76.3644 82.9448 76.6225 83.5686 77.0813 84.0286C77.5402 84.4887 78.1623 84.7475 78.8112 84.7482L137.226 84.7482C137.875 84.7474 138.497 84.4886 138.956 84.0286C139.415 83.5685 139.673 82.9447 139.674 82.2941L139.674 2.78131C139.673 2.13067 139.415 1.50689 138.956 1.04682C138.497 0.586742 137.875 0.32795 137.226 0.327213L78.8111 0.327259Z" fill="#CCCCCC"/>
<path d="M105.413 20.5846C105.413 22.7361 104.776 24.8394 103.584 26.6283C102.392 28.4173 100.698 29.8116 98.7152 30.635C96.7327 31.4584 94.5512 31.6738 92.4466 31.2541C90.342 30.8343 88.4088 29.7982 86.8915 28.2768C85.3742 26.7555 84.3409 24.8171 83.9222 22.7069C83.5036 20.5966 83.7184 18.4093 84.5396 16.4215C85.3608 14.4338 86.7514 12.7348 88.5356 11.5394C90.3198 10.3441 92.4174 9.70606 94.5633 9.70605C97.4405 9.70696 100.2 10.8534 102.234 12.8933C104.269 14.9332 105.412 17.6997 105.413 20.5846Z" fill="white"/>
<path d="M99.5776 22.4462C99.4591 29.4036 89.1378 29.4025 89.0203 22.446C89.1388 15.4888 99.4601 15.4899 99.5776 22.4462Z" fill="#FFB6B6"/>
<path d="M94.0895 24.6063L94.084 24.4086C95.4436 24.5906 95.7364 22.9011 94.3652 23.5327L94.6782 21.2393L94.8737 21.2661L94.6074 23.217C96.0511 23.0015 95.5171 24.804 94.0895 24.6063Z" fill="#2F2E41"/>
<path d="M96.9028 21.4336H95.8403V21.6314H96.9028V21.4336Z" fill="#2F2E41"/>
<path d="M93.5493 21.4336H92.4868V21.6314H93.5493V21.4336Z" fill="#2F2E41"/>
<path d="M96.0102 29.8462C96.2174 28.4449 94.5811 28.7218 93.7151 28.708C93.5754 28.7084 93.4377 28.74 93.3118 28.8006C93.1859 28.8612 93.0751 28.9492 92.9874 29.0581C92.8997 29.1671 92.8374 29.2943 92.8049 29.4304C92.7725 29.5666 92.7707 29.7083 92.7998 29.8452C92.1295 30.053 91.5088 30.3963 90.9761 30.854C93.2212 31.6389 95.6608 31.666 97.9227 30.9311C97.3713 30.4346 96.7187 30.0644 96.0102 29.8462Z" fill="#2F2E41"/>
<path d="M91.817 19.943C92.7953 19.3761 93.9816 19.811 94.9922 20.0488C96.9094 20.6397 99.598 19.8997 99.8311 17.6098C100.074 15.48 97.1681 14.2931 96.2394 16.4128L96.5098 16.3773C93.4979 11.8892 88.2588 12.0594 88.2933 18.2298C88.2821 18.4204 88.578 18.4198 88.5891 18.2297C88.4782 14.5936 90.8782 12.1081 94.2708 14.4448C95.0285 15.0395 95.6966 15.7408 96.2543 16.5271C96.6077 16.9241 96.6844 15.2143 98.3755 15.6621C100.237 16.385 99.6293 19.0571 97.9659 19.6436C95.9105 20.6965 93.6845 18.6551 91.6677 19.6867C91.6352 19.7072 91.612 19.7396 91.6029 19.777C91.5937 19.8144 91.5995 19.8539 91.6189 19.8872C91.6382 19.9204 91.6697 19.9448 91.7067 19.9552C91.7437 19.9656 91.7832 19.9612 91.817 19.943Z" fill="#2F2E41"/>
<path d="M94.5631 31.7603C91.7613 31.758 89.0633 30.6967 87.0073 28.7883C84.9513 26.8798 83.6883 24.2644 83.4702 21.4636C83.2521 18.6629 84.095 15.8826 85.8307 13.6773C87.5664 11.4721 90.0674 10.0038 92.8349 9.56551C95.6023 9.12717 98.4329 9.75092 100.762 11.3124C103.091 12.8738 104.748 15.2582 105.401 17.99C106.055 20.7218 105.657 23.6002 104.288 26.0512C102.919 28.5021 100.679 30.3455 98.0139 31.2137C96.8996 31.5771 95.7349 31.7616 94.5631 31.7603ZM94.563 10.0033C92.4753 10.003 90.4344 10.6235 88.6984 11.7863C86.9624 12.9491 85.6093 14.602 84.8102 16.5359C84.0111 18.4698 83.8019 20.5979 84.2092 22.651C84.6164 24.7041 85.6217 26.59 87.098 28.0702C88.5742 29.5504 90.4551 30.5584 92.5027 30.9667C94.5503 31.375 96.6728 31.1653 98.6015 30.3641C100.53 29.5628 102.179 28.2061 103.338 26.4655C104.498 24.7248 105.117 22.6784 105.117 20.5851C105.113 17.7796 104.001 15.0899 102.022 13.1061C100.044 11.1223 97.3611 10.0065 94.563 10.0033Z" fill="#CCCCCC"/>
<path d="M125.918 20.6516L109.388 20.6516C109.041 20.6516 108.709 20.5135 108.464 20.2676C108.218 20.0217 108.081 19.6882 108.081 19.3405C108.081 18.9927 108.218 18.6592 108.464 18.4133C108.709 18.1674 109.041 18.0293 109.388 18.0293L125.918 18.0293C126.264 18.0293 126.597 18.1674 126.842 18.4133C127.088 18.6592 127.225 18.9927 127.225 19.3405C127.225 19.6882 127.088 20.0217 126.842 20.2676C126.597 20.5135 126.264 20.6516 125.918 20.6516Z" fill="#E6E6E6"/>
<path d="M131.312 25.0764L109.388 25.0764C109.216 25.0767 109.046 25.0429 108.887 24.9771C108.728 24.9113 108.584 24.8148 108.462 24.693C108.341 24.5712 108.244 24.4266 108.179 24.2674C108.113 24.1082 108.079 23.9376 108.079 23.7653C108.079 23.593 108.113 23.4223 108.179 23.2631C108.244 23.104 108.341 22.9593 108.462 22.8376C108.584 22.7158 108.728 22.6193 108.887 22.5535C109.046 22.4877 109.216 22.4539 109.388 22.4541L131.312 22.4541C131.658 22.4541 131.991 22.5922 132.236 22.8381C132.482 23.084 132.619 23.4175 132.619 23.7653C132.619 24.113 132.482 24.4465 132.236 24.6924C131.991 24.9383 131.658 25.0764 131.312 25.0764Z" fill="#E6E6E6"/>
<path d="M125.894 42.0481L84.7256 42.0481C84.3791 42.0477 84.0469 41.9094 83.802 41.6635C83.5571 41.4177 83.4196 41.0844 83.4196 40.737C83.4196 40.3895 83.5571 40.0563 83.802 39.8104C84.0469 39.5646 84.3791 39.4262 84.7256 39.4258L125.894 39.4258C126.241 39.4258 126.573 39.5639 126.818 39.8098C127.064 40.0557 127.201 40.3892 127.201 40.7369C127.201 41.0847 127.064 41.4182 126.818 41.6641C126.573 41.91 126.241 42.0481 125.894 42.0481Z" fill="#E6E6E6"/>
<path d="M131.288 46.4739L84.7255 46.4739C84.5537 46.4741 84.3835 46.4404 84.2246 46.3746C84.0658 46.3088 83.9214 46.2122 83.7998 46.0905C83.6782 45.9687 83.5818 45.8241 83.516 45.6649C83.4501 45.5057 83.4163 45.3351 83.4163 45.1628C83.4163 44.9904 83.4501 44.8198 83.516 44.6606C83.5818 44.5014 83.6782 44.3568 83.7998 44.2351C83.9214 44.1133 84.0658 44.0167 84.2246 43.9509C84.3835 43.8851 84.5537 43.8514 84.7255 43.8516L131.288 43.8516C131.635 43.8516 131.967 43.9897 132.212 44.2356C132.458 44.4815 132.595 44.815 132.595 45.1627C132.595 45.5105 132.458 45.844 132.212 46.0899C131.967 46.3358 131.635 46.4739 131.288 46.4739Z" fill="#E6E6E6"/>
<path d="M125.893 56.6448L84.7254 56.6448C84.3788 56.6444 84.0466 56.5061 83.8017 56.2602C83.5569 56.0144 83.4193 55.6811 83.4193 55.3337C83.4193 54.9862 83.5569 54.6529 83.8017 54.4071C84.0466 54.1613 84.3788 54.0229 84.7254 54.0225L125.893 54.0225C126.24 54.0225 126.573 54.1606 126.818 54.4065C127.063 54.6524 127.201 54.9859 127.201 55.3336C127.201 55.6814 127.063 56.0149 126.818 56.2608C126.573 56.5066 126.24 56.6448 125.893 56.6448Z" fill="#E6E6E6"/>
<path d="M131.288 61.0696L84.7257 61.0696C84.5538 61.0698 84.3836 61.0361 84.2247 60.9703C84.0659 60.9045 83.9216 60.8079 83.8 60.6862C83.6784 60.5644 83.5819 60.4198 83.5161 60.2606C83.4503 60.1014 83.4164 59.9308 83.4164 59.7585C83.4164 59.5861 83.4503 59.4155 83.5161 59.2563C83.5819 59.0971 83.6784 58.9525 83.8 58.8308C83.9216 58.709 84.0659 58.6124 84.2247 58.5466C84.3836 58.4808 84.5538 58.4471 84.7257 58.4473L131.288 58.4473C131.635 58.4473 131.967 58.5854 132.213 58.8313C132.458 59.0772 132.596 59.4107 132.596 59.7584C132.596 60.1062 132.458 60.4397 132.213 60.6856C131.967 60.9315 131.635 61.0696 131.288 61.0696Z" fill="#E6E6E6"/>
<path d="M125.894 71.2405L84.7256 71.2405C84.3788 71.2405 84.0462 71.1024 83.801 70.8565C83.5557 70.6106 83.418 70.2771 83.418 69.9294C83.418 69.5816 83.5557 69.2481 83.801 69.0022C84.0462 68.7563 84.3788 68.6182 84.7256 68.6182L125.894 68.6182C126.241 68.6182 126.573 68.7563 126.818 69.0022C127.064 69.2481 127.201 69.5816 127.201 69.9293C127.201 70.2771 127.064 70.6106 126.818 70.8565C126.573 71.1023 126.241 71.2405 125.894 71.2405Z" fill="#E6E6E6"/>
<path d="M131.288 75.6653L84.7256 75.6653C84.3788 75.6653 84.0462 75.5272 83.801 75.2813C83.5557 75.0354 83.418 74.7019 83.418 74.3542C83.418 74.0064 83.5557 73.6729 83.801 73.427C84.0462 73.1812 84.3788 73.043 84.7256 73.043L131.288 73.043C131.635 73.043 131.967 73.1811 132.212 73.427C132.458 73.6729 132.595 74.0064 132.595 74.3541C132.595 74.7019 132.458 75.0354 132.212 75.2812C131.967 75.5271 131.635 75.6653 131.288 75.6653Z" fill="#E6E6E6"/>
<path d="M101.981 119.269H43.5665C42.8311 119.268 42.126 118.975 41.606 118.453C41.0859 117.932 40.7934 117.225 40.7926 116.487V36.9747C40.7934 36.2373 41.0859 35.5303 41.606 35.0089C42.126 34.4875 42.8311 34.1942 43.5665 34.1934H101.981C102.717 34.1942 103.422 34.4875 103.942 35.0089C104.462 35.5303 104.754 36.2373 104.755 36.9747V116.487C104.754 117.225 104.462 117.932 103.942 118.453C103.422 118.975 102.717 119.268 101.981 119.269Z" fill="white"/>
<path d="M48.4384 54.6637C48.4365 56.0955 48.7174 57.5135 49.2648 58.836C49.8123 60.1584 50.6155 61.359 51.6281 62.3686C51.713 62.4527 51.7997 62.5367 51.8875 62.6188C52.4163 63.1142 52.9932 63.5551 53.6097 63.9351C53.728 64.0083 53.8464 64.0785 53.9677 64.1468C54.5911 64.499 55.2479 64.7882 55.9285 65.0101C56.0458 65.0487 56.1652 65.0853 56.2845 65.1189C58.4478 65.741 60.7501 65.676 62.8751 64.933C62.9165 64.9181 62.958 64.9033 62.9984 64.8885C64.8638 64.208 66.5073 63.0275 67.75 61.4755C68.9926 59.9234 69.7869 58.0593 70.0462 56.086C70.3056 54.1128 70.0201 52.106 69.2209 50.2842C68.4216 48.4623 67.1393 46.8952 65.5134 45.7534C63.8875 44.6116 61.9804 43.9389 59.9996 43.8085C58.0189 43.6781 56.0404 44.0951 54.2796 45.0139C52.5188 45.9328 51.0431 47.3183 50.0132 49.0198C48.9832 50.7212 48.4385 52.6733 48.4384 54.6637Z" fill="white"/>
<path d="M59.8861 61.8815C62.8015 61.8815 65.1648 59.5119 65.1648 56.5887C65.1648 53.6656 62.8015 51.2959 59.8861 51.2959C56.9708 51.2959 54.6074 53.6656 54.6074 56.5887C54.6074 59.5119 56.9708 61.8815 59.8861 61.8815Z" fill="#BC9090"/>
<path d="M59.6161 58.8475L59.6106 58.6498C59.9776 58.6395 60.3011 58.6164 60.5442 58.4384C60.6131 58.385 60.6698 58.3174 60.7103 58.2401C60.7509 58.1628 60.7743 58.0777 60.7791 57.9905C60.7834 57.9373 60.7754 57.8837 60.7556 57.8341C60.7359 57.7844 60.705 57.74 60.6654 57.7043C60.5735 57.6484 60.4684 57.6185 60.361 57.6175C60.2536 57.6166 60.1479 57.6447 60.0551 57.6989L59.8919 57.7739L60.2049 55.4805L60.4003 55.5073L60.1341 57.4582C60.243 57.4176 60.3604 57.4051 60.4755 57.4217C60.5905 57.4383 60.6996 57.4835 60.7927 57.5532C60.8554 57.6081 60.9046 57.6767 60.9364 57.7538C60.9683 57.8308 60.9819 57.9142 60.9762 57.9975C60.9705 58.1146 60.9392 58.2291 60.8847 58.3328C60.8302 58.4366 60.7537 58.5271 60.6606 58.5981C60.3482 58.827 59.9423 58.8384 59.6161 58.8475Z" fill="#2F2E41"/>
<path d="M62.4289 55.6748H61.3665V55.8726H62.4289V55.6748Z" fill="#2F2E41"/>
<path d="M59.0755 55.6748H58.0131V55.8726H59.0755V55.6748Z" fill="#2F2E41"/>
<path d="M56.2845 65.1187C58.4478 65.7408 60.7502 65.6758 62.8752 64.9328C62.9166 64.9179 62.958 64.9031 62.9984 64.8883C62.4977 64.501 61.9314 64.2075 61.3266 64.0219C61.3694 63.8699 61.3687 63.7088 61.3246 63.5571C61.2648 63.3648 61.1446 63.1971 60.982 63.0787C60.8194 62.9604 60.6231 62.8979 60.4222 62.9005H59.136C58.9355 62.8977 58.7394 62.9601 58.5771 63.0783C58.4148 63.1965 58.295 63.3641 58.2355 63.5562C58.1915 63.7082 58.1908 63.8695 58.2336 64.0219C57.7009 64.1855 57.1975 64.4328 56.7422 64.7548C56.6505 64.819 56.5617 64.8863 56.4759 64.9565C56.4108 65.0089 56.3467 65.0633 56.2845 65.1187Z" fill="#2F2E41"/>
<path d="M62.5376 53.1598C62.6252 53.3032 62.6616 53.4722 62.6409 53.639C62.6201 53.8059 62.5434 53.9607 62.4234 54.0781C62.1368 54.399 61.6798 54.4193 61.283 54.3597C60.8378 54.2929 60.3655 54.0837 59.9147 54.2247C59.5305 54.3448 59.2564 54.6942 58.8573 54.782C58.5033 54.8598 58.08 54.7568 57.9559 54.3785C57.8963 54.1967 58.1819 54.1188 58.2412 54.2996C58.3215 54.5443 58.6682 54.5395 58.8667 54.4717C59.185 54.363 59.4302 54.0988 59.7431 53.9725C60.116 53.8567 60.5152 53.8578 60.8875 53.9757C61.2414 54.0556 61.6487 54.1741 62.0013 54.0248C62.2622 53.9143 62.4698 53.5664 62.2821 53.3096C62.1695 53.1554 62.4261 53.0072 62.5376 53.1598V53.1598Z" fill="#2F2E41"/>
<path d="M59.2879 65.8387C58.2442 65.8396 57.2056 65.6932 56.2026 65.4038C56.0847 65.3706 55.9609 65.3328 55.8365 65.2919C55.1376 65.0638 54.463 64.7668 53.8226 64.4052C53.7025 64.3376 53.5819 64.2663 53.4544 64.1875C52.8214 63.797 52.2288 63.3441 51.6855 62.8354C51.5959 62.7516 51.5071 62.6656 51.4203 62.5796C49.7119 60.8718 48.6024 58.6542 48.2583 56.26C47.9143 53.8659 48.3543 51.4245 49.5124 49.3025C50.6704 47.1805 52.4839 45.4926 54.6804 44.4924C56.8769 43.4921 59.3378 43.2335 61.6934 43.7554C64.049 44.2773 66.1721 45.5515 67.7437 47.3866C69.3154 49.2217 70.2507 51.5186 70.4093 53.9322C70.5678 56.3458 69.9409 58.7459 68.6228 60.7718C67.3048 62.7977 65.3666 64.3401 63.0996 65.1672C63.0589 65.1821 63.0168 65.1972 62.9747 65.2122C61.7899 65.6282 60.5433 65.84 59.2879 65.8387ZM59.2879 44.0817C57.1992 44.0818 55.1574 44.7033 53.4212 45.8676C51.685 47.0319 50.3323 48.6866 49.5345 50.6221C48.7367 52.5577 48.5297 54.687 48.9396 56.7406C49.3495 58.7943 50.3579 60.6797 51.8371 62.1584C51.919 62.2395 52.0037 62.3215 52.0894 62.4018C52.6039 62.8835 53.1652 63.3125 53.7647 63.6823C53.8855 63.7569 53.9992 63.8241 54.1125 63.8879C54.719 64.2304 55.358 64.5118 56.0199 64.7278C56.1371 64.7663 56.2528 64.8016 56.3646 64.8331C58.4694 65.4387 60.7097 65.3758 62.7774 64.6528L62.8969 64.6097C65.2286 63.7587 67.1867 62.1112 68.4274 59.9565C69.6681 57.8019 70.1121 55.2778 69.6813 52.8276C69.2505 50.3774 67.9726 48.1577 66.0719 46.5583C64.1712 44.9589 61.7693 44.082 59.288 44.0817L59.2879 44.0817Z" fill="#CCCCCC"/>
<path d="M101.981 119.269H43.5665C42.8311 119.268 42.126 118.975 41.606 118.453C41.0859 117.932 40.7934 117.225 40.7926 116.487V36.9747C40.7934 36.2373 41.0859 35.5303 41.606 35.0089C42.126 34.4875 42.8311 34.1942 43.5665 34.1934H101.981C102.717 34.1942 103.422 34.4875 103.942 35.0089C104.462 35.5303 104.754 36.2373 104.755 36.9747V116.487C104.754 117.225 104.462 117.932 103.942 118.453C103.422 118.975 102.717 119.268 101.981 119.269ZM43.5665 34.5206C42.9176 34.5213 42.2955 34.7801 41.8366 35.2402C41.3778 35.7002 41.1197 36.324 41.1189 36.9747V116.487C41.1197 117.138 41.3778 117.762 41.8366 118.222C42.2955 118.682 42.9176 118.941 43.5665 118.942H101.981C102.63 118.941 103.252 118.682 103.711 118.222C104.17 117.762 104.428 117.138 104.429 116.487V36.9747C104.428 36.324 104.17 35.7002 103.711 35.2402C103.252 34.7801 102.63 34.5213 101.981 34.5206H43.5665Z" fill="#3F3D56"/>
<path d="M90.6729 54.845H74.1435C73.7967 54.845 73.4641 54.7068 73.2188 54.461C72.9736 54.2151 72.8358 53.8816 72.8358 53.5338C72.8358 53.1861 72.9736 52.8526 73.2188 52.6067C73.4641 52.3608 73.7967 52.2227 74.1435 52.2227H90.6729C91.0197 52.2227 91.3523 52.3608 91.5975 52.6067C91.8428 52.8526 91.9806 53.1861 91.9806 53.5338C91.9806 53.8816 91.8428 54.2151 91.5975 54.461C91.3523 54.7068 91.0197 54.845 90.6729 54.845Z" fill="#6C63FF"/>
<path d="M96.067 59.2698H74.1435C73.7967 59.2698 73.4641 59.1316 73.2188 58.8858C72.9736 58.6399 72.8358 58.3064 72.8358 57.9586C72.8358 57.6109 72.9736 57.2774 73.2188 57.0315C73.4641 56.7856 73.7967 56.6475 74.1435 56.6475H96.067C96.4138 56.6475 96.7464 56.7856 96.9916 57.0315C97.2369 57.2774 97.3746 57.6109 97.3746 57.9586C97.3746 58.3064 97.2369 58.6399 96.9916 58.8858C96.7464 59.1316 96.4138 59.2698 96.067 59.2698Z" fill="#6C63FF"/>
<path d="M90.6489 76.2424H49.4808C49.1339 76.2424 48.8013 76.1043 48.5561 75.8584C48.3109 75.6125 48.1731 75.279 48.1731 74.9313C48.1731 74.5835 48.3109 74.25 48.5561 74.0041C48.8013 73.7583 49.1339 73.6201 49.4808 73.6201H90.6489C90.9957 73.6201 91.3283 73.7583 91.5735 74.0041C91.8187 74.25 91.9565 74.5835 91.9565 74.9313C91.9565 75.279 91.8187 75.6125 91.5735 75.8584C91.3283 76.1043 90.9957 76.2424 90.6489 76.2424Z" fill="#CCCCCC"/>
<path d="M96.043 80.6673H49.4808C49.1339 80.6673 48.8013 80.5291 48.5561 80.2832C48.3109 80.0373 48.1731 79.7038 48.1731 79.3561C48.1731 79.0083 48.3109 78.6748 48.5561 78.429C48.8013 78.1831 49.1339 78.0449 49.4808 78.0449H96.043C96.3898 78.0449 96.7224 78.1831 96.9676 78.429C97.2129 78.6748 97.3506 79.0083 97.3506 79.3561C97.3506 79.7038 97.2129 80.0373 96.9676 80.2832C96.7224 80.5291 96.3898 80.6673 96.043 80.6673Z" fill="#CCCCCC"/>
<path d="M90.649 90.8382H49.4809C49.1343 90.8377 48.8021 90.6994 48.5572 90.4536C48.3124 90.2077 48.1748 89.8745 48.1748 89.527C48.1748 89.1795 48.3124 88.8463 48.5572 88.6004C48.8021 88.3546 49.1343 88.2163 49.4809 88.2158H90.649C90.9958 88.2158 91.3284 88.354 91.5736 88.5999C91.8188 88.8458 91.9566 89.1792 91.9566 89.527C91.9566 89.8747 91.8188 90.2082 91.5736 90.4541C91.3284 90.7 90.9958 90.8382 90.649 90.8382Z" fill="#CCCCCC"/>
<path d="M96.0431 95.2629H49.4809C49.1343 95.2625 48.8021 95.1242 48.5572 94.8783C48.3124 94.6325 48.1748 94.2992 48.1748 93.9518C48.1748 93.6043 48.3124 93.2711 48.5572 93.0252C48.8021 92.7794 49.1343 92.6411 49.4809 92.6406H96.0431C96.3899 92.6406 96.7225 92.7788 96.9677 93.0247C97.2129 93.2705 97.3507 93.604 97.3507 93.9518C97.3507 94.2995 97.2129 94.633 96.9677 94.8789C96.7225 95.1248 96.3899 95.2629 96.0431 95.2629Z" fill="#CCCCCC"/>
<path d="M90.6489 105.434H49.4808C49.1339 105.434 48.8013 105.296 48.5561 105.05C48.3109 104.804 48.1731 104.47 48.1731 104.123C48.1731 103.775 48.3109 103.441 48.5561 103.196C48.8013 102.95 49.1339 102.812 49.4808 102.812H90.6489C90.9957 102.812 91.3283 102.95 91.5735 103.196C91.8187 103.441 91.9565 103.775 91.9565 104.123C91.9565 104.47 91.8187 104.804 91.5735 105.05C91.3283 105.296 90.9957 105.434 90.6489 105.434Z" fill="#CCCCCC"/>
<path d="M96.043 109.86H49.4808C49.1339 109.86 48.8013 109.721 48.5561 109.476C48.3109 109.23 48.1731 108.896 48.1731 108.548C48.1731 108.201 48.3109 107.867 48.5561 107.621C48.8013 107.375 49.1339 107.237 49.4808 107.237H96.043C96.3898 107.237 96.7224 107.375 96.9676 107.621C97.2129 107.867 97.3506 108.201 97.3506 108.548C97.3506 108.896 97.2129 109.23 96.9676 109.476C96.7224 109.721 96.3898 109.86 96.043 109.86Z" fill="#CCCCCC"/>
<path d="M101.304 101.163C99.6106 101.161 97.9337 101.494 96.3689 102.142C94.8041 102.791 93.3821 103.742 92.1842 104.942C90.9863 106.141 90.036 107.566 89.3876 109.134C88.7393 110.703 88.4055 112.384 88.4055 114.081C88.4055 115.779 88.7392 117.46 89.3876 119.028C90.036 120.597 90.9863 122.021 92.1842 123.221C93.382 124.421 94.804 125.372 96.3688 126.02C97.9336 126.669 99.6105 127.002 101.304 127H101.304C104.717 126.994 107.988 125.63 110.399 123.208C112.811 120.786 114.165 117.504 114.165 114.081C114.165 110.659 112.811 107.377 110.399 104.955C107.988 102.533 104.717 101.169 101.304 101.163Z" fill="#6FD141"/>
<path d="M100.081 119.447C99.7417 119.447 99.4116 119.337 99.1402 119.133L99.1234 119.121L95.5803 116.403C95.2493 116.148 95.0328 115.772 94.9783 115.357C94.9238 114.942 95.0359 114.523 95.2898 114.191C95.5437 113.859 95.9188 113.641 96.3325 113.586C96.7462 113.531 97.1648 113.643 97.4962 113.897L99.7911 115.662L105.214 108.568C105.34 108.404 105.497 108.266 105.676 108.162C105.855 108.058 106.052 107.991 106.257 107.964C106.462 107.937 106.67 107.95 106.87 108.004C107.07 108.057 107.257 108.15 107.421 108.276L107.421 108.276L107.421 108.276L107.388 108.323L107.422 108.276C107.753 108.531 107.97 108.907 108.024 109.322C108.079 109.737 107.967 110.157 107.713 110.489L101.335 118.829C101.187 119.021 100.997 119.177 100.78 119.284C100.563 119.391 100.324 119.446 100.082 119.445L100.081 119.447Z" fill="white"/>
</g>
<defs>
<clipPath id="clip0_385_3053">
<rect width="140" height="127" fill="white"/>
</clipPath>
</defs>
</svg>
