<?xml version="1.0" encoding="iso-8859-1"?>
<!-- Generator: Adobe Illustrator 19.1.0, SVG Export Plug-In . SVG Version: 6.00 Build 0)  -->
<svg version="1.1" id="Capa_1" xmlns="http://www.w3.org/2000/svg" xmlns:xlink="http://www.w3.org/1999/xlink" x="0px" y="0px"  width="18" height="18" fill="#ffffff"
	 viewBox="0 0 486.975 486.975" style="enable-background:new 0 0 486.975 486.975;" xml:space="preserve">
<g>
	<path d="M473.475,230.025h-427.4l116-116c5.3-5.3,5.3-13.8,0-19.1c-5.3-5.3-13.8-5.3-19.1,0l-139,139c-5.3,5.3-5.3,13.8,0,19.1
		l139,139c2.6,2.6,6.1,4,9.5,4s6.9-1.3,9.5-4c5.3-5.3,5.3-13.8,0-19.1l-116-116h427.5c7.5,0,13.5-6,13.5-13.5
		S480.975,230.025,473.475,230.025z"/>
</g>
<g>
</g>
<g>
</g>
<g>
</g>
<g>
</g>
<g>
</g>
<g>
</g>
<g>
</g>
<g>
</g>
<g>
</g>
<g>
</g>
<g>
</g>
<g>
</g>
<g>
</g>
<g>
</g>
<g>
</g>
</svg>
