<?xml version="1.0" encoding="iso-8859-1"?>
<!-- Generator: Adobe Illustrator 19.0.0, SVG Export Plug-In . SVG Version: 6.00 Build 0)  -->
<svg version="1.1" id="Layer_1" xmlns="http://www.w3.org/2000/svg" xmlns:xlink="http://www.w3.org/1999/xlink" x="0px" y="0px"
	 viewBox="0 0 496 496" style="enable-background:new 0 0 496 496;" xml:space="preserve">
<path style="fill:#C18205;" d="M484.8,48H287.2c-6.4,0-12,0-18.4,9.6L258.4,72H24.8C11.2,72,0,84.8,0,98.4v314.4
	C0,426.4,11.2,440,24.8,440h446.4c13.6,0,24.8-13.6,24.8-27.2V169.6V99.2V57.6C496,52,491.2,48,484.8,48z"/>
<path style="fill:#AA6E04;" d="M485.6,371.2c6.4-4.8,10.4-12,10.4-20V169.6V99.2V57.6c0-5.6-4.8-9.6-11.2-9.6H287.2
	c-6.4,0-12,0-18.4,9.6L258.4,72H24.8C12,72,1.6,82.4,0,94.4L485.6,371.2z"/>
<path style="fill:#915A02;" d="M16.8,104l468.8,265.6c6.4-4.8,10.4-10.4,10.4-18.4V169.6v-44.8L465.6,104H16.8z"/>
<rect x="40" y="104" style="fill:#FFFFFF;" width="416" height="304"/>
<g>
	<rect x="256" y="104" style="fill:#EFEFEF;" width="200" height="304"/>
	<path style="fill:#EFEFEF;" d="M392,208H104c-6.4,0-12-5.6-12-12s5.6-12,12-12h288c6.4,0,12,5.6,12,12S398.4,208,392,208z"/>
	<path style="fill:#EFEFEF;" d="M392,272H104c-6.4,0-12-5.6-12-12s5.6-12,12-12h288c6.4,0,12,5.6,12,12S398.4,272,392,272z"/>
</g>
<g>
	<path style="fill:#B1BAB9;" d="M392,192H104c-6.4,0-12-5.6-12-12s5.6-12,12-12h288c6.4,0,12,5.6,12,12S398.4,192,392,192z"/>
	<path style="fill:#B1BAB9;" d="M392,256H104c-6.4,0-12-5.6-12-12s5.6-12,12-12h288c6.4,0,12,5.6,12,12S398.4,256,392,256z"/>
</g>
<path style="fill:#FFB000;" d="M496,424c0,13.6-11.2,24-24.8,24H24.8C11.2,448,0,437.6,0,424l8-96c0-13.6,11.2-24,24.8-24H464
	c13.6,0,24.8,10.4,24.8,24L496,424z"/>
<path style="fill:#FFC200;" d="M476.8,447.2c0.8,0,1.6-0.8,3.2-0.8c0.8,0,0.8,0,1.6-0.8c0.8,0,1.6-0.8,2.4-1.6
	c0.8-0.8,0.8-0.8,1.6-0.8l1.6-1.6c2.4-1.6,3.2-2.4,4.8-5.6L256,304H32.8C19.2,304,8,314.4,8,328l-8,96c0,13.6,11.2,24,24.8,24h446.4
	c1.6,0,2.4,0,4,0C475.2,448,476.8,447.2,476.8,447.2z"/>
<g>
</g>
<g>
</g>
<g>
</g>
<g>
</g>
<g>
</g>
<g>
</g>
<g>
</g>
<g>
</g>
<g>
</g>
<g>
</g>
<g>
</g>
<g>
</g>
<g>
</g>
<g>
</g>
<g>
</g>
</svg>
