<svg width="17" height="17" viewBox="0 0 17 17" fill="none" xmlns="http://www.w3.org/2000/svg">
<path d="M3.47266 4.08325C3.47266 2.97868 4.36809 2.08325 5.47266 2.08325H8.08377C8.22184 2.08325 8.33377 2.19518 8.33377 2.33325V4.94436C8.33377 6.04893 9.2292 6.94436 10.3338 6.94436H12.9449C13.0829 6.94436 13.1949 7.05629 13.1949 7.19436V12.5833C13.1949 13.6878 12.2994 14.5833 11.1949 14.5833H5.47266C4.36809 14.5833 3.47266 13.6878 3.47266 12.5833V4.08325Z" fill="#7E869E" fill-opacity="0.25"/>
<path d="M9.02734 5.24992V2.68681C9.02734 2.46408 9.29663 2.35254 9.45412 2.51003L12.7672 5.82314C12.9247 5.98063 12.8132 6.24992 12.5905 6.24992H10.0273C9.47506 6.24992 9.02734 5.8022 9.02734 5.24992Z" fill="#7E869E" fill-opacity="0.75"/>
<path d="M5.90234 9.375L10.069 9.375" stroke="white" stroke-linecap="round"/>
<path d="M5.90234 11.4583L9.37457 11.4583" stroke="white" stroke-linecap="round"/>
</svg>
