<svg width="120" height="120" viewBox="0 0 120 120" fill="none" xmlns="http://www.w3.org/2000/svg">
<path d="M5.15151 84.3237C8.56152 92.0131 13.5502 98.8995 19.7939 104.536C26.0376 110.173 33.3966 114.434 41.3935 117.042C49.3904 119.651 57.8465 120.548 66.2128 119.677C74.5792 118.806 82.6689 116.186 89.9571 111.986C97.2452 107.787 103.569 102.101 108.518 95.2994C113.466 88.4976 116.93 80.7312 118.683 72.5044C120.436 64.2775 120.439 55.7739 118.693 47.5455C116.947 39.3172 113.49 31.5479 108.548 24.7418L105.897 26.6671C110.57 33.1015 113.837 40.4466 115.488 48.2256C117.139 56.0047 117.135 64.0439 115.478 71.8215C113.821 79.5992 110.547 86.9415 105.868 93.3719C101.19 99.8023 95.2114 105.177 88.3212 109.148C81.4311 113.118 73.7831 115.595 65.8736 116.419C57.9641 117.242 49.9698 116.393 42.4096 113.927C34.8493 111.461 27.8921 107.433 21.9894 102.104C16.0867 96.7754 11.3704 90.265 8.14656 82.9955L5.15151 84.3237Z" fill="#F2D721"/>
<path d="M103.649 18.832C94.5312 9.16529 82.4628 2.79866 69.3367 0.730899C56.2106 -1.33687 42.7694 1.01122 31.1217 7.4068C19.4741 13.8024 10.279 23.8836 4.97908 36.0689C-0.320863 48.2542 -1.42583 61.8541 1.83751 74.7352L5.01353 73.9305C1.92838 61.7529 2.97302 48.8956 7.98355 37.3757C12.9941 25.8558 21.687 16.325 32.6986 10.2787C43.7102 4.23236 56.4175 2.0125 68.8268 3.96735C81.2362 5.9222 92.6456 11.9412 101.265 21.08L103.649 18.832Z" fill="#DA70D6"/>
<path d="M59.4062 67.8422V82.3125H22.8438V67.8422C22.8444 66.7179 23.1807 65.6194 23.8095 64.6874C24.4383 63.7554 25.3311 63.0324 26.3734 62.6109L36.9062 58.4062H45.3438L55.8766 62.6109C56.9189 63.0324 57.8117 63.7554 58.4405 64.6874C59.0693 65.6194 59.4056 66.7179 59.4062 67.8422Z" fill="#3D9AE2"/>
<path d="M45.3438 50.4189V57.0002L41.125 64.0314L36.9062 57.0002V50.4189H45.3438Z" fill="#FFC477"/>
<path d="M45.3438 50.4189V57.0002L45.0906 57.4221C43.8688 58.0685 42.5074 58.4065 41.125 58.4065C39.7426 58.4065 38.3812 58.0685 37.1594 57.4221L36.9062 57.0002V50.4189H45.3438Z" fill="#FFB655"/>
<path d="M36.9062 57L41.125 64.0312L35.5 68.25L34.0938 61.2188L35.6266 58.9125L36.9062 57Z" fill="#1E81CE"/>
<path d="M46.6234 58.9125L48.1562 61.2188L46.75 68.25L41.125 64.0312L45.3438 57L46.6234 58.9125Z" fill="#1E81CE"/>
<path d="M49.5625 31.6875V42.9375H32.6875V35.9062C32.6875 34.7874 33.132 33.7143 33.9231 32.9231C34.7143 32.132 35.7874 31.6875 36.9062 31.6875H49.5625Z" fill="#57565C"/>
<path d="M34.0938 42.9375V47.1562H31.2812C30.537 47.1507 29.8249 46.8526 29.2986 46.3264C28.7724 45.8001 28.4743 45.088 28.4688 44.3438C28.471 43.5985 28.768 42.8844 29.295 42.3575C29.8219 41.8305 30.536 41.5335 31.2812 41.5312H34.0938V42.9375Z" fill="#FFB655"/>
<path d="M50.9688 41.5312C51.714 41.5335 52.4281 41.8305 52.955 42.3575C53.482 42.8844 53.779 43.5985 53.7812 44.3438C53.7757 45.088 53.4776 45.8001 52.9514 46.3264C52.4251 46.8526 51.713 47.1507 50.9688 47.1562H48.1562V41.5312H50.9688Z" fill="#FFB655"/>
<path d="M49.5625 41.5312V47.1562C49.5625 49.394 48.6736 51.5401 47.0912 53.1225C45.5089 54.7048 43.3628 55.5938 41.125 55.5938C38.8872 55.5938 36.7411 54.7048 35.1588 53.1225C33.5764 51.5401 32.6875 49.394 32.6875 47.1562V41.5312C32.6897 40.786 32.9868 40.0719 33.5137 39.545C34.0407 39.018 34.7548 38.721 35.5 38.7188H46.75C47.4952 38.721 48.2093 39.018 48.7363 39.545C49.2632 40.0719 49.5603 40.786 49.5625 41.5312V41.5312Z" fill="#FFC477"/>
<path d="M53.7812 66.8438V82.3125H28.4688V66.8438C28.4688 66.4708 28.6169 66.1131 28.8806 65.8494C29.1444 65.5857 29.502 65.4375 29.875 65.4375H52.375C52.748 65.4375 53.1056 65.5857 53.3694 65.8494C53.6331 66.1131 53.7812 66.4708 53.7812 66.8438Z" fill="#D8D7DA"/>
<path d="M41.125 76.6875C42.6783 76.6875 43.9375 75.4283 43.9375 73.875C43.9375 72.3217 42.6783 71.0625 41.125 71.0625C39.5717 71.0625 38.3125 72.3217 38.3125 73.875C38.3125 75.4283 39.5717 76.6875 41.125 76.6875Z" fill="#E6E7E8"/>
<path d="M91.75 87.9375H24.25V97.7812H91.75V87.9375Z" fill="#A97C50"/>
<path d="M98.7812 82.3125V87.9375H91.75H24.25H17.2188V82.3125H98.7812Z" fill="#A97C50"/>
<path d="M88.9375 59.8125H69.25C67.6967 59.8125 66.4375 61.0717 66.4375 62.625V68.25C66.4375 69.8033 67.6967 71.0625 69.25 71.0625H88.9375C90.4908 71.0625 91.75 69.8033 91.75 68.25V62.625C91.75 61.0717 90.4908 59.8125 88.9375 59.8125Z" fill="#D8D7DA"/>
<path d="M88.9375 71.0625H69.25C67.6967 71.0625 66.4375 72.3217 66.4375 73.875V79.5C66.4375 81.0533 67.6967 82.3125 69.25 82.3125H88.9375C90.4908 82.3125 91.75 81.0533 91.75 79.5V73.875C91.75 72.3217 90.4908 71.0625 88.9375 71.0625Z" fill="#ACABB1"/>
<path d="M88.9375 48.5625H69.25C67.6967 48.5625 66.4375 49.8217 66.4375 51.375V57C66.4375 58.5533 67.6967 59.8125 69.25 59.8125H88.9375C90.4908 59.8125 91.75 58.5533 91.75 57V51.375C91.75 49.8217 90.4908 48.5625 88.9375 48.5625Z" fill="#ACABB1"/>
<path d="M91.75 42.9377H63.625C61.7602 42.9377 59.9718 42.1969 58.6532 40.8783C57.3345 39.5597 56.5938 37.7712 56.5938 35.9064C56.5938 34.0416 57.3345 32.2532 58.6532 30.9346C59.9718 29.616 61.7602 28.8752 63.625 28.8752H65.2844C65.0035 28.0974 64.9584 27.2541 65.155 26.4508C65.3515 25.6476 65.7808 24.9203 66.3891 24.3601C66.9973 23.7998 67.7575 23.4317 68.5741 23.3018C69.3908 23.1719 70.2276 23.286 70.9797 23.6299C71.5709 21.3068 72.9902 19.2797 74.9709 17.9295C76.9516 16.5793 79.3573 15.9991 81.7357 16.2979C84.1141 16.5967 86.3015 17.754 87.8867 19.5522C89.4718 21.3503 90.3456 23.6656 90.3438 26.0627C90.3464 27.0151 90.209 27.9628 89.9359 28.8752H91.75C93.6148 28.8752 95.4032 29.616 96.7218 30.9346C98.0405 32.2532 98.7812 34.0416 98.7812 35.9064C98.7812 37.7712 98.0405 39.5597 96.7218 40.8783C95.4032 42.1969 93.6148 42.9377 91.75 42.9377V42.9377Z" fill="#78B9EB"/>
<path d="M91.75 87.9375H24.25V90.75H91.75V87.9375Z" fill="#8B5E3C"/>
<path d="M44.6406 50.4328L43.2344 48C42.5903 48.3622 41.8639 48.5525 41.125 48.5525C40.3861 48.5525 39.6597 48.3622 39.0156 48L37.6094 50.4328C38.6783 51.0499 39.8908 51.3748 41.125 51.3748C42.3592 51.3748 43.5717 51.0499 44.6406 50.4328Z" fill="black"/>
<path d="M98.7812 80.9062H92.9031C93.0668 80.4553 93.1524 79.9797 93.1562 79.5V73.875C93.1535 72.8336 92.7624 71.8307 92.0594 71.0625C92.7624 70.2943 93.1535 69.2914 93.1562 68.25V62.625C93.1535 61.5836 92.7624 60.5807 92.0594 59.8125C92.7624 59.0443 93.1535 58.0414 93.1562 57V51.375C93.1529 50.2571 92.7074 49.186 91.9169 48.3956C91.1265 47.6051 90.0554 47.1596 88.9375 47.1562H69.25C68.1321 47.1596 67.061 47.6051 66.2706 48.3956C65.4801 49.186 65.0346 50.2571 65.0312 51.375V57C65.034 58.0414 65.4251 59.0443 66.1281 59.8125C65.4251 60.5807 65.034 61.5836 65.0312 62.625V68.25C65.034 69.2914 65.4251 70.2943 66.1281 71.0625C65.4251 71.8307 65.034 72.8336 65.0312 73.875V79.5C65.0351 79.9797 65.1207 80.4553 65.2844 80.9062H60.8125V67.8422C60.815 66.4356 60.3955 65.0606 59.6084 63.8949C58.8212 62.7292 57.7025 61.8264 56.3969 61.3031L47.5516 57.7734L46.75 56.5781V55.2281C47.8536 54.4566 48.7873 53.4671 49.4935 52.3206C50.1998 51.1742 50.6636 49.8952 50.8563 48.5625H50.9688C52.0876 48.5625 53.1607 48.118 53.9519 47.3269C54.743 46.5357 55.1875 45.4626 55.1875 44.3438C55.1875 43.2249 54.743 42.1518 53.9519 41.3606C53.1607 40.5695 52.0876 40.125 50.9688 40.125H50.7156C50.5236 39.6082 50.2376 39.1314 49.8719 38.7188C50.5749 37.9505 50.966 36.9476 50.9688 35.9062V31.6875C50.9688 31.3145 50.8206 30.9569 50.5569 30.6931C50.2931 30.4294 49.9355 30.2812 49.5625 30.2812H36.9062C35.4144 30.2813 33.9837 30.8739 32.9288 31.9288C31.8739 32.9837 31.2813 34.4144 31.2812 35.9062V40.125C30.1624 40.125 29.0893 40.5695 28.2981 41.3606C27.507 42.1518 27.0625 43.2249 27.0625 44.3438C27.0625 45.4626 27.507 46.5357 28.2981 47.3269C29.0893 48.118 30.1624 48.5625 31.2812 48.5625H31.3937C31.5864 49.8952 32.0502 51.1742 32.7565 52.3206C33.4627 53.4671 34.3964 54.4566 35.5 55.2281V56.5781L34.6984 57.7734L25.8531 61.3031C24.5475 61.8264 23.4288 62.7292 22.6416 63.8949C21.8545 65.0606 21.435 66.4356 21.4375 67.8422V80.9062H17.2188C16.8458 80.9062 16.4881 81.0544 16.2244 81.3181C15.9607 81.5819 15.8125 81.9395 15.8125 82.3125V87.9375C15.8125 88.3105 15.9607 88.6681 16.2244 88.9319C16.4881 89.1956 16.8458 89.3438 17.2188 89.3438H22.8438V97.7812C22.8438 98.1542 22.9919 98.5119 23.2556 98.7756C23.5194 99.0393 23.877 99.1875 24.25 99.1875H91.75C92.123 99.1875 92.4806 99.0393 92.7444 98.7756C93.0081 98.5119 93.1562 98.1542 93.1562 97.7812V89.3438H98.7812C99.1542 89.3438 99.5119 89.1956 99.7756 88.9319C100.039 88.6681 100.188 88.3105 100.188 87.9375V82.3125C100.188 81.9395 100.039 81.5819 99.7756 81.3181C99.5119 81.0544 99.1542 80.9062 98.7812 80.9062ZM50.9688 42.9375C51.3417 42.9375 51.6994 43.0857 51.9631 43.3494C52.2268 43.6131 52.375 43.9708 52.375 44.3438C52.375 44.7167 52.2268 45.0744 51.9631 45.3381C51.6994 45.6018 51.3417 45.75 50.9688 45.75V42.9375ZM31.2812 45.75C30.9083 45.75 30.5506 45.6018 30.2869 45.3381C30.0232 45.0744 29.875 44.7167 29.875 44.3438C29.875 43.9708 30.0232 43.6131 30.2869 43.3494C30.5506 43.0857 30.9083 42.9375 31.2812 42.9375V45.75ZM67.8438 51.375C67.8438 51.002 67.9919 50.6444 68.2556 50.3806C68.5194 50.1169 68.877 49.9688 69.25 49.9688H88.9375C89.3105 49.9688 89.6681 50.1169 89.9319 50.3806C90.1956 50.6444 90.3438 51.002 90.3438 51.375V57C90.3438 57.373 90.1956 57.7306 89.9319 57.9944C89.6681 58.2581 89.3105 58.4062 88.9375 58.4062H69.25C68.877 58.4062 68.5194 58.2581 68.2556 57.9944C67.9919 57.7306 67.8438 57.373 67.8438 57V51.375ZM67.8438 62.625C67.8438 62.252 67.9919 61.8944 68.2556 61.6306C68.5194 61.3669 68.877 61.2188 69.25 61.2188H88.9375C89.3105 61.2188 89.6681 61.3669 89.9319 61.6306C90.1956 61.8944 90.3438 62.252 90.3438 62.625V68.25C90.3438 68.623 90.1956 68.9806 89.9319 69.2444C89.6681 69.5081 89.3105 69.6562 88.9375 69.6562H69.25C68.877 69.6562 68.5194 69.5081 68.2556 69.2444C67.9919 68.9806 67.8438 68.623 67.8438 68.25V62.625ZM67.8438 73.875C67.8438 73.502 67.9919 73.1444 68.2556 72.8806C68.5194 72.6169 68.877 72.4688 69.25 72.4688H88.9375C89.3105 72.4688 89.6681 72.6169 89.9319 72.8806C90.1956 73.1444 90.3438 73.502 90.3438 73.875V79.5C90.3438 79.873 90.1956 80.2306 89.9319 80.4944C89.6681 80.7581 89.3105 80.9062 88.9375 80.9062H69.25C68.877 80.9062 68.5194 80.7581 68.2556 80.4944C67.9919 80.2306 67.8438 79.873 67.8438 79.5V73.875ZM49.5203 61.5844L55.3563 63.9187C56.1386 64.2336 56.8086 64.7757 57.2799 65.475C57.7511 66.1744 58.0019 66.9989 58 67.8422V80.9062H55.1875V66.8438C55.1853 66.0985 54.8882 65.3844 54.3613 64.8575C53.8343 64.3305 53.1202 64.0335 52.375 64.0312H49.0281L49.5203 61.5844ZM34.0938 35.9062C34.096 35.161 34.393 34.4469 34.92 33.92C35.4469 33.393 36.161 33.096 36.9062 33.0938H48.1562V35.9062C48.1562 36.2792 48.0081 36.6369 47.7444 36.9006C47.4806 37.1643 47.123 37.3125 46.75 37.3125H35.5C35.0203 37.3163 34.5447 37.4019 34.0938 37.5656V35.9062ZM34.0938 47.1562V41.5312C34.0938 41.1583 34.2419 40.8006 34.5056 40.5369C34.7694 40.2732 35.127 40.125 35.5 40.125H46.75C47.123 40.125 47.4806 40.2732 47.7444 40.5369C48.0081 40.8006 48.1562 41.1583 48.1562 41.5312V47.1562C48.1562 49.0211 47.4155 50.8095 46.0968 52.1281C44.7782 53.4467 42.9898 54.1875 41.125 54.1875C39.2602 54.1875 37.4718 53.4467 36.1532 52.1281C34.8345 50.8095 34.0938 49.0211 34.0938 47.1562ZM38.3125 56.6062V56.5922C40.1481 57.1359 42.1019 57.1359 43.9375 56.5922V56.6062L41.125 61.3031L38.3125 56.6062ZM39.2688 63.6656L38.7906 64.0312H36.0906L35.5844 61.5141L36.85 59.6297L39.2688 63.6656ZM45.4 59.6297L46.6656 61.5141L46.1594 64.0312H43.4594L42.9812 63.6656L45.4 59.6297ZM52.375 66.8438V80.9062H29.875V66.8438H52.375ZM24.25 67.8422C24.2481 66.9989 24.4989 66.1744 24.9701 65.475C25.4414 64.7757 26.1114 64.2336 26.8938 63.9187L32.7297 61.5844L33.2219 64.0312H29.875C29.1298 64.0335 28.4157 64.3305 27.8887 64.8575C27.3618 65.3844 27.0647 66.0985 27.0625 66.8438V80.9062H24.25V67.8422ZM90.3438 96.375H25.6562V89.3438H90.3438V96.375ZM97.375 86.5312H18.625V83.7188H97.375V86.5312Z" fill="black"/>
<path d="M41.125 78.0937C41.9594 78.0937 42.775 77.8463 43.4688 77.3828C44.1626 76.9192 44.7033 76.2603 45.0226 75.4894C45.3419 74.7186 45.4255 73.8703 45.2627 73.052C45.0999 72.2336 44.6981 71.4819 44.1081 70.8919C43.5181 70.3019 42.7664 69.9001 41.948 69.7373C41.1297 69.5745 40.2814 69.6581 39.5106 69.9774C38.7397 70.2967 38.0808 70.8374 37.6172 71.5312C37.1537 72.225 36.9062 73.0406 36.9062 73.875C36.9063 74.9939 37.3507 76.0669 38.1419 76.8581C38.9331 77.6493 40.0061 78.0937 41.125 78.0937ZM41.125 72.4688C41.4031 72.4688 41.675 72.5512 41.9063 72.7057C42.1375 72.8603 42.3178 73.0799 42.4242 73.3369C42.5306 73.5938 42.5585 73.8766 42.5042 74.1493C42.45 74.4221 42.316 74.6727 42.1194 74.8694C41.9227 75.066 41.6721 75.2 41.3993 75.2542C41.1266 75.3085 40.8438 75.2806 40.5869 75.1742C40.3299 75.0678 40.1103 74.8875 39.9557 74.6563C39.8012 74.425 39.7188 74.1531 39.7188 73.875C39.7188 73.502 39.8669 73.1444 40.1306 72.8806C40.3944 72.6169 40.752 72.4688 41.125 72.4688Z" fill="black"/>
<path d="M73.4688 75.2812H70.6562V78.0938H73.4688V75.2812Z" fill="black"/>
<path d="M79.0938 75.2812H76.2812V78.0938H79.0938V75.2812Z" fill="black"/>
<path d="M73.4688 64.0312H70.6562V66.8438H73.4688V64.0312Z" fill="black"/>
<path d="M79.0938 64.0312H76.2812V66.8438H79.0938V64.0312Z" fill="black"/>
<path d="M73.4688 52.7812H70.6562V55.5938H73.4688V52.7812Z" fill="black"/>
<path d="M79.0938 52.7812H76.2812V55.5938H79.0938V52.7812Z" fill="black"/>
<path d="M100.188 35.9061C100.187 38.1439 99.2986 40.29 97.7162 41.8724C96.1339 43.4547 93.9878 44.3436 91.75 44.3436H83.3125V41.5311H91.75C93.2418 41.5311 94.6726 40.9385 95.7275 39.8836C96.7824 38.8287 97.375 37.398 97.375 35.9061C97.375 34.4143 96.7824 32.9836 95.7275 31.9287C94.6726 30.8738 93.2418 30.2811 91.75 30.2811H89.9359C89.7156 30.2814 89.4982 30.2307 89.3006 30.1332C89.103 30.0356 88.9306 29.8937 88.7969 29.7186C88.67 29.5393 88.5851 29.3336 88.5486 29.1169C88.512 28.9003 88.5248 28.6781 88.5859 28.4671C88.8215 27.6873 88.94 26.8769 88.9375 26.0624C88.9348 24.0095 88.1837 22.028 86.8249 20.489C85.4662 18.9501 83.5929 17.9594 81.5561 17.7024C79.5194 17.4455 77.4588 17.9399 75.7603 19.0931C74.0619 20.2463 72.8422 21.9792 72.3297 23.9671C72.2826 24.1676 72.1913 24.3551 72.0623 24.5157C71.9333 24.6763 71.77 24.806 71.5844 24.8952C71.3996 24.9808 71.1989 25.0264 70.9953 25.0288C70.7916 25.0312 70.5898 24.9905 70.4031 24.9093C69.9755 24.7138 69.5055 24.6292 69.0366 24.6631C68.5676 24.697 68.1148 24.8484 67.7197 25.1034C67.3247 25.3584 67.0001 25.7087 66.7761 26.122C66.552 26.5354 66.4356 26.9985 66.4375 27.4686C66.4408 27.7912 66.5027 28.1105 66.6203 28.4108C66.6947 28.6235 66.7168 28.8509 66.6849 29.0739C66.6531 29.2969 66.5681 29.509 66.4372 29.6923C66.3062 29.8756 66.1332 30.0248 65.9326 30.1272C65.7319 30.2297 65.5096 30.2825 65.2844 30.2811H63.625C62.1332 30.2811 60.7024 30.8738 59.6475 31.9287C58.5926 32.9836 58 34.4143 58 35.9061C58 37.398 58.5926 38.8287 59.6475 39.8836C60.7024 40.9385 62.1332 41.5311 63.625 41.5311H74.875V44.3436H63.625C61.3872 44.3436 59.2411 43.4547 57.6588 41.8724C56.0764 40.29 55.1875 38.1439 55.1875 35.9061C55.1875 33.6684 56.0764 31.5223 57.6588 29.9399C59.2411 28.3576 61.3872 27.4686 63.625 27.4686C63.625 25.9768 64.2176 24.5461 65.2725 23.4912C66.3274 22.4363 67.7582 21.8436 69.25 21.8436C69.5182 21.8414 69.7863 21.8602 70.0516 21.8999C71.0208 19.4716 72.8055 17.4568 75.0991 16.2016C77.3926 14.9464 80.0518 14.5292 82.6195 15.0218C85.1872 15.5144 87.5032 16.8859 89.1695 18.9007C90.8357 20.9156 91.7482 23.4478 91.75 26.0624C91.7499 26.5324 91.7217 27.002 91.6656 27.4686H91.75C93.9878 27.4686 96.1339 28.3576 97.7162 29.9399C99.2986 31.5223 100.188 33.6684 100.188 35.9061V35.9061Z" fill="black"/>
<path d="M84.0661 37.9665C82.746 36.6503 80.9578 35.9111 79.0936 35.9111C77.2294 35.9111 75.4412 36.6503 74.1211 37.9665L76.1095 39.955C76.5013 39.5629 76.9665 39.252 77.4785 39.0398C77.9905 38.8276 78.5393 38.7184 79.0936 38.7184C79.6478 38.7184 80.1966 38.8276 80.7087 39.0398C81.2207 39.252 81.6859 39.5629 82.0776 39.955L84.0661 37.9665Z" fill="black"/>
<path d="M86.0548 35.9763L88.0433 33.9879C85.6681 31.6174 82.4495 30.2861 79.0939 30.2861C75.7383 30.2861 72.5197 31.6174 70.1445 33.9879L72.133 35.9763C73.9807 34.1331 76.484 33.098 79.0939 33.098C81.7038 33.098 84.2071 34.1331 86.0548 35.9763V35.9763Z" fill="black"/>
<path d="M77.1055 42.3552L79.0939 44.3436L81.0824 42.3552C80.5549 41.8279 79.8397 41.5317 79.0939 41.5317C78.3481 41.5317 77.6329 41.8279 77.1055 42.3552Z" fill="black"/>
</svg>
