<svg width="176" height="131" viewBox="0 0 176 131" fill="none" xmlns="http://www.w3.org/2000/svg">
<g clip-path="url(#clip0_44_3177)">
<path opacity="0.1" d="M102.259 23.1029C90.9761 22.6979 80.2213 18.9353 69.9672 14.8195C59.7131 10.7037 49.5498 6.14274 38.5308 3.96183C31.4463 2.55755 23.3441 2.36005 17.637 6.28333C12.1437 10.0577 10.3693 16.5736 9.41488 22.6192C8.69703 27.1685 8.28058 31.9554 10.2429 36.2151C11.6089 39.171 14.0331 41.6565 15.7103 44.4885C21.5438 54.3419 17.4198 66.4934 11.0969 76.1225C8.1315 80.6417 4.69132 84.9416 2.40327 89.7469C0.115222 94.5523 -0.94454 100.057 1.05831 104.958C3.04334 109.812 7.77177 113.464 12.8956 116.03C23.302 121.237 35.5638 122.727 47.521 123.58C73.9891 125.45 100.6 124.64 127.138 123.83C136.959 123.528 146.824 123.225 156.485 121.654C161.851 120.782 167.391 119.399 171.286 116.062C176.23 111.824 177.457 104.65 174.143 99.3359C168.585 90.4248 153.219 88.2104 149.333 78.6466C147.195 73.3826 149.391 67.5178 152.499 62.6354C159.164 52.1627 170.338 42.9738 170.927 31.0014C171.332 22.7782 165.96 14.545 157.654 10.6535C148.949 6.57122 136.876 7.08674 130.455 13.8337C123.842 20.7848 112.22 23.4594 102.259 23.1029Z" fill="#6C63FF"/>
<path d="M39.2549 121.354C39.2549 121.354 30.3426 114.395 28.6589 105.542C27.9762 101.824 26.1448 98.4348 23.4395 95.8828C22.1454 94.6823 20.7476 93.6066 19.2637 92.6692" stroke="#535461" stroke-width="2" stroke-miterlimit="10"/>
<path d="M18.1729 87.0925C18.954 88.1838 19.3073 92.8084 19.3073 92.8084C19.3073 92.8084 15.1314 91.1095 14.3487 90.0199C13.9729 89.4961 13.8139 88.8395 13.9068 88.1946C13.9996 87.5497 14.3366 86.9694 14.8438 86.5812C15.3509 86.193 15.9865 86.0287 16.6109 86.1246C17.2352 86.2205 17.7971 86.5687 18.1729 87.0925V87.0925Z" fill="#6C63FF"/>
<path d="M25.6626 90.7209C25.7437 92.075 23.6096 96.1556 23.6096 96.1556C23.6096 96.1556 20.9958 92.383 20.9132 91.0289C20.8817 90.3833 21.0978 89.751 21.5146 89.2689C21.9314 88.7868 22.5153 88.4937 23.1399 88.4532C23.7644 88.4127 24.3792 88.628 24.8511 89.0525C25.323 89.4769 25.614 90.0764 25.661 90.7209H25.6626Z" fill="#6C63FF"/>
<path d="M32.9228 101.152C32.3329 102.364 28.4941 104.774 28.4941 104.774C28.4941 104.774 28.0842 100.154 28.674 98.9425C28.9644 98.3727 29.4597 97.9433 30.0535 97.7469C30.6472 97.5505 31.2919 97.6026 31.8487 97.8922C32.4056 98.1818 32.8302 98.6856 33.031 99.2952C33.2319 99.9049 33.193 100.572 32.9228 101.152V101.152Z" fill="#6C63FF"/>
<path d="M36.6964 110.318C36.3123 111.615 32.924 114.659 32.924 114.659C32.924 114.659 31.7622 110.179 32.1462 108.88C32.3308 108.257 32.7475 107.735 33.3047 107.429C33.8619 107.123 34.5139 107.058 35.1173 107.249C35.7207 107.439 36.226 107.87 36.5221 108.445C36.8183 109.021 36.881 109.694 36.6964 110.318V110.318Z" fill="#6C63FF"/>
<path d="M19.7467 99.4362C21.043 99.6169 25.1411 97.7055 25.1411 97.7055C25.1411 97.7055 21.6831 94.7463 20.3803 94.5656C19.755 94.4788 19.1219 94.6521 18.6203 95.0475C18.1188 95.4428 17.7898 96.0278 17.7058 96.6737C17.6217 97.3195 17.7896 97.9734 18.1723 98.4915C18.5551 99.0096 19.1214 99.3494 19.7467 99.4362V99.4362Z" fill="#6C63FF"/>
<path d="M24.2922 110.1C25.5885 109.87 28.938 106.782 28.938 106.782C28.938 106.782 24.7799 105.028 23.4852 105.258C23.1752 105.31 22.8784 105.425 22.6118 105.597C22.3452 105.769 22.1142 105.993 21.932 106.257C21.7499 106.522 21.6202 106.821 21.5505 107.137C21.4808 107.454 21.4725 107.781 21.526 108.101C21.5795 108.42 21.6937 108.726 21.8622 109C22.0306 109.274 22.2499 109.51 22.5074 109.696C22.7649 109.882 23.0555 110.014 23.3624 110.083C23.6692 110.152 23.9864 110.158 24.2954 110.1H24.2922Z" fill="#6C63FF"/>
<path d="M30.0845 119.84C31.3987 119.84 35.2067 117.381 35.2067 117.381C35.2067 117.381 31.3971 114.925 30.0829 114.925C29.452 114.925 28.8469 115.184 28.4008 115.645C27.9547 116.106 27.7041 116.731 27.7041 117.382C27.7041 118.034 27.9547 118.659 28.4008 119.12C28.8469 119.581 29.452 119.84 30.0829 119.84H30.0845Z" fill="#6C63FF"/>
<path d="M125.835 61.1609C125.835 61.1609 131.328 51.11 139.609 48.2144C143.086 47.0217 146.095 44.6966 148.184 41.588C149.164 40.1018 150.01 38.5258 150.71 36.8797" stroke="#535461" stroke-width="2" stroke-miterlimit="10"/>
<path d="M155.908 35.0386C154.965 35.9826 150.575 36.96 150.575 36.96C150.575 36.96 151.653 32.4576 152.596 31.5119C153.051 31.0717 153.655 30.8337 154.279 30.8492C154.902 30.8647 155.495 31.1324 155.929 31.5947C156.363 32.0571 156.604 32.677 156.6 33.3211C156.597 33.9652 156.348 34.5819 155.908 35.0386Z" fill="#6C63FF"/>
<path d="M153.426 43.1778C152.13 43.4422 147.938 41.7986 147.938 41.7986C147.938 41.7986 151.211 38.6185 152.499 38.359C152.808 38.2881 153.128 38.2818 153.44 38.3403C153.752 38.3989 154.049 38.5211 154.314 38.7C154.58 38.8788 154.808 39.1106 154.985 39.3818C155.163 39.6529 155.286 39.9579 155.348 40.2789C155.409 40.5999 155.408 40.9304 155.345 41.251C155.281 41.5716 155.156 41.8759 154.977 42.1459C154.798 42.416 154.569 42.6463 154.302 42.8235C154.036 43.0007 153.738 43.1212 153.426 43.1778V43.1778Z" fill="#6C63FF"/>
<path d="M144.391 51.9953C143.149 51.5517 140.328 47.9431 140.328 47.9431C140.328 47.9431 144.703 46.9087 145.948 47.3523C146.247 47.4547 146.523 47.6175 146.761 47.8312C146.998 48.0448 147.193 48.3051 147.332 48.5969C147.471 48.8887 147.553 49.2062 147.573 49.5309C147.593 49.8557 147.55 50.1812 147.447 50.4887C147.343 50.7962 147.182 51.0794 146.972 51.322C146.762 51.5646 146.508 51.7617 146.223 51.9018C145.939 52.042 145.631 52.1224 145.316 52.1385C145.001 52.1545 144.687 52.1058 144.391 51.9953V51.9953Z" fill="#6C63FF"/>
<path d="M136.087 57.0769C134.791 56.8559 131.427 53.7846 131.427 53.7846C131.427 53.7846 135.573 52.0004 136.868 52.2213C137.491 52.3272 138.048 52.6844 138.416 53.2144C138.785 53.7444 138.934 54.4038 138.831 55.0474C138.729 55.6911 138.383 56.2664 137.87 56.6466C137.357 57.0269 136.718 57.1811 136.095 57.0752L136.087 57.0769Z" fill="#6C63FF"/>
<path d="M144.277 38.2789C144.276 39.6363 146.659 43.5747 146.659 43.5747C146.659 43.5747 149.04 39.6414 149.04 38.2856C149.048 37.9577 148.993 37.6313 148.877 37.3258C148.761 37.0203 148.587 36.7419 148.366 36.5069C148.144 36.2719 147.879 36.0851 147.586 35.9576C147.294 35.8301 146.979 35.7644 146.662 35.7644C146.344 35.7644 146.03 35.8301 145.737 35.9576C145.445 36.0851 145.18 36.2719 144.958 36.5069C144.736 36.7419 144.562 37.0203 144.447 37.3258C144.331 37.6313 144.276 37.9577 144.284 38.2856L144.277 38.2789Z" fill="#6C63FF"/>
<path d="M134.647 44.348C135.039 45.6435 138.449 48.6646 138.449 48.6646C138.449 48.6646 139.583 44.1756 139.187 42.8801C138.982 42.2799 138.56 41.7853 138.009 41.5004C137.458 41.2155 136.821 41.1627 136.233 41.3529C135.645 41.5432 135.152 41.9617 134.856 42.5203C134.561 43.079 134.487 43.7342 134.65 44.348H134.647Z" fill="#6C63FF"/>
<path d="M126.079 51.5735C126.254 52.9125 129.119 56.4893 129.119 56.4893C129.119 56.4893 130.968 52.263 130.793 50.919C130.758 50.5934 130.661 50.2782 130.507 49.992C130.352 49.7058 130.144 49.4544 129.894 49.2526C129.644 49.0507 129.358 48.9025 129.052 48.8167C128.746 48.7309 128.426 48.7092 128.112 48.7528C127.797 48.7964 127.495 48.9046 127.221 49.0708C126.948 49.2371 126.71 49.4581 126.52 49.721C126.331 49.9838 126.194 50.2831 126.119 50.6012C126.043 50.9193 126.03 51.2499 126.079 51.5735V51.5735Z" fill="#6C63FF"/>
<path opacity="0.25" d="M155.908 35.0386C154.965 35.9826 150.575 36.96 150.575 36.96C150.575 36.96 151.653 32.4576 152.596 31.5119C153.051 31.0717 153.655 30.8337 154.279 30.8492C154.902 30.8647 155.495 31.1324 155.929 31.5947C156.363 32.0571 156.604 32.677 156.6 33.3211C156.597 33.9652 156.348 34.5819 155.908 35.0386Z" fill="black"/>
<path opacity="0.25" d="M153.426 43.1778C152.13 43.4422 147.938 41.7986 147.938 41.7986C147.938 41.7986 151.211 38.6185 152.499 38.359C152.808 38.2881 153.128 38.2818 153.44 38.3403C153.752 38.3989 154.049 38.5211 154.314 38.7C154.58 38.8788 154.808 39.1106 154.985 39.3818C155.163 39.6529 155.286 39.9579 155.348 40.2789C155.409 40.5999 155.408 40.9304 155.345 41.251C155.281 41.5716 155.156 41.8759 154.977 42.1459C154.798 42.416 154.569 42.6463 154.302 42.8235C154.036 43.0007 153.738 43.1212 153.426 43.1778V43.1778Z" fill="black"/>
<path opacity="0.25" d="M144.391 51.9953C143.149 51.5517 140.328 47.9431 140.328 47.9431C140.328 47.9431 144.703 46.9087 145.948 47.3523C146.247 47.4547 146.523 47.6175 146.761 47.8312C146.998 48.0448 147.193 48.3051 147.332 48.5969C147.471 48.8887 147.553 49.2062 147.573 49.5309C147.593 49.8557 147.55 50.1812 147.447 50.4887C147.343 50.7962 147.182 51.0794 146.972 51.322C146.762 51.5646 146.508 51.7617 146.223 51.9018C145.939 52.042 145.631 52.1224 145.316 52.1385C145.001 52.1545 144.687 52.1058 144.391 51.9953V51.9953Z" fill="black"/>
<path opacity="0.25" d="M136.087 57.0769C134.791 56.8559 131.427 53.7846 131.427 53.7846C131.427 53.7846 135.573 52.0004 136.868 52.2213C137.491 52.3272 138.048 52.6844 138.416 53.2144C138.785 53.7444 138.934 54.4038 138.831 55.0474C138.729 55.6911 138.383 56.2664 137.87 56.6466C137.357 57.0269 136.718 57.1811 136.095 57.0752L136.087 57.0769Z" fill="black"/>
<path opacity="0.25" d="M144.277 38.2789C144.276 39.6363 146.659 43.5747 146.659 43.5747C146.659 43.5747 149.04 39.6414 149.04 38.2856C149.048 37.9577 148.993 37.6313 148.877 37.3258C148.761 37.0203 148.587 36.7419 148.366 36.5069C148.144 36.2719 147.879 36.0851 147.586 35.9576C147.294 35.8301 146.979 35.7644 146.662 35.7644C146.344 35.7644 146.03 35.8301 145.737 35.9576C145.445 36.0851 145.18 36.2719 144.958 36.5069C144.736 36.7419 144.562 37.0203 144.447 37.3258C144.331 37.6313 144.276 37.9577 144.284 38.2856L144.277 38.2789Z" fill="black"/>
<path opacity="0.25" d="M134.647 44.348C135.039 45.6435 138.449 48.6646 138.449 48.6646C138.449 48.6646 139.583 44.1756 139.187 42.8801C138.982 42.2799 138.56 41.7853 138.009 41.5004C137.458 41.2155 136.821 41.1627 136.233 41.3529C135.645 41.5432 135.152 41.9617 134.856 42.5203C134.561 43.079 134.487 43.7342 134.65 44.348H134.647Z" fill="black"/>
<path opacity="0.25" d="M126.079 51.5735C126.254 52.9125 129.119 56.4893 129.119 56.4893C129.119 56.4893 130.968 52.263 130.793 50.919C130.758 50.5934 130.661 50.2782 130.507 49.992C130.352 49.7058 130.144 49.4544 129.894 49.2526C129.644 49.0507 129.358 48.9025 129.052 48.8167C128.746 48.7309 128.426 48.7092 128.112 48.7528C127.797 48.7964 127.495 48.9046 127.221 49.0708C126.948 49.2371 126.71 49.4581 126.52 49.721C126.331 49.9838 126.194 50.2831 126.119 50.6012C126.043 50.9193 126.03 51.2499 126.079 51.5735V51.5735Z" fill="black"/>
<path d="M126.15 60.9616C126.15 60.9616 127.23 49.473 133.656 43.3638C136.367 40.8177 138.206 37.4327 138.897 33.7162C139.211 31.9495 139.368 30.1566 139.365 28.3602" stroke="#535461" stroke-width="2" stroke-miterlimit="10"/>
<path d="M143.394 24.4838C142.908 25.7425 139.271 28.474 139.271 28.474C139.271 28.474 138.49 23.9063 138.981 22.6477C139.218 22.0433 139.677 21.5607 140.258 21.3059C140.839 21.0512 141.494 21.0453 142.079 21.2894C142.664 21.5336 143.131 22.0078 143.378 22.6078C143.625 23.2078 143.63 23.8844 143.394 24.4888V24.4838Z" fill="#6C63FF"/>
<path d="M144.319 32.9729C143.244 33.7529 138.761 34.009 138.761 34.009C138.761 34.009 140.508 29.7342 141.582 28.9543C141.837 28.7573 142.127 28.6151 142.436 28.5362C142.745 28.4573 143.066 28.4432 143.38 28.4948C143.695 28.5463 143.996 28.6625 144.266 28.8364C144.536 29.0104 144.769 29.2385 144.953 29.5073C145.136 29.7761 145.265 30.0802 145.332 30.4014C145.4 30.7227 145.404 31.0547 145.345 31.3777C145.286 31.7007 145.164 32.0081 144.988 32.2819C144.812 32.5556 144.584 32.79 144.319 32.9713V32.9729Z" fill="#6C63FF"/>
<path d="M139.512 44.8199C138.203 44.9338 134.207 42.8114 134.207 42.8114C134.207 42.8114 137.804 40.033 139.114 39.9192C139.742 39.8646 140.366 40.0702 140.848 40.4908C141.33 40.9114 141.631 41.5126 141.684 42.162C141.737 42.8115 141.538 43.456 141.13 43.9538C140.723 44.4516 140.141 44.762 139.512 44.8166V44.8199Z" fill="#6C63FF"/>
<path d="M133.921 52.936C132.649 53.2708 128.364 51.8866 128.364 51.8866C128.364 51.8866 131.454 48.5206 132.726 48.1792C133.337 48.0156 133.986 48.1093 134.53 48.4397C135.073 48.77 135.468 49.31 135.626 49.9408C135.785 50.5716 135.694 51.2415 135.374 51.8033C135.054 52.365 134.531 52.7724 133.921 52.936V52.936Z" fill="#6C63FF"/>
<path d="M134.034 32.3236C134.565 33.5639 138.283 36.1733 138.283 36.1733C138.283 36.1733 138.914 31.5805 138.383 30.3402C138.118 29.76 137.644 29.3097 137.062 29.0856C136.48 28.8616 135.836 28.8815 135.269 29.1412C134.701 29.4008 134.253 29.8796 134.023 30.4752C133.792 31.0708 133.796 31.736 134.034 32.3286V32.3236Z" fill="#6C63FF"/>
<path d="M127.611 41.901C128.477 42.9203 132.778 44.256 132.778 44.256C132.778 44.256 132.052 39.6782 131.185 38.6589C130.981 38.4113 130.73 38.2082 130.449 38.0613C130.168 37.9144 129.861 37.8267 129.547 37.8034C129.232 37.78 128.916 37.8214 128.618 37.9251C128.319 38.0289 128.043 38.193 127.806 38.4078C127.569 38.6226 127.376 38.8839 127.238 39.1764C127.1 39.469 127.019 39.7871 127.001 40.1121C126.983 40.4371 127.027 40.7626 127.132 41.0697C127.237 41.3768 127.399 41.6594 127.611 41.901V41.901Z" fill="#6C63FF"/>
<path d="M122.605 52.0973C123.292 53.2522 127.312 55.3193 127.312 55.3193C127.312 55.3193 127.346 50.6813 126.664 49.5247C126.324 48.9907 125.797 48.6143 125.193 48.4754C124.589 48.3364 123.957 48.4459 123.43 48.7805C122.903 49.1151 122.523 49.6486 122.37 50.2678C122.218 50.887 122.305 51.5432 122.613 52.0973H122.605Z" fill="#6C63FF"/>
<path d="M117.887 15.9693C118.156 14.95 118.48 13.9256 118.707 12.8929C118.434 13.9256 118.109 14.9533 117.887 15.9693Z" fill="url(#paint0_linear_44_3177)"/>
<path d="M116.681 25.7876C116.658 25.7475 116.642 25.7073 116.624 25.6705C116.624 25.6537 116.608 25.6404 116.602 25.6236C116.566 25.6408 116.53 25.6559 116.493 25.6688C116.422 25.6973 116.349 25.724 116.274 25.7458C116.2 25.7676 116.169 25.7793 116.112 25.7927C116.065 25.8094 116.017 25.8223 115.968 25.8312L115.981 25.8613C116.041 25.8479 116.099 25.8362 116.159 25.8194L116.176 26.027C116.244 26.027 116.307 26.017 116.368 26.017C116.397 26.0153 116.427 26.0153 116.456 26.017C116.582 26.017 116.692 26.017 116.78 26.017C116.746 25.9416 116.71 25.863 116.681 25.7876ZM149.576 79.8718C148.814 78.8123 147.294 67.4408 147.294 67.4408C147.294 67.4408 144.305 59.3549 145.12 56.1279C145.935 52.9008 142.893 44.6442 142.893 44.6442C142.893 44.6442 140.884 43.742 140.775 42.403C140.775 42.403 132.571 39.725 132.187 37.7165C131.876 36.0695 126.788 34.8879 124.96 34.5146C124.402 32.1914 123.842 30.0239 123.429 28.8406C123.317 28.4724 123.211 28.1543 123.114 27.9033C122.416 26.0621 120.257 25.8948 118.692 26.0421C118.624 25.7283 118.498 25.431 118.321 25.1667C118.295 25.0758 118.244 24.9949 118.174 24.934C118.14 24.9045 118.104 24.8776 118.067 24.8537C118.038 24.7994 118.001 24.7507 117.956 24.7097C117.912 24.6684 117.863 24.6324 117.811 24.6026C117.773 24.5816 117.734 24.5631 117.694 24.5474C117.6 24.5105 117.503 24.483 117.404 24.4654C117.288 24.4409 117.171 24.4252 117.054 24.4185C117.34 24.2893 117.595 24.0967 117.801 23.8545C117.941 23.6844 118.045 23.486 118.107 23.272C118.158 23.094 118.181 22.9086 118.175 22.723C118.133 22.7995 118.084 22.8718 118.029 22.9389C118.097 22.1974 117.718 21.4442 117.501 20.7061C117.238 19.7452 117.189 18.7351 117.358 17.7519C117.576 16.269 118.114 14.7693 118.478 13.2596C118.479 13.2512 118.479 13.2428 118.478 13.2345C118.669 12.4847 118.788 11.7171 118.831 10.9431C118.895 9.38148 118.507 7.82321 117.885 6.40051C117.333 5.14017 116.517 3.89992 115.27 3.38775C114.343 3.00111 113.304 3.06304 112.306 2.99944C110.066 2.85549 107.931 2.04205 105.802 1.30225C103.672 0.562447 101.481 -0.110404 99.2404 0.0184754C96.9993 0.147355 94.6935 1.26375 93.671 3.31243C93.3469 3.95181 93.1605 4.66315 92.7732 5.26403C92.0473 6.39717 90.7477 6.96457 89.6636 7.74621C88.5796 8.52786 87.6251 9.63756 87.233 10.9615C87.0188 11.6748 86.9887 12.4335 87.1455 13.1625V13.1625C87.1807 13.3271 87.2262 13.4893 87.2816 13.6479C87.4354 14.0901 87.6753 14.4951 87.9865 14.8379C88.2212 15.0913 88.491 15.3073 88.787 15.479V15.479C89.1587 15.6918 89.5566 15.8517 89.9699 15.9543C89.9553 16.0045 89.9407 16.0581 89.9245 16.11C89.8986 16.1953 89.8759 16.2774 89.8516 16.3694C89.7981 16.5753 89.7479 16.7845 89.7058 16.9954C89.7041 17.0104 89.7041 17.0256 89.7058 17.0406C89.5067 17.9926 89.4068 18.9639 89.4076 19.9379C89.4073 20.3985 89.43 20.8588 89.4757 21.317V21.317C90.1238 28.1091 95.5523 33.4668 102.259 33.815C102.489 33.8267 102.721 33.8334 102.956 33.8334C103.063 33.8334 103.168 33.8334 103.28 33.8334C103.385 33.9773 103.489 34.1246 103.588 34.2686C103.687 34.4125 103.778 34.5598 103.863 34.7038L103.629 34.4527L103.394 34.2301C103.33 34.3204 103.259 34.4049 103.181 34.4828C103.028 34.4271 102.872 34.3813 102.713 34.3456V34.3456C102.04 34.1916 101.016 34.1347 99.6682 34.5548C98.4285 34.9381 96.9134 35.7264 95.1407 37.2244L86.5022 42.5805L81.8288 45.5162L80.1452 49.7676C80.1452 49.7676 78.8797 54.819 77.4715 60.6068C77.4164 60.6236 77.3629 60.6403 77.3095 60.6604C77.1954 60.647 77.0807 60.6403 76.9659 60.6403C76.1489 60.6383 75.363 60.9635 74.7731 61.5474C74.1833 62.1314 73.8355 62.9287 73.8028 63.7719C71.0027 67.2868 70.8439 70.8017 71.5018 72.4152C71.5614 72.5664 71.6364 72.7105 71.7254 72.8453C72.1565 73.4881 72.9618 75.1451 73.7785 76.9109C73.7575 77.0565 73.7445 77.1787 73.738 77.2708C73.7365 77.3009 73.7365 77.331 73.738 77.3611C73.738 77.3611 74.2241 84.9449 72.6037 87.1191C72.2488 87.5928 72.3023 88.2155 72.6037 88.905C73.6894 91.3856 77.9819 94.6979 77.9819 94.6979C77.9819 94.6979 83.1301 94.6695 85.9982 94.3464C85.9901 94.6444 85.9836 94.9406 85.9771 95.2302C85.9123 98.1559 85.9123 100.608 85.9123 100.608L85.8054 103.676C85.8054 103.676 84.8331 110.142 84.347 111.924C84.0407 113.042 84.394 123.394 84.7019 131.005H135.425C136.021 126.503 135.18 112.823 135.18 112.823C135.18 112.823 134.381 109.286 134.352 106.203C134.35 106.2 134.35 106.196 134.35 106.192C134.35 106.189 134.35 106.185 134.352 106.182C134.352 105.912 134.352 105.649 134.362 105.392L134.729 105.378L135.391 105.355H135.451C135.451 105.355 135.467 105.291 135.504 105.187C135.592 104.929 135.711 104.683 135.859 104.456C136.141 104.026 136.582 103.604 137.244 103.576C137.611 103.56 138.178 103.254 138.818 102.802C138.822 102.803 138.827 102.803 138.831 102.802C140.553 101.599 142.83 99.3777 143.383 99.0129C144.143 98.5107 147.782 95.1632 147.782 95.1632C147.782 95.1632 148.325 94.4536 148.903 93.5983L148.924 93.5681C149.644 92.4969 150.409 91.2165 150.221 90.8131C149.897 90.0901 150.438 88.3611 150.438 88.3611C152.128 85.1659 150.337 80.9313 149.576 79.8718ZM118.242 28.3903C118.257 28.4403 118.267 28.492 118.271 28.5443C118.23 28.4891 118.19 28.4305 118.149 28.377L118.11 28.3234L118.083 28.2832L118.144 28.1962C118.144 28.1962 118.144 28.1962 118.144 28.2079C118.187 28.2622 118.22 28.324 118.242 28.3903V28.3903ZM117.697 26.9074C117.52 26.9442 117.381 26.9777 117.29 27.0028C117.175 26.7919 117.065 26.581 116.966 26.3668C117.226 26.5224 117.471 26.7035 117.697 26.9074V26.9074ZM117.392 27.1718C117.392 27.1685 117.392 27.1651 117.392 27.1618L117.405 27.1718C117.472 27.217 117.537 27.2606 117.597 27.3057C117.65 27.3459 117.699 27.3844 117.747 27.4246C117.715 27.4832 117.679 27.5434 117.644 27.592C117.587 27.4999 117.533 27.4112 117.482 27.3191C117.449 27.2823 117.42 27.2321 117.392 27.1718ZM116.42 25.1064C116.733 25.0745 117.049 25.0745 117.362 25.1064V25.1064C117.405 25.1064 117.444 25.1148 117.483 25.1215C117.571 25.1355 117.657 25.1585 117.741 25.1901C117.932 25.4668 118.05 25.7906 118.083 26.1291L117.995 26.1425L117.909 26.1592C117.747 26.1877 117.585 26.2161 117.459 26.2429L117.297 26.2781C117.081 26.3266 116.957 26.3634 116.952 26.3651C116.931 26.3199 116.91 26.2781 116.887 26.2345C116.851 26.1626 116.814 26.0889 116.782 26.017C116.749 25.945 116.707 25.863 116.673 25.7876C116.65 25.7475 116.634 25.7073 116.616 25.6705C116.616 25.6537 116.6 25.6404 116.594 25.6236C116.584 25.6059 116.576 25.5874 116.569 25.5684C116.47 25.3608 116.38 25.1533 116.292 24.9491C116.282 24.929 116.274 24.9073 116.266 24.8872L116.389 24.8788V24.9223L116.42 25.1064ZM77.7583 128.936C77.7453 126.444 77.5703 123.748 77.0842 121.217C76.8768 120.141 76.6629 119.064 76.4458 118.007C76.3907 117.742 76.3372 117.481 76.2837 117.22L75.7846 117.289H75.7393C74.3781 110.659 72.9553 104.817 72.9553 104.817C72.9553 104.817 70.1293 93.6719 70.4566 92.7831C70.4988 92.6677 70.4453 92.3563 70.3254 91.8994C69.6416 89.3653 66.7864 82.3824 65.7882 79.9956C65.7882 79.9856 65.7801 79.9739 65.7768 79.9655C65.6148 79.5655 65.4981 79.296 65.4625 79.2173L65.6974 75.6556L65.7104 75.4413L65.7412 74.9861L65.7282 74.9744L65.7412 74.7635C65.7412 74.7635 63.2749 72.6746 59.0974 71.1666C58.9354 71.1063 58.7636 71.0477 58.5935 70.9908C58.8025 69.5497 59.0796 67.9228 59.4409 66.3378C59.475 66.1788 59.5122 66.0248 59.5511 65.8691C59.5852 65.7135 59.6241 65.5628 59.6629 65.4105C59.7245 65.1628 59.791 64.9184 59.859 64.6774C60.0843 64.6038 60.3063 64.5217 60.525 64.4347L60.6093 64.4012C63.3042 63.3181 65.5279 61.263 66.8685 58.6165C68.2092 55.97 68.5761 52.9114 67.9012 50.0069V50.0069C67.5164 48.3597 66.8058 46.8125 65.8141 45.4627C65.7396 45.3589 65.6602 45.2551 65.5808 45.153C65.5014 45.0509 65.4058 44.9371 65.3166 44.8333C65.7849 43.7337 66.3375 42.6876 66.3829 41.618C66.391 41.4826 66.391 41.3468 66.3829 41.2113V41.1946C66.3229 40.5067 66.028 39.8104 65.3409 39.079C64.3379 38.0061 62.9103 37.4621 61.4827 37.201C60.0551 36.9399 58.5999 36.9332 57.1642 36.7575C54.7838 36.4629 52.465 35.7047 50.0846 35.472C47.1525 35.1916 44.2006 35.711 41.5238 36.9784C39.7527 37.8153 37.9589 39.2781 37.8519 41.285C37.7644 42.9437 38.8825 44.5337 38.6006 46.1723C38.3202 47.7825 36.7322 49.0495 36.8716 50.6781C36.925 51.3141 37.241 51.8832 37.6364 52.3904C37.7725 52.5577 37.9167 52.7251 38.0658 52.8925C38.6427 53.5235 39.2779 54.1294 39.6004 54.9244C39.6133 54.9579 39.6263 54.9914 39.6376 55.0248C39.9115 55.8098 39.7883 56.8024 39.111 57.2526C39.1148 57.2556 39.1176 57.2597 39.1191 57.2643V57.2643C39.1288 57.2777 39.1386 57.2878 39.1467 57.3012C39.1477 57.2985 39.1477 57.2955 39.1467 57.2928C39.3868 57.5869 39.7106 57.7954 40.0719 57.8886L40.2097 57.9322C40.0978 58.0577 39.9925 58.1882 39.8856 58.3255L39.8159 58.4209C39.6373 58.6689 39.4749 58.9289 39.3298 59.1992C39.2471 59.3498 39.1677 59.5005 39.1013 59.6511C38.8792 60.1103 38.7184 60.5984 38.6233 61.1023C38.4499 62.2103 38.6946 63.3652 38.432 64.4498C38.108 65.7888 37.0822 66.8165 36.5037 68.0601C35.4083 70.4033 36.0289 73.1533 36.2493 75.7409C36.5491 79.2558 36.063 82.7858 35.5785 86.2772C35.3214 88.134 35.0642 89.9924 34.8071 91.8525C34.159 96.5212 33.5108 101.19 32.8626 105.859C32.626 107.569 32.3457 109.373 31.2422 110.694H31.2535C31.2535 110.694 31.2535 110.704 31.2422 110.707C31.5735 110.857 31.9258 110.951 32.2857 110.985V110.985C33.7263 111.134 35.2528 110.415 36.5491 109.628C37.5757 109.015 38.548 108.31 39.4545 107.521C39.3217 108.023 39.1791 108.57 39.0267 109.159C39.0272 109.165 39.0272 109.17 39.0267 109.176V109.176C37.1973 116.373 34.2546 129.567 34.2546 129.567C34.2546 129.567 33.9872 130.141 33.6404 130.997H79.3366C78.8019 130.327 78.3044 129.686 77.9155 129.169L77.7583 128.936ZM43.9237 62.3877C43.935 62.3676 43.9431 62.3492 43.9545 62.3308C43.9545 62.3844 43.9545 62.4362 43.9545 62.4865C43.9545 62.5367 43.9545 62.5819 43.9545 62.6287C43.9545 62.6756 43.9545 62.6706 43.9545 62.694C43.9545 62.7174 43.9545 62.694 43.9545 62.694C43.9545 62.7626 43.9399 62.8312 43.9285 62.8999C43.9285 62.8999 43.9285 62.9082 43.9285 62.9149L44.0906 62.9769L44.2786 63.0572C45.3891 63.5102 46.5137 63.9203 47.6523 64.2874C47.769 64.3259 47.8873 64.3627 48.0056 64.3979L48.0299 64.6054C48.059 64.818 48.0866 65.0339 48.1125 65.2498C48.1125 65.2498 48.1125 65.2599 48.1125 65.2666C48.1854 65.8641 48.2567 66.46 48.3199 67.0424C48.3199 67.0424 45.3448 65.8708 45.3821 67.65C45.3804 67.6818 45.3804 67.7136 45.3821 67.7454C45.3788 67.7877 45.3788 67.8303 45.3821 67.8726C45.4096 69.2585 45.8293 70.0803 45.9136 70.5021C45.9085 70.5196 45.8997 70.5356 45.8877 70.5489C45.8158 70.7105 45.791 70.8902 45.8164 71.0661C45.8135 71.3656 45.8363 71.6646 45.8844 71.9599C45.7969 72.0152 45.711 72.0704 45.6251 72.1273C45.5603 72.1691 45.4987 72.216 45.4355 72.2629C45.038 70.8386 44.518 69.4539 43.8816 68.1253C43.4359 67.178 42.9352 66.1905 42.9401 65.1511C42.9401 65.0841 42.9401 65.0155 42.9482 64.9469C42.9663 64.6456 43.0218 64.348 43.1135 64.0615C43.1507 63.9527 43.1913 63.8456 43.2366 63.7401C43.3425 63.4895 43.461 63.2448 43.5915 63.007C43.6758 62.8497 43.7649 62.694 43.8508 62.5367C43.8783 62.4898 43.9042 62.4413 43.9302 62.3944L43.9237 62.3877ZM116.681 25.7876C116.658 25.7475 116.642 25.7073 116.624 25.6705C116.624 25.6537 116.608 25.6404 116.602 25.6236C116.566 25.6408 116.53 25.6559 116.493 25.6688C116.422 25.6973 116.349 25.724 116.274 25.7458C116.2 25.7676 116.169 25.7793 116.112 25.7927L115.968 25.8312L115.981 25.8613C116.041 25.8479 116.099 25.8362 116.159 25.8194L116.176 26.027C116.244 26.027 116.307 26.017 116.368 26.017H116.456C116.582 26.017 116.692 26.017 116.78 26.017C116.746 25.9416 116.71 25.863 116.681 25.7876Z" fill="url(#paint1_linear_44_3177)"/>
<path d="M81.2746 50.3716L80.3023 50.8151C80.3023 50.8151 73.9648 76.2462 73.9648 78.3016C73.9648 80.357 87.4031 91.7938 87.4031 91.7938L89.4999 77.1752C89.4999 77.1752 86.4892 43.6515 81.2746 50.3716Z" fill="#E8F5FF"/>
<path d="M110.752 42.2825L105.137 39.2564C104.822 37.8716 104.264 36.5582 103.49 35.3816C102.669 34.1564 101.577 32.953 100.216 32.3253C96.7753 30.7319 114.767 22.3682 114.767 22.3682C115.05 23.3729 115.384 24.3617 115.767 25.3307C116.694 27.6941 118.231 30.7503 120.213 31.6207C123.582 33.102 110.752 42.2825 110.752 42.2825Z" fill="#FFC1C7"/>
<path opacity="0.1" d="M115.767 25.3307C114.998 28.1234 113.399 30.596 111.197 32.3995C108.994 34.203 106.298 35.2461 103.49 35.3816C102.669 34.1564 101.577 32.953 100.216 32.3253C96.7753 30.7319 114.767 22.3682 114.767 22.3682C115.05 23.3729 115.384 24.3617 115.767 25.3307V25.3307Z" fill="black"/>
<path d="M116.273 21.1077C116.273 23.8466 115.488 26.5242 114.015 28.8018C112.542 31.0794 110.448 32.8547 107.999 33.9033C105.549 34.9518 102.854 35.2264 100.253 34.6923C97.6521 34.1583 95.2631 32.8396 93.388 30.903C91.5129 28.9664 90.2359 26.499 89.7186 23.8127C89.2012 21.1265 89.4668 18.3421 90.4816 15.8117C91.4964 13.2813 93.2149 11.1186 95.4197 9.59715C97.6246 8.07568 100.217 7.26376 102.868 7.26409C104.631 7.25567 106.377 7.60799 108.007 8.3007C109.637 8.9934 111.118 10.0128 112.364 11.2999C113.61 12.5871 114.598 14.1165 115.268 15.7999C115.939 17.4833 116.281 19.2873 116.273 21.1077V21.1077Z" fill="#FFC1C7"/>
<path d="M118.207 40.505L114.552 49.3156L111.327 55.1637H101.005L97.9941 47.1682L99.2143 38.8764H107.098L112.188 38.5801L113.907 37.9876L115.015 38.6371L118.207 40.505Z" fill="#575A89"/>
<path opacity="0.1" d="M116.948 28.7602C116.948 28.7602 119.228 29.2623 117.186 30.9913C115.145 32.7203 108.101 38.2186 108.101 38.2186C108.101 38.2186 110.575 40.4949 110.063 43.1612L118.261 38.4412L119.719 30.8892C119.719 30.8892 119.883 28.6196 116.948 28.7602Z" fill="black"/>
<path opacity="0.1" d="M109.713 38.2187L104.498 39.1075C104.498 39.1075 105.574 43.2165 105.036 44.3831C105.02 44.4194 105.006 44.4569 104.996 44.4953L102.868 50.4354L104.463 55.1002L109.982 47.3256L108.101 44.3831C108.101 44.3831 110.089 41.6616 111.272 40.7176C112.455 39.7736 109.713 38.2187 109.713 38.2187Z" fill="black"/>
<path d="M109.713 37.9891L104.498 38.8762C104.498 38.8762 105.574 42.9853 105.036 44.1519C105.02 44.1882 105.006 44.2257 104.996 44.2641L102.868 50.2042L104.463 54.869L109.982 47.0894L108.101 44.1469C108.101 44.1469 110.089 41.4254 111.272 40.4814C112.455 39.5374 109.713 37.9891 109.713 37.9891Z" fill="#DCE6F2"/>
<path d="M117.167 28.3166C117.167 28.3166 119.447 28.8187 117.403 30.5477C115.36 32.2767 108.101 38.2185 108.101 38.2185C108.101 38.2185 110.789 40.0513 110.278 42.7159L118.476 37.9976L119.935 30.4456C119.935 30.4456 120.097 28.176 117.167 28.3166Z" fill="#575A89"/>
<path opacity="0.1" d="M103.849 35.9054C103.849 35.9054 104.346 36.8662 106.542 38.5985C106.542 38.5985 102.886 40.607 104.285 43.4306L98.6925 41.9243L97.832 39.1475L103.849 35.9054Z" fill="black"/>
<path d="M103.633 35.6843C103.633 35.6843 104.131 36.6451 106.326 38.3774C106.326 38.3774 102.671 40.3759 104.069 43.2079L98.4786 41.7015L97.6182 38.9264L103.633 35.6843Z" fill="#575A89"/>
<path opacity="0.1" d="M118.207 40.5051L114.552 49.3157L111.334 55.1638H101.005L97.9941 47.1683L99.2127 38.8765H101.405C101.369 40.8114 102.053 43.0843 102.01 43.9296C101.935 45.3188 104.016 52.8139 104.016 52.8139C104.016 52.8139 108.37 45.5397 110.089 44.892C111.17 44.4853 113.46 41.1009 115.014 38.6371L118.207 40.5051Z" fill="black"/>
<path d="M132.608 86.8697L132.237 87.3518C132.237 87.3518 134.925 101.289 134.182 104.454C134.055 105.025 133.983 105.607 133.966 106.192V106.217C133.835 109.437 134.776 113.616 134.776 113.616C134.776 113.616 135.528 125.935 135.1 131.002H84.7664C84.4715 123.51 84.1539 113.804 84.4423 112.728C84.9285 110.952 85.9007 104.509 85.9007 104.509L86.0077 101.457C86.0077 101.457 86.0077 98.5057 86.0952 95.2184C86.1324 93.7405 86.1875 92.1889 86.2669 90.8131C86.369 89.0824 86.5116 87.6246 86.7077 86.9082C86.8285 86.3652 86.8979 85.8114 86.9151 85.2546C86.9151 85.2027 86.9151 85.1491 86.9248 85.0955C86.9248 84.9282 86.941 84.7474 86.9475 84.5616C86.9475 84.5097 86.9475 84.4578 86.9475 84.3942C86.9783 83.3163 86.967 82.0376 86.9329 80.712C86.9329 80.64 86.9329 80.5664 86.9329 80.4927C86.9054 79.4985 86.8649 78.4842 86.8195 77.5201C86.6785 74.5074 86.4954 71.9599 86.4954 71.9599L80.3135 50.8036L81.9793 46.5656L86.6024 43.6399L95.1502 38.309C99.3195 34.769 102.065 35.1941 103.111 35.5825C103.213 35.6183 103.313 35.6602 103.409 35.708C103.442 35.7247 103.468 35.7381 103.492 35.7532C103.525 35.7695 103.557 35.7885 103.588 35.8101V35.8101C103.301 35.9525 103.052 36.1644 102.862 36.4277C102.647 36.7273 102.495 37.0691 102.413 37.432C102.358 37.6569 102.32 37.8857 102.298 38.1165C102.277 38.3592 102.269 38.6103 102.269 38.863C102.28 39.4173 102.326 39.9702 102.406 40.5184C102.406 40.5284 102.406 40.5418 102.406 40.5552C102.46 40.9468 102.526 41.3301 102.591 41.69C102.59 41.6961 102.59 41.7023 102.591 41.7084C102.666 42.1285 102.74 42.5168 102.79 42.8516C102.8 42.9118 102.808 42.9671 102.816 43.019C102.852 43.2402 102.869 43.4642 102.867 43.6885C102.885 44.23 102.955 44.7682 103.077 45.2953C103.119 45.5162 103.168 45.7522 103.222 45.9982C103.294 46.333 103.374 46.6979 103.46 47.0695C103.507 47.2737 103.557 47.4845 103.609 47.6938C103.628 47.7774 103.649 47.8611 103.669 47.9465L103.701 48.0787C104.046 49.4964 104.421 50.9074 104.651 51.761C104.787 52.2631 104.873 52.5728 104.873 52.5728C104.873 52.5728 107.313 48.4972 109.261 46.1773C109.29 46.1439 109.316 46.1121 109.344 46.0819C109.536 45.8526 109.726 45.6434 109.907 45.4593C110.304 45.0509 110.661 44.7597 110.948 44.6525C111.009 44.6294 111.068 44.6008 111.124 44.5672C111.922 44.1002 113.208 42.4047 114.412 40.6288C114.531 40.4615 114.646 40.279 114.762 40.1066C115.03 39.7083 115.289 39.3082 115.534 38.9249C115.722 38.632 115.901 38.3475 116.072 38.0764C116.882 36.7742 117.452 35.8034 117.452 35.8034L118.577 35.7515L118.773 35.7415H118.904L124.01 35.4971C124.01 35.4971 124.23 35.5356 124.593 35.6109C124.613 35.6109 124.632 35.6109 124.653 35.6243C126.465 35.9959 131.498 37.1725 131.806 38.8044C132.182 40.8029 140.3 43.4692 140.3 43.4692C140.407 44.8082 142.395 45.6903 142.395 45.6903C142.395 45.6903 145.406 53.9084 144.601 57.1287C143.805 60.3089 146.672 68.1755 146.748 68.3965L146.199 69.1128L132.608 86.8697Z" fill="#E8F5FF"/>
<path opacity="0.1" d="M116.947 28.1761C116.947 28.1761 121.917 26.7199 123.046 29.7176C124.175 32.7153 126.702 44.8216 126.702 44.8216C126.702 44.8216 120.142 46.0987 118.423 44.8216C117.414 44.0637 116.166 43.7266 114.928 43.8776L111.218 46.487L110.123 46.1522C110.123 46.1522 116.057 37.0403 117.347 33.9439C118.637 30.8474 119.073 29.4632 116.947 28.1761Z" fill="black"/>
<path d="M116.731 27.5066C116.731 27.5066 121.704 26.0504 122.839 29.0481C123.973 32.0458 126.494 44.1521 126.494 44.1521C126.494 44.1521 119.936 45.4292 118.216 44.1521C117.208 43.3941 115.96 43.057 114.722 43.2081L111.009 45.8175L109.914 45.4828C109.914 45.4828 115.848 36.3708 117.138 33.2744C118.428 30.1779 118.857 28.7971 116.731 27.5066Z" fill="#E8F5FF"/>
<path opacity="0.1" d="M83.3715 75.8027C83.3715 75.8027 87.0806 76.7467 87.7807 78.9126C88.4807 81.0784 85.0389 81.1336 85.0389 81.1336C85.0389 81.1336 82.942 77.3024 83.3715 75.8027Z" fill="black"/>
<path opacity="0.1" d="M97.1873 91.7938C97.1873 91.7938 88.1031 111.007 90.2 112.84C92.2968 114.672 97.1873 91.7938 97.1873 91.7938Z" fill="black"/>
<path opacity="0.1" d="M109.713 77.6357C109.713 77.6357 116.971 96.2981 115.519 99.1803C114.067 102.063 118.637 99.1803 118.637 99.1803L109.713 77.6357Z" fill="black"/>
<path d="M119.82 96.0704C119.82 96.0704 95.3059 97.2922 102.457 105.177C109.608 113.062 124.282 105.512 124.282 105.512L119.82 96.0704Z" fill="#FFC1C7"/>
<path opacity="0.1" d="M116.272 21.1077C116.274 22.9238 115.929 24.7224 115.256 26.4002C115.031 26.4269 114.806 26.4437 114.588 26.4537C114.264 25.7189 114.438 24.8703 114.444 24.0619C114.451 23.2535 114.162 22.3028 113.409 22.0852C111.907 21.6484 110.869 24.549 109.388 24.0251C108.254 23.6267 108.551 21.8492 107.898 20.8232C107.381 20.0114 106.345 19.7821 105.54 19.2733C103.827 18.187 103.879 16.4497 103.083 14.806C102.25 13.0837 100.491 13.5926 98.9625 14.6085C97.8023 15.3818 96.8009 16.4179 95.5596 17.0338C94.4853 17.5694 93.2781 17.7636 92.087 17.792C91.3538 17.8214 90.6203 17.7413 89.9092 17.5543C90.7456 14.3062 92.6973 11.4832 95.4002 9.61182C98.1031 7.74039 101.373 6.94828 104.599 7.38321C107.826 7.81815 110.789 9.45043 112.937 11.9757C115.084 14.5009 116.269 17.7467 116.27 21.1077H116.272Z" fill="black"/>
<path d="M98.9681 14.165C97.8063 14.9383 96.8065 15.9726 95.5652 16.5919C94.4909 17.1259 93.2836 17.32 92.0926 17.3485C90.6342 17.3819 89.064 17.1175 88.0675 16.0295C87.1519 15.0253 86.9332 13.4804 87.3205 12.1632C87.7077 10.8459 88.6362 9.75296 89.7268 8.96127C90.8173 8.16958 92.0829 7.62226 92.8056 6.48913C93.188 5.88992 93.3728 5.1836 93.6904 4.5459C94.7064 2.50558 96.9912 1.4009 99.1998 1.26366C101.408 1.12641 103.598 1.80595 105.701 2.54241C107.804 3.27886 109.924 4.08896 112.144 4.24127C113.132 4.30487 114.16 4.24127 115.077 4.62791C116.31 5.1451 117.119 6.38201 117.67 7.64067C118.287 9.06002 118.671 10.6099 118.606 12.1598C118.47 15.4688 116.354 18.7159 117.284 21.886C117.53 22.7313 117.992 23.5983 117.746 24.4435C117.386 25.6771 115.845 25.9583 114.599 26.0169C114.275 25.2821 114.448 24.4318 114.455 23.6251C114.461 22.8183 114.173 21.8659 113.421 21.6484C111.917 21.2148 110.88 24.1104 109.402 23.5882C108.276 23.1882 108.568 21.4124 107.913 20.3863C107.396 19.5729 106.359 19.3453 105.555 18.8364C103.842 17.7502 103.894 16.0128 103.099 14.3692C102.259 12.6385 100.498 13.1473 98.9681 14.165Z" fill="#99607E"/>
<path d="M75.1979 77.8565L73.9615 78.3017C73.9615 78.3017 74.4477 85.8537 72.8272 88.0196C71.2068 90.1854 78.1487 95.5699 78.1487 95.5699C78.1487 95.5699 87.6639 95.5147 87.9329 94.733C88.2019 93.9514 87.4468 80.7404 87.4468 80.7404C87.4468 80.7404 82.3391 78.685 82.7686 75.4095C82.7686 75.4095 81.2097 83.1272 78.899 82.7941C76.5882 82.461 73.9648 80.4676 75.1979 77.8565Z" fill="#E8F5FF"/>
<path opacity="0.1" d="M79.3215 85.1308C81.123 85.1308 82.5834 83.7512 82.5834 82.0494C82.5834 80.3476 81.123 78.968 79.3215 78.968C77.52 78.968 76.0596 80.3476 76.0596 82.0494C76.0596 83.7512 77.52 85.1308 79.3215 85.1308Z" fill="black"/>
<path d="M82.8878 78.079C82.8878 78.079 82.2397 57.6457 76.5973 62.1984C70.955 66.751 70.8999 72.1957 71.9742 73.8042C73.0486 75.4127 76.4936 83.4651 76.4936 83.4651C77.0325 83.7877 77.6377 83.9739 78.2596 84.0083C78.8816 84.0427 79.5026 83.9244 80.0717 83.6631C80.6409 83.4018 81.142 83.005 81.5341 82.5051C81.9261 82.0052 82.1979 81.4165 82.3272 80.7871L82.8878 78.079Z" fill="#FFC1C7"/>
<path opacity="0.1" d="M118.085 26.3216C118.059 26.2318 118.008 26.1517 117.939 26.0906C117.661 25.8278 117.061 25.7358 116.157 25.8161L116.194 26.258C117.4 26.1508 117.638 26.3986 117.669 26.4404V26.4823L117.706 26.5375C117.856 26.7462 117.963 26.985 118.019 27.2386C118.075 27.4922 118.078 27.7551 118.03 28.0104C117.766 29.3745 116.144 30.4608 116.128 30.4725L116.089 30.4959L116.065 30.5344C115.365 31.6073 111.406 34.6351 110.37 35.4184L110.28 35.3113C109.816 35.7264 105.742 39.4104 105.522 40.8213C105.379 41.7068 104.414 42.0499 104.064 42.1453C103.694 41.8557 102.495 40.8699 101.871 39.7652C101.286 38.7258 103.641 36.6972 103.848 35.9055L103.524 35.5624C103.49 35.6896 100.466 38.6086 101.307 40.1C101.981 41.2967 103.213 42.321 103.644 42.6591C103.506 43.9513 102.649 51.5384 101.332 53.336C99.695 55.5705 98.3192 66.8316 98.4716 70.7632C98.6061 74.2563 97.7229 80.8543 94.7737 83.688C94.2631 84.2001 93.6472 84.5864 92.9718 84.8183C92.2965 85.0501 91.5791 85.1215 90.8734 85.027H90.8377H90.8021C90.7599 85.027 86.482 85.4789 82.8879 82.349C79.9468 79.7931 78.281 75.6221 77.9342 69.9481H77.8629L77.8338 68.2961C78.6312 68.1675 79.3493 67.7247 79.8373 67.0607C80.3253 66.3967 80.5451 65.5632 80.4506 64.7353C80.3561 63.9074 79.9545 63.1495 79.3304 62.621C78.7062 62.0924 77.9081 61.8344 77.1035 61.901C76.299 61.9675 75.5508 62.3536 75.0161 62.9781C74.4815 63.6026 74.2019 64.4168 74.2362 65.2497C74.2705 66.0826 74.6161 66.8693 75.2002 67.4446C75.7843 68.0198 76.5616 68.3388 77.3687 68.3346H77.4043L77.4335 69.9765L77.2909 69.9866C77.6474 75.8447 79.3975 80.1781 82.4763 82.8544C84.8164 84.8574 87.8055 85.8678 90.8393 85.6814C91.0546 85.7057 91.271 85.718 91.4875 85.7182C92.8781 85.7256 94.2161 85.1698 95.2145 84.17C98.3209 81.1824 99.2656 74.3417 99.1181 70.7297C98.9561 66.5638 100.4 55.7078 101.849 53.731C103.268 51.7912 104.128 44.2325 104.279 42.7679C104.793 42.619 105.955 42.1486 106.152 40.9268C106.295 40.043 109.016 37.3198 110.69 35.8118L110.639 35.7515C111.54 35.072 114.342 32.9296 115.731 31.5537C116.162 31.1269 116.59 30.7001 117.037 30.2934C117.575 29.8013 118.259 29.0197 118.439 28.0958C118.5 27.7908 118.5 27.4761 118.439 27.171C118.379 26.8659 118.258 26.5768 118.085 26.3216V26.3216Z" fill="black"/>
<path d="M103.59 42.5535C103.522 42.505 101.908 41.3116 101.099 39.8755C100.26 38.3842 103.284 35.4668 103.316 35.3396L103.64 35.6828C103.434 36.4728 101.08 38.503 101.665 39.5408C102.402 40.8513 103.955 41.9978 103.971 42.0096L103.59 42.5535Z" fill="#353146"/>
<path d="M110.16 35.743L109.907 35.3832C109.959 35.3447 115.049 31.5419 115.851 30.3117L115.877 30.2749L115.914 30.2498C115.93 30.2381 117.552 29.1535 117.817 27.7877C117.865 27.5327 117.862 27.2699 117.806 27.0165C117.75 26.7631 117.643 26.5246 117.492 26.3164L117.455 26.2595V26.2194C117.423 26.1758 117.185 25.9298 115.979 26.0369L115.942 25.5934C116.848 25.513 117.445 25.6051 117.724 25.8679C117.794 25.9295 117.845 26.0102 117.872 26.1005C118.047 26.355 118.17 26.6439 118.233 26.9493C118.296 27.2547 118.297 27.5702 118.238 27.8764C118.058 28.802 117.376 29.5836 116.836 30.074C116.391 30.4807 115.961 30.9109 115.532 31.3344C113.903 32.9462 110.338 35.6108 110.16 35.743Z" fill="#E8F5FF"/>
<path d="M77.6247 67.7133L77.1953 67.7214L77.2432 70.4174L77.6725 70.4093L77.6247 67.7133Z" fill="#E8F5FF"/>
<path d="M77.16 68.1221C78.8917 68.1221 80.2955 66.672 80.2955 64.8833C80.2955 63.0946 78.8917 61.6446 77.16 61.6446C75.4282 61.6446 74.0244 63.0946 74.0244 64.8833C74.0244 66.672 75.4282 68.1221 77.16 68.1221Z" fill="#6C63FF"/>
<path d="M77.1597 67.5729C78.5979 67.5729 79.7637 66.3687 79.7637 64.8832C79.7637 63.3977 78.5979 62.1934 77.1597 62.1934C75.7215 62.1934 74.5557 63.3977 74.5557 64.8832C74.5557 66.3687 75.7215 67.5729 77.1597 67.5729Z" fill="#E8F5FF"/>
<path d="M91.2835 85.5023C91.067 85.5026 90.8506 85.4909 90.6353 85.4672C87.6018 85.6517 84.6133 84.6415 82.2723 82.6402C79.1935 79.9622 77.4466 75.6338 77.0869 69.7707L77.7351 69.7288C78.0819 75.4029 79.7477 79.5755 82.6904 82.1297C86.2845 85.2512 90.5608 84.8077 90.6029 84.8077H90.6386H90.6742C91.3802 84.9017 92.0977 84.8302 92.7732 84.5983C93.4488 84.3665 94.0651 83.9804 94.5762 83.4687C97.5238 80.635 98.4069 74.0371 98.2724 70.5439C98.1104 66.6089 99.4861 55.3479 101.124 53.1151C102.558 51.1585 103.448 42.3394 103.458 42.2507L103.482 41.9997L103.722 41.9561C103.737 41.9561 105.137 41.6817 105.312 40.6004C105.538 39.1911 109.606 35.5072 110.068 35.0904L110.49 35.5925C108.81 37.0989 106.089 39.8238 105.953 40.7092C105.756 41.9344 104.594 42.403 104.082 42.5503C103.92 44.0165 103.066 51.5736 101.651 53.5134C100.202 55.4902 98.7586 66.3461 98.9206 70.5121C99.06 74.1241 98.125 80.9664 95.0186 83.9524C94.0184 84.9547 92.6771 85.5113 91.2835 85.5023Z" fill="#353146"/>
<g opacity="0.1">
<path opacity="0.1" d="M117.652 17.1511C117.918 16.1368 118.239 15.1158 118.463 14.0881C118.195 15.1208 117.873 16.1368 117.652 17.1511Z" fill="black"/>
<path opacity="0.1" d="M114.942 25.1214C114.618 24.3866 114.791 23.5364 114.797 22.7296C114.804 21.9229 114.516 20.9789 113.764 20.7529C112.26 20.3194 111.223 23.2167 109.745 22.6928C108.611 22.2928 108.91 20.5169 108.256 19.4909C107.739 18.6775 106.703 18.4498 105.9 17.941C104.185 16.8547 104.237 15.1174 103.443 13.4737C102.609 11.7498 100.85 12.2586 99.3207 13.2762C98.1589 14.0495 97.1591 15.0856 95.9178 15.7032C94.8435 16.2371 93.6363 16.4313 92.4453 16.4597C90.995 16.4949 89.4167 16.2287 88.4201 15.1408C87.652 14.3039 87.3749 13.0771 87.5337 11.9272C87.5062 12.0059 87.4819 12.0845 87.4576 12.1632C87.0687 13.4804 87.2955 15.0287 88.2046 16.0296C89.2012 17.1175 90.7795 17.382 92.2297 17.3485C93.4224 17.32 94.628 17.1259 95.7039 16.5919C96.9484 15.9727 97.9482 14.9383 99.1069 14.165C100.637 13.1474 102.396 12.6385 103.229 14.3625C104.023 16.0061 103.973 17.7435 105.686 18.8298C106.496 19.3319 107.525 19.5662 108.044 20.3797C108.692 21.409 108.405 23.1815 109.533 23.5816C111.009 24.1038 112.046 21.2082 113.55 21.6417C114.302 21.8593 114.592 22.8133 114.584 23.6184C114.575 24.4235 114.407 25.2754 114.728 26.0102C115.974 25.9516 117.515 25.6754 117.876 24.4369C117.926 24.2591 117.949 24.0745 117.944 23.8895C117.418 24.8285 116.063 25.0695 114.942 25.1214Z" fill="black"/>
</g>
<path opacity="0.1" d="M144.228 66.363L146.109 68.4184C146.109 68.4184 147.615 79.7447 148.366 80.8042C149.118 81.8637 150.894 86.0782 149.227 89.2433C149.227 89.2433 148.689 90.9656 149.011 91.687C149.334 92.4084 146.594 96.0187 146.594 96.0187C146.594 96.0187 142.991 99.3494 142.238 99.8499C141.484 100.35 137.508 104.347 136.165 104.403C134.821 104.458 134.382 106.18 134.382 106.18L126.802 106.458C126.802 106.458 122.614 106.232 121.704 106.843C121.704 106.843 122.19 100.235 117.512 95.9032L123.478 93.6821C123.478 93.6821 125.737 92.6778 126.435 91.6284C126.875 90.985 127.498 90.4998 128.218 90.2409C128.218 90.2409 129.884 89.019 129.937 88.3529C129.991 87.6867 131.974 86.8699 131.974 86.8699L130.851 76.9696L131.443 60.5333C131.443 60.5333 133.324 46.7616 137.302 47.5399C141.28 48.3182 144.228 66.363 144.228 66.363Z" fill="black"/>
<path d="M144.876 66.363L146.758 68.4184C146.758 68.4184 148.263 79.7447 149.015 80.8042C149.767 81.8637 151.543 86.0782 149.875 89.2433C149.875 89.2433 149.339 90.9656 149.661 91.687C149.984 92.4084 147.242 96.0187 147.242 96.0187C147.242 96.0187 143.64 99.3494 142.886 99.8499C142.133 100.35 138.156 104.347 136.813 104.403C135.47 104.458 135.03 106.18 135.03 106.18L127.45 106.458C127.45 106.458 123.26 106.232 122.352 106.843C122.352 106.843 122.838 100.235 118.16 95.9032L124.127 93.6821C124.127 93.6821 126.385 92.6778 127.084 91.6284C127.523 90.985 128.147 90.4998 128.866 90.2409C128.866 90.2409 130.532 89.019 130.586 88.3529C130.639 87.6867 132.623 86.8699 132.623 86.8699L131.5 76.9696L132.091 60.5333C132.091 60.5333 133.972 46.7616 137.95 47.5399C141.929 48.3182 144.876 66.363 144.876 66.363Z" fill="#E8F5FF"/>
<path opacity="0.1" d="M137.883 82.9665C137.883 82.9665 143.42 81.4602 144.872 83.3013C146.324 85.1424 137.883 82.9665 137.883 82.9665Z" fill="black"/>
<path opacity="0.1" d="M136.593 85.4923C138.474 86.8531 144.28 86.9083 144.28 86.9083L136.593 85.4923Z" fill="black"/>
<path opacity="0.1" d="M139.441 92.2944C139.603 92.3497 143.433 96.5709 145.04 95.2938C146.647 94.0167 139.441 92.2944 139.441 92.2944Z" fill="black"/>
<path opacity="0.1" d="M87.873 56.8678C87.873 56.8678 88.9976 64.865 88.4434 68.1221C87.8893 71.3792 89.9115 75.4147 89.9115 75.4147L87.873 56.8678Z" fill="black"/>
<path d="M62.9762 60.1198C61.6799 61.1693 60.7335 63.6531 60.0481 66.383C58.8522 71.1449 58.4617 76.6666 58.4617 76.6666C58.4617 76.6666 48.1395 74.2229 48.8914 73.1132C49.3646 72.4152 48.7294 67.1563 48.1995 63.3435C47.8835 61.0906 47.6016 59.3415 47.6016 59.3415C47.6016 59.3415 66.525 57.2309 62.9762 60.1198Z" fill="#FFCCD0"/>
<path opacity="0.1" d="M62.9762 59.8972C61.6799 60.9483 60.7335 63.4305 60.0481 66.1604C57.9915 66.8054 55.8043 66.8636 53.7183 66.3287C51.6323 65.7939 49.7253 64.686 48.1995 63.1225C47.8835 60.868 47.6016 59.1189 47.6016 59.1189C47.6016 59.1189 66.525 57.01 62.9762 59.8972Z" fill="black"/>
<path d="M68.5252 53.9151C68.5262 56.8263 67.5302 59.644 65.7133 61.8696C63.8964 64.0952 61.3759 65.5851 58.5977 66.0757C55.8196 66.5663 52.963 66.0258 50.5335 64.5501C48.104 63.0744 46.2583 60.7584 45.323 58.0122C44.3878 55.266 44.4232 52.2665 45.4231 49.5447C46.423 46.8228 48.3229 44.5541 50.7865 43.1401C53.2501 41.726 56.1187 41.2578 58.8844 41.8182C61.6501 42.3787 64.1347 43.9317 65.8984 46.2024C67.5981 48.3898 68.5247 51.1104 68.5252 53.9151V53.9151Z" fill="#FFCCD0"/>
<path opacity="0.1" d="M77.9358 131.002H74.5329L74.2461 124.794L73.9463 118.368C73.9463 118.368 74.7192 118.249 75.9508 118.072L76.4482 118.003H76.4887C76.7577 119.307 77.0235 120.646 77.2795 121.983C77.7057 124.358 77.9275 126.766 77.9423 129.181C77.9423 129.348 77.9423 129.515 77.9423 129.673C77.952 130.12 77.9423 130.567 77.9358 131.002Z" fill="black"/>
<path d="M77.2831 131.002H34.6074C34.7922 130.568 34.9153 130.305 34.9153 130.305C34.9153 130.305 38.3296 114.877 40.065 108.349C40.0656 108.343 40.0656 108.338 40.065 108.332C40.2819 107.445 40.5437 106.571 40.8493 105.713V105.713C40.8691 105.654 40.8946 105.598 40.9255 105.545C41.7843 104.103 42.8603 102.548 41.3549 100.327C39.8495 98.1055 40.3826 88.3325 40.3826 88.3325C40.3826 88.3325 42.2105 80.0022 44.1453 75.5601C44.4389 74.872 44.8556 74.2473 45.3736 73.7189C45.542 73.5488 45.7217 73.391 45.9116 73.2469V73.2469C46.0559 73.1349 46.2063 73.0315 46.362 72.9373L46.3928 72.9172C47.2056 72.4412 48.1081 72.1518 49.039 72.0686C49.7002 71.9972 50.3677 72.0163 51.024 72.1255C54.1612 72.6008 56.6728 73.3959 58.6692 74.3014C64.0798 76.7568 65.7181 80.0474 65.7505 80.116L65.7635 80.1445C65.9806 80.6684 69.1567 88.3275 70.3007 91.9009C70.5972 92.8315 70.7593 93.486 70.6944 93.6651C70.3704 94.5522 73.1672 105.658 73.1672 105.658C73.1672 105.658 74.4636 111.014 75.7599 117.292C75.8166 117.553 75.8701 117.814 75.922 118.078C76.1537 119.218 76.3838 120.38 76.6058 121.54C77.0359 123.93 77.2577 126.356 77.2685 128.787C77.2923 129.545 77.2972 130.283 77.2831 131.002Z" fill="#FF748E"/>
<path opacity="0.1" d="M48.785 68.2491C48.785 68.2491 45.8406 67.0775 45.8763 68.855C45.9119 70.6325 46.5942 71.4828 46.3786 71.7422C46.1631 72.0017 46.4856 73.5566 46.4856 73.5566C46.4856 73.5566 50.4637 73.5566 52.2916 74.4068C54.1194 75.2571 60.8572 76.961 61.7176 77.4799C62.5781 77.9987 65.7687 80.3253 65.7687 80.3253L66.0555 75.9199C66.0555 75.9199 62.758 73.1063 57.3473 71.6636C51.9367 70.2208 48.785 68.2491 48.785 68.2491Z" fill="black"/>
<path d="M48.785 68.0265C48.785 68.0265 45.8406 66.8549 45.8763 68.6324C45.9119 70.41 46.5942 71.2602 46.3786 71.5197C46.1631 71.7791 46.4856 73.334 46.4856 73.334C46.4856 73.334 50.4637 73.334 52.2916 74.186C54.1194 75.0379 60.8572 76.7401 61.7176 77.2573C62.5781 77.7745 65.7687 80.1027 65.7687 80.1027L66.0588 75.7107C66.0588 75.7107 62.7612 72.8972 57.3506 71.4544C51.94 70.0116 48.785 68.0265 48.785 68.0265Z" fill="#FF748E"/>
<path opacity="0.1" d="M57.6729 78.6281C57.6729 78.6281 63.299 84.9198 63.0122 86.6621C62.7253 88.4045 57.6729 78.6281 57.6729 78.6281Z" fill="black"/>
<path opacity="0.1" d="M48.5332 101.356C48.5332 101.356 44.4093 105.281 43.1939 105.504C41.9786 105.726 44.1257 106.466 45.5225 105.875C46.9193 105.284 49.8976 103.729 49.8976 103.729L48.5332 101.356Z" fill="black"/>
<path d="M78.9584 131.002H69.3411C67.9961 129.796 66.7241 128.68 65.9139 128.009C64.6175 126.934 63.6826 125.353 63.0862 124.081C62.9517 123.791 62.8351 123.52 62.7362 123.274C62.5592 122.85 62.4034 122.417 62.2695 121.977L69.3913 117.608C69.7849 117.954 70.1547 118.327 70.4981 118.726L70.584 118.828C70.9794 119.31 71.3278 119.858 71.3585 120.306C71.3942 120.828 72.8007 122.849 74.2381 124.789C75.6965 126.762 77.1905 128.648 77.2893 128.775C77.2893 128.775 77.5356 129.122 77.9375 129.654C78.2211 130.039 78.5711 130.501 78.9584 131.002Z" fill="#FFCCD0"/>
<path opacity="0.1" d="M65.898 46.2025C65.5561 46.9992 65.2499 47.826 65.2045 48.7131C65.0765 51.274 65.2839 56.9999 62.5389 58.2854C61.1793 58.918 59.7242 57.5288 58.2334 57.4953C57.1607 57.4719 56.177 58.1749 55.5224 59.0536C54.8677 59.9323 54.461 60.9751 53.9862 61.9693C53.554 62.8717 53.0562 63.739 52.497 64.5636C52.3299 64.816 52.1458 65.0559 51.9461 65.2817C50.2723 64.5521 48.7818 63.4376 47.5882 62.0229C46.3946 60.6083 45.5293 58.9309 45.0584 57.1185C44.5875 55.3061 44.5233 53.4067 44.8707 51.5648C45.2181 49.7229 45.968 47.9873 47.0633 46.4901C48.1585 44.9929 49.5701 43.7737 51.1906 42.9254C52.8111 42.0771 54.5976 41.6221 56.4142 41.595C58.2307 41.5679 60.0293 41.9695 61.6728 42.7691C63.3163 43.5687 64.7614 44.7453 65.898 46.2092V46.2025Z" fill="black"/>
<path d="M64.9888 48.2613C64.8592 50.8221 65.0682 56.548 62.3216 57.8318C60.962 58.4645 59.5069 57.077 58.0161 57.0435C56.9433 57.0184 55.9614 57.723 55.3051 58.6001C54.6488 59.4771 54.2453 60.5216 53.7689 61.5174C53.3366 62.4198 52.8388 63.287 52.2797 64.1118C51.9459 64.6005 51.5765 65.0909 51.0628 65.3654C50.1683 65.8474 49.0842 65.5763 48.1249 65.2667C46.8805 64.8616 45.6543 64.4052 44.4466 63.8975C44.4743 63.7092 44.4884 63.5189 44.4887 63.3284C44.4531 63.3987 44.4142 63.464 44.3753 63.5343L44.2991 63.6716C44.1614 63.9226 44.0269 64.1737 43.9037 64.4314C43.8567 64.5302 43.8114 64.6323 43.7708 64.7344C43.6079 65.1144 43.5056 65.5191 43.4678 65.9328C43.3852 67.0492 43.9183 68.1087 44.3915 69.1129C46.2112 72.9977 47.3358 77.5403 45.9665 81.6159C45.3735 83.3884 44.3461 84.9634 43.5958 86.6757C42.2843 89.7084 41.8983 93.0817 42.4891 96.3467C42.8634 98.3753 43.6137 100.384 43.4289 102.441C43.1049 105.981 40.1492 108.615 37.1887 110.426C35.5893 111.4 33.6318 112.267 31.9336 111.498C33.016 110.192 33.2948 108.386 33.5281 106.682C34.1666 102.035 34.8066 97.385 35.4483 92.733C35.7043 90.8818 35.9598 89.0307 36.2148 87.1795C36.6912 83.7014 37.1741 80.1849 36.8759 76.685C36.6588 74.1058 36.0463 71.3675 37.1287 69.0326C37.7007 67.7957 38.72 66.7714 39.0376 65.4391C39.2985 64.3561 39.0554 63.2046 39.2272 62.1016C39.3212 61.5997 39.4803 61.1133 39.7003 60.6554C39.9805 60.0342 40.3461 59.458 40.786 58.9449C40.3517 58.8143 39.9466 58.6352 39.7003 58.2603C40.3971 57.7916 40.5024 56.7355 40.1865 55.9421C39.8705 55.1488 39.2385 54.5446 38.6697 53.9186C38.101 53.2926 37.5533 52.5628 37.482 51.7092C37.3442 50.084 38.916 48.8253 39.1931 47.2219C39.4735 45.59 38.3651 44.0032 38.4542 42.3512C38.5579 40.3544 40.3339 38.9033 42.0872 38.0614C44.733 36.7963 47.6558 36.2766 50.5588 36.555C52.9214 36.786 55.2079 37.5409 57.564 37.8338C58.9851 38.0011 60.4256 38.0179 61.837 38.2756C63.2484 38.5334 64.6631 39.0774 65.6564 40.1469C68.275 42.9672 65.1379 45.2887 64.9888 48.2613Z" fill="#FFE0D0"/>
<path opacity="0.1" d="M62.7979 124.083C61.9715 123.713 60.4677 123.934 57.8864 123.122C55.305 122.31 54.8076 118.641 54.8076 118.641V118.629C54.7768 118.546 54.5369 118 52.9133 116.089C51.1195 113.978 47.2418 103.318 47.2418 103.318C47.2418 103.318 43.8032 99.5034 43.9118 98.0974C44.0203 96.6914 43.3009 92.9506 43.3722 88.7662C43.4435 84.5818 51.113 81.8067 51.113 81.8067C65.88 79.1036 62.4025 96.6881 62.0088 98.0204C61.615 99.3527 63.6584 102.951 63.6584 102.951C63.3699 104.518 64.8413 106.943 64.8413 106.943C64.8413 106.943 65.1978 109.089 65.2707 109.904C65.2747 109.942 65.2829 109.979 65.295 110.015C65.5316 110.783 67.4599 111.479 68.2442 111.903C69.069 112.348 71.7216 116.234 71.7216 116.234C72.2936 119.088 63.6211 124.457 62.7979 124.083Z" fill="black"/>
<path d="M63.228 123.413C62.4032 123.041 60.8978 123.264 58.318 122.45C55.7383 121.637 55.2392 117.971 55.2392 117.971V117.96C55.2101 117.874 54.9686 117.33 53.3449 115.419C51.5511 113.308 47.6734 102.646 47.6734 102.646C47.6734 102.646 44.2349 98.8337 44.3418 97.4277C44.4488 96.0217 43.7325 92.2809 43.8038 88.0999C43.8751 83.9188 51.5398 81.1454 51.5398 81.1454C66.3068 78.4423 62.8293 96.0268 62.4356 97.3591C62.0418 98.6914 64.0852 102.29 64.0852 102.29C63.7967 103.857 65.2681 106.282 65.2681 106.282C65.2681 106.282 65.6246 108.428 65.6991 109.243C65.7018 109.28 65.7095 109.318 65.7218 109.353C65.9584 110.121 67.8867 110.818 68.6726 111.241C69.4958 111.685 72.1501 115.573 72.1501 115.573C72.7253 118.422 64.0528 123.791 63.228 123.413Z" fill="#FF748E"/>
<path opacity="0.1" d="M51.8311 90.3259C51.8311 90.3259 58.282 97.3557 59.9656 97.3557C61.6493 97.3557 51.8311 90.3259 51.8311 90.3259Z" fill="black"/>
<path d="M63.228 123.413C62.4032 123.041 60.8978 123.264 58.3181 122.451C55.7384 121.637 55.2393 117.972 55.2393 117.972V117.96C56.9488 116.788 61.2786 113.479 62.9849 112.269C64.1857 111.421 65.166 110.174 65.7397 109.347C65.9763 110.115 67.9046 110.811 68.6905 111.235C69.5137 111.678 72.1679 115.566 72.1679 115.566C72.7254 118.422 64.0528 123.791 63.228 123.413Z" fill="#FF748E"/>
<g opacity="0.1">
<path opacity="0.1" d="M39.71 58.2784C39.7181 58.2918 39.7294 58.3035 39.7391 58.3169C39.7877 58.2533 39.838 58.1897 39.8898 58.1294C39.8346 58.1849 39.7744 58.2347 39.71 58.2784V58.2784Z" fill="black"/>
<path opacity="0.1" d="M43.4695 65.9511C43.5375 65.0222 44.0188 64.2037 44.4693 63.3869C44.1743 63.2698 43.8794 63.1509 43.5877 63.0271C43.6155 62.8393 43.6296 62.6496 43.6299 62.4597C43.1745 63.2965 42.6787 64.12 42.609 65.0624C42.5264 66.1804 43.0595 67.2383 43.5327 68.2425C45.354 72.1256 46.477 76.6682 45.1077 80.7455C44.513 82.5163 43.4873 84.093 42.737 85.8052C41.426 88.8375 41.0405 92.2103 41.6319 95.4745C42.003 97.5048 42.7548 99.5116 42.5701 101.569C42.246 105.109 39.292 107.743 36.3298 109.553C35.1194 110.292 33.7047 110.97 32.3517 110.922C32.2264 111.13 32.0867 111.328 31.9336 111.516C33.6334 112.291 35.5893 111.419 37.1887 110.441C40.1524 108.634 43.113 106.006 43.437 102.459C43.6218 100.402 42.8699 98.3952 42.4972 96.365C41.9056 93.1011 42.2899 89.7285 43.5991 86.6957C44.3445 84.9851 45.3816 83.4067 45.9698 81.6359C47.339 77.5586 46.2145 73.0161 44.3947 69.1329C43.9232 68.122 43.3868 67.0692 43.4695 65.9511Z" fill="black"/>
<path opacity="0.1" d="M65.6529 40.1667C65.4935 39.9978 65.3224 39.8412 65.1408 39.6981C67.1048 42.3292 64.269 44.5653 64.1281 47.3973C64.0017 49.9582 64.2091 55.6858 61.4625 56.9679C60.1045 57.6022 58.6478 56.213 57.1586 56.1795C56.0842 56.1561 55.1023 56.8608 54.446 57.7378C53.7897 58.6149 53.3862 59.6593 52.9114 60.6535C52.4783 61.5557 51.9799 62.423 51.4206 63.2478C51.0965 63.7382 50.7174 64.227 50.2021 64.5031C49.3108 64.9835 48.2268 64.714 47.2658 64.4027C46.3314 64.0992 45.4056 63.7645 44.4884 63.3985C44.4865 63.5728 44.4724 63.7468 44.4463 63.919C45.6551 64.4278 46.8818 64.8842 48.1263 65.2881C49.0856 65.5994 50.1697 65.8689 51.0625 65.3886C51.5762 65.1124 51.9489 64.622 52.2811 64.1316C52.8408 63.3079 53.3386 62.4411 53.7703 61.5389C54.2467 60.5447 54.6485 59.4986 55.3064 58.6216C55.9643 57.7445 56.9447 57.0415 58.0174 57.065C59.5082 57.0984 60.965 58.4877 62.3229 57.8533C65.0695 56.5712 64.8605 50.8436 64.9885 48.2828C65.1376 45.3051 68.2748 42.9853 65.6529 40.1667Z" fill="black"/>
</g>
<path opacity="0.1" d="M44.3009 63.673C44.1632 63.9241 44.0287 64.1752 43.9055 64.4329C43.8586 64.5317 43.8132 64.6338 43.7727 64.7359C42.9236 63.8521 40.8559 61.7516 39.7021 61.1005C39.9827 60.4794 40.3483 59.9033 40.7878 59.3899C40.7878 59.3899 43.5377 60.8913 44.3009 63.673Z" fill="black"/>
<path d="M44.3771 63.5357C43.7403 60.5581 40.7878 58.9463 40.7878 58.9463C40.348 59.4594 39.9823 60.0356 39.7021 60.6569C40.9191 61.3448 43.1618 63.6512 43.9055 64.4329L44.3771 63.5357Z" fill="#FF748E"/>
</g>
<defs>
<linearGradient id="paint0_linear_44_3177" x1="118.297" y1="15.9693" x2="118.297" y2="12.8929" gradientUnits="userSpaceOnUse">
<stop stop-color="#808080" stop-opacity="0.25"/>
<stop offset="0.54" stop-color="#808080" stop-opacity="0.12"/>
<stop offset="1" stop-color="#808080" stop-opacity="0.1"/>
</linearGradient>
<linearGradient id="paint1_linear_44_3177" x1="74340.9" y1="110218" x2="74340.9" y2="7684.61" gradientUnits="userSpaceOnUse">
<stop stop-color="#808080" stop-opacity="0.25"/>
<stop offset="0.54" stop-color="#808080" stop-opacity="0.12"/>
<stop offset="1" stop-color="#808080" stop-opacity="0.1"/>
</linearGradient>
<clipPath id="clip0_44_3177">
<rect width="176" height="131" fill="white"/>
</clipPath>
</defs>
</svg>
