<svg width="387" height="262" viewBox="0 0 387 262" fill="none" xmlns="http://www.w3.org/2000/svg">
<rect x="55" y="70.0015" width="10" height="120" fill="#DA70D6"/>
<rect x="65" y="114.001" width="10" height="76" fill="#F2D721"/>
<rect x="125" y="105.001" width="10" height="85" fill="#DA70D6"/>
<rect x="135" y="85.0015" width="10" height="105" fill="#F2D721"/>
<rect x="195" y="90.0015" width="10" height="100" fill="#DA70D6"/>
<rect x="205" y="37.0015" width="10" height="153" fill="#F2D721"/>
<rect x="265" y="51.0015" width="10" height="139" fill="#DA70D6"/>
<rect x="275" y="126.001" width="10" height="64" fill="#F2D721"/>
<rect x="335" y="152.001" width="10" height="38" fill="#DA70D6"/>
<rect x="345" y="136.001" width="10" height="54" fill="#F2D721"/>
<line x1="9" y1="189.501" x2="387" y2="189.501" stroke="#C4C4C4"/>
<line x1="33" y1="215.002" x2="33" y2="0.00012207" stroke="#C4C4C4"/>
<path d="M334.885 201.396H332.143V209.001H331.023V201.396H328.287V200.47H334.885V201.396ZM335.107 205.773C335.107 205.152 335.229 204.593 335.471 204.097C335.717 203.601 336.057 203.218 336.49 202.949C336.928 202.679 337.426 202.544 337.984 202.544C338.848 202.544 339.545 202.843 340.076 203.441C340.611 204.039 340.879 204.833 340.879 205.826V205.902C340.879 206.519 340.76 207.074 340.521 207.566C340.287 208.054 339.949 208.435 339.508 208.708C339.07 208.982 338.566 209.119 337.996 209.119C337.137 209.119 336.439 208.82 335.904 208.222C335.373 207.625 335.107 206.833 335.107 205.849V205.773ZM336.197 205.902C336.197 206.605 336.359 207.169 336.684 207.595C337.012 208.021 337.449 208.234 337.996 208.234C338.547 208.234 338.984 208.019 339.309 207.589C339.633 207.156 339.795 206.55 339.795 205.773C339.795 205.078 339.629 204.515 339.297 204.085C338.969 203.652 338.531 203.435 337.984 203.435C337.449 203.435 337.018 203.648 336.689 204.074C336.361 204.5 336.197 205.109 336.197 205.902ZM341.975 205.779C341.975 204.806 342.205 204.025 342.666 203.435C343.127 202.841 343.73 202.544 344.477 202.544C345.219 202.544 345.807 202.798 346.24 203.306V200.001H347.324V209.001H346.328L346.275 208.322C345.842 208.853 345.238 209.119 344.465 209.119C343.73 209.119 343.131 208.818 342.666 208.216C342.205 207.615 341.975 206.83 341.975 205.861V205.779ZM343.059 205.902C343.059 206.621 343.207 207.183 343.504 207.589C343.801 207.996 344.211 208.199 344.734 208.199C345.422 208.199 345.924 207.89 346.24 207.273V204.361C345.916 203.763 345.418 203.464 344.746 203.464C344.215 203.464 343.801 203.669 343.504 204.08C343.207 204.49 343.059 205.097 343.059 205.902ZM352.926 209.001C352.863 208.876 352.812 208.654 352.773 208.333C352.27 208.857 351.668 209.119 350.969 209.119C350.344 209.119 349.83 208.943 349.428 208.591C349.029 208.236 348.83 207.787 348.83 207.244C348.83 206.583 349.08 206.072 349.58 205.708C350.084 205.341 350.791 205.158 351.701 205.158H352.756V204.66C352.756 204.281 352.643 203.98 352.416 203.757C352.189 203.531 351.855 203.417 351.414 203.417C351.027 203.417 350.703 203.515 350.441 203.71C350.18 203.906 350.049 204.142 350.049 204.419H348.959C348.959 204.103 349.07 203.798 349.293 203.505C349.52 203.208 349.824 202.974 350.207 202.802C350.594 202.63 351.018 202.544 351.479 202.544C352.209 202.544 352.781 202.728 353.195 203.095C353.609 203.458 353.824 203.96 353.84 204.601V207.519C353.84 208.101 353.914 208.564 354.062 208.908V209.001H352.926ZM351.127 208.175C351.467 208.175 351.789 208.087 352.094 207.912C352.398 207.736 352.619 207.507 352.756 207.226V205.925H351.906C350.578 205.925 349.914 206.314 349.914 207.091C349.914 207.431 350.027 207.697 350.254 207.888C350.48 208.08 350.771 208.175 351.127 208.175ZM357.52 207.414L358.996 202.662H360.156L357.607 209.98C357.213 211.035 356.586 211.562 355.727 211.562L355.521 211.544L355.117 211.468V210.589L355.41 210.613C355.777 210.613 356.062 210.539 356.266 210.39C356.473 210.242 356.643 209.97 356.775 209.576L357.016 208.931L354.754 202.662H355.938L357.52 207.414Z" fill="#202020"/>
<path d="M251.592 204.753L253.818 200.47H255.096L252.154 205.82V209.001H251.029V205.82L248.088 200.47H249.377L251.592 204.753ZM258.271 209.119C257.412 209.119 256.713 208.837 256.174 208.275C255.635 207.708 255.365 206.953 255.365 206.007V205.808C255.365 205.179 255.484 204.619 255.723 204.126C255.965 203.63 256.301 203.244 256.73 202.966C257.164 202.685 257.633 202.544 258.137 202.544C258.961 202.544 259.602 202.816 260.059 203.359C260.516 203.902 260.744 204.679 260.744 205.691V206.142H256.449C256.465 206.767 256.646 207.273 256.994 207.66C257.346 208.042 257.791 208.234 258.33 208.234C258.713 208.234 259.037 208.156 259.303 208C259.568 207.843 259.801 207.636 260 207.378L260.662 207.894C260.131 208.71 259.334 209.119 258.271 209.119ZM258.137 203.435C257.699 203.435 257.332 203.595 257.035 203.916C256.738 204.232 256.555 204.677 256.484 205.251H259.66V205.169C259.629 204.619 259.48 204.193 259.215 203.892C258.949 203.587 258.59 203.435 258.137 203.435ZM265.695 207.32C265.695 207.027 265.584 206.8 265.361 206.64C265.143 206.476 264.758 206.335 264.207 206.218C263.66 206.101 263.225 205.96 262.9 205.796C262.58 205.632 262.342 205.437 262.186 205.21C262.033 204.984 261.957 204.714 261.957 204.402C261.957 203.882 262.176 203.443 262.613 203.083C263.055 202.724 263.617 202.544 264.301 202.544C265.02 202.544 265.602 202.73 266.047 203.101C266.496 203.472 266.721 203.947 266.721 204.525H265.631C265.631 204.228 265.504 203.972 265.25 203.757C265 203.542 264.684 203.435 264.301 203.435C263.906 203.435 263.598 203.521 263.375 203.693C263.152 203.865 263.041 204.089 263.041 204.367C263.041 204.628 263.145 204.826 263.352 204.958C263.559 205.091 263.932 205.218 264.471 205.339C265.014 205.46 265.453 205.605 265.789 205.773C266.125 205.941 266.373 206.144 266.533 206.382C266.697 206.617 266.779 206.904 266.779 207.244C266.779 207.81 266.553 208.265 266.1 208.609C265.646 208.949 265.059 209.119 264.336 209.119C263.828 209.119 263.379 209.029 262.988 208.849C262.598 208.669 262.291 208.419 262.068 208.099C261.85 207.775 261.74 207.425 261.74 207.05H262.824C262.844 207.414 262.988 207.703 263.258 207.917C263.531 208.128 263.891 208.234 264.336 208.234C264.746 208.234 265.074 208.152 265.32 207.988C265.57 207.82 265.695 207.597 265.695 207.32ZM269.662 201.126V202.662H270.846V203.5H269.662V207.431C269.662 207.685 269.715 207.876 269.82 208.005C269.926 208.13 270.105 208.193 270.359 208.193C270.484 208.193 270.656 208.169 270.875 208.123V209.001C270.59 209.08 270.312 209.119 270.043 209.119C269.559 209.119 269.193 208.972 268.947 208.679C268.701 208.386 268.578 207.97 268.578 207.431V203.5H267.424V202.662H268.578V201.126H269.662ZM274.748 209.119C273.889 209.119 273.189 208.837 272.65 208.275C272.111 207.708 271.842 206.953 271.842 206.007V205.808C271.842 205.179 271.961 204.619 272.199 204.126C272.441 203.63 272.777 203.244 273.207 202.966C273.641 202.685 274.109 202.544 274.613 202.544C275.438 202.544 276.078 202.816 276.535 203.359C276.992 203.902 277.221 204.679 277.221 205.691V206.142H272.926C272.941 206.767 273.123 207.273 273.471 207.66C273.822 208.042 274.268 208.234 274.807 208.234C275.189 208.234 275.514 208.156 275.779 208C276.045 207.843 276.277 207.636 276.477 207.378L277.139 207.894C276.607 208.71 275.811 209.119 274.748 209.119ZM274.613 203.435C274.176 203.435 273.809 203.595 273.512 203.916C273.215 204.232 273.031 204.677 272.961 205.251H276.137V205.169C276.105 204.619 275.957 204.193 275.691 203.892C275.426 203.587 275.066 203.435 274.613 203.435ZM281.545 203.634C281.381 203.607 281.203 203.593 281.012 203.593C280.301 203.593 279.818 203.896 279.564 204.501V209.001H278.48V202.662H279.535L279.553 203.394C279.908 202.828 280.412 202.544 281.064 202.544C281.275 202.544 281.436 202.572 281.545 202.626V203.634ZM282.166 205.779C282.166 204.806 282.396 204.025 282.857 203.435C283.318 202.841 283.922 202.544 284.668 202.544C285.41 202.544 285.998 202.798 286.432 203.306V200.001H287.516V209.001H286.52L286.467 208.322C286.033 208.853 285.43 209.119 284.656 209.119C283.922 209.119 283.322 208.818 282.857 208.216C282.396 207.615 282.166 206.83 282.166 205.861V205.779ZM283.25 205.902C283.25 206.621 283.398 207.183 283.695 207.589C283.992 207.996 284.402 208.199 284.926 208.199C285.613 208.199 286.115 207.89 286.432 207.273V204.361C286.107 203.763 285.609 203.464 284.938 203.464C284.406 203.464 283.992 203.669 283.695 204.08C283.398 204.49 283.25 205.097 283.25 205.902ZM293.117 209.001C293.055 208.876 293.004 208.654 292.965 208.333C292.461 208.857 291.859 209.119 291.16 209.119C290.535 209.119 290.021 208.943 289.619 208.591C289.221 208.236 289.021 207.787 289.021 207.244C289.021 206.583 289.271 206.072 289.771 205.708C290.275 205.341 290.982 205.158 291.893 205.158H292.947V204.66C292.947 204.281 292.834 203.98 292.607 203.757C292.381 203.531 292.047 203.417 291.605 203.417C291.219 203.417 290.895 203.515 290.633 203.71C290.371 203.906 290.24 204.142 290.24 204.419H289.15C289.15 204.103 289.262 203.798 289.484 203.505C289.711 203.208 290.016 202.974 290.398 202.802C290.785 202.63 291.209 202.544 291.67 202.544C292.4 202.544 292.973 202.728 293.387 203.095C293.801 203.458 294.016 203.96 294.031 204.601V207.519C294.031 208.101 294.105 208.564 294.254 208.908V209.001H293.117ZM291.318 208.175C291.658 208.175 291.98 208.087 292.285 207.912C292.59 207.736 292.811 207.507 292.947 207.226V205.925H292.098C290.77 205.925 290.105 206.314 290.105 207.091C290.105 207.431 290.219 207.697 290.445 207.888C290.672 208.08 290.963 208.175 291.318 208.175ZM297.711 207.414L299.188 202.662H300.348L297.799 209.98C297.404 211.035 296.777 211.562 295.918 211.562L295.713 211.544L295.309 211.468V210.589L295.602 210.613C295.969 210.613 296.254 210.539 296.457 210.39C296.664 210.242 296.834 209.97 296.967 209.576L297.207 208.931L294.945 202.662H296.129L297.711 207.414Z" fill="#202020"/>
<path d="M193.271 209.001H192.182V201.777L189.996 202.58V201.595L193.102 200.429H193.271V209.001ZM196.945 204.724L197.379 200.47H201.75V201.472H198.299L198.041 203.798C198.459 203.552 198.934 203.429 199.465 203.429C200.242 203.429 200.859 203.687 201.316 204.203C201.773 204.714 202.002 205.408 202.002 206.283C202.002 207.162 201.764 207.855 201.287 208.363C200.814 208.867 200.152 209.119 199.301 209.119C198.547 209.119 197.932 208.91 197.455 208.492C196.979 208.074 196.707 207.496 196.641 206.757H197.666C197.732 207.246 197.906 207.615 198.188 207.865C198.469 208.111 198.84 208.234 199.301 208.234C199.805 208.234 200.199 208.062 200.484 207.718C200.773 207.375 200.918 206.9 200.918 206.294C200.918 205.724 200.762 205.267 200.449 204.923C200.141 204.576 199.729 204.402 199.213 204.402C198.74 204.402 198.369 204.505 198.1 204.712L197.812 204.947L196.945 204.724ZM203.514 209.734H202.582L206.145 200.47H207.07L203.514 209.734ZM211.693 209.001H210.604V201.777L208.418 202.58V201.595L211.523 200.429H211.693V209.001ZM218.432 209.001H217.342V201.777L215.156 202.58V201.595L218.262 200.429H218.432V209.001Z" fill="#202020"/>
<path d="M123.271 209.001H122.182V201.777L119.996 202.58V201.595L123.102 200.429H123.271V209.001ZM131.023 206.136H132.207V207.021H131.023V209.001H129.934V207.021H126.049V206.382L129.869 200.47H131.023V206.136ZM127.279 206.136H129.934V201.953L129.805 202.187L127.279 206.136ZM133.514 209.734H132.582L136.145 200.47H137.07L133.514 209.734ZM141.693 209.001H140.604V201.777L138.418 202.58V201.595L141.523 200.429H141.693V209.001ZM148.432 209.001H147.342V201.777L145.156 202.58V201.595L148.262 200.429H148.432V209.001Z" fill="#202020"/>
<path d="M53.2715 209.001H52.1816V201.777L49.9961 202.58V201.595L53.1016 200.429H53.2715V209.001ZM58.0234 204.208H58.8379C59.3496 204.201 59.752 204.066 60.0449 203.804C60.3379 203.542 60.4844 203.189 60.4844 202.744C60.4844 201.744 59.9863 201.244 58.9902 201.244C58.5215 201.244 58.1465 201.378 57.8652 201.648C57.5879 201.914 57.4492 202.267 57.4492 202.708H56.3652C56.3652 202.033 56.6113 201.472 57.1035 201.027C57.5996 200.578 58.2285 200.353 58.9902 200.353C59.7949 200.353 60.4258 200.566 60.8828 200.992C61.3398 201.417 61.5684 202.009 61.5684 202.767C61.5684 203.138 61.4473 203.498 61.2051 203.845C60.9668 204.193 60.6406 204.453 60.2266 204.625C60.6953 204.773 61.0566 205.019 61.3105 205.363C61.5684 205.707 61.6973 206.126 61.6973 206.623C61.6973 207.388 61.4473 207.996 60.9473 208.445C60.4473 208.894 59.7969 209.119 58.9961 209.119C58.1953 209.119 57.543 208.902 57.0391 208.468C56.5391 208.035 56.2891 207.462 56.2891 206.751H57.3789C57.3789 207.201 57.5254 207.56 57.8184 207.83C58.1113 208.099 58.5039 208.234 58.9961 208.234C59.5195 208.234 59.9199 208.097 60.1973 207.824C60.4746 207.55 60.6133 207.158 60.6133 206.646C60.6133 206.15 60.4609 205.769 60.1562 205.503C59.8516 205.238 59.4121 205.101 58.8379 205.093H58.0234V204.208ZM63.5137 209.734H62.582L66.1445 200.47H67.0703L63.5137 209.734ZM71.6934 209.001H70.6035V201.777L68.418 202.58V201.595L71.5234 200.429H71.6934V209.001ZM78.4316 209.001H77.3418V201.777L75.1562 202.58V201.595L78.2617 200.429H78.4316V209.001Z" fill="#202020"/>
<line x1="23" y1="167.501" x2="33" y2="167.501" stroke="#C4C4C4"/>
<line x1="23" y1="101.501" x2="33" y2="101.501" stroke="#C4C4C4"/>
<line x1="23" y1="145.501" x2="33" y2="145.501" stroke="#C4C4C4"/>
<line x1="23" y1="79.5015" x2="33" y2="79.5015" stroke="#C4C4C4"/>
<line x1="23" y1="35.5015" x2="33" y2="35.5015" stroke="#C4C4C4"/>
<line x1="23" y1="123.501" x2="33" y2="123.501" stroke="#C4C4C4"/>
<line x1="23" y1="57.5015" x2="33" y2="57.5015" stroke="#C4C4C4"/>
<line x1="23" y1="13.5015" x2="33" y2="13.5015" stroke="#C4C4C4"/>
<path d="M9.90527 167.793L10.2305 164.603H13.5088V165.354H10.9204L10.7271 167.099C11.0405 166.915 11.3965 166.822 11.7949 166.822C12.3779 166.822 12.8408 167.016 13.1836 167.402C13.5264 167.786 13.6978 168.306 13.6978 168.962C13.6978 169.622 13.519 170.142 13.1616 170.522C12.8071 170.9 12.3105 171.089 11.6719 171.089C11.1064 171.089 10.645 170.933 10.2876 170.619C9.93018 170.306 9.72656 169.872 9.67676 169.318H10.4458C10.4956 169.685 10.626 169.961 10.8369 170.149C11.0479 170.333 11.3262 170.426 11.6719 170.426C12.0498 170.426 12.3457 170.297 12.5596 170.039C12.7764 169.781 12.8848 169.425 12.8848 168.971C12.8848 168.543 12.7676 168.201 12.5332 167.943C12.3018 167.682 11.9927 167.552 11.606 167.552C11.2515 167.552 10.9731 167.629 10.771 167.785L10.5557 167.96L9.90527 167.793ZM18.5977 168.272C18.5977 169.225 18.4351 169.932 18.1099 170.395C17.7847 170.858 17.2764 171.089 16.585 171.089C15.9023 171.089 15.397 170.864 15.0688 170.413C14.7407 169.958 14.5708 169.282 14.5591 168.382V167.297C14.5591 166.356 14.7217 165.658 15.0469 165.201C15.3721 164.744 15.8818 164.515 16.5762 164.515C17.2646 164.515 17.7715 164.736 18.0967 165.179C18.4219 165.618 18.5889 166.298 18.5977 167.218V168.272ZM17.7847 167.161C17.7847 166.472 17.688 165.971 17.4946 165.658C17.3013 165.341 16.9951 165.183 16.5762 165.183C16.1602 165.183 15.8569 165.34 15.6665 165.653C15.4761 165.967 15.3779 166.449 15.3721 167.099V168.4C15.3721 169.091 15.4717 169.603 15.6709 169.934C15.873 170.262 16.1777 170.426 16.585 170.426C16.9863 170.426 17.2837 170.271 17.4771 169.96C17.6733 169.649 17.7759 169.16 17.7847 168.492V167.161Z" fill="#505050"/>
<path d="M3.20361 39.0015H2.38623V33.583L0.74707 34.1851V33.4468L3.07617 32.5723H3.20361V39.0015ZM9.59766 36.2725C9.59766 37.2246 9.43506 37.9321 9.10986 38.395C8.78467 38.8579 8.27637 39.0894 7.58496 39.0894C6.90234 39.0894 6.39697 38.8638 6.06885 38.4126C5.74072 37.9585 5.5708 37.2817 5.55908 36.3823V35.2969C5.55908 34.3564 5.72168 33.6577 6.04688 33.2007C6.37207 32.7437 6.88184 32.5151 7.57617 32.5151C8.26465 32.5151 8.77148 32.7363 9.09668 33.1787C9.42188 33.6182 9.58887 34.2979 9.59766 35.2178V36.2725ZM8.78467 35.1606C8.78467 34.4722 8.68799 33.9712 8.49463 33.6577C8.30127 33.3413 7.99512 33.1831 7.57617 33.1831C7.16016 33.1831 6.85693 33.3398 6.6665 33.6533C6.47607 33.9668 6.37793 34.4487 6.37207 35.0991V36.3999C6.37207 37.0913 6.47168 37.6025 6.6709 37.9336C6.87305 38.2617 7.17773 38.4258 7.58496 38.4258C7.98633 38.4258 8.28369 38.2705 8.47705 37.96C8.67334 37.6494 8.77588 37.1602 8.78467 36.4922V35.1606ZM14.6514 36.2725C14.6514 37.2246 14.4888 37.9321 14.1636 38.395C13.8384 38.8579 13.3301 39.0894 12.6387 39.0894C11.9561 39.0894 11.4507 38.8638 11.1226 38.4126C10.7944 37.9585 10.6245 37.2817 10.6128 36.3823V35.2969C10.6128 34.3564 10.7754 33.6577 11.1006 33.2007C11.4258 32.7437 11.9355 32.5151 12.6299 32.5151C13.3184 32.5151 13.8252 32.7363 14.1504 33.1787C14.4756 33.6182 14.6426 34.2979 14.6514 35.2178V36.2725ZM13.8384 35.1606C13.8384 34.4722 13.7417 33.9712 13.5483 33.6577C13.355 33.3413 13.0488 33.1831 12.6299 33.1831C12.2139 33.1831 11.9106 33.3398 11.7202 33.6533C11.5298 33.9668 11.4316 34.4487 11.4258 35.0991V36.3999C11.4258 37.0913 11.5254 37.6025 11.7246 37.9336C11.9268 38.2617 12.2314 38.4258 12.6387 38.4258C13.04 38.4258 13.3374 38.2705 13.5308 37.96C13.7271 37.6494 13.8296 37.1602 13.8384 36.4922V35.1606ZM19.7051 36.2725C19.7051 37.2246 19.5425 37.9321 19.2173 38.395C18.8921 38.8579 18.3838 39.0894 17.6924 39.0894C17.0098 39.0894 16.5044 38.8638 16.1763 38.4126C15.8481 37.9585 15.6782 37.2817 15.6665 36.3823V35.2969C15.6665 34.3564 15.8291 33.6577 16.1543 33.2007C16.4795 32.7437 16.9893 32.5151 17.6836 32.5151C18.3721 32.5151 18.8789 32.7363 19.2041 33.1787C19.5293 33.6182 19.6963 34.2979 19.7051 35.2178V36.2725ZM18.8921 35.1606C18.8921 34.4722 18.7954 33.9712 18.6021 33.6577C18.4087 33.3413 18.1025 33.1831 17.6836 33.1831C17.2676 33.1831 16.9644 33.3398 16.7739 33.6533C16.5835 33.9668 16.4854 34.4487 16.4795 35.0991V36.3999C16.4795 37.0913 16.5791 37.6025 16.7783 37.9336C16.9805 38.2617 17.2852 38.4258 17.6924 38.4258C18.0938 38.4258 18.3911 38.2705 18.5845 37.96C18.7808 37.6494 18.8833 37.1602 18.8921 36.4922V35.1606Z" fill="#505050"/>
<path d="M135.938 256.001H137.875V249.751H141.375C141.516 249.751 141.648 249.751 141.781 249.744L145.156 256.001H147.406L143.789 249.392C145.828 248.697 146.781 247.033 146.781 244.908C146.781 242.08 145.094 240.001 141.344 240.001H135.938V256.001ZM137.875 248.001V241.72H141.281C143.875 241.72 144.875 242.986 144.875 244.908C144.875 246.83 143.875 248.001 141.313 248.001H137.875ZM154.662 256.251C157.1 256.251 158.881 255.033 159.443 253.22L157.662 252.72C157.193 253.97 156.107 254.595 154.662 254.595C152.498 254.595 151.006 253.197 150.92 250.626H159.631V249.845C159.631 245.376 156.975 243.845 154.475 243.845C151.225 243.845 149.068 246.408 149.068 250.095C149.068 253.783 151.193 256.251 154.662 256.251ZM150.92 249.033C151.045 247.166 152.365 245.501 154.475 245.501C156.475 245.501 157.756 247.001 157.756 249.033H150.92ZM167.311 256.251C169.967 256.251 171.717 254.626 172.029 252.501H170.186C169.842 253.814 168.748 254.595 167.311 254.595C165.123 254.595 163.717 252.783 163.717 250.001C163.717 247.283 165.154 245.501 167.311 245.501C168.936 245.501 169.904 246.501 170.186 247.595H172.029C171.717 245.345 169.811 243.845 167.279 243.845C164.029 243.845 161.873 246.408 161.873 250.064C161.873 253.658 163.936 256.251 167.311 256.251ZM179.756 256.251C182.193 256.251 183.975 255.033 184.537 253.22L182.756 252.72C182.287 253.97 181.201 254.595 179.756 254.595C177.592 254.595 176.1 253.197 176.014 250.626H184.725V249.845C184.725 245.376 182.068 243.845 179.568 243.845C176.318 243.845 174.162 246.408 174.162 250.095C174.162 253.783 176.287 256.251 179.756 256.251ZM176.014 249.033C176.139 247.166 177.459 245.501 179.568 245.501C181.568 245.501 182.85 247.001 182.85 249.033H176.014ZM189.373 248.783C189.373 246.689 190.67 245.501 192.436 245.501C194.146 245.501 195.186 246.619 195.186 248.501V256.001H197.029V248.376C197.029 245.314 195.396 243.845 192.967 243.845C191.154 243.845 190.029 244.658 189.467 245.876H189.311V244.001H187.529V256.001H189.373V248.783ZM205.617 244.001H203.055V241.126H201.211V244.001H199.398V245.564H201.211V253.064C201.211 255.158 202.898 256.158 204.461 256.158C205.148 256.158 205.586 256.033 205.836 255.939L205.461 254.283C205.305 254.314 205.055 254.376 204.648 254.376C203.836 254.376 203.055 254.126 203.055 252.564V245.564H205.617V244.001ZM219.797 244.001H217.234V241.126H215.391V244.001H213.578V245.564H215.391V253.064C215.391 255.158 217.078 256.158 218.641 256.158C219.328 256.158 219.766 256.033 220.016 255.939L219.641 254.283C219.484 254.314 219.234 254.376 218.828 254.376C218.016 254.376 217.234 254.126 217.234 252.564V245.564H219.797V244.001ZM222.57 256.001H224.414V248.408C224.414 246.783 225.695 245.595 227.445 245.595C227.938 245.595 228.445 245.689 228.57 245.72V243.845C228.359 243.83 227.875 243.814 227.602 243.814C226.164 243.814 224.914 244.626 224.477 245.814H224.352V244.001H222.57V256.001ZM234.287 256.283C236.381 256.283 237.475 255.158 237.85 254.376H237.943V256.001H239.787V248.095C239.787 244.283 236.881 243.845 235.35 243.845C233.537 243.845 231.475 244.47 230.537 246.658L232.287 247.283C232.693 246.408 233.654 245.47 235.412 245.47C237.107 245.47 237.943 246.369 237.943 247.908V247.97C237.943 248.861 237.037 248.783 234.85 249.064C232.623 249.353 230.193 249.845 230.193 252.595C230.193 254.939 232.006 256.283 234.287 256.283ZM234.568 254.626C233.1 254.626 232.037 253.97 232.037 252.689C232.037 251.283 233.318 250.845 234.756 250.658C235.537 250.564 237.631 250.345 237.943 249.97V251.658C237.943 253.158 236.756 254.626 234.568 254.626ZM248.496 244.001H245.809V242.783C245.809 241.595 246.309 240.97 247.527 240.97C248.059 240.97 248.371 241.095 248.559 241.158L249.09 239.564C248.809 239.439 248.246 239.251 247.34 239.251C245.621 239.251 243.965 240.283 243.965 242.345V244.001H242.027V245.564H243.965V256.001H245.809V245.564H248.496V244.001ZM256.424 244.001H253.736V242.783C253.736 241.595 254.236 240.97 255.455 240.97C255.986 240.97 256.299 241.095 256.486 241.158L257.018 239.564C256.736 239.439 256.174 239.251 255.268 239.251C253.549 239.251 251.893 240.283 251.893 242.345V244.001H249.955V245.564H251.893V256.001H253.736V245.564H256.424V244.001ZM259.008 256.001H260.852V244.001H259.008V256.001ZM259.945 242.001C260.664 242.001 261.258 241.439 261.258 240.751C261.258 240.064 260.664 239.501 259.945 239.501C259.227 239.501 258.633 240.064 258.633 240.751C258.633 241.439 259.227 242.001 259.945 242.001ZM269.104 256.251C271.76 256.251 273.51 254.626 273.822 252.501H271.979C271.635 253.814 270.541 254.595 269.104 254.595C266.916 254.595 265.51 252.783 265.51 250.001C265.51 247.283 266.947 245.501 269.104 245.501C270.729 245.501 271.697 246.501 271.979 247.595H273.822C273.51 245.345 271.604 243.845 269.072 243.845C265.822 243.845 263.666 246.408 263.666 250.064C263.666 253.658 265.729 256.251 269.104 256.251Z" fill="#505050"/>
</svg>
