<svg width="20" height="20" viewBox="0 0 20 20" fill="none" xmlns="http://www.w3.org/2000/svg">
<circle cx="10" cy="10" r="10" fill="#6FD141"/>
<path d="M8.05469 14.8125C8.28906 15.0469 8.6875 15.0469 8.92188 14.8125L15.8125 7.92188C16.0469 7.6875 16.0469 7.28906 15.8125 7.05469L14.9688 6.21094C14.7344 5.97656 14.3594 5.97656 14.125 6.21094L8.5 11.8359L5.85156 9.21094C5.61719 8.97656 5.24219 8.97656 5.00781 9.21094L4.16406 10.0547C3.92969 10.2891 3.92969 10.6875 4.16406 10.9219L8.05469 14.8125Z" fill="white"/>
<path d="M8.5 11.8359L7.79604 12.5462L8.50314 13.247L9.20711 12.543L8.5 11.8359ZM5.85156 9.21094L5.14445 9.91805L5.14761 9.92118L5.85156 9.21094ZM7.34758 15.5196C7.97248 16.1445 9.00408 16.1445 9.62898 15.5196L8.21477 14.1054C8.30075 14.0194 8.40422 13.9883 8.48828 13.9883C8.57234 13.9883 8.67581 14.0194 8.76179 14.1054L7.34758 15.5196ZM9.62898 15.5196L16.5196 8.62898L15.1054 7.21477L8.21477 14.1054L9.62898 15.5196ZM16.5196 8.62898C17.1445 8.00408 17.1445 6.97248 16.5196 6.34758L15.1054 7.76179C15.0194 7.67581 14.9883 7.57234 14.9883 7.48828C14.9883 7.40422 15.0194 7.30075 15.1054 7.21477L16.5196 8.62898ZM16.5196 6.34758L15.6759 5.50383L14.2616 6.91804L15.1054 7.76179L16.5196 6.34758ZM15.6759 5.50383C15.051 4.87893 14.0428 4.87893 13.4179 5.50383L14.8321 6.91804C14.676 7.07419 14.4178 7.07419 14.2616 6.91804L15.6759 5.50383ZM13.4179 5.50383L7.79289 11.1288L9.20711 12.543L14.8321 6.91804L13.4179 5.50383ZM9.20396 11.1257L6.55552 8.5007L5.14761 9.92118L7.79604 12.5462L9.20396 11.1257ZM6.55867 8.50383C5.93377 7.87893 4.92561 7.87893 4.30071 8.50383L5.71492 9.91804C5.55877 10.0742 5.30061 10.0742 5.14446 9.91804L6.55867 8.50383ZM4.30071 8.50383L3.45696 9.34758L4.87117 10.7618L5.71492 9.91804L4.30071 8.50383ZM3.45696 9.34758C2.83206 9.97248 2.83206 11.0041 3.45696 11.629L4.87117 10.2148C4.95715 10.3007 4.98828 10.4042 4.98828 10.4883C4.98828 10.5723 4.95715 10.6758 4.87117 10.7618L3.45696 9.34758ZM3.45696 11.629L7.34758 15.5196L8.76179 14.1054L4.87117 10.2148L3.45696 11.629Z" fill="white"/>
</svg>
