<svg width="21" height="19" viewBox="0 0 23 21" fill="none" xmlns="http://www.w3.org/2000/svg">
<path d="M19.55 5.83335H3.45001C1.495 5.83335 0 7.35001 0 9.33335V16.3333H4.59999V21H18.4V16.3333H23V9.33335C23 7.35001 21.505 5.83335 19.55 5.83335ZM16.1 18.6666H6.90001V12.8334H16.1V18.6666V18.6666ZM19.55 10.5C18.86 10.5 18.4 10.0333 18.4 9.33335C18.4 8.63333 18.86 8.16665 19.55 8.16665C20.24 8.16665 20.7 8.63333 20.7 9.33335C20.7 10.0333 20.24 10.5 19.55 10.5ZM18.4 0H4.59999V4.6667H18.4V0Z" fill="black"/>
</svg>
