<svg width="298" height="191" viewBox="0 0 298 191" fill="none" xmlns="http://www.w3.org/2000/svg">
<g filter="url(#filter0_d_305_811)">
<rect x="5" y="4" width="288" height="181" rx="4" fill="white"/>
</g>
<g clip-path="url(#clip0_305_811)">
<path opacity="0.1" d="M60.5702 152.956C65.9271 152.956 70.2697 152.258 70.2697 151.396C70.2697 150.535 65.9271 149.837 60.5702 149.837C55.2132 149.837 50.8706 150.535 50.8706 151.396C50.8706 152.258 55.2132 152.956 60.5702 152.956Z" fill="#6C63FF"/>
<path opacity="0.1" d="M113.296 153C119.981 153 125.399 152.302 125.399 151.44C125.399 150.579 119.981 149.881 113.296 149.881C106.611 149.881 101.192 150.579 101.192 151.44C101.192 152.302 106.611 153 113.296 153Z" fill="#6C63FF"/>
<path opacity="0.1" d="M25.3779 108.702H35.4807V122.486H26.1176C26.0927 122.628 26.0688 122.77 26.0429 122.913H35.4807V134.03C35.4637 134.025 35.4488 134.019 35.4329 134.013C35.1661 133.907 34.9013 133.796 34.6365 133.676L34.4673 133.599C34.2019 133.474 33.9364 133.341 33.671 133.201C33.5784 133.152 33.4858 133.101 33.3942 133.049C31.9206 132.223 30.5818 131.176 29.4244 129.944C29.3906 129.911 29.3587 129.876 29.3249 129.844C29.1636 129.669 29.0053 129.492 28.852 129.31L28.6828 129.111C28.5016 128.889 28.3264 128.661 28.1562 128.429C28.1313 128.395 28.1074 128.362 28.0816 128.33C27.3893 127.369 26.8145 126.328 26.3694 125.231C26.3555 125.198 26.3435 125.162 26.3306 125.131C26.1939 124.779 26.0728 124.423 25.9672 124.065C25.9215 123.914 25.8777 123.766 25.8398 123.609C25.8259 123.563 25.814 123.519 25.803 123.474C25.2376 121.265 25.1709 118.97 25.1709 116.691C25.1709 116.425 25.1709 116.157 25.1709 115.893C25.1709 114.972 25.1818 114.044 25.1978 113.117C25.1978 112.877 25.2077 112.638 25.2127 112.397C25.2266 111.785 25.2466 111.173 25.2724 110.561C25.2784 110.391 25.2864 110.221 25.2953 110.052C25.2953 109.954 25.3003 109.857 25.3103 109.759C25.3342 109.404 25.3541 109.052 25.3779 108.702Z" fill="#6C63FF"/>
<path opacity="0.1" d="M35.4806 93.3537H29.939C30.8398 91.9422 31.824 90.5859 32.8865 89.2919C33.7097 88.2795 34.5787 87.2929 35.4806 86.3423V93.3537Z" fill="#6C63FF"/>
<path opacity="0.1" d="M35.4805 93.7798V108.275H25.4097C25.4097 108.233 25.4166 108.19 25.4196 108.148C25.4286 108.034 25.4375 107.919 25.4475 107.806C25.4584 107.672 25.4704 107.537 25.4833 107.407C25.4963 107.276 25.5102 107.117 25.5251 106.972C25.5401 106.828 25.554 106.681 25.5709 106.537C25.5879 106.392 25.6028 106.248 25.6207 106.104C25.6386 105.961 25.6545 105.816 25.6735 105.672C25.6884 105.552 25.7043 105.434 25.7202 105.314C25.7431 105.146 25.767 104.976 25.7929 104.809C25.7929 104.784 25.7999 104.758 25.8039 104.734C25.9855 103.509 26.2331 102.294 26.5455 101.095C26.8724 99.8375 27.2899 98.6053 27.7947 97.408C28.3312 96.1556 28.9594 94.9446 29.6741 93.7848L35.4805 93.7798Z" fill="#6C63FF"/>
<path opacity="0.1" d="M37.8926 108.701V122.486H59.4707V108.701H37.8926ZM37.8926 122.912V134.75C38.016 134.776 38.1385 134.801 38.2599 134.822C38.4251 134.854 38.5894 134.883 38.7576 134.908C38.7895 134.913 38.8223 134.918 38.8572 134.921C38.9229 134.932 38.9905 134.941 39.0562 134.95C39.2225 134.972 39.3877 134.991 39.554 135.006C39.6326 135.014 39.7122 135.021 39.7919 135.027L39.984 135.042C40.0885 135.05 40.192 135.056 40.2946 135.059C40.3583 135.059 40.422 135.065 40.4877 135.067C40.5375 135.067 40.5872 135.067 40.639 135.067C40.6908 135.067 40.7644 135.067 40.8271 135.067C40.9127 135.067 40.9983 135.067 41.083 135.067H41.1974C41.283 135.067 41.3687 135.067 41.4533 135.059H41.4592C41.518 135.059 41.5777 135.059 41.6374 135.051C41.654 135.052 41.6706 135.052 41.6872 135.051C41.737 135.051 41.7867 135.051 41.8345 135.044H41.8694L42.2028 135.018C42.3123 135.008 42.4228 134.995 42.5343 134.983L42.7613 134.957C43.6846 134.827 44.5977 134.633 45.4938 134.375C47.5065 133.813 49.4755 133.026 51.4873 132.45C54.0884 131.708 56.9622 131.343 59.4757 132.251V122.912H37.8926ZM59.4707 93.3537V75.0011C57.1083 74.9755 54.7522 75.2521 52.4598 75.8243C46.9959 77.1984 42.0933 80.179 37.8926 83.9856V93.3527H38.9756V93.7782H37.8926V108.275H59.4707V93.7792H43.4222V93.3537H59.4707ZM87.1867 87.1545C85.8349 87.1066 84.4911 86.6781 83.2756 86.0164C80.9513 84.7509 79.0948 82.7968 77.0203 81.1476C72.7101 77.7126 67.3645 75.6399 61.8807 75.1257V93.3537H92.6845L92.7612 93.273L87.1867 87.1545ZM89.9929 86.6562L92.9682 89.9247V85.7992C91.9718 85.9228 91.0988 86.2167 89.9968 86.6522L89.9929 86.6562ZM92.9682 137.69V122.912H86.6283C86.6114 122.849 86.5944 122.785 86.5745 122.722C86.5934 122.785 86.6094 122.849 86.6273 122.912H61.8847V133.599C62.1196 133.774 62.3515 133.957 62.5815 134.143C62.8293 134.343 63.0742 134.553 63.3201 134.759L63.5679 134.965C63.6864 135.064 63.8058 135.164 63.9263 135.257C64.1652 135.451 64.4064 135.643 64.65 135.831C64.7704 135.931 64.8939 136.021 65.0163 136.114C66.9601 137.602 69.0106 138.945 71.1512 140.131C71.631 140.397 72.1151 140.657 72.6035 140.91C72.9291 141.076 73.2565 141.241 73.585 141.402C74.0788 141.643 74.5765 141.876 75.0782 142.099C79.7036 144.178 84.5947 145.604 89.6116 146.338C90.7258 146.502 91.8444 146.632 92.9672 146.726V137.689H93.0668L92.9682 137.69ZM61.8847 93.7792V108.275H92.9722V93.7792H61.8847ZM61.8847 108.701V122.486H92.9722V108.701H61.8847ZM95.3852 85.7813V90.3831L99.1828 86.2118C97.9245 86.0085 96.6587 85.8633 95.3852 85.7763V85.7813ZM95.3852 108.706V122.486H125.622V108.701L95.3852 108.706ZM125.511 138.784L125.618 122.912H95.3852V146.885C97.3327 146.967 99.2833 146.943 101.228 146.815V146.815H101.262C102.191 146.756 103.116 146.671 104.037 146.56H104.057C108.968 145.988 113.77 144.705 118.312 142.752L125.511 138.784ZM131.452 110.971C131.338 110.703 131.22 110.437 131.1 110.174C130.875 109.675 130.637 109.191 130.392 108.707H128.033V122.486H133.997C133.994 118.584 133.008 114.598 131.455 110.966L131.452 110.971ZM128.033 122.917V136.569C129.713 134.957 131.132 133.112 132.155 131.003C133.384 128.464 133.946 125.715 133.992 122.915L128.033 122.917ZM128.033 104.689V108.276H130.171C129.524 107.041 128.811 105.842 128.036 104.684L128.033 104.689ZM107.527 88.4858C107.369 88.426 107.212 88.3652 107.054 88.3064C105.384 87.6893 103.679 87.1761 101.946 86.7698L96.1347 93.1544L96.0232 93.273L96.0979 93.3547H116.781C113.901 91.3697 110.795 89.7336 107.53 88.4808L107.527 88.4858ZM117.387 93.7842H95.8092L95.3852 94.1728V108.275H99.1021H99.1081H125.626V101.444C123.227 98.54 120.458 95.9631 117.39 93.7792L117.387 93.7842Z" fill="#F47C09"/>
<path opacity="0.1" d="M35.4805 101.091V108.275H25.4097C25.4097 108.233 25.4166 108.19 25.4196 108.149C25.4286 108.034 25.4375 107.919 25.4475 107.806C25.4584 107.672 25.4704 107.538 25.4833 107.407C25.4963 107.277 25.5102 107.117 25.5251 106.973C25.5401 106.828 25.554 106.682 25.5709 106.537C25.5879 106.393 25.6028 106.248 25.6207 106.105C25.6386 105.961 25.6545 105.816 25.6735 105.672C25.6884 105.553 25.7043 105.434 25.7202 105.314C25.7431 105.146 25.767 104.977 25.7929 104.809C25.7929 104.784 25.7999 104.758 25.8039 104.735C25.9855 103.509 26.2331 102.294 26.5455 101.095L35.4805 101.091Z" fill="#6C63FF"/>
<path opacity="0.1" d="M25.3779 108.702H35.4807V122.486H26.1176C26.0927 122.628 26.0688 122.77 26.0429 122.913H35.4807V134.03C35.4637 134.025 35.4488 134.019 35.4329 134.013C35.1661 133.907 34.9013 133.796 34.6365 133.676L34.4673 133.599C34.2019 133.474 33.9364 133.341 33.671 133.201C33.5784 133.152 33.4858 133.101 33.3942 133.049C31.9206 132.223 30.5818 131.176 29.4244 129.944C29.3906 129.911 29.3587 129.876 29.3249 129.844C29.1636 129.669 29.0053 129.492 28.852 129.31L28.6828 129.111C28.5016 128.889 28.3264 128.661 28.1562 128.429C28.1313 128.395 28.1074 128.362 28.0816 128.33C27.3893 127.369 26.8145 126.328 26.3694 125.231C26.3555 125.198 26.3435 125.162 26.3306 125.131C26.1939 124.779 26.0728 124.423 25.9672 124.065C25.9215 123.914 25.8777 123.766 25.8398 123.609C25.8259 123.563 25.814 123.519 25.803 123.474C25.2376 121.265 25.1709 118.97 25.1709 116.691C25.1709 116.425 25.1709 116.157 25.1709 115.893C25.1709 114.972 25.1818 114.044 25.1978 113.117C25.1978 112.877 25.2077 112.638 25.2127 112.397C25.2266 111.785 25.2466 111.173 25.2724 110.561C25.2784 110.391 25.2864 110.221 25.2953 110.052C25.2953 109.954 25.3003 109.857 25.3103 109.759C25.3342 109.404 25.3541 109.052 25.3779 108.702Z" fill="#6C63FF"/>
<path opacity="0.1" d="M45.4888 95.8546V108.275H37.8926V95.8546H38.9756V91.6494H43.4212V95.8546H45.4888Z" fill="#6C63FF"/>
<path opacity="0.1" d="M45.4888 108.701H37.8936V122.485H45.4888V108.701Z" fill="#6C63FF"/>
<path opacity="0.1" d="M37.8926 122.913H45.4888V134.372C44.5927 134.63 43.6796 134.824 42.7563 134.953L42.5293 134.981C42.4178 134.994 42.3073 135.005 42.1978 135.016C42.0884 135.027 41.9749 135.035 41.8644 135.042H41.8295C41.7818 135.042 41.73 135.048 41.6832 135.049H41.6324C41.5727 135.049 41.513 135.055 41.4533 135.057C41.3686 135.062 41.284 135.063 41.1974 135.064C41.1606 135.064 41.1258 135.064 41.0889 135.064C41.0033 135.064 40.9187 135.064 40.8331 135.064H40.645C40.5942 135.064 40.5454 135.064 40.4927 135.064L40.3005 135.057C40.201 135.057 40.0935 135.046 39.99 135.039L39.7988 135.025L39.5609 135.003C39.3937 134.988 39.2275 134.969 39.0632 134.946L38.8641 134.918L38.7646 134.904C38.5983 134.879 38.4341 134.851 38.2669 134.819C38.1444 134.798 38.023 134.772 37.8995 134.747L37.8926 122.913Z" fill="#6C63FF"/>
<path opacity="0.1" d="M92.9718 94.3877H86.7085V108.274H92.9718V94.3877Z" fill="#6C63FF"/>
<path opacity="0.1" d="M92.9728 108.701V122.486H61.8843V116.54H78.4434V120.048H86.7085V108.701H92.9728Z" fill="#6C63FF"/>
<path opacity="0.1" d="M93.0714 137.693H92.9718V146.736C91.8503 146.641 90.7321 146.512 89.6172 146.349C84.5978 145.613 79.7047 144.184 75.0778 142.102C73.7419 141.5 72.4333 140.843 71.1518 140.131C69.0113 138.943 66.9605 137.601 65.0159 136.114C64.5275 135.739 64.0454 135.356 63.5696 134.964C63.2401 134.692 62.9126 134.413 62.5811 134.142C62.3511 133.955 62.1192 133.772 61.8843 133.596V122.913H86.6259C86.609 122.849 86.5921 122.785 86.5742 122.723C86.5931 122.785 86.611 122.849 86.6279 122.913H92.9718V137.687C93.0057 137.688 93.0385 137.691 93.0714 137.693Z" fill="#6C63FF"/>
<path opacity="0.1" d="M109.307 93.3535H105.226V92.084H107.055V88.3022C107.214 88.36 107.372 88.4195 107.529 88.4806V92.084H109.307V93.3535Z" fill="#6C63FF"/>
<path opacity="0.1" d="M119.14 108.275H99.1037C99.1037 108.275 99.1037 108.275 99.1107 108.28L99.1017 108.275H95.3848V94.3886H96.4379V104.653H101.251V98.5739H105.227V93.7798H109.308V98.5779H113.284V104.657H119.14V108.275Z" fill="#6C63FF"/>
<path opacity="0.1" d="M95.3848 108.701V122.486H119.14V108.701H95.3848ZM125.588 138.713L125.621 127.802H119.14V122.919H95.3848V146.885C97.3323 146.966 99.2829 146.943 101.228 146.815V146.815H101.262C102.191 146.756 103.116 146.671 104.036 146.56H104.057C108.968 145.988 113.769 144.705 118.312 142.752" fill="#6C63FF"/>
<path opacity="0.1" d="M128.454 122.913H133.996C133.947 125.712 133.386 128.461 132.157 131C131.135 133.11 129.714 134.954 128.036 136.566V127.796H128.454V122.913Z" fill="#6C63FF"/>
<path opacity="0.1" d="M133.999 122.486H128.455V110.966H131.455C133.008 114.598 133.994 118.584 133.999 122.486Z" fill="#6C63FF"/>
<path opacity="0.1" d="M92.9728 98.2485H89.6172V102.602H92.9728V98.2485Z" fill="#6C63FF"/>
<path opacity="0.1" d="M92.9728 107.272H89.6172V108.275H92.9728V107.272Z" fill="#6C63FF"/>
<path opacity="0.1" d="M92.9728 108.701H89.6172V111.625H92.9728V108.701Z" fill="#6C63FF"/>
<path opacity="0.1" d="M92.9728 116.297H89.6172V120.651H92.9728V116.297Z" fill="#6C63FF"/>
<path opacity="0.1" d="M92.9728 125.321H89.6172V129.675H92.9728V125.321Z" fill="#6C63FF"/>
<path opacity="0.1" d="M92.9718 137.687C93.0057 137.687 93.0385 137.687 93.0714 137.693H92.9718V138.704H89.6172V134.346H92.9718V137.687Z" fill="#6C63FF"/>
<path opacity="0.1" d="M92.9718 143.368V146.731C91.8503 146.636 90.7321 146.507 89.6172 146.343V143.368H92.9718Z" fill="#6C63FF"/>
<path opacity="0.1" d="M76.2654 122.167H61.8843V122.486H76.2654V122.167Z" fill="#6C63FF"/>
<path opacity="0.1" d="M76.2654 122.912H61.8843V124.137H76.2654V122.912Z" fill="#6C63FF"/>
<path opacity="0.1" d="M76.2654 128.155H61.8843V130.126H76.2654V128.155Z" fill="#6C63FF"/>
<path opacity="0.1" d="M76.2644 134.144V136.115H65.0159C64.5275 135.742 64.045 135.358 63.5685 134.965C63.2391 134.693 62.9126 134.414 62.5801 134.144H76.2644Z" fill="#6C63FF"/>
<path opacity="0.1" d="M76.2644 140.132V142.101H75.0769C73.7423 141.499 72.434 140.842 71.1519 140.129L76.2644 140.132Z" fill="#6C63FF"/>
<path opacity="0.1" d="M104.06 110.037H101.229V112.871H104.06V110.037Z" fill="#6C63FF"/>
<path opacity="0.1" d="M42.7632 96.8325H39.9321V99.6666H42.7632V96.8325Z" fill="#6C63FF"/>
<path opacity="0.1" d="M42.7632 103.415H39.9321V106.249H42.7632V103.415Z" fill="#6C63FF"/>
<path opacity="0.1" d="M42.7632 109.998H39.9321V112.832H42.7632V109.998Z" fill="#6C63FF"/>
<path opacity="0.1" d="M42.7632 116.58H39.9321V119.414H42.7632V116.58Z" fill="#6C63FF"/>
<path opacity="0.1" d="M42.7632 123.163H39.9321V125.997H42.7632V123.163Z" fill="#6C63FF"/>
<path opacity="0.1" d="M42.7632 129.746H39.9321V132.58H42.7632V129.746Z" fill="#6C63FF"/>
<path opacity="0.1" d="M114.868 110.037H112.037V112.871H114.868V110.037Z" fill="#6C63FF"/>
<path opacity="0.1" d="M104.06 117.027H101.229V119.861H104.06V117.027Z" fill="#6C63FF"/>
<path opacity="0.1" d="M114.868 117.027H112.037V119.861H114.868V117.027Z" fill="#6C63FF"/>
<path opacity="0.1" d="M104.06 124.017H101.229V126.851H104.06V124.017Z" fill="#6C63FF"/>
<path opacity="0.1" d="M114.868 124.017H112.037V126.851H114.868V124.017Z" fill="#6C63FF"/>
<path opacity="0.1" d="M104.06 131.007H101.229V133.841H104.06V131.007Z" fill="#6C63FF"/>
<path opacity="0.1" d="M114.868 131.007H112.037V133.841H114.868V131.007Z" fill="#6C63FF"/>
<path opacity="0.1" d="M104.06 137.998H101.229V140.832H104.06V137.998Z" fill="#6C63FF"/>
<path opacity="0.1" d="M114.868 137.998H112.037V140.832H114.868V137.998Z" fill="#6C63FF"/>
<path opacity="0.1" d="M101.229 146.815V144.987H104.059V146.555L101.229 146.815Z" fill="#6C63FF"/>
<path opacity="0.1" d="M25.792 104.732V106.354H35.4806V104.732H25.792ZM26.7576 106.252H25.9672V104.832H26.7635L26.7576 106.252ZM27.7221 106.252H26.9258V104.832H27.7221V106.252ZM28.6847 106.252H27.8884V104.832H28.6847V106.252ZM29.6493 106.252H28.854V104.832H29.6503L29.6493 106.252ZM30.6129 106.252H29.8166V104.832H30.6129V106.252ZM31.5775 106.252H30.7811V104.832H31.5775V106.252ZM32.5421 106.252H31.7457V104.832H32.5421V106.252ZM33.5056 106.252H32.7093V104.832H33.5056V106.252ZM34.4692 106.252H33.6729V104.832H34.4692V106.252ZM35.4328 106.252H34.6365V104.832H35.4328V106.252Z" fill="#6C63FF"/>
<path opacity="0.1" d="M25.792 109.45V111.071H35.4806V109.45H25.792ZM26.7576 110.969H25.9672V109.553H26.7635L26.7576 110.969ZM27.7221 110.969H26.9258V109.553H27.7221V110.969ZM28.6847 110.969H27.8884V109.553H28.6847V110.969ZM29.6493 110.969H28.854V109.553H29.6503L29.6493 110.969ZM30.6129 110.969H29.8166V109.553H30.6129V110.969ZM31.5775 110.969H30.7811V109.553H31.5775V110.969ZM32.5421 110.969H31.7457V109.553H32.5421V110.969ZM33.5056 110.969H32.7093V109.553H33.5056V110.969ZM34.4692 110.969H33.6729V109.553H34.4692V110.969ZM35.4328 110.969H34.6365V109.553H35.4328V110.969Z" fill="#6C63FF"/>
<path opacity="0.1" d="M25.792 114.169V115.794H35.4806V114.169H25.792ZM26.7576 115.688H25.9672V114.271H26.7635L26.7576 115.688ZM27.7221 115.688H26.9258V114.271H27.7221V115.688ZM28.6847 115.688H27.8884V114.271H28.6847V115.688ZM29.6493 115.688H28.854V114.271H29.6503L29.6493 115.688ZM30.6129 115.688H29.8166V114.271H30.6129V115.688ZM31.5775 115.688H30.7811V114.271H31.5775V115.688ZM32.5421 115.688H31.7457V114.271H32.5421V115.688ZM33.5056 115.688H32.7093V114.271H33.5056V115.688ZM34.4692 115.688H33.6729V114.271H34.4692V115.688ZM35.4328 115.688H34.6365V114.271H35.4328V115.688Z" fill="#6C63FF"/>
<path opacity="0.1" d="M25.792 118.889V120.508H35.4806V118.889H25.792ZM26.7576 120.407H25.9672V118.989H26.7635L26.7576 120.407ZM27.7221 120.407H26.9258V118.989H27.7221V120.407ZM28.6847 120.407H27.8884V118.989H28.6847V120.407ZM29.6493 120.407H28.854V118.989H29.6503L29.6493 120.407ZM30.6129 120.407H29.8166V118.989H30.6129V120.407ZM31.5775 120.407H30.7811V118.989H31.5775V120.407ZM32.5421 120.407H31.7457V118.989H32.5421V120.407ZM33.5056 120.407H32.7093V118.989H33.5056V120.407ZM34.4692 120.407H33.6729V118.989H34.4692V120.407ZM35.4328 120.407H34.6365V118.989H35.4328V120.407Z" fill="#6C63FF"/>
<path opacity="0.1" d="M25.8335 123.607C25.8723 123.76 25.9161 123.912 25.9619 124.063V123.709H26.7583V125.126H26.3322C26.3452 125.159 26.3581 125.195 26.371 125.226H35.4803V123.607H25.8335ZM27.7248 125.126H26.9285V123.709H27.7248V125.126ZM28.6874 125.126H27.8911V123.709H28.6874V125.126ZM29.652 125.126H28.8537V123.709H29.65L29.652 125.126ZM30.6156 125.126H29.8192V123.709H30.6156V125.126ZM31.5802 125.126H30.7838V123.709H31.5802V125.126ZM32.5447 125.126H31.7484V123.709H32.5447V125.126ZM33.5083 125.126H32.712V123.709H33.5083V125.126ZM34.4719 125.126H33.6756V123.709H34.4719V125.126ZM35.4355 125.126H34.6391V123.709H35.4355V125.126Z" fill="#6C63FF"/>
<path opacity="0.1" d="M28.0835 128.327C28.1084 128.359 28.1323 128.394 28.1582 128.426H28.6847V129.107C28.7415 129.175 28.7972 129.242 28.855 129.306V128.422H29.6513V129.844H29.3288C29.3606 129.877 29.3915 129.912 29.4283 129.944H35.4836V128.327H28.0835ZM30.6129 129.844H29.8166V128.428H30.6129V129.844ZM31.5775 129.844H30.7811V128.428H31.5775V129.844ZM32.5421 129.844H31.7457V128.428H32.5421V129.844ZM33.5057 129.844H32.7093V128.428H33.5057V129.844ZM34.4692 129.844H33.6729V128.428H34.4692V129.844ZM35.4328 129.844H34.6365V128.428H35.4328V129.844Z" fill="#6C63FF"/>
<path opacity="0.1" d="M33.3979 133.045C33.4885 133.097 33.5811 133.145 33.6747 133.196V133.147H34.471V133.595L34.6403 133.674V133.147H35.4366V134.009C35.4519 134.016 35.4679 134.022 35.4844 134.026V133.045H33.3979Z" fill="#6C63FF"/>
<path opacity="0.1" d="M99.104 108.275H99.11H99.104ZM92.9721 137.686H93.0716H92.9721ZM86.5744 122.721C86.5933 122.785 86.6093 122.849 86.6272 122.912C86.6112 122.849 86.5943 122.785 86.5744 122.721ZM99.104 108.272H99.11H99.104ZM38.9795 93.3506V93.7761H43.4261V93.3506H38.9795ZM92.9721 137.686H93.0716H92.9721ZM86.5744 122.721C86.5933 122.785 86.6093 122.849 86.6272 122.912C86.6112 122.849 86.5943 122.785 86.5744 122.721ZM99.104 108.272H99.11H99.104ZM92.9721 137.683H93.0716H92.9721ZM86.5744 122.721C86.5933 122.785 86.6093 122.849 86.6272 122.912C86.6112 122.849 86.5943 122.785 86.5744 122.721Z" fill="#6C63FF"/>
<path d="M69.9494 112.834C69.9494 112.834 69.5572 112.779 69.5572 112.207C69.5572 111.635 69.2764 110.567 69.2764 110.567C69.2764 110.562 69.0336 108.707 68.6981 108.412C68.3626 108.117 67.9316 106.385 67.9316 106.385C67.9316 106.385 67.8579 105.445 67.7076 105.243C67.5573 105.04 67.3543 104.545 67.0546 103.839C66.755 103.132 65.5057 102.643 65.5057 102.643C65.5057 102.643 63.2471 101.331 62.607 100.904C62.5488 100.869 62.4945 100.828 62.4447 100.781C62.3333 100.635 61.8475 100.632 61.8475 100.632C61.7967 100.311 61.7479 99.9423 61.732 99.6085C61.732 99.5726 61.732 99.5367 61.727 99.5009C62.4408 99.0785 62.9783 98.4126 63.2411 97.6254C63.253 97.5876 63.263 97.5477 63.2739 97.5099C63.3167 97.4958 63.3561 97.4729 63.3895 97.4427C63.4229 97.4125 63.4497 97.3756 63.4681 97.3345C63.5258 97.2059 63.5268 97.0555 63.5985 96.9359C63.6821 96.7944 63.8413 96.7186 63.9668 96.612C64.2833 96.343 64.3649 95.8895 64.35 95.477C64.3401 95.1432 64.2863 94.8064 64.3072 94.4745L64.3132 94.3908C64.3192 94.341 64.3261 94.2912 64.3351 94.2433C64.3839 93.9962 64.4904 93.763 64.5501 93.5179C64.6098 93.2727 64.6158 92.9967 64.4764 92.7854C64.2724 92.4755 63.8473 92.4138 63.474 92.3819C63.051 92.346 62.6727 92.3928 62.4019 92.0411C62.2752 91.8572 62.1327 91.6848 61.9759 91.5259C61.9202 91.4741 61.3786 91.1432 61.3786 91.1213C60.8501 90.8762 60.251 90.8303 59.6914 90.9918C59.4106 91.0735 59.1459 91.207 58.8612 91.2738C58.247 91.4192 57.5402 91.2618 57.0186 91.6136C56.7279 91.8129 56.5537 92.1298 56.3905 92.4387C56.2578 92.6931 56.123 92.9472 55.9863 93.201C55.7663 93.6185 55.5424 94.043 55.4498 94.5054C55.4303 94.606 55.4184 94.7079 55.414 94.8103V94.8153C55.414 94.8522 55.414 94.8891 55.414 94.9259V94.9728C55.414 95.0076 55.414 95.0415 55.4199 95.0724C55.4259 95.1033 55.4249 95.1133 55.4279 95.1342C55.4309 95.1551 55.4359 95.202 55.4418 95.2338C55.4478 95.2657 55.4598 95.3215 55.4717 95.3654C55.4767 95.3843 55.4836 95.4023 55.4896 95.4202C55.4996 95.4541 55.5115 95.487 55.5245 95.5198C55.5314 95.5368 55.5384 95.5547 55.5464 95.5717C55.5613 95.6065 55.5792 95.6404 55.5971 95.6713C55.6051 95.6853 55.6111 95.6982 55.619 95.7112C55.6468 95.7575 55.6774 95.8021 55.7106 95.8447C55.9236 96.1108 56.2372 96.2802 56.4691 96.5293C56.4691 96.5393 56.4691 96.5492 56.4691 96.5582C56.4691 96.5861 56.4691 96.613 56.4691 96.6409C56.4814 97.1965 56.6292 97.7407 56.8994 98.2261C57.1697 98.7115 57.5544 99.1235 58.02 99.4261C58.02 99.464 58.025 99.5029 58.027 99.5407C58.0464 99.8365 58.0427 100.133 58.016 100.429C57.9755 100.381 57.9248 100.343 57.8676 100.317C57.8104 100.292 57.7482 100.279 57.6856 100.281C57.6428 100.279 57.5999 100.283 57.5581 100.292L57.5492 100.285V100.294C57.3302 100.348 57.0604 100.576 56.8026 101.225C56.8026 101.225 56.0182 102.11 55.4209 102.073C54.8237 102.036 53.3116 102.994 53.3116 102.994C53.3116 102.994 51.8364 103.952 51.5198 104.929C51.3429 105.483 51.1307 106.024 50.8847 106.551L49.0611 110.313L48.7246 113.297C48.7246 113.297 48.9108 114.625 48.8739 114.827C48.8371 115.029 49.6394 116.854 49.6394 116.854C49.6394 116.854 52.2903 121.517 53.3733 121.756L53.451 121.701C53.4973 121.725 53.5464 121.744 53.5973 121.756L53.8203 121.598C53.8337 121.774 53.828 121.95 53.8033 122.124C53.654 122.585 53.8591 125.589 54.1199 126.178C54.3807 126.767 54.2881 134.489 54.2881 134.489L54.2513 135.171C54.2513 135.171 54.2513 135.192 54.2602 135.23L54.2513 135.392L54.2782 135.406C54.3061 135.622 54.297 135.841 54.2513 136.054C54.1577 136.353 54.1199 137.198 54.1199 137.198C54.1199 137.198 53.3743 141.97 53.7277 142.928C54.0811 143.887 54.3817 144.937 54.3817 144.937C54.3817 144.937 54.755 146.133 54.3996 146.337C54.0442 146.542 53.0339 146.884 53.2419 147.383C53.431 147.843 54.1488 149.077 54.2553 149.257L54.2463 149.352L54.1 150.939C54.1237 151.149 54.1805 151.353 54.2682 151.545C54.4285 151.891 54.74 152.25 55.3323 152.211C55.4319 152.204 55.5473 152.192 55.6588 152.177C56.7429 152.031 58.0778 151.547 58.0778 151.547C58.0085 151.503 57.9449 151.45 57.8886 151.391V151.391C57.8353 151.339 57.7931 151.277 57.7645 151.208C57.736 151.14 57.7216 151.066 57.7224 150.992C57.7383 150.703 57.1978 149.326 57.0634 148.987C57.0425 148.938 57.0316 148.91 57.0316 148.91C57.0316 148.91 58.2639 147.621 58.0588 146.478C58.0588 146.478 56.6951 145.681 57.144 145.243C57.593 144.806 58.3953 143.549 58.3953 143.549C58.3953 143.549 58.4321 138.851 58.3953 138.149C58.3569 137.662 58.38 137.172 58.464 136.691C58.4789 136.618 58.4968 136.548 58.5158 136.478C59.1366 136.571 59.7634 136.618 60.3912 136.62C60.6201 136.62 60.853 136.62 61.088 136.607C61.088 136.673 61.091 136.745 61.0969 136.822C61.1487 137.986 61.2452 140.027 61.3239 140.785C61.4354 141.872 62.0515 144.802 62.0515 144.802C62.0515 144.802 60.8759 145.557 62.2566 147.419C62.2566 147.419 62.2566 148.093 62.165 148.191C62.0673 148.51 61.9885 148.835 61.9291 149.163C61.8714 149.514 61.8475 149.869 61.9411 150.053C62.165 150.494 63.5089 150.458 63.5089 150.458L63.5417 150.452C63.7954 150.426 64.0518 150.45 64.296 150.524C64.5402 150.598 64.7673 150.719 64.9642 150.881C65.4749 151.292 67.413 151.112 68.4622 150.981C68.8733 150.929 69.148 150.881 69.148 150.881C69.1614 150.835 69.1661 150.786 69.162 150.738C69.151 150.48 68.9489 149.914 67.5792 149.409C67.5792 149.409 66.2911 148.542 66.309 147.786H66.2822H66.1328C66.2414 147.78 66.311 147.786 66.311 147.786C66.311 147.786 65.8063 145.943 66.0124 145.793C66.2185 145.644 65.6013 143.601 65.6013 143.601C65.6013 143.601 65.2479 140.173 65.229 139.933C65.2298 139.727 65.261 139.522 65.3216 139.325L65.229 137.446C65.229 137.446 65.2111 136.821 65.229 136.617C65.226 136.441 65.2117 136.265 65.1862 136.09C65.1772 136.021 65.1683 135.948 65.1583 135.876C65.6411 135.754 65.9547 135.64 65.9547 135.64L65.8989 129.098C66.309 128.301 66.3847 126.552 66.3827 125.311C66.3827 124.514 66.3469 123.924 66.3469 123.924L66.9073 123.008C66.9073 123.008 67.0367 121.912 66.8316 121.672C66.7411 121.563 66.7819 121.451 66.8565 121.358C66.8953 121.327 66.9362 121.299 66.979 121.274C66.979 121.274 66.973 121.265 66.966 121.252C67.0052 121.22 67.0468 121.19 67.0905 121.164C67.0905 121.164 66.8914 120.855 67.0696 120.724C67.2368 120.838 67.3861 120.924 67.4996 120.993C67.4916 121.066 67.4837 121.108 67.4837 121.108L67.5314 121.008C67.6409 121.07 67.7076 121.108 67.7076 121.108C67.7076 121.108 68.5856 119.357 68.5667 119.099C68.5478 118.841 69.164 117.754 69.164 117.754C69.164 117.754 69.2386 117.183 69.5751 116.944C69.9115 116.704 69.8359 114.972 69.8359 114.972C69.8359 114.972 69.9295 114.069 70.1534 113.7C70.3774 113.331 69.9494 112.834 69.9494 112.834ZM53.1503 112.066L53.1673 112.483C53.0677 112.323 52.996 112.207 52.996 112.207L53.1503 112.066Z" fill="url(#paint0_linear_305_811)"/>
<path d="M67.7557 120.352L67.5407 121.269C67.5407 121.269 65.8186 120.389 65.508 119.271C65.1975 118.153 66.0276 117.728 66.0276 117.728L67.6323 118.409L67.7557 120.352Z" fill="white"/>
<path opacity="0.1" d="M67.7557 120.352L67.5407 121.269C67.5407 121.269 65.8186 120.389 65.508 119.271C65.1975 118.153 66.0276 117.728 66.0276 117.728L67.6323 118.409L67.7557 120.352Z" fill="black"/>
<path d="M58.091 151.553C58.091 151.553 56.4983 152.139 55.4033 152.213C54.8219 152.252 54.5164 151.895 54.3591 151.551C54.2732 151.36 54.2177 151.157 54.1948 150.948L54.3372 149.369L54.4128 148.528L56.7392 147.923L57.0687 148.931L57.0995 149.008C57.2319 149.345 57.7625 150.715 57.7465 151.001C57.7459 151.074 57.76 151.147 57.7881 151.215C57.8161 151.282 57.8575 151.343 57.9098 151.395C57.9632 151.455 58.0241 151.508 58.091 151.553V151.553Z" fill="white"/>
<path d="M68.97 150.75C68.974 150.798 68.9693 150.846 68.9561 150.893C68.9561 150.893 65.5497 151.462 64.8529 150.893C64.6564 150.726 64.4274 150.603 64.1806 150.531C63.9337 150.458 63.6745 150.438 63.4195 150.472C63.4195 150.472 62.1015 150.508 61.8815 150.073C61.7899 149.891 61.8138 149.537 61.8706 149.189C61.9284 148.862 62.0056 148.539 62.1015 148.221L62.1543 148.179L62.4678 147.927L66.139 147.818H66.1669C66.149 148.57 67.4132 149.432 67.4132 149.432C68.756 149.93 68.9541 150.493 68.97 150.75Z" fill="white"/>
<path opacity="0.1" d="M68.97 150.75C68.9735 150.798 68.9684 150.846 68.9551 150.892C68.9551 150.892 65.5497 151.461 64.8529 150.892C64.6565 150.726 64.4277 150.603 64.181 150.531C63.9343 150.458 63.6753 150.438 63.4204 150.472C63.4204 150.472 62.1015 150.508 61.8825 150.073C61.7909 149.89 61.8138 149.537 61.8705 149.188C62.3782 149.239 63.1795 149.366 63.4941 149.668C63.9699 150.127 64.7762 150.586 65.2709 150.621C65.6582 150.646 67.9746 150.72 68.97 150.75Z" fill="black"/>
<path opacity="0.1" d="M58.0908 151.553C58.0908 151.553 56.4981 152.139 55.4031 152.213C54.8217 152.252 54.5161 151.895 54.3599 151.55C54.765 151.687 55.3274 151.83 55.6231 151.699C55.9735 151.543 57.2158 151.443 57.9126 151.4C57.9656 151.458 58.0254 151.51 58.0908 151.553V151.553Z" fill="black"/>
<path d="M60.4538 104.334C59.1398 103.823 57.4496 102.134 57.8716 101.344C57.9654 101.145 58.0211 100.93 58.0359 100.711C58.063 100.413 58.067 100.113 58.0478 99.8139C58.0182 99.3245 57.9594 98.8373 57.8716 98.355C57.8716 98.355 61.9739 98.4477 61.7349 99.0525C61.6653 99.2299 61.6543 99.5378 61.6732 99.8826C61.6921 100.227 61.7419 100.617 61.7937 100.947C61.8654 101.399 61.937 101.744 61.937 101.744C61.937 101.744 61.6862 102.096 61.5388 102.115C61.3915 102.134 62.3392 105.062 60.4538 104.334Z" fill="#CF6F80"/>
<path opacity="0.1" d="M57.0963 149.008L57.0655 149.042C55.8391 147.557 54.3559 149.408 54.3559 149.408L54.334 149.369L54.4096 148.528L56.736 147.923L57.0655 148.931L57.0963 149.008Z" fill="black"/>
<path opacity="0.1" d="M66.168 147.923C66.168 147.923 65.2721 147.904 64.7943 148.327C64.3165 148.749 62.0071 148.418 62.1066 148.327C62.1361 148.281 62.1539 148.229 62.1584 148.175L62.472 147.923L66.1432 147.814C66.1571 147.881 66.168 147.923 66.168 147.923Z" fill="black"/>
<path d="M58.6224 136.263C58.5556 136.428 58.505 136.599 58.471 136.774C58.388 137.253 58.365 137.741 58.4024 138.225C58.4392 138.923 58.4024 143.597 58.4024 143.597C58.4024 143.597 57.615 144.844 57.176 145.283C56.737 145.723 58.0719 146.512 58.0719 146.512C58.271 147.648 57.0645 148.932 57.0645 148.932C55.8381 147.447 54.3549 149.298 54.3549 149.298C54.3549 149.298 53.5486 147.903 53.3475 147.405C53.1464 146.907 54.1349 146.562 54.4823 146.36C54.8297 146.157 54.4654 144.964 54.4654 144.964C54.4654 144.964 54.1717 143.919 53.8233 142.965C53.4749 142.012 54.2076 137.264 54.2076 137.264C54.2076 137.264 54.2454 136.421 54.336 136.127C54.3817 135.915 54.3908 135.697 54.3629 135.482C54.3569 135.409 54.3499 135.348 54.345 135.307C54.34 135.267 54.336 135.248 54.336 135.248L54.3499 135.224L54.8477 134.295C54.8477 134.295 58.8613 135.678 58.6224 136.263Z" fill="#6C63FF"/>
<path d="M66.1678 147.813C66.1678 147.813 65.2719 147.794 64.7941 148.212C64.3163 148.629 62.0069 148.303 62.1064 148.212C62.2059 148.12 62.198 147.441 62.198 147.441C60.8432 145.59 61.9989 144.838 61.9989 144.838C61.9989 144.838 61.3937 141.924 61.2842 140.842C61.2075 140.087 61.113 138.057 61.0622 136.898C61.0403 136.4 61.0273 136.057 61.0273 136.057L62.1343 135.834L62.2766 135.805L64.9464 135.269C64.9464 135.269 65.02 135.767 65.0698 136.175C65.0946 136.349 65.1086 136.524 65.1116 136.7C65.0937 136.899 65.1116 137.523 65.1116 137.523L65.2022 139.394C65.143 139.59 65.1125 139.793 65.1116 139.998C65.1295 140.237 65.477 143.647 65.477 143.647C65.477 143.647 66.0812 145.681 65.8751 145.828C65.6691 145.974 66.1678 147.813 66.1678 147.813Z" fill="#6C63FF"/>
<path opacity="0.1" d="M61.7349 99.0525C61.6652 99.2299 61.6543 99.5378 61.6732 99.8826C61.1237 100.214 60.492 100.383 59.8507 100.371C59.2094 100.359 58.5845 100.166 58.0478 99.8148C58.0182 99.3251 57.9594 98.8376 57.8716 98.355C57.8716 98.355 61.9738 98.4457 61.7349 99.0525Z" fill="black"/>
<path d="M63.3211 96.8501C63.3219 97.2092 63.2654 97.5662 63.1538 97.9074C62.9044 98.6721 62.393 99.3239 61.71 99.7476C61.027 100.171 60.2163 100.34 59.4213 100.223C58.6262 100.106 57.898 99.7119 57.3653 99.1096C56.8326 98.5074 56.5298 97.736 56.5103 96.9319C56.5103 96.904 56.5103 96.878 56.5103 96.8501C56.5025 96.3975 56.5849 95.9478 56.7526 95.5274C56.9203 95.107 57.1699 94.7241 57.487 94.4013C57.804 94.0785 58.1821 93.822 58.5992 93.647C59.0162 93.472 59.4639 93.3818 59.9162 93.3818C60.3684 93.3818 60.8161 93.472 61.2332 93.647C61.6502 93.822 62.0283 94.0785 62.3453 94.4013C62.6624 94.7241 62.912 95.107 63.0797 95.5274C63.2474 95.9478 63.3298 96.3975 63.3221 96.8501H63.3211Z" fill="#CF6F80"/>
<path opacity="0.1" d="M60.4538 104.334C59.1398 103.823 57.4496 102.134 57.8716 101.345C57.9654 101.146 58.0211 100.931 58.0359 100.711L59.8347 102.191L60.9476 103.105L61.7937 100.948C61.8654 101.401 61.937 101.745 61.937 101.745C61.937 101.745 61.6862 102.097 61.5388 102.116C61.3915 102.135 62.3392 105.063 60.4538 104.334Z" fill="black"/>
<path d="M65.1057 110.874L63.6036 136.135L61.6445 136.264L56.5718 121.616L57.404 104.226L57.5792 100.552L59.8348 102.407L60.9487 103.321L61.8197 101.101L63.4393 102.514L65.1057 110.874Z" fill="#6C63FF"/>
<path opacity="0.1" d="M58.6223 136.263C58.5555 136.428 58.5049 136.599 58.471 136.774C57.0455 136.554 55.661 136.121 54.3638 135.49L54.3369 135.476L54.3459 135.315L54.3509 135.231L54.8486 134.303C54.8486 134.303 58.8612 135.678 58.6223 136.263Z" fill="black"/>
<path opacity="0.1" d="M62.1573 136.778C61.7929 136.84 61.4253 136.882 61.0563 136.904C61.0344 136.405 61.0215 136.063 61.0215 136.063L62.1284 135.839L62.1573 136.778Z" fill="black"/>
<path opacity="0.1" d="M65.0637 136.18C64.356 136.365 63.263 136.572 62.2844 136.442L62.2705 135.811L64.9403 135.274C64.9403 135.274 65.0139 135.768 65.0637 136.18Z" fill="black"/>
<path opacity="0.1" d="M62.2667 136.558C58.1854 137.256 54.4475 135.256 54.4475 135.256L54.4834 134.578C54.4834 134.578 54.576 126.896 54.3191 126.307C54.0623 125.718 53.8622 122.732 54.0076 122.273C54.1529 121.815 53.477 114.941 53.477 114.941L53.3675 112.151L49.3599 110.525L51.1517 106.787C51.3937 106.262 51.6018 105.723 51.7748 105.172C52.0864 104.202 53.5327 103.248 53.5327 103.248C53.5327 103.248 55.0159 102.295 55.6023 102.331C56.1886 102.367 56.9571 101.488 56.9571 101.488C57.5245 100.04 58.0381 100.696 58.0381 100.696C58.0381 100.765 58.0381 100.696 58.0102 100.91C57.8111 102.5 61.2295 107.522 61.2783 107.611L61.6038 115.549L61.9333 125.594L62.2667 136.558Z" fill="black"/>
<path d="M62.1574 136.558C58.0761 137.255 54.3372 135.255 54.3372 135.255L54.3741 134.578C54.3741 134.578 54.4666 126.896 54.2088 126.307C53.951 125.718 53.7519 122.731 53.8983 122.273C54.0446 121.814 53.3677 114.941 53.3677 114.941L53.2572 112.15L49.2476 110.519L51.0393 106.78C51.2808 106.256 51.489 105.717 51.6625 105.166C51.9731 104.195 53.4204 103.242 53.4204 103.242C53.4204 103.242 54.9036 102.289 55.489 102.325C56.0743 102.361 56.8438 101.482 56.8438 101.482C57.4122 100.034 58.0383 100.69 58.0383 100.69C58.0383 100.758 57.9786 100.789 58.0104 100.904C58.4484 102.445 61.1202 107.516 61.1689 107.604L61.4984 115.542L61.8279 125.588L62.1574 136.558Z" fill="white"/>
<path opacity="0.1" d="M61.0571 107.831C60.6182 107.647 58.2928 104.99 58.2928 104.99V104.385C58.2082 104.185 57.7055 104.307 57.2974 104.447L57.4726 100.772L57.6717 100.938C58.1077 102.478 61.0064 107.742 61.0571 107.831Z" fill="black"/>
<path d="M61.1675 107.61C60.7275 107.427 58.4022 104.769 58.4022 104.769V104.165C58.3176 103.965 57.8149 104.087 57.4067 104.226L57.5829 100.552L57.782 100.718C58.219 102.258 61.1187 107.523 61.1675 107.61Z" fill="white"/>
<path opacity="0.1" d="M54.4476 120.865C54.5024 120.865 57.2856 120.572 57.2856 120.572C57.2856 120.572 58.9709 123.889 58.8604 124.696C58.7499 125.503 58.5498 126.218 57.8719 126.091C57.194 125.965 54.2236 126.191 54.2236 126.191L54.4476 120.865Z" fill="black"/>
<path d="M54.3373 120.645C54.392 120.645 57.1753 120.352 57.1753 120.352C57.1753 120.352 58.8595 123.67 58.75 124.476C58.6405 125.282 58.4385 125.998 57.7616 125.871C57.0847 125.745 54.1133 125.971 54.1133 125.971L54.3373 120.645Z" fill="white"/>
<path d="M56.4346 119.087C56.4346 119.087 58.9889 120.461 59.0437 120.881C59.0984 121.3 57.7436 120.697 57.451 120.625C57.2583 120.578 57.0623 120.547 56.8647 120.533L54.9126 120.586L56.4346 119.087Z" fill="#CF6F80"/>
<path opacity="0.1" d="M60.3445 108.002C60.4929 108.002 60.6132 107.882 60.6132 107.733C60.6132 107.584 60.4929 107.464 60.3445 107.464C60.196 107.464 60.0757 107.584 60.0757 107.733C60.0757 107.882 60.196 108.002 60.3445 108.002Z" fill="black"/>
<path d="M60.3445 107.893C60.4929 107.893 60.6132 107.772 60.6132 107.624C60.6132 107.475 60.4929 107.354 60.3445 107.354C60.196 107.354 60.0757 107.475 60.0757 107.624C60.0757 107.772 60.196 107.893 60.3445 107.893Z" fill="#3F3D56"/>
<path opacity="0.1" d="M60.8391 119.649C60.9875 119.649 61.1078 119.528 61.1078 119.38C61.1078 119.231 60.9875 119.111 60.8391 119.111C60.6906 119.111 60.5703 119.231 60.5703 119.38C60.5703 119.528 60.6906 119.649 60.8391 119.649Z" fill="black"/>
<path d="M60.8391 119.539C60.9875 119.539 61.1078 119.418 61.1078 119.27C61.1078 119.121 60.9875 119 60.8391 119C60.6906 119 60.5703 119.121 60.5703 119.27C60.5703 119.418 60.6906 119.539 60.8391 119.539Z" fill="#3F3D56"/>
<path opacity="0.1" d="M60.612 113.826C60.7605 113.826 60.8808 113.705 60.8808 113.557C60.8808 113.408 60.7605 113.288 60.612 113.288C60.4636 113.288 60.3433 113.408 60.3433 113.557C60.3433 113.705 60.4636 113.826 60.612 113.826Z" fill="black"/>
<path d="M60.612 113.716C60.7605 113.716 60.8808 113.595 60.8808 113.447C60.8808 113.298 60.7605 113.178 60.612 113.178C60.4636 113.178 60.3433 113.298 60.3433 113.447C60.3433 113.595 60.4636 113.716 60.612 113.716Z" fill="#3F3D56"/>
<path d="M66.808 120.477C66.808 120.477 66.9911 120.752 66.808 120.881C66.6248 121.009 66.8259 121.32 66.8259 121.32C66.8259 121.32 66.369 121.588 66.5701 121.829C66.7712 122.071 66.6437 123.16 66.6437 123.16L66.0943 124.071C66.0943 124.071 66.1271 124.657 66.1291 125.451C66.1291 126.688 66.0564 128.428 65.6543 129.221L65.71 135.73C65.71 135.73 63.7858 136.433 62.1752 136.219L61.9363 125.776C61.9363 125.776 62.2847 119.853 62.4131 118.717C62.4883 118.128 62.5189 117.533 62.5047 116.939C62.5047 116.939 62.45 115.161 62.2658 114.336C62.2658 114.336 62.0667 110.761 62.0468 109.772C62.0378 109.298 62.0627 107.917 62.0906 106.604C62.1215 105.168 62.1563 103.814 62.1563 103.814L61.793 100.936C61.793 100.936 62.1563 100.899 62.2658 101.045C62.3148 101.091 62.3682 101.132 62.4251 101.168V101.168C63.0522 101.592 65.268 102.898 65.268 102.898C65.268 102.898 66.4944 103.386 66.7881 104.086C67.0817 104.785 67.2858 105.282 67.4281 105.481C67.5705 105.68 67.6481 106.617 67.6481 106.617C67.6481 106.617 68.0702 108.341 68.3997 108.633C68.7292 108.925 68.9701 110.782 68.9701 110.782L66.0584 113.074C66.0584 113.074 65.8026 116.887 65.7478 117.034C65.6931 117.182 66.808 120.477 66.808 120.477Z" fill="white"/>
<path d="M66.9181 120.477C66.9181 120.477 67.1003 120.752 66.9181 120.881C66.736 121.009 66.935 121.32 66.935 121.32C66.935 121.32 66.4811 121.591 66.6802 121.832C66.8793 122.074 66.7539 123.163 66.7539 123.163L66.2044 124.074C66.2044 124.074 66.2372 124.66 66.2402 125.454C66.2402 126.691 66.1676 128.431 65.7654 129.224L65.8202 135.733C65.8202 135.733 63.893 136.436 62.2844 136.222L62.0465 125.779C62.0465 125.779 62.3949 119.856 62.5233 118.72C62.5985 118.131 62.6288 117.536 62.6139 116.942C62.6139 116.942 62.5591 115.164 62.3759 114.339C62.3759 114.339 62.1769 110.764 62.1559 109.775C62.147 109.301 62.1729 107.92 62.1997 106.607C62.2306 105.171 62.2654 103.817 62.2654 103.817L61.7856 100.9C61.7856 100.9 62.2654 100.9 62.3759 101.048C62.4245 101.095 62.4779 101.136 62.5352 101.171C63.1623 101.595 65.3792 102.901 65.3792 102.901C65.3792 102.901 66.6046 103.389 66.8982 104.089C67.1919 104.788 67.3959 105.285 67.5393 105.484C67.6826 105.683 67.7583 106.62 67.7583 106.62C67.7583 106.62 68.1803 108.344 68.5098 108.636C68.8393 108.928 69.0772 110.781 69.0772 110.781L66.1656 113.073C66.1656 113.073 65.9097 116.886 65.854 117.033C65.7983 117.181 66.9181 120.477 66.9181 120.477Z" fill="white"/>
<path opacity="0.1" d="M63.4315 104.663L63.6942 105.43L62.3106 106.825C62.3414 105.39 62.3763 104.035 62.3763 104.035L61.8965 101.118C61.8965 101.118 62.3763 101.118 62.4868 101.267C62.5352 101.313 62.5886 101.354 62.6461 101.388L63.8227 104.786L63.4315 104.663Z" fill="black"/>
<path d="M63.3206 104.442L63.5844 105.21L62.2007 106.605C62.2316 105.169 62.2664 103.815 62.2664 103.815L61.7856 100.898C61.7856 100.898 62.2664 100.898 62.3759 101.046C62.4248 101.093 62.4781 101.134 62.5352 101.169L63.7128 104.566L63.3206 104.442Z" fill="white"/>
<path opacity="0.1" d="M63.3211 96.8501C63.3219 97.2092 63.2654 97.5662 63.1538 97.9074C63.135 97.9104 63.1158 97.9095 63.0973 97.9049C63.0789 97.9003 63.0615 97.892 63.0463 97.8805C63.0204 96.9837 62.5795 96.1416 62.0369 95.4252C61.8846 95.2088 61.7 95.0172 61.4895 94.8571C61.2766 94.6971 61.0119 94.6222 60.7469 94.6469C60.4482 94.6877 60.1844 94.891 59.8828 94.9169C59.4846 94.9498 59.1283 94.6738 58.7331 94.6598C58.5724 94.6614 58.4139 94.6972 58.2682 94.7649C58.1225 94.8326 57.9928 94.9306 57.888 95.0525C57.6803 95.2983 57.5261 95.5847 57.435 95.8935C57.2785 96.3617 57.1933 96.8508 57.1822 97.3444C57.1772 97.6234 57.1503 97.9732 56.8915 98.0748C56.911 97.8696 56.8877 97.6626 56.8231 97.4669C56.7585 97.2712 56.654 97.091 56.5162 96.9378L56.5103 96.9319C56.5103 96.904 56.5103 96.878 56.5103 96.8501C56.5025 96.3975 56.5849 95.9478 56.7526 95.5274C56.9203 95.107 57.1699 94.7241 57.487 94.4013C57.804 94.0785 58.1821 93.822 58.5992 93.647C59.0162 93.472 59.4639 93.3818 59.9162 93.3818C60.3684 93.3818 60.8161 93.472 61.2332 93.647C61.6502 93.822 62.0283 94.0785 62.3453 94.4013C62.6624 94.7241 62.912 95.107 63.0797 95.5274C63.2474 95.9478 63.3298 96.3975 63.3221 96.8501H63.3211Z" fill="black"/>
<path d="M61.326 91.4362C60.8088 91.1926 60.2204 91.1465 59.6716 91.3067C59.3959 91.3884 59.1361 91.5209 58.8564 91.5877C58.2591 91.7322 57.5623 91.5757 57.0496 91.9255C56.7649 92.1248 56.5937 92.4397 56.4345 92.7456L56.0363 93.5049C55.8193 93.9205 55.6003 94.343 55.5097 94.8004C55.4191 95.2578 55.4739 95.77 55.7635 96.1377C55.9746 96.4057 56.2861 96.5742 56.5151 96.8263C56.6522 96.9796 56.7563 97.1597 56.8207 97.3552C56.8851 97.5506 56.9085 97.7573 56.8894 97.9623C57.1492 97.8626 57.1741 97.5119 57.18 97.2328C57.1911 96.7392 57.2764 96.2501 57.4329 95.7819C57.5237 95.4731 57.678 95.1866 57.8858 94.9409C57.9908 94.8192 58.1204 94.7212 58.2661 94.6535C58.4119 94.5858 58.5703 94.5499 58.7309 94.5483C59.1291 94.5622 59.4865 94.8373 59.8807 94.8044C60.1793 94.7795 60.4441 94.5752 60.7447 94.5353C61.0098 94.5102 61.2746 94.5852 61.4873 94.7456C61.6978 94.9054 61.8821 95.0971 62.0338 95.3136C62.5773 96.0301 63.0183 96.8701 63.0442 97.769C63.1567 97.8517 63.3189 97.744 63.3747 97.6165C63.4304 97.4889 63.4324 97.3395 63.5031 97.2179C63.5847 97.0774 63.741 97.0026 63.8634 96.897C64.174 96.629 64.2516 96.1775 64.2397 95.768C64.2277 95.3584 64.1481 94.9429 64.2258 94.5403C64.2725 94.2932 64.3781 94.062 64.4358 93.8178C64.4935 93.5737 64.5005 93.2997 64.3641 93.0894C64.165 92.7805 63.746 92.7197 63.3806 92.6908C62.9655 92.6549 62.5942 92.7008 62.3294 92.351C62.2052 92.1685 62.0653 91.9971 61.9114 91.8388C61.8586 91.787 61.326 91.4581 61.326 91.4362Z" fill="#512E4E"/>
<path opacity="0.1" d="M50.5064 112.451L49.4662 110.525L49.1367 113.496C49.1367 113.496 49.3199 114.815 49.283 115.018C49.2462 115.22 50.0336 117.034 50.0336 117.034C50.0336 117.034 52.6347 121.671 53.6968 121.91L57.2854 119.343L56.3337 118.134C56.3337 118.134 56.0043 118.005 55.9216 118.134C55.9216 118.134 54.1547 115.09 53.9716 114.87C53.7884 114.65 53.8242 114.21 53.8242 114.21C53.8242 114.21 53.5495 113.917 53.6411 113.642C53.7327 113.367 53.1105 112.414 53.1105 112.414L53.6779 111.883L50.5064 112.451Z" fill="black"/>
<path d="M49.5212 110.306L49.2465 110.525L48.917 113.496C48.917 113.496 49.1002 114.815 49.0633 115.018C49.0265 115.22 49.8149 117.034 49.8149 117.034C49.8149 117.034 52.415 121.671 53.4771 121.91L57.0667 119.343L56.114 118.134C56.114 118.134 55.7845 118.005 55.7019 118.134C55.7019 118.134 53.935 115.09 53.7518 114.87C53.5687 114.65 53.6055 114.21 53.6055 114.21C53.6055 114.21 53.3308 113.917 53.4224 113.642C53.5139 113.367 52.8908 112.414 52.8908 112.414L53.4582 111.883L49.5212 110.306Z" fill="white"/>
<path opacity="0.1" d="M66.5699 121.943C66.769 122.185 66.6436 123.273 66.6436 123.273L66.0941 124.183C66.0941 124.183 66.1269 124.771 66.1289 125.564L65.2052 125.853C65.1217 125.879 65.0332 125.884 64.947 125.869C64.8609 125.854 64.7796 125.819 64.7099 125.766C64.6403 125.713 64.5843 125.644 64.5466 125.565C64.509 125.486 64.4907 125.399 64.4934 125.311L64.6527 120.168L66.8078 120.994C66.6247 121.121 66.8257 121.434 66.8257 121.434C66.8257 121.434 66.3688 121.701 66.5699 121.943Z" fill="black"/>
<path d="M66.6803 121.832C66.8794 122.075 66.7539 123.163 66.7539 123.163L66.2044 124.073C66.2044 124.073 66.2373 124.66 66.2403 125.454L65.2996 125.748C65.2178 125.773 65.1312 125.779 65.0469 125.764C64.9625 125.749 64.883 125.714 64.8148 125.662C64.7467 125.61 64.6919 125.543 64.655 125.466C64.6181 125.388 64.6002 125.303 64.6028 125.217L64.763 120.059L66.9192 120.884C66.735 121.011 66.9361 121.323 66.9361 121.323C66.9361 121.323 66.4812 121.591 66.6803 121.832Z" fill="white"/>
<path d="M67.394 119.381C67.394 119.381 67.2477 120.317 66.8814 120.372C66.515 120.426 66.3508 121.885 65.9855 121.833C65.6201 121.782 65.862 120.477 65.875 120.224C65.8879 119.971 65.4768 118.923 65.7844 118.684C66.092 118.446 67.0655 118.684 67.0655 118.684L67.394 119.381Z" fill="#CF6F80"/>
<path opacity="0.1" d="M68.1738 112.175L68.8646 110.78C68.8646 110.78 69.1394 111.844 69.1394 112.412C69.1394 112.98 69.5236 113.035 69.5236 113.035C69.5236 113.035 69.9447 113.534 69.7227 113.896C69.5007 114.259 69.4111 115.162 69.4111 115.162C69.4111 115.162 69.4838 116.885 69.1543 117.123C68.8248 117.361 68.7561 117.93 68.7561 117.93C68.7561 117.93 68.1509 119.011 68.1698 119.268C68.1887 119.526 67.3277 121.266 67.3277 121.266C67.3277 121.266 67.7487 119.103 65.295 118.168C65.295 118.168 65.2761 117.434 65.4592 117.233C65.6424 117.031 65.9281 116.94 65.7489 115.922C65.5697 114.905 65.6971 113.689 65.6971 113.445C65.6971 113.201 66.2466 111.678 66.2466 111.678L68.1738 112.175Z" fill="black"/>
<path d="M68.4723 110.581L69.0755 110.78C69.0755 110.78 69.3513 111.844 69.3513 112.412C69.3513 112.98 69.7355 113.035 69.7355 113.035C69.7355 113.035 70.1566 113.534 69.9346 113.896C69.7126 114.259 69.624 115.162 69.624 115.162C69.624 115.162 69.6967 116.885 69.3672 117.123C69.0377 117.361 68.9641 117.93 68.9641 117.93C68.9641 117.93 68.3598 119.011 68.3787 119.269C68.3976 119.526 67.5356 121.267 67.5356 121.267C67.5356 121.267 67.9577 119.103 65.5029 118.168C65.5029 118.168 65.485 117.434 65.6682 117.233C65.8513 117.031 66.137 116.94 65.9578 115.922C65.7787 114.905 65.9061 113.689 65.9061 113.445C65.9061 113.201 66.4556 111.678 66.4556 111.678L68.4723 110.581Z" fill="white"/>
<path opacity="0.1" d="M55.1484 146.741C55.1484 146.741 56.11 146.136 56.7411 146.576C57.3722 147.015 55.1484 146.741 55.1484 146.741Z" fill="black"/>
<path opacity="0.1" d="M62.6201 144.871C62.6201 144.871 63.4712 144.761 64.1859 145.531C64.9007 146.302 62.6201 144.871 62.6201 144.871Z" fill="black"/>
<g opacity="0.1">
<path opacity="0.1" d="M63.8651 96.6789C63.7427 96.7845 63.5854 96.8603 63.5038 97.0008C63.4341 97.1214 63.4321 97.2698 63.3764 97.3994C63.3206 97.5289 63.1584 97.6346 63.0459 97.5529C63.02 96.656 62.578 95.814 62.0355 95.0965C61.8838 94.88 61.6995 94.6883 61.489 94.5285C61.276 94.3681 61.0108 94.2931 60.7454 94.3182C60.4468 94.3591 60.184 94.5624 59.8824 94.5873C59.4842 94.6212 59.1268 94.3451 58.7316 94.3312C58.571 94.3328 58.4126 94.3687 58.2671 94.4366C58.1215 94.5045 57.9921 94.6027 57.8875 94.7248C57.6797 94.9701 57.5254 95.2563 57.4346 95.5648C57.2782 96.0331 57.1929 96.5222 57.1817 97.0157C57.1758 97.2938 57.1499 97.6405 56.8931 97.7442C56.899 97.8178 56.899 97.8918 56.8931 97.9654C57.1519 97.8657 57.1778 97.515 57.1837 97.236C57.1948 96.7424 57.2801 96.2533 57.4366 95.7851C57.5274 95.4762 57.6817 95.1898 57.8895 94.944C57.9943 94.8223 58.1237 94.7243 58.2693 94.6566C58.4149 94.5889 58.5731 94.5531 58.7336 94.5514C59.1318 94.5653 59.4902 94.8404 59.8844 94.8075C60.183 94.7826 60.4478 94.5783 60.7474 94.5384C61.0128 94.5134 61.2779 94.5884 61.491 94.7487C61.7015 94.9086 61.8858 95.1002 62.0375 95.3167C62.58 96.0332 63.022 96.8732 63.0479 97.7721C63.1604 97.8548 63.3226 97.7472 63.3784 97.6196C63.4341 97.4921 63.4361 97.3426 63.5058 97.221C63.5874 97.0805 63.7447 97.0058 63.8671 96.9001C64.1777 96.6321 64.2553 96.1807 64.2434 95.7711C64.2434 95.7582 64.2434 95.7452 64.2434 95.7332C64.2245 96.088 64.1299 96.4497 63.8651 96.6789Z" fill="black"/>
<path opacity="0.1" d="M56.517 96.6082C56.288 96.3561 55.9754 96.1877 55.7654 95.9206C55.5885 95.6842 55.4875 95.3996 55.4757 95.1045C55.4444 95.4733 55.5473 95.841 55.7654 96.1399C55.9754 96.4079 56.288 96.5763 56.517 96.8284C56.7368 97.075 56.8688 97.3876 56.8922 97.7173C56.9075 97.5167 56.8821 97.315 56.8176 97.1244C56.7531 96.9339 56.6509 96.7583 56.517 96.6082V96.6082Z" fill="black"/>
<path opacity="0.1" d="M64.4378 93.5997C64.379 93.8438 64.2745 94.076 64.2267 94.3221C64.1984 94.4866 64.1881 94.6537 64.1959 94.8204C64.1992 94.7254 64.2095 94.6308 64.2267 94.5374C64.2745 94.2902 64.379 94.059 64.4378 93.8149C64.472 93.6802 64.4831 93.5407 64.4706 93.4023C64.4644 93.4688 64.4534 93.5348 64.4378 93.5997V93.5997Z" fill="black"/>
</g>
<path opacity="0.1" d="M37.2123 150.793C42.5692 150.793 46.9118 150.095 46.9118 149.233C46.9118 148.372 42.5692 147.674 37.2123 147.674C31.8553 147.674 27.5127 148.372 27.5127 149.233C27.5127 150.095 31.8553 150.793 37.2123 150.793Z" fill="#6C63FF"/>
<path d="M37.525 119.358H36.9009V133.426H37.525V119.358Z" fill="#535461"/>
<path d="M41.4471 133.383L41.4083 134.017L41.3526 134.913L41.3297 135.286L41.2749 136.183L41.251 136.556L41.1953 137.453L40.5662 147.624C40.5388 148.061 40.3459 148.472 40.0267 148.773C39.7076 149.073 39.2861 149.24 38.848 149.24H35.577C35.1391 149.24 34.7177 149.073 34.3987 148.772C34.0797 148.472 33.887 148.061 33.8599 147.624L33.2338 137.446L33.178 136.549L33.1551 136.176L33.0994 135.279L33.0765 134.907L33.0207 134.01L32.9809 133.376C32.974 133.254 32.9921 133.132 33.034 133.017C33.0759 132.902 33.1408 132.797 33.2247 132.709C33.3086 132.62 33.4097 132.549 33.5218 132.501C33.634 132.453 33.7548 132.428 33.8768 132.428H40.5672C40.6888 132.429 40.8088 132.455 40.92 132.505C41.0312 132.554 41.1311 132.625 41.2135 132.715C41.296 132.804 41.3593 132.91 41.3994 133.025C41.4396 133.14 41.4558 133.261 41.4471 133.383V133.383Z" fill="#6E260E"/>
<path d="M41.4082 134.017L41.3524 134.91H33.0723L33.0166 134.017H41.4082Z" fill="#DB8A5D"/>
<path d="M41.3295 135.283L41.2747 136.178H33.151L33.0952 135.283H41.3295Z" fill="#DB8A5D"/>
<path d="M41.2508 136.552L41.1961 137.446H33.2296L33.1738 136.552H41.2508Z" fill="#DB8A5D"/>
<path d="M32.0646 124.631C35.6989 127.264 37.216 131.381 37.216 131.381C37.216 131.381 32.836 131.231 29.2007 128.598C25.5653 125.965 24.0513 121.849 24.0513 121.849C24.0513 121.849 28.4292 121.998 32.0646 124.631Z" fill="#73E63D"/>
<path d="M24.0479 121.849C24.0479 121.849 28.595 124.375 30.0533 126.466C31.5117 128.558 37.2155 131.381 37.2155 131.381" stroke="#3DD63A" stroke-width="2" stroke-miterlimit="10"/>
<path d="M34.4104 119.327C36.3883 120.759 37.2155 123 37.2155 123C37.2155 123 34.8314 122.919 32.8525 121.487C30.8736 120.055 30.0483 117.812 30.0483 117.812C30.0483 117.812 32.4314 117.894 34.4104 119.327Z" fill="#73E53D"/>
<path d="M30.0483 117.812C30.0483 117.812 32.523 119.188 33.3164 120.326C34.1097 121.464 37.2155 123 37.2155 123" stroke="#3DD63A" stroke-width="2" stroke-miterlimit="10"/>
<path d="M40.0874 122.887C37.8148 125.387 37.334 128.654 37.334 128.654C37.334 128.654 40.5383 127.867 42.8089 125.366C45.0795 122.865 45.5623 119.598 45.5623 119.598C45.5623 119.598 42.36 120.386 40.0874 122.887Z" fill="#73E53D"/>
<path d="M45.5643 119.6C45.5643 119.6 42.6038 122.163 41.8513 123.928C41.0987 125.694 37.334 128.655 37.334 128.655" stroke="#3DD63A" stroke-width="2" stroke-miterlimit="10"/>
<path d="M123.511 122.007C123.511 122.007 121.868 113.822 122.497 112.803C122.497 112.803 122.52 111.857 122.482 110.65C122.482 110.604 122.482 110.558 122.482 110.511C122.592 110.585 122.708 110.652 122.827 110.711C123.407 111.009 124.072 111.095 124.709 110.954L124.211 110.399C124.091 110.266 123.967 110.123 123.941 109.947C123.915 109.772 123.987 109.616 124.049 109.459C124.521 108.263 124.546 106.76 123.635 105.847C122.866 105.08 122.679 104.089 121.844 103.388C121.234 102.875 120.898 102.123 120.581 101.395C120.314 100.781 120.044 100.161 119.891 99.5091C119.771 98.9999 119.723 98.4727 119.559 97.9755C119.395 97.4782 119.087 96.9949 118.607 96.7727C118.435 96.694 118.245 96.6491 118.089 96.5445C117.884 96.406 117.76 96.1808 117.612 95.9835C116.859 94.987 114.335 95.5739 113.141 95.9785C112.816 96.0804 112.515 96.2472 112.257 96.4688L112.268 96.4508C112.277 96.4359 112.287 96.4209 112.297 96.406C112.167 96.5118 112.054 96.638 111.963 96.7797C111.789 97.0557 111.716 97.3776 111.571 97.6765C111.396 98.0303 110.421 99.0178 110.84 99.4154C110.869 99.4421 110.903 99.4637 110.94 99.4792C111.097 99.5447 111.27 99.5621 111.437 99.529L111.419 99.5719C111.276 99.9227 111.203 100.298 111.203 100.677C111.203 102.314 112.552 103.642 114.218 103.642C114.531 103.642 114.842 103.594 115.14 103.499C115.147 103.537 115.153 103.575 115.16 103.613C115.16 103.628 115.165 103.643 115.167 103.658L115.115 103.731C115.112 103.727 115.109 103.722 115.106 103.718L113.543 105.905C113.304 106.073 111.928 107.07 111.85 107.817C111.769 108.635 111.687 109.593 111.687 109.593L111.676 109.798C111.608 109.855 111.528 109.897 111.442 109.92C111.356 109.943 111.266 109.947 111.179 109.932C110.691 109.853 110.691 111.726 110.691 111.726C110.691 111.726 110.366 112.025 110.143 111.766C109.92 111.507 109.331 112.385 109.331 112.385L105.638 112.544L105.553 112.549L105.354 111.932C105.333 111.867 105.287 111.813 105.226 111.782C105.165 111.751 105.094 111.745 105.029 111.766C105.013 111.771 104.998 111.777 104.984 111.785L104.97 111.793L104.944 111.811L104.931 111.823C104.924 111.829 104.917 111.836 104.911 111.844L104.899 111.858L104.893 111.864C104.87 111.895 104.855 111.932 104.849 111.971C104.843 112.01 104.846 112.049 104.858 112.087L105.029 112.616C104.316 112.76 103.587 113.164 104.182 114.278L101.169 113.721L102.144 114.54L107.175 115.58C107.108 115.699 107.152 115.873 107.36 116.117C108.256 117.17 109.888 117.456 110.545 117.53C110.719 117.918 110.936 118.286 111.192 118.626L111.135 119.675C111.135 119.675 109.471 127.673 109.167 128.079C109.321 127.904 109.461 127.719 109.588 127.524C109.105 129.167 108.43 131.416 108.253 131.753C107.968 132.291 107.704 134.468 108.029 134.608C108.129 134.651 108.413 134.63 108.819 134.599V134.779L108.801 141.614C108.801 141.614 108.883 145.806 108.659 146.206C108.435 146.606 108.375 147.444 108.375 147.444C108.375 147.444 107.48 149.097 106.77 149.762C106.765 149.767 106.76 149.771 106.754 149.775L106.732 149.62C106.732 149.62 105.879 150.698 103.992 150.637C103.992 150.637 102.856 151.377 104.54 151.417C106.224 151.457 108.375 151.357 108.375 151.357C108.375 151.357 109.878 149.065 111.136 149.364V151.101H111.521V149.336C111.7 149.218 111.853 149.065 111.97 148.887C112.088 148.708 112.169 148.507 112.207 148.297C112.24 148.08 112.216 147.857 112.137 147.653C112.058 147.448 111.927 147.267 111.757 147.128C111.681 147.059 111.619 146.974 111.577 146.88C111.535 146.787 111.512 146.685 111.511 146.582L111.497 146.594C111.497 146.559 111.488 146.523 111.484 146.486C111.374 145.589 111.235 143.739 111.724 142.37C112.394 140.492 112.597 137.877 112.109 136.321C111.952 135.823 111.823 135.317 111.722 134.805C111.71 134.74 111.699 134.679 111.689 134.621C112.023 134.666 112.353 134.732 112.678 134.82C113.808 135.132 116.279 135.19 118.39 135.173C118.395 135.231 118.4 135.291 118.407 135.352C118.445 135.775 118.524 136.193 118.642 136.6C118.907 137.397 119.029 140.912 119.029 140.912C119.029 140.912 119.37 143.801 119.184 144.977C119.084 145.631 118.985 146.288 118.928 146.947V146.96C118.928 146.96 118.369 148.555 117.96 149.421C117.95 149.443 117.939 149.465 117.929 149.486C117.82 149.495 117.712 149.519 117.609 149.556C117.609 149.556 117.061 150.652 116.514 150.834C115.968 151.015 116.149 151.612 117.386 151.393C118.623 151.174 120.492 150.994 120.492 150.994L120.573 149.876L120.953 149.4L120.853 150.515L121.258 150.435L121.205 149.079L121.827 148.3C121.827 148.3 122.578 147.63 121.461 146.313V146.342C121.45 146.323 121.439 146.303 121.426 146.284V146.278C121.24 145.991 121.093 145.456 121.363 144.506C121.851 142.79 122.134 141.233 122.134 141.233C122.134 141.233 123.223 137.06 121.914 135.086H121.972C121.838 134.808 121.743 134.513 121.69 134.209C121.684 134.173 121.678 134.136 121.672 134.099C122.641 134.043 123.592 133.867 124.367 133.489C124.364 133.485 123.897 123.584 123.511 122.007ZM111.214 115.101V115.121L111.015 115.131L111.214 115.101ZM110.532 115.196C110.499 115.203 110.468 115.218 110.442 115.239C110.356 115.36 110.303 115.501 110.286 115.648L109.975 115.579C109.975 115.579 109.757 115.532 109.444 115.479L109.295 115.329C109.703 115.296 110.127 115.246 110.532 115.196V115.196Z" fill="url(#paint1_linear_305_811)"/>
<path d="M120.807 149.093L120.689 150.505L121.086 150.425L121.026 148.894L120.807 149.093Z" fill="#1D2366"/>
<path d="M111.746 142.388C111.267 143.754 111.403 145.596 111.51 146.491C111.55 146.822 111.587 147.023 111.587 147.023C111.587 147.023 110.871 148.655 110.811 148.717C110.751 148.779 108.705 150.03 108.705 150.03L107.274 150.866C107.274 150.866 105.823 150.229 106.519 150.01C106.661 149.952 106.789 149.865 106.894 149.753C107.591 149.091 108.466 147.444 108.466 147.444C108.466 147.444 108.526 146.608 108.745 146.21C108.964 145.812 108.884 141.634 108.884 141.634L108.901 134.823V133.935L111.623 133.955C111.641 134.256 111.68 134.556 111.741 134.852C111.839 135.362 111.965 135.867 112.12 136.363C112.6 137.916 112.401 140.518 111.746 142.388Z" fill="#FFB0B1"/>
<path opacity="0.1" d="M111.587 147.023C111.587 147.023 110.871 148.655 110.811 148.717C110.751 148.779 108.705 150.029 108.705 150.029L107.274 150.865C107.274 150.865 105.823 150.229 106.519 150.009C106.661 149.952 106.789 149.865 106.894 149.753L106.956 150.189L107.433 150.169L111.514 146.493C111.55 146.822 111.587 147.023 111.587 147.023Z" fill="black"/>
<path d="M111.537 146.585L107.433 150.286L106.956 150.306L106.857 149.609C106.857 149.609 106.022 150.683 104.169 150.623C104.169 150.623 103.056 151.36 104.705 151.4C106.355 151.439 108.461 151.34 108.461 151.34C108.461 151.34 109.932 149.048 111.164 149.347V151.078H111.542V149.331C111.718 149.212 111.868 149.059 111.983 148.881C112.099 148.703 112.177 148.504 112.213 148.294C112.246 148.079 112.223 147.859 112.146 147.655C112.069 147.451 111.941 147.271 111.774 147.131C111.7 147.061 111.64 146.976 111.599 146.882C111.559 146.789 111.537 146.688 111.537 146.585V146.585Z" fill="#1D2366"/>
<path d="M121.186 144.517C120.921 145.464 121.065 145.997 121.247 146.283V146.289C121.479 146.642 121.64 147.037 121.722 147.452L121.738 147.541L119.871 150.267L118.857 150.665C118.857 150.665 117.228 150.108 117.526 149.949C117.6 149.91 117.717 149.703 117.85 149.417C118.248 148.555 118.798 146.964 118.798 146.964V146.951C118.855 146.295 118.947 145.64 119.049 144.988C119.231 143.815 118.896 140.936 118.896 140.936C118.896 140.936 118.777 137.436 118.518 136.64C118.401 136.235 118.324 135.82 118.286 135.4C118.232 134.902 118.22 134.491 118.22 134.491C118.22 134.491 119.293 132.996 121.26 134.611C121.418 134.739 121.556 134.89 121.672 135.057C123.03 136.992 121.936 141.255 121.936 141.255C121.936 141.255 121.663 142.806 121.186 144.517Z" fill="#FFB0B1"/>
<path opacity="0.1" d="M121.741 147.541L119.874 150.267L118.86 150.665C118.86 150.665 117.231 150.108 117.529 149.949C117.603 149.91 117.72 149.703 117.853 149.417C118.543 149.411 118.9 150.068 118.9 150.068L119.774 149.929C119.774 149.929 120.927 147.661 121.186 147.522C121.445 147.384 121.226 146.487 121.226 146.487V146.259C121.233 146.267 121.239 146.276 121.246 146.284V146.29C121.479 146.643 121.64 147.038 121.722 147.453L121.741 147.541Z" fill="black"/>
<path d="M118.96 150.127C118.96 150.127 118.462 149.212 117.509 149.55C117.509 149.55 116.972 150.646 116.436 150.824C115.899 151.001 116.078 151.599 117.291 151.381C118.503 151.162 120.331 150.982 120.331 150.982L120.41 149.867L121.643 148.295C121.643 148.295 122.377 147.629 121.284 146.316V146.545C121.284 146.545 121.503 147.441 121.245 147.58C120.986 147.718 119.837 149.988 119.837 149.988L118.96 150.127Z" fill="#1D2366"/>
<path opacity="0.1" d="M111.626 133.953C111.644 134.254 111.683 134.554 111.744 134.85C110.623 134.685 109.583 134.767 108.901 134.821V133.933L111.626 133.953Z" fill="black"/>
<path opacity="0.1" d="M121.782 135.305C121.782 135.305 120.189 135.383 118.29 135.399C118.236 134.901 118.224 134.49 118.224 134.49C118.224 134.49 119.297 132.995 121.264 134.61C121.421 134.738 121.56 134.889 121.675 135.056C121.706 135.141 121.742 135.224 121.782 135.305V135.305Z" fill="black"/>
<path d="M121.782 135.126C121.782 135.126 114.806 135.463 112.68 134.866C110.554 134.27 108.446 134.787 108.129 134.648C107.811 134.51 108.069 132.34 108.348 131.803C108.626 131.266 110.155 125.834 110.155 125.834L111.627 118.155L113.177 117.728L113.286 117.697L115.987 116.951L117.966 116.404C117.966 116.404 121.901 131.783 121.563 132.917C121.441 133.352 121.421 133.808 121.505 134.252C121.557 134.554 121.65 134.848 121.782 135.126V135.126Z" fill="#1D2366"/>
<path d="M106.498 112.904C106.498 112.904 105.104 114.399 106.16 115.232C107.215 116.065 107.909 115.311 107.909 115.311L106.498 112.904Z" fill="#C7DAF5"/>
<path opacity="0.1" d="M106.498 112.904C106.498 112.904 105.104 114.399 106.16 115.232C107.215 116.065 107.909 115.311 107.909 115.311L106.498 112.904Z" fill="black"/>
<path d="M117.757 103.076C117.757 103.076 117.594 103.232 117.348 103.461C116.998 103.789 116.479 104.268 116.019 104.67C115.382 105.225 114.857 105.632 115.045 105.284C115.233 104.937 115.197 104.331 115.103 103.764C115.096 103.726 115.09 103.688 115.083 103.651C115.006 103.235 114.903 102.823 114.776 102.419C114.776 102.419 115.805 101.088 116.375 100.563C116.587 100.364 116.735 100.282 116.744 100.421C116.754 100.607 116.893 101.018 117.066 101.455C117.071 101.469 117.076 101.482 117.082 101.496C117.198 101.795 117.328 102.102 117.443 102.367C117.618 102.773 117.757 103.076 117.757 103.076Z" fill="#FFB0B1"/>
<path opacity="0.1" d="M117.082 101.496C116.986 102.017 116.751 102.502 116.403 102.901C116.055 103.3 115.606 103.598 115.103 103.764C115.024 103.309 114.915 102.86 114.776 102.42C114.776 102.42 116.714 99.9136 116.744 100.421C116.751 100.613 116.902 101.04 117.082 101.496Z" fill="black"/>
<path opacity="0.1" d="M114.911 104.434L115.161 104.08C115.161 104.08 115.328 105.095 115.939 104.647C116.55 104.2 116.58 108.014 116.58 108.014L115.924 117.833L111.184 117.549L111.318 112.804L111.855 110.413L113.181 106.936L113.971 105.787L114.911 104.434Z" fill="black"/>
<path d="M116.58 108.075L115.983 116.953L115.92 117.893L113.277 117.735L113.177 117.729L111.187 117.609L111.321 112.864L111.857 110.472L113.184 106.996L113.974 105.847L114.913 104.489L115.164 104.136C115.164 104.136 115.331 105.15 115.942 104.703L115.955 104.694C116.552 104.315 116.58 108.075 116.58 108.075Z" fill="#1D2366"/>
<path d="M111.924 109.641C111.924 109.641 111.686 110.139 111.208 110.059C110.731 109.978 110.732 111.852 110.732 111.852C110.732 111.852 110.414 112.151 110.195 111.892C109.976 111.633 109.399 112.509 109.399 112.509L105.781 112.668C105.781 112.668 107.391 113.405 107.075 115.633C107.075 115.633 112.54 115.294 112.719 114.777C112.899 114.26 111.924 109.641 111.924 109.641Z" fill="white"/>
<path opacity="0.03" d="M111.924 109.641C111.924 109.641 111.686 110.139 111.208 110.059C110.731 109.978 110.732 111.852 110.732 111.852C110.732 111.852 110.414 112.151 110.195 111.892C109.976 111.633 109.399 112.509 109.399 112.509L105.781 112.668C105.781 112.668 107.391 113.405 107.075 115.633C107.075 115.633 112.54 115.294 112.719 114.777C112.899 114.26 111.924 109.641 111.924 109.641Z" fill="black"/>
<path d="M101.411 113.839L102.365 114.654L110.215 116.306L109.241 115.311L101.411 113.839Z" fill="white"/>
<path d="M114.925 104.748C114.795 104.947 114.421 105.967 114.11 106.858C113.85 107.601 113.633 108.253 113.633 108.253C113.633 108.253 113.126 111.556 112.868 112.153C112.609 112.75 112.749 115.077 112.749 115.077L111.785 120.826C111.785 120.826 111.348 123.791 110.673 125.562C110.007 127.304 109.265 128.122 109.242 128.147C109.541 127.743 111.168 119.777 111.168 119.777L111.706 109.73C111.706 109.73 111.785 108.775 111.864 107.959C111.944 107.143 113.556 106.029 113.556 106.029L115.111 103.816C115.268 104.025 115.163 104.39 114.925 104.748Z" fill="white"/>
<path d="M110.871 117.659C110.871 117.659 108.581 117.56 107.472 116.226C106.363 114.893 110.036 115.694 110.036 115.694L110.99 115.913L110.871 117.659Z" fill="#FFB0B1"/>
<path opacity="0.1" d="M121.563 132.919C121.44 133.353 121.421 133.81 121.505 134.253C119.008 134.43 116.336 133.755 116.336 133.755C115.838 134.213 114.527 134.889 114.527 134.889L113.812 126.02C113.355 124.824 113.176 118.559 113.176 118.559C113.176 118.559 113.217 118.231 113.276 117.74C113.276 117.728 113.276 117.715 113.281 117.703C113.459 116.331 113.812 113.755 113.986 113.407C114.224 112.929 113.251 111.656 113.251 111.656L113.694 107.875L113.748 107.418C114.681 107.001 115.397 105.667 115.397 105.667L115.947 104.704C116.544 104.32 116.575 108.08 116.575 108.08L115.977 116.958L117.956 116.411C117.956 116.411 121.9 131.785 121.563 132.919Z" fill="black"/>
<path d="M124.126 133.532C121.404 134.885 116.455 133.631 116.455 133.631C115.958 134.09 114.647 134.765 114.647 134.765L113.931 125.896C113.475 124.701 113.296 118.436 113.296 118.436C113.296 118.436 113.871 113.761 114.11 113.284C114.18 113.144 114.146 112.937 114.063 112.714C113.657 111.651 113.508 110.508 113.627 109.376L113.819 107.751L113.871 107.296C114.806 106.877 115.522 105.544 115.522 105.544L116.019 104.671L116.935 103.063L117.369 102.301L117.443 102.368L118.005 102.878C118.005 102.878 118.244 103.078 118.603 103.376C119.382 104.034 120.729 105.192 121.424 105.901C122.035 106.524 122.228 108.951 122.284 110.777C122.321 111.98 122.299 112.923 122.299 112.923C121.682 113.938 123.294 122.091 123.294 122.091C123.669 123.666 124.126 133.532 124.126 133.532Z" fill="white"/>
<path opacity="0.03" d="M118.9 105.524C118.9 105.524 117.032 109.084 117.249 110.438C117.466 111.791 118.083 113.322 117.785 113.68C117.683 113.816 117.551 113.926 117.399 114.002C117.247 114.078 117.08 114.117 116.91 114.118C116.612 114.138 115.815 114.695 115.815 114.754C115.815 114.814 115.08 114.814 114.422 115.093C113.764 115.372 112.792 115.531 112.792 115.531C112.792 115.531 110.901 115.471 110.725 115.65C110.549 115.83 110.367 116.903 110.745 117.759C111.122 118.615 111.541 119.254 111.858 119.37C112.174 119.487 114.183 118.813 115.812 118.654C117.442 118.494 119.211 117.202 119.211 117.202C119.211 117.202 121.159 116.504 121.5 115.331C121.842 114.159 121.083 107.712 121.083 107.712C121.083 107.712 120.51 104.708 118.9 105.524Z" fill="black"/>
<path opacity="0.03" d="M118.661 105.225C118.661 105.225 116.793 108.786 117.012 110.138C117.231 111.491 117.846 113.023 117.547 113.382C117.445 113.518 117.313 113.628 117.162 113.704C117.01 113.78 116.843 113.819 116.673 113.82C116.375 113.839 115.578 114.397 115.578 114.456C115.578 114.516 114.843 114.516 114.185 114.794C113.527 115.072 112.555 115.232 112.555 115.232C112.555 115.232 110.664 115.172 110.489 115.351C110.313 115.531 110.13 116.605 110.508 117.46C110.887 118.315 111.305 118.955 111.621 119.071C111.938 119.188 113.947 118.514 115.576 118.356C117.206 118.197 118.975 116.903 118.975 116.903C118.975 116.903 120.922 116.205 121.259 115.033C121.597 113.861 120.842 107.413 120.842 107.413C120.842 107.413 120.271 104.41 118.661 105.225Z" fill="black"/>
<path d="M118.842 105.344C118.842 105.344 116.973 108.906 117.192 110.258C117.411 111.61 118.026 113.143 117.729 113.501C117.627 113.637 117.495 113.747 117.343 113.823C117.191 113.899 117.024 113.939 116.854 113.939C116.555 113.959 115.759 114.516 115.759 114.575C115.759 114.634 115.024 114.635 114.365 114.914C113.706 115.193 112.736 115.351 112.736 115.351C112.736 115.351 110.844 115.291 110.668 115.471C110.492 115.65 110.311 116.724 110.688 117.579C111.065 118.434 111.484 119.074 111.801 119.191C112.117 119.307 114.126 118.634 115.756 118.474C117.385 118.315 119.154 117.022 119.154 117.022C119.154 117.022 121.102 116.325 121.444 115.152C121.785 113.979 121.032 107.533 121.032 107.533C121.032 107.533 120.45 104.533 118.842 105.344Z" fill="white"/>
<path opacity="0.1" d="M118.801 114.897C118.801 114.897 117.307 114.598 117.827 115.096C118.347 115.595 118.344 116.031 118.98 116.011C119.616 115.991 118.801 114.897 118.801 114.897Z" fill="black"/>
<path opacity="0.1" d="M121.324 125.617C121.324 125.617 120.649 126.075 121.94 127.129C123.232 128.183 121.324 125.617 121.324 125.617Z" fill="black"/>
<path opacity="0.1" d="M120.036 129.377C120.036 129.437 119.797 131.569 120.691 132.102C121.585 132.636 120.036 129.377 120.036 129.377Z" fill="black"/>
<path d="M105.843 112.664C105.122 112.688 103.566 112.909 104.373 114.416C105.087 115.751 106.286 114.859 106.961 114.182C106.796 113.551 106.396 113.008 105.843 112.664V112.664Z" fill="#FFB0B1"/>
<path d="M106.97 114.171L107 114.14L106.97 114.171Z" fill="#FFB0B1"/>
<path opacity="0.1" d="M118.602 103.437C117.838 103.96 117.197 104.402 117.071 104.493C116.729 104.747 116.076 106.239 115.655 107.001C115.319 107.613 114.229 107.771 113.818 107.81L113.871 107.354C114.806 106.936 115.522 105.602 115.522 105.602L117.369 102.36L118.005 102.939C118.005 102.939 118.244 103.138 118.602 103.437Z" fill="black"/>
<path d="M118.602 103.378C117.838 103.901 117.197 104.342 117.071 104.435C116.729 104.688 116.076 106.18 115.655 106.941C115.319 107.554 114.229 107.711 113.818 107.75L113.871 107.295C114.806 106.876 115.522 105.543 115.522 105.543L117.369 102.3L118.005 102.877C118.005 102.877 118.244 103.075 118.602 103.378Z" fill="#DCE7FF"/>
<path d="M117.132 100.838C117.132 101.437 116.951 102.021 116.612 102.514C116.212 103.096 115.616 103.516 114.933 103.696C114.251 103.877 113.526 103.807 112.89 103.498C112.255 103.189 111.751 102.663 111.47 102.014C111.189 101.366 111.15 100.638 111.359 99.9624C111.569 99.2872 112.013 98.7095 112.612 98.3342C113.21 97.9588 113.923 97.8107 114.622 97.9167C115.32 98.0227 115.957 98.3757 116.418 98.9118C116.878 99.4478 117.131 100.131 117.132 100.838V100.838Z" fill="#FFB0B1"/>
<path opacity="0.1" d="M122.284 110.779C121.879 110.53 121.55 110.176 121.331 109.754C121.165 109.425 121.054 109.046 120.771 108.812C120.515 108.603 120.173 108.552 119.855 108.459C118.808 108.149 117.93 107.192 117.897 106.1C117.881 105.586 118.041 105.073 117.969 104.563C117.927 104.275 117.813 104.002 117.636 103.771C117.548 103.661 117.452 103.557 117.348 103.461C117.209 103.33 117.063 103.202 116.935 103.063C116.855 102.976 116.785 102.881 116.726 102.779C116.679 102.695 116.64 102.606 116.612 102.515C116.413 101.905 116.594 101.181 116.375 100.564L116.363 100.531C116.28 100.311 116.112 100.092 115.878 100.075C115.644 100.058 115.444 100.252 115.221 100.339C114.754 100.521 114.251 100.212 113.861 99.8967C113.472 99.5818 113.033 99.2221 112.538 99.2919C112.211 99.3387 111.952 99.5619 111.65 99.6775C111.582 99.7039 111.512 99.7242 111.44 99.7383C111.696 99.101 112.165 98.5727 112.767 98.244C113.369 97.9152 114.067 97.8067 114.74 97.937C115.413 98.0673 116.02 98.4283 116.457 98.9579C116.893 99.4876 117.132 100.153 117.131 100.839C117.132 101.047 117.11 101.254 117.067 101.456C117.072 101.47 117.077 101.483 117.083 101.497C117.198 101.796 117.328 102.103 117.443 102.368L118.005 102.878C118.005 102.878 118.244 103.078 118.603 103.377C119.382 104.034 120.729 105.192 121.424 105.901C122.035 106.526 122.226 108.952 122.284 110.779Z" fill="black"/>
<path d="M111.615 97.8566C111.758 97.5666 111.828 97.2417 111.999 96.9667C112.248 96.5681 112.684 96.313 113.132 96.1585C114.302 95.755 116.774 95.169 117.512 96.1585C117.658 96.3578 117.778 96.5791 117.979 96.7166C118.133 96.8212 118.318 96.8661 118.486 96.9448C118.957 97.166 119.257 97.6483 119.418 98.1406C119.578 98.6329 119.626 99.161 119.743 99.6682C119.893 100.319 120.157 100.936 120.42 101.549C120.73 102.272 121.058 103.022 121.655 103.534C122.471 104.231 122.651 105.219 123.407 105.984C124.303 106.893 124.274 108.393 123.812 109.583C123.752 109.74 123.683 109.903 123.707 110.07C123.731 110.236 123.854 110.388 123.971 110.52L124.461 111.073C123.302 111.353 121.991 110.747 121.451 109.684C121.285 109.355 121.175 108.977 120.89 108.742C120.635 108.533 120.293 108.483 119.975 108.39C118.928 108.079 118.05 107.121 118.017 106.029C118.001 105.516 118.161 105.002 118.089 104.494C118.048 104.204 117.933 103.929 117.755 103.697C117.481 103.339 117.068 103.099 116.845 102.701C116.468 102.034 116.755 101.168 116.483 100.452C116.399 100.233 116.232 100.014 115.998 99.9971C115.764 99.9801 115.564 100.174 115.34 100.261C114.874 100.442 114.371 100.135 113.982 99.8187C113.592 99.5028 113.153 99.1441 112.658 99.2148C112.33 99.2607 112.072 99.4839 111.771 99.6005C111.548 99.6862 111.096 99.7629 110.901 99.5745C110.489 99.1949 111.443 98.2113 111.615 97.8566Z" fill="#591D4B"/>
<path opacity="0.1" d="M121.728 109.355C121.561 109.026 121.451 108.648 121.167 108.414C120.912 108.205 120.569 108.154 120.251 108.061C119.205 107.751 118.327 106.793 118.293 105.701C118.277 105.188 118.437 104.674 118.365 104.165C118.324 103.877 118.209 103.604 118.032 103.373C117.757 103.015 117.344 102.775 117.122 102.377C116.745 101.711 117.032 100.845 116.759 100.129C116.676 99.9103 116.508 99.6911 116.275 99.6731C116.042 99.6552 115.84 99.8515 115.617 99.9382C115.151 100.12 114.646 99.8106 114.258 99.4958C113.87 99.1809 113.429 98.8211 112.934 98.8909C112.607 98.9377 112.348 99.1609 112.047 99.2765C111.824 99.3622 111.371 99.44 111.176 99.2516C110.766 98.853 111.721 97.8715 111.892 97.5187C112.034 97.2277 112.105 96.9039 112.276 96.6288C112.285 96.6139 112.295 96.5989 112.305 96.584C112.177 96.6902 112.067 96.816 111.978 96.9567C111.807 97.2317 111.737 97.5546 111.594 97.8465C111.422 98.1993 110.468 99.1839 110.879 99.5795C111.078 99.7688 111.526 99.6911 111.749 99.6054C112.047 99.4888 112.308 99.2656 112.636 99.2197C113.133 99.149 113.571 99.5087 113.96 99.8236C114.348 100.138 114.856 100.447 115.319 100.266C115.542 100.179 115.737 99.984 115.976 100.002C116.215 100.02 116.375 100.238 116.461 100.457C116.733 101.173 116.446 102.039 116.823 102.705C117.046 103.097 117.46 103.342 117.733 103.702C117.911 103.934 118.026 104.209 118.067 104.499C118.139 105.007 117.979 105.521 117.995 106.034C118.028 107.13 118.906 108.084 119.953 108.394C120.269 108.488 120.613 108.538 120.868 108.747C121.154 108.981 121.266 109.36 121.429 109.689C121.969 110.752 123.28 111.358 124.439 111.078L124.208 110.817C123.203 110.832 122.187 110.26 121.728 109.355Z" fill="black"/>
<path opacity="0.1" d="M114.866 104.807C114.735 105.007 114.362 106.027 114.051 106.918C113.759 106.804 113.494 106.08 113.494 106.08L115.049 103.866C115.208 104.085 115.104 104.449 114.866 104.807Z" fill="black"/>
<path d="M114.925 104.747C114.795 104.947 114.422 105.967 114.11 106.858C113.818 106.745 113.554 106.02 113.554 106.02L115.109 103.807C115.268 104.025 115.163 104.39 114.925 104.747Z" fill="#DCE7FF"/>
<path d="M105.885 114.928L105.023 112.206C105.013 112.175 105.009 112.141 105.012 112.108C105.014 112.074 105.024 112.042 105.039 112.012C105.054 111.982 105.076 111.956 105.101 111.935C105.127 111.913 105.156 111.897 105.188 111.887V111.887C105.252 111.867 105.322 111.873 105.381 111.904C105.441 111.935 105.486 111.988 105.507 112.052L106.369 114.77L106.283 115.339L105.885 114.928Z" fill="#BE8B87"/>
<path opacity="0.1" d="M105.105 111.967C105.169 111.947 105.239 111.953 105.298 111.984C105.358 112.015 105.403 112.068 105.424 112.133L106.286 114.851L106.221 115.278L106.284 115.343L106.37 114.774L105.503 112.056C105.482 111.992 105.437 111.939 105.377 111.908C105.318 111.877 105.248 111.87 105.184 111.89V111.89C105.13 111.908 105.084 111.943 105.052 111.99C105.069 111.981 105.086 111.973 105.105 111.967V111.967Z" fill="white"/>
<path d="M105.885 114.928L106.369 114.774L106.298 115.241L106.283 115.343L106.142 115.196L105.885 114.928Z" fill="#EFC8C4"/>
<path d="M106.142 115.196C106.15 115.185 106.161 115.176 106.172 115.17C106.179 115.165 106.188 115.163 106.196 115.163C106.204 115.163 106.212 115.165 106.219 115.17C106.226 115.178 106.232 115.187 106.236 115.197C106.243 115.208 106.252 115.217 106.262 115.224C106.273 115.231 106.285 115.236 106.298 115.238L106.283 115.337L106.142 115.196Z" fill="#727A9C"/>
<path d="M105.018 113.173C105.018 113.173 106.747 113.163 106.34 113.899C105.932 114.636 105.296 114.724 105.296 114.724L105.018 113.173Z" fill="#FFB0B1"/>
<path d="M94.2639 80.124H94.1892C91.2188 80.124 88.5919 81.6975 87.0808 84.0193C85.5697 81.6975 82.9427 80.124 79.9723 80.124H79.8977C77.6685 80.1453 75.5377 81.0464 73.9685 82.6315C72.3992 84.2166 71.5183 86.3576 71.5171 88.5893C71.5171 91.3606 72.7295 95.2927 75.0937 98.5284C79.5981 104.694 87.0808 110.088 87.0808 110.088C87.0808 110.088 94.5635 104.695 99.0669 98.5284C101.432 95.2927 102.643 91.3606 102.643 88.5893C102.642 86.3578 101.761 84.2169 100.192 82.6318C98.6234 81.0468 96.4929 80.1456 94.2639 80.124V80.124ZM93.1958 99.0027C92.8575 99.0014 92.5275 98.8978 92.2491 98.7053C91.9707 98.5129 91.757 98.2407 91.6359 97.9245H89.86C89.7431 97.9238 89.6293 97.8865 89.5345 97.8179C89.4398 97.7493 89.3688 97.6528 89.3315 97.5418L88.786 95.8966L87.0599 101.934C87.0263 102.051 86.9559 102.153 86.8593 102.226C86.7627 102.298 86.6452 102.338 86.5243 102.338H86.4895C86.3634 102.332 86.2432 102.283 86.1489 102.198C86.0547 102.114 85.9922 102 85.9719 101.876L84.193 91.1652L82.893 97.503C82.8632 97.6234 82.7939 97.7303 82.6963 97.8067C82.5987 97.8831 82.4783 97.9246 82.3544 97.9245H79.8529C79.7779 97.9277 79.7031 97.9156 79.6328 97.8891C79.5626 97.8626 79.4985 97.8221 79.4443 97.7701C79.3901 97.7181 79.347 97.6557 79.3175 97.5865C79.2881 97.5174 79.2729 97.4431 79.2729 97.3679C79.2729 97.2928 79.2881 97.2185 79.3175 97.1493C79.347 97.0802 79.3901 97.0178 79.4443 96.9658C79.4985 96.9138 79.5626 96.8733 79.6328 96.8468C79.7031 96.8203 79.7779 96.8082 79.8529 96.8114H81.9164L83.758 88.2903C83.7882 88.1644 83.8612 88.0528 83.9645 87.9747C84.0678 87.8967 84.195 87.857 84.3243 87.8624C84.4536 87.8678 84.5771 87.918 84.6735 88.0044C84.7699 88.0908 84.8334 88.2081 84.853 88.3362L86.6697 99.2618L88.2166 93.8598C88.2488 93.746 88.3169 93.6457 88.4107 93.5739C88.5045 93.502 88.6191 93.4625 88.7372 93.4612H88.7481C88.8651 93.4612 88.9791 93.4982 89.0739 93.5669C89.1686 93.6356 89.2392 93.7326 89.2757 93.8438L90.2622 96.8144H91.614C91.7101 96.5221 91.885 96.262 92.1195 96.063C92.3539 95.8639 92.6387 95.7335 92.9425 95.6862C93.2462 95.639 93.5571 95.6766 93.8408 95.7951C94.1246 95.9135 94.3701 96.1081 94.5503 96.3575C94.7305 96.6068 94.8384 96.9011 94.8621 97.2079C94.8858 97.5147 94.8243 97.8221 94.6845 98.0962C94.5447 98.3703 94.332 98.6003 94.0698 98.761C93.8076 98.9217 93.5062 99.0067 93.1987 99.0067L93.1958 99.0027Z" fill="#F52D2D"/>
</g>
<path d="M58.5852 41H60.1705V35.8864H63.0341C63.1491 35.8864 63.2578 35.8864 63.3665 35.88L66.1278 41H67.9688L65.0092 35.5923C66.6776 35.0234 67.4574 33.6619 67.4574 31.9233C67.4574 29.6094 66.0767 27.9091 63.0085 27.9091H58.5852V41ZM60.1705 34.4545V29.3153H62.9574C65.0795 29.3153 65.8977 30.3509 65.8977 31.9233C65.8977 33.4957 65.0795 34.4545 62.983 34.4545H60.1705ZM73.9054 41.2045C75.8997 41.2045 77.3571 40.2074 77.8173 38.7244L76.3599 38.3153C75.9764 39.3381 75.0879 39.8494 73.9054 39.8494C72.1348 39.8494 70.9139 38.7053 70.8436 36.6023H77.9707V35.9631C77.9707 32.3068 75.7974 31.054 73.752 31.054C71.0929 31.054 69.3287 33.1506 69.3287 36.1676C69.3287 39.1847 71.0673 41.2045 73.9054 41.2045ZM70.8436 35.2983C70.9458 33.7706 72.0261 32.4091 73.752 32.4091C75.3883 32.4091 76.4366 33.6364 76.4366 35.2983H70.8436ZM84.2285 44.8864C86.5808 44.8864 88.4728 43.8125 88.4728 41.2812V31.1818H87.0154V32.7415H86.862C86.5297 32.2301 85.916 31.054 83.9984 31.054C81.5183 31.054 79.8052 33.0227 79.8052 36.0398C79.8052 39.108 81.595 40.8466 83.9728 40.8466C85.8904 40.8466 86.5041 39.7216 86.8365 39.1847H86.9643V41.179C86.9643 42.8153 85.8137 43.5568 84.2285 43.5568C82.4451 43.5568 81.8187 42.6172 81.416 42.0739L80.2143 42.9176C80.8279 43.9467 82.036 44.8864 84.2285 44.8864ZM84.1774 39.4915C82.2853 39.4915 81.3137 38.0597 81.3137 36.0142C81.3137 34.0199 82.2598 32.4091 84.1774 32.4091C86.0183 32.4091 86.9899 33.892 86.9899 36.0142C86.9899 38.1875 85.9927 39.4915 84.1774 39.4915ZM91.2342 41H92.7427V31.1818H91.2342V41ZM92.0012 29.5455C92.5893 29.5455 93.0751 29.0852 93.0751 28.5227C93.0751 27.9602 92.5893 27.5 92.0012 27.5C91.4132 27.5 90.9274 27.9602 90.9274 28.5227C90.9274 29.0852 91.4132 29.5455 92.0012 29.5455ZM102.46 33.3807C101.987 31.9872 100.926 31.054 98.983 31.054C96.9119 31.054 95.3778 32.2301 95.3778 33.892C95.3778 35.2472 96.1832 36.1548 97.9858 36.5767L99.6222 36.9602C100.613 37.1903 101.08 37.6634 101.08 38.3409C101.08 39.1847 100.185 39.875 98.7784 39.875C97.5447 39.875 96.7713 39.3445 96.5028 38.2898L95.071 38.6477C95.4226 40.3161 96.7969 41.2045 98.804 41.2045C101.086 41.2045 102.639 39.9581 102.639 38.2642C102.639 36.8963 101.783 36.0334 100.031 35.6051L98.5739 35.2472C97.4105 34.9595 96.8864 34.5696 96.8864 33.8153C96.8864 32.9716 97.7812 32.358 98.983 32.358C100.3 32.358 100.843 33.0866 101.105 33.7642L102.46 33.3807ZM109.18 31.1818H107.083V28.8295H105.575V31.1818H104.092V32.4602H105.575V38.5966C105.575 40.3097 106.955 41.1278 108.234 41.1278C108.796 41.1278 109.154 41.0256 109.359 40.9489L109.052 39.5938C108.924 39.6193 108.72 39.6705 108.387 39.6705C107.722 39.6705 107.083 39.4659 107.083 38.1875V32.4602H109.18V31.1818ZM115.46 41.2045C117.454 41.2045 118.912 40.2074 119.372 38.7244L117.915 38.3153C117.531 39.3381 116.643 39.8494 115.46 39.8494C113.689 39.8494 112.469 38.7053 112.398 36.6023H119.525V35.9631C119.525 32.3068 117.352 31.054 115.307 31.054C112.648 31.054 110.883 33.1506 110.883 36.1676C110.883 39.1847 112.622 41.2045 115.46 41.2045ZM112.398 35.2983C112.501 33.7706 113.581 32.4091 115.307 32.4091C116.943 32.4091 117.991 33.6364 117.991 35.2983H112.398ZM121.82 41H123.329V34.7869C123.329 33.4574 124.377 32.4858 125.809 32.4858C126.211 32.4858 126.627 32.5625 126.729 32.5881V31.054C126.557 31.0412 126.16 31.0284 125.937 31.0284C124.76 31.0284 123.738 31.6932 123.38 32.6648H123.278V31.1818H121.82V41ZM132.335 41.2045C134.329 41.2045 135.787 40.2074 136.247 38.7244L134.79 38.3153C134.406 39.3381 133.518 39.8494 132.335 39.8494C130.564 39.8494 129.344 38.7053 129.273 36.6023H136.4V35.9631C136.4 32.3068 134.227 31.054 132.182 31.054C129.523 31.054 127.758 33.1506 127.758 36.1676C127.758 39.1847 129.497 41.2045 132.335 41.2045ZM129.273 35.2983C129.376 33.7706 130.456 32.4091 132.182 32.4091C133.818 32.4091 134.866 33.6364 134.866 35.2983H129.273ZM142.403 41.2045C144.295 41.2045 144.934 40.0284 145.266 39.4915H145.445V41H146.903V27.9091H145.394V32.7415H145.266C144.934 32.2301 144.346 31.054 142.428 31.054C139.948 31.054 138.235 33.0227 138.235 36.1165C138.235 39.2358 139.948 41.2045 142.403 41.2045ZM142.607 39.8494C140.715 39.8494 139.743 38.1875 139.743 36.0909C139.743 34.0199 140.689 32.4091 142.607 32.4091C144.448 32.4091 145.42 33.892 145.42 36.0909C145.42 38.3153 144.422 39.8494 142.607 39.8494ZM155.142 41H156.727V35.1449H163.707V41H165.292V27.9091H163.707V33.7386H156.727V27.9091H155.142V41ZM172.25 41.2045C174.909 41.2045 176.699 39.1847 176.699 36.142C176.699 33.0739 174.909 31.054 172.25 31.054C169.591 31.054 167.801 33.0739 167.801 36.142C167.801 39.1847 169.591 41.2045 172.25 41.2045ZM172.25 39.8494C170.23 39.8494 169.31 38.1108 169.31 36.142C169.31 34.1733 170.23 32.4091 172.25 32.4091C174.27 32.4091 175.191 34.1733 175.191 36.142C175.191 38.1108 174.27 39.8494 172.25 39.8494ZM185.956 33.3807C185.483 31.9872 184.422 31.054 182.479 31.054C180.408 31.054 178.874 32.2301 178.874 33.892C178.874 35.2472 179.679 36.1548 181.482 36.5767L183.118 36.9602C184.109 37.1903 184.576 37.6634 184.576 38.3409C184.576 39.1847 183.681 39.875 182.275 39.875C181.041 39.875 180.267 39.3445 179.999 38.2898L178.567 38.6477C178.919 40.3161 180.293 41.2045 182.3 41.2045C184.582 41.2045 186.135 39.9581 186.135 38.2642C186.135 36.8963 185.279 36.0334 183.527 35.6051L182.07 35.2472C180.907 34.9595 180.382 34.5696 180.382 33.8153C180.382 32.9716 181.277 32.358 182.479 32.358C183.796 32.358 184.339 33.0866 184.601 33.7642L185.956 33.3807ZM188.406 44.6818H189.915V39.4915H190.042C190.375 40.0284 191.014 41.2045 192.906 41.2045C195.361 41.2045 197.074 39.2358 197.074 36.1165C197.074 33.0227 195.361 31.054 192.881 31.054C190.963 31.054 190.375 32.2301 190.042 32.7415H189.863V31.1818H188.406V44.6818ZM189.889 36.0909C189.889 33.892 190.861 32.4091 192.702 32.4091C194.619 32.4091 195.565 34.0199 195.565 36.0909C195.565 38.1875 194.594 39.8494 192.702 39.8494C190.886 39.8494 189.889 38.3153 189.889 36.0909ZM199.375 41H200.883V31.1818H199.375V41ZM200.142 29.5455C200.73 29.5455 201.216 29.0852 201.216 28.5227C201.216 27.9602 200.73 27.5 200.142 27.5C199.554 27.5 199.068 27.9602 199.068 28.5227C199.068 29.0852 199.554 29.5455 200.142 29.5455ZM207.916 31.1818H205.82V28.8295H204.311V31.1818H202.828V32.4602H204.311V38.5966C204.311 40.3097 205.692 41.1278 206.97 41.1278C207.533 41.1278 207.891 41.0256 208.095 40.9489L207.788 39.5938C207.661 39.6193 207.456 39.6705 207.124 39.6705C206.459 39.6705 205.82 39.4659 205.82 38.1875V32.4602H207.916V31.1818ZM213.075 41.2301C214.788 41.2301 215.683 40.3097 215.989 39.6705H216.066V41H217.575V34.5312C217.575 31.4119 215.197 31.054 213.944 31.054C212.461 31.054 210.773 31.5653 210.006 33.3551L211.438 33.8665C211.771 33.1506 212.557 32.3835 213.995 32.3835C215.382 32.3835 216.066 33.1186 216.066 34.3778V34.429C216.066 35.1577 215.325 35.0938 213.535 35.3239C211.713 35.5604 209.725 35.9631 209.725 38.2131C209.725 40.1307 211.208 41.2301 213.075 41.2301ZM213.305 39.875C212.103 39.875 211.234 39.3381 211.234 38.2898C211.234 37.1392 212.282 36.7812 213.458 36.6278C214.097 36.5511 215.81 36.3722 216.066 36.0653V37.446C216.066 38.6733 215.094 39.875 213.305 39.875ZM221.836 27.9091H220.328V41H221.836V27.9091ZM231.554 33.3807C231.081 31.9872 230.02 31.054 228.077 31.054C226.006 31.054 224.472 32.2301 224.472 33.892C224.472 35.2472 225.277 36.1548 227.08 36.5767L228.716 36.9602C229.707 37.1903 230.173 37.6634 230.173 38.3409C230.173 39.1847 229.278 39.875 227.872 39.875C226.638 39.875 225.865 39.3445 225.597 38.2898L224.165 38.6477C224.516 40.3161 225.891 41.2045 227.898 41.2045C230.18 41.2045 231.733 39.9581 231.733 38.2642C231.733 36.8963 230.876 36.0334 229.125 35.6051L227.668 35.2472C226.504 34.9595 225.98 34.5696 225.98 33.8153C225.98 32.9716 226.875 32.358 228.077 32.358C229.393 32.358 229.937 33.0866 230.199 33.7642L231.554 33.3807Z" fill="#404040"/>
<path d="M162.943 90.5455H160.83L156.466 93.4432V95.5909L160.727 92.7614H160.83V108H162.943V90.5455ZM169.966 105.614H167.784L167.682 106.568C167.435 108.878 166.949 111.179 166.727 112.261H168.261C168.67 111.102 169.54 108.477 169.83 106.534L169.966 105.614ZM178.742 108.239C182.594 108.239 184.81 104.974 184.81 99.2727C184.81 93.6136 182.56 90.3068 178.742 90.3068C174.924 90.3068 172.674 93.6136 172.674 99.2727C172.674 104.974 174.89 108.239 178.742 108.239ZM178.742 106.364C176.202 106.364 174.719 103.815 174.719 99.2727C174.719 94.7386 176.219 92.1477 178.742 92.1477C181.265 92.1477 182.765 94.7386 182.765 99.2727C182.765 103.815 181.282 106.364 178.742 106.364ZM193.504 108.239C196.827 108.239 199.265 105.784 199.265 102.443C199.265 99.0597 196.913 96.5795 193.708 96.5795C192.532 96.5795 191.39 96.9972 190.674 97.5682H190.572L191.185 92.4205H198.481V90.5455H189.413L188.356 99.1364L190.333 99.375C191.058 98.8551 192.293 98.4801 193.367 98.4886C195.592 98.5057 197.219 100.193 197.219 102.477C197.219 104.719 195.651 106.364 193.504 106.364C191.714 106.364 190.29 105.213 190.129 103.636H188.083C188.211 106.295 190.504 108.239 193.504 108.239ZM202.241 104.42H210.457V108H212.469V104.42H214.855V102.545H212.469V90.5455H209.912L202.241 102.682V104.42ZM210.457 102.545H204.526V102.409L210.321 93.2386H210.457V102.545ZM229.947 104.932H231.856V100.261H236.526V98.3523H231.856V93.6818H229.947V98.3523H225.276V100.261H229.947V104.932Z" fill="#151E28"/>
<path d="M156.605 146.727H155.767V154H156.605V146.727ZM159.745 154.128C160.697 154.128 161.194 153.616 161.365 153.261H161.407V154H162.245V150.406C162.245 148.673 160.924 148.474 160.228 148.474C159.404 148.474 158.467 148.759 158.041 149.753L158.836 150.037C159.021 149.639 159.458 149.213 160.257 149.213C161.027 149.213 161.407 149.621 161.407 150.321V150.349C161.407 150.754 160.995 150.719 160.001 150.847C158.989 150.978 157.884 151.202 157.884 152.452C157.884 153.517 158.708 154.128 159.745 154.128ZM159.873 153.375C159.205 153.375 158.722 153.077 158.722 152.494C158.722 151.855 159.305 151.656 159.958 151.571C160.313 151.528 161.265 151.429 161.407 151.259V152.026C161.407 152.707 160.867 153.375 159.873 153.375ZM167.638 149.767C167.376 148.993 166.786 148.474 165.707 148.474C164.556 148.474 163.704 149.128 163.704 150.051C163.704 150.804 164.151 151.308 165.153 151.543L166.062 151.756C166.612 151.884 166.871 152.146 166.871 152.523C166.871 152.991 166.374 153.375 165.593 153.375C164.908 153.375 164.478 153.08 164.329 152.494L163.533 152.693C163.729 153.62 164.492 154.114 165.607 154.114C166.875 154.114 167.738 153.421 167.738 152.48C167.738 151.72 167.262 151.241 166.289 151.003L165.479 150.804C164.833 150.644 164.542 150.428 164.542 150.009C164.542 149.54 165.039 149.199 165.707 149.199C166.438 149.199 166.74 149.604 166.886 149.98L167.638 149.767ZM171.372 148.545H170.207V147.239H169.369V148.545H168.545V149.256H169.369V152.665C169.369 153.616 170.136 154.071 170.846 154.071C171.159 154.071 171.357 154.014 171.471 153.972L171.301 153.219C171.23 153.233 171.116 153.261 170.931 153.261C170.562 153.261 170.207 153.148 170.207 152.438V149.256H171.372V148.545ZM178.882 151.77C178.882 152.793 178.101 153.261 177.476 153.261C176.78 153.261 176.283 152.75 176.283 151.955V148.545H175.445V152.011C175.445 153.403 176.183 154.071 177.206 154.071C178.03 154.071 178.57 153.631 178.825 153.077H178.882V154H179.72V148.545H178.882V151.77ZM181.255 156.045H182.093V153.162H182.164C182.349 153.46 182.704 154.114 183.755 154.114C185.119 154.114 186.071 153.02 186.071 151.287C186.071 149.568 185.119 148.474 183.741 148.474C182.676 148.474 182.349 149.128 182.164 149.412H182.065V148.545H181.255V156.045ZM182.079 151.273C182.079 150.051 182.619 149.227 183.642 149.227C184.707 149.227 185.233 150.122 185.233 151.273C185.233 152.438 184.693 153.361 183.642 153.361C182.633 153.361 182.079 152.509 182.079 151.273ZM189.409 154.114C190.46 154.114 190.815 153.46 191 153.162H191.099V154H191.909V146.727H191.071V149.412H191C190.815 149.128 190.488 148.474 189.423 148.474C188.045 148.474 187.093 149.568 187.093 151.287C187.093 153.02 188.045 154.114 189.409 154.114ZM189.522 153.361C188.471 153.361 187.931 152.438 187.931 151.273C187.931 150.122 188.457 149.227 189.522 149.227C190.545 149.227 191.085 150.051 191.085 151.273C191.085 152.509 190.531 153.361 189.522 153.361ZM195.165 154.128C196.117 154.128 196.614 153.616 196.784 153.261H196.827V154H197.665V150.406C197.665 148.673 196.344 148.474 195.648 148.474C194.824 148.474 193.887 148.759 193.461 149.753L194.256 150.037C194.441 149.639 194.877 149.213 195.676 149.213C196.447 149.213 196.827 149.621 196.827 150.321V150.349C196.827 150.754 196.415 150.719 195.421 150.847C194.409 150.978 193.304 151.202 193.304 152.452C193.304 153.517 194.128 154.128 195.165 154.128ZM195.293 153.375C194.625 153.375 194.142 153.077 194.142 152.494C194.142 151.855 194.725 151.656 195.378 151.571C195.733 151.528 196.685 151.429 196.827 151.259V152.026C196.827 152.707 196.287 153.375 195.293 153.375ZM201.567 148.545H200.402V147.239H199.564V148.545H198.74V149.256H199.564V152.665C199.564 153.616 200.331 154.071 201.041 154.071C201.354 154.071 201.553 154.014 201.666 153.972L201.496 153.219C201.425 153.233 201.311 153.261 201.127 153.261C200.757 153.261 200.402 153.148 200.402 152.438V149.256H201.567V148.545ZM205.056 154.114C206.164 154.114 206.974 153.56 207.229 152.736L206.42 152.509C206.206 153.077 205.713 153.361 205.056 153.361C204.072 153.361 203.394 152.725 203.355 151.557H207.314V151.202C207.314 149.17 206.107 148.474 204.971 148.474C203.493 148.474 202.513 149.639 202.513 151.315C202.513 152.991 203.479 154.114 205.056 154.114ZM203.355 150.832C203.412 149.984 204.012 149.227 204.971 149.227C205.88 149.227 206.462 149.909 206.462 150.832H203.355ZM210.649 154.114C211.7 154.114 212.055 153.46 212.24 153.162H212.339V154H213.149V146.727H212.311V149.412H212.24C212.055 149.128 211.729 148.474 210.663 148.474C209.285 148.474 208.334 149.568 208.334 151.287C208.334 153.02 209.285 154.114 210.649 154.114ZM210.763 153.361C209.711 153.361 209.172 152.438 209.172 151.273C209.172 150.122 209.697 149.227 210.763 149.227C211.785 149.227 212.325 150.051 212.325 151.273C212.325 152.509 211.771 153.361 210.763 153.361ZM219.871 154.099C221.256 154.099 222.272 153.077 222.272 151.685C222.272 150.275 221.292 149.241 219.956 149.241C219.466 149.241 218.991 149.415 218.692 149.653H218.65L218.905 147.509H221.945V146.727H218.167L217.726 150.307L218.55 150.406C218.852 150.19 219.367 150.033 219.814 150.037C220.741 150.044 221.42 150.747 221.42 151.699C221.42 152.633 220.766 153.318 219.871 153.318C219.126 153.318 218.532 152.839 218.465 152.182H217.613C217.666 153.29 218.621 154.099 219.871 154.099ZM226.509 154H227.347V150.591C227.347 149.792 227.93 149.227 228.583 149.227C229.219 149.227 229.663 149.643 229.663 150.264V154H230.515V150.449C230.515 149.746 230.955 149.227 231.722 149.227C232.319 149.227 232.83 149.543 232.83 150.349V154H233.668V150.349C233.668 149.067 232.979 148.474 232.006 148.474C231.225 148.474 230.653 148.833 230.373 149.398H230.316C230.046 148.815 229.57 148.474 228.853 148.474C228.143 148.474 227.617 148.815 227.39 149.398H227.319V148.545H226.509V154ZM235.201 154H236.039V148.545H235.201V154ZM235.627 147.636C235.953 147.636 236.223 147.381 236.223 147.068C236.223 146.756 235.953 146.5 235.627 146.5C235.3 146.5 235.03 146.756 235.03 147.068C235.03 147.381 235.3 147.636 235.627 147.636ZM238.412 150.719C238.412 149.767 239.001 149.227 239.804 149.227C240.581 149.227 241.054 149.735 241.054 150.591V154H241.892V150.534C241.892 149.142 241.15 148.474 240.045 148.474C239.221 148.474 238.71 148.844 238.454 149.398H238.383V148.545H237.574V154H238.412V150.719ZM247.287 149.767C247.024 148.993 246.435 148.474 245.355 148.474C244.205 148.474 243.352 149.128 243.352 150.051C243.352 150.804 243.8 151.308 244.801 151.543L245.71 151.756C246.261 151.884 246.52 152.146 246.52 152.523C246.52 152.991 246.023 153.375 245.241 153.375C244.556 153.375 244.126 153.08 243.977 152.494L243.182 152.693C243.377 153.62 244.141 154.114 245.256 154.114C246.523 154.114 247.386 153.421 247.386 152.48C247.386 151.72 246.911 151.241 245.938 151.003L245.128 150.804C244.482 150.644 244.19 150.428 244.19 150.009C244.19 149.54 244.688 149.199 245.355 149.199C246.087 149.199 246.388 149.604 246.534 149.98L247.287 149.767ZM253.066 154.128C254.017 154.128 254.514 153.616 254.685 153.261H254.727V154H255.566V150.406C255.566 148.673 254.244 148.474 253.548 148.474C252.725 148.474 251.787 148.759 251.361 149.753L252.156 150.037C252.341 149.639 252.778 149.213 253.577 149.213C254.347 149.213 254.727 149.621 254.727 150.321V150.349C254.727 150.754 254.316 150.719 253.321 150.847C252.309 150.978 251.205 151.202 251.205 152.452C251.205 153.517 252.029 154.128 253.066 154.128ZM253.193 153.375C252.526 153.375 252.043 153.077 252.043 152.494C252.043 151.855 252.625 151.656 253.279 151.571C253.634 151.528 254.585 151.429 254.727 151.259V152.026C254.727 152.707 254.188 153.375 253.193 153.375ZM259.297 156.159C260.604 156.159 261.655 155.562 261.655 154.156V148.545H260.845V149.412H260.76C260.575 149.128 260.234 148.474 259.169 148.474C257.791 148.474 256.839 149.568 256.839 151.244C256.839 152.949 257.834 153.915 259.155 153.915C260.22 153.915 260.561 153.29 260.746 152.991H260.817V154.099C260.817 155.009 260.178 155.42 259.297 155.42C258.306 155.42 257.958 154.898 257.734 154.597L257.067 155.065C257.408 155.637 258.079 156.159 259.297 156.159ZM259.268 153.162C258.217 153.162 257.678 152.366 257.678 151.23C257.678 150.122 258.203 149.227 259.268 149.227C260.291 149.227 260.831 150.051 260.831 151.23C260.831 152.438 260.277 153.162 259.268 153.162ZM265.405 154.114C266.882 154.114 267.876 152.991 267.876 151.301C267.876 149.597 266.882 148.474 265.405 148.474C263.928 148.474 262.933 149.597 262.933 151.301C262.933 152.991 263.928 154.114 265.405 154.114ZM265.405 153.361C264.283 153.361 263.771 152.395 263.771 151.301C263.771 150.207 264.283 149.227 265.405 149.227C266.527 149.227 267.038 150.207 267.038 151.301C267.038 152.395 266.527 153.361 265.405 153.361Z" fill="#808080" fill-opacity="0.9"/>
<defs>
<filter id="filter0_d_305_811" x="0" y="0" width="298" height="191" filterUnits="userSpaceOnUse" color-interpolation-filters="sRGB">
<feFlood flood-opacity="0" result="BackgroundImageFix"/>
<feColorMatrix in="SourceAlpha" type="matrix" values="0 0 0 0 0 0 0 0 0 0 0 0 0 0 0 0 0 0 127 0" result="hardAlpha"/>
<feOffset dy="1"/>
<feGaussianBlur stdDeviation="2.5"/>
<feComposite in2="hardAlpha" operator="out"/>
<feColorMatrix type="matrix" values="0 0 0 0 0 0 0 0 0 0 0 0 0 0 0 0 0 0 0.25 0"/>
<feBlend mode="normal" in2="BackgroundImageFix" result="effect1_dropShadow_305_811"/>
<feBlend mode="normal" in="SourceGraphic" in2="effect1_dropShadow_305_811" result="shape"/>
</filter>
<linearGradient id="paint0_linear_305_811" x1="59.4704" y1="152.216" x2="59.4704" y2="90.8971" gradientUnits="userSpaceOnUse">
<stop stop-color="#808080" stop-opacity="0.25"/>
<stop offset="0.54" stop-color="#808080" stop-opacity="0.12"/>
<stop offset="1" stop-color="#808080" stop-opacity="0.1"/>
</linearGradient>
<linearGradient id="paint1_linear_305_811" x1="22243.7" y1="46340.7" x2="22243.7" y2="14865.3" gradientUnits="userSpaceOnUse">
<stop stop-color="#808080" stop-opacity="0.25"/>
<stop offset="0.54" stop-color="#808080" stop-opacity="0.12"/>
<stop offset="1" stop-color="#808080" stop-opacity="0.1"/>
</linearGradient>
<clipPath id="clip0_305_811">
<rect width="110" height="78" fill="white" transform="translate(24 75)"/>
</clipPath>
</defs>
</svg>
