<svg width="298" height="191" viewBox="0 0 298 191" fill="none" xmlns="http://www.w3.org/2000/svg">
<g filter="url(#filter0_d_305_640)">
<rect x="5" y="4" width="288" height="181" rx="4" fill="white"/>
</g>
<path d="M75.5852 44H77.1705V38.8864H80.0341C80.1491 38.8864 80.2578 38.8864 80.3665 38.88L83.1278 44H84.9688L82.0092 38.5923C83.6776 38.0234 84.4574 36.6619 84.4574 34.9233C84.4574 32.6094 83.0767 30.9091 80.0085 30.9091H75.5852V44ZM77.1705 37.4545V32.3153H79.9574C82.0795 32.3153 82.8977 33.3509 82.8977 34.9233C82.8977 36.4957 82.0795 37.4545 79.983 37.4545H77.1705ZM90.9054 44.2045C92.8997 44.2045 94.3571 43.2074 94.8173 41.7244L93.3599 41.3153C92.9764 42.3381 92.0879 42.8494 90.9054 42.8494C89.1348 42.8494 87.9139 41.7053 87.8436 39.6023H94.9707V38.9631C94.9707 35.3068 92.7974 34.054 90.752 34.054C88.0929 34.054 86.3287 36.1506 86.3287 39.1676C86.3287 42.1847 88.0673 44.2045 90.9054 44.2045ZM87.8436 38.2983C87.9458 36.7706 89.0261 35.4091 90.752 35.4091C92.3883 35.4091 93.4366 36.6364 93.4366 38.2983H87.8436ZM101.229 47.8864C103.581 47.8864 105.473 46.8125 105.473 44.2812V34.1818H104.015V35.7415H103.862C103.53 35.2301 102.916 34.054 100.998 34.054C98.5183 34.054 96.8052 36.0227 96.8052 39.0398C96.8052 42.108 98.595 43.8466 100.973 43.8466C102.89 43.8466 103.504 42.7216 103.836 42.1847H103.964V44.179C103.964 45.8153 102.814 46.5568 101.229 46.5568C99.4451 46.5568 98.8187 45.6172 98.416 45.0739L97.2143 45.9176C97.8279 46.9467 99.036 47.8864 101.229 47.8864ZM101.177 42.4915C99.2853 42.4915 98.3137 41.0597 98.3137 39.0142C98.3137 37.0199 99.2598 35.4091 101.177 35.4091C103.018 35.4091 103.99 36.892 103.99 39.0142C103.99 41.1875 102.993 42.4915 101.177 42.4915ZM108.234 44H109.743V34.1818H108.234V44ZM109.001 32.5455C109.589 32.5455 110.075 32.0852 110.075 31.5227C110.075 30.9602 109.589 30.5 109.001 30.5C108.413 30.5 107.927 30.9602 107.927 31.5227C107.927 32.0852 108.413 32.5455 109.001 32.5455ZM119.46 36.3807C118.987 34.9872 117.926 34.054 115.983 34.054C113.912 34.054 112.378 35.2301 112.378 36.892C112.378 38.2472 113.183 39.1548 114.986 39.5767L116.622 39.9602C117.613 40.1903 118.08 40.6634 118.08 41.3409C118.08 42.1847 117.185 42.875 115.778 42.875C114.545 42.875 113.771 42.3445 113.503 41.2898L112.071 41.6477C112.423 43.3161 113.797 44.2045 115.804 44.2045C118.086 44.2045 119.639 42.9581 119.639 41.2642C119.639 39.8963 118.783 39.0334 117.031 38.6051L115.574 38.2472C114.411 37.9595 113.886 37.5696 113.886 36.8153C113.886 35.9716 114.781 35.358 115.983 35.358C117.3 35.358 117.843 36.0866 118.105 36.7642L119.46 36.3807ZM126.18 34.1818H124.083V31.8295H122.575V34.1818H121.092V35.4602H122.575V41.5966C122.575 43.3097 123.955 44.1278 125.234 44.1278C125.796 44.1278 126.154 44.0256 126.359 43.9489L126.052 42.5938C125.924 42.6193 125.72 42.6705 125.387 42.6705C124.722 42.6705 124.083 42.4659 124.083 41.1875V35.4602H126.18V34.1818ZM132.46 44.2045C134.454 44.2045 135.912 43.2074 136.372 41.7244L134.915 41.3153C134.531 42.3381 133.643 42.8494 132.46 42.8494C130.689 42.8494 129.469 41.7053 129.398 39.6023H136.525V38.9631C136.525 35.3068 134.352 34.054 132.307 34.054C129.648 34.054 127.883 36.1506 127.883 39.1676C127.883 42.1847 129.622 44.2045 132.46 44.2045ZM129.398 38.2983C129.501 36.7706 130.581 35.4091 132.307 35.4091C133.943 35.4091 134.991 36.6364 134.991 38.2983H129.398ZM138.82 44H140.329V37.7869C140.329 36.4574 141.377 35.4858 142.809 35.4858C143.211 35.4858 143.627 35.5625 143.729 35.5881V34.054C143.557 34.0412 143.16 34.0284 142.937 34.0284C141.76 34.0284 140.738 34.6932 140.38 35.6648H140.278V34.1818H138.82V44ZM149.335 44.2045C151.329 44.2045 152.787 43.2074 153.247 41.7244L151.79 41.3153C151.406 42.3381 150.518 42.8494 149.335 42.8494C147.564 42.8494 146.344 41.7053 146.273 39.6023H153.4V38.9631C153.4 35.3068 151.227 34.054 149.182 34.054C146.523 34.054 144.758 36.1506 144.758 39.1676C144.758 42.1847 146.497 44.2045 149.335 44.2045ZM146.273 38.2983C146.376 36.7706 147.456 35.4091 149.182 35.4091C150.818 35.4091 151.866 36.6364 151.866 38.2983H146.273ZM159.403 44.2045C161.295 44.2045 161.934 43.0284 162.266 42.4915H162.445V44H163.903V30.9091H162.394V35.7415H162.266C161.934 35.2301 161.346 34.054 159.428 34.054C156.948 34.054 155.235 36.0227 155.235 39.1165C155.235 42.2358 156.948 44.2045 159.403 44.2045ZM159.607 42.8494C157.715 42.8494 156.743 41.1875 156.743 39.0909C156.743 37.0199 157.689 35.4091 159.607 35.4091C161.448 35.4091 162.42 36.892 162.42 39.0909C162.42 41.3153 161.422 42.8494 159.607 42.8494ZM180.733 30.9091V39.4489C180.733 41.3665 179.416 42.7472 177.23 42.7472C175.044 42.7472 173.727 41.3665 173.727 39.4489V30.9091H172.142V39.5767C172.142 42.2614 174.149 44.2301 177.23 44.2301C180.311 44.2301 182.318 42.2614 182.318 39.5767V30.9091H180.733ZM192.234 36.3807C191.761 34.9872 190.7 34.054 188.756 34.054C186.685 34.054 185.151 35.2301 185.151 36.892C185.151 38.2472 185.957 39.1548 187.759 39.5767L189.396 39.9602C190.386 40.1903 190.853 40.6634 190.853 41.3409C190.853 42.1847 189.958 42.875 188.552 42.875C187.318 42.875 186.545 42.3445 186.276 41.2898L184.844 41.6477C185.196 43.3161 186.57 44.2045 188.577 44.2045C190.859 44.2045 192.413 42.9581 192.413 41.2642C192.413 39.8963 191.556 39.0334 189.805 38.6051L188.347 38.2472C187.184 37.9595 186.66 37.5696 186.66 36.8153C186.66 35.9716 187.555 35.358 188.756 35.358C190.073 35.358 190.616 36.0866 190.879 36.7642L192.234 36.3807ZM198.8 44.2045C200.794 44.2045 202.252 43.2074 202.712 41.7244L201.254 41.3153C200.871 42.3381 199.982 42.8494 198.8 42.8494C197.029 42.8494 195.808 41.7053 195.738 39.6023H202.865V38.9631C202.865 35.3068 200.692 34.054 198.646 34.054C195.987 34.054 194.223 36.1506 194.223 39.1676C194.223 42.1847 195.962 44.2045 198.8 44.2045ZM195.738 38.2983C195.84 36.7706 196.921 35.4091 198.646 35.4091C200.283 35.4091 201.331 36.6364 201.331 38.2983H195.738ZM205.16 44H206.669V37.7869C206.669 36.4574 207.717 35.4858 209.149 35.4858C209.551 35.4858 209.967 35.5625 210.069 35.5881V34.054C209.896 34.0412 209.5 34.0284 209.276 34.0284C208.1 34.0284 207.078 34.6932 206.72 35.6648H206.617V34.1818H205.16V44ZM218.812 36.3807C218.339 34.9872 217.278 34.054 215.335 34.054C213.263 34.054 211.729 35.2301 211.729 36.892C211.729 38.2472 212.535 39.1548 214.337 39.5767L215.974 39.9602C216.964 40.1903 217.431 40.6634 217.431 41.3409C217.431 42.1847 216.536 42.875 215.13 42.875C213.896 42.875 213.123 42.3445 212.854 41.2898L211.423 41.6477C211.774 43.3161 213.148 44.2045 215.156 44.2045C217.438 44.2045 218.991 42.9581 218.991 41.2642C218.991 39.8963 218.134 39.0334 216.383 38.6051L214.925 38.2472C213.762 37.9595 213.238 37.5696 213.238 36.8153C213.238 35.9716 214.133 35.358 215.335 35.358C216.651 35.358 217.195 36.0866 217.457 36.7642L218.812 36.3807Z" fill="#404040"/>
<path d="M173.519 99.5162H171.405L167.042 102.414V104.562L171.303 101.732H171.405V116.971H173.519V99.5162ZM183.993 117.209C187.317 117.209 189.755 114.755 189.755 111.414C189.755 108.03 187.402 105.55 184.198 105.55C183.022 105.55 181.88 105.968 181.164 106.539H181.061L181.675 101.391H188.971V99.5162H179.902L178.846 108.107L180.823 108.346C181.547 107.826 182.783 107.451 183.857 107.459C186.081 107.476 187.709 109.164 187.709 111.448C187.709 113.689 186.141 115.334 183.993 115.334C182.204 115.334 180.78 114.184 180.618 112.607H178.573C178.701 115.266 180.993 117.209 183.993 117.209ZM195.518 114.584H193.336L193.234 115.539C192.987 117.849 192.501 120.15 192.28 121.232H193.814C194.223 120.073 195.092 117.448 195.382 115.505L195.518 114.584ZM198.802 113.391H207.017V116.971H209.029V113.391H211.415V111.516H209.029V99.5162H206.472L198.802 111.653V113.391ZM207.017 111.516H201.086V111.38L206.881 102.209H207.017V111.516ZM214.609 116.971H225.62V115.096H217.507V114.959L221.427 110.766C224.427 107.553 225.314 106.053 225.314 104.118C225.314 101.425 223.132 99.2775 220.064 99.2775C217.004 99.2775 214.677 101.357 214.677 104.425H216.689C216.689 102.439 217.976 101.118 219.995 101.118C221.887 101.118 223.336 102.278 223.336 104.118C223.336 105.729 222.39 106.922 220.37 109.13L214.609 115.437V116.971ZM234.731 117.209C238.217 117.209 240.646 115.172 240.663 112.334C240.646 110.127 239.172 108.252 237.288 107.903V107.8C238.924 107.374 239.998 105.772 240.015 103.914C239.998 101.255 237.765 99.2775 234.731 99.2775C231.663 99.2775 229.43 101.255 229.447 103.914C229.43 105.772 230.504 107.374 232.174 107.8V107.903C230.257 108.252 228.782 110.127 228.799 112.334C228.782 115.172 231.211 117.209 234.731 117.209ZM234.731 115.334C232.336 115.334 230.862 114.107 230.879 112.232C230.862 110.263 232.49 108.857 234.731 108.857C236.939 108.857 238.566 110.263 238.583 112.232C238.566 114.107 237.092 115.334 234.731 115.334ZM234.731 107.05C232.822 107.05 231.476 105.857 231.493 104.05C231.476 102.278 232.771 101.118 234.731 101.118C236.657 101.118 237.953 102.278 237.97 104.05C237.953 105.857 236.606 107.05 234.731 107.05ZM255.827 113.903H257.736V109.232H262.407V107.323H257.736V102.653H255.827V107.323H251.157V109.232H255.827V113.903Z" fill="#151E28"/>
<path d="M167.181 153.856H166.343V161.129H167.181V153.856ZM170.321 161.257C171.273 161.257 171.77 160.745 171.94 160.39H171.983V161.129H172.821V157.535C172.821 155.802 171.5 155.603 170.804 155.603C169.98 155.603 169.042 155.887 168.616 156.882L169.412 157.166C169.596 156.768 170.033 156.342 170.832 156.342C171.603 156.342 171.983 156.75 171.983 157.45V157.478C171.983 157.883 171.571 157.848 170.577 157.975C169.564 158.107 168.46 158.331 168.46 159.581C168.46 160.646 169.284 161.257 170.321 161.257ZM170.449 160.504C169.781 160.504 169.298 160.206 169.298 159.623C169.298 158.984 169.881 158.785 170.534 158.7C170.889 158.657 171.841 158.558 171.983 158.387V159.154C171.983 159.836 171.443 160.504 170.449 160.504ZM178.214 156.896C177.951 156.122 177.362 155.603 176.282 155.603C175.132 155.603 174.28 156.257 174.28 157.18C174.28 157.933 174.727 158.437 175.728 158.672L176.637 158.885C177.188 159.012 177.447 159.275 177.447 159.652C177.447 160.12 176.95 160.504 176.169 160.504C175.483 160.504 175.054 160.209 174.905 159.623L174.109 159.822C174.304 160.749 175.068 161.243 176.183 161.243C177.451 161.243 178.314 160.55 178.314 159.609C178.314 158.849 177.838 158.37 176.865 158.132L176.055 157.933C175.409 157.773 175.118 157.556 175.118 157.137C175.118 156.669 175.615 156.328 176.282 156.328C177.014 156.328 177.316 156.733 177.461 157.109L178.214 156.896ZM181.947 155.674H180.783V154.368H179.944V155.674H179.121V156.385H179.944V159.794C179.944 160.745 180.712 161.2 181.422 161.2C181.734 161.2 181.933 161.143 182.047 161.1L181.876 160.348C181.805 160.362 181.692 160.39 181.507 160.39C181.138 160.39 180.783 160.277 180.783 159.566V156.385H181.947V155.674ZM189.458 158.899C189.458 159.922 188.677 160.39 188.052 160.39C187.356 160.39 186.859 159.879 186.859 159.083V155.674H186.02V159.14C186.02 160.532 186.759 161.2 187.782 161.2C188.606 161.2 189.145 160.76 189.401 160.206H189.458V161.129H190.296V155.674H189.458V158.899ZM191.831 163.174H192.669V160.291H192.74C192.925 160.589 193.28 161.243 194.331 161.243C195.695 161.243 196.646 160.149 196.646 158.416C196.646 156.697 195.695 155.603 194.317 155.603C193.251 155.603 192.925 156.257 192.74 156.541H192.641V155.674H191.831V163.174ZM192.655 158.402C192.655 157.18 193.195 156.356 194.217 156.356C195.283 156.356 195.808 157.251 195.808 158.402C195.808 159.566 195.269 160.49 194.217 160.49C193.209 160.49 192.655 159.637 192.655 158.402ZM199.984 161.243C201.036 161.243 201.391 160.589 201.575 160.291H201.675V161.129H202.484V153.856H201.646V156.541H201.575C201.391 156.257 201.064 155.603 199.999 155.603C198.621 155.603 197.669 156.697 197.669 158.416C197.669 160.149 198.621 161.243 199.984 161.243ZM200.098 160.49C199.047 160.49 198.507 159.566 198.507 158.402C198.507 157.251 199.033 156.356 200.098 156.356C201.121 156.356 201.661 157.18 201.661 158.402C201.661 159.637 201.107 160.49 200.098 160.49ZM205.741 161.257C206.693 161.257 207.19 160.745 207.36 160.39H207.403V161.129H208.241V157.535C208.241 155.802 206.92 155.603 206.224 155.603C205.4 155.603 204.462 155.887 204.036 156.882L204.832 157.166C205.016 156.768 205.453 156.342 206.252 156.342C207.023 156.342 207.403 156.75 207.403 157.45V157.478C207.403 157.883 206.991 157.848 205.996 157.975C204.984 158.107 203.88 158.331 203.88 159.581C203.88 160.646 204.704 161.257 205.741 161.257ZM205.869 160.504C205.201 160.504 204.718 160.206 204.718 159.623C204.718 158.984 205.3 158.785 205.954 158.7C206.309 158.657 207.261 158.558 207.403 158.387V159.154C207.403 159.836 206.863 160.504 205.869 160.504ZM212.143 155.674H210.978V154.368H210.14V155.674H209.316V156.385H210.14V159.794C210.14 160.745 210.907 161.2 211.617 161.2C211.93 161.2 212.128 161.143 212.242 161.1L212.072 160.348C212.001 160.362 211.887 160.39 211.702 160.39C211.333 160.39 210.978 160.277 210.978 159.566V156.385H212.143V155.674ZM215.632 161.243C216.74 161.243 217.549 160.689 217.805 159.865L216.995 159.637C216.782 160.206 216.289 160.49 215.632 160.49C214.648 160.49 213.97 159.854 213.931 158.686H217.89V158.331C217.89 156.299 216.683 155.603 215.546 155.603C214.069 155.603 213.089 156.768 213.089 158.444C213.089 160.12 214.055 161.243 215.632 161.243ZM213.931 157.961C213.987 157.113 214.588 156.356 215.546 156.356C216.455 156.356 217.038 157.038 217.038 157.961H213.931ZM221.225 161.243C222.276 161.243 222.631 160.589 222.816 160.291H222.915V161.129H223.725V153.856H222.887V156.541H222.816C222.631 156.257 222.304 155.603 221.239 155.603C219.861 155.603 218.909 156.697 218.909 158.416C218.909 160.149 219.861 161.243 221.225 161.243ZM221.338 160.49C220.287 160.49 219.747 159.566 219.747 158.402C219.747 157.251 220.273 156.356 221.338 156.356C222.361 156.356 222.901 157.18 222.901 158.402C222.901 159.637 222.347 160.49 221.338 160.49ZM230.447 161.228C231.832 161.228 232.848 160.206 232.848 158.814C232.848 157.404 231.867 156.37 230.532 156.37C230.042 156.37 229.566 156.544 229.268 156.782H229.225L229.481 154.637H232.521V153.856H228.742L228.302 157.436L229.126 157.535C229.428 157.319 229.943 157.162 230.39 157.166C231.317 157.173 231.995 157.876 231.995 158.828C231.995 159.762 231.342 160.447 230.447 160.447C229.701 160.447 229.108 159.968 229.041 159.311H228.188C228.242 160.419 229.197 161.228 230.447 161.228ZM237.085 161.129H237.923V157.72C237.923 156.921 238.505 156.356 239.159 156.356C239.794 156.356 240.238 156.772 240.238 157.393V161.129H241.091V157.578C241.091 156.875 241.531 156.356 242.298 156.356C242.895 156.356 243.406 156.672 243.406 157.478V161.129H244.244V157.478C244.244 156.196 243.555 155.603 242.582 155.603C241.801 155.603 241.229 155.962 240.949 156.527H240.892C240.622 155.944 240.146 155.603 239.429 155.603C238.718 155.603 238.193 155.944 237.966 156.527H237.895V155.674H237.085V161.129ZM245.776 161.129H246.614V155.674H245.776V161.129ZM246.202 154.765C246.529 154.765 246.799 154.51 246.799 154.197C246.799 153.885 246.529 153.629 246.202 153.629C245.876 153.629 245.606 153.885 245.606 154.197C245.606 154.51 245.876 154.765 246.202 154.765ZM248.987 157.848C248.987 156.896 249.577 156.356 250.379 156.356C251.157 156.356 251.629 156.864 251.629 157.72V161.129H252.468V157.663C252.468 156.271 251.725 155.603 250.621 155.603C249.797 155.603 249.286 155.973 249.03 156.527H248.959V155.674H248.149V161.129H248.987V157.848ZM257.863 156.896C257.6 156.122 257.01 155.603 255.931 155.603C254.78 155.603 253.928 156.257 253.928 157.18C253.928 157.933 254.375 158.437 255.377 158.672L256.286 158.885C256.836 159.012 257.096 159.275 257.096 159.652C257.096 160.12 256.598 160.504 255.817 160.504C255.132 160.504 254.702 160.209 254.553 159.623L253.758 159.822C253.953 160.749 254.716 161.243 255.831 161.243C257.099 161.243 257.962 160.55 257.962 159.609C257.962 158.849 257.486 158.37 256.513 158.132L255.704 157.933C255.057 157.773 254.766 157.556 254.766 157.137C254.766 156.669 255.263 156.328 255.931 156.328C256.662 156.328 256.964 156.733 257.11 157.109L257.863 156.896ZM263.641 161.257C264.593 161.257 265.09 160.745 265.261 160.39H265.303V161.129H266.141V157.535C266.141 155.802 264.82 155.603 264.124 155.603C263.3 155.603 262.363 155.887 261.937 156.882L262.732 157.166C262.917 156.768 263.354 156.342 264.153 156.342C264.923 156.342 265.303 156.75 265.303 157.45V157.478C265.303 157.883 264.891 157.848 263.897 157.975C262.885 158.107 261.78 158.331 261.78 159.581C261.78 160.646 262.604 161.257 263.641 161.257ZM263.769 160.504C263.101 160.504 262.618 160.206 262.618 159.623C262.618 158.984 263.201 158.785 263.854 158.7C264.209 158.657 265.161 158.558 265.303 158.387V159.154C265.303 159.836 264.763 160.504 263.769 160.504ZM269.873 163.288C271.179 163.288 272.231 162.691 272.231 161.285V155.674H271.421V156.541H271.336C271.151 156.257 270.81 155.603 269.745 155.603C268.367 155.603 267.415 156.697 267.415 158.373C267.415 160.078 268.409 161.044 269.731 161.044C270.796 161.044 271.137 160.419 271.321 160.12H271.392V161.228C271.392 162.137 270.753 162.549 269.873 162.549C268.882 162.549 268.534 162.027 268.31 161.725L267.642 162.194C267.983 162.766 268.655 163.288 269.873 163.288ZM269.844 160.291C268.793 160.291 268.253 159.495 268.253 158.359C268.253 157.251 268.779 156.356 269.844 156.356C270.867 156.356 271.407 157.18 271.407 158.359C271.407 159.566 270.853 160.291 269.844 160.291ZM275.981 161.243C277.458 161.243 278.452 160.12 278.452 158.43C278.452 156.725 277.458 155.603 275.981 155.603C274.503 155.603 273.509 156.725 273.509 158.43C273.509 160.12 274.503 161.243 275.981 161.243ZM275.981 160.49C274.858 160.49 274.347 159.524 274.347 158.43C274.347 157.336 274.858 156.356 275.981 156.356C277.103 156.356 277.614 157.336 277.614 158.43C277.614 159.524 277.103 160.49 275.981 160.49Z" fill="#808080" fill-opacity="0.9"/>
<g clip-path="url(#clip0_305_640)">
<path d="M129.888 116.018L128.19 122.897L126.812 128.478L125.714 132.929L124.337 138.509L119.838 156.742L64.0818 133.526L59.9834 131.819L54.7956 129.659L50.6957 127.952L45.7646 125.898L48.5602 122.233L50.8848 119.186L53.8257 115.33L56.1497 112.285L82.3018 78L110.006 100.134L114.939 104.075L118.873 107.218L123.807 111.16L129.888 116.018Z" fill="#F2F2F2"/>
<path d="M48.8434 136.257C45.1151 134.384 42.7941 131.827 41.9448 128.657C41.3142 126.303 41.4954 123.655 42.4833 120.785C43.2157 118.669 44.3137 116.671 45.737 114.863C53.2876 105.232 53.969 98.9571 53.2111 95.3886C52.3802 91.4758 49.6804 89.8508 49.6532 89.8348L49.7698 89.6733C49.7976 89.6897 52.5686 91.3524 53.4195 95.3446C53.9101 97.6461 53.6793 100.27 52.7335 103.145C51.5565 106.722 49.2613 110.702 45.9116 114.974C44.5013 116.765 43.4133 118.746 42.6875 120.842C41.0673 125.549 40.838 132.015 48.9475 136.089L48.8434 136.257Z" fill="#2F2E41"/>
<path d="M50.6366 136.257C54.3649 134.384 56.6859 131.827 57.5352 128.657C58.1658 126.303 57.9846 123.655 56.9967 120.785C56.2643 118.669 55.1663 116.671 53.743 114.863C46.1925 105.232 45.511 98.9571 46.2689 95.3886C47.0998 91.4758 49.7996 89.8508 49.8268 89.8348L49.7103 89.6733C49.6824 89.6897 46.9115 91.3524 46.0605 95.3446C45.57 97.6461 45.8008 100.27 46.7465 103.145C47.9235 106.722 50.2188 110.702 53.5684 114.974C54.9787 116.765 56.0667 118.746 56.7925 120.842C58.4128 125.549 58.642 132.015 50.5325 136.089L50.6366 136.257Z" fill="#2F2E41"/>
<path d="M131.898 128.166C128.169 126.293 125.848 123.736 124.999 120.566C124.368 118.213 124.55 115.564 125.538 112.694C126.27 110.578 127.368 108.58 128.791 106.772C136.342 97.1415 137.023 90.8662 136.265 87.2977C135.434 83.385 132.735 81.76 132.707 81.744L132.824 81.5825C132.852 81.5988 135.623 83.2616 136.474 87.2538C136.964 89.5553 136.733 92.1796 135.788 95.0538C134.611 98.6308 132.315 102.611 128.966 106.883C127.556 108.674 126.467 110.655 125.742 112.751C124.121 117.458 123.892 123.924 132.002 127.998L131.898 128.166Z" fill="#2F2E41"/>
<path d="M133.691 128.166C137.419 126.293 139.74 123.736 140.589 120.566C141.22 118.213 141.039 115.564 140.051 112.694C139.319 110.578 138.22 108.58 136.797 106.772C129.247 97.1415 128.565 90.8662 129.323 87.2977C130.154 83.385 132.854 81.76 132.881 81.744L132.764 81.5825C132.737 81.5988 129.966 83.2616 129.115 87.2538C128.624 89.5553 128.855 92.1796 129.801 95.0538C130.978 98.6308 133.273 102.611 136.623 106.883C138.033 108.674 139.121 110.655 139.847 112.751C141.467 117.458 141.696 123.924 133.587 127.998L133.691 128.166Z" fill="#2F2E41"/>
<path d="M77.005 106.89C74.2037 102.625 68.6616 102.426 68.6616 102.426C68.6616 102.426 63.2612 101.804 59.7968 108.3C56.5677 114.354 52.1112 120.2 59.0793 121.618L60.338 118.088L61.1174 121.881C62.1096 121.945 63.1049 121.96 64.0988 121.926C71.5611 121.709 78.6678 121.99 78.439 119.577C78.1348 116.369 79.7004 110.994 77.005 106.89Z" fill="#2F2E41"/>
<path d="M65.5068 115.817C66.4721 117.741 67.0808 120.034 67.4442 122.582L75.1937 122.145C73.412 119.871 72.8205 117.259 73.4985 114.29L65.5068 115.817Z" fill="#FFB8B8"/>
<path opacity="0.2" d="M65.5068 115.817C66.4721 117.741 67.0808 120.034 67.4442 122.582L75.1937 122.145C73.412 119.871 72.8205 117.259 73.4985 114.29L65.5068 115.817Z" fill="black"/>
<path d="M29.5517 152.449C29.5517 152.449 25.5409 154.385 27.5762 156.038C29.6115 157.691 32.3 153.85 32.3 153.85L29.5517 152.449Z" fill="#FFB8B8"/>
<path d="M78.5846 146.804L78.5219 149.449L78.3882 155.163V155.164L78.3493 156.819H52.7007L53.7431 151.603L53.7441 151.6L54.6775 146.931L55.0941 144.841V144.84L76.1631 142.221L78.5846 146.804Z" fill="#2F2E41"/>
<path d="M78.5844 146.804L78.5214 149.449C71.0674 149.277 59.5134 147.655 54.6772 146.931L55.0938 144.84L76.1627 142.222L78.5844 146.804Z" fill="#3F3D56"/>
<path d="M69.2608 117.672C72.6045 117.672 75.3151 115.229 75.3151 112.216C75.3151 109.203 72.6045 106.761 69.2608 106.761C65.9171 106.761 63.2065 109.203 63.2065 112.216C63.2065 115.229 65.9171 117.672 69.2608 117.672Z" fill="#FFB8B8"/>
<path d="M80.8852 149.75C80.8852 149.75 81.6118 155.642 77.2527 155.206L76.5261 149.314L72.6514 145.822L61.7537 145.604L53.762 152.369C53.762 152.369 53.5199 145.386 54.4885 144.731C55.4572 144.076 57.6368 142.549 57.6368 142.549V141.458L51.0981 129.456C51.0981 129.456 54.9729 122.254 58.1211 122.036L62.238 121.818C62.238 121.818 63.6911 121.163 63.6911 120.945C63.6911 120.727 63.4489 118.981 64.6597 119.417C64.6597 119.417 64.7687 117.179 66.045 117.862C66.045 117.862 70.0626 120.698 74.1408 117.986C74.1408 117.986 76.0418 117.672 75.7996 118.545C75.5575 119.417 75.7996 120.072 76.284 120.072C76.7683 120.072 78.9479 120.727 78.9479 121.163C78.9479 121.257 79.1053 122.16 79.3523 123.52V123.522C80.2508 128.478 82.3383 139.494 82.3383 139.494C82.3383 139.494 84.5178 142.331 80.8852 149.75Z" fill="#DA70D6"/>
<path d="M52.7932 128.365L51.098 129.456L35.5991 147.35L27.3652 153.242C27.3652 153.242 31.9665 152.587 30.9978 156.079L59.3319 141.458L52.7932 128.365Z" fill="#DA70D6"/>
<path d="M79.352 123.52V123.522C79.03 125.229 68.5342 124.873 67.0812 124.873C65.6282 124.873 64.4173 124.655 62.9643 123.782C61.5113 122.909 62.2378 121.818 62.2378 121.818C62.2378 121.818 63.475 120.969 63.475 120.751C63.475 120.532 63.2328 118.787 64.4437 119.223C64.4437 119.223 64.5526 116.984 65.8289 117.667C65.8289 117.667 70.0623 120.699 74.1405 117.986C74.1405 117.986 76.0415 117.672 75.7994 118.545C75.5572 119.418 75.7994 120.072 76.2837 120.072C76.7681 120.072 78.9476 120.727 78.9476 121.163C78.9476 121.257 79.105 122.161 79.352 123.52Z" fill="#3F3D56"/>
<path d="M78.1002 115.38C78.1002 115.38 76.1628 111.671 74.2254 113.416C72.288 115.162 76.405 117.781 76.405 117.781L78.1002 115.38Z" fill="#FFB8B8"/>
<path d="M78.1001 114.508C78.1001 114.508 75.1085 117.915 74.1826 118.175C74.1826 118.175 76.8893 127.819 80.2797 130.438L82.2171 139.385C82.2171 139.385 90.4509 136.33 88.5135 131.311C88.4941 131.261 88.4749 131.211 88.4557 131.161C86.838 126.981 84.6056 123.016 81.8179 119.371L78.1001 114.508Z" fill="#DA70D6"/>
<path opacity="0.2" d="M76.5015 124.612L82.4592 139.385L80.2797 130.438L76.5015 124.612Z" fill="black"/>
<path d="M75.7665 106.479L70.2911 103.895L62.73 104.952L61.1655 111.178L65.0598 111.043L66.1477 108.756V111.006L67.9445 110.943L68.9875 107.302L69.6393 111.178L76.0272 111.061L75.7665 106.479Z" fill="#2F2E41"/>
<path d="M127.491 140.062L130.598 150.047C130.598 150.047 129.958 158.892 132.945 157.162C136.002 155.391 134.865 147.932 134.865 147.932L133.075 138.974L127.491 140.062Z" fill="#FFB8B8"/>
<path d="M129.151 112.05L131.716 114.362V125.376C131.716 125.376 133.225 127.416 132.924 127.96C132.622 128.504 132.32 128.504 132.622 128.912C132.924 129.32 133.225 129.592 132.924 129.864C132.622 130.136 132.622 130.815 132.924 131.087C133.225 131.359 133.829 131.767 133.376 132.175C132.924 132.583 132.32 132.311 132.924 133.807C133.527 135.303 134.583 135.711 134.282 136.255C133.98 136.799 133.98 138.158 133.98 138.158L127.491 138.974L126.133 123.609L129.151 112.05Z" fill="#A9BEF3"/>
<path d="M134.282 138.022L126.736 138.294L127.038 141.15L133.678 140.062L134.282 138.022Z" fill="#3F3D56"/>
<path d="M113.532 97.8403L112.627 105.999L121.832 107.223L122.511 102.532L123.19 97.8403H113.532Z" fill="#A0616A"/>
<path opacity="0.1" d="M113.532 97.7964L112.627 105.955L121.832 107.179L122.511 102.488L123.19 97.7964H113.532Z" fill="#FFB8B8"/>
<path d="M93.5376 136.662L98.6683 146.589C98.6683 146.589 99.5738 151.212 100.932 151.348C102.29 151.484 103.648 146.589 103.648 146.589L101.837 144.005L99.7247 136.662H93.5376Z" fill="#FFB8B8"/>
<path d="M128.659 156.916H99.6523C99.8822 153.64 100.027 151.62 100.027 151.62L100.412 151.074L102.28 148.429L103.614 146.54L104.079 145.881L104.251 145.637L106.078 145.337L124.926 142.238C125.237 143.496 125.678 144.724 126.243 145.908C126.371 146.172 126.51 146.435 126.657 146.696C127.131 147.529 127.71 148.319 128.397 148.9C128.553 149.033 128.667 149.386 128.74 149.928C128.921 151.257 128.87 153.729 128.659 156.916Z" fill="#2F2E41"/>
<path d="M118.588 100.492C122.588 100.492 125.831 97.5698 125.831 93.965C125.831 90.3602 122.588 87.438 118.588 87.438C114.587 87.438 111.344 90.3602 111.344 93.965C111.344 97.5698 114.587 100.492 118.588 100.492Z" fill="#FFB8B8"/>
<path d="M102.441 107.291L101.385 106.747C101.385 106.747 96.7066 109.603 95.1975 115.994C93.6885 122.385 92.6321 124.016 92.6321 124.016C92.6321 124.016 91.1231 124.288 92.1794 125.24C93.2358 126.192 93.2358 126.056 92.3303 126.6C91.4249 127.144 90.8213 126.056 91.4249 127.144C92.0285 128.232 92.7831 127.96 92.1794 128.64C91.5758 129.32 90.5195 129.32 91.1231 129.864C91.7267 130.407 90.5195 131.631 91.274 132.175C92.0285 132.719 92.3303 132.855 92.3303 133.807C92.3257 134.362 92.4278 134.914 92.6321 135.439H100.479C100.479 135.439 98.9701 132.855 99.4228 132.311C99.8755 131.767 100.026 131.223 99.7246 130.951C99.4228 130.679 98.5174 131.223 99.4228 130.543C100.328 129.864 100.63 130.271 100.328 129.456C100.026 128.64 99.4228 129.048 100.026 128.64C100.63 128.232 101.083 128.368 100.781 127.96C100.479 127.552 99.8755 127.552 100.479 127.28C101.083 127.008 101.535 127.28 101.385 126.6C101.234 125.92 101.083 126.192 101.385 125.92C101.686 125.648 104.855 116.402 104.855 116.13C104.855 115.858 102.441 107.291 102.441 107.291Z" fill="#A9BEF3"/>
<path d="M100.932 134.895L91.4248 135.438L93.8393 137.478L100.479 137.614L100.932 134.895Z" fill="#3F3D56"/>
<path d="M103.648 145.093L101.687 148.357C101.687 148.357 107.572 149.037 109.684 149.717C111.797 150.396 117.23 151.348 117.23 151.348L118.588 146.589L103.648 145.093Z" fill="#3F3D56"/>
<path d="M120.851 146.589L122.511 151.076L129.151 149.853L128.396 145.637L120.851 146.589Z" fill="#3F3D56"/>
<path d="M123.568 102.667C123.568 102.667 123.115 102.396 122.059 102.939C121.002 103.483 117.532 103.755 115.872 102.124C114.212 100.492 113.004 99.132 112.552 99.404C112.099 99.6759 111.797 102.803 111.797 102.803L110.288 103.891L101.385 106.747L102.139 125.104L103.497 129.319C103.497 129.319 102.441 132.583 103.799 134.487C105.157 136.39 103.045 137.07 103.045 137.07C103.045 137.07 102.592 137.614 102.894 138.974C103.196 140.334 102.592 145.365 102.592 145.365C102.592 145.365 115.419 150.532 128.849 146.045L127.34 140.878L126.586 129.319C126.586 129.319 127.34 127.416 127.189 126.6C127.038 125.784 131.717 114.362 131.717 114.362C131.717 114.362 130.962 108.651 127.038 107.427C123.115 106.203 122.511 104.979 122.511 104.979C122.511 104.979 124.322 103.211 123.568 102.667Z" fill="#A9BEF3"/>
<path d="M111.294 94.8009C111.294 94.8009 110.542 93.7842 110.831 92.6893C111.004 92.0676 111.072 91.4261 111.034 90.7862C111.034 90.7862 111.641 89.0135 112.249 88.0229C112.856 87.0323 112.567 86.6152 114.477 86.3024C116.386 85.9895 115.605 83.7476 120.639 86.172C120.809 86.3857 121.045 86.5492 121.318 86.642C121.591 86.7348 121.888 86.7527 122.172 86.6934C123.214 86.5109 123.59 87.8144 123.59 87.8144C123.59 87.8144 124.284 87.4494 124.544 87.9708C124.805 88.4922 126.661 87.6578 126.661 91.1772C126.661 94.6965 124.549 97.8401 124.549 97.8401C124.549 97.8401 124.703 91.9202 121.261 91.3206C117.818 90.7211 114.115 88.9744 113.218 91.2164C112.321 93.4583 111.294 94.8009 111.294 94.8009Z" fill="#2F2E41"/>
<path d="M124.624 96.2084C124.999 96.2084 125.303 95.8431 125.303 95.3925C125.303 94.9419 124.999 94.5767 124.624 94.5767C124.249 94.5767 123.945 94.9419 123.945 95.3925C123.945 95.8431 124.249 96.2084 124.624 96.2084Z" fill="#FFB8B8"/>
</g>
<defs>
<filter id="filter0_d_305_640" x="0" y="0" width="298" height="191" filterUnits="userSpaceOnUse" color-interpolation-filters="sRGB">
<feFlood flood-opacity="0" result="BackgroundImageFix"/>
<feColorMatrix in="SourceAlpha" type="matrix" values="0 0 0 0 0 0 0 0 0 0 0 0 0 0 0 0 0 0 127 0" result="hardAlpha"/>
<feOffset dy="1"/>
<feGaussianBlur stdDeviation="2.5"/>
<feComposite in2="hardAlpha" operator="out"/>
<feColorMatrix type="matrix" values="0 0 0 0 0 0 0 0 0 0 0 0 0 0 0 0 0 0 0.25 0"/>
<feBlend mode="normal" in2="BackgroundImageFix" result="effect1_dropShadow_305_640"/>
<feBlend mode="normal" in="SourceGraphic" in2="effect1_dropShadow_305_640" result="shape"/>
</filter>
<clipPath id="clip0_305_640">
<rect width="113.957" height="79.386" fill="white" transform="translate(27 78)"/>
</clipPath>
</defs>
</svg>
