<svg width="121" height="86" viewBox="0 0 121 86" fill="none" xmlns="http://www.w3.org/2000/svg">
<g clip-path="url(#clip0_44_3484)">
<path opacity="0.1" d="M119.084 57.8173C116.277 63.5663 110.579 67.4105 104.673 69.9457C96.7229 73.3599 87.9677 74.714 79.3329 74.1413C77.8197 74.0413 76.311 73.8815 74.8069 73.662C69.5832 72.9052 64.4904 71.4325 59.6741 69.286C58.2841 68.6643 56.9223 67.9857 55.5886 67.2501C53.361 66.024 51.2266 64.6378 49.2025 63.1027C48.6934 62.7167 48.1914 62.3209 47.6963 61.9154C47.3531 61.6343 47.013 61.3469 46.6676 61.0679C45.9388 60.4794 45.1888 59.9204 44.3523 59.5019C44.0999 59.3755 43.8411 59.2621 43.577 59.162C40.9279 58.1614 37.8733 58.539 35.1154 59.3194C33.0177 59.913 30.9729 60.7259 28.8773 61.306C27.9451 61.5718 26.9953 61.7723 26.0349 61.9059C23.8906 62.1755 21.713 61.9856 19.6489 61.349L19.4725 61.2944C19.1767 61.2021 18.8834 61.1011 18.5926 60.9913L18.4162 60.9242C18.1346 60.8165 17.8589 60.7008 17.5892 60.577L17.4128 60.4973C17.1311 60.3672 16.8555 60.2298 16.5858 60.0851C16.4886 60.0347 16.3925 59.9802 16.2974 59.9288C14.763 59.0777 13.3682 57.9993 12.1612 56.7307C12.1263 56.6961 12.0936 56.6604 12.0555 56.6258C11.8876 56.4454 11.7228 56.2618 11.5633 56.0741C11.5042 56.0048 11.445 55.9356 11.3869 55.8643C11.1975 55.6349 11.0148 55.4003 10.8388 55.1605C10.8123 55.1259 10.787 55.0902 10.7616 55.0556C10.0404 54.0647 9.44245 52.9909 8.98082 51.8575C8.96603 51.8229 8.9523 51.7872 8.93963 51.7526C8.7988 51.3925 8.67029 51.0264 8.5541 50.6544C8.50657 50.4992 8.46115 50.3398 8.42101 50.1845C8.40728 50.1384 8.39461 50.0912 8.38299 50.045C7.79994 47.7658 7.7334 45.3963 7.7334 43.0405C7.7334 42.7657 7.7334 42.4912 7.7334 42.2171C7.7503 38.4065 7.80945 34.5308 8.37559 30.7726C8.37559 30.7464 8.38299 30.7202 8.38721 30.695C8.5767 29.4298 8.83444 28.1756 9.15933 26.9378C9.49935 25.6391 9.93391 24.3666 10.4596 23.1304C11.7619 20.0886 13.6558 17.3205 15.7587 14.7549C21.0558 8.29897 28.0027 2.87933 36.1337 0.850763C44.8952 -1.33409 54.6327 0.759509 61.7 6.34698C63.8547 8.05038 65.7908 10.0674 68.2107 11.3733C70.3232 12.5103 72.7958 12.9812 75.0583 12.0865C76.9279 11.3471 78.1447 10.9799 80.2445 11.0922C84.5916 11.3364 88.877 12.2278 92.9574 13.7364C93.1222 13.7962 93.287 13.8581 93.4507 13.92C104.088 17.9614 113.232 25.9907 117.985 36.3087C118.111 36.5814 118.233 36.8562 118.352 37.1331C121.185 43.7065 122.21 51.4107 119.084 57.8173Z" fill="#6C63FF"/>
<path opacity="0.1" d="M12.7063 77.932C17.8561 77.932 22.0309 77.2661 22.0309 76.4447C22.0309 75.6232 17.8561 74.9573 12.7063 74.9573C7.55656 74.9573 3.38184 75.6232 3.38184 76.4447C3.38184 77.2661 7.55656 77.932 12.7063 77.932Z" fill="#6C63FF"/>
<path opacity="0.1" d="M96.3566 86.0002C105.488 86.0002 112.89 85.2864 112.89 84.4059C112.89 83.5254 105.488 82.8116 96.3566 82.8116C87.2255 82.8116 79.8232 83.5254 79.8232 84.4059C79.8232 85.2864 87.2255 86.0002 96.3566 86.0002Z" fill="#6C63FF"/>
<path d="M111.326 11.3018H13.5868C12.8582 11.3018 12.2676 11.8884 12.2676 12.6119V66.457C12.2676 67.1805 12.8582 67.7671 13.5868 67.7671H111.326C112.055 67.7671 112.645 67.1805 112.645 66.457V12.6119C112.645 11.8884 112.055 11.3018 111.326 11.3018Z" fill="url(#paint0_linear_44_3484)"/>
<path d="M111.178 12.0958H13.746C13.0174 12.0958 12.4268 12.6823 12.4268 13.4059V66.2692C12.4268 66.9927 13.0174 67.5792 13.746 67.5792H111.178C111.907 67.5792 112.497 66.9927 112.497 66.2692V13.4059C112.497 12.6823 111.907 12.0958 111.178 12.0958Z" fill="white"/>
<path d="M111.178 12.0958H13.746C13.0174 12.0958 12.4268 12.6823 12.4268 13.4059V66.2692C12.4268 66.9927 13.0174 67.5792 13.746 67.5792H111.178C111.907 67.5792 112.497 66.9927 112.497 66.2692V13.4059C112.497 12.6823 111.907 12.0958 111.178 12.0958Z" fill="white"/>
<path opacity="0.04" d="M111.178 12.0958H13.746C13.0174 12.0958 12.4268 12.6823 12.4268 13.4059V66.2692C12.4268 66.9927 13.0174 67.5792 13.746 67.5792H111.178C111.907 67.5792 112.497 66.9927 112.497 66.2692V13.4059C112.497 12.6823 111.907 12.0958 111.178 12.0958Z" fill="white"/>
<path d="M111.989 11.4592H12.9348C12.8001 11.4592 12.6708 11.5123 12.5756 11.6069C12.4803 11.7016 12.4268 11.8299 12.4268 11.9637V14.0961H112.493V11.9637C112.493 11.8306 112.44 11.7029 112.346 11.6084C112.251 11.5139 112.123 11.4603 111.989 11.4592Z" fill="#5A5773"/>
<path d="M14.4248 13.4594C14.804 13.4594 15.1114 13.1541 15.1114 12.7776C15.1114 12.401 14.804 12.0958 14.4248 12.0958C14.0457 12.0958 13.7383 12.401 13.7383 12.7776C13.7383 13.1541 14.0457 13.4594 14.4248 13.4594Z" fill="white"/>
<path d="M16.2735 13.4594C16.6526 13.4594 16.96 13.1541 16.96 12.7776C16.96 12.401 16.6526 12.0958 16.2735 12.0958C15.8943 12.0958 15.5869 12.401 15.5869 12.7776C15.5869 13.1541 15.8943 13.4594 16.2735 13.4594Z" fill="white"/>
<path d="M18.1221 13.4594C18.5013 13.4594 18.8087 13.1541 18.8087 12.7776C18.8087 12.401 18.5013 12.0958 18.1221 12.0958C17.7429 12.0958 17.4355 12.401 17.4355 12.7776C17.4355 13.1541 17.7429 13.4594 18.1221 13.4594Z" fill="white"/>
<path opacity="0.2" d="M47.5239 19.0554H20.6689V21.3189H47.5239V19.0554Z" fill="#6C63FF"/>
<path opacity="0.1" d="M104.256 28.1314H20.6689V62.9506H104.256V28.1314Z" fill="#5A5773"/>
<path opacity="0.1" d="M69.6093 30.4023H68.1781V27.6416C68.1781 24.5263 65.6769 21.9366 62.5399 21.8894C61.7834 21.8815 61.0329 22.0224 60.3315 22.3038C59.6301 22.5853 58.9918 23.0018 58.4532 23.5294C57.9147 24.057 57.4866 24.6852 57.1937 25.3778C56.9007 26.0704 56.7487 26.8138 56.7464 27.565V30.4023H55.3184C54.6873 30.4042 54.0826 30.654 53.6363 31.0972C53.19 31.5403 52.9385 32.1408 52.9365 32.7675V44.1187C52.9385 44.7454 53.19 45.3459 53.6363 45.789C54.0826 46.2322 54.6873 46.482 55.3184 46.4839H69.6093C70.2403 46.482 70.8449 46.2321 71.291 45.789C71.7371 45.3458 71.9884 44.7453 71.9901 44.1187V32.7675C71.9884 32.1409 71.7371 31.5404 71.291 31.0972C70.8449 30.654 70.2403 30.4042 69.6093 30.4023ZM63.2983 37.7812V41.8468C63.2996 42.062 63.2186 42.2698 63.0715 42.4279C62.9244 42.5861 62.7223 42.6828 62.5061 42.6985C62.3932 42.7037 62.2804 42.6862 62.1746 42.6469C62.0687 42.6076 61.972 42.5474 61.8903 42.47C61.8085 42.3925 61.7434 42.2994 61.6989 42.1962C61.6545 42.0931 61.6315 41.982 61.6315 41.8698V37.7791C61.2451 37.592 60.934 37.2804 60.7489 36.895C60.5638 36.5097 60.5157 36.0735 60.6124 35.6575C60.7091 35.2415 60.9449 34.8704 61.2813 34.6046C61.6178 34.3388 62.035 34.1942 62.4649 34.1942C62.8948 34.1942 63.312 34.3388 63.6485 34.6046C63.9849 34.8704 64.2207 35.2415 64.3174 35.6575C64.4141 36.0735 64.366 36.5097 64.1809 36.895C63.9958 37.2804 63.6847 37.592 63.2983 37.7791V37.7812ZM66.5135 30.4023H58.4131V27.565C58.4131 26.4987 58.8397 25.4761 59.5989 24.7221C60.3582 23.9682 61.388 23.5446 62.4617 23.5446C63.5355 23.5446 64.5652 23.9682 65.3245 24.7221C66.0838 25.4761 66.5103 26.4987 66.5103 27.565L66.5135 30.4023Z" fill="black"/>
<path d="M69.6093 30.1925H68.1781V27.4318C68.1781 24.3166 65.6769 21.7268 62.5399 21.6796C61.7834 21.6717 61.0329 21.8126 60.3315 22.0941C59.6301 22.3755 58.9918 22.7921 58.4532 23.3196C57.9147 23.8472 57.4866 24.4754 57.1937 25.168C56.9007 25.8606 56.7487 26.604 56.7464 27.3552V30.1925H55.3184C54.6873 30.1944 54.0826 30.4442 53.6363 30.8874C53.19 31.3305 52.9385 31.931 52.9365 32.5577V43.9089C52.9385 44.5356 53.19 45.1361 53.6363 45.5792C54.0826 46.0224 54.6873 46.2722 55.3184 46.2741H69.6093C70.2403 46.2722 70.8449 46.0223 71.291 45.5792C71.7371 45.136 71.9884 44.5355 71.9901 43.9089V32.5577C71.9884 31.9311 71.7371 31.3306 71.291 30.8874C70.8449 30.4443 70.2403 30.1944 69.6093 30.1925V30.1925ZM63.2983 37.5714V41.637C63.2996 41.8522 63.2186 42.06 63.0715 42.2181C62.9244 42.3763 62.7223 42.473 62.5061 42.4887C62.3932 42.4939 62.2804 42.4764 62.1746 42.4371C62.0687 42.3978 61.972 42.3376 61.8903 42.2602C61.8085 42.1827 61.7434 42.0896 61.6989 41.9864C61.6545 41.8833 61.6315 41.7722 61.6315 41.66V37.5693C61.2451 37.3822 60.934 37.0706 60.7489 36.6852C60.5638 36.2999 60.5157 35.8637 60.6124 35.4477C60.7091 35.0317 60.9449 34.6606 61.2813 34.3948C61.6178 34.1291 62.035 33.9844 62.4649 33.9844C62.8948 33.9844 63.312 34.1291 63.6485 34.3948C63.9849 34.6606 64.2207 35.0317 64.3174 35.4477C64.4141 35.8637 64.366 36.2999 64.1809 36.6852C63.9958 37.0706 63.6847 37.3822 63.2983 37.5693V37.5714ZM66.5135 30.1925H58.4131V27.3552C58.4131 26.2889 58.8397 25.2663 59.5989 24.5123C60.3582 23.7584 61.388 23.3348 62.4617 23.3348C63.5355 23.3348 64.5652 23.7584 65.3245 24.5123C66.0838 25.2663 66.5103 26.2889 66.5103 27.3552L66.5135 30.1925Z" fill="#6C63FF"/>
<path opacity="0.1" d="M104.255 24.7802H95.7949V26.7636H104.255V24.7802Z" fill="#5A5773"/>
<path d="M107.135 84.8861C107.079 84.608 106.984 84.3393 106.852 84.0879L105.584 82.2083H105.591C105.591 82.2083 105.392 81.2643 105.591 80.8006C105.791 80.337 104.88 79.1969 104.88 79.1969C104.88 79.1969 104.769 78.9105 105.058 78.5581C105.347 78.2057 104.88 77.1736 104.88 77.1736C104.88 77.1736 104.658 75.0181 104.636 74.6887C104.613 74.3594 104.435 72.5343 104.435 72.5343L104.012 68.6649L103.26 58.4099L103.247 58.2179C103.34 58.1728 103.389 58.1445 103.389 58.1445L103.239 52.4742L103.369 52.3578C104.504 51.3382 107.12 48.9782 107.093 48.9268C107.067 48.8754 106.777 44.9861 106.743 44.0127C106.714 43.321 106.561 42.6399 106.293 42.001C106.227 41.8719 106.038 41.0213 105.96 40.6615C105.939 40.5629 105.925 40.501 105.925 40.501C105.925 40.501 105.158 39.0494 105.225 38.3896C105.291 37.7299 105.425 37.2358 103.789 37.0051C103.789 37.0051 102.416 36.8016 101.599 36.2467C101.115 35.9143 100.587 35.6516 100.029 35.4663C100.029 35.4663 99.5709 34.6272 99.2519 34.9115C99.1168 34.612 99.0158 34.2986 98.9509 33.9769L98.9413 33.9182C99.5469 33.4989 99.9826 32.8795 100.171 32.1707C100.181 32.1308 100.19 32.0899 100.199 32.0501C100.231 32.0607 100.264 32.0668 100.298 32.0679C100.575 32.0679 100.746 31.7606 101.006 31.663C101.112 31.6221 101.242 31.6158 101.323 31.533C101.35 31.501 101.37 31.464 101.382 31.4242C101.394 31.3843 101.398 31.3425 101.393 31.3012C101.396 31.2726 101.396 31.2438 101.393 31.2152C101.393 31.205 101.393 31.1949 101.393 31.1847V31.1952C101.322 30.8134 101.024 30.4746 101.057 30.0865C101.089 29.7215 101.412 29.4006 101.385 29.045C101.385 29.0169 101.383 28.9888 101.378 28.9611V28.9737C101.339 28.8348 101.266 28.7075 101.167 28.6024C101.053 28.4485 100.904 28.3241 100.732 28.2394C100.585 28.1755 100.415 28.1608 100.277 28.0842C99.874 27.866 99.8751 27.2975 99.6353 26.9094C99.5326 26.7474 99.3868 26.6167 99.214 26.5318C99.0412 26.4468 98.8482 26.4109 98.6562 26.428C98.3562 26.4574 98.0847 26.6158 97.7879 26.6671C97.3823 26.7385 96.9693 26.6074 96.5849 26.4574C96.2004 26.3074 95.8107 26.1427 95.3977 26.1427C94.9847 26.1427 94.5379 26.3525 94.4132 26.7395C94.3467 26.9493 94.3794 27.1748 94.3287 27.3877C94.2379 27.7632 93.9062 28.0318 93.563 28.2185C93.3517 28.3349 93.1003 28.4681 93.0348 28.6884C93.0348 28.6821 93.0348 28.6768 93.0348 28.6716C93.0301 28.6892 93.0266 28.707 93.0243 28.7251C93.0222 28.7485 93.0222 28.772 93.0243 28.7954C93.0243 28.9464 93.1046 29.0901 93.1584 29.2338C93.2588 29.5072 93.2566 29.8073 93.1521 30.0792C93.0739 30.2785 92.9408 30.4537 92.8648 30.6519C92.829 30.7442 92.8055 30.8409 92.7951 30.9393V30.9225C92.7925 30.9672 92.7925 31.0121 92.7951 31.0568C92.7938 31.21 92.83 31.3612 92.9007 31.4973C92.9492 31.5913 93.0161 31.6748 93.0975 31.7427C93.179 31.8106 93.2733 31.8616 93.375 31.8927C93.5862 31.941 93.7182 31.7354 93.9411 31.7879C93.981 31.7974 94.0202 31.8097 94.0583 31.8246C94.0657 31.8718 94.0731 31.919 94.0816 31.9651C94.2163 32.671 94.5952 33.308 95.1526 33.7661C95.1526 33.7912 95.1611 33.8164 95.1642 33.8426C95.2317 34.2608 95.261 34.6842 95.2519 35.1076C95.2519 35.1076 94.9192 34.6241 94.4629 35.5576C94.4629 35.5576 93.2725 36.2394 92.8616 36.317C92.4507 36.3946 90.9921 36.8991 90.9921 36.8991C90.7721 37.0571 90.5073 37.1419 90.2358 37.1414C89.7806 37.1414 89.4024 38.1305 89.4574 38.6686C89.5123 39.2067 89.4246 39.6032 89.0011 39.6252C88.5775 39.6472 88.8088 40.5 88.812 40.5147L88.7729 40.6982C88.6905 41.0737 88.511 41.8793 88.4476 42.0052C88.179 42.6441 88.0263 43.3252 87.9966 44.0169C87.9638 44.9903 87.6797 48.8649 87.647 48.931C87.6248 48.974 89.4172 50.6008 90.6773 51.7379L90.86 51.9015L90.2802 57.2802C90.2971 57.4875 90.3591 57.6886 90.462 57.8697C90.5648 58.0508 90.706 58.2075 90.8759 58.3291C90.8759 58.392 90.8759 58.456 90.8696 58.5221C90.8442 59.1514 90.7935 59.9129 90.6921 60.1122C90.5147 60.4647 90.559 62.3548 90.559 62.3548C90.559 62.3548 90.3805 66.2021 90.1587 66.6206C89.9369 67.0391 89.8915 67.9171 89.958 68.0891C90.0246 68.2611 89.7351 72.8815 89.7351 72.8815L89.5133 74.9489C89.5133 74.9489 89.5799 76.9271 89.3792 76.9711C89.1785 77.0152 89.0676 78.3787 89.0676 78.3787C89.0676 78.3787 88.3568 79.3458 88.6673 79.6972C88.9778 80.0486 88.6219 80.2038 88.5891 80.2909C88.5564 80.3779 87.911 80.7104 88.3779 81.9397C88.3822 81.9519 88.3871 81.9638 88.3927 81.9754C87.9554 82.5785 86.5696 84.5242 86.6541 84.82C86.7165 85.0082 86.8486 85.1657 87.0238 85.2606C87.3502 85.4546 87.91 85.5448 88.8004 85.2606C90.2791 84.7875 90.1735 84.4466 90.1735 84.4466C90.1811 84.2872 90.2499 84.1368 90.3659 84.0264C90.4818 83.9159 90.636 83.8538 90.7967 83.8529C91.4082 83.8089 91.8645 83.2488 91.8645 83.2488L91.7927 82.9834L91.6945 82.6163C91.7061 82.5114 91.7811 82.3278 92.117 82.2261C92.6293 82.0719 92.4951 81.1048 92.4951 81.1048C92.4951 81.1048 92.4507 80.0937 92.6726 79.9615C92.8944 79.8294 92.8067 78.1585 92.8067 78.1585C92.8067 78.1585 93.0517 76.9491 93.4066 76.1352C93.7615 75.3212 94.1861 70.4858 94.1861 70.4858C94.1861 70.4858 94.4745 68.1111 94.7417 67.4293C95.009 66.7476 95.254 64.8354 95.254 64.8354C95.254 64.8354 96.9007 61.6688 96.9218 60.965C96.9218 60.965 97.1331 60.3052 97.3443 61.0311C97.5556 61.7569 98.1492 63.4939 98.1492 63.4939L98.7269 65.6263L99.4167 68.8139L99.8624 71.4969C99.8624 71.4969 99.7948 72.5081 99.968 72.8605C100.141 73.2129 100.391 74.0248 100.257 74.179C100.124 74.3332 100.524 75.059 100.636 75.2121C100.748 75.3653 100.636 78.62 100.636 78.62C100.636 78.62 101.147 81.3901 101.881 81.8716C101.932 81.905 101.987 81.9331 102.044 81.9555C102.033 82.2555 102.022 82.6572 102.036 82.867C102.035 82.9139 102.042 82.9606 102.059 83.0044C102.126 83.0925 102.882 83.6862 103.039 83.6862C103.195 83.6862 103.749 84.0711 103.773 84.2578C103.796 84.4445 105.398 85.2354 105.625 85.2585C105.852 85.2815 106.953 85.4777 107.104 85.1704C107.141 85.0805 107.152 84.9818 107.135 84.8861ZM103.198 45.2672L103.312 45.3648C103.312 45.3648 103.429 46.2721 103.513 46.5437C103.596 46.8154 103.496 47.344 103.496 47.344C103.504 47.5413 103.543 47.7361 103.613 47.9209C103.712 48.1192 103.412 48.5503 103.412 48.5503H103.145L103.062 45.1539L103.198 45.2672ZM95.2519 35.1265V35.1066C95.2498 35.1129 95.2487 35.1202 95.2487 35.1265H95.2519ZM91.1484 48.201C91.1073 48.1131 91.1012 48.013 91.1315 47.9209C91.1552 47.8711 91.174 47.8191 91.1875 47.7657C91.2203 47.6279 91.2408 47.4875 91.2487 47.3461C91.2489 47.3444 91.2489 47.3426 91.2487 47.3409C91.2392 47.2905 91.1537 46.8038 91.2329 46.5458C91.3121 46.2878 91.4325 45.3669 91.4325 45.3669L91.5086 45.3029L91.685 45.1508C91.685 45.1508 91.685 45.0941 91.6976 45.0008C91.7346 45.798 91.7642 46.679 91.7167 46.7231C91.6279 46.8101 91.3047 47.6671 91.3829 47.7007C91.4082 47.7122 91.3734 48.0552 91.3142 48.5167C91.2478 48.4176 91.1922 48.3118 91.1484 48.201V48.201Z" fill="url(#paint1_linear_44_3484)"/>
<path d="M99.6614 35.9646V37.2694L96.9658 38.6152C96.9658 38.6152 94.2893 37.0072 94.9495 36.3674C95.372 35.9625 95.2906 34.8507 95.1766 34.086C95.11 33.6413 95.0329 33.3151 95.0329 33.3151C95.0329 33.3151 99.8409 31.9515 99.1142 32.9868C98.8713 33.3329 98.8523 33.7808 98.9336 34.2245C99.0984 35.1045 99.6614 35.9646 99.6614 35.9646Z" fill="#C37098"/>
<path d="M92.2777 48.7244L91.9302 52.9745C91.9302 52.9745 91.4094 52.5057 90.7355 51.8952C89.486 50.7634 87.7115 49.145 87.7326 49.102C87.7654 49.0359 88.0495 45.1802 88.0801 44.211C88.109 43.5231 88.2599 42.8456 88.5259 42.2097C88.5892 42.0838 88.7677 41.2825 88.8427 40.908C88.8681 40.7916 88.8839 40.7161 88.8839 40.7161L89.467 40.4832C89.467 40.4832 91.8964 43.1747 91.8964 43.224C91.8964 43.2733 91.7305 45.3406 91.7305 45.3406L91.5584 45.4896L91.4834 45.5536C91.4834 45.5536 91.3672 46.4567 91.2848 46.7273C91.2024 46.9979 91.2911 47.4678 91.3006 47.5182C91.2929 47.6595 91.2727 47.7999 91.2404 47.9377C91.2267 47.9907 91.2079 48.0424 91.1845 48.0919C91.1547 48.1837 91.1607 48.2833 91.2014 48.3709C91.2483 48.4925 91.3093 48.6083 91.383 48.716L92.2777 48.7244Z" fill="#3F3D56"/>
<path d="M107.001 49.102C107.026 49.1534 104.435 51.5018 103.312 52.5161L102.803 52.9745L102.459 48.7244H103.352C103.352 48.7244 103.649 48.2975 103.55 48.1003C103.481 47.9164 103.442 47.7227 103.435 47.5265C103.435 47.5265 103.533 47.0021 103.451 46.7304C103.368 46.4587 103.252 45.5567 103.252 45.5567L103.139 45.4602L103.005 45.3438C103.005 45.3438 102.839 43.2764 102.839 43.2271C102.839 43.1778 105.269 40.4863 105.269 40.4863L105.847 40.716C105.847 40.716 105.86 40.7779 105.881 40.8765C105.959 41.2342 106.146 42.0806 106.211 42.2097C106.477 42.8455 106.628 43.523 106.656 44.211C106.684 45.1801 106.967 49.0359 107.001 49.102Z" fill="#3F3D56"/>
<path d="M107.012 85.1777C106.856 85.484 105.766 85.2826 105.541 85.2658C105.316 85.2491 103.728 84.455 103.706 84.2694C103.683 84.0837 103.133 83.7009 102.979 83.7009C102.825 83.7009 102.076 83.1093 102.009 83.0222C101.992 82.9788 101.985 82.9324 101.987 82.8859C101.964 82.5261 102.009 81.5999 102.009 81.5999L105.204 81.7751L106.757 84.0942C106.888 84.3444 106.982 84.6117 107.038 84.8882C107.057 84.9853 107.048 85.0856 107.012 85.1777V85.1777Z" fill="#3F3D56"/>
<path opacity="0.1" d="M107.012 85.1777C106.856 85.484 105.766 85.2826 105.541 85.2658C105.316 85.2491 103.728 84.455 103.706 84.2694C103.683 84.0837 103.133 83.7009 102.979 83.7009C102.825 83.7009 102.076 83.1093 102.009 83.0222C101.992 82.9788 101.985 82.9324 101.987 82.8859C101.964 82.5261 102.009 81.5999 102.009 81.5999L105.204 81.7751L106.757 84.0942C106.888 84.3444 106.982 84.6117 107.038 84.8882C107.057 84.9853 107.048 85.0856 107.012 85.1777V85.1777Z" fill="black"/>
<path opacity="0.1" d="M107.011 85.1775C106.856 85.4838 105.766 85.2824 105.541 85.2656C105.316 85.2488 103.727 84.4548 103.705 84.2692C103.683 84.0835 103.133 83.7007 102.978 83.7007C102.824 83.7007 102.075 83.1091 102.009 83.022C101.992 82.9786 101.984 82.9322 101.987 82.8857L103.022 83.536C103.022 83.536 103.683 83.9556 103.859 84.2041C104.036 84.4527 105.426 84.9698 105.541 84.9803C105.626 84.9887 106.539 84.8146 107.038 84.888C107.056 84.9851 107.047 85.0854 107.011 85.1775V85.1775Z" fill="black"/>
<path d="M91.9072 83.2637C91.9072 83.2637 91.4551 83.8217 90.8509 83.8647C90.6915 83.8659 90.5386 83.9278 90.4238 84.0377C90.309 84.1476 90.2411 84.297 90.2341 84.4552C90.2341 84.4552 90.3397 84.7951 88.8789 85.266C87.9969 85.5482 87.4424 85.459 87.1192 85.266C86.9458 85.171 86.8148 85.0144 86.7527 84.8276C86.6534 84.4783 88.6032 81.8193 88.6032 81.8193L90.3777 81.7144L91.6452 82.2829L91.8396 83.0035L91.9072 83.2637Z" fill="#3F3D56"/>
<path opacity="0.1" d="M91.9072 83.2637C91.9072 83.2637 91.4551 83.8217 90.8509 83.8647C90.6915 83.8659 90.5386 83.9278 90.4238 84.0377C90.309 84.1476 90.2411 84.297 90.2341 84.4552C90.2341 84.4552 90.3397 84.7951 88.8789 85.266C87.9969 85.5482 87.4424 85.459 87.1192 85.266C86.9458 85.171 86.8148 85.0144 86.7527 84.8276C86.6534 84.4783 88.6032 81.8193 88.6032 81.8193L90.3777 81.7144L91.6452 82.2829L91.8396 83.0035L91.9072 83.2637Z" fill="black"/>
<path opacity="0.1" d="M91.907 83.2636C91.907 83.2636 91.455 83.8217 90.8508 83.8647C90.6914 83.8659 90.5385 83.9278 90.4237 84.0377C90.3089 84.1476 90.241 84.297 90.234 84.4552C90.234 84.4552 90.3396 84.795 88.8788 85.266C87.9969 85.5481 87.4423 85.459 87.1191 85.266C87.9504 85.18 89.7872 84.6587 89.971 84.4783C90.1917 84.2591 90.4674 83.657 90.6543 83.6465C90.7843 83.6381 91.4444 83.2437 91.8405 82.9993L91.907 83.2636Z" fill="black"/>
<path d="M105.512 80.8237C105.314 81.2831 105.512 82.224 105.512 82.224C105.512 82.224 102.555 82.3771 101.832 81.8957C101.11 81.4142 100.599 78.6567 100.599 78.6567C100.599 78.6567 100.704 75.4187 100.599 75.2656C100.493 75.1125 100.092 74.3908 100.224 74.2377C100.356 74.0845 100.118 73.2748 99.9374 72.9245C99.7568 72.5741 99.8318 71.5682 99.8318 71.5682L99.3903 68.8978L98.7079 65.7259L98.128 63.6029C98.128 63.6029 97.5334 61.8744 97.3316 61.1527C97.1299 60.4311 96.9165 61.0866 96.9165 61.0866C96.8954 61.7873 95.2646 64.9382 95.2646 64.9382C95.2646 64.9382 95.0216 66.8419 94.7576 67.5195C94.4935 68.1971 94.2062 70.5613 94.2062 70.5613C94.2062 70.5613 93.7837 75.3747 93.4352 76.1844C93.0866 76.9942 92.8468 78.1973 92.8468 78.1973C92.8468 78.1973 92.9355 79.8608 92.7148 79.9919C92.494 80.123 92.5299 81.13 92.5299 81.13C92.5299 81.13 92.662 82.0918 92.155 82.246C91.648 82.4002 91.7325 82.7274 91.7325 82.7274C91.7325 82.7274 88.9123 83.1869 88.4497 81.9607C87.987 80.7345 88.6261 80.4083 88.6609 80.3202C88.6958 80.2321 89.0475 80.08 88.7391 79.7287C88.4307 79.3773 89.1352 78.4165 89.1352 78.4165C89.1352 78.4165 89.2461 77.0603 89.4436 77.0162C89.6411 76.9722 89.5767 75.0034 89.5767 75.0034L89.7964 72.9465C89.7964 72.9465 90.0837 68.3513 90.0171 68.1761C89.9506 68.001 89.995 67.1272 90.2157 66.7077C90.4365 66.2881 90.6118 62.4617 90.6118 62.4617C90.6118 62.4617 90.5674 60.5811 90.7438 60.2307C90.8495 60.0325 90.8938 59.2699 90.9192 58.6479C90.9382 58.1728 90.9424 57.7795 90.9424 57.7795L93.4098 56.8606L96.5785 55.8547L99.2445 57.1239L103.145 57.8676L103.194 58.5357L103.938 68.7425L104.361 72.593C104.361 72.593 104.537 74.4087 104.56 74.737C104.582 75.0653 104.801 77.2103 104.801 77.2103C104.801 77.2103 105.264 78.2382 104.978 78.5885C104.692 78.9388 104.801 79.2178 104.801 79.2178C104.801 79.2178 105.711 80.3643 105.512 80.8237Z" fill="#3F3D56"/>
<path opacity="0.1" d="M99.1165 32.9866C98.8735 33.3327 98.8545 33.7806 98.9358 34.2243C98.3808 34.6131 97.7124 34.8101 97.0336 34.7849C96.3548 34.7597 95.7031 34.5137 95.1788 34.0848V34.0848C95.1123 33.64 95.0352 33.3138 95.0352 33.3138C95.0352 33.3138 99.8432 31.9524 99.1165 32.9866Z" fill="black"/>
<path d="M100.24 31.6483C100.24 32.2561 100.059 32.8503 99.7188 33.3557C99.3787 33.8611 98.8954 34.255 98.3299 34.4876C97.7644 34.7202 97.1421 34.7811 96.5418 34.6625C95.9415 34.5439 95.39 34.2512 94.9572 33.8214C94.5244 33.3916 94.2297 32.844 94.1102 32.2479C93.9908 31.6517 94.0521 31.0338 94.2864 30.4722C94.5206 29.9107 94.9173 29.4307 95.4262 29.093C95.9351 28.7553 96.5335 28.575 97.1456 28.575C97.5525 28.5731 97.9558 28.6513 98.3322 28.805C98.7086 28.9588 99.0505 29.1851 99.3383 29.4708C99.6261 29.7566 99.8539 30.0962 100.009 30.4699C100.164 30.8437 100.242 31.2442 100.24 31.6483Z" fill="#C37098"/>
<path opacity="0.1" d="M100.885 36.7553L99.8709 54.6862L94.3626 53.5376L93.2715 46.3495L94.352 36.6997L95.1653 36.8035L96.5997 36.985L98.0204 37.0721L99.5604 36.9021L100.885 36.7553Z" fill="black"/>
<path d="M100.885 36.8866L99.8709 54.8174L94.3626 53.6689L93.2715 46.4808L94.352 36.8321L95.1653 36.9349L96.5997 37.1163L98.0204 37.2034L99.5604 37.0335L100.885 36.8866Z" fill="#6C63FF"/>
<path d="M96.3564 37.3679L98.3401 37.434L97.7824 38.2091C97.7824 38.2091 97.8215 39.7751 98.0866 40.2241C98.3517 40.673 98.2735 47.6083 98.2735 47.6083L97.7454 48.6037L96.8423 47.4876L96.8539 38.3308L96.3564 37.3679Z" fill="#3F3D56"/>
<path opacity="0.1" d="M96.3564 37.3679L98.3401 37.434L97.7824 38.2091C97.7824 38.2091 97.8215 39.7751 98.0866 40.2241C98.3517 40.673 98.2735 47.6083 98.2735 47.6083L97.7454 48.6037L96.8423 47.4876L96.8539 38.3308L96.3564 37.3679Z" fill="black"/>
<path opacity="0.1" d="M99.4638 35.3332L97.6133 37.3681L98.6706 38.462L100.423 36.766L99.4638 35.3332Z" fill="black"/>
<path d="M99.4638 35.2021L97.6133 37.2369L98.6706 38.3309L100.423 36.6349L99.4638 35.2021Z" fill="#6C63FF"/>
<path opacity="0.1" d="M96.8314 37.2693L94.9576 35.4096L94.7812 36.383L95.641 38.5164L96.8314 37.2693Z" fill="black"/>
<path d="M96.8968 37.1382L95.0241 35.2785L94.8477 36.2518L95.7074 38.3853L96.8968 37.1382Z" fill="#6C63FF"/>
<path opacity="0.1" d="M103.203 58.5389C102.304 58.9644 101.34 59.2411 100.351 59.3581C98.5333 59.5878 97.344 57.2907 97.344 57.2907L96.65 58.1875C96.4293 59.1399 93.0694 59.3801 91.7037 59.0193C91.4203 58.9498 91.1538 58.8246 90.9199 58.6511C90.9389 58.176 90.9432 57.7826 90.9432 57.7826L93.4105 56.8638L96.5793 55.8579L99.2452 57.1271L103.146 57.8707L103.203 58.5389Z" fill="black"/>
<path opacity="0.1" d="M100.885 36.8877L99.8721 54.8175L94.3627 53.6689L93.2695 46.4819L94.349 36.8321L95.1623 36.937C95.1415 37.2885 95.1017 37.6386 95.043 37.9858C94.9109 38.5995 95.7264 42.9534 95.7264 42.9534C95.7264 42.9534 97.2759 47.836 97.973 47.1322C98.6701 46.4284 99.663 42.7122 99.663 42.7122C100.336 41.3339 99.6746 37.4677 99.6249 37.3901C99.5904 37.2757 99.5691 37.1578 99.5616 37.0387L100.885 36.8877Z" fill="black"/>
<path opacity="0.1" d="M103.265 50.7623L103.311 52.5192L102.802 52.9776L102.459 48.7243H103.219L103.265 50.7623Z" fill="black"/>
<path opacity="0.1" d="M91.3018 47.5212C91.294 47.6625 91.2738 47.8029 91.2415 47.9407C91.2415 47.9019 91.2415 47.8799 91.2331 47.8768C91.2014 47.8684 91.2394 47.7079 91.3018 47.5212Z" fill="black"/>
<path opacity="0.1" d="M92.2775 48.7244L91.93 52.9745C91.93 52.9745 91.4093 52.5056 90.7354 51.8952L90.8156 51.1421C90.8156 51.1421 91.0998 49.2918 91.2033 48.3793C91.2502 48.5009 91.3112 48.6167 91.385 48.7244H92.2775Z" fill="black"/>
<path d="M95.2658 35.3435C95.2658 35.3435 94.9362 34.8621 94.4842 35.7914C94.4842 35.7914 93.3054 36.47 92.8998 36.5466C92.4942 36.6232 91.0514 37.1267 91.0514 37.1267C90.8335 37.2831 90.5714 37.3671 90.3025 37.3668C89.8504 37.3668 89.4755 38.3518 89.5304 38.8877C89.5853 39.4237 89.4976 39.8181 89.0794 39.8401C88.6611 39.8622 88.8914 40.7254 88.8914 40.7254L91.6788 43.8983C91.6788 43.8983 91.8552 46.8195 91.7675 46.9076C91.6798 46.9957 91.3598 47.8516 91.4369 47.881C91.514 47.9104 91.0144 51.141 91.0144 51.141L90.3426 57.4102C90.3426 57.4102 90.3426 58.4591 91.7094 58.821C93.0762 59.1829 96.4382 58.9437 96.6547 57.9913L97.3487 57.0935C97.3487 57.0935 98.538 59.3916 100.356 59.1619C102.174 58.9322 103.331 58.2756 103.331 58.2756L103.133 50.7623L103.001 45.3469L105.839 40.716C105.839 40.716 105.078 39.2716 105.145 38.6182C105.211 37.9647 105.342 37.4696 103.723 37.2399C103.723 37.2399 102.357 37.0375 101.553 36.4847C101.074 36.1549 100.552 35.8936 99.9999 35.7085C99.9999 35.7085 99.5457 34.8694 99.2299 35.1568C99.2299 35.1568 99.5467 36.3431 99.5203 36.5204C99.4939 36.6977 99.57 37.499 99.6196 37.5819C99.6693 37.6647 100.33 41.5257 99.6576 42.904C99.6576 42.904 98.6701 46.6202 97.9677 47.324C97.2653 48.0278 95.721 43.1452 95.721 43.1452C95.721 43.1452 94.9056 38.7902 95.0376 38.1776C95.1697 37.5651 95.2658 35.3435 95.2658 35.3435Z" fill="#3F3D56"/>
<path d="M97.6235 49.6872C97.8912 49.6872 98.1083 49.4717 98.1083 49.2058C98.1083 48.9399 97.8912 48.7243 97.6235 48.7243C97.3557 48.7243 97.1387 48.9399 97.1387 49.2058C97.1387 49.4717 97.3557 49.6872 97.6235 49.6872Z" fill="#3F3D56"/>
<path d="M97.6235 51.9571C97.8912 51.9571 98.1083 51.7416 98.1083 51.4757C98.1083 51.2098 97.8912 50.9942 97.6235 50.9942C97.3557 50.9942 97.1387 51.2098 97.1387 51.4757C97.1387 51.7416 97.3557 51.9571 97.6235 51.9571Z" fill="#3F3D56"/>
<path opacity="0.1" d="M97.6235 49.6872C97.8912 49.6872 98.1083 49.4717 98.1083 49.2058C98.1083 48.9399 97.8912 48.7243 97.6235 48.7243C97.3557 48.7243 97.1387 48.9399 97.1387 49.2058C97.1387 49.4717 97.3557 49.6872 97.6235 49.6872Z" fill="black"/>
<path opacity="0.1" d="M97.6235 51.9571C97.8912 51.9571 98.1083 51.7416 98.1083 51.4757C98.1083 51.2098 97.8912 50.9942 97.6235 50.9942C97.3557 50.9942 97.1387 51.2098 97.1387 51.4757C97.1387 51.7416 97.3557 51.9571 97.6235 51.9571Z" fill="black"/>
<path opacity="0.1" d="M101.98 80.1673C101.98 80.1673 103.97 80.3205 104.168 80.4736C104.366 80.6267 101.98 80.1673 101.98 80.1673Z" fill="black" stroke="#6C63FF" stroke-miterlimit="10"/>
<path opacity="0.1" d="M90.1318 78.6135C90.1318 78.6135 90.5544 79.1379 90.3748 79.3792C90.1952 79.6204 90.1318 78.6135 90.1318 78.6135Z" fill="black" stroke="#6C63FF" stroke-miterlimit="10"/>
<path opacity="0.1" d="M90.6396 80.5047C90.6396 80.5047 91.4107 80.0013 91.7191 80.3358C92.0276 80.6704 90.6396 80.5047 90.6396 80.5047Z" fill="black" stroke="#6C63FF" stroke-miterlimit="10"/>
<path opacity="0.1" d="M100.24 31.6484C100.241 31.9106 100.207 32.1719 100.141 32.4256C100.076 32.3961 100.021 32.3476 99.9846 32.2865C99.948 32.2254 99.931 32.1546 99.936 32.0837C99.9497 31.9589 100.033 31.8445 100.015 31.7208C99.9888 31.5299 99.7564 31.4523 99.6339 31.3012C99.4829 31.1187 99.5156 30.8533 99.5283 30.6173C99.541 30.3813 99.4807 30.0929 99.2579 30.0121C99.1913 29.988 99.1185 29.9859 99.054 29.9586C98.8787 29.8852 98.8248 29.6691 98.7076 29.5202C98.4731 29.2202 98.0073 29.2265 97.6513 29.3691C97.4964 29.4429 97.3378 29.5087 97.176 29.5663C97.0951 29.5947 97.009 29.6061 96.9234 29.5998C96.8378 29.5934 96.7544 29.5696 96.6785 29.5296C96.6088 29.4856 96.5528 29.4247 96.481 29.3807C96.2423 29.238 95.9297 29.3807 95.7226 29.5642C95.5156 29.7478 95.3498 29.9943 95.0889 30.1065C94.9717 30.159 94.827 30.1904 94.772 30.3037C94.7448 30.3654 94.7332 30.4327 94.7382 30.4999C94.7382 30.9079 94.7868 31.3222 94.7013 31.7218C94.6463 31.9788 94.4647 32.2704 94.2017 32.2389C94.1689 32.2341 94.1367 32.226 94.1055 32.2148C94.0264 31.7947 94.0363 31.3628 94.1347 30.9468C94.2331 30.5307 94.4178 30.1396 94.6771 29.7984C94.9363 29.4573 95.2643 29.1735 95.6402 28.9654C96.0161 28.7572 96.4315 28.6292 96.8601 28.5895C97.2886 28.5498 97.7207 28.5993 98.1289 28.7348C98.5371 28.8703 98.9123 29.0889 99.2306 29.3766C99.5489 29.6643 99.8032 30.0147 99.9774 30.4055C100.152 30.7963 100.242 31.2189 100.242 31.6463L100.24 31.6484Z" fill="black"/>
<path d="M93.9679 32.0406C94.0471 32.0585 94.1221 32.0994 94.2034 32.1099C94.4664 32.1413 94.6481 31.8497 94.703 31.5927C94.7886 31.1931 94.7442 30.7788 94.741 30.3708C94.7351 30.3037 94.7464 30.2362 94.7738 30.1746C94.834 30.0614 94.9787 30.0299 95.0907 29.9775C95.3463 29.8642 95.5132 29.6229 95.7244 29.4352C95.9357 29.2474 96.243 29.109 96.4817 29.2516C96.5525 29.2936 96.6095 29.3565 96.6792 29.4006C96.7555 29.4399 96.839 29.4635 96.9247 29.4698C97.0104 29.4761 97.0965 29.465 97.1778 29.4373C97.3415 29.389 97.4947 29.3041 97.652 29.2401C98.0048 29.0974 98.4717 29.0922 98.7083 29.3901C98.8255 29.5401 98.8794 29.7551 99.0547 29.8285C99.1192 29.8558 99.192 29.8589 99.2586 29.8831C99.4814 29.9659 99.5385 30.2523 99.529 30.4883C99.5195 30.7243 99.4878 30.9896 99.6346 31.1721C99.7571 31.3211 99.9895 31.3987 100.016 31.5917C100.033 31.7155 99.9504 31.8309 99.9367 31.9546C99.9335 32.0006 99.9396 32.0468 99.9546 32.0904C99.9695 32.1341 99.9931 32.1743 100.024 32.2089C100.055 32.2434 100.092 32.2716 100.134 32.2917C100.176 32.3117 100.221 32.3234 100.267 32.3259C100.542 32.3259 100.712 32.0207 100.969 31.9232C101.074 31.8822 101.202 31.876 101.286 31.7931C101.317 31.7533 101.338 31.7072 101.35 31.6581C101.361 31.609 101.361 31.5581 101.351 31.5088C101.299 31.1071 100.975 30.7578 101.01 30.3551C101.043 29.9691 101.403 29.6324 101.327 29.2527C101.288 29.1127 101.215 28.9841 101.115 28.8782C101.002 28.7258 100.855 28.6019 100.685 28.5163C100.538 28.4534 100.368 28.4387 100.233 28.3622C99.8342 28.145 99.8353 27.5786 99.5997 27.1926C99.4987 27.0331 99.3553 26.9043 99.1854 26.8203C99.0155 26.7363 98.8256 26.7004 98.6365 26.7164C98.3397 26.7458 98.0703 26.9021 97.7767 26.9545C97.3742 27.0259 96.9665 26.8947 96.5852 26.7448C96.2039 26.5948 95.8184 26.4301 95.4096 26.4301C95.0009 26.4301 94.5583 26.6399 94.4337 27.0238C94.3682 27.2335 94.4009 27.458 94.3502 27.6688C94.2615 28.0433 93.9277 28.3097 93.5919 28.4954C93.3605 28.6233 93.0828 28.7702 93.0553 29.0313C93.0373 29.1971 93.1292 29.346 93.1873 29.5065C93.2861 29.778 93.2839 30.0756 93.181 30.3456C93.1039 30.5439 92.975 30.718 92.8969 30.9152C92.8414 31.049 92.8151 31.193 92.8199 31.3377C92.8246 31.4823 92.8602 31.6243 92.9243 31.7543C92.9735 31.849 93.0418 31.9328 93.1248 32.0005C93.2078 32.0681 93.3038 32.1182 93.407 32.1476C93.6151 32.1969 93.7461 31.9924 93.9679 32.0406Z" fill="#3F3D56"/>
<g opacity="0.1">
<path opacity="0.1" d="M94.7025 31.364C94.6475 31.621 94.4648 31.9126 94.2018 31.8811C94.1205 31.8706 94.0465 31.8297 93.9662 31.8119C93.7455 31.7636 93.6145 31.9692 93.4064 31.9168C93.3031 31.8873 93.2069 31.8373 93.1237 31.7696C93.0405 31.702 92.9721 31.6182 92.9226 31.5234C92.8674 31.4167 92.834 31.3001 92.8244 31.1804C92.8034 31.3662 92.8375 31.5539 92.9226 31.7206C92.9721 31.8154 93.0405 31.8992 93.1237 31.9668C93.2069 32.0345 93.3031 32.0845 93.4064 32.114C93.6177 32.1622 93.7455 31.9566 93.9662 32.0091C94.0435 32.0358 94.1221 32.0585 94.2018 32.0772C94.4648 32.1098 94.6475 31.8182 94.7025 31.5612C94.7458 31.3342 94.7628 31.1029 94.7532 30.8721C94.7521 31.0373 94.7352 31.202 94.7025 31.364V31.364Z" fill="black"/>
<path opacity="0.1" d="M93.2558 29.7845C93.2692 29.6126 93.2454 29.4399 93.186 29.2779C93.1383 29.1701 93.0977 29.0594 93.0646 28.9464C93.06 28.964 93.0565 28.9819 93.054 28.9999C93.0361 29.1646 93.129 29.3146 93.186 29.4751C93.2229 29.5747 93.2464 29.6787 93.2558 29.7845V29.7845Z" fill="black"/>
<path opacity="0.1" d="M101.325 29.2317C101.276 29.5296 101.033 29.8097 101.008 30.1233C101.002 30.177 101.002 30.2311 101.008 30.2848C101.061 29.9187 101.387 29.5946 101.325 29.2317Z" fill="black"/>
<path opacity="0.1" d="M101.343 31.4448C101.334 31.4887 101.314 31.5293 101.283 31.5623C101.205 31.6451 101.072 31.6514 100.966 31.6923C100.71 31.7899 100.544 32.0983 100.265 32.0951C100.194 32.0911 100.125 32.0657 100.069 32.0223C100.012 31.9788 99.97 31.9194 99.9481 31.8518C99.9417 31.8745 99.9368 31.8976 99.9334 31.921C99.9304 31.9669 99.9365 32.013 99.9516 32.0565C99.9666 32.1 99.9902 32.1402 100.021 32.1746C100.052 32.209 100.089 32.237 100.131 32.2571C100.172 32.2771 100.218 32.2887 100.264 32.2913C100.54 32.2913 100.709 31.986 100.965 31.8895C101.071 31.8486 101.2 31.8423 101.282 31.7595C101.313 31.7196 101.335 31.6736 101.346 31.6245C101.358 31.5754 101.358 31.5245 101.348 31.4752C101.347 31.4626 101.344 31.4542 101.343 31.4448Z" fill="black"/>
<path opacity="0.1" d="M100.019 31.3578C99.9925 31.1669 99.7601 31.0893 99.6376 30.9383C99.5624 30.8391 99.5217 30.7184 99.5214 30.5942C99.5129 30.7893 99.5161 30.9886 99.6376 31.1355C99.759 31.2823 99.9439 31.3452 100.003 31.4963C100.018 31.4517 100.023 31.4046 100.019 31.3578V31.3578Z" fill="black"/>
<path opacity="0.1" d="M99.5271 30.2596C99.5355 30.0236 99.4785 29.7352 99.2556 29.6544C99.1901 29.6303 99.1172 29.6271 99.0528 29.6009C98.8775 29.5275 98.8225 29.3114 98.7063 29.1625C98.4708 28.8635 98.005 28.8688 97.6501 29.0114C97.4917 29.0754 97.3406 29.1604 97.1758 29.2086C97.0949 29.237 97.0089 29.2484 96.9232 29.2421C96.8376 29.2357 96.7542 29.2119 96.6784 29.1719C96.6086 29.1279 96.5516 29.067 96.4808 29.023C96.2411 28.8803 95.9284 29.023 95.7225 29.2065C95.5165 29.3901 95.3496 29.6355 95.0887 29.7488C94.9704 29.8013 94.8268 29.8327 94.7655 29.946C94.7386 30.0078 94.7274 30.0751 94.7327 30.1421C94.7327 30.1831 94.7327 30.224 94.7327 30.2649C94.7341 30.2226 94.7446 30.1811 94.7634 30.1432C94.8246 30.0299 94.9683 29.9984 95.0866 29.946C95.3422 29.8327 95.5091 29.5915 95.7203 29.4037C95.9316 29.216 96.239 29.0775 96.4787 29.2202C96.5495 29.2621 96.6065 29.3251 96.6762 29.3681C96.752 29.4082 96.8354 29.4323 96.9211 29.4386C97.0068 29.4449 97.0928 29.4334 97.1737 29.4048C97.3352 29.3477 97.4935 29.2822 97.648 29.2086C98.0018 29.066 98.4676 29.0597 98.7042 29.3586C98.8204 29.5076 98.8753 29.7236 99.0507 29.7971C99.1151 29.8243 99.188 29.8275 99.2535 29.8516C99.4341 29.9187 99.5059 30.1201 99.5218 30.3194L99.5271 30.2596Z" fill="black"/>
</g>
<g opacity="0.1">
<path opacity="0.1" d="M94.3255 31.3578C94.3315 31.1837 94.3943 31.0163 94.5044 30.8807C94.6145 30.7451 94.766 30.6486 94.936 30.6058C95.407 30.4914 95.9012 30.5137 96.3598 30.6698C97.3622 30.9991 96.2331 32.1844 96.2331 32.1844C96.2331 32.1844 95.4821 32.9186 94.7818 32.4057C94.575 32.2504 94.4301 32.0275 94.373 31.7763C94.3387 31.6395 94.3228 31.4988 94.3255 31.3578V31.3578Z" fill="black"/>
<path opacity="0.1" d="M99.8359 31.3578C99.8297 31.1836 99.7668 31.016 99.6565 30.8804C99.5462 30.7448 99.3945 30.6484 99.2243 30.6058C98.7537 30.4916 98.2599 30.5138 97.8016 30.6697C96.7992 30.9991 97.9283 32.1843 97.9283 32.1843C97.9283 32.1843 98.6782 32.9186 99.3796 32.4057C99.5864 32.2504 99.7312 32.0275 99.7883 31.7763C99.8226 31.6395 99.8386 31.4988 99.8359 31.3578Z" fill="black"/>
<path opacity="0.1" d="M96.1709 30.5733V30.6226H98.0014V30.5639L96.1709 30.5733Z" fill="black"/>
<path opacity="0.1" d="M96.7548 31.0986H96.8129V30.9319C96.8129 30.9319 96.9988 30.7882 97.3073 30.9319V31.0808H97.4129V30.9833H97.3611C97.3611 30.9833 97.3823 30.7808 97.0379 30.8134C97.0379 30.8134 96.7611 30.7871 96.7675 30.9612H96.7041L96.7548 31.0986Z" fill="black"/>
</g>
<path d="M94.3255 31.2895C94.3316 31.1154 94.3944 30.948 94.5045 30.8124C94.6145 30.6767 94.766 30.5803 94.936 30.5374C95.4071 30.4239 95.901 30.4461 96.3598 30.6014C97.3622 30.9318 96.2331 32.116 96.2331 32.116C96.2331 32.116 95.4821 32.8503 94.7818 32.3374C94.5746 32.1825 94.4297 31.9594 94.3731 31.708C94.3387 31.5712 94.3227 31.4305 94.3255 31.2895V31.2895Z" fill="#6C63FF"/>
<path d="M99.8359 31.2896C99.8298 31.1153 99.7668 30.9478 99.6565 30.8121C99.5462 30.6765 99.3946 30.5801 99.2243 30.5375C98.7536 30.4239 98.26 30.4461 97.8016 30.6015C96.7992 30.9319 97.9283 32.1161 97.9283 32.1161C97.9283 32.1161 98.6783 32.8503 99.3796 32.3374C99.5868 32.1825 99.7318 31.9594 99.7884 31.7081C99.8228 31.5713 99.8387 31.4305 99.8359 31.2896Z" fill="#6C63FF"/>
<path d="M96.1709 30.5071V30.5575H98.0014V30.4977L96.1709 30.5071Z" fill="#6C63FF"/>
<path d="M96.7548 31.0326H96.8129V30.8658C96.8129 30.8658 96.9988 30.7232 97.3073 30.8658V31.0158H97.4129V30.9172H97.3611C97.3611 30.9172 97.3823 30.7159 97.0379 30.7473C97.0379 30.7473 96.7611 30.7222 96.7675 30.8952H96.7041L96.7548 31.0326Z" fill="#6C63FF"/>
<path d="M13.0062 47.9545H12.4062V61.3699H13.0062V47.9545Z" fill="#535461"/>
<path d="M16.7769 61.3291L16.7389 61.9333L16.6861 62.786L16.6639 63.1416L16.6111 63.9954L16.5879 64.351L16.5351 65.2037L15.9298 74.9028C15.904 75.3203 15.7189 75.7122 15.4121 75.9987C15.1053 76.2852 14.7001 76.4447 14.2789 76.4447H11.1334C10.7124 76.4447 10.3073 76.2851 10.0007 75.9986C9.69408 75.7121 9.50914 75.3202 9.48358 74.9028L8.87519 65.2037L8.82237 64.351L8.80019 63.9954L8.74844 63.1395L8.72625 62.7839L8.67344 61.9312L8.63542 61.327C8.62821 61.211 8.64499 61.0948 8.68473 60.9856C8.72447 60.8763 8.78633 60.7763 8.86649 60.6917C8.94665 60.6071 9.04342 60.5396 9.15082 60.4936C9.25822 60.4475 9.37399 60.4238 9.49098 60.4239H15.9224C16.0396 60.4238 16.1555 60.4476 16.263 60.4938C16.3705 60.54 16.4673 60.6076 16.5474 60.6924C16.6275 60.7773 16.6892 60.8776 16.7287 60.9871C16.7682 61.0966 16.7846 61.213 16.7769 61.3291V61.3291Z" fill="#3F3D56"/>
<path d="M16.7394 61.9332L16.6866 62.7859H8.72566L8.67285 61.9332H16.7394Z" fill="#9D9CB5"/>
<path d="M16.6646 63.1414L16.6118 63.9952H8.80192L8.74805 63.1414H16.6646Z" fill="#9D9CB5"/>
<path d="M16.5887 64.351L16.5359 65.2038H8.87809L8.82422 64.351H16.5887Z" fill="#9D9CB5"/>
<path d="M7.75745 52.9828C11.2515 55.4928 12.707 59.4198 12.707 59.4198C12.707 59.4198 8.49576 59.2761 4.99643 56.7661C1.4971 54.2561 0.046875 50.3291 0.046875 50.3291C0.046875 50.3291 4.26234 50.4728 7.75745 52.9828Z" fill="#6C63FF"/>
<path d="M0.0517578 50.3291C0.0517578 50.3291 4.42249 52.7415 5.82413 54.7344C7.22576 56.7273 12.7066 59.4209 12.7066 59.4209" stroke="#535461" stroke-width="2" stroke-miterlimit="10"/>
<path d="M10.0116 47.9304C11.9129 49.294 12.7061 51.4337 12.7061 51.4337C12.7061 51.4337 10.4141 51.3561 8.51178 49.9894C6.60949 48.6227 5.81836 46.4861 5.81836 46.4861C5.81836 46.4861 8.11041 46.5585 10.0116 47.9304Z" fill="#6C63FF"/>
<path d="M5.81836 46.4809C5.81836 46.4809 8.19702 47.792 8.95963 48.8776C9.72223 49.9632 12.7061 51.4285 12.7061 51.4285" stroke="#535461" stroke-width="2" stroke-miterlimit="10"/>
<path d="M15.4712 51.3205C13.2858 53.7046 12.8242 56.8198 12.8242 56.8198C12.8242 56.8198 15.9042 56.0699 18.0885 53.6857C20.2728 51.3016 20.7355 48.1853 20.7355 48.1853C20.7355 48.1853 17.6555 48.9353 15.4712 51.3205Z" fill="#6C63FF"/>
<path d="M20.7355 48.1853C20.7355 48.1853 17.89 50.6292 17.1664 52.3138C16.4429 53.9983 12.8242 56.824 12.8242 56.824" stroke="#535461" stroke-width="2" stroke-miterlimit="10"/>
</g>
<defs>
<linearGradient id="paint0_linear_44_3484" x1="62.456" y1="67.7671" x2="62.456" y2="11.3018" gradientUnits="userSpaceOnUse">
<stop stop-color="#808080" stop-opacity="0.25"/>
<stop offset="0.54" stop-color="#808080" stop-opacity="0.12"/>
<stop offset="1" stop-color="#808080" stop-opacity="0.1"/>
</linearGradient>
<linearGradient id="paint1_linear_44_3484" x1="19438.4" y1="50707" x2="19438.4" y2="17180.7" gradientUnits="userSpaceOnUse">
<stop stop-color="#808080" stop-opacity="0.25"/>
<stop offset="0.54" stop-color="#808080" stop-opacity="0.12"/>
<stop offset="1" stop-color="#808080" stop-opacity="0.1"/>
</linearGradient>
<clipPath id="clip0_44_3484">
<rect width="121" height="86" fill="white"/>
</clipPath>
</defs>
</svg>
