<svg width="16" height="16" viewBox="0 0 18 18" fill="none" xmlns="http://www.w3.org/2000/svg">
<path d="M18 15.7537C18 16.004 17.8208 16.2071 17.6 16.2071H11.023C10.8022 16.2071 10.623 16.004 10.623 15.7537C10.623 15.5035 10.8022 15.3004 11.023 15.3004L17.6 15.3004C17.8208 15.3004 18 15.5032 18 15.7537Z" fill="#404040"/>
<path d="M11.8713 2.24621C11.8713 2.49646 11.6921 2.69955 11.4713 2.69955L0.399997 2.69955C0.179199 2.69955 0 2.49646 0 2.24621C0 1.99596 0.179199 1.79287 0.399997 1.79287L11.4713 1.79287C11.6923 1.79287 11.8713 1.99596 11.8713 2.24621Z" fill="#404040"/>
<path d="M18.0001 8.9999C18.0001 9.25015 17.8209 9.45325 17.6001 9.45325L5.58457 9.45325C5.36377 9.45325 5.18457 9.25015 5.18457 8.9999C5.18457 8.74966 5.36377 8.54656 5.58457 8.54656L17.6001 8.54656C17.8209 8.54656 18.0001 8.74966 18.0001 8.9999Z" fill="#404040"/>
<path d="M5.98448 8.99989C5.98448 10.2384 5.09549 11.2462 4.00249 11.2462C2.9095 11.2462 2.02051 10.2387 2.02051 8.99989C2.02051 7.76113 2.9095 6.75357 4.00249 6.75357C5.09549 6.75357 5.98448 7.76113 5.98448 8.99989ZM2.8207 8.99989C2.8207 9.73862 3.3509 10.3395 4.00269 10.3395C4.65449 10.3395 5.18469 9.73862 5.18469 8.99989C5.18469 8.26117 4.65449 7.66026 4.00269 7.66026C3.3509 7.66026 2.8207 8.26117 2.8207 8.99989Z" fill="#404040"/>
<path d="M11.423 15.7537C11.423 16.9922 10.534 18 9.44097 18C8.34818 18 7.45898 16.9925 7.45898 15.7537C7.45898 14.5149 8.34798 13.5074 9.44097 13.5074C10.534 13.5074 11.423 14.5152 11.423 15.7537ZM8.25898 15.7537C8.25898 16.4924 8.78918 17.0933 9.44097 17.0933C10.0928 17.0933 10.623 16.4924 10.623 15.7537C10.623 15.015 10.0928 14.4141 9.44097 14.4141C8.78918 14.4141 8.25898 15.015 8.25898 15.7537Z" fill="#404040"/>
<path d="M15.0351 2.24634C15.0351 3.48488 14.1461 4.49243 13.0531 4.49243C11.9603 4.49243 11.0713 3.48488 11.0713 2.24634C11.0713 1.00758 11.9603 1.99322e-05 13.0531 1.99322e-05C14.1459 1.99322e-05 15.0351 1.00758 15.0351 2.24634ZM11.8711 2.24634C11.8711 2.98506 12.4011 3.58574 13.0529 3.58574C13.7047 3.58574 14.2349 2.98506 14.2349 2.24634C14.2349 1.50762 13.7047 0.906708 13.0529 0.906708C12.4011 0.906708 11.8711 1.50762 11.8711 2.24634Z" fill="#404040"/>
<path d="M8.25894 15.7537C8.25894 16.004 8.07974 16.2071 7.85895 16.2071H0.399997C0.179199 16.2071 0 16.004 0 15.7537C0 15.5035 0.179199 15.3004 0.399997 15.3004L7.85895 15.3004C8.07994 15.3004 8.25894 15.5032 8.25894 15.7537Z" fill="#404040"/>
<path d="M2.82058 8.99996C2.82058 9.25021 2.64138 9.45331 2.42058 9.45331H0.399997C0.179199 9.45331 0 9.25021 0 8.99996C0 8.74972 0.179199 8.54662 0.399997 8.54662H2.42058C2.64138 8.54662 2.82058 8.74972 2.82058 8.99996Z" fill="#404040"/>
<path d="M17.999 2.24612C17.999 2.49636 17.8198 2.69946 17.599 2.69946L14.6344 2.69946C14.4136 2.69946 14.2344 2.49636 14.2344 2.24612C14.2344 1.99587 14.4136 1.79277 14.6344 1.79277L17.599 1.79277C17.8198 1.79277 17.999 1.99587 17.999 2.24612Z" fill="#404040"/>
</svg>
